G04*
G04 #@! TF.GenerationSoftware,Altium Limited,Altium Designer,18.1.11 (251)*
G04*
G04 Layer_Physical_Order=2*
G04 Layer_Color=16711680*
%FSLAX25Y25*%
%MOIN*%
G70*
G01*
G75*
%ADD11C,0.01000*%
%ADD19C,0.04961*%
%ADD20C,0.05906*%
%ADD21R,0.05906X0.05906*%
%ADD22C,0.05000*%
%ADD23C,0.15748*%
%ADD24R,0.03543X0.03150*%
%ADD25R,0.03150X0.03543*%
G36*
X694971Y155529D02*
X115029D01*
X115029Y349971D01*
X324664D01*
X324815Y349471D01*
X324793Y349455D01*
X320496Y345159D01*
X320032Y345351D01*
X319000Y345487D01*
X317968Y345351D01*
X317007Y344953D01*
X316181Y344319D01*
X315547Y343493D01*
X315149Y342532D01*
X315013Y341500D01*
X315149Y340468D01*
X315547Y339507D01*
X316181Y338681D01*
X317007Y338047D01*
X317968Y337649D01*
X319000Y337513D01*
X320032Y337649D01*
X320993Y338047D01*
X321819Y338681D01*
X322453Y339507D01*
X322851Y340468D01*
X322987Y341500D01*
X322851Y342532D01*
X322659Y342996D01*
X326507Y346845D01*
X540874D01*
X540961Y346345D01*
X539695Y345305D01*
X538586Y343954D01*
X537762Y342412D01*
X537254Y340740D01*
X537083Y339000D01*
X537254Y337260D01*
X537762Y335588D01*
X538586Y334046D01*
X539695Y332695D01*
X541046Y331586D01*
X542588Y330762D01*
X544260Y330254D01*
X546000Y330083D01*
X547740Y330254D01*
X549412Y330762D01*
X550954Y331586D01*
X552305Y332695D01*
X553414Y334046D01*
X554238Y335588D01*
X554746Y337260D01*
X554917Y339000D01*
X554746Y340740D01*
X554238Y342412D01*
X553715Y343391D01*
X554121Y343692D01*
X580395Y317419D01*
X580891Y317087D01*
X581476Y316971D01*
X623867D01*
X645521Y295316D01*
X645287Y294843D01*
X645000Y294881D01*
X644086Y294760D01*
X643235Y294408D01*
X642504Y293847D01*
X641943Y293115D01*
X641845Y292880D01*
X458728D01*
X458143Y292763D01*
X457647Y292432D01*
X450987Y285772D01*
X448819D01*
X448681Y285772D01*
X448319D01*
X448181Y285772D01*
X443169D01*
Y280228D01*
X443746D01*
X443923Y279728D01*
X443460Y279125D01*
X443109Y278278D01*
X442990Y277370D01*
X443109Y276462D01*
X443460Y275615D01*
X444018Y274888D01*
X444745Y274330D01*
X445591Y273979D01*
X446500Y273860D01*
X447408Y273979D01*
X448255Y274330D01*
X448982Y274888D01*
X449540Y275615D01*
X449891Y276462D01*
X450010Y277370D01*
X449891Y278278D01*
X449540Y279125D01*
X449077Y279728D01*
X449222Y280138D01*
X449298Y280228D01*
X453831D01*
Y284290D01*
X459362Y289821D01*
X566883D01*
X567074Y289359D01*
X563487Y285772D01*
X561819D01*
X561681Y285772D01*
X561319D01*
X561181Y285772D01*
X556169D01*
Y280228D01*
X556554D01*
X556731Y279728D01*
X556268Y279125D01*
X555917Y278278D01*
X555798Y277370D01*
X555917Y276462D01*
X556268Y275615D01*
X556826Y274888D01*
X557553Y274330D01*
X558399Y273979D01*
X559308Y273860D01*
X560217Y273979D01*
X561063Y274330D01*
X561790Y274888D01*
X562348Y275615D01*
X562699Y276462D01*
X562818Y277370D01*
X562699Y278278D01*
X562348Y279125D01*
X561885Y279728D01*
X562030Y280138D01*
X562106Y280228D01*
X566831D01*
Y284790D01*
X571862Y289821D01*
X641845D01*
X641943Y289585D01*
X642504Y288854D01*
X643235Y288293D01*
X643577Y288151D01*
Y284772D01*
X638669D01*
Y279228D01*
X638962D01*
X639296Y278728D01*
X639109Y278278D01*
X638990Y277370D01*
X639109Y276462D01*
X639460Y275615D01*
X640018Y274888D01*
X640745Y274330D01*
X641592Y273979D01*
X642500Y273860D01*
X643408Y273979D01*
X644255Y274330D01*
X644982Y274888D01*
X645540Y275615D01*
X645891Y276462D01*
X646010Y277370D01*
X645891Y278278D01*
X645704Y278728D01*
X646038Y279228D01*
X647166D01*
X647484Y278842D01*
X647471Y278776D01*
Y257155D01*
X647235Y257057D01*
X646504Y256496D01*
X645943Y255765D01*
X645772Y255352D01*
X645272Y255451D01*
Y259331D01*
X644029D01*
Y260345D01*
X644265Y260443D01*
X644996Y261004D01*
X645557Y261735D01*
X645910Y262586D01*
X646030Y263500D01*
X645910Y264414D01*
X645557Y265265D01*
X644996Y265996D01*
X644265Y266557D01*
X643414Y266910D01*
X642500Y267030D01*
X641586Y266910D01*
X640735Y266557D01*
X640004Y265996D01*
X639443Y265265D01*
X639090Y264414D01*
X638970Y263500D01*
X639090Y262586D01*
X639443Y261735D01*
X640004Y261004D01*
X640735Y260443D01*
X640971Y260345D01*
Y259331D01*
X639728D01*
Y255756D01*
X639228Y255656D01*
X639183Y255765D01*
X638622Y256496D01*
X637891Y257057D01*
X637040Y257410D01*
X636126Y257530D01*
X635212Y257410D01*
X634361Y257057D01*
X633630Y256496D01*
X633069Y255765D01*
X632716Y254914D01*
X632596Y254000D01*
X632614Y253862D01*
X632284Y253486D01*
X621379D01*
X621158Y253935D01*
X621348Y254182D01*
X621699Y255029D01*
X621818Y255937D01*
X621699Y256845D01*
X621348Y257692D01*
X620790Y258419D01*
X620063Y258977D01*
X619216Y259328D01*
X618308Y259447D01*
X617400Y259328D01*
X616553Y258977D01*
X615826Y258419D01*
X615268Y257692D01*
X614917Y256845D01*
X614798Y255937D01*
X614917Y255029D01*
X615268Y254182D01*
X615458Y253935D01*
X615237Y253486D01*
X586571D01*
X586350Y253935D01*
X586540Y254182D01*
X586891Y255029D01*
X587010Y255937D01*
X586891Y256845D01*
X586540Y257692D01*
X585982Y258419D01*
X585255Y258977D01*
X584409Y259328D01*
X583500Y259447D01*
X582591Y259328D01*
X581745Y258977D01*
X581018Y258419D01*
X580460Y257692D01*
X580109Y256845D01*
X579990Y255937D01*
X580060Y255405D01*
X579730Y255029D01*
X569155D01*
X569057Y255265D01*
X568496Y255996D01*
X567765Y256557D01*
X566914Y256910D01*
X566000Y257030D01*
X565086Y256910D01*
X564235Y256557D01*
X563504Y255996D01*
X562943Y255265D01*
X562772Y254852D01*
X562272Y254952D01*
Y259331D01*
X561029D01*
Y260345D01*
X561265Y260443D01*
X561996Y261004D01*
X562557Y261735D01*
X562910Y262586D01*
X563030Y263500D01*
X562910Y264414D01*
X562557Y265265D01*
X561996Y265996D01*
X561265Y266557D01*
X560414Y266910D01*
X559500Y267030D01*
X558586Y266910D01*
X557735Y266557D01*
X557004Y265996D01*
X556443Y265265D01*
X556090Y264414D01*
X555970Y263500D01*
X556090Y262586D01*
X556443Y261735D01*
X557004Y261004D01*
X557735Y260443D01*
X557971Y260345D01*
Y259331D01*
X556728D01*
Y254397D01*
X556228Y254364D01*
X556222Y254414D01*
X555869Y255265D01*
X555308Y255996D01*
X554577Y256557D01*
X553726Y256910D01*
X552812Y257030D01*
X551898Y256910D01*
X551047Y256557D01*
X550316Y255996D01*
X549755Y255265D01*
X549657Y255029D01*
X538886D01*
X538556Y255405D01*
X538626Y255937D01*
X538507Y256845D01*
X538156Y257692D01*
X537598Y258419D01*
X536871Y258977D01*
X536025Y259328D01*
X535116Y259447D01*
X534207Y259328D01*
X533361Y258977D01*
X532634Y258419D01*
X532076Y257692D01*
X531725Y256845D01*
X531606Y255937D01*
X531725Y255029D01*
X532076Y254182D01*
X532266Y253935D01*
X532045Y253486D01*
X473763D01*
X473542Y253935D01*
X473732Y254182D01*
X474083Y255029D01*
X474202Y255937D01*
X474083Y256845D01*
X473732Y257692D01*
X473174Y258419D01*
X472447Y258977D01*
X471600Y259328D01*
X470692Y259447D01*
X469783Y259328D01*
X468937Y258977D01*
X468210Y258419D01*
X467652Y257692D01*
X467301Y256845D01*
X467238Y256366D01*
X466689Y255992D01*
X466500Y256029D01*
X456655D01*
X456557Y256265D01*
X455996Y256996D01*
X455265Y257557D01*
X454414Y257910D01*
X453500Y258030D01*
X452586Y257910D01*
X451735Y257557D01*
X451004Y256996D01*
X450443Y256265D01*
X450090Y255414D01*
X449970Y254500D01*
X450090Y253586D01*
X450443Y252735D01*
X451004Y252004D01*
X451735Y251443D01*
X452586Y251090D01*
X453500Y250970D01*
X454414Y251090D01*
X455265Y251443D01*
X455996Y252004D01*
X456557Y252735D01*
X456655Y252971D01*
X465867D01*
X467962Y250875D01*
X468458Y250544D01*
X469043Y250427D01*
X536765D01*
X537350Y250544D01*
X537846Y250875D01*
X538941Y251971D01*
X549657D01*
X549755Y251735D01*
X550316Y251004D01*
X551047Y250443D01*
X551898Y250090D01*
X552812Y249970D01*
X553726Y250090D01*
X554577Y250443D01*
X555308Y251004D01*
X555869Y251735D01*
X556222Y252586D01*
X556228Y252636D01*
X556728Y252603D01*
Y251744D01*
X562272D01*
Y252048D01*
X562772Y252148D01*
X562943Y251735D01*
X563504Y251004D01*
X564235Y250443D01*
X565086Y250090D01*
X566000Y249970D01*
X566914Y250090D01*
X567765Y250443D01*
X568496Y251004D01*
X569057Y251735D01*
X569155Y251971D01*
X579675D01*
X580770Y250875D01*
X581266Y250544D01*
X581851Y250427D01*
X634083D01*
X634668Y250544D01*
X634919Y250711D01*
X635212Y250590D01*
X636126Y250470D01*
X637040Y250590D01*
X637891Y250943D01*
X638622Y251504D01*
X639183Y252235D01*
X639228Y252344D01*
X639728Y252244D01*
Y251744D01*
X645272D01*
Y252549D01*
X645772Y252648D01*
X645943Y252235D01*
X646504Y251504D01*
X647235Y250943D01*
X648086Y250590D01*
X649000Y250470D01*
X649914Y250590D01*
X650765Y250943D01*
X651496Y251504D01*
X652057Y252235D01*
X652410Y253086D01*
X652530Y254000D01*
X652410Y254914D01*
X652057Y255765D01*
X651496Y256496D01*
X650765Y257057D01*
X650529Y257155D01*
Y272335D01*
X651029Y272504D01*
X651343Y272096D01*
X652070Y271538D01*
X652916Y271187D01*
X653825Y271068D01*
X654734Y271187D01*
X655580Y271538D01*
X656307Y272096D01*
X656865Y272823D01*
X657216Y273670D01*
X657335Y274578D01*
X657216Y275486D01*
X656865Y276333D01*
X656307Y277060D01*
X655580Y277618D01*
X654734Y277969D01*
X653825Y278088D01*
X652916Y277969D01*
X652070Y277618D01*
X651343Y277060D01*
X651029Y276652D01*
X650529Y276821D01*
Y278143D01*
X650912Y278526D01*
X651244Y279022D01*
X651360Y279607D01*
Y293169D01*
X651244Y293755D01*
X650912Y294251D01*
X625581Y319581D01*
X625085Y319913D01*
X624500Y320029D01*
X582109D01*
X552683Y349455D01*
X552661Y349471D01*
X552812Y349971D01*
X694971D01*
X694971Y155529D01*
D02*
G37*
%LPC*%
G36*
X479000Y345487D02*
X477968Y345351D01*
X477007Y344953D01*
X476181Y344319D01*
X475547Y343493D01*
X475149Y342532D01*
X475013Y341500D01*
X475149Y340468D01*
X475547Y339507D01*
X475676Y339339D01*
X473466Y337129D01*
X473134Y336632D01*
X473018Y336047D01*
Y333436D01*
X472518Y333336D01*
X472453Y333493D01*
X471819Y334319D01*
X470993Y334953D01*
X470032Y335351D01*
X469000Y335487D01*
X467968Y335351D01*
X467007Y334953D01*
X466181Y334319D01*
X465547Y333493D01*
X465482Y333336D01*
X464982Y333436D01*
Y335319D01*
X467504Y337841D01*
X467968Y337649D01*
X469000Y337513D01*
X470032Y337649D01*
X470993Y338047D01*
X471819Y338681D01*
X472453Y339507D01*
X472851Y340468D01*
X472987Y341500D01*
X472851Y342532D01*
X472453Y343493D01*
X471819Y344319D01*
X470993Y344953D01*
X470032Y345351D01*
X469000Y345487D01*
X467968Y345351D01*
X467007Y344953D01*
X466181Y344319D01*
X465547Y343493D01*
X465149Y342532D01*
X465013Y341500D01*
X465149Y340468D01*
X465341Y340004D01*
X462371Y337034D01*
X462040Y336538D01*
X461923Y335953D01*
Y334869D01*
X461423Y334623D01*
X460993Y334953D01*
X460032Y335351D01*
X459000Y335487D01*
X457968Y335351D01*
X457007Y334953D01*
X456181Y334319D01*
X455547Y333493D01*
X455482Y333336D01*
X454982Y333436D01*
Y335319D01*
X457504Y337841D01*
X457968Y337649D01*
X459000Y337513D01*
X460032Y337649D01*
X460993Y338047D01*
X461819Y338681D01*
X462453Y339507D01*
X462851Y340468D01*
X462987Y341500D01*
X462851Y342532D01*
X462453Y343493D01*
X461819Y344319D01*
X460993Y344953D01*
X460032Y345351D01*
X459000Y345487D01*
X457968Y345351D01*
X457007Y344953D01*
X456181Y344319D01*
X455547Y343493D01*
X455149Y342532D01*
X455013Y341500D01*
X455149Y340468D01*
X455341Y340004D01*
X452371Y337034D01*
X452040Y336538D01*
X451923Y335953D01*
Y334869D01*
X451423Y334623D01*
X450993Y334953D01*
X450032Y335351D01*
X449000Y335487D01*
X447968Y335351D01*
X447007Y334953D01*
X446981Y334933D01*
X446439Y335147D01*
X446420Y335257D01*
X448714Y337551D01*
X449000Y337513D01*
X450032Y337649D01*
X450993Y338047D01*
X451819Y338681D01*
X452453Y339507D01*
X452851Y340468D01*
X452987Y341500D01*
X452851Y342532D01*
X452453Y343493D01*
X451819Y344319D01*
X450993Y344953D01*
X450032Y345351D01*
X449000Y345487D01*
X447968Y345351D01*
X447007Y344953D01*
X446181Y344319D01*
X445547Y343493D01*
X445149Y342532D01*
X445013Y341500D01*
X445149Y340468D01*
X445547Y339507D01*
X445893Y339056D01*
X443466Y336629D01*
X443134Y336133D01*
X443018Y335547D01*
Y333436D01*
X442518Y333336D01*
X442453Y333493D01*
X441819Y334319D01*
X440993Y334953D01*
X440032Y335351D01*
X439000Y335487D01*
X437968Y335351D01*
X437007Y334953D01*
X436981Y334933D01*
X436439Y335147D01*
X436420Y335257D01*
X438714Y337551D01*
X439000Y337513D01*
X440032Y337649D01*
X440993Y338047D01*
X441819Y338681D01*
X442453Y339507D01*
X442851Y340468D01*
X442987Y341500D01*
X442851Y342532D01*
X442453Y343493D01*
X441819Y344319D01*
X440993Y344953D01*
X440032Y345351D01*
X439000Y345487D01*
X437968Y345351D01*
X437007Y344953D01*
X436181Y344319D01*
X435547Y343493D01*
X435149Y342532D01*
X435013Y341500D01*
X435149Y340468D01*
X435547Y339507D01*
X435893Y339056D01*
X433466Y336629D01*
X433134Y336133D01*
X433018Y335547D01*
Y333436D01*
X432518Y333336D01*
X432453Y333493D01*
X431819Y334319D01*
X430993Y334953D01*
X430032Y335351D01*
X429000Y335487D01*
X427968Y335351D01*
X427007Y334953D01*
X426577Y334623D01*
X426077Y334869D01*
Y335414D01*
X428272Y337609D01*
X429000Y337513D01*
X430032Y337649D01*
X430993Y338047D01*
X431819Y338681D01*
X432453Y339507D01*
X432851Y340468D01*
X432987Y341500D01*
X432851Y342532D01*
X432453Y343493D01*
X431819Y344319D01*
X430993Y344953D01*
X430032Y345351D01*
X429000Y345487D01*
X427968Y345351D01*
X427007Y344953D01*
X426181Y344319D01*
X425547Y343493D01*
X425149Y342532D01*
X425013Y341500D01*
X425149Y340468D01*
X425547Y339507D01*
X425676Y339339D01*
X423466Y337129D01*
X423134Y336632D01*
X423018Y336047D01*
Y333436D01*
X422518Y333336D01*
X422453Y333493D01*
X421819Y334319D01*
X420993Y334953D01*
X420032Y335351D01*
X419000Y335487D01*
X417968Y335351D01*
X417007Y334953D01*
X416577Y334623D01*
X416077Y334869D01*
Y335414D01*
X418272Y337609D01*
X419000Y337513D01*
X420032Y337649D01*
X420993Y338047D01*
X421819Y338681D01*
X422453Y339507D01*
X422851Y340468D01*
X422987Y341500D01*
X422851Y342532D01*
X422453Y343493D01*
X421819Y344319D01*
X420993Y344953D01*
X420032Y345351D01*
X419000Y345487D01*
X417968Y345351D01*
X417007Y344953D01*
X416181Y344319D01*
X415547Y343493D01*
X415149Y342532D01*
X415013Y341500D01*
X415149Y340468D01*
X415547Y339507D01*
X415676Y339339D01*
X413466Y337129D01*
X413134Y336632D01*
X413018Y336047D01*
Y333436D01*
X412518Y333336D01*
X412453Y333493D01*
X411819Y334319D01*
X410993Y334953D01*
X410032Y335351D01*
X409000Y335487D01*
X407968Y335351D01*
X407007Y334953D01*
X406981Y334933D01*
X406438Y335147D01*
X406420Y335257D01*
X408714Y337551D01*
X409000Y337513D01*
X410032Y337649D01*
X410993Y338047D01*
X411819Y338681D01*
X412453Y339507D01*
X412851Y340468D01*
X412987Y341500D01*
X412851Y342532D01*
X412453Y343493D01*
X411819Y344319D01*
X410993Y344953D01*
X410032Y345351D01*
X409000Y345487D01*
X407968Y345351D01*
X407007Y344953D01*
X406181Y344319D01*
X405547Y343493D01*
X405149Y342532D01*
X405013Y341500D01*
X405149Y340468D01*
X405547Y339507D01*
X405893Y339056D01*
X403466Y336629D01*
X403134Y336133D01*
X403018Y335547D01*
Y333436D01*
X402518Y333336D01*
X402453Y333493D01*
X401819Y334319D01*
X400993Y334953D01*
X400032Y335351D01*
X399000Y335487D01*
X397968Y335351D01*
X397007Y334953D01*
X396981Y334933D01*
X396439Y335147D01*
X396420Y335257D01*
X398714Y337551D01*
X399000Y337513D01*
X400032Y337649D01*
X400993Y338047D01*
X401819Y338681D01*
X402453Y339507D01*
X402851Y340468D01*
X402987Y341500D01*
X402851Y342532D01*
X402453Y343493D01*
X401819Y344319D01*
X400993Y344953D01*
X400032Y345351D01*
X399000Y345487D01*
X397968Y345351D01*
X397007Y344953D01*
X396181Y344319D01*
X395547Y343493D01*
X395149Y342532D01*
X395013Y341500D01*
X395149Y340468D01*
X395547Y339507D01*
X395893Y339056D01*
X393466Y336629D01*
X393134Y336133D01*
X393018Y335547D01*
Y333436D01*
X392518Y333336D01*
X392453Y333493D01*
X391819Y334319D01*
X390993Y334953D01*
X390032Y335351D01*
X389000Y335487D01*
X387968Y335351D01*
X387007Y334953D01*
X386981Y334933D01*
X386438Y335147D01*
X386420Y335257D01*
X388714Y337551D01*
X389000Y337513D01*
X390032Y337649D01*
X390993Y338047D01*
X391819Y338681D01*
X392453Y339507D01*
X392851Y340468D01*
X392987Y341500D01*
X392851Y342532D01*
X392453Y343493D01*
X391819Y344319D01*
X390993Y344953D01*
X390032Y345351D01*
X389000Y345487D01*
X387968Y345351D01*
X387007Y344953D01*
X386181Y344319D01*
X385547Y343493D01*
X385149Y342532D01*
X385013Y341500D01*
X385149Y340468D01*
X385547Y339507D01*
X385893Y339056D01*
X383466Y336629D01*
X383134Y336133D01*
X383018Y335547D01*
Y333436D01*
X382518Y333336D01*
X382453Y333493D01*
X381819Y334319D01*
X380993Y334953D01*
X380032Y335351D01*
X379000Y335487D01*
X377968Y335351D01*
X377007Y334953D01*
X376181Y334319D01*
X375547Y333493D01*
X375482Y333336D01*
X374982Y333436D01*
Y335319D01*
X377504Y337841D01*
X377968Y337649D01*
X379000Y337513D01*
X380032Y337649D01*
X380993Y338047D01*
X381819Y338681D01*
X382453Y339507D01*
X382851Y340468D01*
X382987Y341500D01*
X382851Y342532D01*
X382453Y343493D01*
X381819Y344319D01*
X380993Y344953D01*
X380032Y345351D01*
X379000Y345487D01*
X377968Y345351D01*
X377007Y344953D01*
X376181Y344319D01*
X375547Y343493D01*
X375149Y342532D01*
X375013Y341500D01*
X375149Y340468D01*
X375341Y340004D01*
X372371Y337034D01*
X372040Y336538D01*
X371923Y335953D01*
Y334869D01*
X371423Y334623D01*
X370993Y334953D01*
X370032Y335351D01*
X369000Y335487D01*
X367968Y335351D01*
X367546Y335176D01*
X367263Y335600D01*
X369203Y337540D01*
X370032Y337649D01*
X370993Y338047D01*
X371819Y338681D01*
X372453Y339507D01*
X372851Y340468D01*
X372987Y341500D01*
X372851Y342532D01*
X372453Y343493D01*
X371819Y344319D01*
X370993Y344953D01*
X370032Y345351D01*
X369000Y345487D01*
X367968Y345351D01*
X367007Y344953D01*
X366181Y344319D01*
X365547Y343493D01*
X365149Y342532D01*
X365013Y341500D01*
X365149Y340468D01*
X365547Y339507D01*
X366110Y338773D01*
X363466Y336129D01*
X363134Y335632D01*
X363018Y335047D01*
Y333436D01*
X362518Y333336D01*
X362453Y333493D01*
X361819Y334319D01*
X360993Y334953D01*
X360032Y335351D01*
X359000Y335487D01*
X357968Y335351D01*
X357007Y334953D01*
X356181Y334319D01*
X355547Y333493D01*
X355482Y333336D01*
X354982Y333436D01*
Y335319D01*
X357504Y337841D01*
X357968Y337649D01*
X359000Y337513D01*
X360032Y337649D01*
X360993Y338047D01*
X361819Y338681D01*
X362453Y339507D01*
X362851Y340468D01*
X362987Y341500D01*
X362851Y342532D01*
X362453Y343493D01*
X361819Y344319D01*
X360993Y344953D01*
X360032Y345351D01*
X359000Y345487D01*
X357968Y345351D01*
X357007Y344953D01*
X356181Y344319D01*
X355547Y343493D01*
X355149Y342532D01*
X355013Y341500D01*
X355149Y340468D01*
X355341Y340004D01*
X352371Y337034D01*
X352040Y336538D01*
X351923Y335953D01*
Y334869D01*
X351423Y334623D01*
X350993Y334953D01*
X350032Y335351D01*
X349495Y335422D01*
X349315Y335950D01*
X350081Y336716D01*
X350413Y337212D01*
X350529Y337797D01*
Y337855D01*
X350993Y338047D01*
X351819Y338681D01*
X352453Y339507D01*
X352851Y340468D01*
X352987Y341500D01*
X352851Y342532D01*
X352453Y343493D01*
X351819Y344319D01*
X350993Y344953D01*
X350032Y345351D01*
X349000Y345487D01*
X347968Y345351D01*
X347007Y344953D01*
X346181Y344319D01*
X345547Y343493D01*
X345149Y342532D01*
X345013Y341500D01*
X345149Y340468D01*
X345547Y339507D01*
X346181Y338681D01*
X346652Y338319D01*
X346696Y337656D01*
X343466Y334426D01*
X343134Y333930D01*
X343118Y333848D01*
X342546Y333474D01*
X342453Y333493D01*
X341819Y334319D01*
X340993Y334953D01*
X340032Y335351D01*
X339000Y335487D01*
X337968Y335351D01*
X337007Y334953D01*
X336181Y334319D01*
X335547Y333493D01*
X335149Y332532D01*
X335013Y331500D01*
X335149Y330468D01*
X335547Y329507D01*
X336181Y328681D01*
X336946Y328094D01*
X336947Y327852D01*
X336859Y327567D01*
X336626Y327521D01*
X336129Y327189D01*
X316970Y308029D01*
X225873D01*
X225287Y307913D01*
X224791Y307581D01*
X206739Y289529D01*
X160087D01*
X159501Y289413D01*
X159005Y289081D01*
X136190Y266266D01*
X135859Y265770D01*
X135742Y265185D01*
Y241900D01*
X135859Y241315D01*
X136190Y240818D01*
X147311Y229697D01*
X147808Y229366D01*
X148393Y229249D01*
X152933D01*
X153518Y229366D01*
X154014Y229697D01*
X156346Y232029D01*
X156677Y232525D01*
X156794Y233110D01*
Y236408D01*
X156677Y236993D01*
X156346Y237489D01*
X148395Y245439D01*
X147899Y245771D01*
X147834Y245784D01*
X147698Y246113D01*
X147140Y246840D01*
X146413Y247398D01*
X145566Y247749D01*
X144658Y247868D01*
X143749Y247749D01*
X142903Y247398D01*
X142176Y246840D01*
X141618Y246113D01*
X141267Y245267D01*
X140801Y245383D01*
Y252866D01*
X141250Y253087D01*
X141497Y252897D01*
X142343Y252546D01*
X143252Y252427D01*
X144160Y252546D01*
X145007Y252897D01*
X145734Y253455D01*
X146292Y254182D01*
X146643Y255029D01*
X146762Y255937D01*
X146643Y256845D01*
X146549Y257071D01*
X156546Y267068D01*
X165390D01*
X165559Y266568D01*
X165004Y266142D01*
X164443Y265411D01*
X164090Y264559D01*
X163970Y263646D01*
X164090Y262732D01*
X164443Y261881D01*
X165004Y261149D01*
X165735Y260588D01*
X165971Y260491D01*
Y259331D01*
X164672D01*
Y254319D01*
X164672Y254181D01*
Y253819D01*
X164672Y253681D01*
Y251744D01*
X170216D01*
Y253681D01*
X170216Y253819D01*
Y254181D01*
X170216Y254319D01*
Y259331D01*
X169029D01*
Y260491D01*
X169265Y260588D01*
X169996Y261149D01*
X170557Y261881D01*
X170910Y262732D01*
X171030Y263646D01*
X170910Y264559D01*
X170557Y265411D01*
X169996Y266142D01*
X169440Y266568D01*
X169610Y267068D01*
X183515D01*
X183707Y266977D01*
X184017Y266637D01*
X184109Y265935D01*
X184460Y265089D01*
X185018Y264362D01*
X185745Y263804D01*
X186591Y263453D01*
X187500Y263334D01*
X188409Y263453D01*
X189255Y263804D01*
X189982Y264362D01*
X190540Y265089D01*
X190633Y265315D01*
X197530D01*
X198116Y265431D01*
X198612Y265763D01*
X208009Y275160D01*
X208471Y274968D01*
Y261962D01*
X203975Y257466D01*
X194770D01*
X194676Y257692D01*
X194118Y258419D01*
X193391Y258977D01*
X192544Y259328D01*
X191636Y259447D01*
X190727Y259328D01*
X189881Y258977D01*
X189154Y258419D01*
X188596Y257692D01*
X188245Y256845D01*
X188126Y255937D01*
X188245Y255029D01*
X188596Y254182D01*
X189154Y253455D01*
X189881Y252897D01*
X190727Y252546D01*
X191636Y252427D01*
X192544Y252546D01*
X193391Y252897D01*
X194118Y253455D01*
X194676Y254182D01*
X194770Y254408D01*
X203091D01*
X203283Y253946D01*
X195224Y245887D01*
X193363D01*
X193270Y246113D01*
X192712Y246840D01*
X191985Y247398D01*
X191139Y247749D01*
X190230Y247868D01*
X189321Y247749D01*
X188475Y247398D01*
X187748Y246840D01*
X187190Y246113D01*
X186839Y245267D01*
X186720Y244358D01*
X186839Y243449D01*
X187190Y242603D01*
X187748Y241876D01*
X188475Y241318D01*
X189321Y240967D01*
X190230Y240848D01*
X191139Y240967D01*
X191985Y241318D01*
X192712Y241876D01*
X193270Y242603D01*
X193363Y242829D01*
X195858D01*
X196443Y242945D01*
X196939Y243277D01*
X212009Y258346D01*
X212471Y258154D01*
Y247963D01*
X200796Y236288D01*
X186738D01*
X186644Y236514D01*
X186086Y237241D01*
X185359Y237799D01*
X184512Y238150D01*
X183604Y238269D01*
X182695Y238150D01*
X181849Y237799D01*
X181122Y237241D01*
X180564Y236514D01*
X180213Y235667D01*
X180094Y234759D01*
X180213Y233851D01*
X180564Y233004D01*
X181122Y232277D01*
X181849Y231719D01*
X182695Y231368D01*
X182703Y231367D01*
X182670Y230867D01*
X176409D01*
X176316Y231093D01*
X175758Y231820D01*
X175031Y232378D01*
X174185Y232729D01*
X173276Y232848D01*
X172368Y232729D01*
X171521Y232378D01*
X170794Y231820D01*
X170236Y231093D01*
X169885Y230246D01*
X169766Y229338D01*
X169885Y228430D01*
X170236Y227583D01*
X170426Y227336D01*
X170205Y226887D01*
X168133D01*
X165037Y229983D01*
X165003Y230246D01*
X164652Y231093D01*
X164094Y231820D01*
X163367Y232378D01*
X162521Y232729D01*
X161612Y232848D01*
X160704Y232729D01*
X159857Y232378D01*
X159130Y231820D01*
X158572Y231093D01*
X158221Y230246D01*
X158102Y229338D01*
X158221Y228430D01*
X158572Y227583D01*
X159130Y226856D01*
X159857Y226298D01*
X160704Y225947D01*
X161612Y225828D01*
X162521Y225947D01*
X163367Y226298D01*
X163950Y226745D01*
X166419Y224276D01*
X166915Y223945D01*
X167500Y223828D01*
X197686D01*
X198271Y223945D01*
X198767Y224276D01*
X218336Y243846D01*
X218798Y243654D01*
Y243142D01*
X218915Y242557D01*
X219246Y242061D01*
X231610Y229697D01*
X232106Y229366D01*
X232691Y229249D01*
X235989D01*
X236574Y229366D01*
X237070Y229697D01*
X239402Y232029D01*
X239733Y232525D01*
X239850Y233110D01*
Y236680D01*
X239733Y237265D01*
X239402Y237761D01*
X231723Y245439D01*
X231227Y245771D01*
X230866Y245843D01*
X230754Y246113D01*
X230196Y246840D01*
X229469Y247398D01*
X228623Y247749D01*
X227714Y247868D01*
X226805Y247749D01*
X225959Y247398D01*
X225232Y246840D01*
X224674Y246113D01*
X224323Y245267D01*
X223857Y245383D01*
Y252866D01*
X224306Y253087D01*
X224553Y252897D01*
X225399Y252546D01*
X226308Y252427D01*
X227217Y252546D01*
X228063Y252897D01*
X228790Y253455D01*
X229348Y254182D01*
X229482Y254505D01*
X229577Y254524D01*
X230073Y254856D01*
X242286Y267068D01*
X248390D01*
X248559Y266568D01*
X248004Y266142D01*
X247443Y265411D01*
X247090Y264559D01*
X246970Y263646D01*
X247090Y262732D01*
X247443Y261881D01*
X248004Y261149D01*
X248735Y260588D01*
X248971Y260491D01*
Y259331D01*
X247728D01*
Y254319D01*
X247728Y254181D01*
Y253819D01*
X247728Y253681D01*
Y251744D01*
X253272D01*
Y253681D01*
X253272Y253819D01*
Y254181D01*
X253272Y254319D01*
Y259331D01*
X252029D01*
Y260491D01*
X252265Y260588D01*
X252996Y261149D01*
X253557Y261881D01*
X253910Y262732D01*
X254030Y263646D01*
X253910Y264559D01*
X253557Y265411D01*
X252996Y266142D01*
X252441Y266568D01*
X252610Y267068D01*
X266571D01*
X266763Y266977D01*
X267073Y266637D01*
X267165Y265935D01*
X267516Y265089D01*
X268074Y264362D01*
X268801Y263804D01*
X269648Y263453D01*
X270556Y263334D01*
X271464Y263453D01*
X272311Y263804D01*
X273038Y264362D01*
X273596Y265089D01*
X273690Y265315D01*
X316028D01*
X316219Y264853D01*
X308833Y257466D01*
X277825D01*
X277732Y257692D01*
X277174Y258419D01*
X276447Y258977D01*
X275601Y259328D01*
X274692Y259447D01*
X273783Y259328D01*
X272937Y258977D01*
X272210Y258419D01*
X271652Y257692D01*
X271301Y256845D01*
X271182Y255937D01*
X271301Y255029D01*
X271652Y254182D01*
X272210Y253455D01*
X272937Y252897D01*
X273783Y252546D01*
X274692Y252427D01*
X275601Y252546D01*
X276447Y252897D01*
X277174Y253455D01*
X277732Y254182D01*
X277825Y254408D01*
X307949D01*
X308141Y253946D01*
X300082Y245887D01*
X276419D01*
X276326Y246113D01*
X275768Y246840D01*
X275041Y247398D01*
X274195Y247749D01*
X273286Y247868D01*
X272377Y247749D01*
X271531Y247398D01*
X270804Y246840D01*
X270246Y246113D01*
X269895Y245267D01*
X269776Y244358D01*
X269895Y243449D01*
X270246Y242603D01*
X270804Y241876D01*
X271531Y241318D01*
X272377Y240967D01*
X273286Y240848D01*
X274195Y240967D01*
X275041Y241318D01*
X275768Y241876D01*
X276326Y242603D01*
X276419Y242829D01*
X299199D01*
X299390Y242367D01*
X293312Y236288D01*
X269794D01*
X269700Y236514D01*
X269142Y237241D01*
X268415Y237799D01*
X267568Y238150D01*
X266660Y238269D01*
X265752Y238150D01*
X264905Y237799D01*
X264178Y237241D01*
X263620Y236514D01*
X263269Y235667D01*
X263150Y234759D01*
X263269Y233851D01*
X263620Y233004D01*
X264178Y232277D01*
X264905Y231719D01*
X265752Y231368D01*
X265759Y231367D01*
X265726Y230867D01*
X259466D01*
X259372Y231093D01*
X258814Y231820D01*
X258087Y232378D01*
X257241Y232729D01*
X256332Y232848D01*
X255423Y232729D01*
X254577Y232378D01*
X253850Y231820D01*
X253292Y231093D01*
X252941Y230246D01*
X252822Y229338D01*
X252941Y228430D01*
X253292Y227583D01*
X253373Y227478D01*
X253151Y227029D01*
X248634D01*
X247817Y227846D01*
X248059Y228430D01*
X248178Y229338D01*
X248059Y230246D01*
X247708Y231093D01*
X247150Y231820D01*
X246423Y232378D01*
X245577Y232729D01*
X244668Y232848D01*
X243759Y232729D01*
X242913Y232378D01*
X242186Y231820D01*
X241628Y231093D01*
X241277Y230246D01*
X241158Y229338D01*
X241277Y228430D01*
X241628Y227583D01*
X242186Y226856D01*
X242913Y226298D01*
X243759Y225947D01*
X244668Y225828D01*
X245411Y225926D01*
X246919Y224419D01*
X247415Y224087D01*
X248000Y223971D01*
X254059D01*
X254098Y223945D01*
X254683Y223828D01*
X290201D01*
X290786Y223945D01*
X291282Y224276D01*
X331336Y264330D01*
X331798Y264139D01*
Y252896D01*
X331915Y252311D01*
X332246Y251815D01*
X337793Y246268D01*
X337674Y246113D01*
X337323Y245267D01*
X337204Y244358D01*
X337323Y243449D01*
X337674Y242603D01*
X338232Y241876D01*
X338959Y241318D01*
X339806Y240967D01*
X340714Y240848D01*
X341622Y240967D01*
X342469Y241318D01*
X343196Y241876D01*
X343754Y242603D01*
X344105Y243449D01*
X344145Y243759D01*
X344619Y243919D01*
X345811Y242727D01*
Y237893D01*
X345585Y237799D01*
X344858Y237241D01*
X344300Y236514D01*
X343949Y235667D01*
X343830Y234759D01*
X343949Y233851D01*
X344300Y233004D01*
X344858Y232277D01*
X345585Y231719D01*
X346431Y231368D01*
X347340Y231249D01*
X348249Y231368D01*
X349095Y231719D01*
X349822Y232277D01*
X350380Y233004D01*
X350731Y233851D01*
X350850Y234759D01*
X350731Y235667D01*
X350380Y236514D01*
X349822Y237241D01*
X349095Y237799D01*
X348869Y237893D01*
Y243361D01*
X348753Y243946D01*
X348421Y244442D01*
X343444Y249420D01*
X342948Y249751D01*
X342363Y249868D01*
X341348D01*
X339251Y251964D01*
X339474Y252449D01*
X340216Y252546D01*
X341063Y252897D01*
X341790Y253455D01*
X342348Y254182D01*
X342699Y255029D01*
X342805Y255832D01*
X354041Y267068D01*
X361390D01*
X361560Y266568D01*
X361004Y266142D01*
X360443Y265411D01*
X360090Y264559D01*
X359970Y263646D01*
X360090Y262732D01*
X360443Y261881D01*
X361004Y261149D01*
X361735Y260588D01*
X361971Y260491D01*
Y259331D01*
X360728D01*
Y254319D01*
X360728Y254181D01*
Y253819D01*
X360728Y253681D01*
Y251744D01*
X366272D01*
Y253681D01*
X366272Y253819D01*
Y254181D01*
X366272Y254319D01*
Y259331D01*
X365029D01*
Y260491D01*
X365265Y260588D01*
X365996Y261149D01*
X366557Y261881D01*
X366910Y262732D01*
X367030Y263646D01*
X366910Y264559D01*
X366557Y265411D01*
X365996Y266142D01*
X365441Y266568D01*
X365610Y267068D01*
X379571D01*
X379764Y266977D01*
X380073Y266637D01*
X380165Y265935D01*
X380516Y265089D01*
X381074Y264362D01*
X381801Y263804D01*
X382647Y263453D01*
X383556Y263334D01*
X384465Y263453D01*
X385311Y263804D01*
X386038Y264362D01*
X386596Y265089D01*
X386689Y265315D01*
X399998D01*
X400190Y264853D01*
X392804Y257466D01*
X390826D01*
X390732Y257692D01*
X390174Y258419D01*
X389447Y258977D01*
X388600Y259328D01*
X387692Y259447D01*
X386784Y259328D01*
X385937Y258977D01*
X385210Y258419D01*
X384652Y257692D01*
X384301Y256845D01*
X384182Y255937D01*
X384301Y255029D01*
X384652Y254182D01*
X385210Y253455D01*
X385937Y252897D01*
X386784Y252546D01*
X387692Y252427D01*
X388600Y252546D01*
X389447Y252897D01*
X390174Y253455D01*
X390732Y254182D01*
X390826Y254408D01*
X393437D01*
X394022Y254524D01*
X394518Y254856D01*
X467504Y327841D01*
X467968Y327649D01*
X468505Y327578D01*
X468685Y327050D01*
X388602Y246968D01*
X388041Y247398D01*
X387194Y247749D01*
X386286Y247868D01*
X385378Y247749D01*
X384531Y247398D01*
X383804Y246840D01*
X383246Y246113D01*
X382895Y245267D01*
X382776Y244358D01*
X382895Y243449D01*
X383246Y242603D01*
X383804Y241876D01*
X384531Y241318D01*
X385378Y240967D01*
X385686Y240927D01*
X385847Y240453D01*
X382605Y237211D01*
X382142Y237241D01*
X381415Y237799D01*
X380569Y238150D01*
X379660Y238269D01*
X378751Y238150D01*
X377905Y237799D01*
X377178Y237241D01*
X376620Y236514D01*
X376269Y235667D01*
X376150Y234759D01*
X376269Y233851D01*
X376620Y233004D01*
X377178Y232277D01*
X377905Y231719D01*
X378751Y231368D01*
X378759Y231367D01*
X378726Y230867D01*
X372465D01*
X372372Y231093D01*
X371814Y231820D01*
X371087Y232378D01*
X370240Y232729D01*
X369332Y232848D01*
X368424Y232729D01*
X367577Y232378D01*
X366850Y231820D01*
X366292Y231093D01*
X365941Y230246D01*
X365822Y229338D01*
X365941Y228430D01*
X366292Y227583D01*
X366717Y227029D01*
X366491Y226529D01*
X360509D01*
X360283Y227029D01*
X360708Y227583D01*
X361059Y228430D01*
X361178Y229338D01*
X361059Y230246D01*
X360708Y231093D01*
X360150Y231820D01*
X359423Y232378D01*
X358576Y232729D01*
X357668Y232848D01*
X356760Y232729D01*
X355913Y232378D01*
X355186Y231820D01*
X354628Y231093D01*
X354277Y230246D01*
X354158Y229338D01*
X354277Y228430D01*
X354628Y227583D01*
X355186Y226856D01*
X355913Y226298D01*
X356166Y226193D01*
X356255Y225747D01*
X356587Y225251D01*
X357919Y223919D01*
X358415Y223587D01*
X359000Y223471D01*
X379500D01*
X380085Y223587D01*
X380581Y223919D01*
X422591Y265929D01*
X423127Y265757D01*
X423404Y265089D01*
X423962Y264362D01*
X424689Y263804D01*
X425535Y263453D01*
X426444Y263334D01*
X427353Y263453D01*
X428199Y263804D01*
X428926Y264362D01*
X429484Y265089D01*
X429835Y265935D01*
X429954Y266844D01*
X429835Y267753D01*
X429484Y268599D01*
X428926Y269326D01*
X428199Y269884D01*
X427353Y270235D01*
X427043Y270275D01*
X426883Y270749D01*
X431221Y275087D01*
X431228Y275092D01*
X431495Y274993D01*
X431698Y274828D01*
X431665Y274578D01*
X431784Y273670D01*
X432135Y272823D01*
X432693Y272096D01*
X433420Y271538D01*
X434267Y271187D01*
X435175Y271068D01*
X436084Y271187D01*
X436930Y271538D01*
X437657Y272096D01*
X438215Y272823D01*
X438566Y273670D01*
X438685Y274578D01*
X438566Y275486D01*
X438215Y276333D01*
X437657Y277060D01*
X436930Y277618D01*
X436084Y277969D01*
X435175Y278088D01*
X434925Y278055D01*
X434692Y278529D01*
X479681Y323518D01*
X481673D01*
X482258Y323634D01*
X482754Y323966D01*
X486910Y328121D01*
X487007Y328047D01*
X487968Y327649D01*
X489000Y327513D01*
X490032Y327649D01*
X490993Y328047D01*
X491819Y328681D01*
X492453Y329507D01*
X492851Y330468D01*
X492987Y331500D01*
X492851Y332532D01*
X492453Y333493D01*
X491819Y334319D01*
X490993Y334953D01*
X490032Y335351D01*
X489000Y335487D01*
X487968Y335351D01*
X487007Y334953D01*
X486181Y334319D01*
X485547Y333493D01*
X485482Y333336D01*
X484982Y333436D01*
Y335319D01*
X487210Y337547D01*
X492953D01*
Y345453D01*
X485047D01*
Y339710D01*
X482371Y337034D01*
X482040Y336538D01*
X481923Y335953D01*
Y334869D01*
X481423Y334623D01*
X480993Y334953D01*
X480032Y335351D01*
X479000Y335487D01*
X477968Y335351D01*
X477007Y334953D01*
X476577Y334623D01*
X476077Y334869D01*
Y335414D01*
X478272Y337609D01*
X479000Y337513D01*
X480032Y337649D01*
X480993Y338047D01*
X481819Y338681D01*
X482453Y339507D01*
X482851Y340468D01*
X482987Y341500D01*
X482851Y342532D01*
X482453Y343493D01*
X481819Y344319D01*
X480993Y344953D01*
X480032Y345351D01*
X479000Y345487D01*
D02*
G37*
G36*
X339000D02*
X337968Y345351D01*
X337007Y344953D01*
X336181Y344319D01*
X335547Y343493D01*
X335149Y342532D01*
X335013Y341500D01*
X335149Y340468D01*
X335547Y339507D01*
X336181Y338681D01*
X337007Y338047D01*
X337968Y337649D01*
X339000Y337513D01*
X340032Y337649D01*
X340993Y338047D01*
X341819Y338681D01*
X342453Y339507D01*
X342851Y340468D01*
X342987Y341500D01*
X342851Y342532D01*
X342453Y343493D01*
X341819Y344319D01*
X340993Y344953D01*
X340032Y345351D01*
X339000Y345487D01*
D02*
G37*
G36*
X329000D02*
X327968Y345351D01*
X327007Y344953D01*
X326181Y344319D01*
X325547Y343493D01*
X325149Y342532D01*
X325013Y341500D01*
X325149Y340468D01*
X325547Y339507D01*
X326181Y338681D01*
X327007Y338047D01*
X327968Y337649D01*
X329000Y337513D01*
X330032Y337649D01*
X330993Y338047D01*
X331819Y338681D01*
X332453Y339507D01*
X332851Y340468D01*
X332987Y341500D01*
X332851Y342532D01*
X332453Y343493D01*
X331819Y344319D01*
X330993Y344953D01*
X330032Y345351D01*
X329000Y345487D01*
D02*
G37*
G36*
X329500Y335421D02*
Y332000D01*
X332921D01*
X332851Y332532D01*
X332453Y333493D01*
X331819Y334319D01*
X330993Y334953D01*
X330032Y335351D01*
X329500Y335421D01*
D02*
G37*
G36*
X328500D02*
X327968Y335351D01*
X327007Y334953D01*
X326181Y334319D01*
X325547Y333493D01*
X325149Y332532D01*
X325079Y332000D01*
X328500D01*
Y335421D01*
D02*
G37*
G36*
X683500Y347917D02*
X681760Y347746D01*
X680088Y347238D01*
X678546Y346414D01*
X677195Y345305D01*
X676086Y343954D01*
X675262Y342412D01*
X674754Y340740D01*
X674583Y339000D01*
X674754Y337260D01*
X675262Y335588D01*
X676086Y334046D01*
X677195Y332695D01*
X678546Y331586D01*
X680088Y330762D01*
X681760Y330254D01*
X683500Y330083D01*
X685240Y330254D01*
X686912Y330762D01*
X688454Y331586D01*
X689805Y332695D01*
X690914Y334046D01*
X691738Y335588D01*
X692246Y337260D01*
X692417Y339000D01*
X692246Y340740D01*
X691738Y342412D01*
X690914Y343954D01*
X689805Y345305D01*
X688454Y346414D01*
X686912Y347238D01*
X685240Y347746D01*
X683500Y347917D01*
D02*
G37*
G36*
X262000D02*
X260260Y347746D01*
X258588Y347238D01*
X257046Y346414D01*
X255695Y345305D01*
X254586Y343954D01*
X253762Y342412D01*
X253254Y340740D01*
X253083Y339000D01*
X253254Y337260D01*
X253762Y335588D01*
X254586Y334046D01*
X255695Y332695D01*
X257046Y331586D01*
X258588Y330762D01*
X260260Y330254D01*
X262000Y330083D01*
X263740Y330254D01*
X265412Y330762D01*
X266954Y331586D01*
X268305Y332695D01*
X269414Y334046D01*
X270238Y335588D01*
X270746Y337260D01*
X270917Y339000D01*
X270746Y340740D01*
X270238Y342412D01*
X269414Y343954D01*
X268305Y345305D01*
X266954Y346414D01*
X265412Y347238D01*
X263740Y347746D01*
X262000Y347917D01*
D02*
G37*
G36*
X126500D02*
X124760Y347746D01*
X123088Y347238D01*
X121546Y346414D01*
X120195Y345305D01*
X119086Y343954D01*
X118262Y342412D01*
X117754Y340740D01*
X117583Y339000D01*
X117754Y337260D01*
X118262Y335588D01*
X119086Y334046D01*
X120195Y332695D01*
X121546Y331586D01*
X123088Y330762D01*
X124760Y330254D01*
X126500Y330083D01*
X128240Y330254D01*
X129912Y330762D01*
X131454Y331586D01*
X132805Y332695D01*
X133914Y334046D01*
X134738Y335588D01*
X135246Y337260D01*
X135417Y339000D01*
X135246Y340740D01*
X134738Y342412D01*
X133914Y343954D01*
X132805Y345305D01*
X131454Y346414D01*
X129912Y347238D01*
X128240Y347746D01*
X126500Y347917D01*
D02*
G37*
G36*
X332921Y331000D02*
X329500D01*
Y327579D01*
X330032Y327649D01*
X330993Y328047D01*
X331819Y328681D01*
X332453Y329507D01*
X332851Y330468D01*
X332921Y331000D01*
D02*
G37*
G36*
X328500D02*
X325079D01*
X325149Y330468D01*
X325547Y329507D01*
X326181Y328681D01*
X327007Y328047D01*
X327968Y327649D01*
X328500Y327579D01*
Y331000D01*
D02*
G37*
G36*
X319000Y335487D02*
X317968Y335351D01*
X317007Y334953D01*
X316181Y334319D01*
X315547Y333493D01*
X315149Y332532D01*
X315013Y331500D01*
X315149Y330468D01*
X315547Y329507D01*
X316181Y328681D01*
X317007Y328047D01*
X317968Y327649D01*
X319000Y327513D01*
X320032Y327649D01*
X320993Y328047D01*
X321819Y328681D01*
X322453Y329507D01*
X322851Y330468D01*
X322987Y331500D01*
X322851Y332532D01*
X322453Y333493D01*
X321819Y334319D01*
X320993Y334953D01*
X320032Y335351D01*
X319000Y335487D01*
D02*
G37*
G36*
X631175Y278088D02*
X630267Y277969D01*
X629420Y277618D01*
X628693Y277060D01*
X628135Y276333D01*
X627784Y275486D01*
X627665Y274578D01*
X627784Y273670D01*
X628135Y272823D01*
X628693Y272096D01*
X629420Y271538D01*
X630267Y271187D01*
X631175Y271068D01*
X632084Y271187D01*
X632930Y271538D01*
X633657Y272096D01*
X634215Y272823D01*
X634566Y273670D01*
X634685Y274578D01*
X634566Y275486D01*
X634215Y276333D01*
X633657Y277060D01*
X632930Y277618D01*
X632084Y277969D01*
X631175Y278088D01*
D02*
G37*
G36*
X570633D02*
X569725Y277969D01*
X568878Y277618D01*
X568151Y277060D01*
X567593Y276333D01*
X567242Y275486D01*
X567123Y274578D01*
X567242Y273670D01*
X567593Y272823D01*
X568151Y272096D01*
X568878Y271538D01*
X569725Y271187D01*
X570633Y271068D01*
X571542Y271187D01*
X572388Y271538D01*
X573115Y272096D01*
X573673Y272823D01*
X574024Y273670D01*
X574143Y274578D01*
X574024Y275486D01*
X573673Y276333D01*
X573115Y277060D01*
X572388Y277618D01*
X571542Y277969D01*
X570633Y278088D01*
D02*
G37*
G36*
X547983D02*
X547075Y277969D01*
X546228Y277618D01*
X545501Y277060D01*
X544943Y276333D01*
X544592Y275486D01*
X544473Y274578D01*
X544592Y273670D01*
X544943Y272823D01*
X545501Y272096D01*
X546228Y271538D01*
X547075Y271187D01*
X547983Y271068D01*
X548891Y271187D01*
X549738Y271538D01*
X550465Y272096D01*
X551023Y272823D01*
X551374Y273670D01*
X551493Y274578D01*
X551374Y275486D01*
X551023Y276333D01*
X550465Y277060D01*
X549738Y277618D01*
X548891Y277969D01*
X547983Y278088D01*
D02*
G37*
G36*
X457825D02*
X456917Y277969D01*
X456070Y277618D01*
X455343Y277060D01*
X454785Y276333D01*
X454434Y275486D01*
X454315Y274578D01*
X454434Y273670D01*
X454785Y272823D01*
X455343Y272096D01*
X456070Y271538D01*
X456917Y271187D01*
X457825Y271068D01*
X458734Y271187D01*
X459580Y271538D01*
X460307Y272096D01*
X460865Y272823D01*
X461216Y273670D01*
X461335Y274578D01*
X461216Y275486D01*
X460865Y276333D01*
X460307Y277060D01*
X459580Y277618D01*
X458734Y277969D01*
X457825Y278088D01*
D02*
G37*
G36*
X662556Y270354D02*
X661648Y270235D01*
X660801Y269884D01*
X660074Y269326D01*
X659516Y268599D01*
X659165Y267753D01*
X659046Y266844D01*
X659165Y265935D01*
X659516Y265089D01*
X660074Y264362D01*
X660801Y263804D01*
X661648Y263453D01*
X662556Y263334D01*
X663464Y263453D01*
X664311Y263804D01*
X665038Y264362D01*
X665596Y265089D01*
X665947Y265935D01*
X666066Y266844D01*
X665947Y267753D01*
X665596Y268599D01*
X665038Y269326D01*
X664311Y269884D01*
X663464Y270235D01*
X662556Y270354D01*
D02*
G37*
G36*
X622444D02*
X621535Y270235D01*
X620689Y269884D01*
X619962Y269326D01*
X619404Y268599D01*
X619053Y267753D01*
X618934Y266844D01*
X619053Y265935D01*
X619404Y265089D01*
X619962Y264362D01*
X620689Y263804D01*
X621535Y263453D01*
X622444Y263334D01*
X623352Y263453D01*
X624199Y263804D01*
X624926Y264362D01*
X625484Y265089D01*
X625835Y265935D01*
X625954Y266844D01*
X625835Y267753D01*
X625484Y268599D01*
X624926Y269326D01*
X624199Y269884D01*
X623352Y270235D01*
X622444Y270354D01*
D02*
G37*
G36*
X579364D02*
X578455Y270235D01*
X577609Y269884D01*
X576882Y269326D01*
X576324Y268599D01*
X575973Y267753D01*
X575854Y266844D01*
X575973Y265935D01*
X576324Y265089D01*
X576882Y264362D01*
X577609Y263804D01*
X578455Y263453D01*
X579364Y263334D01*
X580272Y263453D01*
X581119Y263804D01*
X581846Y264362D01*
X582404Y265089D01*
X582755Y265935D01*
X582874Y266844D01*
X582755Y267753D01*
X582404Y268599D01*
X581846Y269326D01*
X581119Y269884D01*
X580272Y270235D01*
X579364Y270354D01*
D02*
G37*
G36*
X539252D02*
X538343Y270235D01*
X537497Y269884D01*
X536770Y269326D01*
X536212Y268599D01*
X535861Y267753D01*
X535742Y266844D01*
X535861Y265935D01*
X536212Y265089D01*
X536770Y264362D01*
X537497Y263804D01*
X538343Y263453D01*
X539252Y263334D01*
X540161Y263453D01*
X541007Y263804D01*
X541734Y264362D01*
X542292Y265089D01*
X542643Y265935D01*
X542762Y266844D01*
X542643Y267753D01*
X542292Y268599D01*
X541734Y269326D01*
X541007Y269884D01*
X540161Y270235D01*
X539252Y270354D01*
D02*
G37*
G36*
X466556D02*
X465648Y270235D01*
X464801Y269884D01*
X464074Y269326D01*
X463516Y268599D01*
X463165Y267753D01*
X463046Y266844D01*
X463165Y265935D01*
X463516Y265089D01*
X464074Y264362D01*
X464801Y263804D01*
X465648Y263453D01*
X466556Y263334D01*
X467464Y263453D01*
X468311Y263804D01*
X469038Y264362D01*
X469596Y265089D01*
X469947Y265935D01*
X470066Y266844D01*
X469947Y267753D01*
X469596Y268599D01*
X469038Y269326D01*
X468311Y269884D01*
X467464Y270235D01*
X466556Y270354D01*
D02*
G37*
G36*
X446622Y267030D02*
X445708Y266910D01*
X444857Y266557D01*
X444126Y265996D01*
X443565Y265265D01*
X443212Y264414D01*
X443092Y263500D01*
X443212Y262586D01*
X443565Y261735D01*
X444126Y261004D01*
X444857Y260443D01*
X445093Y260345D01*
Y259331D01*
X443728D01*
Y255451D01*
X443228Y255352D01*
X443057Y255765D01*
X442496Y256496D01*
X441765Y257057D01*
X440914Y257410D01*
X440000Y257530D01*
X439086Y257410D01*
X438235Y257057D01*
X437504Y256496D01*
X436943Y255765D01*
X436845Y255529D01*
X427000D01*
X426415Y255413D01*
X426238Y255295D01*
X425772Y255585D01*
X425818Y255937D01*
X425699Y256845D01*
X425348Y257692D01*
X424790Y258419D01*
X424063Y258977D01*
X423216Y259328D01*
X422308Y259447D01*
X421399Y259328D01*
X420553Y258977D01*
X419826Y258419D01*
X419268Y257692D01*
X418917Y256845D01*
X418798Y255937D01*
X418917Y255029D01*
X419268Y254182D01*
X419826Y253455D01*
X420553Y252897D01*
X421399Y252546D01*
X422308Y252427D01*
X422594Y252464D01*
X422828Y251991D01*
X414649Y243812D01*
X414414Y243910D01*
X413500Y244030D01*
X412586Y243910D01*
X411735Y243557D01*
X411004Y242996D01*
X410443Y242265D01*
X410090Y241414D01*
X409970Y240500D01*
X410090Y239586D01*
X410443Y238735D01*
X411004Y238004D01*
X411735Y237443D01*
X412586Y237090D01*
X413500Y236970D01*
X414414Y237090D01*
X415265Y237443D01*
X415996Y238004D01*
X416557Y238735D01*
X416910Y239586D01*
X417030Y240500D01*
X416910Y241414D01*
X416812Y241649D01*
X419757Y244594D01*
X420060Y244445D01*
X420206Y244337D01*
X420323Y243449D01*
X420674Y242603D01*
X421232Y241876D01*
X421959Y241318D01*
X422806Y240967D01*
X423714Y240848D01*
X424622Y240967D01*
X425469Y241318D01*
X426196Y241876D01*
X426754Y242603D01*
X427105Y243449D01*
X427224Y244358D01*
X427105Y245267D01*
X426754Y246113D01*
X426196Y246840D01*
X425469Y247398D01*
X424622Y247749D01*
X423736Y247866D01*
X423627Y248012D01*
X423478Y248315D01*
X427633Y252471D01*
X436845D01*
X436943Y252235D01*
X437504Y251504D01*
X438235Y250943D01*
X439086Y250590D01*
X440000Y250470D01*
X440914Y250590D01*
X441765Y250943D01*
X442496Y251504D01*
X443057Y252235D01*
X443228Y252648D01*
X443728Y252549D01*
Y251744D01*
X449272D01*
Y253681D01*
X449272Y253819D01*
Y254181D01*
X449272Y254319D01*
Y259331D01*
X448151D01*
Y260345D01*
X448387Y260443D01*
X449118Y261004D01*
X449679Y261735D01*
X450032Y262586D01*
X450152Y263500D01*
X450032Y264414D01*
X449679Y265265D01*
X449118Y265996D01*
X448387Y266557D01*
X447536Y266910D01*
X446622Y267030D01*
D02*
G37*
G36*
X666692Y259447D02*
X665784Y259328D01*
X664937Y258977D01*
X664210Y258419D01*
X663652Y257692D01*
X663301Y256845D01*
X663182Y255937D01*
X663301Y255029D01*
X663652Y254182D01*
X664210Y253455D01*
X664937Y252897D01*
X665784Y252546D01*
X666692Y252427D01*
X667600Y252546D01*
X668447Y252897D01*
X669174Y253455D01*
X669732Y254182D01*
X670083Y255029D01*
X670202Y255937D01*
X670083Y256845D01*
X669732Y257692D01*
X669174Y258419D01*
X668447Y258977D01*
X667600Y259328D01*
X666692Y259447D01*
D02*
G37*
G36*
X645272Y250744D02*
X643000D01*
Y248669D01*
X645272D01*
Y250744D01*
D02*
G37*
G36*
X642000D02*
X639728D01*
Y248669D01*
X642000D01*
Y250744D01*
D02*
G37*
G36*
X562272D02*
X560000D01*
Y248669D01*
X562272D01*
Y250744D01*
D02*
G37*
G36*
X559000D02*
X556728D01*
Y248669D01*
X559000D01*
Y250744D01*
D02*
G37*
G36*
X449272D02*
X447000D01*
Y248669D01*
X449272D01*
Y250744D01*
D02*
G37*
G36*
X446000D02*
X443728D01*
Y248669D01*
X446000D01*
Y250744D01*
D02*
G37*
G36*
X366272D02*
X364000D01*
Y248669D01*
X366272D01*
Y250744D01*
D02*
G37*
G36*
X363000D02*
X360728D01*
Y248669D01*
X363000D01*
Y250744D01*
D02*
G37*
G36*
X253272D02*
X251000D01*
Y248669D01*
X253272D01*
Y250744D01*
D02*
G37*
G36*
X250000D02*
X247728D01*
Y248669D01*
X250000D01*
Y250744D01*
D02*
G37*
G36*
X170216D02*
X167944D01*
Y248669D01*
X170216D01*
Y250744D01*
D02*
G37*
G36*
X166944D02*
X164672D01*
Y248669D01*
X166944D01*
Y250744D01*
D02*
G37*
G36*
X643000Y247822D02*
Y244858D01*
X645964D01*
X645910Y245272D01*
X645557Y246123D01*
X644996Y246854D01*
X644265Y247415D01*
X643414Y247768D01*
X643000Y247822D01*
D02*
G37*
G36*
X642000D02*
X641586Y247768D01*
X640735Y247415D01*
X640004Y246854D01*
X639443Y246123D01*
X639090Y245272D01*
X639036Y244858D01*
X642000D01*
Y247822D01*
D02*
G37*
G36*
X559808D02*
Y244858D01*
X562772D01*
X562718Y245272D01*
X562365Y246123D01*
X561804Y246854D01*
X561073Y247415D01*
X560222Y247768D01*
X559808Y247822D01*
D02*
G37*
G36*
X558808D02*
X558394Y247768D01*
X557543Y247415D01*
X556812Y246854D01*
X556251Y246123D01*
X555898Y245272D01*
X555844Y244858D01*
X558808D01*
Y247822D01*
D02*
G37*
G36*
X251000D02*
Y244858D01*
X253964D01*
X253910Y245272D01*
X253557Y246123D01*
X252996Y246854D01*
X252265Y247415D01*
X251414Y247768D01*
X251000Y247822D01*
D02*
G37*
G36*
X250000D02*
X249586Y247768D01*
X248735Y247415D01*
X248004Y246854D01*
X247443Y246123D01*
X247090Y245272D01*
X247036Y244858D01*
X250000D01*
Y247822D01*
D02*
G37*
G36*
X447000Y247580D02*
Y244615D01*
X449964D01*
X449910Y245029D01*
X449557Y245880D01*
X448996Y246612D01*
X448265Y247173D01*
X447414Y247525D01*
X447000Y247580D01*
D02*
G37*
G36*
X446000D02*
X445586Y247525D01*
X444735Y247173D01*
X444004Y246612D01*
X443443Y245880D01*
X443090Y245029D01*
X443036Y244615D01*
X446000D01*
Y247580D01*
D02*
G37*
G36*
X364000D02*
Y244615D01*
X366964D01*
X366910Y245029D01*
X366557Y245880D01*
X365996Y246612D01*
X365265Y247173D01*
X364414Y247525D01*
X364000Y247580D01*
D02*
G37*
G36*
X363000D02*
X362586Y247525D01*
X361735Y247173D01*
X361004Y246612D01*
X360443Y245880D01*
X360090Y245029D01*
X360036Y244615D01*
X363000D01*
Y247580D01*
D02*
G37*
G36*
X168122D02*
Y244615D01*
X171086D01*
X171032Y245029D01*
X170679Y245880D01*
X170118Y246612D01*
X169387Y247173D01*
X168536Y247525D01*
X168122Y247580D01*
D02*
G37*
G36*
X167122D02*
X166708Y247525D01*
X165857Y247173D01*
X165126Y246612D01*
X164565Y245880D01*
X164212Y245029D01*
X164158Y244615D01*
X167122D01*
Y247580D01*
D02*
G37*
G36*
X645964Y243858D02*
X643000D01*
Y240894D01*
X643414Y240948D01*
X644265Y241301D01*
X644996Y241862D01*
X645557Y242593D01*
X645910Y243444D01*
X645964Y243858D01*
D02*
G37*
G36*
X642000D02*
X639036D01*
X639090Y243444D01*
X639443Y242593D01*
X640004Y241862D01*
X640735Y241301D01*
X641586Y240948D01*
X642000Y240894D01*
Y243858D01*
D02*
G37*
G36*
X562772D02*
X559808D01*
Y240894D01*
X560222Y240948D01*
X561073Y241301D01*
X561804Y241862D01*
X562365Y242593D01*
X562718Y243444D01*
X562772Y243858D01*
D02*
G37*
G36*
X558808D02*
X555844D01*
X555898Y243444D01*
X556251Y242593D01*
X556812Y241862D01*
X557543Y241301D01*
X558394Y240948D01*
X558808Y240894D01*
Y243858D01*
D02*
G37*
G36*
X253964D02*
X251000D01*
Y240894D01*
X251414Y240948D01*
X252265Y241301D01*
X252996Y241862D01*
X253557Y242593D01*
X253910Y243444D01*
X253964Y243858D01*
D02*
G37*
G36*
X250000D02*
X247036D01*
X247090Y243444D01*
X247443Y242593D01*
X248004Y241862D01*
X248735Y241301D01*
X249586Y240948D01*
X250000Y240894D01*
Y243858D01*
D02*
G37*
G36*
X665286Y247868D02*
X664377Y247749D01*
X663531Y247398D01*
X662804Y246840D01*
X662246Y246113D01*
X661895Y245267D01*
X661776Y244358D01*
X661895Y243449D01*
X662246Y242603D01*
X662804Y241876D01*
X663531Y241318D01*
X664377Y240967D01*
X665286Y240848D01*
X666194Y240967D01*
X667041Y241318D01*
X667768Y241876D01*
X668326Y242603D01*
X668677Y243449D01*
X668796Y244358D01*
X668677Y245267D01*
X668326Y246113D01*
X667768Y246840D01*
X667041Y247398D01*
X666194Y247749D01*
X665286Y247868D01*
D02*
G37*
G36*
X619714D02*
X618806Y247749D01*
X617959Y247398D01*
X617232Y246840D01*
X616674Y246113D01*
X616323Y245267D01*
X616204Y244358D01*
X616323Y243449D01*
X616674Y242603D01*
X617232Y241876D01*
X617959Y241318D01*
X618806Y240967D01*
X619714Y240848D01*
X620622Y240967D01*
X621469Y241318D01*
X622196Y241876D01*
X622754Y242603D01*
X623105Y243449D01*
X623224Y244358D01*
X623105Y245267D01*
X622754Y246113D01*
X622196Y246840D01*
X621469Y247398D01*
X620622Y247749D01*
X619714Y247868D01*
D02*
G37*
G36*
X582094D02*
X581185Y247749D01*
X580339Y247398D01*
X579612Y246840D01*
X579054Y246113D01*
X578703Y245267D01*
X578584Y244358D01*
X578703Y243449D01*
X579054Y242603D01*
X579612Y241876D01*
X580339Y241318D01*
X581185Y240967D01*
X582094Y240848D01*
X583003Y240967D01*
X583849Y241318D01*
X584576Y241876D01*
X585134Y242603D01*
X585485Y243449D01*
X585604Y244358D01*
X585485Y245267D01*
X585134Y246113D01*
X584576Y246840D01*
X583849Y247398D01*
X583003Y247749D01*
X582094Y247868D01*
D02*
G37*
G36*
X536522D02*
X535613Y247749D01*
X534767Y247398D01*
X534040Y246840D01*
X533482Y246113D01*
X533131Y245267D01*
X533012Y244358D01*
X533131Y243449D01*
X533482Y242603D01*
X534040Y241876D01*
X534767Y241318D01*
X535613Y240967D01*
X536522Y240848D01*
X537430Y240967D01*
X538277Y241318D01*
X539004Y241876D01*
X539562Y242603D01*
X539913Y243449D01*
X540032Y244358D01*
X539913Y245267D01*
X539562Y246113D01*
X539004Y246840D01*
X538277Y247398D01*
X537430Y247749D01*
X536522Y247868D01*
D02*
G37*
G36*
X469286D02*
X468377Y247749D01*
X467531Y247398D01*
X466804Y246840D01*
X466246Y246113D01*
X465895Y245267D01*
X465776Y244358D01*
X465895Y243449D01*
X466246Y242603D01*
X466804Y241876D01*
X467531Y241318D01*
X468377Y240967D01*
X469286Y240848D01*
X470194Y240967D01*
X471041Y241318D01*
X471768Y241876D01*
X472326Y242603D01*
X472677Y243449D01*
X472796Y244358D01*
X472677Y245267D01*
X472326Y246113D01*
X471768Y246840D01*
X471041Y247398D01*
X470194Y247749D01*
X469286Y247868D01*
D02*
G37*
G36*
X449964Y243615D02*
X447000D01*
Y240651D01*
X447414Y240705D01*
X448265Y241058D01*
X448996Y241619D01*
X449557Y242350D01*
X449910Y243202D01*
X449964Y243615D01*
D02*
G37*
G36*
X446000D02*
X443036D01*
X443090Y243202D01*
X443443Y242350D01*
X444004Y241619D01*
X444735Y241058D01*
X445586Y240705D01*
X446000Y240651D01*
Y243615D01*
D02*
G37*
G36*
X366964D02*
X364000D01*
Y240651D01*
X364414Y240705D01*
X365265Y241058D01*
X365996Y241619D01*
X366557Y242350D01*
X366910Y243202D01*
X366964Y243615D01*
D02*
G37*
G36*
X363000D02*
X360036D01*
X360090Y243202D01*
X360443Y242350D01*
X361004Y241619D01*
X361735Y241058D01*
X362586Y240705D01*
X363000Y240651D01*
Y243615D01*
D02*
G37*
G36*
X171086D02*
X168122D01*
Y240651D01*
X168536Y240705D01*
X169387Y241058D01*
X170118Y241619D01*
X170679Y242350D01*
X171032Y243202D01*
X171086Y243615D01*
D02*
G37*
G36*
X167122D02*
X164158D01*
X164212Y243202D01*
X164565Y242350D01*
X165126Y241619D01*
X165857Y241058D01*
X166708Y240705D01*
X167122Y240651D01*
Y243615D01*
D02*
G37*
G36*
X658660Y238269D02*
X657752Y238150D01*
X656905Y237799D01*
X656178Y237241D01*
X655620Y236514D01*
X655269Y235667D01*
X655150Y234759D01*
X655269Y233851D01*
X655620Y233004D01*
X656178Y232277D01*
X656905Y231719D01*
X657752Y231368D01*
X658660Y231249D01*
X659569Y231368D01*
X660415Y231719D01*
X661142Y232277D01*
X661700Y233004D01*
X662051Y233851D01*
X662170Y234759D01*
X662051Y235667D01*
X661700Y236514D01*
X661142Y237241D01*
X660415Y237799D01*
X659569Y238150D01*
X658660Y238269D01*
D02*
G37*
G36*
X626340D02*
X625431Y238150D01*
X624585Y237799D01*
X623858Y237241D01*
X623300Y236514D01*
X622949Y235667D01*
X622830Y234759D01*
X622949Y233851D01*
X623300Y233004D01*
X623858Y232277D01*
X624585Y231719D01*
X625431Y231368D01*
X626340Y231249D01*
X627248Y231368D01*
X628095Y231719D01*
X628822Y232277D01*
X629380Y233004D01*
X629731Y233851D01*
X629850Y234759D01*
X629731Y235667D01*
X629380Y236514D01*
X628822Y237241D01*
X628095Y237799D01*
X627248Y238150D01*
X626340Y238269D01*
D02*
G37*
G36*
X575468D02*
X574559Y238150D01*
X573713Y237799D01*
X572986Y237241D01*
X572428Y236514D01*
X572077Y235667D01*
X571958Y234759D01*
X572077Y233851D01*
X572428Y233004D01*
X572986Y232277D01*
X573713Y231719D01*
X574559Y231368D01*
X575468Y231249D01*
X576376Y231368D01*
X577223Y231719D01*
X577950Y232277D01*
X578508Y233004D01*
X578859Y233851D01*
X578978Y234759D01*
X578859Y235667D01*
X578508Y236514D01*
X577950Y237241D01*
X577223Y237799D01*
X576376Y238150D01*
X575468Y238269D01*
D02*
G37*
G36*
X543148D02*
X542240Y238150D01*
X541393Y237799D01*
X540666Y237241D01*
X540108Y236514D01*
X539757Y235667D01*
X539638Y234759D01*
X539757Y233851D01*
X540108Y233004D01*
X540666Y232277D01*
X541393Y231719D01*
X542240Y231368D01*
X543148Y231249D01*
X544057Y231368D01*
X544903Y231719D01*
X545630Y232277D01*
X546188Y233004D01*
X546539Y233851D01*
X546658Y234759D01*
X546539Y235667D01*
X546188Y236514D01*
X545630Y237241D01*
X544903Y237799D01*
X544057Y238150D01*
X543148Y238269D01*
D02*
G37*
G36*
X462660D02*
X461752Y238150D01*
X460905Y237799D01*
X460178Y237241D01*
X459620Y236514D01*
X459269Y235667D01*
X459150Y234759D01*
X459269Y233851D01*
X459620Y233004D01*
X460178Y232277D01*
X460905Y231719D01*
X461752Y231368D01*
X462660Y231249D01*
X463568Y231368D01*
X464415Y231719D01*
X465142Y232277D01*
X465700Y233004D01*
X466051Y233851D01*
X466170Y234759D01*
X466051Y235667D01*
X465700Y236514D01*
X465142Y237241D01*
X464415Y237799D01*
X463568Y238150D01*
X462660Y238269D01*
D02*
G37*
G36*
X430340D02*
X429431Y238150D01*
X428585Y237799D01*
X427858Y237241D01*
X427300Y236514D01*
X426949Y235667D01*
X426830Y234759D01*
X426949Y233851D01*
X427300Y233004D01*
X427858Y232277D01*
X428585Y231719D01*
X429431Y231368D01*
X430340Y231249D01*
X431249Y231368D01*
X432095Y231719D01*
X432822Y232277D01*
X433380Y233004D01*
X433731Y233851D01*
X433850Y234759D01*
X433731Y235667D01*
X433380Y236514D01*
X432822Y237241D01*
X432095Y237799D01*
X431249Y238150D01*
X430340Y238269D01*
D02*
G37*
G36*
X648332Y232848D02*
X647424Y232729D01*
X646577Y232378D01*
X645850Y231820D01*
X645292Y231093D01*
X644941Y230246D01*
X644822Y229338D01*
X644941Y228430D01*
X645292Y227583D01*
X645850Y226856D01*
X646577Y226298D01*
X647424Y225947D01*
X648332Y225828D01*
X649240Y225947D01*
X650087Y226298D01*
X650814Y226856D01*
X651372Y227583D01*
X651723Y228430D01*
X651842Y229338D01*
X651723Y230246D01*
X651372Y231093D01*
X650814Y231820D01*
X650087Y232378D01*
X649240Y232729D01*
X648332Y232848D01*
D02*
G37*
G36*
X636668D02*
X635759Y232729D01*
X634913Y232378D01*
X634186Y231820D01*
X633628Y231093D01*
X633277Y230246D01*
X633158Y229338D01*
X633277Y228430D01*
X633628Y227583D01*
X634186Y226856D01*
X634913Y226298D01*
X635759Y225947D01*
X636668Y225828D01*
X637576Y225947D01*
X638423Y226298D01*
X639150Y226856D01*
X639708Y227583D01*
X640059Y228430D01*
X640178Y229338D01*
X640059Y230246D01*
X639708Y231093D01*
X639150Y231820D01*
X638423Y232378D01*
X637576Y232729D01*
X636668Y232848D01*
D02*
G37*
G36*
X565140D02*
X564231Y232729D01*
X563385Y232378D01*
X562658Y231820D01*
X562100Y231093D01*
X561749Y230246D01*
X561630Y229338D01*
X561749Y228430D01*
X562100Y227583D01*
X562658Y226856D01*
X563385Y226298D01*
X564231Y225947D01*
X565140Y225828D01*
X566048Y225947D01*
X566895Y226298D01*
X567622Y226856D01*
X568180Y227583D01*
X568531Y228430D01*
X568650Y229338D01*
X568531Y230246D01*
X568180Y231093D01*
X567622Y231820D01*
X566895Y232378D01*
X566048Y232729D01*
X565140Y232848D01*
D02*
G37*
G36*
X553476D02*
X552567Y232729D01*
X551721Y232378D01*
X550994Y231820D01*
X550436Y231093D01*
X550085Y230246D01*
X549966Y229338D01*
X550085Y228430D01*
X550436Y227583D01*
X550994Y226856D01*
X551721Y226298D01*
X552567Y225947D01*
X553476Y225828D01*
X554385Y225947D01*
X555231Y226298D01*
X555958Y226856D01*
X556516Y227583D01*
X556867Y228430D01*
X556986Y229338D01*
X556867Y230246D01*
X556516Y231093D01*
X555958Y231820D01*
X555231Y232378D01*
X554385Y232729D01*
X553476Y232848D01*
D02*
G37*
G36*
X452332D02*
X451424Y232729D01*
X450577Y232378D01*
X449850Y231820D01*
X449292Y231093D01*
X448941Y230246D01*
X448822Y229338D01*
X448941Y228430D01*
X449292Y227583D01*
X449850Y226856D01*
X450577Y226298D01*
X451424Y225947D01*
X452332Y225828D01*
X453240Y225947D01*
X454087Y226298D01*
X454814Y226856D01*
X455372Y227583D01*
X455723Y228430D01*
X455842Y229338D01*
X455723Y230246D01*
X455372Y231093D01*
X454814Y231820D01*
X454087Y232378D01*
X453240Y232729D01*
X452332Y232848D01*
D02*
G37*
G36*
X440668D02*
X439759Y232729D01*
X438913Y232378D01*
X438186Y231820D01*
X437628Y231093D01*
X437277Y230246D01*
X437158Y229338D01*
X437277Y228430D01*
X437628Y227583D01*
X438186Y226856D01*
X438913Y226298D01*
X439759Y225947D01*
X440668Y225828D01*
X441576Y225947D01*
X442423Y226298D01*
X443150Y226856D01*
X443708Y227583D01*
X444059Y228430D01*
X444178Y229338D01*
X444059Y230246D01*
X443708Y231093D01*
X443150Y231820D01*
X442423Y232378D01*
X441576Y232729D01*
X440668Y232848D01*
D02*
G37*
G36*
X683500Y176417D02*
X681760Y176246D01*
X680088Y175738D01*
X678546Y174914D01*
X677195Y173805D01*
X676086Y172454D01*
X675262Y170912D01*
X674754Y169240D01*
X674583Y167500D01*
X674754Y165760D01*
X675262Y164088D01*
X676086Y162546D01*
X677195Y161195D01*
X678546Y160086D01*
X680088Y159262D01*
X681760Y158754D01*
X683500Y158583D01*
X685240Y158754D01*
X686912Y159262D01*
X688454Y160086D01*
X689805Y161195D01*
X690914Y162546D01*
X691738Y164088D01*
X692246Y165760D01*
X692417Y167500D01*
X692246Y169240D01*
X691738Y170912D01*
X690914Y172454D01*
X689805Y173805D01*
X688454Y174914D01*
X686912Y175738D01*
X685240Y176246D01*
X683500Y176417D01*
D02*
G37*
G36*
X546000D02*
X544260Y176246D01*
X542588Y175738D01*
X541046Y174914D01*
X539695Y173805D01*
X538586Y172454D01*
X537762Y170912D01*
X537254Y169240D01*
X537083Y167500D01*
X537254Y165760D01*
X537762Y164088D01*
X538586Y162546D01*
X539695Y161195D01*
X541046Y160086D01*
X542588Y159262D01*
X544260Y158754D01*
X546000Y158583D01*
X547740Y158754D01*
X549412Y159262D01*
X550954Y160086D01*
X552305Y161195D01*
X553414Y162546D01*
X554238Y164088D01*
X554746Y165760D01*
X554917Y167500D01*
X554746Y169240D01*
X554238Y170912D01*
X553414Y172454D01*
X552305Y173805D01*
X550954Y174914D01*
X549412Y175738D01*
X547740Y176246D01*
X546000Y176417D01*
D02*
G37*
G36*
X262000D02*
X260260Y176246D01*
X258588Y175738D01*
X257046Y174914D01*
X255695Y173805D01*
X254586Y172454D01*
X253762Y170912D01*
X253254Y169240D01*
X253083Y167500D01*
X253254Y165760D01*
X253762Y164088D01*
X254586Y162546D01*
X255695Y161195D01*
X257046Y160086D01*
X258588Y159262D01*
X260260Y158754D01*
X262000Y158583D01*
X263740Y158754D01*
X265412Y159262D01*
X266954Y160086D01*
X268305Y161195D01*
X269414Y162546D01*
X270238Y164088D01*
X270746Y165760D01*
X270917Y167500D01*
X270746Y169240D01*
X270238Y170912D01*
X269414Y172454D01*
X268305Y173805D01*
X266954Y174914D01*
X265412Y175738D01*
X263740Y176246D01*
X262000Y176417D01*
D02*
G37*
G36*
X126500D02*
X124760Y176246D01*
X123088Y175738D01*
X121546Y174914D01*
X120195Y173805D01*
X119086Y172454D01*
X118262Y170912D01*
X117754Y169240D01*
X117583Y167500D01*
X117754Y165760D01*
X118262Y164088D01*
X119086Y162546D01*
X120195Y161195D01*
X121546Y160086D01*
X123088Y159262D01*
X124760Y158754D01*
X126500Y158583D01*
X128240Y158754D01*
X129912Y159262D01*
X131454Y160086D01*
X132805Y161195D01*
X133914Y162546D01*
X134738Y164088D01*
X135246Y165760D01*
X135417Y167500D01*
X135246Y169240D01*
X134738Y170912D01*
X133914Y172454D01*
X132805Y173805D01*
X131454Y174914D01*
X129912Y175738D01*
X128240Y176246D01*
X126500Y176417D01*
D02*
G37*
%LPD*%
G36*
X367968Y327649D02*
X369000Y327513D01*
X369362Y327561D01*
X369596Y327087D01*
X358146Y315637D01*
X355953D01*
X355762Y316099D01*
X367504Y327841D01*
X367968Y327649D01*
D02*
G37*
G36*
X377968D02*
X379000Y327513D01*
X379362Y327561D01*
X379596Y327087D01*
X364146Y311637D01*
X361953D01*
X361762Y312099D01*
X377504Y327841D01*
X377968Y327649D01*
D02*
G37*
G36*
X387968D02*
X389000Y327513D01*
X389362Y327561D01*
X389596Y327087D01*
X370146Y307637D01*
X367953D01*
X367762Y308099D01*
X387504Y327841D01*
X387968Y327649D01*
D02*
G37*
G36*
X397968D02*
X399000Y327513D01*
X399362Y327561D01*
X399596Y327087D01*
X376146Y303637D01*
X373953D01*
X373762Y304099D01*
X397504Y327841D01*
X397968Y327649D01*
D02*
G37*
G36*
X407968D02*
X409000Y327513D01*
X409362Y327561D01*
X409596Y327087D01*
X382146Y299637D01*
X379953D01*
X379762Y300099D01*
X407504Y327841D01*
X407968Y327649D01*
D02*
G37*
G36*
X417968D02*
X419000Y327513D01*
X419362Y327561D01*
X419596Y327087D01*
X388146Y295637D01*
X385953D01*
X385762Y296099D01*
X417504Y327841D01*
X417968Y327649D01*
D02*
G37*
G36*
X427968D02*
X429000Y327513D01*
X429362Y327561D01*
X429596Y327087D01*
X394146Y291637D01*
X391953D01*
X391762Y292099D01*
X427504Y327841D01*
X427968Y327649D01*
D02*
G37*
G36*
X437968D02*
X439000Y327513D01*
X439362Y327561D01*
X439596Y327087D01*
X400146Y287637D01*
X397953D01*
X397762Y288099D01*
X437504Y327841D01*
X437968Y327649D01*
D02*
G37*
G36*
X367312Y282529D02*
X367107Y282029D01*
X366630D01*
X366045Y281913D01*
X365548Y281581D01*
X364634Y280667D01*
X364408Y280761D01*
X363500Y280880D01*
X362592Y280761D01*
X361745Y280410D01*
X361018Y279852D01*
X360460Y279125D01*
X360109Y278278D01*
X359990Y277370D01*
X360109Y276462D01*
X360460Y275615D01*
X361018Y274888D01*
X361745Y274330D01*
X362592Y273979D01*
X363500Y273860D01*
X364408Y273979D01*
X365255Y274330D01*
X365982Y274888D01*
X366540Y275615D01*
X366891Y276462D01*
X367010Y277370D01*
X366891Y278278D01*
X366797Y278504D01*
X367264Y278971D01*
X372669D01*
Y277728D01*
X372669Y277728D01*
X372669D01*
X372578Y277240D01*
X372343Y277060D01*
X371785Y276333D01*
X371434Y275486D01*
X371315Y274578D01*
X371434Y273670D01*
X371785Y272823D01*
X371975Y272576D01*
X371754Y272127D01*
X355246D01*
X355025Y272576D01*
X355215Y272823D01*
X355566Y273670D01*
X355685Y274578D01*
X355566Y275486D01*
X355215Y276333D01*
X354657Y277060D01*
X353930Y277618D01*
X353083Y277969D01*
X352175Y278088D01*
X351892Y278051D01*
X351659Y278525D01*
X355695Y282561D01*
X367279D01*
X367312Y282529D01*
D02*
G37*
G36*
X255169Y282029D02*
X253630D01*
X253045Y281913D01*
X252549Y281581D01*
X251634Y280667D01*
X251409Y280761D01*
X250500Y280880D01*
X249591Y280761D01*
X248745Y280410D01*
X248018Y279852D01*
X247460Y279125D01*
X247109Y278278D01*
X246990Y277370D01*
X247109Y276462D01*
X247460Y275615D01*
X248018Y274888D01*
X248745Y274330D01*
X249591Y273979D01*
X250500Y273860D01*
X251409Y273979D01*
X252255Y274330D01*
X252982Y274888D01*
X253540Y275615D01*
X253891Y276462D01*
X254010Y277370D01*
X253891Y278278D01*
X253797Y278504D01*
X254263Y278971D01*
X255169D01*
Y277728D01*
X259392D01*
X259562Y277228D01*
X259343Y277060D01*
X258785Y276333D01*
X258434Y275486D01*
X258315Y274578D01*
X258434Y273670D01*
X258785Y272823D01*
X258975Y272576D01*
X258754Y272127D01*
X242246D01*
X242025Y272576D01*
X242215Y272823D01*
X242566Y273670D01*
X242685Y274578D01*
X242566Y275486D01*
X242215Y276333D01*
X241657Y277060D01*
X240930Y277618D01*
X240084Y277969D01*
X239175Y278088D01*
X238266Y277969D01*
X237420Y277618D01*
X236693Y277060D01*
X236135Y276333D01*
X235784Y275486D01*
X235665Y274578D01*
X235784Y273670D01*
X236135Y272823D01*
X236693Y272096D01*
X237420Y271538D01*
X238266Y271187D01*
X238576Y271147D01*
X238736Y270673D01*
X236436Y268373D01*
X233577D01*
X233484Y268599D01*
X232926Y269326D01*
X232199Y269884D01*
X231352Y270235D01*
X230444Y270354D01*
X229536Y270235D01*
X228689Y269884D01*
X227962Y269326D01*
X227404Y268599D01*
X227053Y267753D01*
X226934Y266844D01*
X227053Y265935D01*
X227404Y265089D01*
X227962Y264362D01*
X228689Y263804D01*
X229536Y263453D01*
X230444Y263334D01*
X231352Y263453D01*
X232199Y263804D01*
X232926Y264362D01*
X233484Y265089D01*
X233577Y265315D01*
X235553D01*
X235744Y264853D01*
X229279Y258387D01*
X228790Y258419D01*
X228063Y258977D01*
X227217Y259328D01*
X226308Y259447D01*
X225399Y259328D01*
X224553Y258977D01*
X224306Y258787D01*
X223857Y259008D01*
Y271194D01*
X235633Y282971D01*
X255169D01*
Y282029D01*
D02*
G37*
G36*
X206875Y284009D02*
X197220Y274354D01*
X185023D01*
X184438Y274237D01*
X183941Y273906D01*
X182295Y272259D01*
X182030Y272290D01*
X181806Y272819D01*
X181809Y272823D01*
X182160Y273670D01*
X182279Y274578D01*
X182160Y275486D01*
X181809Y276333D01*
X181251Y277060D01*
X180524Y277618D01*
X179677Y277969D01*
X178769Y278088D01*
X177860Y277969D01*
X177014Y277618D01*
X176287Y277060D01*
X175729Y276333D01*
X175378Y275486D01*
X175259Y274578D01*
X175378Y273670D01*
X175729Y272823D01*
X175919Y272576D01*
X175698Y272127D01*
X159190D01*
X158969Y272576D01*
X159159Y272823D01*
X159510Y273670D01*
X159629Y274578D01*
X159510Y275486D01*
X159159Y276333D01*
X158601Y277060D01*
X157874Y277618D01*
X157027Y277969D01*
X156119Y278088D01*
X155836Y278051D01*
X155603Y278525D01*
X161549Y284471D01*
X170669D01*
Y281588D01*
X169364Y280283D01*
X169199Y280410D01*
X168352Y280761D01*
X167444Y280880D01*
X166535Y280761D01*
X165689Y280410D01*
X164962Y279852D01*
X164404Y279125D01*
X164053Y278278D01*
X163934Y277370D01*
X164053Y276462D01*
X164404Y275615D01*
X164962Y274888D01*
X165689Y274330D01*
X166535Y273979D01*
X167444Y273860D01*
X168352Y273979D01*
X169199Y274330D01*
X169926Y274888D01*
X170484Y275615D01*
X170835Y276462D01*
X170954Y277370D01*
X170934Y277527D01*
X172635Y279228D01*
X175819D01*
Y279228D01*
X176181D01*
Y279228D01*
X181331D01*
Y280471D01*
X183093D01*
X183532Y279971D01*
X183470Y279500D01*
X183590Y278586D01*
X183943Y277735D01*
X184504Y277004D01*
X185235Y276443D01*
X186086Y276090D01*
X187000Y275970D01*
X187914Y276090D01*
X188765Y276443D01*
X189496Y277004D01*
X190057Y277735D01*
X190410Y278586D01*
X190530Y279500D01*
X190410Y280414D01*
X190057Y281265D01*
X189496Y281996D01*
X188765Y282557D01*
X187914Y282910D01*
X187000Y283030D01*
X186086Y282910D01*
X185851Y282812D01*
X185581Y283081D01*
X185085Y283413D01*
X184500Y283529D01*
X184500Y283529D01*
X181331D01*
Y284471D01*
X206684D01*
X206875Y284009D01*
D02*
G37*
G36*
X447968Y327649D02*
X449000Y327513D01*
X449362Y327561D01*
X449596Y327087D01*
X396862Y274354D01*
X381079D01*
X380494Y274237D01*
X379997Y273906D01*
X378351Y272259D01*
X378086Y272290D01*
X377862Y272819D01*
X377865Y272823D01*
X378216Y273670D01*
X378335Y274578D01*
X378216Y275486D01*
X377865Y276333D01*
X377307Y277060D01*
X377088Y277228D01*
X377258Y277728D01*
X377819D01*
Y277728D01*
X378181D01*
Y277728D01*
X380111D01*
X380283Y277504D01*
X381014Y276943D01*
X381866Y276590D01*
X382779Y276470D01*
X383693Y276590D01*
X384544Y276943D01*
X385276Y277504D01*
X385837Y278235D01*
X386189Y279086D01*
X386310Y280000D01*
X386189Y280914D01*
X385837Y281765D01*
X385639Y282022D01*
X385860Y282471D01*
X401500D01*
X402085Y282587D01*
X402581Y282919D01*
X447504Y327841D01*
X447968Y327649D01*
D02*
G37*
G36*
X325390Y282509D02*
X317235Y274354D01*
X268079D01*
X267494Y274237D01*
X266998Y273906D01*
X265351Y272259D01*
X265086Y272290D01*
X264862Y272819D01*
X264865Y272823D01*
X265216Y273670D01*
X265335Y274578D01*
X265216Y275486D01*
X264865Y276333D01*
X264307Y277060D01*
X264088Y277228D01*
X264258Y277728D01*
X265831D01*
Y278971D01*
X268638D01*
X268943Y278235D01*
X269504Y277504D01*
X270235Y276943D01*
X271086Y276590D01*
X272000Y276470D01*
X272914Y276590D01*
X273765Y276943D01*
X274496Y277504D01*
X275057Y278235D01*
X275410Y279086D01*
X275530Y280000D01*
X275410Y280914D01*
X275057Y281765D01*
X274516Y282471D01*
X274544Y282642D01*
X274656Y282971D01*
X325199D01*
X325390Y282509D01*
D02*
G37*
G36*
X457968Y327649D02*
X459000Y327513D01*
X459362Y327561D01*
X459596Y327087D01*
X400882Y268373D01*
X386689D01*
X386596Y268599D01*
X386406Y268846D01*
X386627Y269295D01*
X398324D01*
X398909Y269411D01*
X399406Y269743D01*
X457504Y327841D01*
X457968Y327649D01*
D02*
G37*
G36*
X317371Y268833D02*
X316912Y268373D01*
X273690D01*
X273596Y268599D01*
X273406Y268846D01*
X273627Y269295D01*
X317180D01*
X317371Y268833D01*
D02*
G37*
G36*
X143957Y266245D02*
X143997Y265935D01*
X144348Y265089D01*
X144906Y264362D01*
X145633Y263804D01*
X146479Y263453D01*
X147388Y263334D01*
X147838Y263393D01*
X148072Y262919D01*
X144386Y259234D01*
X144160Y259328D01*
X143252Y259447D01*
X142343Y259328D01*
X141497Y258977D01*
X141250Y258787D01*
X140801Y259008D01*
Y263723D01*
X143483Y266405D01*
X143957Y266245D01*
D02*
G37*
G36*
X340013D02*
X340053Y265935D01*
X340404Y265089D01*
X340962Y264362D01*
X341689Y263804D01*
X342535Y263453D01*
X343444Y263334D01*
X344353Y263453D01*
X345199Y263804D01*
X345926Y264362D01*
X346484Y265089D01*
X346578Y265315D01*
X347308D01*
X347499Y264853D01*
X341380Y258734D01*
X341063Y258977D01*
X340216Y259328D01*
X339308Y259447D01*
X338400Y259328D01*
X337553Y258977D01*
X337306Y258787D01*
X336857Y259008D01*
Y264194D01*
X337674Y265011D01*
X338056Y265087D01*
X338552Y265419D01*
X339539Y266405D01*
X340013Y266245D01*
D02*
G37*
G36*
X292619Y232768D02*
X290719Y230867D01*
X267594D01*
X267561Y231367D01*
X267568Y231368D01*
X268415Y231719D01*
X269142Y232277D01*
X269700Y233004D01*
X269794Y233230D01*
X292428D01*
X292619Y232768D01*
D02*
G37*
G36*
X200104D02*
X198204Y230867D01*
X184538D01*
X184505Y231367D01*
X184512Y231368D01*
X185359Y231719D01*
X186086Y232277D01*
X186644Y233004D01*
X186738Y233230D01*
X199913D01*
X200104Y232768D01*
D02*
G37*
G36*
X290027Y227347D02*
X289567Y226887D01*
X259403D01*
X259182Y227336D01*
X259372Y227583D01*
X259466Y227809D01*
X289836D01*
X290027Y227347D01*
D02*
G37*
D11*
X325874Y348374D02*
X551602D01*
X319000Y341500D02*
X325874Y348374D01*
X551602D02*
X581476Y318500D01*
X624500D01*
X430227Y276227D02*
X479047Y325047D01*
X430198Y276227D02*
X430227D01*
X422464Y268493D02*
X430198Y276227D01*
X380481Y229338D02*
X478190Y327047D01*
X390266Y243641D02*
X476547Y329922D01*
X388155Y244358D02*
X474547Y330750D01*
X479047Y325047D02*
X481673D01*
X478190Y327047D02*
X480844D01*
X624500Y318500D02*
X649831Y293169D01*
Y279607D02*
Y293169D01*
X649000Y278776D02*
X649831Y279607D01*
X649000Y254000D02*
Y278776D01*
X634083Y251957D02*
X636126Y254000D01*
X581851Y251957D02*
X634083D01*
X580308Y253500D02*
X581851Y251957D01*
X566000Y253500D02*
X580308D01*
X538308D02*
X552812D01*
X536765Y251957D02*
X538308Y253500D01*
X469043Y251957D02*
X536765D01*
X466500Y254500D02*
X469043Y251957D01*
X453500Y254500D02*
X466500D01*
X427000Y254000D02*
X440000D01*
X413500Y240500D02*
X427000Y254000D01*
X167444Y256756D02*
X167500Y256812D01*
Y263646D01*
X250500Y256756D02*
Y263646D01*
X363500Y256756D02*
Y263646D01*
X363500Y263646D02*
X363500Y263646D01*
X446500Y256756D02*
X446622Y256878D01*
Y263500D01*
X559500Y256756D02*
Y263500D01*
X642500Y256756D02*
Y263500D01*
X642500Y263500D02*
X642500Y263500D01*
X379681Y268598D02*
X381907Y270824D01*
X353407Y268598D02*
X379681D01*
X378852Y270598D02*
X381079Y272824D01*
X352546Y270598D02*
X378852D01*
X340746Y255937D02*
X353407Y268598D01*
X339308Y255937D02*
X340746D01*
X348792Y266844D02*
X352546Y270598D01*
X343444Y266844D02*
X348792D01*
X240824Y270598D02*
X265852D01*
X237070Y266844D02*
X240824Y270598D01*
X265852D02*
X268079Y272824D01*
X266681Y268598D02*
X268907Y270824D01*
X241652Y268598D02*
X266681D01*
X228991Y255937D02*
X241652Y268598D01*
X226308Y255937D02*
X228991D01*
X230444Y266844D02*
X237070D01*
X182796Y270598D02*
X185023Y272824D01*
X155084Y270598D02*
X182796D01*
X183625Y268598D02*
X185851Y270824D01*
X155913Y268598D02*
X183625D01*
X143252Y255937D02*
X155913Y268598D01*
X151331Y266844D02*
X155084Y270598D01*
X476547Y329922D02*
Y331500D01*
X184500Y282000D02*
X184500Y282000D01*
X178756Y282000D02*
X184500D01*
X168614Y277370D02*
X173244Y282000D01*
X167444Y277370D02*
X168614D01*
X564256Y283000D02*
Y284378D01*
X446622Y277492D02*
Y282000D01*
X446500Y277370D02*
X446622Y277492D01*
X451256Y283000D02*
Y283878D01*
X458728Y291350D01*
X363500Y277370D02*
X366630Y280500D01*
X375244D01*
X368074Y284000D02*
X401500D01*
X353779Y286108D02*
X400779D01*
X352951Y288108D02*
X395608D01*
X352122Y290108D02*
X394779D01*
X351294Y292108D02*
X389608D01*
X350466Y294108D02*
X388779D01*
X349637Y296108D02*
X383608D01*
X348809Y298108D02*
X382779D01*
X377608Y300108D02*
X409000Y331500D01*
X347980Y300108D02*
X377608D01*
X376779Y302108D02*
X404547Y329876D01*
X347152Y302108D02*
X376779D01*
X371608Y304108D02*
X399000Y331500D01*
X346324Y304108D02*
X371608D01*
X370779Y306108D02*
X394547Y329876D01*
X345495Y306108D02*
X370779D01*
X365608Y308108D02*
X389000Y331500D01*
X344667Y308108D02*
X365608D01*
X364779Y310108D02*
X384547Y329876D01*
X343838Y310108D02*
X364779D01*
X359608Y312108D02*
X379000Y331500D01*
X343010Y312108D02*
X359608D01*
X358779Y314108D02*
X373453Y328781D01*
X342181Y314108D02*
X358779D01*
X367984Y284090D02*
X368074Y284000D01*
X355062Y284090D02*
X367984D01*
X271500Y280500D02*
X272000Y280000D01*
X263256Y280500D02*
X271500D01*
X250500Y277370D02*
X253630Y280500D01*
X257744D01*
X483453Y335953D02*
X489000Y341500D01*
X483453Y329656D02*
Y335953D01*
X479000Y340500D02*
Y341500D01*
X474547Y336047D02*
X479000Y340500D01*
X474547Y330750D02*
Y336047D01*
X339886Y246338D02*
X341534D01*
X449000Y340000D02*
Y341500D01*
X444547Y335547D02*
X449000Y340000D01*
X444547Y329876D02*
Y335547D01*
X439000Y340000D02*
Y341500D01*
X434547Y335547D02*
X439000Y340000D01*
X434547Y329876D02*
Y335547D01*
X429000Y340500D02*
Y341500D01*
X424547Y336047D02*
X429000Y340500D01*
X424547Y329876D02*
Y336047D01*
X419000Y340500D02*
Y341500D01*
X414547Y336047D02*
X419000Y340500D01*
X414547Y329876D02*
Y336047D01*
X409000Y340000D02*
Y341500D01*
X404547Y335547D02*
X409000Y340000D01*
X404547Y329876D02*
Y335547D01*
X399000Y340000D02*
Y341500D01*
X394547Y335547D02*
X399000Y340000D01*
X394547Y329876D02*
Y335547D01*
X389000Y340000D02*
Y341500D01*
X384547Y335547D02*
X389000Y340000D01*
X384547Y329876D02*
Y335547D01*
X369000Y339500D02*
Y341500D01*
X364547Y335047D02*
X369000Y339500D01*
X364547Y329876D02*
Y335047D01*
X458728Y291350D02*
X571228D01*
X564256Y284378D02*
X571228Y291350D01*
X645000D01*
X645106Y282272D02*
X645378Y282000D01*
X645106Y282272D02*
Y291244D01*
X645000Y291350D02*
X645106Y291244D01*
X208201Y286000D02*
X226701Y304500D01*
X160915Y286000D02*
X208201D01*
X139272Y264357D02*
X160915Y286000D01*
X207373Y288000D02*
X225873Y306500D01*
X160087Y288000D02*
X207373D01*
X137272Y265185D02*
X160087Y288000D01*
X184500Y282000D02*
X187000Y279500D01*
X235000Y284500D02*
X326716D01*
X234172Y286500D02*
X325887D01*
X233343Y288500D02*
X325059D01*
X232515Y290500D02*
X324231D01*
X231672Y292500D02*
X323402D01*
X230843Y294500D02*
X322574D01*
X230015Y296500D02*
X321745D01*
X229186Y298500D02*
X320917D01*
X228358Y300500D02*
X320088D01*
X227530Y302500D02*
X319260D01*
X226701Y304500D02*
X318432D01*
X225873Y306500D02*
X317603D01*
X222328Y271828D02*
X235000Y284500D01*
X220328Y272656D02*
X234172Y286500D01*
X218000Y273157D02*
X233343Y288500D01*
X225015Y283000D02*
X232515Y290500D01*
X214000Y274828D02*
X231672Y292500D01*
X212000Y275657D02*
X230843Y294500D01*
X210000Y276485D02*
X230015Y296500D01*
X197530Y266844D02*
X229186Y298500D01*
X198682Y270824D02*
X228358Y300500D01*
X197854Y272824D02*
X227530Y302500D01*
X642500Y277370D02*
X642622Y277492D01*
Y282000D01*
X559122Y277556D02*
X559308Y277370D01*
X559122Y277556D02*
Y282000D01*
X167444Y277370D02*
X167622Y277548D01*
X144658Y244358D02*
X147314D01*
X155264Y236408D01*
Y233110D02*
Y236408D01*
X152933Y230779D02*
X155264Y233110D01*
X148393Y230779D02*
X152933D01*
X137272Y241900D02*
X148393Y230779D01*
X137272Y241900D02*
Y265185D01*
X317603Y306500D02*
X337211Y326108D01*
X339905D01*
X344547Y330750D01*
Y333344D01*
X349000Y337797D01*
Y341500D01*
X139272Y242728D02*
Y264357D01*
X337471Y266500D02*
X355062Y284090D01*
X401500Y284000D02*
X449000Y331500D01*
X147241Y234759D02*
X151284D01*
X139272Y242728D02*
X147241Y234759D01*
X318432Y304500D02*
X338039Y324108D01*
X341608D01*
X349000Y331500D01*
X185851Y270824D02*
X198682D01*
X147388Y266844D02*
X151331D01*
X185023Y272824D02*
X197854D01*
X319260Y302500D02*
X338868Y322108D01*
X346779D01*
X353453Y328781D01*
Y335953D01*
X359000Y341500D01*
X320088Y300500D02*
X339696Y320108D01*
X347608D01*
X359000Y331500D01*
X187500Y266844D02*
X197530D01*
X320917Y298500D02*
X340525Y318108D01*
X352779D01*
X364547Y329876D01*
X191636Y255937D02*
X204609D01*
X210000Y261328D01*
Y276485D01*
X321745Y296500D02*
X341353Y316108D01*
X353608D01*
X369000Y331500D01*
X190230Y244358D02*
X195858D01*
X212000Y260500D01*
Y275657D01*
X322574Y294500D02*
X342181Y314108D01*
X373453Y328781D02*
Y335953D01*
X379000Y341500D01*
X183604Y234759D02*
X201430D01*
X214000Y247329D01*
Y274828D01*
X323402Y292500D02*
X343010Y312108D01*
X173276Y229338D02*
X198837D01*
X216000Y246501D01*
Y273985D01*
X225000Y282985D01*
Y283000D01*
X225015D01*
X324231Y290500D02*
X343838Y310108D01*
X161612Y229338D02*
X163520D01*
X167500Y225358D01*
X197686D01*
X218000Y245672D01*
Y273157D01*
X222328Y244115D02*
Y271828D01*
X325059Y288500D02*
X344667Y308108D01*
X227714Y244358D02*
X230642D01*
X238320Y236680D01*
Y233110D02*
Y236680D01*
X235989Y230779D02*
X238320Y233110D01*
X232691Y230779D02*
X235989D01*
X220328Y243142D02*
X232691Y230779D01*
X220328Y243142D02*
Y245672D01*
X220000Y246000D02*
X220328Y245672D01*
X222328Y244115D02*
X231684Y234759D01*
X234340D01*
X220000Y246000D02*
X220328Y246328D01*
Y272656D01*
X325887Y286500D02*
X345495Y306108D01*
X326716Y284500D02*
X346324Y304108D01*
X268079Y272824D02*
X317868D01*
X347152Y302108D01*
X268907Y270824D02*
X318697D01*
X347980Y300108D01*
X270556Y266844D02*
X317545D01*
X348809Y298108D01*
X382779D02*
X414547Y329876D01*
X274692Y255937D02*
X309467D01*
X349637Y296108D01*
X383608D02*
X419000Y331500D01*
X273286Y244358D02*
X300716D01*
X350466Y294108D01*
X388779D02*
X424547Y329876D01*
X266660Y234759D02*
X293945D01*
X351294Y292108D01*
X389608D02*
X429000Y331500D01*
X256332Y229338D02*
X291353D01*
X352122Y290108D01*
X394779D02*
X434547Y329876D01*
X254683Y225358D02*
X290201D01*
X244668Y228832D02*
Y229338D01*
Y228832D02*
X248000Y225500D01*
X254541D01*
X254683Y225358D01*
X290201D02*
X352951Y288108D01*
X395608D02*
X439000Y331500D01*
X397496Y272824D02*
X453453Y328781D01*
X398324Y270824D02*
X459000Y331500D01*
X463453Y328781D02*
Y335953D01*
X401516Y266844D02*
X463453Y328781D01*
X383556Y266844D02*
X401516D01*
X379660Y234759D02*
X382316D01*
X390266Y242709D02*
Y243641D01*
X382316Y234759D02*
X390266Y242709D01*
X386286Y244358D02*
X388155D01*
X379500Y225000D02*
X422464Y267964D01*
X359000Y225000D02*
X379500D01*
X357668Y226332D02*
X359000Y225000D01*
X476547Y331500D02*
X479000D01*
X488126D02*
X489000D01*
X481673Y325047D02*
X488126Y331500D01*
X337000Y266500D02*
X337471D01*
X335328Y264828D02*
X337000Y266500D01*
X335328Y253725D02*
Y264828D01*
X333328Y252896D02*
X339886Y246338D01*
X333328Y252896D02*
Y265656D01*
X353779Y286108D01*
X400779D02*
X444547Y329876D01*
X347340Y234759D02*
Y243361D01*
X342363Y248338D02*
X347340Y243361D01*
X340714Y248338D02*
X342363D01*
X335328Y253725D02*
X340714Y248338D01*
X381907Y270824D02*
X398324D01*
X381079Y272824D02*
X397496D01*
X453453Y328781D02*
Y335953D01*
X459000Y341500D01*
X393437Y255937D02*
X469000Y331500D01*
X463453Y335953D02*
X469000Y341500D01*
X387692Y255937D02*
X393437D01*
X369332Y229338D02*
X380481D01*
X480844Y327047D02*
X483453Y329656D01*
X422464Y267964D02*
Y268493D01*
X357668Y226332D02*
Y229338D01*
D19*
X631175Y274578D02*
D03*
X653825D02*
D03*
X642500Y277370D02*
D03*
X618308Y255937D02*
D03*
X619714Y244358D02*
D03*
X626340Y234759D02*
D03*
X636668Y229338D02*
D03*
X648332D02*
D03*
X658660Y234759D02*
D03*
X665286Y244358D02*
D03*
X666692Y255937D02*
D03*
X662556Y266844D02*
D03*
X622444D02*
D03*
X539252D02*
D03*
X579364D02*
D03*
X583500Y255937D02*
D03*
X582094Y244358D02*
D03*
X575468Y234759D02*
D03*
X565140Y229338D02*
D03*
X553476D02*
D03*
X543148Y234759D02*
D03*
X536522Y244358D02*
D03*
X535116Y255937D02*
D03*
X559308Y277370D02*
D03*
X570633Y274578D02*
D03*
X547983D02*
D03*
X435175D02*
D03*
X457825D02*
D03*
X446500Y277370D02*
D03*
X422308Y255937D02*
D03*
X423714Y244358D02*
D03*
X430340Y234759D02*
D03*
X440668Y229338D02*
D03*
X452332D02*
D03*
X462660Y234759D02*
D03*
X469286Y244358D02*
D03*
X470692Y255937D02*
D03*
X466556Y266844D02*
D03*
X426444D02*
D03*
X343444D02*
D03*
X383556D02*
D03*
X387692Y255937D02*
D03*
X386286Y244358D02*
D03*
X379660Y234759D02*
D03*
X369332Y229338D02*
D03*
X357668D02*
D03*
X347340Y234759D02*
D03*
X340714Y244358D02*
D03*
X339308Y255937D02*
D03*
X363500Y277370D02*
D03*
X374825Y274578D02*
D03*
X352175D02*
D03*
X239175D02*
D03*
X261825D02*
D03*
X250500Y277370D02*
D03*
X226308Y255937D02*
D03*
X227714Y244358D02*
D03*
X234340Y234759D02*
D03*
X244668Y229338D02*
D03*
X256332D02*
D03*
X266660Y234759D02*
D03*
X273286Y244358D02*
D03*
X274692Y255937D02*
D03*
X270556Y266844D02*
D03*
X230444D02*
D03*
X147388D02*
D03*
X187500D02*
D03*
X191636Y255937D02*
D03*
X190230Y244358D02*
D03*
X183604Y234759D02*
D03*
X173276Y229338D02*
D03*
X161612D02*
D03*
X151284Y234759D02*
D03*
X144658Y244358D02*
D03*
X143252Y255937D02*
D03*
X167444Y277370D02*
D03*
X178769Y274578D02*
D03*
X156119D02*
D03*
D20*
X319000Y331500D02*
D03*
Y341500D02*
D03*
X329000Y331500D02*
D03*
Y341500D02*
D03*
X339000Y331500D02*
D03*
Y341500D02*
D03*
X349000Y331500D02*
D03*
Y341500D02*
D03*
X359000Y331500D02*
D03*
Y341500D02*
D03*
X369000Y331500D02*
D03*
Y341500D02*
D03*
X379000Y331500D02*
D03*
Y341500D02*
D03*
X389000Y331500D02*
D03*
Y341500D02*
D03*
X399000Y331500D02*
D03*
Y341500D02*
D03*
X409000Y331500D02*
D03*
Y341500D02*
D03*
X419000Y331500D02*
D03*
Y341500D02*
D03*
X429000Y331500D02*
D03*
Y341500D02*
D03*
X439000Y331500D02*
D03*
Y341500D02*
D03*
X449000Y331500D02*
D03*
Y341500D02*
D03*
X459000Y331500D02*
D03*
Y341500D02*
D03*
X469000Y331500D02*
D03*
Y341500D02*
D03*
X479000Y331500D02*
D03*
Y341500D02*
D03*
X489000Y331500D02*
D03*
D21*
Y341500D02*
D03*
D22*
X649000Y254000D02*
D03*
X636126D02*
D03*
X566000Y253500D02*
D03*
X552812D02*
D03*
X453500Y254500D02*
D03*
X440000Y254000D02*
D03*
X413500Y240500D02*
D03*
X642500Y244358D02*
D03*
X559308D02*
D03*
X446500Y244115D02*
D03*
X363500D02*
D03*
X250500Y244358D02*
D03*
X167622Y244115D02*
D03*
X167500Y263646D02*
D03*
X250500D02*
D03*
X363500D02*
D03*
X446622Y263500D02*
D03*
X559500D02*
D03*
X642500D02*
D03*
X382779Y280000D02*
D03*
X645000Y291350D02*
D03*
X187000Y279500D02*
D03*
X272000Y280000D02*
D03*
D23*
X683500Y339000D02*
D03*
X126500D02*
D03*
Y167500D02*
D03*
X683500D02*
D03*
X546000Y339000D02*
D03*
X262000D02*
D03*
Y167500D02*
D03*
X546000D02*
D03*
D24*
X250500Y251244D02*
D03*
Y256756D02*
D03*
X446500Y251244D02*
D03*
Y256756D02*
D03*
X167444Y251244D02*
D03*
Y256756D02*
D03*
X363500Y251244D02*
D03*
Y256756D02*
D03*
X559500Y251244D02*
D03*
Y256756D02*
D03*
X642500Y251244D02*
D03*
Y256756D02*
D03*
D25*
X173244Y282000D02*
D03*
X178756D02*
D03*
X257744Y280500D02*
D03*
X263256D02*
D03*
X375244D02*
D03*
X380756D02*
D03*
X445744Y283000D02*
D03*
X451256D02*
D03*
X558744D02*
D03*
X564256D02*
D03*
X641244Y282000D02*
D03*
X646756D02*
D03*
M02*
