M48
;Layer_Color=9474304
;FILE_FORMAT=2:5
INCH,TZ
;TYPE=PLATED
T1F00S00C0.02800
T2F00S00C0.03307
T3F00S00C0.03543
T4F00S00C0.07874
T5F00S00C0.11811
%
T01
X643100Y244354
X652916Y239500
X642500Y263646
X647500Y271000
X633224Y255937
X572500Y244358
X559126
Y263653
X564488Y270920
X549500Y255937
X459000Y250500
X446500Y244602
Y263653
X446500Y270500
X435000Y255937
X375245Y252000
X363744Y244358
X363500Y263646
X365332Y270739
X353500Y256000
X264164Y246000
X250920Y244358
Y263646
X254653Y271136
X239720Y256500
X181000Y253209
X167864Y244358
Y263646
X170500Y270203
T02
X626340Y234759
X636668Y229338
X648332
X658660Y234759
X665286Y244358
X666692Y255937
X662556Y266844
X653825Y274578
X642500Y277370
X631175Y274578
X622444Y266844
X618308Y255937
X619714Y244358
X582094
X583500Y255937
X579364Y266844
X570633Y274578
X559308Y277370
X547983Y274578
X539252Y266844
X535116Y255937
X536522Y244358
X543148Y234759
X553476Y229338
X565140
X575468Y234759
X469286Y244358
X470692Y255937
X466556Y266844
X457825Y274578
X446500Y277370
X435175Y274578
X426444Y266844
X422308Y255937
X423714Y244358
X430340Y234759
X440668Y229338
X452332
X462660Y234759
X379660
X369332Y229338
X357668
X347340Y234759
X340714Y244358
X339308Y255937
X343444Y266844
X352175Y274578
X363500Y277370
X374825Y274578
X383556Y266844
X387692Y255937
X386286Y244358
X273286
X274692Y255937
X270556Y266844
X261825Y274578
X250500Y277370
X239175Y274578
X230444Y266844
X226308Y255937
X227714Y244358
X234340Y234759
X244668Y229338
X256332
X266660Y234759
X183604
X173276Y229338
X161612
X190230Y244358
X191636Y255937
X187500Y266844
X178769Y274578
X167444Y277370
X156119Y274578
X147388Y266844
X143252Y255937
X144658Y244358
X151284Y234759
T03
X374000Y342000
X384000
X394000
X404000
X414000
X424000
X434000
T04
X546000Y167500
X262000
Y339000
X546000
T05
X683500Y167500
X126500
Y339000
X683500
M30
