G04*
G04 #@! TF.GenerationSoftware,Altium Limited,Altium Designer,20.0.12 (288)*
G04*
G04 Layer_Color=32896*
%FSLAX25Y25*%
%MOIN*%
G70*
G01*
G75*
%ADD10C,0.00500*%
G36*
X353441Y192989D02*
X353524Y192867D01*
X353618Y192751D01*
X353713Y192651D01*
X353796Y192556D01*
X353835Y192523D01*
X353863Y192490D01*
X353890Y192462D01*
X353912Y192445D01*
X353924Y192434D01*
X353929Y192429D01*
X354079Y192301D01*
X354240Y192190D01*
X354395Y192085D01*
X354540Y191996D01*
X354601Y191962D01*
X354662Y191929D01*
X354717Y191896D01*
X354762Y191874D01*
X354801Y191857D01*
X354828Y191840D01*
X354845Y191835D01*
X354851Y191829D01*
Y191224D01*
X354739Y191269D01*
X354623Y191319D01*
X354512Y191374D01*
X354412Y191424D01*
X354323Y191474D01*
X354284Y191491D01*
X354251Y191513D01*
X354223Y191524D01*
X354207Y191535D01*
X354196Y191546D01*
X354190D01*
X354057Y191629D01*
X353940Y191707D01*
X353835Y191779D01*
X353751Y191846D01*
X353679Y191901D01*
X353629Y191940D01*
X353602Y191968D01*
X353591Y191979D01*
Y187978D01*
X352963D01*
Y193117D01*
X353369D01*
X353441Y192989D01*
D02*
G37*
G36*
X424381Y190630D02*
X426362Y187978D01*
X425546D01*
X424248Y189753D01*
X424214Y189798D01*
X424181Y189853D01*
X424098Y189970D01*
X424059Y190025D01*
X424031Y190070D01*
X424009Y190103D01*
X424003Y190109D01*
Y190114D01*
X423926Y189998D01*
X423892Y189948D01*
X423859Y189903D01*
X423831Y189859D01*
X423809Y189831D01*
X423798Y189809D01*
X423793Y189804D01*
X422494Y187978D01*
X421667D01*
X423587Y190664D01*
X421806Y193100D01*
X422544D01*
X423565Y191735D01*
X423648Y191624D01*
X423732Y191518D01*
X423798Y191419D01*
X423859Y191330D01*
X423909Y191258D01*
X423942Y191208D01*
X423959Y191185D01*
X423970Y191169D01*
X423976Y191163D01*
Y191158D01*
X424026Y191246D01*
X424092Y191352D01*
X424159Y191452D01*
X424226Y191557D01*
X424287Y191646D01*
X424314Y191685D01*
X424336Y191718D01*
X424359Y191746D01*
X424375Y191768D01*
X424381Y191779D01*
X424386Y191785D01*
X425324Y193100D01*
X426129D01*
X424381Y190630D01*
D02*
G37*
G36*
X371401Y187978D02*
X370724D01*
Y189753D01*
X369885Y190564D01*
X368065Y187978D01*
X367166D01*
X369408Y191024D01*
X367260Y193100D01*
X368182D01*
X370724Y190564D01*
Y193100D01*
X371401D01*
Y187978D01*
D02*
G37*
G36*
X357786Y189515D02*
X355849D01*
Y190148D01*
X357786D01*
Y189515D01*
D02*
G37*
G36*
X433000Y187978D02*
X432351D01*
Y191996D01*
X429665Y187978D01*
X428965D01*
Y193100D01*
X429614D01*
Y189076D01*
X432306Y193100D01*
X433000D01*
Y187978D01*
D02*
G37*
G36*
X362632Y187978D02*
X361982D01*
Y191996D01*
X359296Y187978D01*
X358597D01*
Y193100D01*
X359246D01*
Y189076D01*
X361938Y193100D01*
X362632D01*
Y187978D01*
D02*
G37*
G36*
X407942Y190142D02*
Y189992D01*
X407931Y189853D01*
X407925Y189720D01*
X407908Y189598D01*
X407897Y189482D01*
X407881Y189376D01*
X407864Y189282D01*
X407842Y189193D01*
X407825Y189115D01*
X407809Y189049D01*
X407792Y188988D01*
X407775Y188943D01*
X407764Y188904D01*
X407753Y188877D01*
X407748Y188860D01*
Y188854D01*
X407709Y188771D01*
X407664Y188688D01*
X407564Y188544D01*
X407459Y188421D01*
X407348Y188322D01*
X407298Y188277D01*
X407254Y188244D01*
X407209Y188211D01*
X407170Y188183D01*
X407142Y188166D01*
X407120Y188150D01*
X407104Y188144D01*
X407098Y188138D01*
X407009Y188094D01*
X406915Y188061D01*
X406721Y188000D01*
X406521Y187955D01*
X406332Y187928D01*
X406249Y187917D01*
X406166Y187905D01*
X406099Y187900D01*
X406038D01*
X405988Y187894D01*
X405916D01*
X405783Y187900D01*
X405655Y187905D01*
X405533Y187922D01*
X405416Y187939D01*
X405311Y187961D01*
X405211Y187983D01*
X405122Y188011D01*
X405045Y188039D01*
X404967Y188061D01*
X404906Y188089D01*
X404850Y188111D01*
X404806Y188133D01*
X404767Y188150D01*
X404745Y188166D01*
X404728Y188172D01*
X404723Y188177D01*
X404639Y188233D01*
X404562Y188288D01*
X404495Y188349D01*
X404429Y188410D01*
X404373Y188471D01*
X404318Y188538D01*
X404273Y188594D01*
X404234Y188655D01*
X404168Y188754D01*
X404146Y188799D01*
X404123Y188838D01*
X404107Y188871D01*
X404096Y188893D01*
X404090Y188910D01*
Y188916D01*
X404057Y189004D01*
X404029Y189099D01*
X403985Y189298D01*
X403957Y189504D01*
X403935Y189698D01*
X403929Y189792D01*
X403924Y189876D01*
X403918Y189948D01*
X403912Y190014D01*
Y190070D01*
Y190109D01*
Y190131D01*
Y190142D01*
Y193100D01*
X404590Y193100D01*
Y190142D01*
X404595Y189970D01*
X404601Y189809D01*
X404617Y189665D01*
X404639Y189532D01*
X404662Y189415D01*
X404689Y189310D01*
X404723Y189215D01*
X404750Y189132D01*
X404778Y189060D01*
X404811Y188999D01*
X404839Y188949D01*
X404861Y188910D01*
X404884Y188882D01*
X404895Y188860D01*
X404906Y188849D01*
X404912Y188843D01*
X404978Y188782D01*
X405050Y188732D01*
X405128Y188688D01*
X405211Y188649D01*
X405300Y188616D01*
X405389Y188588D01*
X405561Y188549D01*
X405644Y188532D01*
X405722Y188521D01*
X405794Y188516D01*
X405855Y188510D01*
X405905Y188505D01*
X405977D01*
X406133Y188510D01*
X406277Y188532D01*
X406404Y188560D01*
X406515Y188588D01*
X406560Y188605D01*
X406599Y188621D01*
X406637Y188632D01*
X406665Y188644D01*
X406687Y188655D01*
X406704Y188666D01*
X406715Y188671D01*
X406721D01*
X406826Y188743D01*
X406915Y188821D01*
X406987Y188899D01*
X407043Y188982D01*
X407087Y189049D01*
X407120Y189110D01*
X407131Y189132D01*
X407137Y189149D01*
X407142Y189154D01*
Y189160D01*
X407165Y189221D01*
X407181Y189293D01*
X407215Y189448D01*
X407237Y189609D01*
X407248Y189770D01*
X407254Y189842D01*
X407259Y189915D01*
Y189976D01*
X407265Y190031D01*
Y190081D01*
Y190114D01*
Y190137D01*
Y190142D01*
Y193100D01*
X407942D01*
Y190142D01*
D02*
G37*
G36*
X389161Y193183D02*
X389283Y193178D01*
X389510Y193139D01*
X389621Y193117D01*
X389721Y193089D01*
X389821Y193061D01*
X389910Y193034D01*
X389987Y193006D01*
X390060Y192978D01*
X390126Y192950D01*
X390176Y192928D01*
X390221Y192906D01*
X390248Y192889D01*
X390271Y192884D01*
X390276Y192878D01*
X390376Y192817D01*
X390476Y192751D01*
X390565Y192678D01*
X390648Y192606D01*
X390726Y192528D01*
X390798Y192456D01*
X390859Y192379D01*
X390920Y192312D01*
X390970Y192240D01*
X391014Y192179D01*
X391053Y192123D01*
X391086Y192073D01*
X391109Y192029D01*
X391125Y192001D01*
X391136Y191979D01*
X391142Y191973D01*
X391197Y191862D01*
X391242Y191740D01*
X391281Y191624D01*
X391319Y191507D01*
X391375Y191269D01*
X391392Y191158D01*
X391408Y191052D01*
X391419Y190952D01*
X391430Y190864D01*
X391436Y190780D01*
X391442Y190708D01*
X391447Y190653D01*
Y190608D01*
Y190586D01*
Y190575D01*
X391442Y190442D01*
X391436Y190308D01*
X391403Y190053D01*
X391386Y189931D01*
X391364Y189820D01*
X391336Y189715D01*
X391314Y189615D01*
X391286Y189526D01*
X391264Y189443D01*
X391242Y189376D01*
X391220Y189315D01*
X391203Y189271D01*
X391192Y189232D01*
X391186Y189210D01*
X391181Y189204D01*
X391125Y189087D01*
X391070Y188977D01*
X391009Y188877D01*
X390942Y188782D01*
X390876Y188693D01*
X390814Y188616D01*
X390748Y188544D01*
X390687Y188477D01*
X390626Y188416D01*
X390570Y188366D01*
X390520Y188327D01*
X390476Y188288D01*
X390443Y188260D01*
X390415Y188244D01*
X390398Y188233D01*
X390393Y188227D01*
X390293Y188166D01*
X390187Y188116D01*
X390076Y188072D01*
X389960Y188033D01*
X389849Y188005D01*
X389738Y187978D01*
X389627Y187955D01*
X389521Y187939D01*
X389421Y187922D01*
X389333Y187911D01*
X389249Y187905D01*
X389183Y187900D01*
X389122Y187894D01*
X389044D01*
X388894Y187900D01*
X388755Y187911D01*
X388622Y187933D01*
X388494Y187961D01*
X388372Y187994D01*
X388262Y188033D01*
X388161Y188072D01*
X388067Y188111D01*
X387978Y188149D01*
X387906Y188188D01*
X387840Y188227D01*
X387790Y188260D01*
X387745Y188288D01*
X387718Y188311D01*
X387695Y188322D01*
X387690Y188327D01*
X387590Y188416D01*
X387496Y188510D01*
X387412Y188610D01*
X387335Y188710D01*
X387262Y188816D01*
X387201Y188926D01*
X387146Y189026D01*
X387096Y189132D01*
X387052Y189226D01*
X387018Y189315D01*
X386985Y189398D01*
X386963Y189465D01*
X386941Y189526D01*
X386929Y189565D01*
X386918Y189593D01*
Y189604D01*
X387595Y189776D01*
X387623Y189659D01*
X387662Y189548D01*
X387701Y189443D01*
X387740Y189348D01*
X387784Y189260D01*
X387828Y189182D01*
X387873Y189110D01*
X387917Y189043D01*
X387962Y188988D01*
X388001Y188938D01*
X388039Y188893D01*
X388067Y188860D01*
X388095Y188832D01*
X388117Y188816D01*
X388128Y188804D01*
X388134Y188799D01*
X388211Y188743D01*
X388289Y188693D01*
X388367Y188649D01*
X388450Y188610D01*
X388533Y188577D01*
X388611Y188549D01*
X388767Y188510D01*
X388833Y188499D01*
X388900Y188488D01*
X388955Y188482D01*
X389005Y188477D01*
X389044Y188471D01*
X389100D01*
X389188Y188477D01*
X389271Y188482D01*
X389433Y188510D01*
X389582Y188549D01*
X389710Y188594D01*
X389766Y188616D01*
X389815Y188632D01*
X389860Y188655D01*
X389899Y188671D01*
X389932Y188688D01*
X389954Y188699D01*
X389965Y188710D01*
X389971D01*
X390043Y188760D01*
X390110Y188810D01*
X390232Y188926D01*
X390332Y189043D01*
X390415Y189165D01*
X390476Y189271D01*
X390504Y189315D01*
X390526Y189359D01*
X390537Y189393D01*
X390548Y189415D01*
X390559Y189432D01*
Y189437D01*
X390620Y189626D01*
X390670Y189820D01*
X390704Y190014D01*
X390715Y190103D01*
X390726Y190192D01*
X390731Y190275D01*
X390737Y190347D01*
X390742Y190414D01*
Y190470D01*
X390748Y190519D01*
Y190553D01*
Y190575D01*
Y190580D01*
X390742Y190769D01*
X390726Y190947D01*
X390698Y191113D01*
X390687Y191191D01*
X390670Y191263D01*
X390653Y191324D01*
X390642Y191385D01*
X390626Y191435D01*
X390615Y191480D01*
X390609Y191513D01*
X390598Y191541D01*
X390593Y191557D01*
Y191563D01*
X390520Y191735D01*
X390437Y191885D01*
X390348Y192012D01*
X390298Y192068D01*
X390254Y192123D01*
X390210Y192168D01*
X390171Y192207D01*
X390132Y192245D01*
X390104Y192273D01*
X390076Y192295D01*
X390054Y192312D01*
X390043Y192318D01*
X390037Y192323D01*
X389960Y192373D01*
X389882Y192418D01*
X389799Y192456D01*
X389716Y192490D01*
X389549Y192540D01*
X389388Y192578D01*
X389321Y192590D01*
X389255Y192595D01*
X389194Y192601D01*
X389144Y192606D01*
X389100Y192612D01*
X388950D01*
X388861Y192601D01*
X388694Y192573D01*
X388550Y192528D01*
X388489Y192506D01*
X388428Y192484D01*
X388372Y192462D01*
X388328Y192440D01*
X388289Y192418D01*
X388256Y192395D01*
X388228Y192379D01*
X388211Y192368D01*
X388200Y192362D01*
X388195Y192356D01*
X388134Y192306D01*
X388073Y192251D01*
X387973Y192123D01*
X387878Y191985D01*
X387806Y191851D01*
X387751Y191729D01*
X387723Y191679D01*
X387706Y191635D01*
X387690Y191596D01*
X387684Y191563D01*
X387673Y191546D01*
Y191541D01*
X387007Y191696D01*
X387052Y191824D01*
X387102Y191946D01*
X387152Y192062D01*
X387212Y192168D01*
X387268Y192268D01*
X387329Y192356D01*
X387390Y192440D01*
X387451Y192512D01*
X387512Y192578D01*
X387562Y192634D01*
X387612Y192684D01*
X387656Y192723D01*
X387690Y192756D01*
X387718Y192778D01*
X387734Y192789D01*
X387740Y192795D01*
X387840Y192867D01*
X387945Y192923D01*
X388051Y192978D01*
X388161Y193023D01*
X388273Y193061D01*
X388378Y193095D01*
X388483Y193117D01*
X388583Y193139D01*
X388678Y193156D01*
X388761Y193167D01*
X388839Y193178D01*
X388905Y193183D01*
X388961Y193189D01*
X389033D01*
X389161Y193183D01*
D02*
G37*
G36*
X374447D02*
X374570Y193178D01*
X374797Y193139D01*
X374908Y193117D01*
X375008Y193089D01*
X375108Y193061D01*
X375197Y193034D01*
X375274Y193006D01*
X375347Y192978D01*
X375413Y192950D01*
X375463Y192928D01*
X375507Y192906D01*
X375535Y192889D01*
X375557Y192884D01*
X375563Y192878D01*
X375663Y192817D01*
X375763Y192751D01*
X375852Y192678D01*
X375935Y192606D01*
X376013Y192528D01*
X376085Y192456D01*
X376146Y192379D01*
X376207Y192312D01*
X376257Y192240D01*
X376301Y192179D01*
X376340Y192123D01*
X376373Y192073D01*
X376396Y192029D01*
X376412Y192001D01*
X376423Y191979D01*
X376429Y191973D01*
X376484Y191862D01*
X376529Y191740D01*
X376568Y191624D01*
X376606Y191507D01*
X376662Y191269D01*
X376679Y191158D01*
X376695Y191052D01*
X376706Y190952D01*
X376717Y190864D01*
X376723Y190780D01*
X376729Y190708D01*
X376734Y190653D01*
Y190608D01*
Y190586D01*
Y190575D01*
X376729Y190442D01*
X376723Y190308D01*
X376690Y190053D01*
X376673Y189931D01*
X376651Y189820D01*
X376623Y189715D01*
X376601Y189615D01*
X376573Y189526D01*
X376551Y189443D01*
X376529Y189376D01*
X376507Y189315D01*
X376490Y189271D01*
X376479Y189232D01*
X376473Y189210D01*
X376468Y189204D01*
X376412Y189087D01*
X376357Y188977D01*
X376296Y188877D01*
X376229Y188782D01*
X376162Y188693D01*
X376101Y188616D01*
X376035Y188544D01*
X375974Y188477D01*
X375913Y188416D01*
X375857Y188366D01*
X375807Y188327D01*
X375763Y188288D01*
X375730Y188260D01*
X375702Y188244D01*
X375685Y188233D01*
X375680Y188227D01*
X375580Y188166D01*
X375474Y188116D01*
X375363Y188072D01*
X375247Y188033D01*
X375136Y188005D01*
X375025Y187978D01*
X374914Y187955D01*
X374808Y187939D01*
X374708Y187922D01*
X374620Y187911D01*
X374536Y187905D01*
X374470Y187900D01*
X374409Y187894D01*
X374331D01*
X374181Y187900D01*
X374042Y187911D01*
X373909Y187933D01*
X373781Y187961D01*
X373659Y187994D01*
X373548Y188033D01*
X373448Y188072D01*
X373354Y188111D01*
X373265Y188149D01*
X373193Y188188D01*
X373127Y188227D01*
X373077Y188260D01*
X373032Y188288D01*
X373005Y188311D01*
X372982Y188322D01*
X372977Y188327D01*
X372877Y188416D01*
X372782Y188510D01*
X372699Y188610D01*
X372621Y188710D01*
X372549Y188816D01*
X372488Y188926D01*
X372433Y189026D01*
X372383Y189132D01*
X372339Y189226D01*
X372305Y189315D01*
X372272Y189398D01*
X372250Y189465D01*
X372228Y189526D01*
X372216Y189565D01*
X372205Y189593D01*
Y189604D01*
X372882Y189776D01*
X372910Y189659D01*
X372949Y189548D01*
X372988Y189443D01*
X373027Y189348D01*
X373071Y189260D01*
X373115Y189182D01*
X373160Y189110D01*
X373204Y189043D01*
X373249Y188988D01*
X373288Y188938D01*
X373326Y188893D01*
X373354Y188860D01*
X373382Y188832D01*
X373404Y188816D01*
X373415Y188804D01*
X373421Y188799D01*
X373499Y188743D01*
X373576Y188693D01*
X373654Y188649D01*
X373737Y188610D01*
X373820Y188577D01*
X373898Y188549D01*
X374054Y188510D01*
X374120Y188499D01*
X374187Y188488D01*
X374242Y188482D01*
X374292Y188477D01*
X374331Y188471D01*
X374387D01*
X374475Y188477D01*
X374558Y188482D01*
X374720Y188510D01*
X374869Y188549D01*
X374997Y188594D01*
X375052Y188616D01*
X375102Y188632D01*
X375147Y188655D01*
X375186Y188671D01*
X375219Y188688D01*
X375241Y188699D01*
X375252Y188710D01*
X375258D01*
X375330Y188760D01*
X375396Y188810D01*
X375519Y188926D01*
X375619Y189043D01*
X375702Y189165D01*
X375763Y189271D01*
X375791Y189315D01*
X375813Y189359D01*
X375824Y189393D01*
X375835Y189415D01*
X375846Y189432D01*
Y189437D01*
X375907Y189626D01*
X375957Y189820D01*
X375990Y190014D01*
X376002Y190103D01*
X376013Y190192D01*
X376018Y190275D01*
X376024Y190347D01*
X376029Y190414D01*
Y190470D01*
X376035Y190519D01*
Y190553D01*
Y190575D01*
Y190580D01*
X376029Y190769D01*
X376013Y190947D01*
X375985Y191113D01*
X375974Y191191D01*
X375957Y191263D01*
X375940Y191324D01*
X375929Y191385D01*
X375913Y191435D01*
X375902Y191480D01*
X375896Y191513D01*
X375885Y191541D01*
X375879Y191557D01*
Y191563D01*
X375807Y191735D01*
X375724Y191885D01*
X375635Y192012D01*
X375585Y192068D01*
X375541Y192123D01*
X375497Y192168D01*
X375458Y192207D01*
X375419Y192245D01*
X375391Y192273D01*
X375363Y192295D01*
X375341Y192312D01*
X375330Y192318D01*
X375324Y192323D01*
X375247Y192373D01*
X375169Y192418D01*
X375086Y192456D01*
X375003Y192490D01*
X374836Y192540D01*
X374675Y192578D01*
X374608Y192590D01*
X374542Y192595D01*
X374481Y192601D01*
X374431Y192606D01*
X374387Y192612D01*
X374237D01*
X374148Y192601D01*
X373981Y192573D01*
X373837Y192528D01*
X373776Y192506D01*
X373715Y192484D01*
X373659Y192462D01*
X373615Y192440D01*
X373576Y192418D01*
X373543Y192395D01*
X373515Y192379D01*
X373499Y192368D01*
X373487Y192362D01*
X373482Y192356D01*
X373421Y192306D01*
X373360Y192251D01*
X373260Y192123D01*
X373165Y191985D01*
X373093Y191851D01*
X373038Y191729D01*
X373010Y191679D01*
X372993Y191635D01*
X372977Y191596D01*
X372971Y191563D01*
X372960Y191546D01*
Y191541D01*
X372294Y191696D01*
X372339Y191824D01*
X372389Y191946D01*
X372438Y192062D01*
X372499Y192168D01*
X372555Y192268D01*
X372616Y192356D01*
X372677Y192440D01*
X372738Y192512D01*
X372799Y192578D01*
X372849Y192634D01*
X372899Y192684D01*
X372943Y192723D01*
X372977Y192756D01*
X373005Y192778D01*
X373021Y192789D01*
X373027Y192795D01*
X373127Y192867D01*
X373232Y192923D01*
X373338Y192978D01*
X373448Y193023D01*
X373559Y193061D01*
X373665Y193095D01*
X373770Y193117D01*
X373870Y193139D01*
X373965Y193156D01*
X374048Y193167D01*
X374126Y193178D01*
X374192Y193183D01*
X374248Y193189D01*
X374320D01*
X374447Y193183D01*
D02*
G37*
G36*
X427711Y187978D02*
X427034D01*
Y193100D01*
X427711D01*
Y187978D01*
D02*
G37*
G36*
X420951D02*
X420274D01*
Y193100D01*
X420951D01*
Y187978D01*
D02*
G37*
G36*
X419064D02*
X415240D01*
Y188583D01*
X418387D01*
Y190325D01*
X415551D01*
Y190930D01*
X418387D01*
Y192495D01*
X415356D01*
Y193100D01*
X419064D01*
Y187978D01*
D02*
G37*
G36*
X412704Y192495D02*
X411016D01*
Y187978D01*
X410339D01*
Y192495D01*
X408652D01*
Y193100D01*
X412704D01*
Y192495D01*
D02*
G37*
G36*
X402813Y187978D02*
X400866D01*
X400688Y187983D01*
X400527Y187989D01*
X400388Y188005D01*
X400322Y188011D01*
X400266Y188022D01*
X400216Y188027D01*
X400172Y188033D01*
X400133Y188044D01*
X400100Y188050D01*
X400072Y188055D01*
X400055D01*
X400044Y188061D01*
X400038D01*
X399916Y188094D01*
X399805Y188133D01*
X399711Y188177D01*
X399633Y188216D01*
X399567Y188255D01*
X399517Y188283D01*
X399489Y188305D01*
X399478Y188311D01*
X399395Y188383D01*
X399323Y188460D01*
X399256Y188538D01*
X399206Y188616D01*
X399162Y188682D01*
X399128Y188738D01*
X399117Y188760D01*
X399106Y188777D01*
X399101Y188782D01*
Y188788D01*
X399051Y188904D01*
X399012Y189026D01*
X398984Y189137D01*
X398962Y189243D01*
X398951Y189332D01*
Y189365D01*
X398945Y189398D01*
Y189426D01*
Y189443D01*
Y189454D01*
Y189459D01*
Y189543D01*
X398956Y189620D01*
X398984Y189770D01*
X399028Y189903D01*
X399073Y190014D01*
X399095Y190064D01*
X399117Y190109D01*
X399139Y190148D01*
X399162Y190181D01*
X399178Y190203D01*
X399189Y190220D01*
X399195Y190231D01*
X399201Y190236D01*
X399300Y190353D01*
X399417Y190447D01*
X399534Y190531D01*
X399650Y190592D01*
X399750Y190641D01*
X399794Y190658D01*
X399833Y190675D01*
X399867Y190686D01*
X399889Y190697D01*
X399905Y190702D01*
X399911D01*
X399783Y190775D01*
X399678Y190852D01*
X399583Y190930D01*
X399511Y191002D01*
X399450Y191069D01*
X399411Y191119D01*
X399395Y191141D01*
X399384Y191158D01*
X399378Y191163D01*
Y191169D01*
X399317Y191280D01*
X399273Y191385D01*
X399239Y191491D01*
X399217Y191585D01*
X399206Y191668D01*
X399195Y191729D01*
Y191752D01*
Y191768D01*
Y191779D01*
Y191785D01*
X399206Y191918D01*
X399228Y192040D01*
X399261Y192157D01*
X399295Y192256D01*
X399334Y192340D01*
X399350Y192379D01*
X399367Y192406D01*
X399384Y192429D01*
X399389Y192445D01*
X399400Y192456D01*
Y192462D01*
X399484Y192573D01*
X399572Y192673D01*
X399661Y192756D01*
X399750Y192823D01*
X399833Y192873D01*
X399894Y192911D01*
X399922Y192923D01*
X399939Y192934D01*
X399950Y192939D01*
X399955D01*
X400100Y192995D01*
X400249Y193034D01*
X400410Y193061D01*
X400555Y193078D01*
X400627Y193089D01*
X400688Y193095D01*
X400749D01*
X400799Y193100D01*
X402813D01*
Y187978D01*
D02*
G37*
G36*
X397996D02*
X394172D01*
Y188582D01*
X397319D01*
Y190325D01*
X394483D01*
Y190930D01*
X397319D01*
Y192495D01*
X394289D01*
Y193100D01*
X397996D01*
Y187978D01*
D02*
G37*
G36*
X386114D02*
X382911D01*
Y188582D01*
X385437D01*
Y193100D01*
X386114D01*
Y187978D01*
D02*
G37*
G36*
X364496D02*
X363819D01*
Y193100D01*
X364496D01*
Y187978D01*
D02*
G37*
G36*
X351565Y189781D02*
Y189204D01*
X349334D01*
Y187978D01*
X348707D01*
Y189204D01*
X348013D01*
Y189781D01*
X348707D01*
Y193100D01*
X349223D01*
X351565Y189781D01*
D02*
G37*
G36*
X380059Y193183D02*
X380247Y193156D01*
X380425Y193122D01*
X380591Y193078D01*
X380752Y193023D01*
X380897Y192961D01*
X381030Y192895D01*
X381152Y192828D01*
X381263Y192762D01*
X381357Y192695D01*
X381435Y192634D01*
X381507Y192578D01*
X381557Y192534D01*
X381596Y192501D01*
X381624Y192473D01*
X381629Y192467D01*
X381751Y192329D01*
X381857Y192173D01*
X381946Y192018D01*
X382023Y191851D01*
X382090Y191685D01*
X382145Y191518D01*
X382190Y191357D01*
X382229Y191197D01*
X382256Y191047D01*
X382273Y190913D01*
X382290Y190786D01*
X382301Y190680D01*
X382306Y190592D01*
Y190558D01*
X382312Y190525D01*
Y190503D01*
Y190486D01*
Y190475D01*
Y190470D01*
X382306Y190347D01*
X382301Y190220D01*
X382267Y189987D01*
X382245Y189876D01*
X382223Y189770D01*
X382195Y189670D01*
X382168Y189581D01*
X382140Y189493D01*
X382112Y189420D01*
X382090Y189354D01*
X382068Y189298D01*
X382051Y189254D01*
X382034Y189221D01*
X382029Y189199D01*
X382023Y189193D01*
X381962Y189082D01*
X381901Y188977D01*
X381835Y188882D01*
X381762Y188788D01*
X381690Y188705D01*
X381618Y188627D01*
X381552Y188555D01*
X381479Y188488D01*
X381413Y188433D01*
X381352Y188383D01*
X381296Y188338D01*
X381252Y188305D01*
X381213Y188277D01*
X381180Y188255D01*
X381163Y188244D01*
X381157Y188238D01*
X381047Y188177D01*
X380935Y188127D01*
X380824Y188077D01*
X380714Y188039D01*
X380602Y188005D01*
X380497Y187978D01*
X380392Y187955D01*
X380297Y187939D01*
X380203Y187922D01*
X380125Y187911D01*
X380047Y187905D01*
X379986Y187900D01*
X379937Y187894D01*
X379864D01*
X379742Y187900D01*
X379620Y187905D01*
X379387Y187944D01*
X379282Y187966D01*
X379176Y187994D01*
X379082Y188022D01*
X378993Y188050D01*
X378910Y188077D01*
X378838Y188105D01*
X378777Y188133D01*
X378721Y188155D01*
X378677Y188177D01*
X378649Y188194D01*
X378627Y188199D01*
X378621Y188205D01*
X378516Y188266D01*
X378416Y188338D01*
X378321Y188410D01*
X378238Y188482D01*
X378160Y188560D01*
X378083Y188638D01*
X378016Y188716D01*
X377955Y188788D01*
X377905Y188860D01*
X377855Y188926D01*
X377816Y188988D01*
X377783Y189038D01*
X377761Y189076D01*
X377744Y189110D01*
X377733Y189132D01*
X377728Y189137D01*
X377672Y189254D01*
X377622Y189376D01*
X377583Y189493D01*
X377544Y189615D01*
X377511Y189731D01*
X377489Y189848D01*
X377467Y189959D01*
X377450Y190064D01*
X377439Y190164D01*
X377428Y190253D01*
X377422Y190331D01*
X377417Y190397D01*
X377411Y190453D01*
Y190497D01*
Y190519D01*
Y190531D01*
X377417Y190675D01*
X377422Y190808D01*
X377439Y190941D01*
X377456Y191069D01*
X377478Y191185D01*
X377505Y191302D01*
X377533Y191407D01*
X377561Y191502D01*
X377589Y191591D01*
X377617Y191668D01*
X377639Y191740D01*
X377666Y191796D01*
X377683Y191840D01*
X377700Y191874D01*
X377705Y191896D01*
X377711Y191901D01*
X377772Y192012D01*
X377833Y192118D01*
X377905Y192218D01*
X377972Y192306D01*
X378044Y192390D01*
X378116Y192467D01*
X378188Y192540D01*
X378260Y192606D01*
X378327Y192662D01*
X378388Y192712D01*
X378438Y192756D01*
X378488Y192789D01*
X378527Y192817D01*
X378555Y192834D01*
X378577Y192845D01*
X378582Y192850D01*
X378693Y192911D01*
X378799Y192961D01*
X378910Y193006D01*
X379021Y193045D01*
X379132Y193078D01*
X379237Y193106D01*
X379337Y193128D01*
X379437Y193145D01*
X379526Y193161D01*
X379604Y193172D01*
X379676Y193178D01*
X379742Y193183D01*
X379792Y193189D01*
X379859D01*
X380059Y193183D01*
D02*
G37*
G36*
X426390Y183912D02*
Y181747D01*
X425713D01*
Y183912D01*
X423670Y186870D01*
X424459D01*
X425452Y185360D01*
X425568Y185177D01*
X425680Y185005D01*
X425774Y184855D01*
X425818Y184783D01*
X425857Y184722D01*
X425890Y184666D01*
X425924Y184611D01*
X425946Y184566D01*
X425968Y184533D01*
X425990Y184500D01*
X426002Y184478D01*
X426007Y184467D01*
X426013Y184461D01*
X426101Y184622D01*
X426196Y184777D01*
X426285Y184922D01*
X426362Y185049D01*
X426401Y185110D01*
X426434Y185160D01*
X426462Y185210D01*
X426484Y185249D01*
X426507Y185277D01*
X426523Y185305D01*
X426529Y185316D01*
X426534Y185321D01*
X427544Y186870D01*
X428366D01*
X426390Y183912D01*
D02*
G37*
G36*
X408369Y181747D02*
X407714D01*
Y186109D01*
X406238Y181747D01*
X405627D01*
X404129Y186037D01*
Y181747D01*
X403474D01*
Y186870D01*
X404390D01*
X405622Y183307D01*
X405655Y183207D01*
X405688Y183118D01*
X405716Y183029D01*
X405744Y182951D01*
X405766Y182874D01*
X405788Y182807D01*
X405811Y182746D01*
X405827Y182691D01*
X405844Y182646D01*
X405855Y182602D01*
X405866Y182569D01*
X405877Y182535D01*
X405883Y182513D01*
X405888Y182496D01*
X405894Y182491D01*
Y182485D01*
X405910Y182535D01*
X405927Y182591D01*
X405966Y182707D01*
X406005Y182835D01*
X406044Y182957D01*
X406082Y183068D01*
X406099Y183118D01*
X406110Y183157D01*
X406121Y183190D01*
X406133Y183218D01*
X406138Y183235D01*
Y183240D01*
X407353Y186870D01*
X408369D01*
Y181747D01*
D02*
G37*
G36*
X433000D02*
X431152D01*
X430985Y181753D01*
X430830Y181758D01*
X430691Y181775D01*
X430569Y181791D01*
X430519Y181797D01*
X430475Y181803D01*
X430430Y181814D01*
X430397Y181819D01*
X430369Y181825D01*
X430353D01*
X430342Y181830D01*
X430336D01*
X430208Y181869D01*
X430086Y181908D01*
X429981Y181952D01*
X429892Y181991D01*
X429820Y182030D01*
X429764Y182058D01*
X429731Y182080D01*
X429726Y182086D01*
X429720D01*
X429626Y182158D01*
X429537Y182230D01*
X429459Y182308D01*
X429392Y182385D01*
X429331Y182452D01*
X429293Y182502D01*
X429276Y182524D01*
X429265Y182541D01*
X429254Y182546D01*
Y182552D01*
X429176Y182668D01*
X429109Y182791D01*
X429048Y182918D01*
X428998Y183035D01*
X428960Y183140D01*
X428943Y183185D01*
X428926Y183223D01*
X428921Y183251D01*
X428910Y183273D01*
X428904Y183290D01*
Y183296D01*
X428860Y183473D01*
X428826Y183651D01*
X428799Y183823D01*
X428782Y183984D01*
X428777Y184056D01*
X428771Y184123D01*
Y184184D01*
X428765Y184233D01*
Y184278D01*
Y184306D01*
Y184328D01*
Y184333D01*
X428777Y184583D01*
X428782Y184700D01*
X428799Y184811D01*
X428815Y184916D01*
X428832Y185016D01*
X428849Y185110D01*
X428865Y185199D01*
X428887Y185277D01*
X428904Y185344D01*
X428921Y185405D01*
X428937Y185454D01*
X428954Y185493D01*
X428960Y185527D01*
X428971Y185543D01*
Y185549D01*
X429054Y185738D01*
X429148Y185910D01*
X429198Y185987D01*
X429248Y186059D01*
X429298Y186126D01*
X429348Y186187D01*
X429392Y186243D01*
X429437Y186287D01*
X429476Y186331D01*
X429509Y186365D01*
X429537Y186392D01*
X429559Y186409D01*
X429570Y186420D01*
X429576Y186426D01*
X429698Y186520D01*
X429825Y186598D01*
X429948Y186659D01*
X430064Y186709D01*
X430169Y186748D01*
X430214Y186759D01*
X430253Y186770D01*
X430280Y186781D01*
X430303Y186786D01*
X430319Y186792D01*
X430325D01*
X430386Y186803D01*
X430452Y186820D01*
X430602Y186836D01*
X430752Y186853D01*
X430902Y186859D01*
X430969Y186864D01*
X431035D01*
X431091Y186870D01*
X433000D01*
Y181747D01*
D02*
G37*
G36*
X423043D02*
X419219D01*
Y182352D01*
X422366D01*
Y184095D01*
X419530D01*
Y184700D01*
X422366D01*
Y186265D01*
X419336D01*
Y186870D01*
X423043D01*
Y181747D01*
D02*
G37*
G36*
X418276D02*
X417599D01*
Y184023D01*
X416727D01*
X416650Y184017D01*
X416583Y184011D01*
X416528D01*
X416489Y184006D01*
X416461Y184000D01*
X416444Y183995D01*
X416439D01*
X416378Y183978D01*
X416322Y183956D01*
X416272Y183934D01*
X416222Y183912D01*
X416184Y183889D01*
X416156Y183873D01*
X416134Y183862D01*
X416128Y183856D01*
X416073Y183817D01*
X416011Y183762D01*
X415950Y183706D01*
X415901Y183651D01*
X415850Y183601D01*
X415817Y183556D01*
X415795Y183529D01*
X415784Y183523D01*
Y183518D01*
X415706Y183418D01*
X415623Y183307D01*
X415545Y183190D01*
X415468Y183073D01*
X415401Y182974D01*
X415368Y182929D01*
X415345Y182890D01*
X415323Y182857D01*
X415307Y182835D01*
X415301Y182818D01*
X415296Y182813D01*
X414618Y181747D01*
X413769D01*
X414657Y183140D01*
X414757Y183284D01*
X414857Y183418D01*
X414951Y183534D01*
X415035Y183634D01*
X415107Y183712D01*
X415140Y183745D01*
X415168Y183773D01*
X415190Y183795D01*
X415207Y183812D01*
X415212Y183817D01*
X415218Y183823D01*
X415273Y183867D01*
X415340Y183917D01*
X415407Y183956D01*
X415473Y183995D01*
X415534Y184028D01*
X415584Y184056D01*
X415617Y184072D01*
X415623Y184078D01*
X415628D01*
X415495Y184100D01*
X415368Y184128D01*
X415251Y184161D01*
X415146Y184195D01*
X415046Y184233D01*
X414957Y184272D01*
X414879Y184311D01*
X414807Y184350D01*
X414741Y184389D01*
X414685Y184428D01*
X414641Y184461D01*
X414602Y184489D01*
X414574Y184517D01*
X414552Y184533D01*
X414541Y184544D01*
X414535Y184550D01*
X414474Y184622D01*
X414419Y184694D01*
X414369Y184772D01*
X414330Y184850D01*
X414296Y184927D01*
X414269Y185005D01*
X414224Y185149D01*
X414208Y185216D01*
X414197Y185277D01*
X414191Y185332D01*
X414185Y185382D01*
X414180Y185416D01*
Y185449D01*
Y185466D01*
Y185471D01*
X414191Y185626D01*
X414213Y185771D01*
X414247Y185898D01*
X414285Y186015D01*
X414308Y186065D01*
X414330Y186109D01*
X414347Y186148D01*
X414363Y186181D01*
X414374Y186209D01*
X414385Y186226D01*
X414396Y186237D01*
Y186243D01*
X414480Y186365D01*
X414574Y186465D01*
X414668Y186553D01*
X414763Y186620D01*
X414840Y186670D01*
X414907Y186703D01*
X414935Y186714D01*
X414951Y186725D01*
X414962Y186731D01*
X414968D01*
X415040Y186753D01*
X415112Y186775D01*
X415279Y186809D01*
X415451Y186836D01*
X415617Y186853D01*
X415701Y186859D01*
X415773Y186864D01*
X415834D01*
X415895Y186870D01*
X418276D01*
Y181747D01*
D02*
G37*
G36*
X413148D02*
X411200D01*
X411022Y181753D01*
X410861Y181758D01*
X410722Y181775D01*
X410656Y181780D01*
X410600Y181791D01*
X410550Y181797D01*
X410506Y181803D01*
X410467Y181814D01*
X410434Y181819D01*
X410406Y181825D01*
X410389D01*
X410378Y181830D01*
X410373D01*
X410251Y181864D01*
X410140Y181903D01*
X410045Y181947D01*
X409968Y181986D01*
X409901Y182025D01*
X409851Y182052D01*
X409823Y182074D01*
X409812Y182080D01*
X409729Y182152D01*
X409657Y182230D01*
X409590Y182308D01*
X409540Y182385D01*
X409496Y182452D01*
X409462Y182507D01*
X409451Y182530D01*
X409440Y182546D01*
X409435Y182552D01*
Y182557D01*
X409385Y182674D01*
X409346Y182796D01*
X409318Y182907D01*
X409296Y183012D01*
X409285Y183101D01*
Y183135D01*
X409279Y183168D01*
Y183196D01*
Y183212D01*
Y183223D01*
Y183229D01*
Y183312D01*
X409290Y183390D01*
X409318Y183540D01*
X409363Y183673D01*
X409407Y183784D01*
X409429Y183834D01*
X409451Y183878D01*
X409474Y183917D01*
X409496Y183950D01*
X409512Y183973D01*
X409523Y183989D01*
X409529Y184000D01*
X409535Y184006D01*
X409634Y184123D01*
X409751Y184217D01*
X409868Y184300D01*
X409984Y184361D01*
X410084Y184411D01*
X410128Y184428D01*
X410167Y184444D01*
X410201Y184456D01*
X410223Y184467D01*
X410240Y184472D01*
X410245D01*
X410117Y184544D01*
X410012Y184622D01*
X409918Y184700D01*
X409845Y184772D01*
X409784Y184838D01*
X409746Y184888D01*
X409729Y184911D01*
X409718Y184927D01*
X409712Y184933D01*
Y184938D01*
X409651Y185049D01*
X409607Y185155D01*
X409574Y185260D01*
X409551Y185355D01*
X409540Y185438D01*
X409529Y185499D01*
Y185521D01*
Y185538D01*
Y185549D01*
Y185554D01*
X409540Y185688D01*
X409562Y185810D01*
X409596Y185926D01*
X409629Y186026D01*
X409668Y186109D01*
X409685Y186148D01*
X409701Y186176D01*
X409718Y186198D01*
X409723Y186215D01*
X409734Y186226D01*
Y186232D01*
X409818Y186343D01*
X409906Y186442D01*
X409995Y186526D01*
X410084Y186592D01*
X410167Y186642D01*
X410228Y186681D01*
X410256Y186692D01*
X410273Y186703D01*
X410284Y186709D01*
X410289D01*
X410434Y186764D01*
X410584Y186803D01*
X410744Y186831D01*
X410889Y186847D01*
X410961Y186859D01*
X411022Y186864D01*
X411083D01*
X411133Y186870D01*
X413148D01*
Y181747D01*
D02*
G37*
G36*
X417843Y179990D02*
X417216D01*
Y180706D01*
X417843D01*
Y179990D01*
D02*
G37*
G36*
X404928Y180717D02*
X405056Y180706D01*
X405172Y180689D01*
X405283Y180661D01*
X405389Y180634D01*
X405483Y180601D01*
X405572Y180567D01*
X405650Y180534D01*
X405722Y180495D01*
X405783Y180462D01*
X405838Y180428D01*
X405883Y180401D01*
X405916Y180373D01*
X405938Y180356D01*
X405955Y180345D01*
X405960Y180340D01*
X406038Y180268D01*
X406105Y180184D01*
X406166Y180101D01*
X406221Y180007D01*
X406266Y179918D01*
X406310Y179829D01*
X406343Y179735D01*
X406371Y179651D01*
X406399Y179568D01*
X406416Y179490D01*
X406432Y179418D01*
X406443Y179357D01*
X406449Y179307D01*
X406454Y179274D01*
X406460Y179252D01*
Y179241D01*
X405816Y179174D01*
X405811Y179263D01*
X405805Y179346D01*
X405772Y179490D01*
X405727Y179624D01*
X405705Y179679D01*
X405677Y179729D01*
X405655Y179773D01*
X405627Y179812D01*
X405605Y179846D01*
X405588Y179873D01*
X405566Y179896D01*
X405555Y179912D01*
X405550Y179918D01*
X405544Y179923D01*
X405489Y179973D01*
X405433Y180018D01*
X405372Y180051D01*
X405311Y180084D01*
X405189Y180134D01*
X405072Y180168D01*
X404973Y180184D01*
X404928Y180195D01*
X404889D01*
X404856Y180201D01*
X404734D01*
X404656Y180190D01*
X404517Y180162D01*
X404401Y180118D01*
X404295Y180073D01*
X404218Y180023D01*
X404184Y180001D01*
X404157Y179979D01*
X404135Y179962D01*
X404118Y179951D01*
X404112Y179946D01*
X404107Y179940D01*
X404057Y179890D01*
X404018Y179840D01*
X403979Y179790D01*
X403951Y179735D01*
X403901Y179629D01*
X403868Y179529D01*
X403851Y179446D01*
X403840Y179407D01*
Y179374D01*
X403835Y179352D01*
Y179330D01*
Y179318D01*
Y179313D01*
X403840Y179246D01*
X403846Y179180D01*
X403879Y179046D01*
X403929Y178919D01*
X403985Y178802D01*
X404040Y178702D01*
X404062Y178664D01*
X404090Y178625D01*
X404107Y178597D01*
X404123Y178575D01*
X404129Y178564D01*
X404135Y178558D01*
X404195Y178480D01*
X404268Y178397D01*
X404351Y178308D01*
X404440Y178219D01*
X404623Y178036D01*
X404811Y177864D01*
X404900Y177781D01*
X404989Y177709D01*
X405067Y177642D01*
X405133Y177587D01*
X405189Y177537D01*
X405228Y177504D01*
X405256Y177476D01*
X405267Y177470D01*
X405367Y177387D01*
X405455Y177309D01*
X405544Y177237D01*
X405622Y177165D01*
X405699Y177098D01*
X405766Y177032D01*
X405827Y176976D01*
X405883Y176921D01*
X405933Y176871D01*
X405971Y176826D01*
X406010Y176788D01*
X406038Y176760D01*
X406066Y176732D01*
X406082Y176716D01*
X406088Y176704D01*
X406094Y176699D01*
X406193Y176577D01*
X406277Y176455D01*
X406349Y176338D01*
X406404Y176233D01*
X406449Y176144D01*
X406465Y176105D01*
X406482Y176077D01*
X406493Y176049D01*
X406499Y176033D01*
X406504Y176022D01*
Y176016D01*
X406532Y175938D01*
X406549Y175861D01*
X406565Y175789D01*
X406571Y175722D01*
X406576Y175666D01*
Y175622D01*
Y175594D01*
Y175583D01*
X403185Y175583D01*
Y176188D01*
X405711Y176188D01*
X405622Y176310D01*
X405577Y176366D01*
X405533Y176416D01*
X405494Y176460D01*
X405466Y176494D01*
X405444Y176516D01*
X405439Y176521D01*
X405405Y176555D01*
X405361Y176599D01*
X405311Y176643D01*
X405256Y176693D01*
X405139Y176804D01*
X405017Y176910D01*
X404900Y177010D01*
X404850Y177054D01*
X404801Y177093D01*
X404767Y177126D01*
X404734Y177148D01*
X404717Y177165D01*
X404712Y177171D01*
X404590Y177276D01*
X404473Y177376D01*
X404367Y177465D01*
X404273Y177553D01*
X404184Y177631D01*
X404107Y177709D01*
X404035Y177776D01*
X403968Y177837D01*
X403912Y177886D01*
X403868Y177936D01*
X403829Y177975D01*
X403796Y178009D01*
X403774Y178036D01*
X403752Y178053D01*
X403746Y178064D01*
X403740Y178070D01*
X403635Y178192D01*
X403552Y178303D01*
X403480Y178408D01*
X403418Y178503D01*
X403374Y178580D01*
X403341Y178641D01*
X403330Y178664D01*
X403324Y178680D01*
X403319Y178686D01*
Y178691D01*
X403274Y178802D01*
X403246Y178913D01*
X403224Y179013D01*
X403208Y179107D01*
X403196Y179185D01*
X403191Y179246D01*
Y179268D01*
Y179285D01*
Y179291D01*
Y179296D01*
X403196Y179407D01*
X403208Y179513D01*
X403230Y179613D01*
X403258Y179712D01*
X403291Y179801D01*
X403330Y179885D01*
X403369Y179962D01*
X403407Y180029D01*
X403446Y180095D01*
X403485Y180151D01*
X403524Y180201D01*
X403557Y180240D01*
X403585Y180267D01*
X403607Y180295D01*
X403618Y180306D01*
X403624Y180312D01*
X403707Y180384D01*
X403796Y180445D01*
X403890Y180500D01*
X403990Y180551D01*
X404084Y180589D01*
X404184Y180623D01*
X404279Y180650D01*
X404373Y180673D01*
X404456Y180689D01*
X404540Y180700D01*
X404612Y180711D01*
X404673Y180717D01*
X404723Y180723D01*
X404795D01*
X404928Y180717D01*
D02*
G37*
G36*
X392996Y180717D02*
X393123Y180706D01*
X393240Y180689D01*
X393351Y180661D01*
X393456Y180634D01*
X393551Y180600D01*
X393639Y180567D01*
X393717Y180534D01*
X393789Y180495D01*
X393850Y180462D01*
X393906Y180428D01*
X393950Y180401D01*
X393984Y180373D01*
X394006Y180356D01*
X394022Y180345D01*
X394028Y180340D01*
X394106Y180267D01*
X394172Y180184D01*
X394233Y180101D01*
X394289Y180007D01*
X394333Y179918D01*
X394378Y179829D01*
X394411Y179735D01*
X394439Y179651D01*
X394466Y179568D01*
X394483Y179490D01*
X394500Y179418D01*
X394511Y179357D01*
X394516Y179307D01*
X394522Y179274D01*
X394527Y179252D01*
Y179241D01*
X393884Y179174D01*
X393878Y179263D01*
X393872Y179346D01*
X393839Y179490D01*
X393795Y179624D01*
X393773Y179679D01*
X393745Y179729D01*
X393723Y179773D01*
X393695Y179812D01*
X393673Y179846D01*
X393656Y179873D01*
X393634Y179896D01*
X393623Y179912D01*
X393617Y179918D01*
X393612Y179923D01*
X393556Y179973D01*
X393501Y180018D01*
X393440Y180051D01*
X393378Y180084D01*
X393256Y180134D01*
X393140Y180167D01*
X393040Y180184D01*
X392996Y180195D01*
X392957D01*
X392923Y180201D01*
X392801D01*
X392724Y180190D01*
X392585Y180162D01*
X392468Y180118D01*
X392363Y180073D01*
X392285Y180023D01*
X392252Y180001D01*
X392224Y179979D01*
X392202Y179962D01*
X392185Y179951D01*
X392180Y179946D01*
X392174Y179940D01*
X392124Y179890D01*
X392085Y179840D01*
X392046Y179790D01*
X392019Y179735D01*
X391969Y179629D01*
X391936Y179529D01*
X391919Y179446D01*
X391908Y179407D01*
Y179374D01*
X391902Y179352D01*
Y179330D01*
Y179318D01*
Y179313D01*
X391908Y179246D01*
X391913Y179180D01*
X391947Y179046D01*
X391997Y178919D01*
X392052Y178802D01*
X392108Y178702D01*
X392130Y178664D01*
X392158Y178625D01*
X392174Y178597D01*
X392191Y178575D01*
X392196Y178564D01*
X392202Y178558D01*
X392263Y178480D01*
X392335Y178397D01*
X392418Y178308D01*
X392507Y178219D01*
X392690Y178036D01*
X392879Y177864D01*
X392968Y177781D01*
X393057Y177709D01*
X393134Y177642D01*
X393201Y177587D01*
X393256Y177537D01*
X393295Y177504D01*
X393323Y177476D01*
X393334Y177470D01*
X393434Y177387D01*
X393523Y177309D01*
X393612Y177237D01*
X393689Y177165D01*
X393767Y177098D01*
X393834Y177032D01*
X393895Y176976D01*
X393950Y176921D01*
X394000Y176871D01*
X394039Y176826D01*
X394078Y176788D01*
X394106Y176760D01*
X394133Y176732D01*
X394150Y176715D01*
X394156Y176704D01*
X394161Y176699D01*
X394261Y176577D01*
X394344Y176455D01*
X394416Y176338D01*
X394472Y176233D01*
X394516Y176144D01*
X394533Y176105D01*
X394550Y176077D01*
X394561Y176049D01*
X394566Y176033D01*
X394572Y176022D01*
Y176016D01*
X394600Y175938D01*
X394616Y175861D01*
X394633Y175789D01*
X394638Y175722D01*
X394644Y175666D01*
Y175622D01*
Y175594D01*
Y175583D01*
X391253D01*
Y176188D01*
X393778D01*
X393689Y176310D01*
X393645Y176366D01*
X393601Y176416D01*
X393562Y176460D01*
X393534Y176493D01*
X393512Y176516D01*
X393506Y176521D01*
X393473Y176555D01*
X393428Y176599D01*
X393378Y176643D01*
X393323Y176693D01*
X393207Y176804D01*
X393084Y176910D01*
X392968Y177010D01*
X392918Y177054D01*
X392868Y177093D01*
X392835Y177126D01*
X392801Y177148D01*
X392785Y177165D01*
X392779Y177171D01*
X392657Y177276D01*
X392541Y177376D01*
X392435Y177465D01*
X392341Y177553D01*
X392252Y177631D01*
X392174Y177709D01*
X392102Y177776D01*
X392035Y177837D01*
X391980Y177886D01*
X391936Y177936D01*
X391897Y177975D01*
X391863Y178009D01*
X391841Y178036D01*
X391819Y178053D01*
X391813Y178064D01*
X391808Y178070D01*
X391702Y178192D01*
X391619Y178303D01*
X391547Y178408D01*
X391486Y178503D01*
X391442Y178580D01*
X391408Y178641D01*
X391397Y178664D01*
X391392Y178680D01*
X391386Y178686D01*
Y178691D01*
X391342Y178802D01*
X391314Y178913D01*
X391292Y179013D01*
X391275Y179107D01*
X391264Y179185D01*
X391258Y179246D01*
Y179268D01*
Y179285D01*
Y179291D01*
Y179296D01*
X391264Y179407D01*
X391275Y179513D01*
X391297Y179613D01*
X391325Y179712D01*
X391358Y179801D01*
X391397Y179885D01*
X391436Y179962D01*
X391475Y180029D01*
X391514Y180095D01*
X391553Y180151D01*
X391591Y180201D01*
X391625Y180240D01*
X391652Y180267D01*
X391675Y180295D01*
X391686Y180306D01*
X391691Y180312D01*
X391775Y180384D01*
X391863Y180445D01*
X391958Y180500D01*
X392058Y180551D01*
X392152Y180589D01*
X392252Y180623D01*
X392346Y180650D01*
X392441Y180673D01*
X392524Y180689D01*
X392607Y180700D01*
X392679Y180711D01*
X392740Y180717D01*
X392790Y180722D01*
X392862D01*
X392996Y180717D01*
D02*
G37*
G36*
X398634Y180595D02*
X398718Y180473D01*
X398812Y180356D01*
X398906Y180256D01*
X398990Y180162D01*
X399028Y180129D01*
X399056Y180095D01*
X399084Y180068D01*
X399106Y180051D01*
X399117Y180040D01*
X399123Y180034D01*
X399273Y179907D01*
X399434Y179796D01*
X399589Y179690D01*
X399733Y179601D01*
X399794Y179568D01*
X399855Y179535D01*
X399911Y179501D01*
X399955Y179479D01*
X399994Y179463D01*
X400022Y179446D01*
X400038Y179440D01*
X400044Y179435D01*
Y178830D01*
X399933Y178874D01*
X399817Y178924D01*
X399706Y178980D01*
X399606Y179030D01*
X399517Y179080D01*
X399478Y179096D01*
X399445Y179119D01*
X399417Y179130D01*
X399400Y179141D01*
X399389Y179152D01*
X399384D01*
X399251Y179235D01*
X399134Y179313D01*
X399028Y179385D01*
X398945Y179452D01*
X398873Y179507D01*
X398823Y179546D01*
X398795Y179574D01*
X398784Y179585D01*
Y175583D01*
X398157D01*
Y180722D01*
X398562D01*
X398634Y180595D01*
D02*
G37*
G36*
X431019Y175583D02*
X430319D01*
X428321Y180706D01*
X429010D01*
X430392Y176982D01*
X430447Y176826D01*
X430503Y176677D01*
X430552Y176532D01*
X430591Y176405D01*
X430608Y176349D01*
X430625Y176299D01*
X430636Y176255D01*
X430647Y176216D01*
X430658Y176188D01*
X430663Y176160D01*
X430669Y176149D01*
Y176144D01*
X430713Y176294D01*
X430758Y176444D01*
X430802Y176582D01*
X430841Y176710D01*
X430863Y176771D01*
X430880Y176821D01*
X430897Y176865D01*
X430908Y176904D01*
X430919Y176937D01*
X430930Y176960D01*
X430935Y176976D01*
Y176982D01*
X432267Y180706D01*
X433006D01*
X431019Y175583D01*
D02*
G37*
G36*
X426407Y179374D02*
X426545Y179357D01*
X426667Y179330D01*
X426790Y179296D01*
X426901Y179257D01*
X427006Y179213D01*
X427100Y179169D01*
X427184Y179119D01*
X427261Y179069D01*
X427328Y179024D01*
X427389Y178980D01*
X427433Y178941D01*
X427472Y178908D01*
X427500Y178880D01*
X427517Y178863D01*
X427522Y178858D01*
X427605Y178758D01*
X427677Y178647D01*
X427744Y178530D01*
X427800Y178414D01*
X427844Y178292D01*
X427883Y178170D01*
X427916Y178053D01*
X427938Y177936D01*
X427961Y177831D01*
X427972Y177726D01*
X427983Y177637D01*
X427994Y177559D01*
Y177492D01*
X427999Y177443D01*
Y177415D01*
Y177404D01*
X427994Y177237D01*
X427977Y177082D01*
X427955Y176937D01*
X427927Y176804D01*
X427888Y176677D01*
X427850Y176560D01*
X427805Y176455D01*
X427761Y176360D01*
X427722Y176277D01*
X427677Y176205D01*
X427639Y176144D01*
X427600Y176094D01*
X427572Y176049D01*
X427550Y176022D01*
X427533Y176005D01*
X427528Y175999D01*
X427433Y175911D01*
X427333Y175833D01*
X427234Y175766D01*
X427122Y175711D01*
X427017Y175661D01*
X426906Y175622D01*
X426801Y175589D01*
X426701Y175561D01*
X426606Y175544D01*
X426518Y175528D01*
X426440Y175517D01*
X426368Y175505D01*
X426312D01*
X426268Y175500D01*
X426235D01*
X426118Y175505D01*
X426002Y175511D01*
X425896Y175528D01*
X425796Y175550D01*
X425702Y175572D01*
X425619Y175600D01*
X425535Y175628D01*
X425463Y175655D01*
X425396Y175683D01*
X425341Y175711D01*
X425291Y175739D01*
X425247Y175761D01*
X425219Y175783D01*
X425191Y175800D01*
X425180Y175805D01*
X425175Y175811D01*
X425097Y175872D01*
X425030Y175938D01*
X424969Y176011D01*
X424908Y176083D01*
X424808Y176233D01*
X424730Y176371D01*
X424703Y176438D01*
X424675Y176499D01*
X424653Y176555D01*
X424636Y176604D01*
X424619Y176643D01*
X424608Y176671D01*
X424603Y176693D01*
Y176699D01*
X425258Y176782D01*
X425313Y176643D01*
X425380Y176521D01*
X425447Y176416D01*
X425507Y176338D01*
X425563Y176271D01*
X425607Y176227D01*
X425635Y176205D01*
X425641Y176194D01*
X425646D01*
X425741Y176133D01*
X425841Y176094D01*
X425940Y176060D01*
X426029Y176038D01*
X426112Y176027D01*
X426179Y176022D01*
X426201Y176016D01*
X426235D01*
X426318Y176022D01*
X426401Y176033D01*
X426479Y176044D01*
X426551Y176066D01*
X426684Y176116D01*
X426795Y176177D01*
X426845Y176205D01*
X426890Y176238D01*
X426923Y176266D01*
X426956Y176288D01*
X426978Y176310D01*
X426995Y176327D01*
X427006Y176332D01*
X427011Y176338D01*
X427067Y176405D01*
X427117Y176471D01*
X427156Y176549D01*
X427195Y176621D01*
X427256Y176782D01*
X427300Y176932D01*
X427317Y177004D01*
X427328Y177071D01*
X427339Y177126D01*
X427345Y177182D01*
X427350Y177220D01*
X427356Y177254D01*
Y177276D01*
Y177281D01*
X424586D01*
X424581Y177354D01*
Y177409D01*
Y177437D01*
Y177448D01*
X424586Y177615D01*
X424603Y177770D01*
X424625Y177920D01*
X424653Y178059D01*
X424692Y178186D01*
X424730Y178303D01*
X424775Y178408D01*
X424814Y178503D01*
X424858Y178586D01*
X424902Y178664D01*
X424941Y178725D01*
X424980Y178774D01*
X425008Y178819D01*
X425030Y178847D01*
X425047Y178863D01*
X425052Y178869D01*
X425141Y178958D01*
X425241Y179035D01*
X425341Y179107D01*
X425441Y179163D01*
X425541Y179213D01*
X425646Y179257D01*
X425741Y179291D01*
X425835Y179318D01*
X425924Y179335D01*
X426007Y179352D01*
X426079Y179363D01*
X426146Y179374D01*
X426196D01*
X426235Y179379D01*
X426268D01*
X426407Y179374D01*
D02*
G37*
G36*
X422527D02*
X422605Y179357D01*
X422672Y179341D01*
X422732Y179318D01*
X422777Y179291D01*
X422816Y179274D01*
X422838Y179257D01*
X422849Y179252D01*
X422882Y179224D01*
X422921Y179191D01*
X422988Y179119D01*
X423054Y179030D01*
X423115Y178941D01*
X423171Y178863D01*
X423210Y178791D01*
X423226Y178769D01*
X423238Y178747D01*
X423249Y178736D01*
Y179296D01*
X423815D01*
Y175583D01*
X423188D01*
Y177526D01*
X423182Y177670D01*
X423171Y177809D01*
X423154Y177931D01*
X423138Y178042D01*
X423121Y178131D01*
X423110Y178170D01*
X423104Y178203D01*
X423099Y178225D01*
X423093Y178242D01*
X423088Y178253D01*
Y178258D01*
X423054Y178336D01*
X423021Y178408D01*
X422982Y178464D01*
X422943Y178514D01*
X422910Y178552D01*
X422882Y178580D01*
X422860Y178597D01*
X422855Y178602D01*
X422788Y178647D01*
X422727Y178675D01*
X422666Y178697D01*
X422605Y178713D01*
X422555Y178725D01*
X422516Y178730D01*
X422483D01*
X422394Y178725D01*
X422311Y178708D01*
X422233Y178686D01*
X422166Y178664D01*
X422105Y178636D01*
X422061Y178614D01*
X422033Y178597D01*
X422022Y178591D01*
X421800Y179174D01*
X421922Y179241D01*
X422044Y179291D01*
X422150Y179330D01*
X422250Y179352D01*
X422333Y179368D01*
X422366Y179374D01*
X422394D01*
X422416Y179379D01*
X422449D01*
X422527Y179374D01*
D02*
G37*
G36*
X417843Y175583D02*
X417216D01*
Y179296D01*
X417843D01*
Y175583D01*
D02*
G37*
G36*
X410678Y179374D02*
X410811Y179352D01*
X410933Y179324D01*
X411050Y179285D01*
X411155Y179235D01*
X411249Y179185D01*
X411338Y179130D01*
X411416Y179074D01*
X411488Y179013D01*
X411549Y178958D01*
X411599Y178908D01*
X411638Y178858D01*
X411671Y178819D01*
X411699Y178791D01*
X411710Y178769D01*
X411716Y178763D01*
Y179296D01*
X412282D01*
Y175583D01*
X411655D01*
Y177609D01*
X411649Y177737D01*
X411644Y177859D01*
X411627Y177964D01*
X411610Y178064D01*
X411588Y178153D01*
X411566Y178231D01*
X411538Y178303D01*
X411510Y178364D01*
X411483Y178419D01*
X411455Y178464D01*
X411433Y178497D01*
X411411Y178530D01*
X411394Y178552D01*
X411377Y178569D01*
X411372Y178575D01*
X411366Y178580D01*
X411311Y178625D01*
X411249Y178664D01*
X411133Y178730D01*
X411016Y178774D01*
X410911Y178802D01*
X410817Y178824D01*
X410772Y178830D01*
X410739D01*
X410711Y178835D01*
X410672D01*
X410578Y178830D01*
X410495Y178819D01*
X410423Y178797D01*
X410356Y178780D01*
X410306Y178758D01*
X410267Y178736D01*
X410240Y178725D01*
X410234Y178719D01*
X410167Y178675D01*
X410112Y178625D01*
X410067Y178575D01*
X410034Y178525D01*
X410006Y178480D01*
X409990Y178447D01*
X409979Y178425D01*
X409973Y178414D01*
X409945Y178336D01*
X409929Y178247D01*
X409912Y178153D01*
X409906Y178059D01*
X409901Y177975D01*
X409895Y177936D01*
Y177903D01*
Y177881D01*
Y177859D01*
Y177848D01*
Y177842D01*
Y175583D01*
X409268D01*
Y177864D01*
Y177942D01*
Y178014D01*
X409274Y178086D01*
Y178147D01*
X409279Y178203D01*
Y178253D01*
X409285Y178336D01*
X409296Y178397D01*
X409302Y178442D01*
X409307Y178469D01*
Y178475D01*
X409329Y178575D01*
X409363Y178664D01*
X409390Y178741D01*
X409424Y178808D01*
X409457Y178863D01*
X409479Y178908D01*
X409496Y178930D01*
X409501Y178941D01*
X409557Y179013D01*
X409623Y179074D01*
X409696Y179124D01*
X409762Y179174D01*
X409829Y179207D01*
X409879Y179235D01*
X409912Y179252D01*
X409918Y179257D01*
X409923D01*
X410029Y179296D01*
X410134Y179330D01*
X410240Y179352D01*
X410334Y179363D01*
X410417Y179374D01*
X410450D01*
X410484Y179379D01*
X410539D01*
X410678Y179374D01*
D02*
G37*
G36*
X402159Y175583D02*
X401443D01*
Y176299D01*
X402159D01*
Y175583D01*
D02*
G37*
G36*
X396192D02*
X395477D01*
Y176299D01*
X396192D01*
Y175583D01*
D02*
G37*
G36*
X420313Y179374D02*
X420413Y179368D01*
X420507Y179357D01*
X420585Y179341D01*
X420657Y179324D01*
X420707Y179313D01*
X420740Y179307D01*
X420746Y179302D01*
X420751D01*
X420840Y179274D01*
X420923Y179241D01*
X420990Y179207D01*
X421045Y179180D01*
X421090Y179157D01*
X421123Y179135D01*
X421145Y179124D01*
X421151Y179119D01*
X421223Y179063D01*
X421284Y179008D01*
X421340Y178947D01*
X421378Y178891D01*
X421417Y178841D01*
X421439Y178802D01*
X421456Y178780D01*
X421461Y178769D01*
X421500Y178691D01*
X421528Y178608D01*
X421545Y178530D01*
X421556Y178458D01*
X421567Y178397D01*
X421572Y178353D01*
Y178319D01*
Y178314D01*
Y178308D01*
X421567Y178208D01*
X421550Y178114D01*
X421528Y178031D01*
X421506Y177959D01*
X421484Y177898D01*
X421461Y177848D01*
X421445Y177820D01*
X421439Y177809D01*
X421384Y177731D01*
X421317Y177659D01*
X421251Y177603D01*
X421184Y177553D01*
X421123Y177509D01*
X421079Y177481D01*
X421045Y177465D01*
X421040Y177459D01*
X421034D01*
X420979Y177437D01*
X420912Y177409D01*
X420846Y177381D01*
X420768Y177359D01*
X420607Y177309D01*
X420451Y177259D01*
X420374Y177237D01*
X420302Y177215D01*
X420235Y177198D01*
X420180Y177182D01*
X420135Y177171D01*
X420096Y177159D01*
X420074Y177154D01*
X420069D01*
X419980Y177132D01*
X419897Y177110D01*
X419819Y177087D01*
X419752Y177065D01*
X419691Y177049D01*
X419641Y177032D01*
X419597Y177015D01*
X419552Y176998D01*
X419519Y176987D01*
X419491Y176976D01*
X419452Y176960D01*
X419430Y176949D01*
X419425Y176943D01*
X419364Y176893D01*
X419314Y176838D01*
X419280Y176782D01*
X419258Y176726D01*
X419247Y176682D01*
X419236Y176638D01*
Y176616D01*
Y176604D01*
X419247Y176516D01*
X419269Y176438D01*
X419303Y176366D01*
X419341Y176305D01*
X419380Y176255D01*
X419414Y176222D01*
X419436Y176194D01*
X419447Y176188D01*
X419536Y176133D01*
X419636Y176088D01*
X419747Y176060D01*
X419852Y176038D01*
X419946Y176027D01*
X419985Y176022D01*
X420024D01*
X420052Y176016D01*
X420096D01*
X420246Y176027D01*
X420379Y176049D01*
X420496Y176077D01*
X420590Y176116D01*
X420668Y176149D01*
X420723Y176183D01*
X420757Y176205D01*
X420762Y176210D01*
X420768D01*
X420851Y176294D01*
X420912Y176382D01*
X420962Y176482D01*
X421001Y176577D01*
X421029Y176660D01*
X421040Y176693D01*
X421045Y176726D01*
X421051Y176754D01*
Y176771D01*
X421056Y176782D01*
Y176788D01*
X421678Y176688D01*
X421656Y176582D01*
X421628Y176477D01*
X421595Y176382D01*
X421561Y176299D01*
X421523Y176216D01*
X421484Y176144D01*
X421445Y176077D01*
X421400Y176016D01*
X421362Y175966D01*
X421323Y175922D01*
X421289Y175883D01*
X421262Y175850D01*
X421234Y175827D01*
X421217Y175811D01*
X421206Y175800D01*
X421201Y175794D01*
X421123Y175744D01*
X421045Y175700D01*
X420957Y175655D01*
X420868Y175622D01*
X420679Y175572D01*
X420501Y175539D01*
X420418Y175522D01*
X420340Y175517D01*
X420268Y175511D01*
X420213Y175505D01*
X420163Y175500D01*
X420091D01*
X419930Y175505D01*
X419785Y175522D01*
X419652Y175550D01*
X419536Y175578D01*
X419486Y175589D01*
X419441Y175600D01*
X419403Y175617D01*
X419369Y175628D01*
X419341Y175639D01*
X419325Y175644D01*
X419314Y175650D01*
X419308D01*
X419186Y175711D01*
X419081Y175777D01*
X418992Y175850D01*
X418914Y175922D01*
X418859Y175983D01*
X418814Y176033D01*
X418792Y176066D01*
X418781Y176072D01*
Y176077D01*
X418720Y176183D01*
X418670Y176288D01*
X418637Y176388D01*
X418614Y176477D01*
X418603Y176555D01*
X418592Y176616D01*
Y176638D01*
Y176654D01*
Y176665D01*
Y176671D01*
X418598Y176788D01*
X418614Y176893D01*
X418642Y176982D01*
X418670Y177059D01*
X418698Y177126D01*
X418725Y177171D01*
X418742Y177198D01*
X418748Y177209D01*
X418809Y177287D01*
X418875Y177354D01*
X418947Y177409D01*
X419014Y177454D01*
X419069Y177492D01*
X419119Y177515D01*
X419153Y177531D01*
X419158Y177537D01*
X419164D01*
X419219Y177559D01*
X419280Y177581D01*
X419347Y177609D01*
X419419Y177631D01*
X419569Y177681D01*
X419724Y177726D01*
X419797Y177748D01*
X419869Y177770D01*
X419930Y177787D01*
X419980Y177803D01*
X420030Y177814D01*
X420063Y177825D01*
X420085Y177831D01*
X420091D01*
X420174Y177853D01*
X420246Y177875D01*
X420313Y177892D01*
X420374Y177909D01*
X420424Y177925D01*
X420468Y177936D01*
X420507Y177948D01*
X420540Y177959D01*
X420590Y177975D01*
X420623Y177986D01*
X420640Y177992D01*
X420646D01*
X420701Y178020D01*
X420751Y178048D01*
X420796Y178075D01*
X420829Y178103D01*
X420857Y178125D01*
X420873Y178142D01*
X420884Y178153D01*
X420890Y178158D01*
X420912Y178197D01*
X420929Y178236D01*
X420951Y178308D01*
X420957Y178336D01*
X420962Y178358D01*
Y178375D01*
Y178380D01*
X420957Y178453D01*
X420934Y178514D01*
X420906Y178575D01*
X420868Y178625D01*
X420834Y178664D01*
X420807Y178691D01*
X420785Y178713D01*
X420779Y178719D01*
X420740Y178747D01*
X420701Y178769D01*
X420607Y178802D01*
X420501Y178830D01*
X420401Y178847D01*
X420307Y178858D01*
X420268D01*
X420235Y178863D01*
X420163D01*
X420030Y178858D01*
X419919Y178835D01*
X419819Y178813D01*
X419735Y178780D01*
X419674Y178752D01*
X419630Y178725D01*
X419602Y178702D01*
X419591Y178697D01*
X419525Y178630D01*
X419469Y178558D01*
X419425Y178486D01*
X419391Y178414D01*
X419369Y178353D01*
X419358Y178297D01*
X419347Y178264D01*
Y178258D01*
Y178253D01*
X418731Y178336D01*
X418759Y178464D01*
X418792Y178575D01*
X418825Y178675D01*
X418864Y178758D01*
X418897Y178819D01*
X418925Y178869D01*
X418947Y178897D01*
X418953Y178908D01*
X419020Y178985D01*
X419097Y179052D01*
X419175Y179113D01*
X419253Y179163D01*
X419330Y179202D01*
X419386Y179230D01*
X419408Y179241D01*
X419425Y179246D01*
X419436Y179252D01*
X419441D01*
X419569Y179296D01*
X419697Y179324D01*
X419830Y179346D01*
X419946Y179363D01*
X420052Y179374D01*
X420096D01*
X420135Y179379D01*
X420207D01*
X420313Y179374D01*
D02*
G37*
G36*
X414885D02*
X415007Y179363D01*
X415118Y179341D01*
X415229Y179313D01*
X415334Y179285D01*
X415429Y179246D01*
X415518Y179213D01*
X415595Y179174D01*
X415673Y179135D01*
X415734Y179096D01*
X415790Y179058D01*
X415839Y179030D01*
X415873Y179002D01*
X415901Y178980D01*
X415917Y178969D01*
X415923Y178963D01*
X416022Y178863D01*
X416111Y178758D01*
X416189Y178641D01*
X416256Y178519D01*
X416306Y178392D01*
X416356Y178264D01*
X416394Y178136D01*
X416422Y178014D01*
X416444Y177898D01*
X416467Y177792D01*
X416478Y177692D01*
X416483Y177603D01*
X416489Y177537D01*
X416494Y177481D01*
Y177448D01*
Y177443D01*
Y177437D01*
X416489Y177265D01*
X416472Y177104D01*
X416450Y176954D01*
X416422Y176815D01*
X416383Y176688D01*
X416344Y176571D01*
X416300Y176466D01*
X416256Y176366D01*
X416211Y176283D01*
X416167Y176205D01*
X416128Y176144D01*
X416089Y176094D01*
X416061Y176049D01*
X416039Y176022D01*
X416022Y176005D01*
X416017Y175999D01*
X415923Y175911D01*
X415823Y175833D01*
X415723Y175766D01*
X415617Y175711D01*
X415512Y175661D01*
X415407Y175622D01*
X415307Y175589D01*
X415207Y175561D01*
X415112Y175544D01*
X415029Y175528D01*
X414951Y175517D01*
X414885Y175505D01*
X414829D01*
X414790Y175500D01*
X414757D01*
X414580Y175511D01*
X414413Y175533D01*
X414263Y175572D01*
X414191Y175589D01*
X414130Y175611D01*
X414069Y175633D01*
X414019Y175650D01*
X413975Y175672D01*
X413936Y175689D01*
X413903Y175700D01*
X413880Y175711D01*
X413869Y175722D01*
X413864D01*
X413719Y175816D01*
X413592Y175916D01*
X413486Y176022D01*
X413397Y176127D01*
X413325Y176216D01*
X413298Y176260D01*
X413275Y176294D01*
X413259Y176321D01*
X413247Y176344D01*
X413236Y176355D01*
Y176360D01*
X413198Y176444D01*
X413164Y176527D01*
X413109Y176710D01*
X413070Y176899D01*
X413048Y177076D01*
X413037Y177159D01*
X413031Y177237D01*
X413026Y177309D01*
Y177370D01*
X413020Y177420D01*
Y177454D01*
Y177481D01*
Y177487D01*
X413026Y177648D01*
X413042Y177803D01*
X413064Y177948D01*
X413098Y178081D01*
X413131Y178203D01*
X413175Y178314D01*
X413220Y178419D01*
X413264Y178514D01*
X413309Y178597D01*
X413353Y178669D01*
X413397Y178730D01*
X413431Y178780D01*
X413464Y178824D01*
X413486Y178852D01*
X413503Y178869D01*
X413508Y178874D01*
X413603Y178963D01*
X413703Y179041D01*
X413802Y179107D01*
X413908Y179169D01*
X414013Y179213D01*
X414113Y179257D01*
X414219Y179291D01*
X414313Y179318D01*
X414407Y179335D01*
X414491Y179352D01*
X414563Y179363D01*
X414630Y179374D01*
X414685D01*
X414724Y179379D01*
X414757D01*
X414885Y179374D01*
D02*
G37*
%LPC*%
G36*
X402137Y192495D02*
X401015D01*
X400921Y192490D01*
X400838D01*
X400760Y192484D01*
X400688Y192479D01*
X400627Y192473D01*
X400566Y192467D01*
X400516Y192462D01*
X400477Y192451D01*
X400438Y192445D01*
X400405Y192440D01*
X400383Y192434D01*
X400360Y192429D01*
X400349D01*
X400338Y192423D01*
X400255Y192390D01*
X400188Y192351D01*
X400127Y192306D01*
X400077Y192262D01*
X400038Y192223D01*
X400011Y192190D01*
X399994Y192168D01*
X399989Y192157D01*
X399944Y192085D01*
X399916Y192007D01*
X399894Y191929D01*
X399878Y191857D01*
X399867Y191796D01*
X399861Y191752D01*
Y191718D01*
Y191713D01*
Y191707D01*
X399867Y191607D01*
X399883Y191524D01*
X399905Y191446D01*
X399928Y191380D01*
X399950Y191330D01*
X399972Y191291D01*
X399989Y191269D01*
X399994Y191258D01*
X400050Y191197D01*
X400111Y191141D01*
X400177Y191097D01*
X400238Y191063D01*
X400294Y191035D01*
X400338Y191019D01*
X400372Y191008D01*
X400377Y191002D01*
X400383D01*
X400421Y190991D01*
X400466Y190986D01*
X400566Y190969D01*
X400677Y190958D01*
X400782Y190952D01*
X400877D01*
X400921Y190947D01*
X402137D01*
Y192495D01*
D02*
G37*
G36*
Y190342D02*
X400954D01*
X400782Y190336D01*
X400632Y190331D01*
X400566Y190320D01*
X400505Y190314D01*
X400449Y190308D01*
X400394Y190297D01*
X400349Y190292D01*
X400311Y190281D01*
X400283Y190275D01*
X400255Y190270D01*
X400233Y190264D01*
X400216Y190259D01*
X400211Y190253D01*
X400205D01*
X400111Y190214D01*
X400033Y190170D01*
X399961Y190125D01*
X399900Y190075D01*
X399855Y190031D01*
X399822Y189992D01*
X399800Y189970D01*
X399794Y189959D01*
X399744Y189876D01*
X399706Y189792D01*
X399683Y189709D01*
X399661Y189631D01*
X399650Y189559D01*
X399644Y189509D01*
Y189487D01*
Y189471D01*
Y189465D01*
Y189459D01*
X399650Y189371D01*
X399661Y189287D01*
X399678Y189215D01*
X399694Y189154D01*
X399717Y189099D01*
X399733Y189060D01*
X399744Y189038D01*
X399750Y189026D01*
X399789Y188960D01*
X399833Y188904D01*
X399878Y188854D01*
X399916Y188816D01*
X399955Y188782D01*
X399983Y188760D01*
X400005Y188749D01*
X400011Y188743D01*
X400072Y188710D01*
X400139Y188682D01*
X400200Y188655D01*
X400261Y188638D01*
X400316Y188621D01*
X400360Y188610D01*
X400388Y188605D01*
X400399D01*
X400455Y188599D01*
X400527Y188594D01*
X400605Y188588D01*
X400677D01*
X400749Y188582D01*
X402137D01*
Y190342D01*
D02*
G37*
G36*
X349334Y192090D02*
Y189781D01*
X350949D01*
X349334Y192090D01*
D02*
G37*
G36*
X379892Y192606D02*
X379764D01*
X379670Y192595D01*
X379498Y192567D01*
X379343Y192523D01*
X379276Y192501D01*
X379209Y192479D01*
X379148Y192451D01*
X379098Y192429D01*
X379054Y192406D01*
X379015Y192384D01*
X378982Y192368D01*
X378960Y192356D01*
X378948Y192351D01*
X378943Y192345D01*
X378799Y192240D01*
X378677Y192123D01*
X378571Y192007D01*
X378482Y191890D01*
X378416Y191785D01*
X378388Y191740D01*
X378366Y191701D01*
X378349Y191668D01*
X378338Y191646D01*
X378327Y191629D01*
Y191624D01*
X378255Y191441D01*
X378199Y191258D01*
X378160Y191074D01*
X378138Y190902D01*
X378127Y190825D01*
X378122Y190752D01*
X378116Y190691D01*
Y190636D01*
X378111Y190592D01*
Y190558D01*
Y190536D01*
Y190531D01*
X378116Y190353D01*
X378133Y190181D01*
X378155Y190025D01*
X378188Y189876D01*
X378227Y189737D01*
X378266Y189615D01*
X378316Y189498D01*
X378360Y189398D01*
X378405Y189304D01*
X378449Y189226D01*
X378493Y189160D01*
X378532Y189104D01*
X378566Y189060D01*
X378588Y189032D01*
X378604Y189010D01*
X378610Y189004D01*
X378704Y188910D01*
X378804Y188827D01*
X378910Y188760D01*
X379015Y188699D01*
X379121Y188644D01*
X379226Y188599D01*
X379326Y188566D01*
X379426Y188538D01*
X379515Y188516D01*
X379604Y188499D01*
X379676Y188488D01*
X379742Y188482D01*
X379798Y188477D01*
X379837Y188471D01*
X379870D01*
X380009Y188477D01*
X380136Y188494D01*
X380264Y188521D01*
X380381Y188555D01*
X380491Y188594D01*
X380591Y188638D01*
X380691Y188688D01*
X380774Y188738D01*
X380852Y188782D01*
X380919Y188832D01*
X380980Y188877D01*
X381030Y188916D01*
X381069Y188949D01*
X381096Y188977D01*
X381113Y188993D01*
X381119Y188999D01*
X381207Y189104D01*
X381280Y189215D01*
X381346Y189332D01*
X381402Y189454D01*
X381452Y189576D01*
X381490Y189692D01*
X381524Y189815D01*
X381552Y189931D01*
X381574Y190037D01*
X381585Y190136D01*
X381596Y190225D01*
X381607Y190303D01*
Y190370D01*
X381613Y190419D01*
Y190447D01*
Y190458D01*
X381607Y190669D01*
X381590Y190864D01*
X381563Y191041D01*
X381529Y191202D01*
X381490Y191352D01*
X381452Y191485D01*
X381402Y191607D01*
X381352Y191718D01*
X381307Y191807D01*
X381257Y191890D01*
X381219Y191957D01*
X381174Y192012D01*
X381146Y192051D01*
X381119Y192085D01*
X381102Y192101D01*
X381096Y192107D01*
X380996Y192195D01*
X380891Y192273D01*
X380786Y192340D01*
X380680Y192395D01*
X380580Y192445D01*
X380475Y192484D01*
X380375Y192517D01*
X380280Y192545D01*
X380192Y192562D01*
X380114Y192578D01*
X380042Y192590D01*
X379981Y192601D01*
X379925D01*
X379892Y192606D01*
D02*
G37*
G36*
X432323Y186265D02*
X431141D01*
X431041Y186259D01*
X430946Y186254D01*
X430858Y186248D01*
X430780Y186243D01*
X430708Y186232D01*
X430641Y186220D01*
X430586Y186215D01*
X430536Y186204D01*
X430491Y186193D01*
X430458Y186181D01*
X430425Y186176D01*
X430403Y186170D01*
X430386Y186165D01*
X430380Y186159D01*
X430375D01*
X430303Y186126D01*
X430236Y186093D01*
X430114Y186004D01*
X430003Y185910D01*
X429909Y185810D01*
X429837Y185721D01*
X429803Y185682D01*
X429781Y185649D01*
X429759Y185615D01*
X429742Y185593D01*
X429737Y185582D01*
X429731Y185577D01*
X429687Y185493D01*
X429642Y185399D01*
X429576Y185205D01*
X429531Y184999D01*
X429498Y184800D01*
X429487Y184705D01*
X429476Y184622D01*
X429470Y184544D01*
Y184478D01*
X429465Y184422D01*
Y184378D01*
Y184356D01*
Y184344D01*
X429470Y184134D01*
X429487Y183945D01*
X429498Y183856D01*
X429509Y183778D01*
X429520Y183701D01*
X429531Y183634D01*
X429548Y183573D01*
X429559Y183518D01*
X429570Y183468D01*
X429581Y183429D01*
X429592Y183395D01*
X429598Y183373D01*
X429603Y183362D01*
Y183357D01*
X429659Y183212D01*
X429720Y183085D01*
X429781Y182974D01*
X429837Y182879D01*
X429892Y182807D01*
X429936Y182752D01*
X429964Y182718D01*
X429970Y182713D01*
X429975Y182707D01*
X430042Y182646D01*
X430120Y182591D01*
X430197Y182546D01*
X430269Y182507D01*
X430336Y182480D01*
X430386Y182457D01*
X430408Y182452D01*
X430425Y182446D01*
X430430Y182441D01*
X430436D01*
X430552Y182413D01*
X430680Y182391D01*
X430813Y182374D01*
X430941Y182363D01*
X431052Y182358D01*
X431102D01*
X431146Y182352D01*
X432323D01*
Y186265D01*
D02*
G37*
G36*
X417599Y186304D02*
X415873D01*
X415778Y186293D01*
X415690Y186281D01*
X415606Y186265D01*
X415534Y186248D01*
X415468Y186226D01*
X415407Y186209D01*
X415351Y186187D01*
X415301Y186165D01*
X415262Y186143D01*
X415223Y186120D01*
X415196Y186104D01*
X415173Y186087D01*
X415157Y186076D01*
X415151Y186071D01*
X415146Y186065D01*
X415101Y186021D01*
X415057Y185971D01*
X414990Y185876D01*
X414946Y185776D01*
X414913Y185682D01*
X414890Y185599D01*
X414885Y185560D01*
Y185532D01*
X414879Y185504D01*
Y185488D01*
Y185477D01*
Y185471D01*
X414885Y185382D01*
X414901Y185293D01*
X414924Y185216D01*
X414946Y185149D01*
X414974Y185088D01*
X414996Y185049D01*
X415012Y185022D01*
X415018Y185011D01*
X415073Y184938D01*
X415140Y184872D01*
X415207Y184822D01*
X415268Y184777D01*
X415329Y184744D01*
X415373Y184722D01*
X415407Y184711D01*
X415412Y184705D01*
X415418D01*
X415523Y184672D01*
X415640Y184650D01*
X415762Y184633D01*
X415878Y184622D01*
X415984Y184616D01*
X416028D01*
X416067Y184611D01*
X417599D01*
Y186304D01*
D02*
G37*
G36*
X412471Y186265D02*
X411349D01*
X411255Y186259D01*
X411172D01*
X411094Y186254D01*
X411022Y186248D01*
X410961Y186243D01*
X410900Y186237D01*
X410850Y186232D01*
X410811Y186220D01*
X410772Y186215D01*
X410739Y186209D01*
X410717Y186204D01*
X410695Y186198D01*
X410683D01*
X410672Y186193D01*
X410589Y186159D01*
X410523Y186120D01*
X410461Y186076D01*
X410412Y186032D01*
X410373Y185993D01*
X410345Y185959D01*
X410328Y185937D01*
X410323Y185926D01*
X410278Y185854D01*
X410251Y185776D01*
X410228Y185699D01*
X410212Y185626D01*
X410201Y185565D01*
X410195Y185521D01*
Y185488D01*
Y185482D01*
Y185477D01*
X410201Y185377D01*
X410217Y185293D01*
X410240Y185216D01*
X410262Y185149D01*
X410284Y185099D01*
X410306Y185060D01*
X410323Y185038D01*
X410328Y185027D01*
X410384Y184966D01*
X410445Y184911D01*
X410511Y184866D01*
X410572Y184833D01*
X410628Y184805D01*
X410672Y184789D01*
X410706Y184777D01*
X410711Y184772D01*
X410717D01*
X410756Y184761D01*
X410800Y184755D01*
X410900Y184739D01*
X411011Y184727D01*
X411116Y184722D01*
X411211D01*
X411255Y184716D01*
X412471D01*
Y186265D01*
D02*
G37*
G36*
Y184111D02*
X411288D01*
X411116Y184106D01*
X410966Y184100D01*
X410900Y184089D01*
X410839Y184084D01*
X410783Y184078D01*
X410728Y184067D01*
X410683Y184061D01*
X410645Y184050D01*
X410617Y184045D01*
X410589Y184039D01*
X410567Y184034D01*
X410550Y184028D01*
X410545Y184023D01*
X410539D01*
X410445Y183984D01*
X410367Y183939D01*
X410295Y183895D01*
X410234Y183845D01*
X410189Y183801D01*
X410156Y183762D01*
X410134Y183739D01*
X410128Y183728D01*
X410078Y183645D01*
X410040Y183562D01*
X410017Y183479D01*
X409995Y183401D01*
X409984Y183329D01*
X409979Y183279D01*
Y183257D01*
Y183240D01*
Y183235D01*
Y183229D01*
X409984Y183140D01*
X409995Y183057D01*
X410012Y182985D01*
X410029Y182924D01*
X410051Y182868D01*
X410067Y182829D01*
X410078Y182807D01*
X410084Y182796D01*
X410123Y182729D01*
X410167Y182674D01*
X410212Y182624D01*
X410251Y182585D01*
X410289Y182552D01*
X410317Y182530D01*
X410339Y182518D01*
X410345Y182513D01*
X410406Y182480D01*
X410472Y182452D01*
X410534Y182424D01*
X410595Y182407D01*
X410650Y182391D01*
X410695Y182380D01*
X410722Y182374D01*
X410733D01*
X410789Y182369D01*
X410861Y182363D01*
X410939Y182358D01*
X411011D01*
X411083Y182352D01*
X412471D01*
Y184111D01*
D02*
G37*
G36*
X426312Y178863D02*
X426268D01*
X426179Y178858D01*
X426096Y178847D01*
X426018Y178830D01*
X425946Y178808D01*
X425813Y178747D01*
X425752Y178713D01*
X425696Y178680D01*
X425652Y178647D01*
X425607Y178614D01*
X425568Y178580D01*
X425541Y178552D01*
X425519Y178530D01*
X425496Y178514D01*
X425491Y178503D01*
X425485Y178497D01*
X425419Y178403D01*
X425363Y178292D01*
X425324Y178175D01*
X425291Y178059D01*
X425269Y177959D01*
X425263Y177914D01*
X425258Y177875D01*
X425252Y177842D01*
X425247Y177820D01*
Y177803D01*
Y177798D01*
X427322D01*
X427311Y177886D01*
X427300Y177970D01*
X427261Y178120D01*
X427206Y178253D01*
X427178Y178314D01*
X427150Y178364D01*
X427122Y178414D01*
X427095Y178453D01*
X427067Y178486D01*
X427045Y178519D01*
X427028Y178541D01*
X427011Y178558D01*
X427006Y178564D01*
X427001Y178569D01*
X426945Y178619D01*
X426884Y178669D01*
X426823Y178708D01*
X426762Y178741D01*
X426634Y178791D01*
X426523Y178824D01*
X426418Y178847D01*
X426379Y178852D01*
X426340Y178858D01*
X426312Y178863D01*
D02*
G37*
G36*
X414802Y178858D02*
X414757D01*
X414674Y178852D01*
X414591Y178841D01*
X414513Y178824D01*
X414441Y178802D01*
X414308Y178747D01*
X414191Y178680D01*
X414147Y178647D01*
X414102Y178614D01*
X414069Y178586D01*
X414036Y178558D01*
X414013Y178536D01*
X413997Y178519D01*
X413986Y178508D01*
X413980Y178503D01*
X413925Y178430D01*
X413875Y178358D01*
X413836Y178275D01*
X413797Y178192D01*
X413764Y178103D01*
X413741Y178014D01*
X413703Y177848D01*
X413692Y177770D01*
X413681Y177698D01*
X413675Y177631D01*
X413669Y177570D01*
X413664Y177526D01*
Y177487D01*
Y177465D01*
Y177459D01*
X413669Y177326D01*
X413675Y177204D01*
X413692Y177087D01*
X413714Y176982D01*
X413736Y176882D01*
X413764Y176793D01*
X413791Y176710D01*
X413819Y176643D01*
X413853Y176577D01*
X413880Y176521D01*
X413908Y176477D01*
X413930Y176438D01*
X413952Y176410D01*
X413969Y176388D01*
X413975Y176377D01*
X413980Y176371D01*
X414041Y176310D01*
X414102Y176255D01*
X414169Y176205D01*
X414230Y176166D01*
X414296Y176133D01*
X414363Y176105D01*
X414485Y176060D01*
X414591Y176033D01*
X414641Y176027D01*
X414679Y176022D01*
X414713Y176016D01*
X414757D01*
X414846Y176022D01*
X414924Y176033D01*
X415007Y176049D01*
X415079Y176072D01*
X415212Y176127D01*
X415323Y176194D01*
X415373Y176222D01*
X415418Y176255D01*
X415451Y176283D01*
X415484Y176310D01*
X415506Y176332D01*
X415523Y176349D01*
X415534Y176360D01*
X415540Y176366D01*
X415595Y176438D01*
X415640Y176516D01*
X415684Y176599D01*
X415717Y176682D01*
X415773Y176860D01*
X415812Y177037D01*
X415823Y177115D01*
X415834Y177193D01*
X415839Y177259D01*
X415845Y177320D01*
X415850Y177370D01*
Y177404D01*
Y177431D01*
Y177437D01*
X415845Y177565D01*
X415839Y177687D01*
X415823Y177798D01*
X415801Y177903D01*
X415778Y177998D01*
X415751Y178086D01*
X415723Y178164D01*
X415695Y178236D01*
X415667Y178297D01*
X415640Y178353D01*
X415612Y178397D01*
X415590Y178436D01*
X415567Y178464D01*
X415551Y178486D01*
X415545Y178497D01*
X415540Y178503D01*
X415479Y178564D01*
X415418Y178619D01*
X415351Y178669D01*
X415284Y178708D01*
X415218Y178741D01*
X415157Y178769D01*
X415029Y178813D01*
X414924Y178841D01*
X414874Y178847D01*
X414835Y178852D01*
X414802Y178858D01*
D02*
G37*
%LPD*%
D10*
X167559Y263304D02*
X167678Y263542D01*
X167916Y263780D01*
X168154Y263899D01*
X168630D01*
X168868Y263780D01*
X169106Y263542D01*
X169225Y263304D01*
X169344Y262947D01*
Y262352D01*
X169225Y261995D01*
X169106Y261757D01*
X168868Y261519D01*
X168630Y261400D01*
X168154D01*
X167916Y261519D01*
X167678Y261757D01*
X167559Y261995D01*
X165428Y263542D02*
X165547Y263780D01*
X165904Y263899D01*
X166142D01*
X166499Y263780D01*
X166737Y263423D01*
X166857Y262828D01*
Y262233D01*
X166737Y261757D01*
X166499Y261519D01*
X166142Y261400D01*
X166023D01*
X165666Y261519D01*
X165428Y261757D01*
X165309Y262114D01*
Y262233D01*
X165428Y262590D01*
X165666Y262828D01*
X166023Y262947D01*
X166142D01*
X166499Y262828D01*
X166737Y262590D01*
X166857Y262233D01*
X250615Y263304D02*
X250734Y263542D01*
X250972Y263780D01*
X251210Y263899D01*
X251686D01*
X251924Y263780D01*
X252162Y263542D01*
X252281Y263304D01*
X252400Y262947D01*
Y262352D01*
X252281Y261995D01*
X252162Y261757D01*
X251924Y261519D01*
X251686Y261400D01*
X251210D01*
X250972Y261519D01*
X250734Y261757D01*
X250615Y261995D01*
X248484Y263899D02*
X249674D01*
X249793Y262828D01*
X249674Y262947D01*
X249317Y263066D01*
X248960D01*
X248603Y262947D01*
X248365Y262709D01*
X248246Y262352D01*
Y262114D01*
X248365Y261757D01*
X248603Y261519D01*
X248960Y261400D01*
X249317D01*
X249674Y261519D01*
X249793Y261638D01*
X249913Y261876D01*
X363615Y263367D02*
X363734Y263605D01*
X363972Y263843D01*
X364210Y263963D01*
X364686D01*
X364924Y263843D01*
X365162Y263605D01*
X365281Y263367D01*
X365400Y263010D01*
Y262415D01*
X365281Y262058D01*
X365162Y261820D01*
X364924Y261582D01*
X364686Y261463D01*
X364210D01*
X363972Y261582D01*
X363734Y261820D01*
X363615Y262058D01*
X361722Y263963D02*
X362912Y262296D01*
X361127D01*
X361722Y263963D02*
Y261463D01*
X446615Y263367D02*
X446734Y263605D01*
X446972Y263843D01*
X447210Y263963D01*
X447686D01*
X447924Y263843D01*
X448162Y263605D01*
X448281Y263367D01*
X448400Y263010D01*
Y262415D01*
X448281Y262058D01*
X448162Y261820D01*
X447924Y261582D01*
X447686Y261463D01*
X447210D01*
X446972Y261582D01*
X446734Y261820D01*
X446615Y262058D01*
X445674Y263963D02*
X444365D01*
X445079Y263010D01*
X444722D01*
X444484Y262891D01*
X444365Y262772D01*
X444246Y262415D01*
Y262177D01*
X444365Y261820D01*
X444603Y261582D01*
X444960Y261463D01*
X445317D01*
X445674Y261582D01*
X445793Y261701D01*
X445912Y261939D01*
X559615Y263367D02*
X559734Y263605D01*
X559972Y263843D01*
X560210Y263963D01*
X560686D01*
X560924Y263843D01*
X561162Y263605D01*
X561281Y263367D01*
X561400Y263010D01*
Y262415D01*
X561281Y262058D01*
X561162Y261820D01*
X560924Y261582D01*
X560686Y261463D01*
X560210D01*
X559972Y261582D01*
X559734Y261820D01*
X559615Y262058D01*
X558793Y263367D02*
Y263486D01*
X558674Y263724D01*
X558555Y263843D01*
X558317Y263963D01*
X557841D01*
X557603Y263843D01*
X557484Y263724D01*
X557365Y263486D01*
Y263248D01*
X557484Y263010D01*
X557722Y262653D01*
X558912Y261463D01*
X557246D01*
X642615Y263304D02*
X642734Y263542D01*
X642972Y263780D01*
X643210Y263899D01*
X643686D01*
X643924Y263780D01*
X644162Y263542D01*
X644281Y263304D01*
X644400Y262947D01*
Y262352D01*
X644281Y261995D01*
X644162Y261757D01*
X643924Y261519D01*
X643686Y261400D01*
X643210D01*
X642972Y261519D01*
X642734Y261757D01*
X642615Y261995D01*
X641913Y263423D02*
X641674Y263542D01*
X641317Y263899D01*
Y261400D01*
X178500Y288199D02*
Y285700D01*
Y288199D02*
X177429D01*
X177072Y288080D01*
X176953Y287961D01*
X176834Y287723D01*
Y287485D01*
X176953Y287247D01*
X177072Y287128D01*
X177429Y287009D01*
X178500D01*
X177667D02*
X176834Y285700D01*
X174846Y287842D02*
X174965Y288080D01*
X175322Y288199D01*
X175560D01*
X175917Y288080D01*
X176155Y287723D01*
X176274Y287128D01*
Y286533D01*
X176155Y286057D01*
X175917Y285819D01*
X175560Y285700D01*
X175441D01*
X175084Y285819D01*
X174846Y286057D01*
X174727Y286414D01*
Y286533D01*
X174846Y286890D01*
X175084Y287128D01*
X175441Y287247D01*
X175560D01*
X175917Y287128D01*
X176155Y286890D01*
X176274Y286533D01*
X451000Y289199D02*
Y286700D01*
Y289199D02*
X449929D01*
X449572Y289080D01*
X449453Y288961D01*
X449334Y288723D01*
Y288485D01*
X449453Y288247D01*
X449572Y288128D01*
X449929Y288009D01*
X451000D01*
X450167D02*
X449334Y286700D01*
X448536Y289199D02*
X447227D01*
X447941Y288247D01*
X447584D01*
X447346Y288128D01*
X447227Y288009D01*
X447108Y287652D01*
Y287414D01*
X447227Y287057D01*
X447465Y286819D01*
X447822Y286700D01*
X448179D01*
X448536Y286819D01*
X448655Y286938D01*
X448774Y287176D01*
X263000Y286714D02*
Y284215D01*
Y286714D02*
X261929D01*
X261572Y286595D01*
X261453Y286476D01*
X261334Y286238D01*
Y286000D01*
X261453Y285762D01*
X261572Y285643D01*
X261929Y285524D01*
X263000D01*
X262167D02*
X261334Y284215D01*
X259346Y286714D02*
X260536D01*
X260655Y285643D01*
X260536Y285762D01*
X260179Y285881D01*
X259822D01*
X259465Y285762D01*
X259227Y285524D01*
X259108Y285167D01*
Y284929D01*
X259227Y284572D01*
X259465Y284334D01*
X259822Y284215D01*
X260179D01*
X260536Y284334D01*
X260655Y284453D01*
X260774Y284691D01*
X380500Y286700D02*
Y284200D01*
Y286700D02*
X379429D01*
X379072Y286580D01*
X378953Y286461D01*
X378834Y286223D01*
Y285985D01*
X378953Y285747D01*
X379072Y285628D01*
X379429Y285509D01*
X380500D01*
X379667D02*
X378834Y284200D01*
X377084Y286700D02*
X378274Y285033D01*
X376489D01*
X377084Y286700D02*
Y284200D01*
X564000Y289199D02*
Y286700D01*
Y289199D02*
X562929D01*
X562572Y289080D01*
X562453Y288961D01*
X562334Y288723D01*
Y288485D01*
X562453Y288247D01*
X562572Y288128D01*
X562929Y288009D01*
X564000D01*
X563167D02*
X562334Y286700D01*
X561655Y288604D02*
Y288723D01*
X561536Y288961D01*
X561417Y289080D01*
X561179Y289199D01*
X560703D01*
X560465Y289080D01*
X560346Y288961D01*
X560227Y288723D01*
Y288485D01*
X560346Y288247D01*
X560584Y287890D01*
X561774Y286700D01*
X560108D01*
X646500Y288199D02*
Y285700D01*
Y288199D02*
X645429D01*
X645072Y288080D01*
X644953Y287961D01*
X644834Y287723D01*
Y287485D01*
X644953Y287247D01*
X645072Y287128D01*
X645429Y287009D01*
X646500D01*
X645667D02*
X644834Y285700D01*
X644274Y287723D02*
X644036Y287842D01*
X643679Y288199D01*
Y285700D01*
M02*
