G04*
G04 #@! TF.GenerationSoftware,Altium Limited,Altium Designer,21.0.8 (223)*
G04*
G04 Layer_Color=16711935*
%FSLAX25Y25*%
%MOIN*%
G70*
G04*
G04 #@! TF.SameCoordinates,B3F2E434-1899-4535-8EE7-37C191B5E607*
G04*
G04*
G04 #@! TF.FilePolarity,Negative*
G04*
G01*
G75*
%ADD14C,0.06706*%
%ADD15R,0.06706X0.06706*%
%ADD16C,0.05760*%
%ADD17C,0.16548*%
%ADD30O,0.01981X0.04934*%
%ADD31R,0.01981X0.04934*%
%ADD32R,0.04934X0.01981*%
%ADD33R,0.04343X0.03950*%
%ADD34R,0.03950X0.04343*%
D14*
X414000Y342000D02*
D03*
X424000D02*
D03*
X404000D02*
D03*
X394000D02*
D03*
X384000D02*
D03*
X374000D02*
D03*
D15*
X434000D02*
D03*
D16*
X631175Y274578D02*
D03*
X653825D02*
D03*
X642500Y277370D02*
D03*
X618308Y255937D02*
D03*
X619714Y244358D02*
D03*
X626340Y234759D02*
D03*
X636668Y229338D02*
D03*
X648332D02*
D03*
X658660Y234759D02*
D03*
X665286Y244358D02*
D03*
X666692Y255937D02*
D03*
X662556Y266844D02*
D03*
X622444D02*
D03*
X539252D02*
D03*
X579364D02*
D03*
X583500Y255937D02*
D03*
X582094Y244358D02*
D03*
X575468Y234759D02*
D03*
X565140Y229338D02*
D03*
X553476D02*
D03*
X543148Y234759D02*
D03*
X536522Y244358D02*
D03*
X535116Y255937D02*
D03*
X559308Y277370D02*
D03*
X570633Y274578D02*
D03*
X547983D02*
D03*
X435175D02*
D03*
X457825D02*
D03*
X446500Y277370D02*
D03*
X422308Y255937D02*
D03*
X423714Y244358D02*
D03*
X430340Y234759D02*
D03*
X440668Y229338D02*
D03*
X452332D02*
D03*
X462660Y234759D02*
D03*
X469286Y244358D02*
D03*
X470692Y255937D02*
D03*
X466556Y266844D02*
D03*
X426444D02*
D03*
X343444D02*
D03*
X383556D02*
D03*
X387692Y255937D02*
D03*
X386286Y244358D02*
D03*
X379660Y234759D02*
D03*
X369332Y229338D02*
D03*
X357668D02*
D03*
X347340Y234759D02*
D03*
X340714Y244358D02*
D03*
X339308Y255937D02*
D03*
X363500Y277370D02*
D03*
X374825Y274578D02*
D03*
X352175D02*
D03*
X239175D02*
D03*
X261825D02*
D03*
X250500Y277370D02*
D03*
X226308Y255937D02*
D03*
X227714Y244358D02*
D03*
X234340Y234759D02*
D03*
X244668Y229338D02*
D03*
X256332D02*
D03*
X266660Y234759D02*
D03*
X273286Y244358D02*
D03*
X274692Y255937D02*
D03*
X270556Y266844D02*
D03*
X230444D02*
D03*
X147388D02*
D03*
X187500D02*
D03*
X191636Y255937D02*
D03*
X190230Y244358D02*
D03*
X183604Y234759D02*
D03*
X173276Y229338D02*
D03*
X161612D02*
D03*
X151284Y234759D02*
D03*
X144658Y244358D02*
D03*
X143252Y255937D02*
D03*
X167444Y277370D02*
D03*
X178769Y274578D02*
D03*
X156119D02*
D03*
D17*
X683500Y339000D02*
D03*
X126500D02*
D03*
Y167500D02*
D03*
X683500D02*
D03*
X546000Y339000D02*
D03*
X262000D02*
D03*
Y167500D02*
D03*
X546000D02*
D03*
D30*
X569031Y298311D02*
D03*
X258653D02*
D03*
D31*
X567063D02*
D03*
X565095D02*
D03*
X563126D02*
D03*
X561158D02*
D03*
X559189D02*
D03*
X557221D02*
D03*
X555252D02*
D03*
X553284D02*
D03*
X551315D02*
D03*
X549346D02*
D03*
Y324689D02*
D03*
X551315D02*
D03*
X553284D02*
D03*
X555252D02*
D03*
X557221D02*
D03*
X559189D02*
D03*
X561158D02*
D03*
X563126D02*
D03*
X565095D02*
D03*
X567063D02*
D03*
X569031D02*
D03*
X256685Y298311D02*
D03*
X254716D02*
D03*
X252748D02*
D03*
X250780D02*
D03*
X248811D02*
D03*
X246843D02*
D03*
X244874D02*
D03*
X242905D02*
D03*
X240937D02*
D03*
X238968D02*
D03*
Y324689D02*
D03*
X240937D02*
D03*
X242905D02*
D03*
X244874D02*
D03*
X246843D02*
D03*
X248811D02*
D03*
X250780D02*
D03*
X252748D02*
D03*
X254716D02*
D03*
X256685D02*
D03*
X258653D02*
D03*
D32*
X546000Y301658D02*
D03*
Y303626D02*
D03*
Y305594D02*
D03*
Y307563D02*
D03*
Y309531D02*
D03*
Y311500D02*
D03*
Y313469D02*
D03*
Y315437D02*
D03*
Y317406D02*
D03*
Y319374D02*
D03*
Y321342D02*
D03*
X572378D02*
D03*
Y319374D02*
D03*
Y317406D02*
D03*
Y315437D02*
D03*
Y313469D02*
D03*
Y311500D02*
D03*
Y309531D02*
D03*
Y307563D02*
D03*
Y305594D02*
D03*
Y303626D02*
D03*
Y301658D02*
D03*
X235622D02*
D03*
Y303626D02*
D03*
Y305594D02*
D03*
Y307563D02*
D03*
Y309531D02*
D03*
Y311500D02*
D03*
Y313469D02*
D03*
Y315437D02*
D03*
Y317406D02*
D03*
Y319374D02*
D03*
Y321342D02*
D03*
X262000D02*
D03*
Y319374D02*
D03*
Y317406D02*
D03*
Y315437D02*
D03*
Y313469D02*
D03*
Y311500D02*
D03*
Y309531D02*
D03*
Y307563D02*
D03*
Y305594D02*
D03*
Y303626D02*
D03*
Y301658D02*
D03*
D33*
X250500Y251244D02*
D03*
Y256756D02*
D03*
X446500Y251244D02*
D03*
Y256756D02*
D03*
X167444Y251244D02*
D03*
Y256756D02*
D03*
X363500Y251244D02*
D03*
Y256756D02*
D03*
X559500Y251244D02*
D03*
Y256756D02*
D03*
X642500Y251244D02*
D03*
Y256756D02*
D03*
D34*
X167244Y285500D02*
D03*
X172756D02*
D03*
X250744D02*
D03*
X256256D02*
D03*
X363744D02*
D03*
X369256D02*
D03*
X446244D02*
D03*
X451756D02*
D03*
X559244D02*
D03*
X564756D02*
D03*
X642244D02*
D03*
X647756D02*
D03*
M02*
