G04*
G04 #@! TF.GenerationSoftware,Altium Limited,Altium Designer,21.0.8 (223)*
G04*
G04 Layer_Physical_Order=1*
G04 Layer_Color=255*
%FSLAX25Y25*%
%MOIN*%
G70*
G04*
G04 #@! TF.SameCoordinates,B3F2E434-1899-4535-8EE7-37C191B5E607*
G04*
G04*
G04 #@! TF.FilePolarity,Positive*
G04*
G01*
G75*
%ADD12C,0.01000*%
%ADD18R,0.03543X0.05906*%
%ADD19C,0.05906*%
%ADD20R,0.05906X0.05906*%
%ADD21C,0.04961*%
%ADD22C,0.05000*%
%ADD23C,0.15748*%
G36*
X694971Y156529D02*
X115029D01*
X115029Y349971D01*
X694971D01*
X694971Y156529D01*
D02*
G37*
%LPC*%
G36*
X384500Y345921D02*
Y342500D01*
X387921D01*
X387851Y343032D01*
X387453Y343993D01*
X386819Y344819D01*
X385993Y345453D01*
X385032Y345851D01*
X384500Y345921D01*
D02*
G37*
G36*
X383500D02*
X382968Y345851D01*
X382007Y345453D01*
X381181Y344819D01*
X380547Y343993D01*
X380149Y343032D01*
X380079Y342500D01*
X383500D01*
Y345921D01*
D02*
G37*
G36*
X546500Y347868D02*
Y339500D01*
X554868D01*
X554746Y340740D01*
X554238Y342412D01*
X553414Y343954D01*
X552305Y345305D01*
X550954Y346414D01*
X549412Y347238D01*
X547740Y347746D01*
X546500Y347868D01*
D02*
G37*
G36*
X545500D02*
X544260Y347746D01*
X542588Y347238D01*
X541046Y346414D01*
X539695Y345305D01*
X538586Y343954D01*
X537762Y342412D01*
X537254Y340740D01*
X537132Y339500D01*
X545500D01*
Y347868D01*
D02*
G37*
G36*
X262500D02*
Y339500D01*
X270868D01*
X270746Y340740D01*
X270238Y342412D01*
X269414Y343954D01*
X268305Y345305D01*
X266954Y346414D01*
X265412Y347238D01*
X263740Y347746D01*
X262500Y347868D01*
D02*
G37*
G36*
X261500D02*
X260260Y347746D01*
X258588Y347238D01*
X257046Y346414D01*
X255695Y345305D01*
X254586Y343954D01*
X253762Y342412D01*
X253254Y340740D01*
X253132Y339500D01*
X261500D01*
Y347868D01*
D02*
G37*
G36*
X387921Y341500D02*
X384500D01*
Y338079D01*
X385032Y338149D01*
X385993Y338547D01*
X386819Y339181D01*
X387453Y340007D01*
X387851Y340968D01*
X387921Y341500D01*
D02*
G37*
G36*
X383500D02*
X380079D01*
X380149Y340968D01*
X380547Y340007D01*
X381181Y339181D01*
X382007Y338547D01*
X382968Y338149D01*
X383500Y338079D01*
Y341500D01*
D02*
G37*
G36*
X437953Y345953D02*
X430047D01*
Y338047D01*
X437953D01*
Y345953D01*
D02*
G37*
G36*
X424000Y345987D02*
X422968Y345851D01*
X422007Y345453D01*
X421181Y344819D01*
X420547Y343993D01*
X420149Y343032D01*
X420013Y342000D01*
X420149Y340968D01*
X420547Y340007D01*
X421181Y339181D01*
X422007Y338547D01*
X422968Y338149D01*
X424000Y338013D01*
X425032Y338149D01*
X425993Y338547D01*
X426819Y339181D01*
X427453Y340007D01*
X427851Y340968D01*
X427987Y342000D01*
X427851Y343032D01*
X427453Y343993D01*
X426819Y344819D01*
X425993Y345453D01*
X425032Y345851D01*
X424000Y345987D01*
D02*
G37*
G36*
X414000D02*
X412968Y345851D01*
X412007Y345453D01*
X411181Y344819D01*
X410547Y343993D01*
X410149Y343032D01*
X410013Y342000D01*
X410149Y340968D01*
X410547Y340007D01*
X411181Y339181D01*
X412007Y338547D01*
X412968Y338149D01*
X414000Y338013D01*
X415032Y338149D01*
X415993Y338547D01*
X416819Y339181D01*
X417453Y340007D01*
X417851Y340968D01*
X417987Y342000D01*
X417851Y343032D01*
X417453Y343993D01*
X416819Y344819D01*
X415993Y345453D01*
X415032Y345851D01*
X414000Y345987D01*
D02*
G37*
G36*
X404000D02*
X402968Y345851D01*
X402007Y345453D01*
X401181Y344819D01*
X400547Y343993D01*
X400149Y343032D01*
X400013Y342000D01*
X400149Y340968D01*
X400547Y340007D01*
X401181Y339181D01*
X402007Y338547D01*
X402968Y338149D01*
X404000Y338013D01*
X405032Y338149D01*
X405993Y338547D01*
X406819Y339181D01*
X407453Y340007D01*
X407851Y340968D01*
X407987Y342000D01*
X407851Y343032D01*
X407453Y343993D01*
X406819Y344819D01*
X405993Y345453D01*
X405032Y345851D01*
X404000Y345987D01*
D02*
G37*
G36*
X394000D02*
X392968Y345851D01*
X392007Y345453D01*
X391181Y344819D01*
X390547Y343993D01*
X390149Y343032D01*
X390013Y342000D01*
X390149Y340968D01*
X390547Y340007D01*
X391181Y339181D01*
X392007Y338547D01*
X392968Y338149D01*
X394000Y338013D01*
X395032Y338149D01*
X395993Y338547D01*
X396819Y339181D01*
X397453Y340007D01*
X397851Y340968D01*
X397987Y342000D01*
X397851Y343032D01*
X397453Y343993D01*
X396819Y344819D01*
X395993Y345453D01*
X395032Y345851D01*
X394000Y345987D01*
D02*
G37*
G36*
X374000D02*
X372968Y345851D01*
X372007Y345453D01*
X371181Y344819D01*
X370547Y343993D01*
X370149Y343032D01*
X370013Y342000D01*
X370149Y340968D01*
X370547Y340007D01*
X371181Y339181D01*
X372007Y338547D01*
X372968Y338149D01*
X374000Y338013D01*
X375032Y338149D01*
X375993Y338547D01*
X376819Y339181D01*
X377453Y340007D01*
X377851Y340968D01*
X377987Y342000D01*
X377851Y343032D01*
X377453Y343993D01*
X376819Y344819D01*
X375993Y345453D01*
X375032Y345851D01*
X374000Y345987D01*
D02*
G37*
G36*
X554868Y338500D02*
X546500D01*
Y330132D01*
X547740Y330254D01*
X549412Y330762D01*
X550954Y331586D01*
X552305Y332695D01*
X553414Y334046D01*
X554238Y335588D01*
X554746Y337260D01*
X554868Y338500D01*
D02*
G37*
G36*
X545500D02*
X537132D01*
X537254Y337260D01*
X537762Y335588D01*
X538586Y334046D01*
X539695Y332695D01*
X541046Y331586D01*
X542588Y330762D01*
X544260Y330254D01*
X545500Y330132D01*
Y338500D01*
D02*
G37*
G36*
X270868D02*
X262500D01*
Y330132D01*
X263740Y330254D01*
X265412Y330762D01*
X266954Y331586D01*
X268305Y332695D01*
X269414Y334046D01*
X270238Y335588D01*
X270746Y337260D01*
X270868Y338500D01*
D02*
G37*
G36*
X261500D02*
X253132D01*
X253254Y337260D01*
X253762Y335588D01*
X254586Y334046D01*
X255695Y332695D01*
X257046Y331586D01*
X258588Y330762D01*
X260260Y330254D01*
X261500Y330132D01*
Y338500D01*
D02*
G37*
G36*
X683500Y347917D02*
X681760Y347746D01*
X680088Y347238D01*
X678546Y346414D01*
X677195Y345305D01*
X676086Y343954D01*
X675262Y342412D01*
X674754Y340740D01*
X674583Y339000D01*
X674754Y337260D01*
X675262Y335588D01*
X676086Y334046D01*
X677195Y332695D01*
X678546Y331586D01*
X680088Y330762D01*
X681760Y330254D01*
X683500Y330083D01*
X685240Y330254D01*
X686912Y330762D01*
X688454Y331586D01*
X689805Y332695D01*
X690914Y334046D01*
X691738Y335588D01*
X692246Y337260D01*
X692417Y339000D01*
X692246Y340740D01*
X691738Y342412D01*
X690914Y343954D01*
X689805Y345305D01*
X688454Y346414D01*
X686912Y347238D01*
X685240Y347746D01*
X683500Y347917D01*
D02*
G37*
G36*
X126500D02*
X124760Y347746D01*
X123088Y347238D01*
X121546Y346414D01*
X120195Y345305D01*
X119086Y343954D01*
X118262Y342412D01*
X117754Y340740D01*
X117583Y339000D01*
X117754Y337260D01*
X118262Y335588D01*
X119086Y334046D01*
X120195Y332695D01*
X121546Y331586D01*
X123088Y330762D01*
X124760Y330254D01*
X126500Y330083D01*
X128240Y330254D01*
X129912Y330762D01*
X131454Y331586D01*
X132805Y332695D01*
X133914Y334046D01*
X134738Y335588D01*
X135246Y337260D01*
X135417Y339000D01*
X135246Y340740D01*
X134738Y342412D01*
X133914Y343954D01*
X132805Y345305D01*
X131454Y346414D01*
X129912Y347238D01*
X128240Y347746D01*
X126500Y347917D01*
D02*
G37*
G36*
X642500Y280880D02*
X641592Y280761D01*
X640745Y280410D01*
X640018Y279852D01*
X639460Y279125D01*
X639109Y278278D01*
X638990Y277370D01*
X639109Y276462D01*
X639460Y275615D01*
X640018Y274888D01*
X640745Y274330D01*
X641592Y273979D01*
X642500Y273860D01*
X643408Y273979D01*
X644255Y274330D01*
X644982Y274888D01*
X645540Y275615D01*
X645891Y276462D01*
X646010Y277370D01*
X645891Y278278D01*
X645540Y279125D01*
X644982Y279852D01*
X644255Y280410D01*
X643408Y280761D01*
X642500Y280880D01*
D02*
G37*
G36*
X559308D02*
X558399Y280761D01*
X557553Y280410D01*
X556826Y279852D01*
X556268Y279125D01*
X555917Y278278D01*
X555798Y277370D01*
X555917Y276462D01*
X556268Y275615D01*
X556826Y274888D01*
X557553Y274330D01*
X558399Y273979D01*
X559308Y273860D01*
X560217Y273979D01*
X561063Y274330D01*
X561790Y274888D01*
X562348Y275615D01*
X562699Y276462D01*
X562818Y277370D01*
X562699Y278278D01*
X562348Y279125D01*
X561790Y279852D01*
X561063Y280410D01*
X560217Y280761D01*
X559308Y280880D01*
D02*
G37*
G36*
X167444D02*
X166535Y280761D01*
X165689Y280410D01*
X164962Y279852D01*
X164404Y279125D01*
X164053Y278278D01*
X163934Y277370D01*
X164053Y276462D01*
X164404Y275615D01*
X164962Y274888D01*
X165689Y274330D01*
X166535Y273979D01*
X167444Y273860D01*
X168352Y273979D01*
X169199Y274330D01*
X169926Y274888D01*
X170484Y275615D01*
X170835Y276462D01*
X170954Y277370D01*
X170835Y278278D01*
X170484Y279125D01*
X169926Y279852D01*
X169199Y280410D01*
X168352Y280761D01*
X167444Y280880D01*
D02*
G37*
G36*
X570633Y278088D02*
X569725Y277969D01*
X568878Y277618D01*
X568151Y277060D01*
X567593Y276333D01*
X567242Y275486D01*
X567123Y274578D01*
X567216Y273869D01*
X566752Y273594D01*
X566253Y273977D01*
X565402Y274330D01*
X564488Y274450D01*
X563575Y274330D01*
X562723Y273977D01*
X561992Y273416D01*
X561431Y272685D01*
X561078Y271834D01*
X560958Y270920D01*
X561078Y270006D01*
X561431Y269155D01*
X561992Y268424D01*
X562662Y267910D01*
X563032Y267598D01*
Y265183D01*
X562281D01*
X562183Y265418D01*
X561622Y266149D01*
X560891Y266710D01*
X560040Y267063D01*
X559126Y267183D01*
X558212Y267063D01*
X557361Y266710D01*
X556630Y266149D01*
X556084Y265438D01*
X556034Y265433D01*
X555584Y265585D01*
Y267598D01*
X550040D01*
Y262522D01*
X550011Y262374D01*
Y259818D01*
X549611Y259453D01*
X549500Y259467D01*
X548586Y259347D01*
X547735Y258994D01*
X547004Y258433D01*
X546443Y257702D01*
X546090Y256851D01*
X545970Y255937D01*
X546090Y255023D01*
X546443Y254172D01*
X547004Y253441D01*
X547735Y252880D01*
X548586Y252527D01*
X549500Y252407D01*
X550414Y252527D01*
X551265Y252880D01*
X551996Y253441D01*
X552557Y254172D01*
X552910Y255023D01*
X553030Y255937D01*
X552910Y256851D01*
X552557Y257702D01*
X552465Y257822D01*
X552622Y257978D01*
X552953Y258474D01*
X553070Y259060D01*
Y259693D01*
X555584D01*
Y261722D01*
X556034Y261873D01*
X556084Y261869D01*
X556630Y261157D01*
X557361Y260596D01*
X558212Y260243D01*
X559126Y260123D01*
X560040Y260243D01*
X560891Y260596D01*
X561622Y261157D01*
X562183Y261888D01*
X562281Y262124D01*
X563032D01*
Y259693D01*
X568576D01*
Y267598D01*
X566730D01*
X566561Y268098D01*
X566985Y268424D01*
X567546Y269155D01*
X567898Y270006D01*
X568018Y270920D01*
X567924Y271640D01*
X568383Y271918D01*
X568878Y271538D01*
X569725Y271187D01*
X570633Y271068D01*
X571542Y271187D01*
X572388Y271538D01*
X573115Y272096D01*
X573673Y272823D01*
X574024Y273670D01*
X574143Y274578D01*
X574024Y275486D01*
X573673Y276333D01*
X573115Y277060D01*
X572388Y277618D01*
X571542Y277969D01*
X570633Y278088D01*
D02*
G37*
G36*
X653825D02*
X652916Y277969D01*
X652070Y277618D01*
X651343Y277060D01*
X650785Y276333D01*
X650434Y275486D01*
X650315Y274578D01*
X650422Y273763D01*
X650137Y273558D01*
X649972Y273515D01*
X649265Y274057D01*
X648414Y274410D01*
X647500Y274530D01*
X646586Y274410D01*
X645735Y274057D01*
X645004Y273496D01*
X644443Y272765D01*
X644090Y271914D01*
X643970Y271000D01*
X644090Y270086D01*
X644443Y269235D01*
X645004Y268504D01*
X645735Y267943D01*
X645925Y267864D01*
X646346Y267598D01*
X646347D01*
X646347Y267598D01*
Y265175D01*
X645655D01*
X645557Y265411D01*
X644996Y266142D01*
X644265Y266703D01*
X643414Y267056D01*
X642500Y267176D01*
X641586Y267056D01*
X640735Y266703D01*
X640004Y266142D01*
X639443Y265411D01*
X639398Y265302D01*
X638898Y265401D01*
Y267598D01*
X633354D01*
Y259954D01*
X633270Y259637D01*
X632962Y259433D01*
X632311Y259347D01*
X631459Y258994D01*
X630728Y258433D01*
X630167Y257702D01*
X629814Y256851D01*
X629694Y255937D01*
X629814Y255023D01*
X630167Y254172D01*
X630728Y253441D01*
X631459Y252880D01*
X632311Y252527D01*
X633224Y252407D01*
X634138Y252527D01*
X634989Y252880D01*
X635720Y253441D01*
X636281Y254172D01*
X636634Y255023D01*
X636754Y255937D01*
X636634Y256851D01*
X636537Y257086D01*
X637207Y257757D01*
X637539Y258254D01*
X637655Y258839D01*
Y259693D01*
X638898D01*
Y261890D01*
X639398Y261989D01*
X639443Y261881D01*
X640004Y261149D01*
X640735Y260588D01*
X641586Y260236D01*
X642500Y260116D01*
X643414Y260236D01*
X644265Y260588D01*
X644996Y261149D01*
X645557Y261881D01*
X645655Y262116D01*
X646347D01*
Y259693D01*
X651890D01*
Y267598D01*
X649638D01*
X649468Y268098D01*
X649996Y268504D01*
X650557Y269235D01*
X650910Y270086D01*
X651030Y271000D01*
X650922Y271823D01*
X651194Y272024D01*
X651372Y272074D01*
X652070Y271538D01*
X652916Y271187D01*
X653825Y271068D01*
X654734Y271187D01*
X655580Y271538D01*
X656307Y272096D01*
X656865Y272823D01*
X657216Y273670D01*
X657335Y274578D01*
X657216Y275486D01*
X656865Y276333D01*
X656307Y277060D01*
X655580Y277618D01*
X654734Y277969D01*
X653825Y278088D01*
D02*
G37*
G36*
X631175D02*
X630267Y277969D01*
X629420Y277618D01*
X628693Y277060D01*
X628135Y276333D01*
X627784Y275486D01*
X627665Y274578D01*
X627784Y273670D01*
X628135Y272823D01*
X628693Y272096D01*
X629420Y271538D01*
X630267Y271187D01*
X631175Y271068D01*
X632084Y271187D01*
X632930Y271538D01*
X633657Y272096D01*
X634215Y272823D01*
X634566Y273670D01*
X634685Y274578D01*
X634566Y275486D01*
X634215Y276333D01*
X633657Y277060D01*
X632930Y277618D01*
X632084Y277969D01*
X631175Y278088D01*
D02*
G37*
G36*
X547983D02*
X547075Y277969D01*
X546228Y277618D01*
X545501Y277060D01*
X544943Y276333D01*
X544592Y275486D01*
X544473Y274578D01*
X544592Y273670D01*
X544943Y272823D01*
X545501Y272096D01*
X546228Y271538D01*
X547075Y271187D01*
X547983Y271068D01*
X548891Y271187D01*
X549738Y271538D01*
X550465Y272096D01*
X551023Y272823D01*
X551374Y273670D01*
X551493Y274578D01*
X551374Y275486D01*
X551023Y276333D01*
X550465Y277060D01*
X549738Y277618D01*
X548891Y277969D01*
X547983Y278088D01*
D02*
G37*
G36*
X457825D02*
X456917Y277969D01*
X456070Y277618D01*
X455343Y277060D01*
X454785Y276333D01*
X454434Y275486D01*
X454315Y274578D01*
X454434Y273670D01*
X454785Y272823D01*
X455343Y272096D01*
X456070Y271538D01*
X456917Y271187D01*
X457825Y271068D01*
X458734Y271187D01*
X459580Y271538D01*
X460307Y272096D01*
X460865Y272823D01*
X461216Y273670D01*
X461335Y274578D01*
X461216Y275486D01*
X460865Y276333D01*
X460307Y277060D01*
X459580Y277618D01*
X458734Y277969D01*
X457825Y278088D01*
D02*
G37*
G36*
X435175D02*
X434267Y277969D01*
X433420Y277618D01*
X432693Y277060D01*
X432135Y276333D01*
X431784Y275486D01*
X431665Y274578D01*
X431784Y273670D01*
X432135Y272823D01*
X432693Y272096D01*
X433420Y271538D01*
X434267Y271187D01*
X435175Y271068D01*
X436084Y271187D01*
X436930Y271538D01*
X437657Y272096D01*
X438215Y272823D01*
X438566Y273670D01*
X438685Y274578D01*
X438566Y275486D01*
X438215Y276333D01*
X437657Y277060D01*
X436930Y277618D01*
X436084Y277969D01*
X435175Y278088D01*
D02*
G37*
G36*
X374825D02*
X373917Y277969D01*
X373070Y277618D01*
X372343Y277060D01*
X371785Y276333D01*
X371434Y275486D01*
X371315Y274578D01*
X371434Y273670D01*
X371785Y272823D01*
X372343Y272096D01*
X373070Y271538D01*
X373917Y271187D01*
X374825Y271068D01*
X375733Y271187D01*
X376580Y271538D01*
X377307Y272096D01*
X377865Y272823D01*
X378216Y273670D01*
X378335Y274578D01*
X378216Y275486D01*
X377865Y276333D01*
X377307Y277060D01*
X376580Y277618D01*
X375733Y277969D01*
X374825Y278088D01*
D02*
G37*
G36*
X352175D02*
X351267Y277969D01*
X350420Y277618D01*
X349693Y277060D01*
X349135Y276333D01*
X348784Y275486D01*
X348665Y274578D01*
X348784Y273670D01*
X349135Y272823D01*
X349693Y272096D01*
X350420Y271538D01*
X351267Y271187D01*
X352175Y271068D01*
X353083Y271187D01*
X353930Y271538D01*
X354657Y272096D01*
X355215Y272823D01*
X355566Y273670D01*
X355685Y274578D01*
X355566Y275486D01*
X355215Y276333D01*
X354657Y277060D01*
X353930Y277618D01*
X353083Y277969D01*
X352175Y278088D01*
D02*
G37*
G36*
X261825D02*
X260916Y277969D01*
X260070Y277618D01*
X259343Y277060D01*
X258785Y276333D01*
X258434Y275486D01*
X258315Y274578D01*
X258434Y273670D01*
X258785Y272823D01*
X259343Y272096D01*
X260070Y271538D01*
X260916Y271187D01*
X261825Y271068D01*
X262734Y271187D01*
X263580Y271538D01*
X264307Y272096D01*
X264865Y272823D01*
X265216Y273670D01*
X265335Y274578D01*
X265216Y275486D01*
X264865Y276333D01*
X264307Y277060D01*
X263580Y277618D01*
X262734Y277969D01*
X261825Y278088D01*
D02*
G37*
G36*
X239175D02*
X238266Y277969D01*
X237420Y277618D01*
X236693Y277060D01*
X236135Y276333D01*
X235784Y275486D01*
X235665Y274578D01*
X235784Y273670D01*
X236135Y272823D01*
X236693Y272096D01*
X237420Y271538D01*
X238266Y271187D01*
X239175Y271068D01*
X240084Y271187D01*
X240930Y271538D01*
X241657Y272096D01*
X242215Y272823D01*
X242566Y273670D01*
X242685Y274578D01*
X242566Y275486D01*
X242215Y276333D01*
X241657Y277060D01*
X240930Y277618D01*
X240084Y277969D01*
X239175Y278088D01*
D02*
G37*
G36*
X178769D02*
X177860Y277969D01*
X177014Y277618D01*
X176287Y277060D01*
X175729Y276333D01*
X175378Y275486D01*
X175259Y274578D01*
X175378Y273670D01*
X175729Y272823D01*
X176287Y272096D01*
X177014Y271538D01*
X177860Y271187D01*
X178769Y271068D01*
X179677Y271187D01*
X180524Y271538D01*
X181251Y272096D01*
X181809Y272823D01*
X182160Y273670D01*
X182279Y274578D01*
X182160Y275486D01*
X181809Y276333D01*
X181251Y277060D01*
X180524Y277618D01*
X179677Y277969D01*
X178769Y278088D01*
D02*
G37*
G36*
X156119D02*
X155210Y277969D01*
X154364Y277618D01*
X153637Y277060D01*
X153079Y276333D01*
X152728Y275486D01*
X152609Y274578D01*
X152728Y273670D01*
X153079Y272823D01*
X153637Y272096D01*
X154364Y271538D01*
X155210Y271187D01*
X156119Y271068D01*
X157027Y271187D01*
X157874Y271538D01*
X158601Y272096D01*
X159159Y272823D01*
X159510Y273670D01*
X159629Y274578D01*
X159510Y275486D01*
X159159Y276333D01*
X158601Y277060D01*
X157874Y277618D01*
X157027Y277969D01*
X156119Y278088D01*
D02*
G37*
G36*
X170500Y273733D02*
X169586Y273613D01*
X168735Y273260D01*
X168004Y272699D01*
X167443Y271968D01*
X167090Y271117D01*
X166970Y270203D01*
X167090Y269290D01*
X167443Y268438D01*
X168004Y267707D01*
X168075Y267652D01*
X167877Y267174D01*
X167864Y267176D01*
X166950Y267056D01*
X166099Y266703D01*
X165367Y266142D01*
X164806Y265411D01*
X164454Y264559D01*
X164398Y264132D01*
X163898Y264165D01*
Y267598D01*
X158354D01*
Y259693D01*
X163898D01*
Y263126D01*
X164398Y263159D01*
X164454Y262732D01*
X164806Y261881D01*
X165367Y261149D01*
X166099Y260588D01*
X166950Y260236D01*
X167864Y260116D01*
X168777Y260236D01*
X169629Y260588D01*
X170360Y261149D01*
X170846Y261783D01*
X171255Y261702D01*
X171346Y261653D01*
Y259693D01*
X176890D01*
Y267598D01*
X173543D01*
X173297Y268098D01*
X173557Y268438D01*
X173910Y269290D01*
X174030Y270203D01*
X173910Y271117D01*
X173557Y271968D01*
X172996Y272699D01*
X172265Y273260D01*
X171414Y273613D01*
X170500Y273733D01*
D02*
G37*
G36*
X250500Y280880D02*
X249591Y280761D01*
X248745Y280410D01*
X248018Y279852D01*
X247460Y279125D01*
X247109Y278278D01*
X246990Y277370D01*
X247109Y276462D01*
X247460Y275615D01*
X248018Y274888D01*
X248745Y274330D01*
X249591Y273979D01*
X250500Y273860D01*
X251409Y273979D01*
X252192Y274304D01*
X252255Y274330D01*
X252545Y273929D01*
X252496Y273892D01*
X252157Y273632D01*
X251596Y272901D01*
X251243Y272049D01*
X251123Y271136D01*
X251243Y270222D01*
X251596Y269371D01*
X252157Y268639D01*
X252888Y268078D01*
X253740Y267726D01*
X253775Y267721D01*
X254224Y267598D01*
X254224Y267158D01*
Y265910D01*
X253724Y265740D01*
X253416Y266142D01*
X252685Y266703D01*
X251833Y267056D01*
X250920Y267176D01*
X250006Y267056D01*
X249155Y266703D01*
X248424Y266142D01*
X247863Y265411D01*
X247510Y264559D01*
X247390Y263646D01*
X247510Y262732D01*
X247863Y261881D01*
X248424Y261149D01*
X249155Y260588D01*
X250006Y260236D01*
X250920Y260116D01*
X251833Y260236D01*
X252685Y260588D01*
X253416Y261149D01*
X253724Y261551D01*
X254224Y261382D01*
Y259693D01*
X259768D01*
Y267598D01*
X256658D01*
X256441Y268047D01*
X256444Y268098D01*
X257149Y268639D01*
X257710Y269371D01*
X258063Y270222D01*
X258183Y271136D01*
X258063Y272049D01*
X257710Y272901D01*
X257149Y273632D01*
X256418Y274193D01*
X255567Y274546D01*
X254653Y274666D01*
X253740Y274546D01*
X252951Y274219D01*
X252888Y274193D01*
X252599Y274593D01*
X252647Y274631D01*
X252982Y274888D01*
X253540Y275615D01*
X253891Y276462D01*
X254010Y277370D01*
X253891Y278278D01*
X253540Y279125D01*
X252982Y279852D01*
X252255Y280410D01*
X251409Y280761D01*
X250500Y280880D01*
D02*
G37*
G36*
X446500D02*
X445591Y280761D01*
X444745Y280410D01*
X444018Y279852D01*
X443460Y279125D01*
X443109Y278278D01*
X442990Y277370D01*
X443109Y276462D01*
X443460Y275615D01*
X444018Y274888D01*
X444745Y274330D01*
X445019Y274216D01*
Y273675D01*
X444735Y273557D01*
X444004Y272996D01*
X443443Y272265D01*
X443090Y271414D01*
X442970Y270500D01*
X443090Y269586D01*
X443443Y268735D01*
X444004Y268004D01*
X444735Y267443D01*
X444966Y267347D01*
Y266806D01*
X444735Y266710D01*
X444004Y266149D01*
X443443Y265418D01*
X443398Y265309D01*
X442898Y265409D01*
Y267598D01*
X437354D01*
Y261856D01*
X434961Y259462D01*
X434086Y259347D01*
X433235Y258994D01*
X432504Y258433D01*
X431943Y257702D01*
X431590Y256851D01*
X431470Y255937D01*
X431590Y255023D01*
X431943Y254172D01*
X432504Y253441D01*
X433235Y252880D01*
X434086Y252527D01*
X435000Y252407D01*
X435914Y252527D01*
X436765Y252880D01*
X437496Y253441D01*
X438057Y254172D01*
X438410Y255023D01*
X438530Y255937D01*
X438410Y256851D01*
X438057Y257702D01*
X437827Y258002D01*
X439517Y259693D01*
X442898D01*
Y261898D01*
X443398Y261997D01*
X443443Y261888D01*
X444004Y261157D01*
X444735Y260596D01*
X445586Y260243D01*
X446500Y260123D01*
X447414Y260243D01*
X448265Y260596D01*
X448996Y261157D01*
X449557Y261888D01*
X449655Y262124D01*
X450347D01*
Y259693D01*
X455890D01*
Y267598D01*
X450347D01*
Y265183D01*
X449655D01*
X449557Y265418D01*
X448996Y266149D01*
X448265Y266710D01*
X448034Y266806D01*
Y267347D01*
X448265Y267443D01*
X448996Y268004D01*
X449557Y268735D01*
X449910Y269586D01*
X450030Y270500D01*
X449910Y271414D01*
X449557Y272265D01*
X448996Y272996D01*
X448265Y273557D01*
X447981Y273675D01*
Y274216D01*
X448255Y274330D01*
X448982Y274888D01*
X449540Y275615D01*
X449891Y276462D01*
X450010Y277370D01*
X449891Y278278D01*
X449540Y279125D01*
X448982Y279852D01*
X448255Y280410D01*
X447408Y280761D01*
X446500Y280880D01*
D02*
G37*
G36*
X363500D02*
X362592Y280761D01*
X361745Y280410D01*
X361018Y279852D01*
X360460Y279125D01*
X360109Y278278D01*
X359990Y277370D01*
X360109Y276462D01*
X360460Y275615D01*
X361018Y274888D01*
X361745Y274330D01*
X362592Y273979D01*
X362927Y273935D01*
X363067Y273412D01*
X362836Y273235D01*
X362275Y272504D01*
X361922Y271653D01*
X361802Y270739D01*
X361922Y269825D01*
X362275Y268974D01*
X362836Y268243D01*
X363567Y267682D01*
X363604Y267667D01*
X363500Y267176D01*
X362586Y267056D01*
X361735Y266703D01*
X361004Y266142D01*
X360443Y265411D01*
X360276Y265007D01*
X359776Y265107D01*
Y267598D01*
X354232D01*
Y261856D01*
X353184Y260807D01*
X352852Y260311D01*
X352736Y259726D01*
Y259430D01*
X352586Y259410D01*
X351735Y259057D01*
X351004Y258496D01*
X350443Y257765D01*
X350090Y256914D01*
X349970Y256000D01*
X350090Y255086D01*
X350443Y254235D01*
X351004Y253504D01*
X351735Y252943D01*
X352586Y252590D01*
X353500Y252470D01*
X354414Y252590D01*
X355265Y252943D01*
X355996Y253504D01*
X356557Y254235D01*
X356910Y255086D01*
X357030Y256000D01*
X356910Y256914D01*
X356557Y257765D01*
X355996Y258496D01*
X355844Y258613D01*
X355824Y259121D01*
X356395Y259693D01*
X359776D01*
Y262185D01*
X360276Y262284D01*
X360443Y261881D01*
X361004Y261149D01*
X361735Y260588D01*
X362586Y260236D01*
X363500Y260116D01*
X364414Y260236D01*
X365265Y260588D01*
X365996Y261149D01*
X366557Y261881D01*
X366655Y262116D01*
X367224D01*
Y259693D01*
X372768D01*
Y267598D01*
X367810D01*
X367640Y268098D01*
X367828Y268243D01*
X368389Y268974D01*
X368742Y269825D01*
X368862Y270739D01*
X368742Y271653D01*
X368389Y272504D01*
X367828Y273235D01*
X367097Y273796D01*
X366246Y274149D01*
X365900Y274195D01*
X365760Y274717D01*
X365982Y274888D01*
X366540Y275615D01*
X366891Y276462D01*
X367010Y277370D01*
X366891Y278278D01*
X366540Y279125D01*
X365982Y279852D01*
X365255Y280410D01*
X364408Y280761D01*
X363500Y280880D01*
D02*
G37*
G36*
X662556Y270354D02*
X661648Y270235D01*
X660801Y269884D01*
X660074Y269326D01*
X659516Y268599D01*
X659165Y267753D01*
X659046Y266844D01*
X659165Y265935D01*
X659516Y265089D01*
X660074Y264362D01*
X660801Y263804D01*
X661648Y263453D01*
X662556Y263334D01*
X663464Y263453D01*
X664311Y263804D01*
X665038Y264362D01*
X665596Y265089D01*
X665947Y265935D01*
X666066Y266844D01*
X665947Y267753D01*
X665596Y268599D01*
X665038Y269326D01*
X664311Y269884D01*
X663464Y270235D01*
X662556Y270354D01*
D02*
G37*
G36*
X622444D02*
X621535Y270235D01*
X620689Y269884D01*
X619962Y269326D01*
X619404Y268599D01*
X619053Y267753D01*
X618934Y266844D01*
X619053Y265935D01*
X619404Y265089D01*
X619962Y264362D01*
X620689Y263804D01*
X621535Y263453D01*
X622444Y263334D01*
X623352Y263453D01*
X624199Y263804D01*
X624926Y264362D01*
X625484Y265089D01*
X625835Y265935D01*
X625954Y266844D01*
X625835Y267753D01*
X625484Y268599D01*
X624926Y269326D01*
X624199Y269884D01*
X623352Y270235D01*
X622444Y270354D01*
D02*
G37*
G36*
X579364D02*
X578455Y270235D01*
X577609Y269884D01*
X576882Y269326D01*
X576324Y268599D01*
X575973Y267753D01*
X575854Y266844D01*
X575973Y265935D01*
X576324Y265089D01*
X576882Y264362D01*
X577609Y263804D01*
X578455Y263453D01*
X579364Y263334D01*
X580272Y263453D01*
X581119Y263804D01*
X581846Y264362D01*
X582404Y265089D01*
X582755Y265935D01*
X582874Y266844D01*
X582755Y267753D01*
X582404Y268599D01*
X581846Y269326D01*
X581119Y269884D01*
X580272Y270235D01*
X579364Y270354D01*
D02*
G37*
G36*
X539252D02*
X538343Y270235D01*
X537497Y269884D01*
X536770Y269326D01*
X536212Y268599D01*
X535861Y267753D01*
X535742Y266844D01*
X535861Y265935D01*
X536212Y265089D01*
X536770Y264362D01*
X537497Y263804D01*
X538343Y263453D01*
X539252Y263334D01*
X540161Y263453D01*
X541007Y263804D01*
X541734Y264362D01*
X542292Y265089D01*
X542643Y265935D01*
X542762Y266844D01*
X542643Y267753D01*
X542292Y268599D01*
X541734Y269326D01*
X541007Y269884D01*
X540161Y270235D01*
X539252Y270354D01*
D02*
G37*
G36*
X466556D02*
X465648Y270235D01*
X464801Y269884D01*
X464074Y269326D01*
X463516Y268599D01*
X463165Y267753D01*
X463046Y266844D01*
X463165Y265935D01*
X463516Y265089D01*
X464074Y264362D01*
X464801Y263804D01*
X465648Y263453D01*
X466556Y263334D01*
X467464Y263453D01*
X468311Y263804D01*
X469038Y264362D01*
X469596Y265089D01*
X469947Y265935D01*
X470066Y266844D01*
X469947Y267753D01*
X469596Y268599D01*
X469038Y269326D01*
X468311Y269884D01*
X467464Y270235D01*
X466556Y270354D01*
D02*
G37*
G36*
X426444D02*
X425535Y270235D01*
X424689Y269884D01*
X423962Y269326D01*
X423404Y268599D01*
X423053Y267753D01*
X422934Y266844D01*
X423053Y265935D01*
X423404Y265089D01*
X423962Y264362D01*
X424689Y263804D01*
X425535Y263453D01*
X426444Y263334D01*
X427353Y263453D01*
X428199Y263804D01*
X428926Y264362D01*
X429484Y265089D01*
X429835Y265935D01*
X429954Y266844D01*
X429835Y267753D01*
X429484Y268599D01*
X428926Y269326D01*
X428199Y269884D01*
X427353Y270235D01*
X426444Y270354D01*
D02*
G37*
G36*
X383556D02*
X382647Y270235D01*
X381801Y269884D01*
X381074Y269326D01*
X380516Y268599D01*
X380165Y267753D01*
X380046Y266844D01*
X380165Y265935D01*
X380516Y265089D01*
X381074Y264362D01*
X381801Y263804D01*
X382647Y263453D01*
X383556Y263334D01*
X384465Y263453D01*
X385311Y263804D01*
X386038Y264362D01*
X386596Y265089D01*
X386947Y265935D01*
X387066Y266844D01*
X386947Y267753D01*
X386596Y268599D01*
X386038Y269326D01*
X385311Y269884D01*
X384465Y270235D01*
X383556Y270354D01*
D02*
G37*
G36*
X343444D02*
X342535Y270235D01*
X341689Y269884D01*
X340962Y269326D01*
X340404Y268599D01*
X340053Y267753D01*
X339934Y266844D01*
X340053Y265935D01*
X340404Y265089D01*
X340962Y264362D01*
X341689Y263804D01*
X342535Y263453D01*
X343444Y263334D01*
X344353Y263453D01*
X345199Y263804D01*
X345926Y264362D01*
X346484Y265089D01*
X346835Y265935D01*
X346954Y266844D01*
X346835Y267753D01*
X346484Y268599D01*
X345926Y269326D01*
X345199Y269884D01*
X344353Y270235D01*
X343444Y270354D01*
D02*
G37*
G36*
X270556D02*
X269648Y270235D01*
X268801Y269884D01*
X268074Y269326D01*
X267516Y268599D01*
X267165Y267753D01*
X267046Y266844D01*
X267165Y265935D01*
X267516Y265089D01*
X268074Y264362D01*
X268801Y263804D01*
X269648Y263453D01*
X270556Y263334D01*
X271464Y263453D01*
X272311Y263804D01*
X273038Y264362D01*
X273596Y265089D01*
X273947Y265935D01*
X274066Y266844D01*
X273947Y267753D01*
X273596Y268599D01*
X273038Y269326D01*
X272311Y269884D01*
X271464Y270235D01*
X270556Y270354D01*
D02*
G37*
G36*
X230444D02*
X229536Y270235D01*
X228689Y269884D01*
X227962Y269326D01*
X227404Y268599D01*
X227053Y267753D01*
X226934Y266844D01*
X227053Y265935D01*
X227404Y265089D01*
X227962Y264362D01*
X228689Y263804D01*
X229536Y263453D01*
X230444Y263334D01*
X231352Y263453D01*
X232199Y263804D01*
X232926Y264362D01*
X233484Y265089D01*
X233835Y265935D01*
X233954Y266844D01*
X233835Y267753D01*
X233484Y268599D01*
X232926Y269326D01*
X232199Y269884D01*
X231352Y270235D01*
X230444Y270354D01*
D02*
G37*
G36*
X187500D02*
X186591Y270235D01*
X185745Y269884D01*
X185018Y269326D01*
X184460Y268599D01*
X184109Y267753D01*
X183990Y266844D01*
X184109Y265935D01*
X184460Y265089D01*
X185018Y264362D01*
X185745Y263804D01*
X186591Y263453D01*
X187500Y263334D01*
X188409Y263453D01*
X189255Y263804D01*
X189982Y264362D01*
X190540Y265089D01*
X190891Y265935D01*
X191010Y266844D01*
X190891Y267753D01*
X190540Y268599D01*
X189982Y269326D01*
X189255Y269884D01*
X188409Y270235D01*
X187500Y270354D01*
D02*
G37*
G36*
X147388D02*
X146479Y270235D01*
X145633Y269884D01*
X144906Y269326D01*
X144348Y268599D01*
X143997Y267753D01*
X143878Y266844D01*
X143997Y265935D01*
X144348Y265089D01*
X144906Y264362D01*
X145633Y263804D01*
X146479Y263453D01*
X147388Y263334D01*
X148296Y263453D01*
X149143Y263804D01*
X149870Y264362D01*
X150428Y265089D01*
X150779Y265935D01*
X150898Y266844D01*
X150779Y267753D01*
X150428Y268599D01*
X149870Y269326D01*
X149143Y269884D01*
X148296Y270235D01*
X147388Y270354D01*
D02*
G37*
G36*
X246776Y267598D02*
X241232D01*
Y261856D01*
X239404Y260027D01*
X239375Y259985D01*
X238806Y259910D01*
X237955Y259557D01*
X237224Y258996D01*
X236663Y258265D01*
X236310Y257414D01*
X236190Y256500D01*
X236310Y255586D01*
X236663Y254735D01*
X237224Y254004D01*
X237955Y253443D01*
X238806Y253090D01*
X239720Y252970D01*
X240633Y253090D01*
X241485Y253443D01*
X242216Y254004D01*
X242777Y254735D01*
X243130Y255586D01*
X243250Y256500D01*
X243130Y257414D01*
X242777Y258265D01*
X242425Y258723D01*
X243395Y259693D01*
X246776D01*
Y267598D01*
D02*
G37*
G36*
X666692Y259447D02*
X665784Y259328D01*
X664937Y258977D01*
X664210Y258419D01*
X663652Y257692D01*
X663301Y256845D01*
X663182Y255937D01*
X663301Y255029D01*
X663652Y254182D01*
X664210Y253455D01*
X664937Y252897D01*
X665784Y252546D01*
X666692Y252427D01*
X667600Y252546D01*
X668447Y252897D01*
X669174Y253455D01*
X669732Y254182D01*
X670083Y255029D01*
X670202Y255937D01*
X670083Y256845D01*
X669732Y257692D01*
X669174Y258419D01*
X668447Y258977D01*
X667600Y259328D01*
X666692Y259447D01*
D02*
G37*
G36*
X618308D02*
X617400Y259328D01*
X616553Y258977D01*
X615826Y258419D01*
X615268Y257692D01*
X614917Y256845D01*
X614798Y255937D01*
X614917Y255029D01*
X615268Y254182D01*
X615826Y253455D01*
X616553Y252897D01*
X617400Y252546D01*
X618308Y252427D01*
X619216Y252546D01*
X620063Y252897D01*
X620790Y253455D01*
X621348Y254182D01*
X621699Y255029D01*
X621818Y255937D01*
X621699Y256845D01*
X621348Y257692D01*
X620790Y258419D01*
X620063Y258977D01*
X619216Y259328D01*
X618308Y259447D01*
D02*
G37*
G36*
X583500D02*
X582591Y259328D01*
X581745Y258977D01*
X581018Y258419D01*
X580460Y257692D01*
X580109Y256845D01*
X579990Y255937D01*
X580109Y255029D01*
X580460Y254182D01*
X581018Y253455D01*
X581745Y252897D01*
X582591Y252546D01*
X583500Y252427D01*
X584409Y252546D01*
X585255Y252897D01*
X585982Y253455D01*
X586540Y254182D01*
X586891Y255029D01*
X587010Y255937D01*
X586891Y256845D01*
X586540Y257692D01*
X585982Y258419D01*
X585255Y258977D01*
X584409Y259328D01*
X583500Y259447D01*
D02*
G37*
G36*
X535116D02*
X534207Y259328D01*
X533361Y258977D01*
X532634Y258419D01*
X532076Y257692D01*
X531725Y256845D01*
X531606Y255937D01*
X531725Y255029D01*
X532076Y254182D01*
X532634Y253455D01*
X533361Y252897D01*
X534207Y252546D01*
X535116Y252427D01*
X536025Y252546D01*
X536871Y252897D01*
X537598Y253455D01*
X538156Y254182D01*
X538507Y255029D01*
X538626Y255937D01*
X538507Y256845D01*
X538156Y257692D01*
X537598Y258419D01*
X536871Y258977D01*
X536025Y259328D01*
X535116Y259447D01*
D02*
G37*
G36*
X470692D02*
X469783Y259328D01*
X468937Y258977D01*
X468210Y258419D01*
X467652Y257692D01*
X467301Y256845D01*
X467182Y255937D01*
X467301Y255029D01*
X467652Y254182D01*
X468210Y253455D01*
X468937Y252897D01*
X469783Y252546D01*
X470692Y252427D01*
X471600Y252546D01*
X472447Y252897D01*
X473174Y253455D01*
X473732Y254182D01*
X474083Y255029D01*
X474202Y255937D01*
X474083Y256845D01*
X473732Y257692D01*
X473174Y258419D01*
X472447Y258977D01*
X471600Y259328D01*
X470692Y259447D01*
D02*
G37*
G36*
X422308D02*
X421399Y259328D01*
X420553Y258977D01*
X419826Y258419D01*
X419268Y257692D01*
X418917Y256845D01*
X418798Y255937D01*
X418917Y255029D01*
X419268Y254182D01*
X419826Y253455D01*
X420553Y252897D01*
X421399Y252546D01*
X422308Y252427D01*
X423216Y252546D01*
X424063Y252897D01*
X424790Y253455D01*
X425348Y254182D01*
X425699Y255029D01*
X425818Y255937D01*
X425699Y256845D01*
X425348Y257692D01*
X424790Y258419D01*
X424063Y258977D01*
X423216Y259328D01*
X422308Y259447D01*
D02*
G37*
G36*
X387692D02*
X386784Y259328D01*
X385937Y258977D01*
X385210Y258419D01*
X384652Y257692D01*
X384301Y256845D01*
X384182Y255937D01*
X384301Y255029D01*
X384652Y254182D01*
X385210Y253455D01*
X385937Y252897D01*
X386784Y252546D01*
X387692Y252427D01*
X388600Y252546D01*
X389447Y252897D01*
X390174Y253455D01*
X390732Y254182D01*
X391083Y255029D01*
X391202Y255937D01*
X391083Y256845D01*
X390732Y257692D01*
X390174Y258419D01*
X389447Y258977D01*
X388600Y259328D01*
X387692Y259447D01*
D02*
G37*
G36*
X339308D02*
X338400Y259328D01*
X337553Y258977D01*
X336826Y258419D01*
X336268Y257692D01*
X335917Y256845D01*
X335798Y255937D01*
X335917Y255029D01*
X336268Y254182D01*
X336826Y253455D01*
X337553Y252897D01*
X338400Y252546D01*
X339308Y252427D01*
X340216Y252546D01*
X341063Y252897D01*
X341790Y253455D01*
X342348Y254182D01*
X342699Y255029D01*
X342818Y255937D01*
X342699Y256845D01*
X342348Y257692D01*
X341790Y258419D01*
X341063Y258977D01*
X340216Y259328D01*
X339308Y259447D01*
D02*
G37*
G36*
X274692D02*
X273783Y259328D01*
X272937Y258977D01*
X272210Y258419D01*
X271652Y257692D01*
X271301Y256845D01*
X271182Y255937D01*
X271301Y255029D01*
X271652Y254182D01*
X272210Y253455D01*
X272937Y252897D01*
X273783Y252546D01*
X274692Y252427D01*
X275601Y252546D01*
X276447Y252897D01*
X277174Y253455D01*
X277732Y254182D01*
X278083Y255029D01*
X278202Y255937D01*
X278083Y256845D01*
X277732Y257692D01*
X277174Y258419D01*
X276447Y258977D01*
X275601Y259328D01*
X274692Y259447D01*
D02*
G37*
G36*
X226308D02*
X225399Y259328D01*
X224553Y258977D01*
X223826Y258419D01*
X223268Y257692D01*
X222917Y256845D01*
X222798Y255937D01*
X222917Y255029D01*
X223268Y254182D01*
X223826Y253455D01*
X224553Y252897D01*
X225399Y252546D01*
X226308Y252427D01*
X227217Y252546D01*
X228063Y252897D01*
X228790Y253455D01*
X229348Y254182D01*
X229699Y255029D01*
X229818Y255937D01*
X229699Y256845D01*
X229348Y257692D01*
X228790Y258419D01*
X228063Y258977D01*
X227217Y259328D01*
X226308Y259447D01*
D02*
G37*
G36*
X191636D02*
X190727Y259328D01*
X189881Y258977D01*
X189154Y258419D01*
X188596Y257692D01*
X188245Y256845D01*
X188126Y255937D01*
X188245Y255029D01*
X188596Y254182D01*
X189154Y253455D01*
X189881Y252897D01*
X190727Y252546D01*
X191636Y252427D01*
X192544Y252546D01*
X193391Y252897D01*
X194118Y253455D01*
X194676Y254182D01*
X195027Y255029D01*
X195146Y255937D01*
X195027Y256845D01*
X194676Y257692D01*
X194118Y258419D01*
X193391Y258977D01*
X192544Y259328D01*
X191636Y259447D01*
D02*
G37*
G36*
X143252D02*
X142343Y259328D01*
X141497Y258977D01*
X140770Y258419D01*
X140212Y257692D01*
X139861Y256845D01*
X139742Y255937D01*
X139861Y255029D01*
X140212Y254182D01*
X140770Y253455D01*
X141497Y252897D01*
X142343Y252546D01*
X143252Y252427D01*
X144160Y252546D01*
X145007Y252897D01*
X145734Y253455D01*
X146292Y254182D01*
X146643Y255029D01*
X146762Y255937D01*
X146643Y256845D01*
X146292Y257692D01*
X145734Y258419D01*
X145007Y258977D01*
X144160Y259328D01*
X143252Y259447D01*
D02*
G37*
G36*
X181000Y256739D02*
X180086Y256619D01*
X179235Y256266D01*
X178504Y255705D01*
X177943Y254974D01*
X177590Y254122D01*
X177470Y253209D01*
X177590Y252295D01*
X177919Y251500D01*
X174727Y248307D01*
X171346D01*
Y246351D01*
X171255Y246302D01*
X170846Y246220D01*
X170360Y246854D01*
X169629Y247415D01*
X168777Y247768D01*
X168364Y247822D01*
Y244358D01*
Y240894D01*
X168777Y240948D01*
X169629Y241301D01*
X170360Y241862D01*
X170846Y242496D01*
X171255Y242414D01*
X171346Y242365D01*
Y240402D01*
X176890D01*
Y246144D01*
X180491Y249745D01*
X181000Y249678D01*
X181914Y249799D01*
X182765Y250151D01*
X183496Y250712D01*
X184057Y251444D01*
X184410Y252295D01*
X184530Y253209D01*
X184410Y254122D01*
X184057Y254974D01*
X183496Y255705D01*
X182765Y256266D01*
X181914Y256619D01*
X181000Y256739D01*
D02*
G37*
G36*
X375245Y255530D02*
X374331Y255410D01*
X373480Y255057D01*
X372748Y254496D01*
X372187Y253765D01*
X371835Y252914D01*
X371715Y252000D01*
X371835Y251086D01*
X372187Y250235D01*
X372337Y250040D01*
X370605Y248307D01*
X367224D01*
Y246353D01*
X367151Y246314D01*
X366724Y246223D01*
X366240Y246854D01*
X365509Y247415D01*
X364658Y247768D01*
X364244Y247822D01*
Y244358D01*
Y240894D01*
X364658Y240948D01*
X365509Y241301D01*
X366240Y241862D01*
X366724Y242493D01*
X367151Y242402D01*
X367224Y242363D01*
Y240402D01*
X372768D01*
Y246144D01*
X375111Y248487D01*
X375245Y248470D01*
X376158Y248590D01*
X377010Y248943D01*
X377741Y249504D01*
X378302Y250235D01*
X378655Y251086D01*
X378775Y252000D01*
X378655Y252914D01*
X378302Y253765D01*
X377741Y254496D01*
X377010Y255057D01*
X376158Y255410D01*
X375245Y255530D01*
D02*
G37*
G36*
X264164Y249530D02*
X263251Y249410D01*
X262399Y249057D01*
X261668Y248496D01*
X261107Y247765D01*
X261010Y247529D01*
X259768D01*
Y248307D01*
X254224D01*
Y246622D01*
X253724Y246452D01*
X253416Y246854D01*
X252685Y247415D01*
X251833Y247768D01*
X251420Y247822D01*
Y244358D01*
Y240894D01*
X251833Y240948D01*
X252685Y241301D01*
X253416Y241862D01*
X253724Y242264D01*
X254224Y242094D01*
Y240402D01*
X259768D01*
Y244471D01*
X261010D01*
X261107Y244235D01*
X261668Y243504D01*
X262399Y242943D01*
X263251Y242590D01*
X264164Y242470D01*
X265078Y242590D01*
X265930Y242943D01*
X266661Y243504D01*
X267222Y244235D01*
X267574Y245086D01*
X267695Y246000D01*
X267574Y246914D01*
X267222Y247765D01*
X266661Y248496D01*
X265930Y249057D01*
X265078Y249410D01*
X264164Y249530D01*
D02*
G37*
G36*
X651890Y248307D02*
X646347D01*
Y246694D01*
X645847Y246525D01*
X645596Y246851D01*
X644865Y247412D01*
X644014Y247764D01*
X643600Y247819D01*
Y244354D01*
Y240890D01*
X644014Y240944D01*
X644865Y241297D01*
X645596Y241858D01*
X645847Y242184D01*
X646347Y242015D01*
Y240402D01*
X649126D01*
X649455Y240026D01*
X649386Y239500D01*
X649507Y238586D01*
X649859Y237735D01*
X650420Y237004D01*
X651151Y236443D01*
X652003Y236090D01*
X652916Y235970D01*
X653830Y236090D01*
X654682Y236443D01*
X655298Y236916D01*
X655654Y236559D01*
X655620Y236514D01*
X655269Y235667D01*
X655150Y234759D01*
X655269Y233851D01*
X655620Y233004D01*
X656178Y232277D01*
X656905Y231719D01*
X657752Y231368D01*
X658660Y231249D01*
X659569Y231368D01*
X660415Y231719D01*
X661142Y232277D01*
X661700Y233004D01*
X662051Y233851D01*
X662170Y234759D01*
X662051Y235667D01*
X661700Y236514D01*
X661142Y237241D01*
X660415Y237799D01*
X659569Y238150D01*
X658660Y238269D01*
X657752Y238150D01*
X656905Y237799D01*
X656293Y237329D01*
X655936Y237686D01*
X655974Y237735D01*
X656326Y238586D01*
X656447Y239500D01*
X656326Y240414D01*
X655974Y241265D01*
X655413Y241996D01*
X654682Y242557D01*
X653830Y242910D01*
X652916Y243030D01*
X652390Y242961D01*
X651890Y243378D01*
Y248307D01*
D02*
G37*
G36*
X459000Y254030D02*
X458086Y253910D01*
X457235Y253557D01*
X456504Y252996D01*
X455943Y252265D01*
X455590Y251414D01*
X455470Y250500D01*
X455590Y249586D01*
X455918Y248796D01*
X455823Y248566D01*
X455641Y248307D01*
X450347D01*
Y245768D01*
X449847Y245669D01*
X449557Y246367D01*
X448996Y247098D01*
X448265Y247659D01*
X447414Y248012D01*
X447000Y248066D01*
Y244602D01*
Y241138D01*
X447414Y241192D01*
X448265Y241545D01*
X448996Y242106D01*
X449557Y242837D01*
X449847Y243535D01*
X450347Y243436D01*
Y240402D01*
X455890D01*
Y243254D01*
X459697Y247061D01*
X459914Y247090D01*
X460765Y247443D01*
X461496Y248004D01*
X462057Y248735D01*
X462410Y249586D01*
X462530Y250500D01*
X462410Y251414D01*
X462057Y252265D01*
X461496Y252996D01*
X460765Y253557D01*
X459914Y253910D01*
X459000Y254030D01*
D02*
G37*
G36*
X568576Y248307D02*
X563032D01*
Y245331D01*
X562536Y245272D01*
X562183Y246123D01*
X561622Y246854D01*
X560891Y247415D01*
X560040Y247768D01*
X559626Y247822D01*
Y244358D01*
Y240894D01*
X560040Y240948D01*
X560891Y241301D01*
X561622Y241862D01*
X562183Y242593D01*
X562536Y243444D01*
X563032Y243385D01*
Y240402D01*
X568576D01*
Y242829D01*
X569345D01*
X569443Y242593D01*
X570004Y241862D01*
X570735Y241301D01*
X571586Y240948D01*
X572500Y240828D01*
X573414Y240948D01*
X574265Y241301D01*
X574996Y241862D01*
X575557Y242593D01*
X575910Y243444D01*
X576030Y244358D01*
X575910Y245272D01*
X575557Y246123D01*
X574996Y246854D01*
X574265Y247415D01*
X573414Y247768D01*
X572500Y247888D01*
X571586Y247768D01*
X570735Y247415D01*
X570004Y246854D01*
X569443Y246123D01*
X569345Y245887D01*
X568576D01*
Y248307D01*
D02*
G37*
G36*
X635626D02*
X633354D01*
Y244854D01*
X635626D01*
Y248307D01*
D02*
G37*
G36*
X439626D02*
X437354D01*
Y244854D01*
X439626D01*
Y248307D01*
D02*
G37*
G36*
X243504D02*
X241232D01*
Y244854D01*
X243504D01*
Y248307D01*
D02*
G37*
G36*
X160626D02*
X158354D01*
Y244854D01*
X160626D01*
Y248307D01*
D02*
G37*
G36*
X356504D02*
X354232D01*
Y244854D01*
X356504D01*
Y248307D01*
D02*
G37*
G36*
X552312D02*
X550040D01*
Y244854D01*
X552312D01*
Y248307D01*
D02*
G37*
G36*
X442898D02*
X440626D01*
Y244354D01*
Y240402D01*
X442898D01*
Y242846D01*
X443398Y242946D01*
X443443Y242837D01*
X444004Y242106D01*
X444735Y241545D01*
X445586Y241192D01*
X446000Y241138D01*
Y244602D01*
Y248066D01*
X445586Y248012D01*
X444735Y247659D01*
X444004Y247098D01*
X443443Y246367D01*
X443398Y246258D01*
X442898Y246358D01*
Y248307D01*
D02*
G37*
G36*
X555584D02*
X553312D01*
Y244354D01*
Y240402D01*
X555584D01*
Y242427D01*
X556034Y242578D01*
X556084Y242573D01*
X556630Y241862D01*
X557361Y241301D01*
X558212Y240948D01*
X558626Y240894D01*
Y244358D01*
Y247822D01*
X558212Y247768D01*
X557361Y247415D01*
X556630Y246854D01*
X556084Y246143D01*
X556034Y246138D01*
X555584Y246289D01*
Y248307D01*
D02*
G37*
G36*
X359776D02*
X357504D01*
Y244354D01*
Y240402D01*
X359776D01*
Y242829D01*
X360589D01*
X360687Y242593D01*
X361248Y241862D01*
X361979Y241301D01*
X362830Y240948D01*
X363244Y240894D01*
Y244358D01*
Y247822D01*
X362830Y247768D01*
X361979Y247415D01*
X361248Y246854D01*
X360687Y246123D01*
X360589Y245887D01*
X359776D01*
Y248307D01*
D02*
G37*
G36*
X246776D02*
X244504D01*
Y244354D01*
Y240402D01*
X246776D01*
Y242829D01*
X247765D01*
X247863Y242593D01*
X248424Y241862D01*
X249155Y241301D01*
X250006Y240948D01*
X250420Y240894D01*
Y244358D01*
Y247822D01*
X250006Y247768D01*
X249155Y247415D01*
X248424Y246854D01*
X247863Y246123D01*
X247765Y245887D01*
X246776D01*
Y248307D01*
D02*
G37*
G36*
X163898D02*
X161626D01*
Y244354D01*
Y240402D01*
X163898D01*
Y242829D01*
X164709D01*
X164806Y242593D01*
X165367Y241862D01*
X166099Y241301D01*
X166950Y240948D01*
X167364Y240894D01*
Y244358D01*
Y247822D01*
X166950Y247768D01*
X166099Y247415D01*
X165367Y246854D01*
X164806Y246123D01*
X164709Y245887D01*
X163898D01*
Y248307D01*
D02*
G37*
G36*
X638898D02*
X636626D01*
Y244354D01*
Y240402D01*
X638898D01*
Y242825D01*
X639945D01*
X640043Y242589D01*
X640604Y241858D01*
X641335Y241297D01*
X642186Y240944D01*
X642600Y240890D01*
Y244354D01*
Y247819D01*
X642186Y247764D01*
X641335Y247412D01*
X640604Y246851D01*
X640043Y246119D01*
X639945Y245884D01*
X638898D01*
Y248307D01*
D02*
G37*
G36*
X665286Y247868D02*
X664377Y247749D01*
X663531Y247398D01*
X662804Y246840D01*
X662246Y246113D01*
X661895Y245267D01*
X661776Y244358D01*
X661895Y243449D01*
X662246Y242603D01*
X662804Y241876D01*
X663531Y241318D01*
X664377Y240967D01*
X665286Y240848D01*
X666194Y240967D01*
X667041Y241318D01*
X667768Y241876D01*
X668326Y242603D01*
X668677Y243449D01*
X668796Y244358D01*
X668677Y245267D01*
X668326Y246113D01*
X667768Y246840D01*
X667041Y247398D01*
X666194Y247749D01*
X665286Y247868D01*
D02*
G37*
G36*
X619714D02*
X618806Y247749D01*
X617959Y247398D01*
X617232Y246840D01*
X616674Y246113D01*
X616323Y245267D01*
X616204Y244358D01*
X616323Y243449D01*
X616674Y242603D01*
X617232Y241876D01*
X617959Y241318D01*
X618806Y240967D01*
X619714Y240848D01*
X620622Y240967D01*
X621469Y241318D01*
X622196Y241876D01*
X622754Y242603D01*
X623105Y243449D01*
X623224Y244358D01*
X623105Y245267D01*
X622754Y246113D01*
X622196Y246840D01*
X621469Y247398D01*
X620622Y247749D01*
X619714Y247868D01*
D02*
G37*
G36*
X582094D02*
X581185Y247749D01*
X580339Y247398D01*
X579612Y246840D01*
X579054Y246113D01*
X578703Y245267D01*
X578584Y244358D01*
X578703Y243449D01*
X579054Y242603D01*
X579612Y241876D01*
X580339Y241318D01*
X581185Y240967D01*
X582094Y240848D01*
X583003Y240967D01*
X583849Y241318D01*
X584576Y241876D01*
X585134Y242603D01*
X585485Y243449D01*
X585604Y244358D01*
X585485Y245267D01*
X585134Y246113D01*
X584576Y246840D01*
X583849Y247398D01*
X583003Y247749D01*
X582094Y247868D01*
D02*
G37*
G36*
X536522D02*
X535613Y247749D01*
X534767Y247398D01*
X534040Y246840D01*
X533482Y246113D01*
X533131Y245267D01*
X533012Y244358D01*
X533131Y243449D01*
X533482Y242603D01*
X534040Y241876D01*
X534767Y241318D01*
X535613Y240967D01*
X536522Y240848D01*
X537430Y240967D01*
X538277Y241318D01*
X539004Y241876D01*
X539562Y242603D01*
X539913Y243449D01*
X540032Y244358D01*
X539913Y245267D01*
X539562Y246113D01*
X539004Y246840D01*
X538277Y247398D01*
X537430Y247749D01*
X536522Y247868D01*
D02*
G37*
G36*
X469286D02*
X468377Y247749D01*
X467531Y247398D01*
X466804Y246840D01*
X466246Y246113D01*
X465895Y245267D01*
X465776Y244358D01*
X465895Y243449D01*
X466246Y242603D01*
X466804Y241876D01*
X467531Y241318D01*
X468377Y240967D01*
X469286Y240848D01*
X470194Y240967D01*
X471041Y241318D01*
X471768Y241876D01*
X472326Y242603D01*
X472677Y243449D01*
X472796Y244358D01*
X472677Y245267D01*
X472326Y246113D01*
X471768Y246840D01*
X471041Y247398D01*
X470194Y247749D01*
X469286Y247868D01*
D02*
G37*
G36*
X423714D02*
X422806Y247749D01*
X421959Y247398D01*
X421232Y246840D01*
X420674Y246113D01*
X420323Y245267D01*
X420204Y244358D01*
X420323Y243449D01*
X420674Y242603D01*
X421232Y241876D01*
X421959Y241318D01*
X422806Y240967D01*
X423714Y240848D01*
X424622Y240967D01*
X425469Y241318D01*
X426196Y241876D01*
X426754Y242603D01*
X427105Y243449D01*
X427224Y244358D01*
X427105Y245267D01*
X426754Y246113D01*
X426196Y246840D01*
X425469Y247398D01*
X424622Y247749D01*
X423714Y247868D01*
D02*
G37*
G36*
X386286D02*
X385378Y247749D01*
X384531Y247398D01*
X383804Y246840D01*
X383246Y246113D01*
X382895Y245267D01*
X382776Y244358D01*
X382895Y243449D01*
X383246Y242603D01*
X383804Y241876D01*
X384531Y241318D01*
X385378Y240967D01*
X386286Y240848D01*
X387194Y240967D01*
X388041Y241318D01*
X388768Y241876D01*
X389326Y242603D01*
X389677Y243449D01*
X389796Y244358D01*
X389677Y245267D01*
X389326Y246113D01*
X388768Y246840D01*
X388041Y247398D01*
X387194Y247749D01*
X386286Y247868D01*
D02*
G37*
G36*
X340714D02*
X339806Y247749D01*
X338959Y247398D01*
X338232Y246840D01*
X337674Y246113D01*
X337323Y245267D01*
X337204Y244358D01*
X337323Y243449D01*
X337674Y242603D01*
X338232Y241876D01*
X338959Y241318D01*
X339806Y240967D01*
X340714Y240848D01*
X341622Y240967D01*
X342469Y241318D01*
X343196Y241876D01*
X343754Y242603D01*
X344105Y243449D01*
X344224Y244358D01*
X344105Y245267D01*
X343754Y246113D01*
X343196Y246840D01*
X342469Y247398D01*
X341622Y247749D01*
X340714Y247868D01*
D02*
G37*
G36*
X273286D02*
X272377Y247749D01*
X271531Y247398D01*
X270804Y246840D01*
X270246Y246113D01*
X269895Y245267D01*
X269776Y244358D01*
X269895Y243449D01*
X270246Y242603D01*
X270804Y241876D01*
X271531Y241318D01*
X272377Y240967D01*
X273286Y240848D01*
X274195Y240967D01*
X275041Y241318D01*
X275768Y241876D01*
X276326Y242603D01*
X276677Y243449D01*
X276796Y244358D01*
X276677Y245267D01*
X276326Y246113D01*
X275768Y246840D01*
X275041Y247398D01*
X274195Y247749D01*
X273286Y247868D01*
D02*
G37*
G36*
X227714D02*
X226805Y247749D01*
X225959Y247398D01*
X225232Y246840D01*
X224674Y246113D01*
X224323Y245267D01*
X224204Y244358D01*
X224323Y243449D01*
X224674Y242603D01*
X225232Y241876D01*
X225959Y241318D01*
X226805Y240967D01*
X227714Y240848D01*
X228623Y240967D01*
X229469Y241318D01*
X230196Y241876D01*
X230754Y242603D01*
X231105Y243449D01*
X231224Y244358D01*
X231105Y245267D01*
X230754Y246113D01*
X230196Y246840D01*
X229469Y247398D01*
X228623Y247749D01*
X227714Y247868D01*
D02*
G37*
G36*
X190230D02*
X189321Y247749D01*
X188475Y247398D01*
X187748Y246840D01*
X187190Y246113D01*
X186839Y245267D01*
X186720Y244358D01*
X186839Y243449D01*
X187190Y242603D01*
X187748Y241876D01*
X188475Y241318D01*
X189321Y240967D01*
X190230Y240848D01*
X191139Y240967D01*
X191985Y241318D01*
X192712Y241876D01*
X193270Y242603D01*
X193621Y243449D01*
X193740Y244358D01*
X193621Y245267D01*
X193270Y246113D01*
X192712Y246840D01*
X191985Y247398D01*
X191139Y247749D01*
X190230Y247868D01*
D02*
G37*
G36*
X144658D02*
X143749Y247749D01*
X142903Y247398D01*
X142176Y246840D01*
X141618Y246113D01*
X141267Y245267D01*
X141148Y244358D01*
X141267Y243449D01*
X141618Y242603D01*
X142176Y241876D01*
X142903Y241318D01*
X143749Y240967D01*
X144658Y240848D01*
X145566Y240967D01*
X146413Y241318D01*
X147140Y241876D01*
X147698Y242603D01*
X148049Y243449D01*
X148168Y244358D01*
X148049Y245267D01*
X147698Y246113D01*
X147140Y246840D01*
X146413Y247398D01*
X145566Y247749D01*
X144658Y247868D01*
D02*
G37*
G36*
X635626Y243854D02*
X633354D01*
Y240402D01*
X635626D01*
Y243854D01*
D02*
G37*
G36*
X552312Y243854D02*
X550040D01*
Y240402D01*
X552312D01*
Y243854D01*
D02*
G37*
G36*
X439626Y243854D02*
X437354D01*
Y240402D01*
X439626D01*
Y243854D01*
D02*
G37*
G36*
X356504Y243854D02*
X354232D01*
Y240402D01*
X356504D01*
Y243854D01*
D02*
G37*
G36*
X243504Y243854D02*
X241232D01*
Y240402D01*
X243504D01*
Y243854D01*
D02*
G37*
G36*
X160626D02*
X158354D01*
Y240402D01*
X160626D01*
Y243854D01*
D02*
G37*
G36*
X626340Y238269D02*
X625431Y238150D01*
X624585Y237799D01*
X623858Y237241D01*
X623300Y236514D01*
X622949Y235667D01*
X622830Y234759D01*
X622949Y233851D01*
X623300Y233004D01*
X623858Y232277D01*
X624585Y231719D01*
X625431Y231368D01*
X626340Y231249D01*
X627248Y231368D01*
X628095Y231719D01*
X628822Y232277D01*
X629380Y233004D01*
X629731Y233851D01*
X629850Y234759D01*
X629731Y235667D01*
X629380Y236514D01*
X628822Y237241D01*
X628095Y237799D01*
X627248Y238150D01*
X626340Y238269D01*
D02*
G37*
G36*
X575468D02*
X574559Y238150D01*
X573713Y237799D01*
X572986Y237241D01*
X572428Y236514D01*
X572077Y235667D01*
X571958Y234759D01*
X572077Y233851D01*
X572428Y233004D01*
X572986Y232277D01*
X573713Y231719D01*
X574559Y231368D01*
X575468Y231249D01*
X576376Y231368D01*
X577223Y231719D01*
X577950Y232277D01*
X578508Y233004D01*
X578859Y233851D01*
X578978Y234759D01*
X578859Y235667D01*
X578508Y236514D01*
X577950Y237241D01*
X577223Y237799D01*
X576376Y238150D01*
X575468Y238269D01*
D02*
G37*
G36*
X543148D02*
X542240Y238150D01*
X541393Y237799D01*
X540666Y237241D01*
X540108Y236514D01*
X539757Y235667D01*
X539638Y234759D01*
X539757Y233851D01*
X540108Y233004D01*
X540666Y232277D01*
X541393Y231719D01*
X542240Y231368D01*
X543148Y231249D01*
X544057Y231368D01*
X544903Y231719D01*
X545630Y232277D01*
X546188Y233004D01*
X546539Y233851D01*
X546658Y234759D01*
X546539Y235667D01*
X546188Y236514D01*
X545630Y237241D01*
X544903Y237799D01*
X544057Y238150D01*
X543148Y238269D01*
D02*
G37*
G36*
X462660D02*
X461752Y238150D01*
X460905Y237799D01*
X460178Y237241D01*
X459620Y236514D01*
X459269Y235667D01*
X459150Y234759D01*
X459269Y233851D01*
X459620Y233004D01*
X460178Y232277D01*
X460905Y231719D01*
X461752Y231368D01*
X462660Y231249D01*
X463568Y231368D01*
X464415Y231719D01*
X465142Y232277D01*
X465700Y233004D01*
X466051Y233851D01*
X466170Y234759D01*
X466051Y235667D01*
X465700Y236514D01*
X465142Y237241D01*
X464415Y237799D01*
X463568Y238150D01*
X462660Y238269D01*
D02*
G37*
G36*
X430340D02*
X429431Y238150D01*
X428585Y237799D01*
X427858Y237241D01*
X427300Y236514D01*
X426949Y235667D01*
X426830Y234759D01*
X426949Y233851D01*
X427300Y233004D01*
X427858Y232277D01*
X428585Y231719D01*
X429431Y231368D01*
X430340Y231249D01*
X431249Y231368D01*
X432095Y231719D01*
X432822Y232277D01*
X433380Y233004D01*
X433731Y233851D01*
X433850Y234759D01*
X433731Y235667D01*
X433380Y236514D01*
X432822Y237241D01*
X432095Y237799D01*
X431249Y238150D01*
X430340Y238269D01*
D02*
G37*
G36*
X379660D02*
X378751Y238150D01*
X377905Y237799D01*
X377178Y237241D01*
X376620Y236514D01*
X376269Y235667D01*
X376150Y234759D01*
X376269Y233851D01*
X376620Y233004D01*
X377178Y232277D01*
X377905Y231719D01*
X378751Y231368D01*
X379660Y231249D01*
X380569Y231368D01*
X381415Y231719D01*
X382142Y232277D01*
X382700Y233004D01*
X383051Y233851D01*
X383170Y234759D01*
X383051Y235667D01*
X382700Y236514D01*
X382142Y237241D01*
X381415Y237799D01*
X380569Y238150D01*
X379660Y238269D01*
D02*
G37*
G36*
X347340D02*
X346431Y238150D01*
X345585Y237799D01*
X344858Y237241D01*
X344300Y236514D01*
X343949Y235667D01*
X343830Y234759D01*
X343949Y233851D01*
X344300Y233004D01*
X344858Y232277D01*
X345585Y231719D01*
X346431Y231368D01*
X347340Y231249D01*
X348249Y231368D01*
X349095Y231719D01*
X349822Y232277D01*
X350380Y233004D01*
X350731Y233851D01*
X350850Y234759D01*
X350731Y235667D01*
X350380Y236514D01*
X349822Y237241D01*
X349095Y237799D01*
X348249Y238150D01*
X347340Y238269D01*
D02*
G37*
G36*
X266660D02*
X265752Y238150D01*
X264905Y237799D01*
X264178Y237241D01*
X263620Y236514D01*
X263269Y235667D01*
X263150Y234759D01*
X263269Y233851D01*
X263620Y233004D01*
X264178Y232277D01*
X264905Y231719D01*
X265752Y231368D01*
X266660Y231249D01*
X267568Y231368D01*
X268415Y231719D01*
X269142Y232277D01*
X269700Y233004D01*
X270051Y233851D01*
X270170Y234759D01*
X270051Y235667D01*
X269700Y236514D01*
X269142Y237241D01*
X268415Y237799D01*
X267568Y238150D01*
X266660Y238269D01*
D02*
G37*
G36*
X234340D02*
X233432Y238150D01*
X232585Y237799D01*
X231858Y237241D01*
X231300Y236514D01*
X230949Y235667D01*
X230830Y234759D01*
X230949Y233851D01*
X231300Y233004D01*
X231858Y232277D01*
X232585Y231719D01*
X233432Y231368D01*
X234340Y231249D01*
X235248Y231368D01*
X236095Y231719D01*
X236822Y232277D01*
X237380Y233004D01*
X237731Y233851D01*
X237850Y234759D01*
X237731Y235667D01*
X237380Y236514D01*
X236822Y237241D01*
X236095Y237799D01*
X235248Y238150D01*
X234340Y238269D01*
D02*
G37*
G36*
X183604D02*
X182695Y238150D01*
X181849Y237799D01*
X181122Y237241D01*
X180564Y236514D01*
X180213Y235667D01*
X180094Y234759D01*
X180213Y233851D01*
X180564Y233004D01*
X181122Y232277D01*
X181849Y231719D01*
X182695Y231368D01*
X183604Y231249D01*
X184512Y231368D01*
X185359Y231719D01*
X186086Y232277D01*
X186644Y233004D01*
X186995Y233851D01*
X187114Y234759D01*
X186995Y235667D01*
X186644Y236514D01*
X186086Y237241D01*
X185359Y237799D01*
X184512Y238150D01*
X183604Y238269D01*
D02*
G37*
G36*
X151284D02*
X150375Y238150D01*
X149529Y237799D01*
X148802Y237241D01*
X148244Y236514D01*
X147893Y235667D01*
X147774Y234759D01*
X147893Y233851D01*
X148244Y233004D01*
X148802Y232277D01*
X149529Y231719D01*
X150375Y231368D01*
X151284Y231249D01*
X152192Y231368D01*
X153039Y231719D01*
X153766Y232277D01*
X154324Y233004D01*
X154675Y233851D01*
X154794Y234759D01*
X154675Y235667D01*
X154324Y236514D01*
X153766Y237241D01*
X153039Y237799D01*
X152192Y238150D01*
X151284Y238269D01*
D02*
G37*
G36*
X648332Y232848D02*
X647424Y232729D01*
X646577Y232378D01*
X645850Y231820D01*
X645292Y231093D01*
X644941Y230246D01*
X644822Y229338D01*
X644941Y228430D01*
X645292Y227583D01*
X645850Y226856D01*
X646577Y226298D01*
X647424Y225947D01*
X648332Y225828D01*
X649240Y225947D01*
X650087Y226298D01*
X650814Y226856D01*
X651372Y227583D01*
X651723Y228430D01*
X651842Y229338D01*
X651723Y230246D01*
X651372Y231093D01*
X650814Y231820D01*
X650087Y232378D01*
X649240Y232729D01*
X648332Y232848D01*
D02*
G37*
G36*
X636668D02*
X635759Y232729D01*
X634913Y232378D01*
X634186Y231820D01*
X633628Y231093D01*
X633277Y230246D01*
X633158Y229338D01*
X633277Y228430D01*
X633628Y227583D01*
X634186Y226856D01*
X634913Y226298D01*
X635759Y225947D01*
X636668Y225828D01*
X637576Y225947D01*
X638423Y226298D01*
X639150Y226856D01*
X639708Y227583D01*
X640059Y228430D01*
X640178Y229338D01*
X640059Y230246D01*
X639708Y231093D01*
X639150Y231820D01*
X638423Y232378D01*
X637576Y232729D01*
X636668Y232848D01*
D02*
G37*
G36*
X565140D02*
X564231Y232729D01*
X563385Y232378D01*
X562658Y231820D01*
X562100Y231093D01*
X561749Y230246D01*
X561630Y229338D01*
X561749Y228430D01*
X562100Y227583D01*
X562658Y226856D01*
X563385Y226298D01*
X564231Y225947D01*
X565140Y225828D01*
X566048Y225947D01*
X566895Y226298D01*
X567622Y226856D01*
X568180Y227583D01*
X568531Y228430D01*
X568650Y229338D01*
X568531Y230246D01*
X568180Y231093D01*
X567622Y231820D01*
X566895Y232378D01*
X566048Y232729D01*
X565140Y232848D01*
D02*
G37*
G36*
X553476D02*
X552567Y232729D01*
X551721Y232378D01*
X550994Y231820D01*
X550436Y231093D01*
X550085Y230246D01*
X549966Y229338D01*
X550085Y228430D01*
X550436Y227583D01*
X550994Y226856D01*
X551721Y226298D01*
X552567Y225947D01*
X553476Y225828D01*
X554385Y225947D01*
X555231Y226298D01*
X555958Y226856D01*
X556516Y227583D01*
X556867Y228430D01*
X556986Y229338D01*
X556867Y230246D01*
X556516Y231093D01*
X555958Y231820D01*
X555231Y232378D01*
X554385Y232729D01*
X553476Y232848D01*
D02*
G37*
G36*
X452332D02*
X451424Y232729D01*
X450577Y232378D01*
X449850Y231820D01*
X449292Y231093D01*
X448941Y230246D01*
X448822Y229338D01*
X448941Y228430D01*
X449292Y227583D01*
X449850Y226856D01*
X450577Y226298D01*
X451424Y225947D01*
X452332Y225828D01*
X453240Y225947D01*
X454087Y226298D01*
X454814Y226856D01*
X455372Y227583D01*
X455723Y228430D01*
X455842Y229338D01*
X455723Y230246D01*
X455372Y231093D01*
X454814Y231820D01*
X454087Y232378D01*
X453240Y232729D01*
X452332Y232848D01*
D02*
G37*
G36*
X440668D02*
X439759Y232729D01*
X438913Y232378D01*
X438186Y231820D01*
X437628Y231093D01*
X437277Y230246D01*
X437158Y229338D01*
X437277Y228430D01*
X437628Y227583D01*
X438186Y226856D01*
X438913Y226298D01*
X439759Y225947D01*
X440668Y225828D01*
X441576Y225947D01*
X442423Y226298D01*
X443150Y226856D01*
X443708Y227583D01*
X444059Y228430D01*
X444178Y229338D01*
X444059Y230246D01*
X443708Y231093D01*
X443150Y231820D01*
X442423Y232378D01*
X441576Y232729D01*
X440668Y232848D01*
D02*
G37*
G36*
X369332D02*
X368424Y232729D01*
X367577Y232378D01*
X366850Y231820D01*
X366292Y231093D01*
X365941Y230246D01*
X365822Y229338D01*
X365941Y228430D01*
X366292Y227583D01*
X366850Y226856D01*
X367577Y226298D01*
X368424Y225947D01*
X369332Y225828D01*
X370240Y225947D01*
X371087Y226298D01*
X371814Y226856D01*
X372372Y227583D01*
X372723Y228430D01*
X372842Y229338D01*
X372723Y230246D01*
X372372Y231093D01*
X371814Y231820D01*
X371087Y232378D01*
X370240Y232729D01*
X369332Y232848D01*
D02*
G37*
G36*
X357668D02*
X356760Y232729D01*
X355913Y232378D01*
X355186Y231820D01*
X354628Y231093D01*
X354277Y230246D01*
X354158Y229338D01*
X354277Y228430D01*
X354628Y227583D01*
X355186Y226856D01*
X355913Y226298D01*
X356760Y225947D01*
X357668Y225828D01*
X358576Y225947D01*
X359423Y226298D01*
X360150Y226856D01*
X360708Y227583D01*
X361059Y228430D01*
X361178Y229338D01*
X361059Y230246D01*
X360708Y231093D01*
X360150Y231820D01*
X359423Y232378D01*
X358576Y232729D01*
X357668Y232848D01*
D02*
G37*
G36*
X256332D02*
X255423Y232729D01*
X254577Y232378D01*
X253850Y231820D01*
X253292Y231093D01*
X252941Y230246D01*
X252822Y229338D01*
X252941Y228430D01*
X253292Y227583D01*
X253850Y226856D01*
X254577Y226298D01*
X255423Y225947D01*
X256332Y225828D01*
X257241Y225947D01*
X258087Y226298D01*
X258814Y226856D01*
X259372Y227583D01*
X259723Y228430D01*
X259842Y229338D01*
X259723Y230246D01*
X259372Y231093D01*
X258814Y231820D01*
X258087Y232378D01*
X257241Y232729D01*
X256332Y232848D01*
D02*
G37*
G36*
X244668D02*
X243759Y232729D01*
X242913Y232378D01*
X242186Y231820D01*
X241628Y231093D01*
X241277Y230246D01*
X241158Y229338D01*
X241277Y228430D01*
X241628Y227583D01*
X242186Y226856D01*
X242913Y226298D01*
X243759Y225947D01*
X244668Y225828D01*
X245577Y225947D01*
X246423Y226298D01*
X247150Y226856D01*
X247708Y227583D01*
X248059Y228430D01*
X248178Y229338D01*
X248059Y230246D01*
X247708Y231093D01*
X247150Y231820D01*
X246423Y232378D01*
X245577Y232729D01*
X244668Y232848D01*
D02*
G37*
G36*
X173276D02*
X172368Y232729D01*
X171521Y232378D01*
X170794Y231820D01*
X170236Y231093D01*
X169885Y230246D01*
X169766Y229338D01*
X169885Y228430D01*
X170236Y227583D01*
X170794Y226856D01*
X171521Y226298D01*
X172368Y225947D01*
X173276Y225828D01*
X174185Y225947D01*
X175031Y226298D01*
X175758Y226856D01*
X176316Y227583D01*
X176667Y228430D01*
X176786Y229338D01*
X176667Y230246D01*
X176316Y231093D01*
X175758Y231820D01*
X175031Y232378D01*
X174185Y232729D01*
X173276Y232848D01*
D02*
G37*
G36*
X161612D02*
X160704Y232729D01*
X159857Y232378D01*
X159130Y231820D01*
X158572Y231093D01*
X158221Y230246D01*
X158102Y229338D01*
X158221Y228430D01*
X158572Y227583D01*
X159130Y226856D01*
X159857Y226298D01*
X160704Y225947D01*
X161612Y225828D01*
X162521Y225947D01*
X163367Y226298D01*
X164094Y226856D01*
X164652Y227583D01*
X165003Y228430D01*
X165122Y229338D01*
X165003Y230246D01*
X164652Y231093D01*
X164094Y231820D01*
X163367Y232378D01*
X162521Y232729D01*
X161612Y232848D01*
D02*
G37*
G36*
X683500Y176417D02*
X681760Y176246D01*
X680088Y175738D01*
X678546Y174914D01*
X677195Y173805D01*
X676086Y172454D01*
X675262Y170912D01*
X674754Y169240D01*
X674583Y167500D01*
X674754Y165760D01*
X675262Y164088D01*
X676086Y162546D01*
X677195Y161195D01*
X678546Y160086D01*
X680088Y159262D01*
X681760Y158754D01*
X683500Y158583D01*
X685240Y158754D01*
X686912Y159262D01*
X688454Y160086D01*
X689805Y161195D01*
X690914Y162546D01*
X691738Y164088D01*
X692246Y165760D01*
X692417Y167500D01*
X692246Y169240D01*
X691738Y170912D01*
X690914Y172454D01*
X689805Y173805D01*
X688454Y174914D01*
X686912Y175738D01*
X685240Y176246D01*
X683500Y176417D01*
D02*
G37*
G36*
X546000D02*
X544260Y176246D01*
X542588Y175738D01*
X541046Y174914D01*
X539695Y173805D01*
X538586Y172454D01*
X537762Y170912D01*
X537254Y169240D01*
X537083Y167500D01*
X537254Y165760D01*
X537762Y164088D01*
X538586Y162546D01*
X539695Y161195D01*
X541046Y160086D01*
X542588Y159262D01*
X544260Y158754D01*
X546000Y158583D01*
X547740Y158754D01*
X549412Y159262D01*
X550954Y160086D01*
X552305Y161195D01*
X553414Y162546D01*
X554238Y164088D01*
X554746Y165760D01*
X554917Y167500D01*
X554746Y169240D01*
X554238Y170912D01*
X553414Y172454D01*
X552305Y173805D01*
X550954Y174914D01*
X549412Y175738D01*
X547740Y176246D01*
X546000Y176417D01*
D02*
G37*
G36*
X262000D02*
X260260Y176246D01*
X258588Y175738D01*
X257046Y174914D01*
X255695Y173805D01*
X254586Y172454D01*
X253762Y170912D01*
X253254Y169240D01*
X253083Y167500D01*
X253254Y165760D01*
X253762Y164088D01*
X254586Y162546D01*
X255695Y161195D01*
X257046Y160086D01*
X258588Y159262D01*
X260260Y158754D01*
X262000Y158583D01*
X263740Y158754D01*
X265412Y159262D01*
X266954Y160086D01*
X268305Y161195D01*
X269414Y162546D01*
X270238Y164088D01*
X270746Y165760D01*
X270917Y167500D01*
X270746Y169240D01*
X270238Y170912D01*
X269414Y172454D01*
X268305Y173805D01*
X266954Y174914D01*
X265412Y175738D01*
X263740Y176246D01*
X262000Y176417D01*
D02*
G37*
G36*
X126500D02*
X124760Y176246D01*
X123088Y175738D01*
X121546Y174914D01*
X120195Y173805D01*
X119086Y172454D01*
X118262Y170912D01*
X117754Y169240D01*
X117583Y167500D01*
X117754Y165760D01*
X118262Y164088D01*
X119086Y162546D01*
X120195Y161195D01*
X121546Y160086D01*
X123088Y159262D01*
X124760Y158754D01*
X126500Y158583D01*
X128240Y158754D01*
X129912Y159262D01*
X131454Y160086D01*
X132805Y161195D01*
X133914Y162546D01*
X134738Y164088D01*
X135246Y165760D01*
X135417Y167500D01*
X135246Y169240D01*
X134738Y170912D01*
X133914Y172454D01*
X132805Y173805D01*
X131454Y174914D01*
X129912Y175738D01*
X128240Y176246D01*
X126500Y176417D01*
D02*
G37*
%LPD*%
D12*
X633224Y255937D02*
X636126Y258839D01*
Y263646D01*
X649118Y243173D02*
Y244354D01*
Y243173D02*
X652791Y239500D01*
X652916D01*
X258268Y246000D02*
X264164D01*
X552816Y244358D02*
X559126D01*
X552812Y244354D02*
X552816Y244358D01*
X559126Y263653D02*
X565797D01*
X636126Y244354D02*
X643100D01*
X440126D02*
X440374Y244602D01*
X446500D01*
X357004Y244354D02*
X357008Y244358D01*
X363744D01*
X244004Y244354D02*
X244008Y244358D01*
X250920D01*
X256996Y244728D02*
X258268Y246000D01*
X256996Y244354D02*
Y244728D01*
X161126Y244354D02*
X161130Y244358D01*
X167864D01*
X174118Y245535D02*
X181000Y252417D01*
Y253209D01*
X174118Y244354D02*
Y245535D01*
X244004Y262465D02*
Y263646D01*
X240485Y258946D02*
X244004Y262465D01*
X240485Y257265D02*
Y258946D01*
X239720Y256500D02*
X240485Y257265D01*
X354265Y256765D02*
Y259726D01*
X357004Y262465D01*
Y263646D01*
X353500Y256000D02*
X354265Y256765D01*
X369996Y244354D02*
Y245535D01*
X374479Y250019D01*
Y251235D01*
X375245Y252000D01*
X435765Y258104D02*
X440126Y262465D01*
Y263646D01*
X459000Y248528D02*
Y250500D01*
X453972Y243500D02*
X459000Y248528D01*
X453118Y244354D02*
X453972Y243500D01*
X551540Y262374D02*
X552812Y263646D01*
X551540Y259060D02*
Y262374D01*
X549500Y255937D02*
Y257019D01*
X551540Y259060D01*
X565804Y244354D02*
X565808Y244358D01*
X572500D01*
X642500Y263646D02*
X649118D01*
X565797Y263653D02*
X565804Y263646D01*
X453111Y263653D02*
X453118Y263646D01*
X446500Y263653D02*
X453111D01*
X363500Y263646D02*
X369996D01*
X250920D02*
X256996D01*
X167864D02*
X174118D01*
D18*
X161126Y244354D02*
D03*
X174118D02*
D03*
X161126Y263646D02*
D03*
X174118D02*
D03*
X244004Y244354D02*
D03*
X256996D02*
D03*
X244004Y263646D02*
D03*
X256996D02*
D03*
X357004Y244354D02*
D03*
X369996D02*
D03*
X357004Y263646D02*
D03*
X369996D02*
D03*
X440126Y244354D02*
D03*
X453118D02*
D03*
X440126Y263646D02*
D03*
X453118D02*
D03*
X552812Y244354D02*
D03*
X565804D02*
D03*
X552812Y263646D02*
D03*
X565804D02*
D03*
X636126Y244354D02*
D03*
X649118D02*
D03*
X636126Y263646D02*
D03*
X649118D02*
D03*
D19*
X414000Y342000D02*
D03*
X424000D02*
D03*
X404000D02*
D03*
X394000D02*
D03*
X384000D02*
D03*
X374000D02*
D03*
D20*
X434000D02*
D03*
D21*
X631175Y274578D02*
D03*
X653825D02*
D03*
X642500Y277370D02*
D03*
X618308Y255937D02*
D03*
X619714Y244358D02*
D03*
X626340Y234759D02*
D03*
X636668Y229338D02*
D03*
X648332D02*
D03*
X658660Y234759D02*
D03*
X665286Y244358D02*
D03*
X666692Y255937D02*
D03*
X662556Y266844D02*
D03*
X622444D02*
D03*
X539252D02*
D03*
X579364D02*
D03*
X583500Y255937D02*
D03*
X582094Y244358D02*
D03*
X575468Y234759D02*
D03*
X565140Y229338D02*
D03*
X553476D02*
D03*
X543148Y234759D02*
D03*
X536522Y244358D02*
D03*
X535116Y255937D02*
D03*
X559308Y277370D02*
D03*
X570633Y274578D02*
D03*
X547983D02*
D03*
X435175D02*
D03*
X457825D02*
D03*
X446500Y277370D02*
D03*
X422308Y255937D02*
D03*
X423714Y244358D02*
D03*
X430340Y234759D02*
D03*
X440668Y229338D02*
D03*
X452332D02*
D03*
X462660Y234759D02*
D03*
X469286Y244358D02*
D03*
X470692Y255937D02*
D03*
X466556Y266844D02*
D03*
X426444D02*
D03*
X343444D02*
D03*
X383556D02*
D03*
X387692Y255937D02*
D03*
X386286Y244358D02*
D03*
X379660Y234759D02*
D03*
X369332Y229338D02*
D03*
X357668D02*
D03*
X347340Y234759D02*
D03*
X340714Y244358D02*
D03*
X339308Y255937D02*
D03*
X363500Y277370D02*
D03*
X374825Y274578D02*
D03*
X352175D02*
D03*
X239175D02*
D03*
X261825D02*
D03*
X250500Y277370D02*
D03*
X226308Y255937D02*
D03*
X227714Y244358D02*
D03*
X234340Y234759D02*
D03*
X244668Y229338D02*
D03*
X256332D02*
D03*
X266660Y234759D02*
D03*
X273286Y244358D02*
D03*
X274692Y255937D02*
D03*
X270556Y266844D02*
D03*
X230444D02*
D03*
X147388D02*
D03*
X187500D02*
D03*
X191636Y255937D02*
D03*
X190230Y244358D02*
D03*
X183604Y234759D02*
D03*
X173276Y229338D02*
D03*
X161612D02*
D03*
X151284Y234759D02*
D03*
X144658Y244358D02*
D03*
X143252Y255937D02*
D03*
X167444Y277370D02*
D03*
X178769Y274578D02*
D03*
X156119D02*
D03*
D22*
X633224Y255937D02*
D03*
X254653Y271136D02*
D03*
X564488Y270920D02*
D03*
X365332Y270739D02*
D03*
X170500Y270203D02*
D03*
X652916Y239500D02*
D03*
X647500Y271000D02*
D03*
X264164Y246000D02*
D03*
X446500Y270500D02*
D03*
X559126Y244358D02*
D03*
Y263653D02*
D03*
X643100Y244354D02*
D03*
X446500Y244602D02*
D03*
X363744Y244358D02*
D03*
X250920D02*
D03*
X167864D02*
D03*
X181000Y253209D02*
D03*
X239720Y256500D02*
D03*
X353500Y256000D02*
D03*
X375245Y252000D02*
D03*
X435000Y255937D02*
D03*
X459000Y250500D02*
D03*
X549500Y255937D02*
D03*
X572500Y244358D02*
D03*
X642500Y263646D02*
D03*
X446500Y263653D02*
D03*
X363500Y263646D02*
D03*
X250920D02*
D03*
X167864D02*
D03*
D23*
X683500Y339000D02*
D03*
X126500D02*
D03*
Y167500D02*
D03*
X683500D02*
D03*
X546000Y339000D02*
D03*
X262000D02*
D03*
Y167500D02*
D03*
X546000D02*
D03*
M02*
