G04*
G04 #@! TF.GenerationSoftware,Altium Limited,Altium Designer,21.0.8 (223)*
G04*
G04 Layer_Color=8388736*
%FSLAX25Y25*%
%MOIN*%
G70*
G04*
G04 #@! TF.SameCoordinates,B3F2E434-1899-4535-8EE7-37C191B5E607*
G04*
G04*
G04 #@! TF.FilePolarity,Negative*
G04*
G01*
G75*
%ADD13R,0.04343X0.06706*%
%ADD14C,0.06706*%
%ADD15R,0.06706X0.06706*%
%ADD16C,0.05760*%
%ADD17C,0.16548*%
D13*
X161126Y244354D02*
D03*
X174118D02*
D03*
X161126Y263646D02*
D03*
X174118D02*
D03*
X244004Y244354D02*
D03*
X256996D02*
D03*
X244004Y263646D02*
D03*
X256996D02*
D03*
X357004Y244354D02*
D03*
X369996D02*
D03*
X357004Y263646D02*
D03*
X369996D02*
D03*
X440126Y244354D02*
D03*
X453118D02*
D03*
X440126Y263646D02*
D03*
X453118D02*
D03*
X552812Y244354D02*
D03*
X565804D02*
D03*
X552812Y263646D02*
D03*
X565804D02*
D03*
X636126Y244354D02*
D03*
X649118D02*
D03*
X636126Y263646D02*
D03*
X649118D02*
D03*
D14*
X414000Y342000D02*
D03*
X424000D02*
D03*
X404000D02*
D03*
X394000D02*
D03*
X384000D02*
D03*
X374000D02*
D03*
D15*
X434000D02*
D03*
D16*
X631175Y274578D02*
D03*
X653825D02*
D03*
X642500Y277370D02*
D03*
X618308Y255937D02*
D03*
X619714Y244358D02*
D03*
X626340Y234759D02*
D03*
X636668Y229338D02*
D03*
X648332D02*
D03*
X658660Y234759D02*
D03*
X665286Y244358D02*
D03*
X666692Y255937D02*
D03*
X662556Y266844D02*
D03*
X622444D02*
D03*
X539252D02*
D03*
X579364D02*
D03*
X583500Y255937D02*
D03*
X582094Y244358D02*
D03*
X575468Y234759D02*
D03*
X565140Y229338D02*
D03*
X553476D02*
D03*
X543148Y234759D02*
D03*
X536522Y244358D02*
D03*
X535116Y255937D02*
D03*
X559308Y277370D02*
D03*
X570633Y274578D02*
D03*
X547983D02*
D03*
X435175D02*
D03*
X457825D02*
D03*
X446500Y277370D02*
D03*
X422308Y255937D02*
D03*
X423714Y244358D02*
D03*
X430340Y234759D02*
D03*
X440668Y229338D02*
D03*
X452332D02*
D03*
X462660Y234759D02*
D03*
X469286Y244358D02*
D03*
X470692Y255937D02*
D03*
X466556Y266844D02*
D03*
X426444D02*
D03*
X343444D02*
D03*
X383556D02*
D03*
X387692Y255937D02*
D03*
X386286Y244358D02*
D03*
X379660Y234759D02*
D03*
X369332Y229338D02*
D03*
X357668D02*
D03*
X347340Y234759D02*
D03*
X340714Y244358D02*
D03*
X339308Y255937D02*
D03*
X363500Y277370D02*
D03*
X374825Y274578D02*
D03*
X352175D02*
D03*
X239175D02*
D03*
X261825D02*
D03*
X250500Y277370D02*
D03*
X226308Y255937D02*
D03*
X227714Y244358D02*
D03*
X234340Y234759D02*
D03*
X244668Y229338D02*
D03*
X256332D02*
D03*
X266660Y234759D02*
D03*
X273286Y244358D02*
D03*
X274692Y255937D02*
D03*
X270556Y266844D02*
D03*
X230444D02*
D03*
X147388D02*
D03*
X187500D02*
D03*
X191636Y255937D02*
D03*
X190230Y244358D02*
D03*
X183604Y234759D02*
D03*
X173276Y229338D02*
D03*
X161612D02*
D03*
X151284Y234759D02*
D03*
X144658Y244358D02*
D03*
X143252Y255937D02*
D03*
X167444Y277370D02*
D03*
X178769Y274578D02*
D03*
X156119D02*
D03*
D17*
X683500Y339000D02*
D03*
X126500D02*
D03*
Y167500D02*
D03*
X683500D02*
D03*
X546000Y339000D02*
D03*
X262000D02*
D03*
Y167500D02*
D03*
X546000D02*
D03*
M02*
