M48
;Layer_Color=9474304
;FILE_FORMAT=2:5
INCH,TZ
;TYPE=PLATED
T1F00S00C0.02800
T2F00S00C0.03307
T3F00S00C0.03543
T4F00S00C0.07874
T5F00S00C0.11811
%
T01
X642500Y244358
X636126Y254000
X649000
X642500Y263500
X645000Y291350
X559500Y263500
X566000Y253500
X552812
X559308Y244358
X446500Y244115
X440000Y254000
X453500Y254500
X446622Y263500
X413500Y240500
X363500Y244115
X363500Y263646
X382779Y280000
X272000
X250500Y263646
X250500Y244358
X167622Y244115
X167500Y263646
X187000Y279500
T02
X626340Y234759
X636668Y229338
X648332
X658660Y234759
X665286Y244358
X666692Y255937
X662556Y266844
X653825Y274578
X642500Y277370
X631175Y274578
X622444Y266844
X618308Y255937
X619714Y244358
X582094
X583500Y255937
X579364Y266844
X570633Y274578
X559308Y277370
X547983Y274578
X539252Y266844
X535116Y255937
X536522Y244358
X543148Y234759
X553476Y229338
X565140
X575468Y234759
X469286Y244358
X470692Y255937
X466556Y266844
X457825Y274578
X446500Y277370
X435175Y274578
X426444Y266844
X422308Y255937
X423714Y244358
X430340Y234759
X440668Y229338
X452332
X462660Y234759
X379660
X369332Y229338
X357668
X347340Y234759
X340714Y244358
X339308Y255937
X343444Y266844
X352175Y274578
X363500Y277370
X374825Y274578
X383556Y266844
X387692Y255937
X386286Y244358
X273286
X274692Y255937
X270556Y266844
X261825Y274578
X250500Y277370
X239175Y274578
X230444Y266844
X226308Y255937
X227714Y244358
X234340Y234759
X244668Y229338
X256332
X266660Y234759
X183604
X173276Y229338
X161612
X190230Y244358
X191636Y255937
X187500Y266844
X178769Y274578
X167444Y277370
X156119Y274578
X147388Y266844
X143252Y255937
X144658Y244358
X151284Y234759
T03
X319000Y331500
Y341500
X329000
Y331500
X339000
Y341500
X349000
Y331500
X359000
Y341500
X369000
Y331500
X379000
Y341500
X389000
Y331500
X399000
Y341500
X409000
Y331500
X419000
Y341500
X429000
Y331500
X439000
Y341500
X449000
Y331500
X459000
Y341500
X469000
Y331500
X479000
Y341500
X489000
Y331500
T04
X546000Y167500
X262000
Y339000
X546000
T05
X683500Y167500
X126500
Y339000
X683500
M30
