G04*
G04 #@! TF.GenerationSoftware,Altium Limited,Altium Designer,21.0.8 (223)*
G04*
G04 Layer_Color=32896*
%FSLAX25Y25*%
%MOIN*%
G70*
G04*
G04 #@! TF.SameCoordinates,B3F2E434-1899-4535-8EE7-37C191B5E607*
G04*
G04*
G04 #@! TF.FilePolarity,Positive*
G04*
G01*
G75*
%ADD10C,0.00500*%
%ADD11C,0.00787*%
G36*
X353441Y192995D02*
X353524Y192873D01*
X353618Y192756D01*
X353713Y192656D01*
X353796Y192562D01*
X353835Y192528D01*
X353863Y192495D01*
X353890Y192467D01*
X353912Y192451D01*
X353924Y192440D01*
X353929Y192434D01*
X354079Y192306D01*
X354240Y192195D01*
X354395Y192090D01*
X354540Y192001D01*
X354601Y191968D01*
X354662Y191935D01*
X354717Y191901D01*
X354762Y191879D01*
X354801Y191862D01*
X354828Y191846D01*
X354845Y191840D01*
X354851Y191835D01*
Y191230D01*
X354739Y191274D01*
X354623Y191324D01*
X354512Y191380D01*
X354412Y191430D01*
X354323Y191480D01*
X354284Y191496D01*
X354251Y191518D01*
X354223Y191530D01*
X354207Y191541D01*
X354196Y191552D01*
X354190D01*
X354057Y191635D01*
X353940Y191713D01*
X353835Y191785D01*
X353751Y191851D01*
X353679Y191907D01*
X353629Y191946D01*
X353602Y191973D01*
X353591Y191985D01*
Y187983D01*
X352963D01*
Y193122D01*
X353369D01*
X353441Y192995D01*
D02*
G37*
G36*
X424381Y190636D02*
X426362Y187983D01*
X425546D01*
X424248Y189759D01*
X424214Y189804D01*
X424181Y189859D01*
X424098Y189976D01*
X424059Y190031D01*
X424031Y190075D01*
X424009Y190109D01*
X424003Y190114D01*
Y190120D01*
X423926Y190003D01*
X423892Y189953D01*
X423859Y189909D01*
X423831Y189865D01*
X423809Y189837D01*
X423798Y189815D01*
X423793Y189809D01*
X422494Y187983D01*
X421667D01*
X423587Y190669D01*
X421806Y193106D01*
X422544D01*
X423565Y191740D01*
X423648Y191629D01*
X423732Y191524D01*
X423798Y191424D01*
X423859Y191335D01*
X423909Y191263D01*
X423942Y191213D01*
X423959Y191191D01*
X423970Y191174D01*
X423976Y191169D01*
Y191163D01*
X424026Y191252D01*
X424092Y191358D01*
X424159Y191457D01*
X424226Y191563D01*
X424287Y191652D01*
X424314Y191691D01*
X424336Y191724D01*
X424359Y191752D01*
X424375Y191774D01*
X424381Y191785D01*
X424386Y191790D01*
X425324Y193106D01*
X426129D01*
X424381Y190636D01*
D02*
G37*
G36*
X371401Y187983D02*
X370724D01*
Y189759D01*
X369885Y190569D01*
X368065Y187983D01*
X367166D01*
X369408Y191030D01*
X367260Y193106D01*
X368182D01*
X370724Y190569D01*
Y193106D01*
X371401D01*
Y187983D01*
D02*
G37*
G36*
X357786Y189520D02*
X355849D01*
Y190153D01*
X357786D01*
Y189520D01*
D02*
G37*
G36*
X433000Y187983D02*
X432351D01*
Y192001D01*
X429665Y187983D01*
X428965D01*
Y193106D01*
X429614D01*
Y189082D01*
X432306Y193106D01*
X433000D01*
Y187983D01*
D02*
G37*
G36*
X362632Y187983D02*
X361982D01*
Y192001D01*
X359296Y187983D01*
X358597D01*
Y193106D01*
X359246D01*
Y189082D01*
X361938Y193106D01*
X362632D01*
Y187983D01*
D02*
G37*
G36*
X407942Y190148D02*
Y189998D01*
X407931Y189859D01*
X407925Y189726D01*
X407908Y189604D01*
X407897Y189487D01*
X407881Y189382D01*
X407864Y189287D01*
X407842Y189199D01*
X407825Y189121D01*
X407809Y189054D01*
X407792Y188993D01*
X407775Y188949D01*
X407764Y188910D01*
X407753Y188882D01*
X407748Y188865D01*
Y188860D01*
X407709Y188777D01*
X407664Y188693D01*
X407564Y188549D01*
X407459Y188427D01*
X407348Y188327D01*
X407298Y188283D01*
X407254Y188250D01*
X407209Y188216D01*
X407170Y188188D01*
X407142Y188172D01*
X407120Y188155D01*
X407104Y188150D01*
X407098Y188144D01*
X407009Y188100D01*
X406915Y188066D01*
X406721Y188005D01*
X406521Y187961D01*
X406332Y187933D01*
X406249Y187922D01*
X406166Y187911D01*
X406099Y187905D01*
X406038D01*
X405988Y187900D01*
X405916D01*
X405783Y187905D01*
X405655Y187911D01*
X405533Y187928D01*
X405416Y187944D01*
X405311Y187966D01*
X405211Y187989D01*
X405122Y188016D01*
X405045Y188044D01*
X404967Y188066D01*
X404906Y188094D01*
X404850Y188116D01*
X404806Y188138D01*
X404767Y188155D01*
X404745Y188172D01*
X404728Y188177D01*
X404723Y188183D01*
X404639Y188238D01*
X404562Y188294D01*
X404495Y188355D01*
X404429Y188416D01*
X404373Y188477D01*
X404318Y188544D01*
X404273Y188599D01*
X404234Y188660D01*
X404168Y188760D01*
X404146Y188804D01*
X404123Y188843D01*
X404107Y188877D01*
X404096Y188899D01*
X404090Y188916D01*
Y188921D01*
X404057Y189010D01*
X404029Y189104D01*
X403985Y189304D01*
X403957Y189509D01*
X403935Y189704D01*
X403929Y189798D01*
X403924Y189881D01*
X403918Y189953D01*
X403912Y190020D01*
Y190075D01*
Y190114D01*
Y190136D01*
Y190148D01*
Y193106D01*
X404590Y193106D01*
Y190148D01*
X404595Y189976D01*
X404601Y189815D01*
X404617Y189670D01*
X404639Y189537D01*
X404662Y189420D01*
X404689Y189315D01*
X404723Y189221D01*
X404750Y189137D01*
X404778Y189065D01*
X404811Y189004D01*
X404839Y188954D01*
X404861Y188916D01*
X404884Y188888D01*
X404895Y188865D01*
X404906Y188854D01*
X404912Y188849D01*
X404978Y188788D01*
X405050Y188738D01*
X405128Y188693D01*
X405211Y188655D01*
X405300Y188621D01*
X405389Y188594D01*
X405561Y188555D01*
X405644Y188538D01*
X405722Y188527D01*
X405794Y188521D01*
X405855Y188516D01*
X405905Y188510D01*
X405977D01*
X406133Y188516D01*
X406277Y188538D01*
X406404Y188566D01*
X406515Y188594D01*
X406560Y188610D01*
X406599Y188627D01*
X406637Y188638D01*
X406665Y188649D01*
X406687Y188660D01*
X406704Y188671D01*
X406715Y188677D01*
X406721D01*
X406826Y188749D01*
X406915Y188827D01*
X406987Y188904D01*
X407043Y188988D01*
X407087Y189054D01*
X407120Y189115D01*
X407131Y189137D01*
X407137Y189154D01*
X407142Y189160D01*
Y189165D01*
X407165Y189226D01*
X407181Y189298D01*
X407215Y189454D01*
X407237Y189615D01*
X407248Y189776D01*
X407254Y189848D01*
X407259Y189920D01*
Y189981D01*
X407265Y190037D01*
Y190086D01*
Y190120D01*
Y190142D01*
Y190148D01*
Y193106D01*
X407942D01*
Y190148D01*
D02*
G37*
G36*
X389161Y193189D02*
X389283Y193183D01*
X389510Y193145D01*
X389621Y193122D01*
X389721Y193095D01*
X389821Y193067D01*
X389910Y193039D01*
X389987Y193011D01*
X390060Y192984D01*
X390126Y192956D01*
X390176Y192934D01*
X390221Y192911D01*
X390248Y192895D01*
X390271Y192889D01*
X390276Y192884D01*
X390376Y192823D01*
X390476Y192756D01*
X390565Y192684D01*
X390648Y192612D01*
X390726Y192534D01*
X390798Y192462D01*
X390859Y192384D01*
X390920Y192318D01*
X390970Y192245D01*
X391014Y192184D01*
X391053Y192129D01*
X391086Y192079D01*
X391109Y192034D01*
X391125Y192007D01*
X391136Y191985D01*
X391142Y191979D01*
X391197Y191868D01*
X391242Y191746D01*
X391281Y191629D01*
X391319Y191513D01*
X391375Y191274D01*
X391392Y191163D01*
X391408Y191058D01*
X391419Y190958D01*
X391430Y190869D01*
X391436Y190786D01*
X391442Y190714D01*
X391447Y190658D01*
Y190614D01*
Y190592D01*
Y190580D01*
X391442Y190447D01*
X391436Y190314D01*
X391403Y190059D01*
X391386Y189937D01*
X391364Y189826D01*
X391336Y189720D01*
X391314Y189620D01*
X391286Y189532D01*
X391264Y189448D01*
X391242Y189382D01*
X391220Y189321D01*
X391203Y189276D01*
X391192Y189237D01*
X391186Y189215D01*
X391181Y189210D01*
X391125Y189093D01*
X391070Y188982D01*
X391009Y188882D01*
X390942Y188788D01*
X390876Y188699D01*
X390814Y188621D01*
X390748Y188549D01*
X390687Y188482D01*
X390626Y188421D01*
X390570Y188372D01*
X390520Y188333D01*
X390476Y188294D01*
X390443Y188266D01*
X390415Y188250D01*
X390398Y188238D01*
X390393Y188233D01*
X390293Y188172D01*
X390187Y188122D01*
X390076Y188077D01*
X389960Y188039D01*
X389849Y188011D01*
X389738Y187983D01*
X389627Y187961D01*
X389521Y187944D01*
X389421Y187927D01*
X389333Y187917D01*
X389249Y187911D01*
X389183Y187905D01*
X389122Y187900D01*
X389044D01*
X388894Y187905D01*
X388755Y187917D01*
X388622Y187939D01*
X388494Y187966D01*
X388372Y188000D01*
X388262Y188039D01*
X388161Y188077D01*
X388067Y188116D01*
X387978Y188155D01*
X387906Y188194D01*
X387840Y188233D01*
X387790Y188266D01*
X387745Y188294D01*
X387718Y188316D01*
X387695Y188327D01*
X387690Y188333D01*
X387590Y188421D01*
X387496Y188516D01*
X387412Y188616D01*
X387335Y188716D01*
X387262Y188821D01*
X387201Y188932D01*
X387146Y189032D01*
X387096Y189137D01*
X387052Y189232D01*
X387018Y189321D01*
X386985Y189404D01*
X386963Y189471D01*
X386941Y189532D01*
X386929Y189570D01*
X386918Y189598D01*
Y189609D01*
X387595Y189781D01*
X387623Y189665D01*
X387662Y189554D01*
X387701Y189448D01*
X387740Y189354D01*
X387784Y189265D01*
X387828Y189187D01*
X387873Y189115D01*
X387917Y189049D01*
X387962Y188993D01*
X388001Y188943D01*
X388039Y188899D01*
X388067Y188865D01*
X388095Y188838D01*
X388117Y188821D01*
X388128Y188810D01*
X388134Y188804D01*
X388211Y188749D01*
X388289Y188699D01*
X388367Y188655D01*
X388450Y188616D01*
X388533Y188582D01*
X388611Y188555D01*
X388767Y188516D01*
X388833Y188505D01*
X388900Y188494D01*
X388955Y188488D01*
X389005Y188482D01*
X389044Y188477D01*
X389100D01*
X389188Y188482D01*
X389271Y188488D01*
X389433Y188516D01*
X389582Y188555D01*
X389710Y188599D01*
X389766Y188621D01*
X389815Y188638D01*
X389860Y188660D01*
X389899Y188677D01*
X389932Y188693D01*
X389954Y188705D01*
X389965Y188716D01*
X389971D01*
X390043Y188766D01*
X390110Y188816D01*
X390232Y188932D01*
X390332Y189049D01*
X390415Y189171D01*
X390476Y189276D01*
X390504Y189321D01*
X390526Y189365D01*
X390537Y189398D01*
X390548Y189420D01*
X390559Y189437D01*
Y189443D01*
X390620Y189631D01*
X390670Y189826D01*
X390704Y190020D01*
X390715Y190109D01*
X390726Y190198D01*
X390731Y190281D01*
X390737Y190353D01*
X390742Y190419D01*
Y190475D01*
X390748Y190525D01*
Y190558D01*
Y190580D01*
Y190586D01*
X390742Y190775D01*
X390726Y190952D01*
X390698Y191119D01*
X390687Y191197D01*
X390670Y191269D01*
X390653Y191330D01*
X390642Y191391D01*
X390626Y191441D01*
X390615Y191485D01*
X390609Y191518D01*
X390598Y191546D01*
X390593Y191563D01*
Y191568D01*
X390520Y191740D01*
X390437Y191890D01*
X390348Y192018D01*
X390298Y192073D01*
X390254Y192129D01*
X390210Y192173D01*
X390171Y192212D01*
X390132Y192251D01*
X390104Y192279D01*
X390076Y192301D01*
X390054Y192318D01*
X390043Y192323D01*
X390037Y192329D01*
X389960Y192379D01*
X389882Y192423D01*
X389799Y192462D01*
X389716Y192495D01*
X389549Y192545D01*
X389388Y192584D01*
X389321Y192595D01*
X389255Y192601D01*
X389194Y192606D01*
X389144Y192612D01*
X389100Y192617D01*
X388950D01*
X388861Y192606D01*
X388694Y192578D01*
X388550Y192534D01*
X388489Y192512D01*
X388428Y192490D01*
X388372Y192467D01*
X388328Y192445D01*
X388289Y192423D01*
X388256Y192401D01*
X388228Y192384D01*
X388211Y192373D01*
X388200Y192368D01*
X388195Y192362D01*
X388134Y192312D01*
X388073Y192256D01*
X387973Y192129D01*
X387878Y191990D01*
X387806Y191857D01*
X387751Y191735D01*
X387723Y191685D01*
X387706Y191640D01*
X387690Y191602D01*
X387684Y191568D01*
X387673Y191552D01*
Y191546D01*
X387007Y191701D01*
X387052Y191829D01*
X387102Y191951D01*
X387152Y192068D01*
X387212Y192173D01*
X387268Y192273D01*
X387329Y192362D01*
X387390Y192445D01*
X387451Y192517D01*
X387512Y192584D01*
X387562Y192640D01*
X387612Y192690D01*
X387656Y192728D01*
X387690Y192762D01*
X387718Y192784D01*
X387734Y192795D01*
X387740Y192800D01*
X387840Y192873D01*
X387945Y192928D01*
X388051Y192984D01*
X388161Y193028D01*
X388273Y193067D01*
X388378Y193100D01*
X388483Y193122D01*
X388583Y193145D01*
X388678Y193161D01*
X388761Y193172D01*
X388839Y193183D01*
X388905Y193189D01*
X388961Y193194D01*
X389033D01*
X389161Y193189D01*
D02*
G37*
G36*
X374447D02*
X374570Y193183D01*
X374797Y193145D01*
X374908Y193122D01*
X375008Y193095D01*
X375108Y193067D01*
X375197Y193039D01*
X375274Y193011D01*
X375347Y192984D01*
X375413Y192956D01*
X375463Y192934D01*
X375507Y192911D01*
X375535Y192895D01*
X375557Y192889D01*
X375563Y192884D01*
X375663Y192823D01*
X375763Y192756D01*
X375852Y192684D01*
X375935Y192612D01*
X376013Y192534D01*
X376085Y192462D01*
X376146Y192384D01*
X376207Y192318D01*
X376257Y192245D01*
X376301Y192184D01*
X376340Y192129D01*
X376373Y192079D01*
X376396Y192034D01*
X376412Y192007D01*
X376423Y191985D01*
X376429Y191979D01*
X376484Y191868D01*
X376529Y191746D01*
X376568Y191629D01*
X376606Y191513D01*
X376662Y191274D01*
X376679Y191163D01*
X376695Y191058D01*
X376706Y190958D01*
X376717Y190869D01*
X376723Y190786D01*
X376729Y190714D01*
X376734Y190658D01*
Y190614D01*
Y190592D01*
Y190580D01*
X376729Y190447D01*
X376723Y190314D01*
X376690Y190059D01*
X376673Y189937D01*
X376651Y189826D01*
X376623Y189720D01*
X376601Y189620D01*
X376573Y189532D01*
X376551Y189448D01*
X376529Y189382D01*
X376507Y189321D01*
X376490Y189276D01*
X376479Y189237D01*
X376473Y189215D01*
X376468Y189210D01*
X376412Y189093D01*
X376357Y188982D01*
X376296Y188882D01*
X376229Y188788D01*
X376162Y188699D01*
X376101Y188621D01*
X376035Y188549D01*
X375974Y188482D01*
X375913Y188421D01*
X375857Y188372D01*
X375807Y188333D01*
X375763Y188294D01*
X375730Y188266D01*
X375702Y188250D01*
X375685Y188238D01*
X375680Y188233D01*
X375580Y188172D01*
X375474Y188122D01*
X375363Y188077D01*
X375247Y188039D01*
X375136Y188011D01*
X375025Y187983D01*
X374914Y187961D01*
X374808Y187944D01*
X374708Y187927D01*
X374620Y187917D01*
X374536Y187911D01*
X374470Y187905D01*
X374409Y187900D01*
X374331D01*
X374181Y187905D01*
X374042Y187917D01*
X373909Y187939D01*
X373781Y187966D01*
X373659Y188000D01*
X373548Y188039D01*
X373448Y188077D01*
X373354Y188116D01*
X373265Y188155D01*
X373193Y188194D01*
X373127Y188233D01*
X373077Y188266D01*
X373032Y188294D01*
X373005Y188316D01*
X372982Y188327D01*
X372977Y188333D01*
X372877Y188421D01*
X372782Y188516D01*
X372699Y188616D01*
X372621Y188716D01*
X372549Y188821D01*
X372488Y188932D01*
X372433Y189032D01*
X372383Y189137D01*
X372339Y189232D01*
X372305Y189321D01*
X372272Y189404D01*
X372250Y189471D01*
X372228Y189532D01*
X372216Y189570D01*
X372205Y189598D01*
Y189609D01*
X372882Y189781D01*
X372910Y189665D01*
X372949Y189554D01*
X372988Y189448D01*
X373027Y189354D01*
X373071Y189265D01*
X373115Y189187D01*
X373160Y189115D01*
X373204Y189049D01*
X373249Y188993D01*
X373288Y188943D01*
X373326Y188899D01*
X373354Y188865D01*
X373382Y188838D01*
X373404Y188821D01*
X373415Y188810D01*
X373421Y188804D01*
X373499Y188749D01*
X373576Y188699D01*
X373654Y188655D01*
X373737Y188616D01*
X373820Y188582D01*
X373898Y188555D01*
X374054Y188516D01*
X374120Y188505D01*
X374187Y188494D01*
X374242Y188488D01*
X374292Y188482D01*
X374331Y188477D01*
X374387D01*
X374475Y188482D01*
X374558Y188488D01*
X374720Y188516D01*
X374869Y188555D01*
X374997Y188599D01*
X375052Y188621D01*
X375102Y188638D01*
X375147Y188660D01*
X375186Y188677D01*
X375219Y188693D01*
X375241Y188705D01*
X375252Y188716D01*
X375258D01*
X375330Y188766D01*
X375396Y188816D01*
X375519Y188932D01*
X375619Y189049D01*
X375702Y189171D01*
X375763Y189276D01*
X375791Y189321D01*
X375813Y189365D01*
X375824Y189398D01*
X375835Y189420D01*
X375846Y189437D01*
Y189443D01*
X375907Y189631D01*
X375957Y189826D01*
X375990Y190020D01*
X376002Y190109D01*
X376013Y190198D01*
X376018Y190281D01*
X376024Y190353D01*
X376029Y190419D01*
Y190475D01*
X376035Y190525D01*
Y190558D01*
Y190580D01*
Y190586D01*
X376029Y190775D01*
X376013Y190952D01*
X375985Y191119D01*
X375974Y191197D01*
X375957Y191269D01*
X375940Y191330D01*
X375929Y191391D01*
X375913Y191441D01*
X375902Y191485D01*
X375896Y191518D01*
X375885Y191546D01*
X375879Y191563D01*
Y191568D01*
X375807Y191740D01*
X375724Y191890D01*
X375635Y192018D01*
X375585Y192073D01*
X375541Y192129D01*
X375497Y192173D01*
X375458Y192212D01*
X375419Y192251D01*
X375391Y192279D01*
X375363Y192301D01*
X375341Y192318D01*
X375330Y192323D01*
X375324Y192329D01*
X375247Y192379D01*
X375169Y192423D01*
X375086Y192462D01*
X375003Y192495D01*
X374836Y192545D01*
X374675Y192584D01*
X374608Y192595D01*
X374542Y192601D01*
X374481Y192606D01*
X374431Y192612D01*
X374387Y192617D01*
X374237D01*
X374148Y192606D01*
X373981Y192578D01*
X373837Y192534D01*
X373776Y192512D01*
X373715Y192490D01*
X373659Y192467D01*
X373615Y192445D01*
X373576Y192423D01*
X373543Y192401D01*
X373515Y192384D01*
X373499Y192373D01*
X373487Y192368D01*
X373482Y192362D01*
X373421Y192312D01*
X373360Y192256D01*
X373260Y192129D01*
X373165Y191990D01*
X373093Y191857D01*
X373038Y191735D01*
X373010Y191685D01*
X372993Y191640D01*
X372977Y191602D01*
X372971Y191568D01*
X372960Y191552D01*
Y191546D01*
X372294Y191701D01*
X372339Y191829D01*
X372389Y191951D01*
X372438Y192068D01*
X372499Y192173D01*
X372555Y192273D01*
X372616Y192362D01*
X372677Y192445D01*
X372738Y192517D01*
X372799Y192584D01*
X372849Y192640D01*
X372899Y192690D01*
X372943Y192728D01*
X372977Y192762D01*
X373005Y192784D01*
X373021Y192795D01*
X373027Y192800D01*
X373127Y192873D01*
X373232Y192928D01*
X373338Y192984D01*
X373448Y193028D01*
X373559Y193067D01*
X373665Y193100D01*
X373770Y193122D01*
X373870Y193145D01*
X373965Y193161D01*
X374048Y193172D01*
X374126Y193183D01*
X374192Y193189D01*
X374248Y193194D01*
X374320D01*
X374447Y193189D01*
D02*
G37*
G36*
X427711Y187983D02*
X427034D01*
Y193106D01*
X427711D01*
Y187983D01*
D02*
G37*
G36*
X420951D02*
X420274D01*
Y193106D01*
X420951D01*
Y187983D01*
D02*
G37*
G36*
X419064D02*
X415240D01*
Y188588D01*
X418387D01*
Y190331D01*
X415551D01*
Y190936D01*
X418387D01*
Y192501D01*
X415356D01*
Y193106D01*
X419064D01*
Y187983D01*
D02*
G37*
G36*
X412704Y192501D02*
X411016D01*
Y187983D01*
X410339D01*
Y192501D01*
X408652D01*
Y193106D01*
X412704D01*
Y192501D01*
D02*
G37*
G36*
X402813Y187983D02*
X400866D01*
X400688Y187989D01*
X400527Y187994D01*
X400388Y188011D01*
X400322Y188016D01*
X400266Y188027D01*
X400216Y188033D01*
X400172Y188039D01*
X400133Y188050D01*
X400100Y188055D01*
X400072Y188061D01*
X400055D01*
X400044Y188066D01*
X400038D01*
X399916Y188100D01*
X399805Y188138D01*
X399711Y188183D01*
X399633Y188222D01*
X399567Y188260D01*
X399517Y188288D01*
X399489Y188311D01*
X399478Y188316D01*
X399395Y188388D01*
X399323Y188466D01*
X399256Y188544D01*
X399206Y188621D01*
X399162Y188688D01*
X399128Y188743D01*
X399117Y188766D01*
X399106Y188782D01*
X399101Y188788D01*
Y188793D01*
X399051Y188910D01*
X399012Y189032D01*
X398984Y189143D01*
X398962Y189249D01*
X398951Y189337D01*
Y189371D01*
X398945Y189404D01*
Y189432D01*
Y189448D01*
Y189459D01*
Y189465D01*
Y189548D01*
X398956Y189626D01*
X398984Y189776D01*
X399028Y189909D01*
X399073Y190020D01*
X399095Y190070D01*
X399117Y190114D01*
X399139Y190153D01*
X399162Y190186D01*
X399178Y190209D01*
X399189Y190225D01*
X399195Y190236D01*
X399201Y190242D01*
X399300Y190358D01*
X399417Y190453D01*
X399534Y190536D01*
X399650Y190597D01*
X399750Y190647D01*
X399794Y190664D01*
X399833Y190680D01*
X399867Y190691D01*
X399889Y190702D01*
X399905Y190708D01*
X399911D01*
X399783Y190780D01*
X399678Y190858D01*
X399583Y190936D01*
X399511Y191008D01*
X399450Y191074D01*
X399411Y191124D01*
X399395Y191147D01*
X399384Y191163D01*
X399378Y191169D01*
Y191174D01*
X399317Y191285D01*
X399273Y191391D01*
X399239Y191496D01*
X399217Y191591D01*
X399206Y191674D01*
X399195Y191735D01*
Y191757D01*
Y191774D01*
Y191785D01*
Y191790D01*
X399206Y191924D01*
X399228Y192046D01*
X399261Y192162D01*
X399295Y192262D01*
X399334Y192345D01*
X399350Y192384D01*
X399367Y192412D01*
X399384Y192434D01*
X399389Y192451D01*
X399400Y192462D01*
Y192467D01*
X399484Y192578D01*
X399572Y192678D01*
X399661Y192762D01*
X399750Y192828D01*
X399833Y192878D01*
X399894Y192917D01*
X399922Y192928D01*
X399939Y192939D01*
X399950Y192945D01*
X399955D01*
X400100Y193000D01*
X400249Y193039D01*
X400410Y193067D01*
X400555Y193084D01*
X400627Y193095D01*
X400688Y193100D01*
X400749D01*
X400799Y193106D01*
X402813D01*
Y187983D01*
D02*
G37*
G36*
X397996D02*
X394172D01*
Y188588D01*
X397319D01*
Y190331D01*
X394483D01*
Y190936D01*
X397319D01*
Y192501D01*
X394289D01*
Y193106D01*
X397996D01*
Y187983D01*
D02*
G37*
G36*
X386114D02*
X382911D01*
Y188588D01*
X385437D01*
Y193106D01*
X386114D01*
Y187983D01*
D02*
G37*
G36*
X364496D02*
X363819D01*
Y193106D01*
X364496D01*
Y187983D01*
D02*
G37*
G36*
X351565Y189787D02*
Y189210D01*
X349334D01*
Y187983D01*
X348707D01*
Y189210D01*
X348013D01*
Y189787D01*
X348707D01*
Y193106D01*
X349223D01*
X351565Y189787D01*
D02*
G37*
G36*
X380059Y193189D02*
X380247Y193161D01*
X380425Y193128D01*
X380591Y193084D01*
X380752Y193028D01*
X380897Y192967D01*
X381030Y192900D01*
X381152Y192834D01*
X381263Y192767D01*
X381357Y192701D01*
X381435Y192640D01*
X381507Y192584D01*
X381557Y192540D01*
X381596Y192506D01*
X381624Y192479D01*
X381629Y192473D01*
X381751Y192334D01*
X381857Y192179D01*
X381946Y192024D01*
X382023Y191857D01*
X382090Y191691D01*
X382145Y191524D01*
X382190Y191363D01*
X382229Y191202D01*
X382256Y191052D01*
X382273Y190919D01*
X382290Y190791D01*
X382301Y190686D01*
X382306Y190597D01*
Y190564D01*
X382312Y190531D01*
Y190508D01*
Y190492D01*
Y190480D01*
Y190475D01*
X382306Y190353D01*
X382301Y190225D01*
X382267Y189992D01*
X382245Y189881D01*
X382223Y189776D01*
X382195Y189676D01*
X382168Y189587D01*
X382140Y189498D01*
X382112Y189426D01*
X382090Y189359D01*
X382068Y189304D01*
X382051Y189260D01*
X382034Y189226D01*
X382029Y189204D01*
X382023Y189199D01*
X381962Y189087D01*
X381901Y188982D01*
X381835Y188888D01*
X381762Y188793D01*
X381690Y188710D01*
X381618Y188632D01*
X381552Y188560D01*
X381479Y188494D01*
X381413Y188438D01*
X381352Y188388D01*
X381296Y188344D01*
X381252Y188311D01*
X381213Y188283D01*
X381180Y188260D01*
X381163Y188250D01*
X381157Y188244D01*
X381047Y188183D01*
X380935Y188133D01*
X380824Y188083D01*
X380714Y188044D01*
X380602Y188011D01*
X380497Y187983D01*
X380392Y187961D01*
X380297Y187944D01*
X380203Y187927D01*
X380125Y187917D01*
X380047Y187911D01*
X379986Y187905D01*
X379937Y187900D01*
X379864D01*
X379742Y187905D01*
X379620Y187911D01*
X379387Y187950D01*
X379282Y187972D01*
X379176Y188000D01*
X379082Y188027D01*
X378993Y188055D01*
X378910Y188083D01*
X378838Y188111D01*
X378777Y188138D01*
X378721Y188161D01*
X378677Y188183D01*
X378649Y188199D01*
X378627Y188205D01*
X378621Y188211D01*
X378516Y188272D01*
X378416Y188344D01*
X378321Y188416D01*
X378238Y188488D01*
X378160Y188566D01*
X378083Y188644D01*
X378016Y188721D01*
X377955Y188793D01*
X377905Y188865D01*
X377855Y188932D01*
X377816Y188993D01*
X377783Y189043D01*
X377761Y189082D01*
X377744Y189115D01*
X377733Y189137D01*
X377728Y189143D01*
X377672Y189260D01*
X377622Y189382D01*
X377583Y189498D01*
X377544Y189620D01*
X377511Y189737D01*
X377489Y189853D01*
X377467Y189964D01*
X377450Y190070D01*
X377439Y190170D01*
X377428Y190259D01*
X377422Y190336D01*
X377417Y190403D01*
X377411Y190458D01*
Y190503D01*
Y190525D01*
Y190536D01*
X377417Y190680D01*
X377422Y190814D01*
X377439Y190947D01*
X377456Y191074D01*
X377478Y191191D01*
X377505Y191307D01*
X377533Y191413D01*
X377561Y191507D01*
X377589Y191596D01*
X377617Y191674D01*
X377639Y191746D01*
X377666Y191801D01*
X377683Y191846D01*
X377700Y191879D01*
X377705Y191901D01*
X377711Y191907D01*
X377772Y192018D01*
X377833Y192123D01*
X377905Y192223D01*
X377972Y192312D01*
X378044Y192395D01*
X378116Y192473D01*
X378188Y192545D01*
X378260Y192612D01*
X378327Y192667D01*
X378388Y192717D01*
X378438Y192762D01*
X378488Y192795D01*
X378527Y192823D01*
X378555Y192839D01*
X378577Y192850D01*
X378582Y192856D01*
X378693Y192917D01*
X378799Y192967D01*
X378910Y193011D01*
X379021Y193050D01*
X379132Y193084D01*
X379237Y193111D01*
X379337Y193133D01*
X379437Y193150D01*
X379526Y193167D01*
X379604Y193178D01*
X379676Y193183D01*
X379742Y193189D01*
X379792Y193194D01*
X379859D01*
X380059Y193189D01*
D02*
G37*
G36*
X426390Y183917D02*
Y181753D01*
X425713D01*
Y183917D01*
X423670Y186875D01*
X424459D01*
X425452Y185366D01*
X425568Y185182D01*
X425680Y185011D01*
X425774Y184861D01*
X425818Y184789D01*
X425857Y184727D01*
X425890Y184672D01*
X425924Y184616D01*
X425946Y184572D01*
X425968Y184539D01*
X425990Y184505D01*
X426002Y184483D01*
X426007Y184472D01*
X426013Y184467D01*
X426101Y184627D01*
X426196Y184783D01*
X426285Y184927D01*
X426362Y185055D01*
X426401Y185116D01*
X426434Y185166D01*
X426462Y185216D01*
X426484Y185255D01*
X426507Y185282D01*
X426523Y185310D01*
X426529Y185321D01*
X426534Y185327D01*
X427544Y186875D01*
X428366D01*
X426390Y183917D01*
D02*
G37*
G36*
X408369Y181753D02*
X407714D01*
Y186115D01*
X406238Y181753D01*
X405627D01*
X404129Y186043D01*
Y181753D01*
X403474D01*
Y186875D01*
X404390D01*
X405622Y183312D01*
X405655Y183212D01*
X405688Y183124D01*
X405716Y183035D01*
X405744Y182957D01*
X405766Y182879D01*
X405788Y182813D01*
X405811Y182752D01*
X405827Y182696D01*
X405844Y182652D01*
X405855Y182607D01*
X405866Y182574D01*
X405877Y182541D01*
X405883Y182518D01*
X405888Y182502D01*
X405894Y182496D01*
Y182491D01*
X405910Y182541D01*
X405927Y182596D01*
X405966Y182713D01*
X406005Y182840D01*
X406044Y182963D01*
X406082Y183073D01*
X406099Y183124D01*
X406110Y183162D01*
X406121Y183196D01*
X406133Y183223D01*
X406138Y183240D01*
Y183246D01*
X407353Y186875D01*
X408369D01*
Y181753D01*
D02*
G37*
G36*
X433000D02*
X431152D01*
X430985Y181758D01*
X430830Y181764D01*
X430691Y181780D01*
X430569Y181797D01*
X430519Y181803D01*
X430475Y181808D01*
X430430Y181819D01*
X430397Y181825D01*
X430369Y181830D01*
X430353D01*
X430342Y181836D01*
X430336D01*
X430208Y181875D01*
X430086Y181914D01*
X429981Y181958D01*
X429892Y181997D01*
X429820Y182036D01*
X429764Y182063D01*
X429731Y182086D01*
X429726Y182091D01*
X429720D01*
X429626Y182163D01*
X429537Y182236D01*
X429459Y182313D01*
X429392Y182391D01*
X429331Y182457D01*
X429293Y182507D01*
X429276Y182530D01*
X429265Y182546D01*
X429254Y182552D01*
Y182557D01*
X429176Y182674D01*
X429109Y182796D01*
X429048Y182924D01*
X428998Y183040D01*
X428960Y183146D01*
X428943Y183190D01*
X428926Y183229D01*
X428921Y183257D01*
X428910Y183279D01*
X428904Y183296D01*
Y183301D01*
X428860Y183479D01*
X428826Y183656D01*
X428799Y183828D01*
X428782Y183989D01*
X428777Y184061D01*
X428771Y184128D01*
Y184189D01*
X428765Y184239D01*
Y184283D01*
Y184311D01*
Y184333D01*
Y184339D01*
X428777Y184589D01*
X428782Y184705D01*
X428799Y184816D01*
X428815Y184922D01*
X428832Y185022D01*
X428849Y185116D01*
X428865Y185205D01*
X428887Y185282D01*
X428904Y185349D01*
X428921Y185410D01*
X428937Y185460D01*
X428954Y185499D01*
X428960Y185532D01*
X428971Y185549D01*
Y185554D01*
X429054Y185743D01*
X429148Y185915D01*
X429198Y185993D01*
X429248Y186065D01*
X429298Y186132D01*
X429348Y186193D01*
X429392Y186248D01*
X429437Y186293D01*
X429476Y186337D01*
X429509Y186370D01*
X429537Y186398D01*
X429559Y186415D01*
X429570Y186426D01*
X429576Y186431D01*
X429698Y186526D01*
X429825Y186603D01*
X429948Y186664D01*
X430064Y186714D01*
X430169Y186753D01*
X430214Y186764D01*
X430253Y186775D01*
X430280Y186786D01*
X430303Y186792D01*
X430319Y186798D01*
X430325D01*
X430386Y186809D01*
X430452Y186825D01*
X430602Y186842D01*
X430752Y186859D01*
X430902Y186864D01*
X430969Y186870D01*
X431035D01*
X431091Y186875D01*
X433000D01*
Y181753D01*
D02*
G37*
G36*
X423043D02*
X419219D01*
Y182358D01*
X422366D01*
Y184100D01*
X419530D01*
Y184705D01*
X422366D01*
Y186270D01*
X419336D01*
Y186875D01*
X423043D01*
Y181753D01*
D02*
G37*
G36*
X418276D02*
X417599D01*
Y184028D01*
X416727D01*
X416650Y184023D01*
X416583Y184017D01*
X416528D01*
X416489Y184011D01*
X416461Y184006D01*
X416444Y184000D01*
X416439D01*
X416378Y183984D01*
X416322Y183961D01*
X416272Y183939D01*
X416222Y183917D01*
X416184Y183895D01*
X416156Y183878D01*
X416134Y183867D01*
X416128Y183862D01*
X416073Y183823D01*
X416011Y183767D01*
X415950Y183712D01*
X415901Y183656D01*
X415850Y183606D01*
X415817Y183562D01*
X415795Y183534D01*
X415784Y183529D01*
Y183523D01*
X415706Y183423D01*
X415623Y183312D01*
X415545Y183196D01*
X415468Y183079D01*
X415401Y182979D01*
X415368Y182935D01*
X415345Y182896D01*
X415323Y182863D01*
X415307Y182840D01*
X415301Y182824D01*
X415296Y182818D01*
X414618Y181753D01*
X413769D01*
X414657Y183146D01*
X414757Y183290D01*
X414857Y183423D01*
X414951Y183540D01*
X415035Y183640D01*
X415107Y183717D01*
X415140Y183751D01*
X415168Y183778D01*
X415190Y183801D01*
X415207Y183817D01*
X415212Y183823D01*
X415218Y183828D01*
X415273Y183873D01*
X415340Y183923D01*
X415407Y183961D01*
X415473Y184000D01*
X415534Y184034D01*
X415584Y184061D01*
X415617Y184078D01*
X415623Y184084D01*
X415628D01*
X415495Y184106D01*
X415368Y184134D01*
X415251Y184167D01*
X415146Y184200D01*
X415046Y184239D01*
X414957Y184278D01*
X414879Y184317D01*
X414807Y184356D01*
X414741Y184394D01*
X414685Y184433D01*
X414641Y184467D01*
X414602Y184494D01*
X414574Y184522D01*
X414552Y184539D01*
X414541Y184550D01*
X414535Y184555D01*
X414474Y184627D01*
X414419Y184700D01*
X414369Y184777D01*
X414330Y184855D01*
X414296Y184933D01*
X414269Y185011D01*
X414224Y185155D01*
X414208Y185221D01*
X414197Y185282D01*
X414191Y185338D01*
X414185Y185388D01*
X414180Y185421D01*
Y185454D01*
Y185471D01*
Y185477D01*
X414191Y185632D01*
X414213Y185776D01*
X414247Y185904D01*
X414285Y186021D01*
X414308Y186071D01*
X414330Y186115D01*
X414347Y186154D01*
X414363Y186187D01*
X414374Y186215D01*
X414385Y186232D01*
X414396Y186243D01*
Y186248D01*
X414480Y186370D01*
X414574Y186470D01*
X414668Y186559D01*
X414763Y186626D01*
X414840Y186676D01*
X414907Y186709D01*
X414935Y186720D01*
X414951Y186731D01*
X414962Y186737D01*
X414968D01*
X415040Y186759D01*
X415112Y186781D01*
X415279Y186814D01*
X415451Y186842D01*
X415617Y186859D01*
X415701Y186864D01*
X415773Y186870D01*
X415834D01*
X415895Y186875D01*
X418276D01*
Y181753D01*
D02*
G37*
G36*
X413148D02*
X411200D01*
X411022Y181758D01*
X410861Y181764D01*
X410722Y181780D01*
X410656Y181786D01*
X410600Y181797D01*
X410550Y181803D01*
X410506Y181808D01*
X410467Y181819D01*
X410434Y181825D01*
X410406Y181830D01*
X410389D01*
X410378Y181836D01*
X410373D01*
X410251Y181869D01*
X410140Y181908D01*
X410045Y181952D01*
X409968Y181991D01*
X409901Y182030D01*
X409851Y182058D01*
X409823Y182080D01*
X409812Y182086D01*
X409729Y182158D01*
X409657Y182236D01*
X409590Y182313D01*
X409540Y182391D01*
X409496Y182457D01*
X409462Y182513D01*
X409451Y182535D01*
X409440Y182552D01*
X409435Y182557D01*
Y182563D01*
X409385Y182679D01*
X409346Y182802D01*
X409318Y182913D01*
X409296Y183018D01*
X409285Y183107D01*
Y183140D01*
X409279Y183173D01*
Y183201D01*
Y183218D01*
Y183229D01*
Y183235D01*
Y183318D01*
X409290Y183395D01*
X409318Y183545D01*
X409363Y183678D01*
X409407Y183790D01*
X409429Y183839D01*
X409451Y183884D01*
X409474Y183923D01*
X409496Y183956D01*
X409512Y183978D01*
X409523Y183995D01*
X409529Y184006D01*
X409535Y184011D01*
X409634Y184128D01*
X409751Y184222D01*
X409868Y184306D01*
X409984Y184367D01*
X410084Y184417D01*
X410128Y184433D01*
X410167Y184450D01*
X410201Y184461D01*
X410223Y184472D01*
X410240Y184478D01*
X410245D01*
X410117Y184550D01*
X410012Y184627D01*
X409918Y184705D01*
X409845Y184777D01*
X409784Y184844D01*
X409746Y184894D01*
X409729Y184916D01*
X409718Y184933D01*
X409712Y184938D01*
Y184944D01*
X409651Y185055D01*
X409607Y185160D01*
X409574Y185266D01*
X409551Y185360D01*
X409540Y185443D01*
X409529Y185504D01*
Y185527D01*
Y185543D01*
Y185554D01*
Y185560D01*
X409540Y185693D01*
X409562Y185815D01*
X409596Y185932D01*
X409629Y186032D01*
X409668Y186115D01*
X409685Y186154D01*
X409701Y186181D01*
X409718Y186204D01*
X409723Y186220D01*
X409734Y186232D01*
Y186237D01*
X409818Y186348D01*
X409906Y186448D01*
X409995Y186531D01*
X410084Y186598D01*
X410167Y186648D01*
X410228Y186687D01*
X410256Y186698D01*
X410273Y186709D01*
X410284Y186714D01*
X410289D01*
X410434Y186770D01*
X410584Y186809D01*
X410744Y186836D01*
X410889Y186853D01*
X410961Y186864D01*
X411022Y186870D01*
X411083D01*
X411133Y186875D01*
X413148D01*
Y181753D01*
D02*
G37*
G36*
X417843Y179996D02*
X417216D01*
Y180711D01*
X417843D01*
Y179996D01*
D02*
G37*
G36*
X405000Y180723D02*
X405106Y180711D01*
X405206Y180695D01*
X405305Y180673D01*
X405394Y180645D01*
X405478Y180617D01*
X405555Y180584D01*
X405622Y180556D01*
X405688Y180523D01*
X405744Y180490D01*
X405788Y180462D01*
X405833Y180434D01*
X405861Y180412D01*
X405888Y180395D01*
X405899Y180384D01*
X405905Y180378D01*
X405977Y180312D01*
X406044Y180234D01*
X406105Y180156D01*
X406160Y180079D01*
X406210Y179996D01*
X406249Y179918D01*
X406321Y179757D01*
X406349Y179685D01*
X406371Y179618D01*
X406388Y179557D01*
X406404Y179507D01*
X406416Y179463D01*
X406421Y179429D01*
X406427Y179407D01*
Y179402D01*
X405799Y179291D01*
X405766Y179452D01*
X405722Y179590D01*
X405672Y179712D01*
X405616Y179807D01*
X405572Y179885D01*
X405527Y179934D01*
X405500Y179968D01*
X405489Y179979D01*
X405389Y180057D01*
X405289Y180112D01*
X405183Y180156D01*
X405089Y180184D01*
X405000Y180201D01*
X404967Y180206D01*
X404934D01*
X404906Y180212D01*
X404873D01*
X404739Y180201D01*
X404623Y180179D01*
X404517Y180140D01*
X404429Y180101D01*
X404362Y180057D01*
X404312Y180018D01*
X404279Y179996D01*
X404268Y179984D01*
X404223Y179940D01*
X404190Y179896D01*
X404129Y179796D01*
X404084Y179701D01*
X404057Y179613D01*
X404040Y179529D01*
X404035Y179468D01*
X404029Y179440D01*
Y179424D01*
Y179413D01*
Y179407D01*
X404035Y179330D01*
X404046Y179257D01*
X404057Y179185D01*
X404079Y179124D01*
X404135Y179013D01*
X404190Y178924D01*
X404251Y178852D01*
X404307Y178802D01*
X404329Y178786D01*
X404340Y178774D01*
X404351Y178763D01*
X404356D01*
X404479Y178691D01*
X404606Y178641D01*
X404728Y178602D01*
X404839Y178580D01*
X404934Y178564D01*
X404973Y178558D01*
X405011D01*
X405039Y178552D01*
X405111D01*
X405145Y178558D01*
X405172Y178564D01*
X405183D01*
X405250Y178014D01*
X405156Y178036D01*
X405067Y178053D01*
X404995Y178064D01*
X404928Y178075D01*
X404878D01*
X404839Y178081D01*
X404806D01*
X404728Y178075D01*
X404651Y178070D01*
X404512Y178036D01*
X404390Y177992D01*
X404284Y177942D01*
X404201Y177886D01*
X404168Y177864D01*
X404140Y177842D01*
X404118Y177825D01*
X404101Y177809D01*
X404096Y177803D01*
X404090Y177798D01*
X404040Y177742D01*
X403996Y177687D01*
X403957Y177631D01*
X403924Y177570D01*
X403874Y177454D01*
X403835Y177337D01*
X403818Y177237D01*
X403813Y177198D01*
X403807Y177159D01*
X403801Y177132D01*
Y177104D01*
Y177093D01*
Y177087D01*
X403807Y177004D01*
X403813Y176926D01*
X403851Y176777D01*
X403896Y176649D01*
X403951Y176538D01*
X403985Y176488D01*
X404012Y176449D01*
X404035Y176410D01*
X404057Y176382D01*
X404079Y176360D01*
X404096Y176344D01*
X404101Y176332D01*
X404107Y176327D01*
X404168Y176271D01*
X404229Y176227D01*
X404290Y176188D01*
X404351Y176149D01*
X404479Y176094D01*
X404601Y176060D01*
X404701Y176038D01*
X404750Y176033D01*
X404784Y176027D01*
X404817Y176022D01*
X404861D01*
X404995Y176033D01*
X405122Y176060D01*
X405228Y176094D01*
X405322Y176138D01*
X405400Y176183D01*
X405455Y176216D01*
X405472Y176233D01*
X405489Y176244D01*
X405494Y176255D01*
X405500D01*
X405544Y176305D01*
X405588Y176355D01*
X405666Y176471D01*
X405727Y176599D01*
X405777Y176726D01*
X405816Y176843D01*
X405827Y176893D01*
X405838Y176937D01*
X405849Y176976D01*
X405855Y177004D01*
X405861Y177021D01*
Y177026D01*
X406488Y176943D01*
X406471Y176826D01*
X406449Y176716D01*
X406416Y176610D01*
X406382Y176510D01*
X406343Y176416D01*
X406299Y176332D01*
X406255Y176249D01*
X406210Y176183D01*
X406166Y176116D01*
X406127Y176060D01*
X406088Y176011D01*
X406055Y175972D01*
X406021Y175938D01*
X405999Y175916D01*
X405988Y175905D01*
X405983Y175900D01*
X405899Y175827D01*
X405805Y175766D01*
X405716Y175716D01*
X405622Y175666D01*
X405527Y175628D01*
X405433Y175600D01*
X405344Y175572D01*
X405256Y175550D01*
X405172Y175533D01*
X405100Y175522D01*
X405034Y175511D01*
X404973Y175505D01*
X404928D01*
X404889Y175500D01*
X404861D01*
X404723Y175505D01*
X404595Y175522D01*
X404473Y175544D01*
X404356Y175572D01*
X404245Y175605D01*
X404146Y175644D01*
X404051Y175689D01*
X403968Y175733D01*
X403890Y175772D01*
X403824Y175816D01*
X403763Y175855D01*
X403718Y175889D01*
X403679Y175916D01*
X403652Y175938D01*
X403635Y175955D01*
X403629Y175961D01*
X403541Y176049D01*
X403468Y176144D01*
X403402Y176238D01*
X403346Y176338D01*
X403296Y176432D01*
X403258Y176527D01*
X403224Y176616D01*
X403196Y176704D01*
X403174Y176788D01*
X403163Y176860D01*
X403152Y176926D01*
X403141Y176987D01*
Y177032D01*
X403135Y177071D01*
Y177093D01*
Y177098D01*
Y177187D01*
X403147Y177276D01*
X403174Y177437D01*
X403219Y177576D01*
X403241Y177637D01*
X403263Y177692D01*
X403285Y177748D01*
X403307Y177792D01*
X403330Y177831D01*
X403352Y177859D01*
X403369Y177886D01*
X403380Y177903D01*
X403385Y177914D01*
X403391Y177920D01*
X403491Y178036D01*
X403607Y178131D01*
X403724Y178203D01*
X403835Y178264D01*
X403940Y178308D01*
X403985Y178325D01*
X404018Y178336D01*
X404051Y178347D01*
X404073Y178353D01*
X404090Y178358D01*
X404096D01*
X403973Y178425D01*
X403868Y178491D01*
X403774Y178564D01*
X403701Y178636D01*
X403641Y178697D01*
X403602Y178747D01*
X403574Y178780D01*
X403568Y178786D01*
Y178791D01*
X403507Y178897D01*
X403463Y179002D01*
X403430Y179102D01*
X403407Y179196D01*
X403396Y179274D01*
X403385Y179341D01*
Y179363D01*
Y179379D01*
Y179391D01*
Y179396D01*
X403391Y179524D01*
X403413Y179646D01*
X403446Y179757D01*
X403480Y179857D01*
X403513Y179940D01*
X403530Y179973D01*
X403546Y180001D01*
X403557Y180023D01*
X403568Y180045D01*
X403574Y180051D01*
Y180057D01*
X403652Y180167D01*
X403740Y180262D01*
X403829Y180345D01*
X403918Y180417D01*
X403996Y180473D01*
X404057Y180512D01*
X404084Y180528D01*
X404101Y180539D01*
X404112Y180545D01*
X404118D01*
X404251Y180606D01*
X404384Y180650D01*
X404517Y180684D01*
X404634Y180706D01*
X404739Y180717D01*
X404778Y180723D01*
X404817Y180728D01*
X404889D01*
X405000Y180723D01*
D02*
G37*
G36*
X431019Y175589D02*
X430319D01*
X428321Y180711D01*
X429010D01*
X430392Y176987D01*
X430447Y176832D01*
X430503Y176682D01*
X430552Y176538D01*
X430591Y176410D01*
X430608Y176355D01*
X430625Y176305D01*
X430636Y176260D01*
X430647Y176222D01*
X430658Y176194D01*
X430663Y176166D01*
X430669Y176155D01*
Y176149D01*
X430713Y176299D01*
X430758Y176449D01*
X430802Y176588D01*
X430841Y176716D01*
X430863Y176777D01*
X430880Y176826D01*
X430897Y176871D01*
X430908Y176910D01*
X430919Y176943D01*
X430930Y176965D01*
X430935Y176982D01*
Y176987D01*
X432267Y180711D01*
X433006D01*
X431019Y175589D01*
D02*
G37*
G36*
X426407Y179379D02*
X426545Y179363D01*
X426667Y179335D01*
X426790Y179302D01*
X426901Y179263D01*
X427006Y179218D01*
X427100Y179174D01*
X427184Y179124D01*
X427261Y179074D01*
X427328Y179030D01*
X427389Y178985D01*
X427433Y178947D01*
X427472Y178913D01*
X427500Y178885D01*
X427517Y178869D01*
X427522Y178863D01*
X427605Y178763D01*
X427677Y178652D01*
X427744Y178536D01*
X427800Y178419D01*
X427844Y178297D01*
X427883Y178175D01*
X427916Y178059D01*
X427938Y177942D01*
X427961Y177837D01*
X427972Y177731D01*
X427983Y177642D01*
X427994Y177565D01*
Y177498D01*
X427999Y177448D01*
Y177420D01*
Y177409D01*
X427994Y177243D01*
X427977Y177087D01*
X427955Y176943D01*
X427927Y176810D01*
X427888Y176682D01*
X427850Y176566D01*
X427805Y176460D01*
X427761Y176366D01*
X427722Y176283D01*
X427677Y176210D01*
X427639Y176149D01*
X427600Y176099D01*
X427572Y176055D01*
X427550Y176027D01*
X427533Y176011D01*
X427528Y176005D01*
X427433Y175916D01*
X427333Y175839D01*
X427234Y175772D01*
X427122Y175716D01*
X427017Y175666D01*
X426906Y175628D01*
X426801Y175594D01*
X426701Y175567D01*
X426606Y175550D01*
X426518Y175533D01*
X426440Y175522D01*
X426368Y175511D01*
X426312D01*
X426268Y175505D01*
X426235D01*
X426118Y175511D01*
X426002Y175517D01*
X425896Y175533D01*
X425796Y175556D01*
X425702Y175578D01*
X425619Y175605D01*
X425535Y175633D01*
X425463Y175661D01*
X425396Y175689D01*
X425341Y175716D01*
X425291Y175744D01*
X425247Y175766D01*
X425219Y175789D01*
X425191Y175805D01*
X425180Y175811D01*
X425175Y175816D01*
X425097Y175877D01*
X425030Y175944D01*
X424969Y176016D01*
X424908Y176088D01*
X424808Y176238D01*
X424730Y176377D01*
X424703Y176444D01*
X424675Y176505D01*
X424653Y176560D01*
X424636Y176610D01*
X424619Y176649D01*
X424608Y176677D01*
X424603Y176699D01*
Y176704D01*
X425258Y176788D01*
X425313Y176649D01*
X425380Y176527D01*
X425447Y176421D01*
X425507Y176344D01*
X425563Y176277D01*
X425607Y176233D01*
X425635Y176210D01*
X425641Y176199D01*
X425646D01*
X425741Y176138D01*
X425841Y176099D01*
X425940Y176066D01*
X426029Y176044D01*
X426112Y176033D01*
X426179Y176027D01*
X426201Y176022D01*
X426235D01*
X426318Y176027D01*
X426401Y176038D01*
X426479Y176049D01*
X426551Y176072D01*
X426684Y176122D01*
X426795Y176183D01*
X426845Y176210D01*
X426890Y176244D01*
X426923Y176271D01*
X426956Y176294D01*
X426978Y176316D01*
X426995Y176332D01*
X427006Y176338D01*
X427011Y176344D01*
X427067Y176410D01*
X427117Y176477D01*
X427156Y176555D01*
X427195Y176627D01*
X427256Y176788D01*
X427300Y176937D01*
X427317Y177010D01*
X427328Y177076D01*
X427339Y177132D01*
X427345Y177187D01*
X427350Y177226D01*
X427356Y177259D01*
Y177281D01*
Y177287D01*
X424586D01*
X424581Y177359D01*
Y177415D01*
Y177443D01*
Y177454D01*
X424586Y177620D01*
X424603Y177776D01*
X424625Y177925D01*
X424653Y178064D01*
X424692Y178192D01*
X424730Y178308D01*
X424775Y178414D01*
X424814Y178508D01*
X424858Y178591D01*
X424902Y178669D01*
X424941Y178730D01*
X424980Y178780D01*
X425008Y178824D01*
X425030Y178852D01*
X425047Y178869D01*
X425052Y178874D01*
X425141Y178963D01*
X425241Y179041D01*
X425341Y179113D01*
X425441Y179169D01*
X425541Y179218D01*
X425646Y179263D01*
X425741Y179296D01*
X425835Y179324D01*
X425924Y179341D01*
X426007Y179357D01*
X426079Y179368D01*
X426146Y179379D01*
X426196D01*
X426235Y179385D01*
X426268D01*
X426407Y179379D01*
D02*
G37*
G36*
X422527D02*
X422605Y179363D01*
X422672Y179346D01*
X422732Y179324D01*
X422777Y179296D01*
X422816Y179279D01*
X422838Y179263D01*
X422849Y179257D01*
X422882Y179230D01*
X422921Y179196D01*
X422988Y179124D01*
X423054Y179035D01*
X423115Y178947D01*
X423171Y178869D01*
X423210Y178797D01*
X423226Y178774D01*
X423238Y178752D01*
X423249Y178741D01*
Y179302D01*
X423815D01*
Y175589D01*
X423188D01*
Y177531D01*
X423182Y177676D01*
X423171Y177814D01*
X423154Y177936D01*
X423138Y178048D01*
X423121Y178136D01*
X423110Y178175D01*
X423104Y178208D01*
X423099Y178231D01*
X423093Y178247D01*
X423088Y178258D01*
Y178264D01*
X423054Y178342D01*
X423021Y178414D01*
X422982Y178469D01*
X422943Y178519D01*
X422910Y178558D01*
X422882Y178586D01*
X422860Y178602D01*
X422855Y178608D01*
X422788Y178652D01*
X422727Y178680D01*
X422666Y178702D01*
X422605Y178719D01*
X422555Y178730D01*
X422516Y178736D01*
X422483D01*
X422394Y178730D01*
X422311Y178713D01*
X422233Y178691D01*
X422166Y178669D01*
X422105Y178641D01*
X422061Y178619D01*
X422033Y178602D01*
X422022Y178597D01*
X421800Y179180D01*
X421922Y179246D01*
X422044Y179296D01*
X422150Y179335D01*
X422250Y179357D01*
X422333Y179374D01*
X422366Y179379D01*
X422394D01*
X422416Y179385D01*
X422449D01*
X422527Y179379D01*
D02*
G37*
G36*
X417843Y175589D02*
X417216D01*
Y179302D01*
X417843D01*
Y175589D01*
D02*
G37*
G36*
X410678Y179379D02*
X410811Y179357D01*
X410933Y179330D01*
X411050Y179291D01*
X411155Y179241D01*
X411249Y179191D01*
X411338Y179135D01*
X411416Y179080D01*
X411488Y179019D01*
X411549Y178963D01*
X411599Y178913D01*
X411638Y178863D01*
X411671Y178824D01*
X411699Y178797D01*
X411710Y178774D01*
X411716Y178769D01*
Y179302D01*
X412282D01*
Y175589D01*
X411655D01*
Y177615D01*
X411649Y177742D01*
X411644Y177864D01*
X411627Y177970D01*
X411610Y178070D01*
X411588Y178158D01*
X411566Y178236D01*
X411538Y178308D01*
X411510Y178369D01*
X411483Y178425D01*
X411455Y178469D01*
X411433Y178503D01*
X411411Y178536D01*
X411394Y178558D01*
X411377Y178575D01*
X411372Y178580D01*
X411366Y178586D01*
X411311Y178630D01*
X411249Y178669D01*
X411133Y178736D01*
X411016Y178780D01*
X410911Y178808D01*
X410817Y178830D01*
X410772Y178835D01*
X410739D01*
X410711Y178841D01*
X410672D01*
X410578Y178835D01*
X410495Y178824D01*
X410423Y178802D01*
X410356Y178786D01*
X410306Y178763D01*
X410267Y178741D01*
X410240Y178730D01*
X410234Y178725D01*
X410167Y178680D01*
X410112Y178630D01*
X410067Y178580D01*
X410034Y178530D01*
X410006Y178486D01*
X409990Y178453D01*
X409979Y178430D01*
X409973Y178419D01*
X409945Y178342D01*
X409929Y178253D01*
X409912Y178158D01*
X409906Y178064D01*
X409901Y177981D01*
X409895Y177942D01*
Y177909D01*
Y177886D01*
Y177864D01*
Y177853D01*
Y177848D01*
Y175589D01*
X409268D01*
Y177870D01*
Y177948D01*
Y178020D01*
X409274Y178092D01*
Y178153D01*
X409279Y178208D01*
Y178258D01*
X409285Y178342D01*
X409296Y178403D01*
X409302Y178447D01*
X409307Y178475D01*
Y178480D01*
X409329Y178580D01*
X409363Y178669D01*
X409390Y178747D01*
X409424Y178813D01*
X409457Y178869D01*
X409479Y178913D01*
X409496Y178935D01*
X409501Y178947D01*
X409557Y179019D01*
X409623Y179080D01*
X409696Y179130D01*
X409762Y179180D01*
X409829Y179213D01*
X409879Y179241D01*
X409912Y179257D01*
X409918Y179263D01*
X409923D01*
X410029Y179302D01*
X410134Y179335D01*
X410240Y179357D01*
X410334Y179368D01*
X410417Y179379D01*
X410450D01*
X410484Y179385D01*
X410539D01*
X410678Y179379D01*
D02*
G37*
G36*
X402159Y175589D02*
X401443D01*
Y176305D01*
X402159D01*
Y175589D01*
D02*
G37*
G36*
X420313Y179379D02*
X420413Y179374D01*
X420507Y179363D01*
X420585Y179346D01*
X420657Y179330D01*
X420707Y179318D01*
X420740Y179313D01*
X420746Y179307D01*
X420751D01*
X420840Y179279D01*
X420923Y179246D01*
X420990Y179213D01*
X421045Y179185D01*
X421090Y179163D01*
X421123Y179141D01*
X421145Y179130D01*
X421151Y179124D01*
X421223Y179069D01*
X421284Y179013D01*
X421340Y178952D01*
X421378Y178897D01*
X421417Y178847D01*
X421439Y178808D01*
X421456Y178786D01*
X421461Y178774D01*
X421500Y178697D01*
X421528Y178614D01*
X421545Y178536D01*
X421556Y178464D01*
X421567Y178403D01*
X421572Y178358D01*
Y178325D01*
Y178319D01*
Y178314D01*
X421567Y178214D01*
X421550Y178120D01*
X421528Y178036D01*
X421506Y177964D01*
X421484Y177903D01*
X421461Y177853D01*
X421445Y177825D01*
X421439Y177814D01*
X421384Y177737D01*
X421317Y177664D01*
X421251Y177609D01*
X421184Y177559D01*
X421123Y177515D01*
X421079Y177487D01*
X421045Y177470D01*
X421040Y177465D01*
X421034D01*
X420979Y177443D01*
X420912Y177415D01*
X420846Y177387D01*
X420768Y177365D01*
X420607Y177315D01*
X420451Y177265D01*
X420374Y177243D01*
X420302Y177220D01*
X420235Y177204D01*
X420180Y177187D01*
X420135Y177176D01*
X420096Y177165D01*
X420074Y177159D01*
X420069D01*
X419980Y177137D01*
X419897Y177115D01*
X419819Y177093D01*
X419752Y177071D01*
X419691Y177054D01*
X419641Y177037D01*
X419597Y177021D01*
X419552Y177004D01*
X419519Y176993D01*
X419491Y176982D01*
X419452Y176965D01*
X419430Y176954D01*
X419425Y176949D01*
X419364Y176899D01*
X419314Y176843D01*
X419280Y176788D01*
X419258Y176732D01*
X419247Y176688D01*
X419236Y176643D01*
Y176621D01*
Y176610D01*
X419247Y176521D01*
X419269Y176444D01*
X419303Y176371D01*
X419341Y176310D01*
X419380Y176260D01*
X419414Y176227D01*
X419436Y176199D01*
X419447Y176194D01*
X419536Y176138D01*
X419636Y176094D01*
X419747Y176066D01*
X419852Y176044D01*
X419946Y176033D01*
X419985Y176027D01*
X420024D01*
X420052Y176022D01*
X420096D01*
X420246Y176033D01*
X420379Y176055D01*
X420496Y176083D01*
X420590Y176122D01*
X420668Y176155D01*
X420723Y176188D01*
X420757Y176210D01*
X420762Y176216D01*
X420768D01*
X420851Y176299D01*
X420912Y176388D01*
X420962Y176488D01*
X421001Y176582D01*
X421029Y176665D01*
X421040Y176699D01*
X421045Y176732D01*
X421051Y176760D01*
Y176777D01*
X421056Y176788D01*
Y176793D01*
X421678Y176693D01*
X421656Y176588D01*
X421628Y176482D01*
X421595Y176388D01*
X421561Y176305D01*
X421523Y176222D01*
X421484Y176149D01*
X421445Y176083D01*
X421400Y176022D01*
X421362Y175972D01*
X421323Y175927D01*
X421289Y175889D01*
X421262Y175855D01*
X421234Y175833D01*
X421217Y175816D01*
X421206Y175805D01*
X421201Y175800D01*
X421123Y175750D01*
X421045Y175705D01*
X420957Y175661D01*
X420868Y175628D01*
X420679Y175578D01*
X420501Y175544D01*
X420418Y175528D01*
X420340Y175522D01*
X420268Y175517D01*
X420213Y175511D01*
X420163Y175505D01*
X420091D01*
X419930Y175511D01*
X419785Y175528D01*
X419652Y175556D01*
X419536Y175583D01*
X419486Y175594D01*
X419441Y175605D01*
X419403Y175622D01*
X419369Y175633D01*
X419341Y175644D01*
X419325Y175650D01*
X419314Y175655D01*
X419308D01*
X419186Y175716D01*
X419081Y175783D01*
X418992Y175855D01*
X418914Y175927D01*
X418859Y175988D01*
X418814Y176038D01*
X418792Y176072D01*
X418781Y176077D01*
Y176083D01*
X418720Y176188D01*
X418670Y176294D01*
X418637Y176394D01*
X418614Y176482D01*
X418603Y176560D01*
X418592Y176621D01*
Y176643D01*
Y176660D01*
Y176671D01*
Y176677D01*
X418598Y176793D01*
X418614Y176899D01*
X418642Y176987D01*
X418670Y177065D01*
X418698Y177132D01*
X418725Y177176D01*
X418742Y177204D01*
X418748Y177215D01*
X418809Y177293D01*
X418875Y177359D01*
X418947Y177415D01*
X419014Y177459D01*
X419069Y177498D01*
X419119Y177520D01*
X419153Y177537D01*
X419158Y177542D01*
X419164D01*
X419219Y177565D01*
X419280Y177587D01*
X419347Y177615D01*
X419419Y177637D01*
X419569Y177687D01*
X419724Y177731D01*
X419797Y177753D01*
X419869Y177776D01*
X419930Y177792D01*
X419980Y177809D01*
X420030Y177820D01*
X420063Y177831D01*
X420085Y177837D01*
X420091D01*
X420174Y177859D01*
X420246Y177881D01*
X420313Y177898D01*
X420374Y177914D01*
X420424Y177931D01*
X420468Y177942D01*
X420507Y177953D01*
X420540Y177964D01*
X420590Y177981D01*
X420623Y177992D01*
X420640Y177998D01*
X420646D01*
X420701Y178025D01*
X420751Y178053D01*
X420796Y178081D01*
X420829Y178109D01*
X420857Y178131D01*
X420873Y178147D01*
X420884Y178158D01*
X420890Y178164D01*
X420912Y178203D01*
X420929Y178242D01*
X420951Y178314D01*
X420957Y178342D01*
X420962Y178364D01*
Y178380D01*
Y178386D01*
X420957Y178458D01*
X420934Y178519D01*
X420906Y178580D01*
X420868Y178630D01*
X420834Y178669D01*
X420807Y178697D01*
X420785Y178719D01*
X420779Y178725D01*
X420740Y178752D01*
X420701Y178774D01*
X420607Y178808D01*
X420501Y178835D01*
X420401Y178852D01*
X420307Y178863D01*
X420268D01*
X420235Y178869D01*
X420163D01*
X420030Y178863D01*
X419919Y178841D01*
X419819Y178819D01*
X419735Y178786D01*
X419674Y178758D01*
X419630Y178730D01*
X419602Y178708D01*
X419591Y178702D01*
X419525Y178636D01*
X419469Y178564D01*
X419425Y178491D01*
X419391Y178419D01*
X419369Y178358D01*
X419358Y178303D01*
X419347Y178270D01*
Y178264D01*
Y178258D01*
X418731Y178342D01*
X418759Y178469D01*
X418792Y178580D01*
X418825Y178680D01*
X418864Y178763D01*
X418897Y178824D01*
X418925Y178874D01*
X418947Y178902D01*
X418953Y178913D01*
X419020Y178991D01*
X419097Y179058D01*
X419175Y179119D01*
X419253Y179169D01*
X419330Y179207D01*
X419386Y179235D01*
X419408Y179246D01*
X419425Y179252D01*
X419436Y179257D01*
X419441D01*
X419569Y179302D01*
X419697Y179330D01*
X419830Y179352D01*
X419946Y179368D01*
X420052Y179379D01*
X420096D01*
X420135Y179385D01*
X420207D01*
X420313Y179379D01*
D02*
G37*
G36*
X414885D02*
X415007Y179368D01*
X415118Y179346D01*
X415229Y179318D01*
X415334Y179291D01*
X415429Y179252D01*
X415518Y179218D01*
X415595Y179180D01*
X415673Y179141D01*
X415734Y179102D01*
X415790Y179063D01*
X415839Y179035D01*
X415873Y179008D01*
X415901Y178985D01*
X415917Y178974D01*
X415923Y178969D01*
X416022Y178869D01*
X416111Y178763D01*
X416189Y178647D01*
X416256Y178525D01*
X416306Y178397D01*
X416356Y178270D01*
X416394Y178142D01*
X416422Y178020D01*
X416444Y177903D01*
X416467Y177798D01*
X416478Y177698D01*
X416483Y177609D01*
X416489Y177542D01*
X416494Y177487D01*
Y177454D01*
Y177448D01*
Y177443D01*
X416489Y177270D01*
X416472Y177110D01*
X416450Y176960D01*
X416422Y176821D01*
X416383Y176693D01*
X416344Y176577D01*
X416300Y176471D01*
X416256Y176371D01*
X416211Y176288D01*
X416167Y176210D01*
X416128Y176149D01*
X416089Y176099D01*
X416061Y176055D01*
X416039Y176027D01*
X416022Y176011D01*
X416017Y176005D01*
X415923Y175916D01*
X415823Y175839D01*
X415723Y175772D01*
X415617Y175716D01*
X415512Y175666D01*
X415407Y175628D01*
X415307Y175594D01*
X415207Y175567D01*
X415112Y175550D01*
X415029Y175533D01*
X414951Y175522D01*
X414885Y175511D01*
X414829D01*
X414790Y175505D01*
X414757D01*
X414580Y175517D01*
X414413Y175539D01*
X414263Y175578D01*
X414191Y175594D01*
X414130Y175617D01*
X414069Y175639D01*
X414019Y175655D01*
X413975Y175678D01*
X413936Y175694D01*
X413903Y175705D01*
X413880Y175716D01*
X413869Y175727D01*
X413864D01*
X413719Y175822D01*
X413592Y175922D01*
X413486Y176027D01*
X413397Y176133D01*
X413325Y176222D01*
X413298Y176266D01*
X413275Y176299D01*
X413259Y176327D01*
X413247Y176349D01*
X413236Y176360D01*
Y176366D01*
X413198Y176449D01*
X413164Y176532D01*
X413109Y176716D01*
X413070Y176904D01*
X413048Y177082D01*
X413037Y177165D01*
X413031Y177243D01*
X413026Y177315D01*
Y177376D01*
X413020Y177426D01*
Y177459D01*
Y177487D01*
Y177492D01*
X413026Y177653D01*
X413042Y177809D01*
X413064Y177953D01*
X413098Y178086D01*
X413131Y178208D01*
X413175Y178319D01*
X413220Y178425D01*
X413264Y178519D01*
X413309Y178602D01*
X413353Y178675D01*
X413397Y178736D01*
X413431Y178786D01*
X413464Y178830D01*
X413486Y178858D01*
X413503Y178874D01*
X413508Y178880D01*
X413603Y178969D01*
X413703Y179046D01*
X413802Y179113D01*
X413908Y179174D01*
X414013Y179218D01*
X414113Y179263D01*
X414219Y179296D01*
X414313Y179324D01*
X414407Y179341D01*
X414491Y179357D01*
X414563Y179368D01*
X414630Y179379D01*
X414685D01*
X414724Y179385D01*
X414757D01*
X414885Y179379D01*
D02*
G37*
G36*
X398956Y180722D02*
X399056Y180717D01*
X399151Y180700D01*
X399239Y180684D01*
X399317Y180661D01*
X399395Y180634D01*
X399467Y180606D01*
X399528Y180578D01*
X399589Y180551D01*
X399639Y180523D01*
X399683Y180500D01*
X399717Y180473D01*
X399744Y180456D01*
X399767Y180439D01*
X399778Y180434D01*
X399783Y180428D01*
X399850Y180367D01*
X399911Y180306D01*
X400022Y180167D01*
X400122Y180029D01*
X400200Y179890D01*
X400233Y179823D01*
X400261Y179768D01*
X400283Y179712D01*
X400305Y179668D01*
X400316Y179629D01*
X400327Y179596D01*
X400338Y179579D01*
Y179574D01*
X400372Y179468D01*
X400399Y179352D01*
X400444Y179113D01*
X400477Y178869D01*
X400488Y178752D01*
X400499Y178636D01*
X400505Y178530D01*
X400510Y178430D01*
X400516Y178342D01*
Y178264D01*
X400521Y178203D01*
Y178153D01*
Y178125D01*
Y178114D01*
X400516Y177853D01*
X400499Y177609D01*
X400477Y177387D01*
X400444Y177182D01*
X400405Y176993D01*
X400360Y176821D01*
X400316Y176671D01*
X400266Y176532D01*
X400222Y176416D01*
X400177Y176310D01*
X400133Y176227D01*
X400094Y176155D01*
X400061Y176099D01*
X400038Y176060D01*
X400022Y176038D01*
X400016Y176033D01*
X399933Y175938D01*
X399844Y175861D01*
X399750Y175789D01*
X399656Y175727D01*
X399561Y175678D01*
X399461Y175633D01*
X399367Y175600D01*
X399278Y175572D01*
X399189Y175550D01*
X399112Y175533D01*
X399040Y175522D01*
X398978Y175517D01*
X398928Y175511D01*
X398890Y175505D01*
X398856D01*
X398751Y175511D01*
X398657Y175517D01*
X398562Y175533D01*
X398474Y175550D01*
X398390Y175578D01*
X398318Y175600D01*
X398246Y175628D01*
X398185Y175655D01*
X398124Y175683D01*
X398074Y175711D01*
X398029Y175739D01*
X397996Y175761D01*
X397968Y175777D01*
X397946Y175794D01*
X397935Y175800D01*
X397930Y175805D01*
X397863Y175866D01*
X397796Y175927D01*
X397685Y176066D01*
X397591Y176205D01*
X397513Y176344D01*
X397480Y176410D01*
X397452Y176471D01*
X397430Y176521D01*
X397408Y176571D01*
X397391Y176604D01*
X397386Y176638D01*
X397375Y176654D01*
Y176660D01*
X397341Y176765D01*
X397313Y176882D01*
X397264Y177121D01*
X397230Y177365D01*
X397219Y177481D01*
X397208Y177598D01*
X397202Y177703D01*
X397197Y177803D01*
X397191Y177886D01*
X397186Y177964D01*
Y178025D01*
Y178075D01*
Y178103D01*
Y178114D01*
Y178253D01*
X397191Y178386D01*
X397197Y178508D01*
X397202Y178625D01*
X397214Y178730D01*
X397225Y178830D01*
X397236Y178919D01*
X397241Y179002D01*
X397252Y179074D01*
X397264Y179135D01*
X397275Y179191D01*
X397286Y179235D01*
X397291Y179274D01*
X397297Y179296D01*
X397302Y179313D01*
Y179318D01*
X397347Y179479D01*
X397402Y179629D01*
X397452Y179757D01*
X397502Y179868D01*
X397530Y179912D01*
X397547Y179957D01*
X397569Y179996D01*
X397585Y180023D01*
X397602Y180045D01*
X397608Y180062D01*
X397619Y180073D01*
Y180079D01*
X397696Y180190D01*
X397785Y180290D01*
X397868Y180373D01*
X397952Y180439D01*
X398024Y180495D01*
X398079Y180528D01*
X398102Y180545D01*
X398118Y180556D01*
X398129Y180562D01*
X398135D01*
X398257Y180617D01*
X398379Y180656D01*
X398501Y180689D01*
X398612Y180706D01*
X398712Y180717D01*
X398751Y180722D01*
X398790Y180728D01*
X398856D01*
X398956Y180722D01*
D02*
G37*
%LPC*%
G36*
X402137Y192501D02*
X401015D01*
X400921Y192495D01*
X400838D01*
X400760Y192490D01*
X400688Y192484D01*
X400627Y192479D01*
X400566Y192473D01*
X400516Y192467D01*
X400477Y192456D01*
X400438Y192451D01*
X400405Y192445D01*
X400383Y192440D01*
X400360Y192434D01*
X400349D01*
X400338Y192429D01*
X400255Y192395D01*
X400188Y192356D01*
X400127Y192312D01*
X400077Y192268D01*
X400038Y192229D01*
X400011Y192195D01*
X399994Y192173D01*
X399989Y192162D01*
X399944Y192090D01*
X399916Y192012D01*
X399894Y191935D01*
X399878Y191862D01*
X399867Y191801D01*
X399861Y191757D01*
Y191724D01*
Y191718D01*
Y191713D01*
X399867Y191613D01*
X399883Y191530D01*
X399905Y191452D01*
X399928Y191385D01*
X399950Y191335D01*
X399972Y191296D01*
X399989Y191274D01*
X399994Y191263D01*
X400050Y191202D01*
X400111Y191147D01*
X400177Y191102D01*
X400238Y191069D01*
X400294Y191041D01*
X400338Y191024D01*
X400372Y191013D01*
X400377Y191008D01*
X400383D01*
X400421Y190997D01*
X400466Y190991D01*
X400566Y190974D01*
X400677Y190963D01*
X400782Y190958D01*
X400877D01*
X400921Y190952D01*
X402137D01*
Y192501D01*
D02*
G37*
G36*
Y190347D02*
X400954D01*
X400782Y190342D01*
X400632Y190336D01*
X400566Y190325D01*
X400505Y190320D01*
X400449Y190314D01*
X400394Y190303D01*
X400349Y190297D01*
X400311Y190286D01*
X400283Y190281D01*
X400255Y190275D01*
X400233Y190270D01*
X400216Y190264D01*
X400211Y190259D01*
X400205D01*
X400111Y190220D01*
X400033Y190175D01*
X399961Y190131D01*
X399900Y190081D01*
X399855Y190037D01*
X399822Y189998D01*
X399800Y189976D01*
X399794Y189964D01*
X399744Y189881D01*
X399706Y189798D01*
X399683Y189715D01*
X399661Y189637D01*
X399650Y189565D01*
X399644Y189515D01*
Y189493D01*
Y189476D01*
Y189471D01*
Y189465D01*
X399650Y189376D01*
X399661Y189293D01*
X399678Y189221D01*
X399694Y189160D01*
X399717Y189104D01*
X399733Y189065D01*
X399744Y189043D01*
X399750Y189032D01*
X399789Y188965D01*
X399833Y188910D01*
X399878Y188860D01*
X399916Y188821D01*
X399955Y188788D01*
X399983Y188766D01*
X400005Y188754D01*
X400011Y188749D01*
X400072Y188716D01*
X400139Y188688D01*
X400200Y188660D01*
X400261Y188644D01*
X400316Y188627D01*
X400360Y188616D01*
X400388Y188610D01*
X400399D01*
X400455Y188605D01*
X400527Y188599D01*
X400605Y188594D01*
X400677D01*
X400749Y188588D01*
X402137D01*
Y190347D01*
D02*
G37*
G36*
X349334Y192096D02*
Y189787D01*
X350949D01*
X349334Y192096D01*
D02*
G37*
G36*
X379892Y192612D02*
X379764D01*
X379670Y192601D01*
X379498Y192573D01*
X379343Y192528D01*
X379276Y192506D01*
X379209Y192484D01*
X379148Y192456D01*
X379098Y192434D01*
X379054Y192412D01*
X379015Y192390D01*
X378982Y192373D01*
X378960Y192362D01*
X378948Y192356D01*
X378943Y192351D01*
X378799Y192245D01*
X378677Y192129D01*
X378571Y192012D01*
X378482Y191896D01*
X378416Y191790D01*
X378388Y191746D01*
X378366Y191707D01*
X378349Y191674D01*
X378338Y191652D01*
X378327Y191635D01*
Y191629D01*
X378255Y191446D01*
X378199Y191263D01*
X378160Y191080D01*
X378138Y190908D01*
X378127Y190830D01*
X378122Y190758D01*
X378116Y190697D01*
Y190641D01*
X378111Y190597D01*
Y190564D01*
Y190542D01*
Y190536D01*
X378116Y190358D01*
X378133Y190186D01*
X378155Y190031D01*
X378188Y189881D01*
X378227Y189742D01*
X378266Y189620D01*
X378316Y189504D01*
X378360Y189404D01*
X378405Y189310D01*
X378449Y189232D01*
X378493Y189165D01*
X378532Y189110D01*
X378566Y189065D01*
X378588Y189038D01*
X378604Y189015D01*
X378610Y189010D01*
X378704Y188916D01*
X378804Y188832D01*
X378910Y188766D01*
X379015Y188705D01*
X379121Y188649D01*
X379226Y188605D01*
X379326Y188571D01*
X379426Y188544D01*
X379515Y188521D01*
X379604Y188505D01*
X379676Y188494D01*
X379742Y188488D01*
X379798Y188482D01*
X379837Y188477D01*
X379870D01*
X380009Y188482D01*
X380136Y188499D01*
X380264Y188527D01*
X380381Y188560D01*
X380491Y188599D01*
X380591Y188644D01*
X380691Y188693D01*
X380774Y188743D01*
X380852Y188788D01*
X380919Y188838D01*
X380980Y188882D01*
X381030Y188921D01*
X381069Y188954D01*
X381096Y188982D01*
X381113Y188999D01*
X381119Y189004D01*
X381207Y189110D01*
X381280Y189221D01*
X381346Y189337D01*
X381402Y189459D01*
X381452Y189581D01*
X381490Y189698D01*
X381524Y189820D01*
X381552Y189937D01*
X381574Y190042D01*
X381585Y190142D01*
X381596Y190231D01*
X381607Y190308D01*
Y190375D01*
X381613Y190425D01*
Y190453D01*
Y190464D01*
X381607Y190675D01*
X381590Y190869D01*
X381563Y191047D01*
X381529Y191208D01*
X381490Y191357D01*
X381452Y191491D01*
X381402Y191613D01*
X381352Y191724D01*
X381307Y191813D01*
X381257Y191896D01*
X381219Y191962D01*
X381174Y192018D01*
X381146Y192057D01*
X381119Y192090D01*
X381102Y192107D01*
X381096Y192112D01*
X380996Y192201D01*
X380891Y192279D01*
X380786Y192345D01*
X380680Y192401D01*
X380580Y192451D01*
X380475Y192490D01*
X380375Y192523D01*
X380280Y192551D01*
X380192Y192567D01*
X380114Y192584D01*
X380042Y192595D01*
X379981Y192606D01*
X379925D01*
X379892Y192612D01*
D02*
G37*
G36*
X432323Y186270D02*
X431141D01*
X431041Y186265D01*
X430946Y186259D01*
X430858Y186254D01*
X430780Y186248D01*
X430708Y186237D01*
X430641Y186226D01*
X430586Y186220D01*
X430536Y186209D01*
X430491Y186198D01*
X430458Y186187D01*
X430425Y186181D01*
X430403Y186176D01*
X430386Y186170D01*
X430380Y186165D01*
X430375D01*
X430303Y186132D01*
X430236Y186098D01*
X430114Y186010D01*
X430003Y185915D01*
X429909Y185815D01*
X429837Y185726D01*
X429803Y185688D01*
X429781Y185654D01*
X429759Y185621D01*
X429742Y185599D01*
X429737Y185588D01*
X429731Y185582D01*
X429687Y185499D01*
X429642Y185405D01*
X429576Y185210D01*
X429531Y185005D01*
X429498Y184805D01*
X429487Y184711D01*
X429476Y184627D01*
X429470Y184550D01*
Y184483D01*
X429465Y184428D01*
Y184383D01*
Y184361D01*
Y184350D01*
X429470Y184139D01*
X429487Y183950D01*
X429498Y183862D01*
X429509Y183784D01*
X429520Y183706D01*
X429531Y183640D01*
X429548Y183579D01*
X429559Y183523D01*
X429570Y183473D01*
X429581Y183434D01*
X429592Y183401D01*
X429598Y183379D01*
X429603Y183368D01*
Y183362D01*
X429659Y183218D01*
X429720Y183090D01*
X429781Y182979D01*
X429837Y182885D01*
X429892Y182813D01*
X429936Y182757D01*
X429964Y182724D01*
X429970Y182718D01*
X429975Y182713D01*
X430042Y182652D01*
X430120Y182596D01*
X430197Y182552D01*
X430269Y182513D01*
X430336Y182485D01*
X430386Y182463D01*
X430408Y182457D01*
X430425Y182452D01*
X430430Y182446D01*
X430436D01*
X430552Y182419D01*
X430680Y182396D01*
X430813Y182380D01*
X430941Y182369D01*
X431052Y182363D01*
X431102D01*
X431146Y182358D01*
X432323D01*
Y186270D01*
D02*
G37*
G36*
X417599Y186309D02*
X415873D01*
X415778Y186298D01*
X415690Y186287D01*
X415606Y186270D01*
X415534Y186254D01*
X415468Y186232D01*
X415407Y186215D01*
X415351Y186193D01*
X415301Y186170D01*
X415262Y186148D01*
X415223Y186126D01*
X415196Y186109D01*
X415173Y186093D01*
X415157Y186082D01*
X415151Y186076D01*
X415146Y186071D01*
X415101Y186026D01*
X415057Y185976D01*
X414990Y185882D01*
X414946Y185782D01*
X414913Y185688D01*
X414890Y185604D01*
X414885Y185565D01*
Y185538D01*
X414879Y185510D01*
Y185493D01*
Y185482D01*
Y185477D01*
X414885Y185388D01*
X414901Y185299D01*
X414924Y185221D01*
X414946Y185155D01*
X414974Y185094D01*
X414996Y185055D01*
X415012Y185027D01*
X415018Y185016D01*
X415073Y184944D01*
X415140Y184877D01*
X415207Y184827D01*
X415268Y184783D01*
X415329Y184750D01*
X415373Y184727D01*
X415407Y184716D01*
X415412Y184711D01*
X415418D01*
X415523Y184678D01*
X415640Y184655D01*
X415762Y184639D01*
X415878Y184627D01*
X415984Y184622D01*
X416028D01*
X416067Y184616D01*
X417599D01*
Y186309D01*
D02*
G37*
G36*
X412471Y186270D02*
X411349D01*
X411255Y186265D01*
X411172D01*
X411094Y186259D01*
X411022Y186254D01*
X410961Y186248D01*
X410900Y186243D01*
X410850Y186237D01*
X410811Y186226D01*
X410772Y186220D01*
X410739Y186215D01*
X410717Y186209D01*
X410695Y186204D01*
X410683D01*
X410672Y186198D01*
X410589Y186165D01*
X410523Y186126D01*
X410461Y186082D01*
X410412Y186037D01*
X410373Y185998D01*
X410345Y185965D01*
X410328Y185943D01*
X410323Y185932D01*
X410278Y185860D01*
X410251Y185782D01*
X410228Y185704D01*
X410212Y185632D01*
X410201Y185571D01*
X410195Y185527D01*
Y185493D01*
Y185488D01*
Y185482D01*
X410201Y185382D01*
X410217Y185299D01*
X410240Y185221D01*
X410262Y185155D01*
X410284Y185105D01*
X410306Y185066D01*
X410323Y185044D01*
X410328Y185033D01*
X410384Y184972D01*
X410445Y184916D01*
X410511Y184872D01*
X410572Y184838D01*
X410628Y184811D01*
X410672Y184794D01*
X410706Y184783D01*
X410711Y184777D01*
X410717D01*
X410756Y184766D01*
X410800Y184761D01*
X410900Y184744D01*
X411011Y184733D01*
X411116Y184727D01*
X411211D01*
X411255Y184722D01*
X412471D01*
Y186270D01*
D02*
G37*
G36*
Y184117D02*
X411288D01*
X411116Y184111D01*
X410966Y184106D01*
X410900Y184095D01*
X410839Y184089D01*
X410783Y184084D01*
X410728Y184072D01*
X410683Y184067D01*
X410645Y184056D01*
X410617Y184050D01*
X410589Y184045D01*
X410567Y184039D01*
X410550Y184034D01*
X410545Y184028D01*
X410539D01*
X410445Y183989D01*
X410367Y183945D01*
X410295Y183900D01*
X410234Y183851D01*
X410189Y183806D01*
X410156Y183767D01*
X410134Y183745D01*
X410128Y183734D01*
X410078Y183651D01*
X410040Y183568D01*
X410017Y183484D01*
X409995Y183406D01*
X409984Y183334D01*
X409979Y183284D01*
Y183262D01*
Y183246D01*
Y183240D01*
Y183235D01*
X409984Y183146D01*
X409995Y183062D01*
X410012Y182990D01*
X410029Y182929D01*
X410051Y182874D01*
X410067Y182835D01*
X410078Y182813D01*
X410084Y182802D01*
X410123Y182735D01*
X410167Y182679D01*
X410212Y182630D01*
X410251Y182591D01*
X410289Y182557D01*
X410317Y182535D01*
X410339Y182524D01*
X410345Y182518D01*
X410406Y182485D01*
X410472Y182457D01*
X410534Y182430D01*
X410595Y182413D01*
X410650Y182396D01*
X410695Y182385D01*
X410722Y182380D01*
X410733D01*
X410789Y182374D01*
X410861Y182369D01*
X410939Y182363D01*
X411011D01*
X411083Y182358D01*
X412471D01*
Y184117D01*
D02*
G37*
G36*
X426312Y178869D02*
X426268D01*
X426179Y178863D01*
X426096Y178852D01*
X426018Y178835D01*
X425946Y178813D01*
X425813Y178752D01*
X425752Y178719D01*
X425696Y178686D01*
X425652Y178652D01*
X425607Y178619D01*
X425568Y178586D01*
X425541Y178558D01*
X425519Y178536D01*
X425496Y178519D01*
X425491Y178508D01*
X425485Y178503D01*
X425419Y178408D01*
X425363Y178297D01*
X425324Y178181D01*
X425291Y178064D01*
X425269Y177964D01*
X425263Y177920D01*
X425258Y177881D01*
X425252Y177848D01*
X425247Y177825D01*
Y177809D01*
Y177803D01*
X427322D01*
X427311Y177892D01*
X427300Y177975D01*
X427261Y178125D01*
X427206Y178258D01*
X427178Y178319D01*
X427150Y178369D01*
X427122Y178419D01*
X427095Y178458D01*
X427067Y178491D01*
X427045Y178525D01*
X427028Y178547D01*
X427011Y178564D01*
X427006Y178569D01*
X427001Y178575D01*
X426945Y178625D01*
X426884Y178675D01*
X426823Y178713D01*
X426762Y178747D01*
X426634Y178797D01*
X426523Y178830D01*
X426418Y178852D01*
X426379Y178858D01*
X426340Y178863D01*
X426312Y178869D01*
D02*
G37*
G36*
X414802Y178863D02*
X414757D01*
X414674Y178858D01*
X414591Y178847D01*
X414513Y178830D01*
X414441Y178808D01*
X414308Y178752D01*
X414191Y178686D01*
X414147Y178652D01*
X414102Y178619D01*
X414069Y178591D01*
X414036Y178564D01*
X414013Y178541D01*
X413997Y178525D01*
X413986Y178514D01*
X413980Y178508D01*
X413925Y178436D01*
X413875Y178364D01*
X413836Y178280D01*
X413797Y178197D01*
X413764Y178109D01*
X413741Y178020D01*
X413703Y177853D01*
X413692Y177776D01*
X413681Y177703D01*
X413675Y177637D01*
X413669Y177576D01*
X413664Y177531D01*
Y177492D01*
Y177470D01*
Y177465D01*
X413669Y177331D01*
X413675Y177209D01*
X413692Y177093D01*
X413714Y176987D01*
X413736Y176888D01*
X413764Y176799D01*
X413791Y176716D01*
X413819Y176649D01*
X413853Y176582D01*
X413880Y176527D01*
X413908Y176482D01*
X413930Y176444D01*
X413952Y176416D01*
X413969Y176394D01*
X413975Y176382D01*
X413980Y176377D01*
X414041Y176316D01*
X414102Y176260D01*
X414169Y176210D01*
X414230Y176172D01*
X414296Y176138D01*
X414363Y176110D01*
X414485Y176066D01*
X414591Y176038D01*
X414641Y176033D01*
X414679Y176027D01*
X414713Y176022D01*
X414757D01*
X414846Y176027D01*
X414924Y176038D01*
X415007Y176055D01*
X415079Y176077D01*
X415212Y176133D01*
X415323Y176199D01*
X415373Y176227D01*
X415418Y176260D01*
X415451Y176288D01*
X415484Y176316D01*
X415506Y176338D01*
X415523Y176355D01*
X415534Y176366D01*
X415540Y176371D01*
X415595Y176444D01*
X415640Y176521D01*
X415684Y176604D01*
X415717Y176688D01*
X415773Y176865D01*
X415812Y177043D01*
X415823Y177121D01*
X415834Y177198D01*
X415839Y177265D01*
X415845Y177326D01*
X415850Y177376D01*
Y177409D01*
Y177437D01*
Y177443D01*
X415845Y177570D01*
X415839Y177692D01*
X415823Y177803D01*
X415801Y177909D01*
X415778Y178003D01*
X415751Y178092D01*
X415723Y178170D01*
X415695Y178242D01*
X415667Y178303D01*
X415640Y178358D01*
X415612Y178403D01*
X415590Y178442D01*
X415567Y178469D01*
X415551Y178491D01*
X415545Y178503D01*
X415540Y178508D01*
X415479Y178569D01*
X415418Y178625D01*
X415351Y178675D01*
X415284Y178713D01*
X415218Y178747D01*
X415157Y178774D01*
X415029Y178819D01*
X414924Y178847D01*
X414874Y178852D01*
X414835Y178858D01*
X414802Y178863D01*
D02*
G37*
G36*
X398901Y180206D02*
X398862D01*
X398779Y180201D01*
X398707Y180190D01*
X398629Y180167D01*
X398562Y180140D01*
X398435Y180073D01*
X398329Y180001D01*
X398285Y179962D01*
X398246Y179923D01*
X398213Y179885D01*
X398179Y179857D01*
X398157Y179829D01*
X398141Y179807D01*
X398135Y179796D01*
X398129Y179790D01*
X398074Y179701D01*
X398029Y179601D01*
X397991Y179479D01*
X397957Y179352D01*
X397930Y179218D01*
X397902Y179080D01*
X397868Y178797D01*
X397852Y178664D01*
X397846Y178536D01*
X397841Y178419D01*
X397835Y178319D01*
X397830Y178231D01*
Y178197D01*
Y178170D01*
Y178147D01*
Y178131D01*
Y178120D01*
Y178114D01*
X397835Y177886D01*
X397841Y177681D01*
X397857Y177492D01*
X397874Y177320D01*
X397896Y177165D01*
X397924Y177032D01*
X397952Y176910D01*
X397979Y176804D01*
X398007Y176715D01*
X398035Y176638D01*
X398057Y176571D01*
X398085Y176521D01*
X398102Y176482D01*
X398118Y176460D01*
X398124Y176444D01*
X398129Y176438D01*
X398185Y176366D01*
X398246Y176299D01*
X398307Y176244D01*
X398368Y176199D01*
X398429Y176155D01*
X398490Y176122D01*
X398546Y176094D01*
X398601Y176072D01*
X398701Y176044D01*
X398745Y176033D01*
X398784Y176027D01*
X398812D01*
X398840Y176022D01*
X398856D01*
X398934Y176027D01*
X399012Y176038D01*
X399084Y176060D01*
X399151Y176088D01*
X399278Y176149D01*
X399384Y176227D01*
X399467Y176305D01*
X399500Y176338D01*
X399528Y176366D01*
X399556Y176393D01*
X399572Y176416D01*
X399578Y176427D01*
X399583Y176432D01*
X399633Y176521D01*
X399678Y176627D01*
X399722Y176743D01*
X399756Y176871D01*
X399783Y177010D01*
X399805Y177148D01*
X399839Y177431D01*
X399855Y177565D01*
X399861Y177692D01*
X399867Y177809D01*
X399872Y177909D01*
X399878Y177992D01*
Y178031D01*
Y178059D01*
Y178081D01*
Y178097D01*
Y178109D01*
Y178114D01*
X399872Y178342D01*
X399861Y178547D01*
X399850Y178741D01*
X399828Y178913D01*
X399805Y179069D01*
X399778Y179213D01*
X399744Y179335D01*
X399717Y179446D01*
X399689Y179546D01*
X399656Y179624D01*
X399628Y179690D01*
X399606Y179746D01*
X399583Y179790D01*
X399567Y179818D01*
X399561Y179834D01*
X399556Y179840D01*
X399506Y179907D01*
X399450Y179962D01*
X399395Y180012D01*
X399339Y180051D01*
X399278Y180090D01*
X399223Y180118D01*
X399112Y180162D01*
X399012Y180190D01*
X398967Y180195D01*
X398934Y180201D01*
X398901Y180206D01*
D02*
G37*
%LPD*%
D10*
X548100Y332200D02*
Y330414D01*
X547981Y330057D01*
X547743Y329819D01*
X547386Y329700D01*
X547148D01*
X546791Y329819D01*
X546553Y330057D01*
X546434Y330414D01*
Y332200D01*
X545624Y331604D02*
Y331723D01*
X545505Y331961D01*
X545386Y332080D01*
X545148Y332200D01*
X544672D01*
X544434Y332080D01*
X544315Y331961D01*
X544196Y331723D01*
Y331485D01*
X544315Y331247D01*
X544553Y330890D01*
X545743Y329700D01*
X544077D01*
X236643Y332111D02*
Y330325D01*
X236524Y329968D01*
X236285Y329730D01*
X235928Y329611D01*
X235690D01*
X235333Y329730D01*
X235095Y329968D01*
X234976Y330325D01*
Y332111D01*
X234286Y331634D02*
X234048Y331753D01*
X233691Y332111D01*
Y329611D01*
X167559Y263304D02*
X167678Y263542D01*
X167916Y263780D01*
X168154Y263899D01*
X168630D01*
X168868Y263780D01*
X169106Y263542D01*
X169225Y263304D01*
X169344Y262947D01*
Y262352D01*
X169225Y261995D01*
X169106Y261757D01*
X168868Y261519D01*
X168630Y261400D01*
X168154D01*
X167916Y261519D01*
X167678Y261757D01*
X167559Y261995D01*
X165428Y263542D02*
X165547Y263780D01*
X165904Y263899D01*
X166142D01*
X166499Y263780D01*
X166737Y263423D01*
X166857Y262828D01*
Y262233D01*
X166737Y261757D01*
X166499Y261519D01*
X166142Y261400D01*
X166023D01*
X165666Y261519D01*
X165428Y261757D01*
X165309Y262114D01*
Y262233D01*
X165428Y262590D01*
X165666Y262828D01*
X166023Y262947D01*
X166142D01*
X166499Y262828D01*
X166737Y262590D01*
X166857Y262233D01*
X250615Y263304D02*
X250734Y263542D01*
X250972Y263780D01*
X251210Y263899D01*
X251686D01*
X251924Y263780D01*
X252162Y263542D01*
X252281Y263304D01*
X252400Y262947D01*
Y262352D01*
X252281Y261995D01*
X252162Y261757D01*
X251924Y261519D01*
X251686Y261400D01*
X251210D01*
X250972Y261519D01*
X250734Y261757D01*
X250615Y261995D01*
X248484Y263899D02*
X249674D01*
X249793Y262828D01*
X249674Y262947D01*
X249317Y263066D01*
X248960D01*
X248603Y262947D01*
X248365Y262709D01*
X248246Y262352D01*
Y262114D01*
X248365Y261757D01*
X248603Y261519D01*
X248960Y261400D01*
X249317D01*
X249674Y261519D01*
X249793Y261638D01*
X249913Y261876D01*
X363615Y263367D02*
X363734Y263605D01*
X363972Y263843D01*
X364210Y263963D01*
X364686D01*
X364924Y263843D01*
X365162Y263605D01*
X365281Y263367D01*
X365400Y263010D01*
Y262415D01*
X365281Y262058D01*
X365162Y261820D01*
X364924Y261582D01*
X364686Y261463D01*
X364210D01*
X363972Y261582D01*
X363734Y261820D01*
X363615Y262058D01*
X361722Y263963D02*
X362912Y262296D01*
X361127D01*
X361722Y263963D02*
Y261463D01*
X446615Y263367D02*
X446734Y263605D01*
X446972Y263843D01*
X447210Y263963D01*
X447686D01*
X447924Y263843D01*
X448162Y263605D01*
X448281Y263367D01*
X448400Y263010D01*
Y262415D01*
X448281Y262058D01*
X448162Y261820D01*
X447924Y261582D01*
X447686Y261463D01*
X447210D01*
X446972Y261582D01*
X446734Y261820D01*
X446615Y262058D01*
X445674Y263963D02*
X444365D01*
X445079Y263010D01*
X444722D01*
X444484Y262891D01*
X444365Y262772D01*
X444246Y262415D01*
Y262177D01*
X444365Y261820D01*
X444603Y261582D01*
X444960Y261463D01*
X445317D01*
X445674Y261582D01*
X445793Y261701D01*
X445912Y261939D01*
X559615Y263367D02*
X559734Y263605D01*
X559972Y263843D01*
X560210Y263963D01*
X560686D01*
X560924Y263843D01*
X561162Y263605D01*
X561281Y263367D01*
X561400Y263010D01*
Y262415D01*
X561281Y262058D01*
X561162Y261820D01*
X560924Y261582D01*
X560686Y261463D01*
X560210D01*
X559972Y261582D01*
X559734Y261820D01*
X559615Y262058D01*
X558793Y263367D02*
Y263486D01*
X558674Y263724D01*
X558555Y263843D01*
X558317Y263963D01*
X557841D01*
X557603Y263843D01*
X557484Y263724D01*
X557365Y263486D01*
Y263248D01*
X557484Y263010D01*
X557722Y262653D01*
X558912Y261463D01*
X557246D01*
X642615Y263304D02*
X642734Y263542D01*
X642972Y263780D01*
X643210Y263899D01*
X643686D01*
X643924Y263780D01*
X644162Y263542D01*
X644281Y263304D01*
X644400Y262947D01*
Y262352D01*
X644281Y261995D01*
X644162Y261757D01*
X643924Y261519D01*
X643686Y261400D01*
X643210D01*
X642972Y261519D01*
X642734Y261757D01*
X642615Y261995D01*
X641913Y263423D02*
X641674Y263542D01*
X641317Y263899D01*
Y261400D01*
X172500Y291700D02*
Y289200D01*
Y291700D02*
X171429D01*
X171072Y291580D01*
X170953Y291461D01*
X170834Y291223D01*
Y290985D01*
X170953Y290747D01*
X171072Y290628D01*
X171429Y290509D01*
X172500D01*
X171667D02*
X170834Y289200D01*
X168846Y291342D02*
X168965Y291580D01*
X169322Y291700D01*
X169560D01*
X169917Y291580D01*
X170155Y291223D01*
X170274Y290628D01*
Y290033D01*
X170155Y289557D01*
X169917Y289319D01*
X169560Y289200D01*
X169441D01*
X169084Y289319D01*
X168846Y289557D01*
X168727Y289914D01*
Y290033D01*
X168846Y290390D01*
X169084Y290628D01*
X169441Y290747D01*
X169560D01*
X169917Y290628D01*
X170155Y290390D01*
X170274Y290033D01*
X451500Y291700D02*
Y289200D01*
Y291700D02*
X450429D01*
X450072Y291580D01*
X449953Y291461D01*
X449834Y291223D01*
Y290985D01*
X449953Y290747D01*
X450072Y290628D01*
X450429Y290509D01*
X451500D01*
X450667D02*
X449834Y289200D01*
X449036Y291700D02*
X447727D01*
X448441Y290747D01*
X448084D01*
X447846Y290628D01*
X447727Y290509D01*
X447608Y290152D01*
Y289914D01*
X447727Y289557D01*
X447965Y289319D01*
X448322Y289200D01*
X448679D01*
X449036Y289319D01*
X449155Y289438D01*
X449274Y289676D01*
X256000Y291714D02*
Y289215D01*
Y291714D02*
X254929D01*
X254572Y291595D01*
X254453Y291476D01*
X254334Y291238D01*
Y291000D01*
X254453Y290762D01*
X254572Y290643D01*
X254929Y290524D01*
X256000D01*
X255167D02*
X254334Y289215D01*
X252346Y291714D02*
X253536D01*
X253655Y290643D01*
X253536Y290762D01*
X253179Y290881D01*
X252822D01*
X252465Y290762D01*
X252227Y290524D01*
X252108Y290167D01*
Y289929D01*
X252227Y289572D01*
X252465Y289334D01*
X252822Y289215D01*
X253179D01*
X253536Y289334D01*
X253655Y289453D01*
X253774Y289691D01*
X369000Y291700D02*
Y289200D01*
Y291700D02*
X367929D01*
X367572Y291580D01*
X367453Y291461D01*
X367334Y291223D01*
Y290985D01*
X367453Y290747D01*
X367572Y290628D01*
X367929Y290509D01*
X369000D01*
X368167D02*
X367334Y289200D01*
X365584Y291700D02*
X366774Y290033D01*
X364989D01*
X365584Y291700D02*
Y289200D01*
X564500Y291700D02*
Y289200D01*
Y291700D02*
X563429D01*
X563072Y291580D01*
X562953Y291461D01*
X562834Y291223D01*
Y290985D01*
X562953Y290747D01*
X563072Y290628D01*
X563429Y290509D01*
X564500D01*
X563667D02*
X562834Y289200D01*
X562155Y291104D02*
Y291223D01*
X562036Y291461D01*
X561917Y291580D01*
X561679Y291700D01*
X561203D01*
X560965Y291580D01*
X560846Y291461D01*
X560727Y291223D01*
Y290985D01*
X560846Y290747D01*
X561084Y290390D01*
X562274Y289200D01*
X560608D01*
X647500Y291700D02*
Y289200D01*
Y291700D02*
X646429D01*
X646072Y291580D01*
X645953Y291461D01*
X645834Y291223D01*
Y290985D01*
X645953Y290747D01*
X646072Y290628D01*
X646429Y290509D01*
X647500D01*
X646667D02*
X645834Y289200D01*
X645274Y291223D02*
X645036Y291342D01*
X644679Y291700D01*
Y289200D01*
D11*
X550173Y302484D02*
X564032D01*
X550173D02*
Y320516D01*
X568205D01*
Y306658D02*
Y320516D01*
X564032Y302484D02*
X568205Y306658D01*
X239795Y302484D02*
X253654D01*
X239795D02*
Y320516D01*
X257827D01*
Y306658D02*
Y320516D01*
X253654Y302484D02*
X257827Y306658D01*
M02*
