G04*
G04 #@! TF.GenerationSoftware,Altium Limited,Altium Designer,20.0.12 (288)*
G04*
G04 Layer_Physical_Order=1*
G04 Layer_Color=255*
%FSLAX25Y25*%
%MOIN*%
G70*
G01*
G75*
%ADD11C,0.01000*%
%ADD18R,0.03543X0.05906*%
%ADD19C,0.04961*%
%ADD20C,0.05906*%
%ADD21R,0.05906X0.05906*%
%ADD22C,0.05000*%
%ADD23C,0.15748*%
G36*
X694971Y155529D02*
X115029D01*
X115029Y349971D01*
X345654D01*
X345846Y349509D01*
X341161Y344824D01*
X340993Y344953D01*
X340032Y345351D01*
X339000Y345487D01*
X337968Y345351D01*
X337007Y344953D01*
X336181Y344319D01*
X335547Y343493D01*
X335149Y342532D01*
X335013Y341500D01*
X335149Y340468D01*
X335547Y339507D01*
X336181Y338681D01*
X337007Y338047D01*
X337968Y337649D01*
X339000Y337513D01*
X340032Y337649D01*
X340993Y338047D01*
X341819Y338681D01*
X342453Y339507D01*
X342851Y340468D01*
X342987Y341500D01*
X342891Y342228D01*
X348133Y347471D01*
X519367D01*
X551919Y314919D01*
X552415Y314587D01*
X553000Y314471D01*
X619717D01*
X641688Y292500D01*
X641590Y292264D01*
X641470Y291350D01*
X641590Y290437D01*
X641943Y289585D01*
X642504Y288854D01*
X643235Y288293D01*
X644086Y287940D01*
X645000Y287820D01*
X645914Y287940D01*
X646765Y288293D01*
X647496Y288854D01*
X648057Y289585D01*
X648410Y290437D01*
X648530Y291350D01*
X648410Y292264D01*
X648057Y293115D01*
X647496Y293847D01*
X646765Y294408D01*
X645914Y294760D01*
X645000Y294881D01*
X644086Y294760D01*
X643851Y294662D01*
X621432Y317081D01*
X620935Y317413D01*
X620350Y317529D01*
X553633D01*
X521654Y349509D01*
X521846Y349971D01*
X694971D01*
X694971Y155529D01*
D02*
G37*
%LPC*%
G36*
X329500Y345421D02*
Y342000D01*
X332921D01*
X332851Y342532D01*
X332453Y343493D01*
X331819Y344319D01*
X330993Y344953D01*
X330032Y345351D01*
X329500Y345421D01*
D02*
G37*
G36*
X328500D02*
X327968Y345351D01*
X327007Y344953D01*
X326181Y344319D01*
X325547Y343493D01*
X325149Y342532D01*
X325079Y342000D01*
X328500D01*
Y345421D01*
D02*
G37*
G36*
X332921Y341000D02*
X329500D01*
Y337579D01*
X330032Y337649D01*
X330993Y338047D01*
X331819Y338681D01*
X332453Y339507D01*
X332851Y340468D01*
X332921Y341000D01*
D02*
G37*
G36*
X328500D02*
X325079D01*
X325149Y340468D01*
X325547Y339507D01*
X326181Y338681D01*
X327007Y338047D01*
X327968Y337649D01*
X328500Y337579D01*
Y341000D01*
D02*
G37*
G36*
X319000Y345487D02*
X317968Y345351D01*
X317007Y344953D01*
X316181Y344319D01*
X315547Y343493D01*
X315149Y342532D01*
X315013Y341500D01*
X315149Y340468D01*
X315547Y339507D01*
X316181Y338681D01*
X317007Y338047D01*
X317968Y337649D01*
X319000Y337513D01*
X320032Y337649D01*
X320993Y338047D01*
X321819Y338681D01*
X322453Y339507D01*
X322851Y340468D01*
X322987Y341500D01*
X322851Y342532D01*
X322453Y343493D01*
X321819Y344319D01*
X320993Y344953D01*
X320032Y345351D01*
X319000Y345487D01*
D02*
G37*
G36*
X479000D02*
X477968Y345351D01*
X477007Y344953D01*
X476181Y344319D01*
X475547Y343493D01*
X475149Y342532D01*
X475013Y341500D01*
X475149Y340468D01*
X475547Y339507D01*
X476181Y338681D01*
X477007Y338047D01*
X477968Y337649D01*
X479000Y337513D01*
X480032Y337649D01*
X480496Y337841D01*
X481923Y336414D01*
Y334869D01*
X481423Y334623D01*
X480993Y334953D01*
X480032Y335351D01*
X479000Y335487D01*
X477968Y335351D01*
X477007Y334953D01*
X476181Y334319D01*
X475547Y333493D01*
X475482Y333336D01*
X474982Y333436D01*
Y337047D01*
X474866Y337632D01*
X474534Y338129D01*
X472659Y340004D01*
X472851Y340468D01*
X472987Y341500D01*
X472851Y342532D01*
X472453Y343493D01*
X471819Y344319D01*
X470993Y344953D01*
X470032Y345351D01*
X469000Y345487D01*
X467968Y345351D01*
X467007Y344953D01*
X466181Y344319D01*
X465547Y343493D01*
X465149Y342532D01*
X465013Y341500D01*
X465149Y340468D01*
X465547Y339507D01*
X466181Y338681D01*
X467007Y338047D01*
X467968Y337649D01*
X469000Y337513D01*
X470032Y337649D01*
X470496Y337841D01*
X471923Y336414D01*
Y334869D01*
X471423Y334623D01*
X470993Y334953D01*
X470032Y335351D01*
X469000Y335487D01*
X467968Y335351D01*
X467007Y334953D01*
X466181Y334319D01*
X465547Y333493D01*
X465482Y333336D01*
X464982Y333436D01*
Y337047D01*
X464866Y337632D01*
X464534Y338129D01*
X462659Y340004D01*
X462851Y340468D01*
X462987Y341500D01*
X462851Y342532D01*
X462453Y343493D01*
X461819Y344319D01*
X460993Y344953D01*
X460032Y345351D01*
X459000Y345487D01*
X457968Y345351D01*
X457007Y344953D01*
X456181Y344319D01*
X455547Y343493D01*
X455149Y342532D01*
X455013Y341500D01*
X455149Y340468D01*
X455547Y339507D01*
X456181Y338681D01*
X457007Y338047D01*
X457968Y337649D01*
X459000Y337513D01*
X460032Y337649D01*
X460496Y337841D01*
X461923Y336414D01*
Y334869D01*
X461423Y334623D01*
X460993Y334953D01*
X460032Y335351D01*
X459000Y335487D01*
X457968Y335351D01*
X457007Y334953D01*
X456181Y334319D01*
X455547Y333493D01*
X455482Y333336D01*
X454982Y333436D01*
Y336047D01*
X454866Y336632D01*
X454534Y337129D01*
X452324Y339339D01*
X452453Y339507D01*
X452851Y340468D01*
X452987Y341500D01*
X452851Y342532D01*
X452453Y343493D01*
X451819Y344319D01*
X450993Y344953D01*
X450032Y345351D01*
X449000Y345487D01*
X447968Y345351D01*
X447007Y344953D01*
X446181Y344319D01*
X445547Y343493D01*
X445149Y342532D01*
X445013Y341500D01*
X445149Y340468D01*
X445547Y339507D01*
X446181Y338681D01*
X447007Y338047D01*
X447968Y337649D01*
X449000Y337513D01*
X449728Y337609D01*
X451923Y335414D01*
Y334869D01*
X451423Y334623D01*
X450993Y334953D01*
X450032Y335351D01*
X449000Y335487D01*
X447968Y335351D01*
X447007Y334953D01*
X446181Y334319D01*
X445547Y333493D01*
X445482Y333336D01*
X444982Y333436D01*
Y336047D01*
X444866Y336632D01*
X444534Y337129D01*
X442324Y339339D01*
X442453Y339507D01*
X442851Y340468D01*
X442987Y341500D01*
X442851Y342532D01*
X442453Y343493D01*
X441819Y344319D01*
X440993Y344953D01*
X440032Y345351D01*
X439000Y345487D01*
X437968Y345351D01*
X437007Y344953D01*
X436181Y344319D01*
X435547Y343493D01*
X435149Y342532D01*
X435013Y341500D01*
X435149Y340468D01*
X435547Y339507D01*
X436181Y338681D01*
X437007Y338047D01*
X437968Y337649D01*
X439000Y337513D01*
X439728Y337609D01*
X441923Y335414D01*
Y334869D01*
X441423Y334623D01*
X440993Y334953D01*
X440032Y335351D01*
X439000Y335487D01*
X437968Y335351D01*
X437007Y334953D01*
X436181Y334319D01*
X435547Y333493D01*
X435482Y333336D01*
X434982Y333436D01*
Y336047D01*
X434866Y336632D01*
X434534Y337129D01*
X432324Y339339D01*
X432453Y339507D01*
X432851Y340468D01*
X432987Y341500D01*
X432851Y342532D01*
X432453Y343493D01*
X431819Y344319D01*
X430993Y344953D01*
X430032Y345351D01*
X429000Y345487D01*
X427968Y345351D01*
X427007Y344953D01*
X426181Y344319D01*
X425547Y343493D01*
X425149Y342532D01*
X425013Y341500D01*
X425149Y340468D01*
X425547Y339507D01*
X426181Y338681D01*
X427007Y338047D01*
X427968Y337649D01*
X429000Y337513D01*
X429728Y337609D01*
X431923Y335414D01*
Y334869D01*
X431423Y334623D01*
X430993Y334953D01*
X430032Y335351D01*
X429000Y335487D01*
X427968Y335351D01*
X427007Y334953D01*
X426181Y334319D01*
X425547Y333493D01*
X425482Y333336D01*
X424982Y333436D01*
Y336047D01*
X424866Y336632D01*
X424534Y337129D01*
X422324Y339339D01*
X422453Y339507D01*
X422851Y340468D01*
X422987Y341500D01*
X422851Y342532D01*
X422453Y343493D01*
X421819Y344319D01*
X420993Y344953D01*
X420032Y345351D01*
X419000Y345487D01*
X417968Y345351D01*
X417007Y344953D01*
X416181Y344319D01*
X415547Y343493D01*
X415149Y342532D01*
X415013Y341500D01*
X415149Y340468D01*
X415547Y339507D01*
X416181Y338681D01*
X417007Y338047D01*
X417968Y337649D01*
X419000Y337513D01*
X419728Y337609D01*
X421923Y335414D01*
Y334869D01*
X421423Y334623D01*
X420993Y334953D01*
X420032Y335351D01*
X419000Y335487D01*
X417968Y335351D01*
X417007Y334953D01*
X416577Y334623D01*
X416077Y334869D01*
Y335953D01*
X415960Y336538D01*
X415629Y337034D01*
X412659Y340004D01*
X412851Y340468D01*
X412987Y341500D01*
X412851Y342532D01*
X412453Y343493D01*
X411819Y344319D01*
X410993Y344953D01*
X410032Y345351D01*
X409000Y345487D01*
X407968Y345351D01*
X407007Y344953D01*
X406181Y344319D01*
X405547Y343493D01*
X405149Y342532D01*
X405013Y341500D01*
X405149Y340468D01*
X405547Y339507D01*
X406181Y338681D01*
X407007Y338047D01*
X407968Y337649D01*
X409000Y337513D01*
X410032Y337649D01*
X410496Y337841D01*
X413018Y335319D01*
Y333436D01*
X412518Y333336D01*
X412453Y333493D01*
X411819Y334319D01*
X410993Y334953D01*
X410032Y335351D01*
X409000Y335487D01*
X407968Y335351D01*
X407007Y334953D01*
X406181Y334319D01*
X405547Y333493D01*
X405482Y333336D01*
X404982Y333436D01*
Y336047D01*
X404866Y336632D01*
X404534Y337129D01*
X402324Y339339D01*
X402453Y339507D01*
X402851Y340468D01*
X402987Y341500D01*
X402851Y342532D01*
X402453Y343493D01*
X401819Y344319D01*
X400993Y344953D01*
X400032Y345351D01*
X399000Y345487D01*
X397968Y345351D01*
X397007Y344953D01*
X396181Y344319D01*
X395547Y343493D01*
X395149Y342532D01*
X395013Y341500D01*
X395149Y340468D01*
X395547Y339507D01*
X396181Y338681D01*
X397007Y338047D01*
X397968Y337649D01*
X399000Y337513D01*
X399728Y337609D01*
X401923Y335414D01*
Y334869D01*
X401423Y334623D01*
X400993Y334953D01*
X400032Y335351D01*
X399000Y335487D01*
X397968Y335351D01*
X397007Y334953D01*
X396577Y334623D01*
X396077Y334869D01*
Y335953D01*
X395960Y336538D01*
X395629Y337034D01*
X392659Y340004D01*
X392851Y340468D01*
X392987Y341500D01*
X392851Y342532D01*
X392453Y343493D01*
X391819Y344319D01*
X390993Y344953D01*
X390032Y345351D01*
X389000Y345487D01*
X387968Y345351D01*
X387007Y344953D01*
X386181Y344319D01*
X385547Y343493D01*
X385149Y342532D01*
X385013Y341500D01*
X385149Y340468D01*
X385547Y339507D01*
X386181Y338681D01*
X387007Y338047D01*
X387968Y337649D01*
X389000Y337513D01*
X390032Y337649D01*
X390496Y337841D01*
X393018Y335319D01*
Y333436D01*
X392518Y333336D01*
X392453Y333493D01*
X391819Y334319D01*
X390993Y334953D01*
X390032Y335351D01*
X389000Y335487D01*
X387968Y335351D01*
X387007Y334953D01*
X386181Y334319D01*
X385547Y333493D01*
X385482Y333336D01*
X384982Y333436D01*
Y336047D01*
X384866Y336632D01*
X384534Y337129D01*
X382324Y339339D01*
X382453Y339507D01*
X382851Y340468D01*
X382987Y341500D01*
X382851Y342532D01*
X382453Y343493D01*
X381819Y344319D01*
X380993Y344953D01*
X380032Y345351D01*
X379000Y345487D01*
X377968Y345351D01*
X377007Y344953D01*
X376181Y344319D01*
X375547Y343493D01*
X375149Y342532D01*
X375013Y341500D01*
X375149Y340468D01*
X375547Y339507D01*
X376181Y338681D01*
X377007Y338047D01*
X377968Y337649D01*
X379000Y337513D01*
X379728Y337609D01*
X381923Y335414D01*
Y334869D01*
X381423Y334623D01*
X380993Y334953D01*
X380032Y335351D01*
X379000Y335487D01*
X377968Y335351D01*
X377007Y334953D01*
X376181Y334319D01*
X375547Y333493D01*
X375482Y333336D01*
X374982Y333436D01*
Y335547D01*
X374866Y336133D01*
X374534Y336629D01*
X372107Y339056D01*
X372453Y339507D01*
X372851Y340468D01*
X372987Y341500D01*
X372851Y342532D01*
X372453Y343493D01*
X371819Y344319D01*
X370993Y344953D01*
X370032Y345351D01*
X369000Y345487D01*
X367968Y345351D01*
X367007Y344953D01*
X366181Y344319D01*
X365547Y343493D01*
X365149Y342532D01*
X365013Y341500D01*
X365149Y340468D01*
X365547Y339507D01*
X366181Y338681D01*
X367007Y338047D01*
X367968Y337649D01*
X369000Y337513D01*
X369286Y337551D01*
X371580Y335257D01*
X371562Y335147D01*
X371019Y334933D01*
X370993Y334953D01*
X370032Y335351D01*
X369000Y335487D01*
X367968Y335351D01*
X367007Y334953D01*
X366181Y334319D01*
X365547Y333493D01*
X365482Y333336D01*
X364982Y333436D01*
Y335547D01*
X364866Y336133D01*
X364534Y336629D01*
X362107Y339056D01*
X362453Y339507D01*
X362851Y340468D01*
X362987Y341500D01*
X362851Y342532D01*
X362453Y343493D01*
X361819Y344319D01*
X360993Y344953D01*
X360032Y345351D01*
X359000Y345487D01*
X357968Y345351D01*
X357007Y344953D01*
X356181Y344319D01*
X355547Y343493D01*
X355149Y342532D01*
X355013Y341500D01*
X355149Y340468D01*
X355547Y339507D01*
X356181Y338681D01*
X357007Y338047D01*
X357968Y337649D01*
X359000Y337513D01*
X359286Y337551D01*
X361580Y335257D01*
X361561Y335147D01*
X361019Y334933D01*
X360993Y334953D01*
X360032Y335351D01*
X359000Y335487D01*
X357968Y335351D01*
X357007Y334953D01*
X356181Y334319D01*
X355547Y333493D01*
X355482Y333336D01*
X354982Y333436D01*
Y335547D01*
X354866Y336133D01*
X354534Y336629D01*
X352107Y339056D01*
X352453Y339507D01*
X352851Y340468D01*
X352987Y341500D01*
X352851Y342532D01*
X352453Y343493D01*
X351819Y344319D01*
X350993Y344953D01*
X350032Y345351D01*
X349000Y345487D01*
X347968Y345351D01*
X347007Y344953D01*
X346181Y344319D01*
X345547Y343493D01*
X345149Y342532D01*
X345013Y341500D01*
X345149Y340468D01*
X345547Y339507D01*
X346181Y338681D01*
X347007Y338047D01*
X347968Y337649D01*
X349000Y337513D01*
X349286Y337551D01*
X351580Y335257D01*
X351561Y335147D01*
X351019Y334933D01*
X350993Y334953D01*
X350032Y335351D01*
X349000Y335487D01*
X347968Y335351D01*
X347007Y334953D01*
X346181Y334319D01*
X345547Y333493D01*
X345149Y332532D01*
X345013Y331500D01*
X345149Y330468D01*
X345547Y329507D01*
X346181Y328681D01*
X347007Y328047D01*
X347968Y327649D01*
X349000Y327513D01*
X350032Y327649D01*
X350496Y327841D01*
X411971Y266367D01*
Y248943D01*
X412087Y248358D01*
X412419Y247862D01*
X426603Y233678D01*
X427099Y233346D01*
X427164Y233333D01*
X427300Y233004D01*
X427858Y232277D01*
X428585Y231719D01*
X429431Y231368D01*
X430340Y231249D01*
X431249Y231368D01*
X432095Y231719D01*
X432822Y232277D01*
X433380Y233004D01*
X433731Y233851D01*
X433771Y234159D01*
X434245Y234320D01*
X437582Y230983D01*
X437277Y230246D01*
X437158Y229338D01*
X437277Y228430D01*
X437628Y227583D01*
X438186Y226856D01*
X438913Y226298D01*
X439759Y225947D01*
X440668Y225828D01*
X441576Y225947D01*
X442423Y226298D01*
X443150Y226856D01*
X443708Y227583D01*
X444059Y228430D01*
X444178Y229338D01*
X444059Y230246D01*
X443708Y231093D01*
X443518Y231340D01*
X443739Y231789D01*
X447718D01*
X449035Y230472D01*
X448941Y230246D01*
X448822Y229338D01*
X448941Y228430D01*
X449292Y227583D01*
X449850Y226856D01*
X450577Y226298D01*
X451424Y225947D01*
X452332Y225828D01*
X453240Y225947D01*
X454087Y226298D01*
X454814Y226856D01*
X455372Y227583D01*
X455723Y228430D01*
X455842Y229338D01*
X455723Y230246D01*
X455372Y231093D01*
X454814Y231820D01*
X454087Y232378D01*
X453240Y232729D01*
X452332Y232848D01*
X451424Y232729D01*
X451198Y232635D01*
X449433Y234400D01*
X448937Y234731D01*
X448352Y234848D01*
X440872D01*
X433954Y241766D01*
Y270776D01*
X434091Y270956D01*
X434179Y271034D01*
X434411Y271168D01*
X435175Y271068D01*
X436084Y271187D01*
X436930Y271538D01*
X437657Y272096D01*
X438215Y272823D01*
X438566Y273670D01*
X438606Y273978D01*
X439080Y274139D01*
X442801Y270419D01*
X443297Y270087D01*
X443882Y269971D01*
X453866D01*
X455739Y268098D01*
X455532Y267598D01*
X453618D01*
Y264146D01*
X455890D01*
Y267240D01*
X456390Y267447D01*
X457046Y266791D01*
Y256391D01*
X456593Y256274D01*
X456546Y256279D01*
X455996Y256996D01*
X455265Y257557D01*
X454414Y257910D01*
X453500Y258030D01*
X452586Y257910D01*
X451735Y257557D01*
X451004Y256996D01*
X450443Y256265D01*
X450090Y255414D01*
X449970Y254500D01*
X450090Y253586D01*
X450443Y252735D01*
X451004Y252004D01*
X451735Y251443D01*
X451971Y251345D01*
Y248307D01*
X450347D01*
Y245282D01*
X449847Y245182D01*
X449557Y245880D01*
X448996Y246612D01*
X448265Y247173D01*
X447414Y247525D01*
X446500Y247645D01*
X445586Y247525D01*
X444735Y247173D01*
X444004Y246612D01*
X443445Y245884D01*
X442898D01*
Y248307D01*
X437354D01*
Y240402D01*
X442898D01*
Y242360D01*
X443398Y242459D01*
X443443Y242350D01*
X444004Y241619D01*
X444735Y241058D01*
X445586Y240705D01*
X446500Y240585D01*
X447414Y240705D01*
X448265Y241058D01*
X448996Y241619D01*
X449557Y242350D01*
X449847Y243049D01*
X450347Y242949D01*
Y240402D01*
X455890D01*
Y248307D01*
X455029D01*
Y251345D01*
X455265Y251443D01*
X455996Y252004D01*
X456546Y252721D01*
X456593Y252726D01*
X457046Y252609D01*
Y238843D01*
X457163Y238258D01*
X457494Y237762D01*
X459363Y235893D01*
X459269Y235667D01*
X459150Y234759D01*
X459269Y233851D01*
X459620Y233004D01*
X460178Y232277D01*
X460905Y231719D01*
X461752Y231368D01*
X462660Y231249D01*
X463568Y231368D01*
X464415Y231719D01*
X465142Y232277D01*
X465700Y233004D01*
X466051Y233851D01*
X466170Y234759D01*
X466051Y235667D01*
X465700Y236514D01*
X465142Y237241D01*
X464415Y237799D01*
X463568Y238150D01*
X462660Y238269D01*
X461752Y238150D01*
X461526Y238056D01*
X460105Y239477D01*
Y250723D01*
X460567Y250914D01*
X465989Y245492D01*
X465895Y245267D01*
X465776Y244358D01*
X465895Y243449D01*
X466246Y242603D01*
X466804Y241876D01*
X467531Y241318D01*
X468377Y240967D01*
X469286Y240848D01*
X470194Y240967D01*
X471041Y241318D01*
X471768Y241876D01*
X472326Y242603D01*
X472677Y243449D01*
X472796Y244358D01*
X472677Y245267D01*
X472326Y246113D01*
X471768Y246840D01*
X471041Y247398D01*
X470194Y247749D01*
X469286Y247868D01*
X468377Y247749D01*
X468152Y247655D01*
X462105Y253702D01*
Y261708D01*
X462567Y261899D01*
X467395Y257071D01*
X467301Y256845D01*
X467182Y255937D01*
X467301Y255029D01*
X467652Y254182D01*
X468210Y253455D01*
X468937Y252897D01*
X469783Y252546D01*
X470692Y252427D01*
X471600Y252546D01*
X472447Y252897D01*
X473174Y253455D01*
X473732Y254182D01*
X474083Y255029D01*
X474202Y255937D01*
X474083Y256845D01*
X473732Y257692D01*
X473174Y258419D01*
X472447Y258977D01*
X471600Y259328D01*
X470692Y259447D01*
X469783Y259328D01*
X469558Y259234D01*
X465872Y262919D01*
X466106Y263393D01*
X466556Y263334D01*
X467464Y263453D01*
X468311Y263804D01*
X469038Y264362D01*
X469596Y265089D01*
X469947Y265935D01*
X470066Y266844D01*
X469947Y267753D01*
X469596Y268599D01*
X469038Y269326D01*
X468311Y269884D01*
X467464Y270235D01*
X467335Y270252D01*
Y277884D01*
X467218Y278469D01*
X466887Y278965D01*
X460343Y285509D01*
X460534Y285971D01*
X475867D01*
X528160Y233678D01*
X528656Y233346D01*
X529241Y233230D01*
X540015D01*
X540108Y233004D01*
X540666Y232277D01*
X541393Y231719D01*
X542240Y231368D01*
X543148Y231249D01*
X544057Y231368D01*
X544903Y231719D01*
X545630Y232277D01*
X546188Y233004D01*
X546539Y233851D01*
X546595Y234276D01*
X547123Y234456D01*
X550457Y231121D01*
X550436Y231093D01*
X550085Y230246D01*
X549966Y229338D01*
X550085Y228430D01*
X550436Y227583D01*
X550994Y226856D01*
X551721Y226298D01*
X552567Y225947D01*
X553476Y225828D01*
X554385Y225947D01*
X555231Y226298D01*
X555958Y226856D01*
X556516Y227583D01*
X556867Y228430D01*
X556986Y229338D01*
X556867Y230246D01*
X556516Y231093D01*
X555958Y231820D01*
X555231Y232378D01*
X554385Y232729D01*
X554377Y232730D01*
X554410Y233230D01*
X559086D01*
X561843Y230472D01*
X561749Y230246D01*
X561630Y229338D01*
X561749Y228430D01*
X562100Y227583D01*
X562658Y226856D01*
X563385Y226298D01*
X564231Y225947D01*
X565140Y225828D01*
X566048Y225947D01*
X566895Y226298D01*
X567622Y226856D01*
X568180Y227583D01*
X568531Y228430D01*
X568650Y229338D01*
X568531Y230246D01*
X568180Y231093D01*
X567622Y231820D01*
X566895Y232378D01*
X566048Y232729D01*
X565140Y232848D01*
X564231Y232729D01*
X564006Y232635D01*
X560800Y235840D01*
X560304Y236172D01*
X559719Y236288D01*
X552444D01*
X546762Y241971D01*
Y269321D01*
X546645Y269906D01*
X546314Y270403D01*
X541635Y275081D01*
X541139Y275413D01*
X540553Y275529D01*
X504776D01*
X503738Y276567D01*
X503929Y277029D01*
X544912D01*
X545133Y276580D01*
X544943Y276333D01*
X544592Y275486D01*
X544473Y274578D01*
X544592Y273670D01*
X544943Y272823D01*
X545501Y272096D01*
X546228Y271538D01*
X547075Y271187D01*
X547983Y271068D01*
X548891Y271187D01*
X549738Y271538D01*
X550465Y272096D01*
X551023Y272823D01*
X551374Y273670D01*
X551414Y273978D01*
X551888Y274139D01*
X556558Y269469D01*
X557054Y269138D01*
X557639Y269021D01*
X568710D01*
X569854Y267877D01*
Y254647D01*
X569354Y254548D01*
X569057Y255265D01*
X568496Y255996D01*
X567765Y256557D01*
X566914Y256910D01*
X566000Y257030D01*
X565086Y256910D01*
X564235Y256557D01*
X563504Y255996D01*
X562943Y255265D01*
X562590Y254414D01*
X562470Y253500D01*
X562590Y252586D01*
X562943Y251735D01*
X563504Y251004D01*
X564235Y250443D01*
X564275Y250426D01*
Y248307D01*
X563032D01*
Y245819D01*
X562532Y245720D01*
X562365Y246123D01*
X561804Y246854D01*
X561073Y247415D01*
X560222Y247768D01*
X559308Y247888D01*
X558394Y247768D01*
X557543Y247415D01*
X556812Y246854D01*
X556251Y246123D01*
X556152Y245884D01*
X555584D01*
Y248307D01*
X550040D01*
Y240402D01*
X555584D01*
Y242825D01*
X556155D01*
X556251Y242593D01*
X556812Y241862D01*
X557543Y241301D01*
X558394Y240948D01*
X559308Y240828D01*
X560222Y240948D01*
X561073Y241301D01*
X561804Y241862D01*
X562365Y242593D01*
X562532Y242997D01*
X563032Y242897D01*
Y240402D01*
X568576D01*
Y248307D01*
X567333D01*
Y250264D01*
X567765Y250443D01*
X568496Y251004D01*
X569057Y251735D01*
X569354Y252452D01*
X569854Y252353D01*
Y238843D01*
X569971Y238258D01*
X570302Y237762D01*
X572171Y235893D01*
X572077Y235667D01*
X571958Y234759D01*
X572077Y233851D01*
X572428Y233004D01*
X572986Y232277D01*
X573713Y231719D01*
X574559Y231368D01*
X575468Y231249D01*
X576376Y231368D01*
X577223Y231719D01*
X577950Y232277D01*
X578508Y233004D01*
X578859Y233851D01*
X578978Y234759D01*
X578859Y235667D01*
X578508Y236514D01*
X577950Y237241D01*
X577223Y237799D01*
X576376Y238150D01*
X575468Y238269D01*
X574559Y238150D01*
X574334Y238056D01*
X572913Y239477D01*
Y250723D01*
X573375Y250914D01*
X578797Y245492D01*
X578703Y245267D01*
X578584Y244358D01*
X578703Y243449D01*
X579054Y242603D01*
X579612Y241876D01*
X580339Y241318D01*
X581185Y240967D01*
X582094Y240848D01*
X583003Y240967D01*
X583849Y241318D01*
X584576Y241876D01*
X585134Y242603D01*
X585485Y243449D01*
X585604Y244358D01*
X585485Y245267D01*
X585134Y246113D01*
X584576Y246840D01*
X583849Y247398D01*
X583003Y247749D01*
X582094Y247868D01*
X581185Y247749D01*
X580960Y247655D01*
X574913Y253702D01*
Y261031D01*
X575375Y261222D01*
X580068Y256529D01*
X579990Y255937D01*
X580109Y255029D01*
X580460Y254182D01*
X581018Y253455D01*
X581745Y252897D01*
X582591Y252546D01*
X583500Y252427D01*
X584409Y252546D01*
X585255Y252897D01*
X585982Y253455D01*
X586540Y254182D01*
X586891Y255029D01*
X587010Y255937D01*
X586891Y256845D01*
X586540Y257692D01*
X585982Y258419D01*
X585255Y258977D01*
X584409Y259328D01*
X583500Y259447D01*
X582591Y259328D01*
X581887Y259036D01*
X577696Y263227D01*
X577979Y263651D01*
X578455Y263453D01*
X579364Y263334D01*
X580272Y263453D01*
X581119Y263804D01*
X581846Y264362D01*
X582404Y265089D01*
X582755Y265935D01*
X582874Y266844D01*
X582755Y267753D01*
X582404Y268599D01*
X581846Y269326D01*
X581119Y269884D01*
X580272Y270235D01*
X580143Y270252D01*
Y275484D01*
X580605Y275676D01*
X622603Y233678D01*
X623099Y233346D01*
X623164Y233333D01*
X623300Y233004D01*
X623858Y232277D01*
X624585Y231719D01*
X625431Y231368D01*
X626340Y231249D01*
X627248Y231368D01*
X628095Y231719D01*
X628822Y232277D01*
X629380Y233004D01*
X629731Y233851D01*
X629771Y234159D01*
X630245Y234320D01*
X633582Y230983D01*
X633277Y230246D01*
X633158Y229338D01*
X633277Y228430D01*
X633628Y227583D01*
X634186Y226856D01*
X634913Y226298D01*
X635759Y225947D01*
X636668Y225828D01*
X637576Y225947D01*
X638423Y226298D01*
X639150Y226856D01*
X639708Y227583D01*
X640059Y228430D01*
X640178Y229338D01*
X640059Y230246D01*
X639708Y231093D01*
X639150Y231820D01*
X638423Y232378D01*
X637576Y232729D01*
X636668Y232848D01*
X636115Y232775D01*
X635382Y233509D01*
X635573Y233971D01*
X641537D01*
X645035Y230472D01*
X644941Y230246D01*
X644822Y229338D01*
X644941Y228430D01*
X645292Y227583D01*
X645850Y226856D01*
X646577Y226298D01*
X647424Y225947D01*
X648332Y225828D01*
X649240Y225947D01*
X650087Y226298D01*
X650814Y226856D01*
X651372Y227583D01*
X651723Y228430D01*
X651842Y229338D01*
X651723Y230246D01*
X651372Y231093D01*
X650814Y231820D01*
X650087Y232378D01*
X649240Y232729D01*
X648332Y232848D01*
X647424Y232729D01*
X647198Y232635D01*
X643251Y236581D01*
X642755Y236913D01*
X642170Y237029D01*
X634690D01*
X630029Y241690D01*
Y269245D01*
X629913Y269831D01*
X629581Y270327D01*
X623341Y276567D01*
X623533Y277029D01*
X628104D01*
X628325Y276580D01*
X628135Y276333D01*
X627784Y275486D01*
X627665Y274578D01*
X627784Y273670D01*
X628135Y272823D01*
X628693Y272096D01*
X629420Y271538D01*
X630267Y271187D01*
X631175Y271068D01*
X632084Y271187D01*
X632930Y271538D01*
X633657Y272096D01*
X634215Y272823D01*
X634566Y273670D01*
X634606Y273978D01*
X635080Y274139D01*
X637300Y271919D01*
X637797Y271587D01*
X638382Y271471D01*
X647866D01*
X651277Y268060D01*
X651085Y267598D01*
X649618D01*
Y264146D01*
X651890D01*
Y266794D01*
X652352Y266985D01*
X653046Y266291D01*
Y238843D01*
X653163Y238258D01*
X653494Y237762D01*
X655363Y235893D01*
X655269Y235667D01*
X655150Y234759D01*
X655269Y233851D01*
X655620Y233004D01*
X656178Y232277D01*
X656905Y231719D01*
X657752Y231368D01*
X658660Y231249D01*
X659569Y231368D01*
X660415Y231719D01*
X661142Y232277D01*
X661700Y233004D01*
X662051Y233851D01*
X662170Y234759D01*
X662051Y235667D01*
X661700Y236514D01*
X661142Y237241D01*
X660415Y237799D01*
X659569Y238150D01*
X658660Y238269D01*
X657752Y238150D01*
X657526Y238056D01*
X656105Y239477D01*
Y256579D01*
X656567Y256770D01*
X663757Y249581D01*
Y247492D01*
X663531Y247398D01*
X662804Y246840D01*
X662246Y246113D01*
X661895Y245267D01*
X661776Y244358D01*
X661895Y243449D01*
X662246Y242603D01*
X662804Y241876D01*
X663531Y241318D01*
X664377Y240967D01*
X665286Y240848D01*
X666194Y240967D01*
X667041Y241318D01*
X667768Y241876D01*
X668326Y242603D01*
X668677Y243449D01*
X668796Y244358D01*
X668677Y245267D01*
X668326Y246113D01*
X667768Y246840D01*
X667041Y247398D01*
X666815Y247492D01*
Y250214D01*
X666699Y250799D01*
X666367Y251295D01*
X665692Y251971D01*
X665790Y252502D01*
X665830Y252540D01*
X666692Y252427D01*
X667600Y252546D01*
X668447Y252897D01*
X669174Y253455D01*
X669732Y254182D01*
X670083Y255029D01*
X670202Y255937D01*
X670083Y256845D01*
X669732Y257692D01*
X669174Y258419D01*
X668447Y258977D01*
X667600Y259328D01*
X666692Y259447D01*
X665784Y259328D01*
X664937Y258977D01*
X664210Y258419D01*
X663652Y257692D01*
X663558Y257466D01*
X663025D01*
X660105Y260386D01*
Y263773D01*
X660554Y263994D01*
X660801Y263804D01*
X661648Y263453D01*
X662556Y263334D01*
X663464Y263453D01*
X664311Y263804D01*
X665038Y264362D01*
X665596Y265089D01*
X665947Y265935D01*
X666066Y266844D01*
X665947Y267753D01*
X665596Y268599D01*
X665038Y269326D01*
X664311Y269884D01*
X663464Y270235D01*
X663335Y270252D01*
Y277884D01*
X663218Y278469D01*
X662887Y278965D01*
X655270Y286581D01*
X654774Y286913D01*
X654189Y287029D01*
X624192D01*
X604790Y306432D01*
X604294Y306763D01*
X603709Y306880D01*
X518612D01*
X494982Y330509D01*
Y337047D01*
X494866Y337632D01*
X494534Y338129D01*
X492953Y339710D01*
Y345453D01*
X485047D01*
Y338261D01*
X484547Y338109D01*
X484534Y338129D01*
X482659Y340004D01*
X482851Y340468D01*
X482987Y341500D01*
X482851Y342532D01*
X482453Y343493D01*
X481819Y344319D01*
X480993Y344953D01*
X480032Y345351D01*
X479000Y345487D01*
D02*
G37*
G36*
X683500Y347917D02*
X681760Y347746D01*
X680088Y347238D01*
X678546Y346414D01*
X677195Y345305D01*
X676086Y343954D01*
X675262Y342412D01*
X674754Y340740D01*
X674583Y339000D01*
X674754Y337260D01*
X675262Y335588D01*
X676086Y334046D01*
X677195Y332695D01*
X678546Y331586D01*
X680088Y330762D01*
X681760Y330254D01*
X683500Y330083D01*
X685240Y330254D01*
X686912Y330762D01*
X688454Y331586D01*
X689805Y332695D01*
X690914Y334046D01*
X691738Y335588D01*
X692246Y337260D01*
X692417Y339000D01*
X692246Y340740D01*
X691738Y342412D01*
X690914Y343954D01*
X689805Y345305D01*
X688454Y346414D01*
X686912Y347238D01*
X685240Y347746D01*
X683500Y347917D01*
D02*
G37*
G36*
X546000D02*
X544260Y347746D01*
X542588Y347238D01*
X541046Y346414D01*
X539695Y345305D01*
X538586Y343954D01*
X537762Y342412D01*
X537254Y340740D01*
X537083Y339000D01*
X537254Y337260D01*
X537762Y335588D01*
X538586Y334046D01*
X539695Y332695D01*
X541046Y331586D01*
X542588Y330762D01*
X544260Y330254D01*
X546000Y330083D01*
X547740Y330254D01*
X549412Y330762D01*
X550954Y331586D01*
X552305Y332695D01*
X553414Y334046D01*
X554238Y335588D01*
X554746Y337260D01*
X554917Y339000D01*
X554746Y340740D01*
X554238Y342412D01*
X553414Y343954D01*
X552305Y345305D01*
X550954Y346414D01*
X549412Y347238D01*
X547740Y347746D01*
X546000Y347917D01*
D02*
G37*
G36*
X262000D02*
X260260Y347746D01*
X258588Y347238D01*
X257046Y346414D01*
X255695Y345305D01*
X254586Y343954D01*
X253762Y342412D01*
X253254Y340740D01*
X253083Y339000D01*
X253254Y337260D01*
X253762Y335588D01*
X254586Y334046D01*
X255695Y332695D01*
X257046Y331586D01*
X258588Y330762D01*
X260260Y330254D01*
X262000Y330083D01*
X263740Y330254D01*
X265412Y330762D01*
X266954Y331586D01*
X268305Y332695D01*
X269414Y334046D01*
X270238Y335588D01*
X270746Y337260D01*
X270917Y339000D01*
X270746Y340740D01*
X270238Y342412D01*
X269414Y343954D01*
X268305Y345305D01*
X266954Y346414D01*
X265412Y347238D01*
X263740Y347746D01*
X262000Y347917D01*
D02*
G37*
G36*
X126500D02*
X124760Y347746D01*
X123088Y347238D01*
X121546Y346414D01*
X120195Y345305D01*
X119086Y343954D01*
X118262Y342412D01*
X117754Y340740D01*
X117583Y339000D01*
X117754Y337260D01*
X118262Y335588D01*
X119086Y334046D01*
X120195Y332695D01*
X121546Y331586D01*
X123088Y330762D01*
X124760Y330254D01*
X126500Y330083D01*
X128240Y330254D01*
X129912Y330762D01*
X131454Y331586D01*
X132805Y332695D01*
X133914Y334046D01*
X134738Y335588D01*
X135246Y337260D01*
X135417Y339000D01*
X135246Y340740D01*
X134738Y342412D01*
X133914Y343954D01*
X132805Y345305D01*
X131454Y346414D01*
X129912Y347238D01*
X128240Y347746D01*
X126500Y347917D01*
D02*
G37*
G36*
X329000Y335487D02*
X327968Y335351D01*
X327007Y334953D01*
X326181Y334319D01*
X325547Y333493D01*
X325149Y332532D01*
X325013Y331500D01*
X325149Y330468D01*
X325547Y329507D01*
X326181Y328681D01*
X327007Y328047D01*
X327968Y327649D01*
X329000Y327513D01*
X330032Y327649D01*
X330993Y328047D01*
X331819Y328681D01*
X332453Y329507D01*
X332851Y330468D01*
X332987Y331500D01*
X332851Y332532D01*
X332453Y333493D01*
X331819Y334319D01*
X330993Y334953D01*
X330032Y335351D01*
X329000Y335487D01*
D02*
G37*
G36*
X319000D02*
X317968Y335351D01*
X317007Y334953D01*
X316181Y334319D01*
X315547Y333493D01*
X315149Y332532D01*
X315013Y331500D01*
X315149Y330468D01*
X315547Y329507D01*
X316181Y328681D01*
X317007Y328047D01*
X317968Y327649D01*
X319000Y327513D01*
X320032Y327649D01*
X320993Y328047D01*
X321819Y328681D01*
X322453Y329507D01*
X322851Y330468D01*
X322987Y331500D01*
X322851Y332532D01*
X322453Y333493D01*
X321819Y334319D01*
X320993Y334953D01*
X320032Y335351D01*
X319000Y335487D01*
D02*
G37*
G36*
X339000D02*
X337968Y335351D01*
X337007Y334953D01*
X336181Y334319D01*
X335547Y333493D01*
X335149Y332532D01*
X335013Y331500D01*
X335149Y330468D01*
X335547Y329507D01*
X336181Y328681D01*
X337007Y328047D01*
X337471Y327855D01*
Y311134D01*
X311367Y285029D01*
X191000D01*
X190415Y284913D01*
X189919Y284581D01*
X188149Y282812D01*
X187914Y282910D01*
X187000Y283030D01*
X186086Y282910D01*
X185235Y282557D01*
X184504Y281996D01*
X183943Y281265D01*
X183590Y280414D01*
X183470Y279500D01*
X183590Y278586D01*
X183943Y277735D01*
X184504Y277004D01*
X185235Y276443D01*
X186086Y276090D01*
X187000Y275970D01*
X187914Y276090D01*
X188765Y276443D01*
X189496Y277004D01*
X190057Y277735D01*
X190410Y278586D01*
X190530Y279500D01*
X190410Y280414D01*
X190312Y280649D01*
X191633Y281971D01*
X268495D01*
X268821Y281471D01*
X268590Y280914D01*
X268470Y280000D01*
X268590Y279086D01*
X268943Y278235D01*
X269504Y277504D01*
X270235Y276943D01*
X271086Y276590D01*
X272000Y276470D01*
X272914Y276590D01*
X273765Y276943D01*
X274496Y277504D01*
X275057Y278235D01*
X275410Y279086D01*
X275530Y280000D01*
X275410Y280914D01*
X275312Y281149D01*
X276133Y281971D01*
X312000D01*
X312585Y282087D01*
X313081Y282419D01*
X339000Y308337D01*
X368419Y278919D01*
X368915Y278587D01*
X369500Y278471D01*
X373898D01*
X373931Y277971D01*
X373917Y277969D01*
X373070Y277618D01*
X372343Y277060D01*
X371785Y276333D01*
X371434Y275486D01*
X371315Y274578D01*
X371434Y273670D01*
X371785Y272823D01*
X372343Y272096D01*
X373070Y271538D01*
X373917Y271187D01*
X374825Y271068D01*
X375733Y271187D01*
X376580Y271538D01*
X377307Y272096D01*
X377865Y272823D01*
X378216Y273670D01*
X378335Y274578D01*
X378216Y275486D01*
X377865Y276333D01*
X377307Y277060D01*
X376580Y277618D01*
X375733Y277969D01*
X375719Y277971D01*
X375752Y278471D01*
X379625D01*
X379722Y278235D01*
X380283Y277504D01*
X381014Y276943D01*
X381866Y276590D01*
X382779Y276470D01*
X383693Y276590D01*
X384544Y276943D01*
X385276Y277504D01*
X385837Y278235D01*
X386189Y279086D01*
X386310Y280000D01*
X386189Y280914D01*
X385837Y281765D01*
X385276Y282496D01*
X384544Y283057D01*
X383693Y283410D01*
X382779Y283530D01*
X381866Y283410D01*
X381014Y283057D01*
X380283Y282496D01*
X379722Y281765D01*
X379625Y281529D01*
X370133D01*
X340529Y311134D01*
Y327855D01*
X340993Y328047D01*
X341819Y328681D01*
X342453Y329507D01*
X342851Y330468D01*
X342987Y331500D01*
X342851Y332532D01*
X342453Y333493D01*
X341819Y334319D01*
X340993Y334953D01*
X340032Y335351D01*
X339000Y335487D01*
D02*
G37*
G36*
X363500Y280880D02*
X362592Y280761D01*
X361745Y280410D01*
X361018Y279852D01*
X360460Y279125D01*
X360109Y278278D01*
X359990Y277370D01*
X360109Y276462D01*
X360460Y275615D01*
X361018Y274888D01*
X361745Y274330D01*
X362592Y273979D01*
X363500Y273860D01*
X364408Y273979D01*
X365255Y274330D01*
X365982Y274888D01*
X366540Y275615D01*
X366891Y276462D01*
X367010Y277370D01*
X366891Y278278D01*
X366540Y279125D01*
X365982Y279852D01*
X365255Y280410D01*
X364408Y280761D01*
X363500Y280880D01*
D02*
G37*
G36*
X250500D02*
X249591Y280761D01*
X248745Y280410D01*
X248018Y279852D01*
X247460Y279125D01*
X247109Y278278D01*
X246990Y277370D01*
X247109Y276462D01*
X247460Y275615D01*
X248018Y274888D01*
X248745Y274330D01*
X249591Y273979D01*
X250500Y273860D01*
X251409Y273979D01*
X252255Y274330D01*
X252982Y274888D01*
X253540Y275615D01*
X253891Y276462D01*
X254010Y277370D01*
X253891Y278278D01*
X253540Y279125D01*
X252982Y279852D01*
X252255Y280410D01*
X251409Y280761D01*
X250500Y280880D01*
D02*
G37*
G36*
X167444D02*
X166535Y280761D01*
X165689Y280410D01*
X164962Y279852D01*
X164404Y279125D01*
X164053Y278278D01*
X163934Y277370D01*
X164053Y276462D01*
X164404Y275615D01*
X164962Y274888D01*
X165689Y274330D01*
X166535Y273979D01*
X167444Y273860D01*
X168352Y273979D01*
X169199Y274330D01*
X169926Y274888D01*
X170484Y275615D01*
X170835Y276462D01*
X170954Y277370D01*
X170835Y278278D01*
X170484Y279125D01*
X169926Y279852D01*
X169199Y280410D01*
X168352Y280761D01*
X167444Y280880D01*
D02*
G37*
G36*
X352175Y278088D02*
X351267Y277969D01*
X350420Y277618D01*
X349693Y277060D01*
X349135Y276333D01*
X348784Y275486D01*
X348665Y274578D01*
X348784Y273670D01*
X349135Y272823D01*
X349693Y272096D01*
X350420Y271538D01*
X351267Y271187D01*
X352175Y271068D01*
X353083Y271187D01*
X353930Y271538D01*
X354657Y272096D01*
X355215Y272823D01*
X355566Y273670D01*
X355685Y274578D01*
X355566Y275486D01*
X355215Y276333D01*
X354657Y277060D01*
X353930Y277618D01*
X353083Y277969D01*
X352175Y278088D01*
D02*
G37*
G36*
X261825D02*
X260916Y277969D01*
X260070Y277618D01*
X259343Y277060D01*
X258785Y276333D01*
X258434Y275486D01*
X258315Y274578D01*
X258434Y273670D01*
X258785Y272823D01*
X259343Y272096D01*
X260070Y271538D01*
X260916Y271187D01*
X261825Y271068D01*
X262734Y271187D01*
X263580Y271538D01*
X264307Y272096D01*
X264865Y272823D01*
X265216Y273670D01*
X265335Y274578D01*
X265216Y275486D01*
X264865Y276333D01*
X264307Y277060D01*
X263580Y277618D01*
X262734Y277969D01*
X261825Y278088D01*
D02*
G37*
G36*
X239175D02*
X238266Y277969D01*
X237420Y277618D01*
X236693Y277060D01*
X236135Y276333D01*
X235784Y275486D01*
X235665Y274578D01*
X235784Y273670D01*
X236135Y272823D01*
X236693Y272096D01*
X237420Y271538D01*
X238266Y271187D01*
X239175Y271068D01*
X240084Y271187D01*
X240930Y271538D01*
X241657Y272096D01*
X242215Y272823D01*
X242566Y273670D01*
X242685Y274578D01*
X242566Y275486D01*
X242215Y276333D01*
X241657Y277060D01*
X240930Y277618D01*
X240084Y277969D01*
X239175Y278088D01*
D02*
G37*
G36*
X178769D02*
X177860Y277969D01*
X177014Y277618D01*
X176287Y277060D01*
X175729Y276333D01*
X175378Y275486D01*
X175259Y274578D01*
X175378Y273670D01*
X175729Y272823D01*
X176287Y272096D01*
X177014Y271538D01*
X177860Y271187D01*
X178769Y271068D01*
X179677Y271187D01*
X180524Y271538D01*
X181251Y272096D01*
X181809Y272823D01*
X182160Y273670D01*
X182279Y274578D01*
X182160Y275486D01*
X181809Y276333D01*
X181251Y277060D01*
X180524Y277618D01*
X179677Y277969D01*
X178769Y278088D01*
D02*
G37*
G36*
X156119D02*
X155210Y277969D01*
X154364Y277618D01*
X153637Y277060D01*
X153079Y276333D01*
X152728Y275486D01*
X152609Y274578D01*
X152728Y273670D01*
X153079Y272823D01*
X153637Y272096D01*
X154364Y271538D01*
X155210Y271187D01*
X156119Y271068D01*
X157027Y271187D01*
X157874Y271538D01*
X158601Y272096D01*
X159159Y272823D01*
X159510Y273670D01*
X159629Y274578D01*
X159510Y275486D01*
X159159Y276333D01*
X158601Y277060D01*
X157874Y277618D01*
X157027Y277969D01*
X156119Y278088D01*
D02*
G37*
G36*
X565304Y267598D02*
X563032D01*
Y265566D01*
X562586Y265295D01*
X562532Y265298D01*
X561996Y265996D01*
X561265Y266557D01*
X560414Y266910D01*
X560000Y266964D01*
Y263500D01*
Y260036D01*
X560414Y260090D01*
X561265Y260443D01*
X561996Y261004D01*
X562532Y261702D01*
X562586Y261705D01*
X563032Y261434D01*
Y259693D01*
X565304D01*
Y263646D01*
Y267598D01*
D02*
G37*
G36*
X256496D02*
X254224D01*
Y265107D01*
X253724Y265007D01*
X253557Y265411D01*
X252996Y266142D01*
X252265Y266703D01*
X251414Y267056D01*
X251000Y267110D01*
Y263646D01*
Y260181D01*
X251414Y260236D01*
X252265Y260588D01*
X252996Y261149D01*
X253557Y261881D01*
X253724Y262284D01*
X254224Y262185D01*
Y259693D01*
X256496D01*
Y263646D01*
Y267598D01*
D02*
G37*
G36*
X369496D02*
X367224D01*
Y265107D01*
X366724Y265007D01*
X366557Y265411D01*
X365996Y266142D01*
X365265Y266703D01*
X364414Y267056D01*
X364000Y267110D01*
Y263646D01*
Y260181D01*
X364414Y260236D01*
X365265Y260588D01*
X365996Y261149D01*
X366557Y261881D01*
X366724Y262284D01*
X367224Y262185D01*
Y259693D01*
X369496D01*
Y263646D01*
Y267598D01*
D02*
G37*
G36*
X452618D02*
X450347D01*
Y264961D01*
X449847Y264861D01*
X449679Y265265D01*
X449118Y265996D01*
X448387Y266557D01*
X447536Y266910D01*
X447122Y266964D01*
Y263500D01*
Y260036D01*
X447536Y260090D01*
X448387Y260443D01*
X449118Y261004D01*
X449679Y261735D01*
X449847Y262139D01*
X450347Y262039D01*
Y259693D01*
X452618D01*
Y263646D01*
Y267598D01*
D02*
G37*
G36*
X173618D02*
X171346D01*
Y264812D01*
X170846Y264713D01*
X170557Y265411D01*
X169996Y266142D01*
X169265Y266703D01*
X168414Y267056D01*
X168000Y267110D01*
Y263646D01*
Y260181D01*
X168414Y260236D01*
X169265Y260588D01*
X169996Y261149D01*
X170557Y261881D01*
X170846Y262579D01*
X171346Y262479D01*
Y259693D01*
X173618D01*
Y263646D01*
Y267598D01*
D02*
G37*
G36*
X648618D02*
X646347D01*
Y264666D01*
X645847Y264567D01*
X645557Y265265D01*
X644996Y265996D01*
X644265Y266557D01*
X643414Y266910D01*
X643000Y266964D01*
Y263500D01*
Y260036D01*
X643414Y260090D01*
X644265Y260443D01*
X644996Y261004D01*
X645557Y261735D01*
X645847Y262433D01*
X646347Y262334D01*
Y259693D01*
X648618D01*
Y263646D01*
Y267598D01*
D02*
G37*
G36*
X568576D02*
X566304D01*
Y264146D01*
X568576D01*
Y267598D01*
D02*
G37*
G36*
X372768D02*
X370496D01*
Y264146D01*
X372768D01*
Y267598D01*
D02*
G37*
G36*
X176890D02*
X174618D01*
Y264146D01*
X176890D01*
Y267598D01*
D02*
G37*
G36*
X259768D02*
X257496D01*
Y264146D01*
X259768D01*
Y267598D01*
D02*
G37*
G36*
X383556Y270354D02*
X382647Y270235D01*
X381801Y269884D01*
X381074Y269326D01*
X380516Y268599D01*
X380165Y267753D01*
X380046Y266844D01*
X380165Y265935D01*
X380516Y265089D01*
X381074Y264362D01*
X381801Y263804D01*
X382647Y263453D01*
X383556Y263334D01*
X384465Y263453D01*
X385311Y263804D01*
X386038Y264362D01*
X386596Y265089D01*
X386947Y265935D01*
X387066Y266844D01*
X386947Y267753D01*
X386596Y268599D01*
X386038Y269326D01*
X385311Y269884D01*
X384465Y270235D01*
X383556Y270354D01*
D02*
G37*
G36*
X343444D02*
X342535Y270235D01*
X341689Y269884D01*
X340962Y269326D01*
X340404Y268599D01*
X340053Y267753D01*
X339934Y266844D01*
X340053Y265935D01*
X340404Y265089D01*
X340962Y264362D01*
X341689Y263804D01*
X342535Y263453D01*
X343444Y263334D01*
X344353Y263453D01*
X345199Y263804D01*
X345926Y264362D01*
X346484Y265089D01*
X346835Y265935D01*
X346954Y266844D01*
X346835Y267753D01*
X346484Y268599D01*
X345926Y269326D01*
X345199Y269884D01*
X344353Y270235D01*
X343444Y270354D01*
D02*
G37*
G36*
X270556D02*
X269648Y270235D01*
X268801Y269884D01*
X268074Y269326D01*
X267516Y268599D01*
X267165Y267753D01*
X267046Y266844D01*
X267165Y265935D01*
X267516Y265089D01*
X268074Y264362D01*
X268801Y263804D01*
X269648Y263453D01*
X270556Y263334D01*
X271464Y263453D01*
X272311Y263804D01*
X273038Y264362D01*
X273596Y265089D01*
X273947Y265935D01*
X274066Y266844D01*
X273947Y267753D01*
X273596Y268599D01*
X273038Y269326D01*
X272311Y269884D01*
X271464Y270235D01*
X270556Y270354D01*
D02*
G37*
G36*
X230444D02*
X229536Y270235D01*
X228689Y269884D01*
X227962Y269326D01*
X227404Y268599D01*
X227053Y267753D01*
X226934Y266844D01*
X227053Y265935D01*
X227404Y265089D01*
X227962Y264362D01*
X228689Y263804D01*
X229536Y263453D01*
X230444Y263334D01*
X231352Y263453D01*
X232199Y263804D01*
X232926Y264362D01*
X233484Y265089D01*
X233835Y265935D01*
X233954Y266844D01*
X233835Y267753D01*
X233484Y268599D01*
X232926Y269326D01*
X232199Y269884D01*
X231352Y270235D01*
X230444Y270354D01*
D02*
G37*
G36*
X187500D02*
X186591Y270235D01*
X185745Y269884D01*
X185018Y269326D01*
X184460Y268599D01*
X184109Y267753D01*
X183990Y266844D01*
X184109Y265935D01*
X184460Y265089D01*
X185018Y264362D01*
X185745Y263804D01*
X186591Y263453D01*
X187500Y263334D01*
X188409Y263453D01*
X189255Y263804D01*
X189982Y264362D01*
X190540Y265089D01*
X190891Y265935D01*
X191010Y266844D01*
X190891Y267753D01*
X190540Y268599D01*
X189982Y269326D01*
X189255Y269884D01*
X188409Y270235D01*
X187500Y270354D01*
D02*
G37*
G36*
X147388D02*
X146479Y270235D01*
X145633Y269884D01*
X144906Y269326D01*
X144348Y268599D01*
X143997Y267753D01*
X143878Y266844D01*
X143997Y265935D01*
X144348Y265089D01*
X144906Y264362D01*
X145633Y263804D01*
X146479Y263453D01*
X147388Y263334D01*
X148296Y263453D01*
X149143Y263804D01*
X149870Y264362D01*
X150428Y265089D01*
X150779Y265935D01*
X150898Y266844D01*
X150779Y267753D01*
X150428Y268599D01*
X149870Y269326D01*
X149143Y269884D01*
X148296Y270235D01*
X147388Y270354D01*
D02*
G37*
G36*
X359776Y267598D02*
X354232D01*
Y263037D01*
X341063Y249868D01*
X271637D01*
X271052Y249751D01*
X270556Y249420D01*
X267020Y245884D01*
X259768D01*
Y248307D01*
X254224D01*
Y245819D01*
X253724Y245720D01*
X253557Y246123D01*
X252996Y246854D01*
X252265Y247415D01*
X251414Y247768D01*
X250500Y247888D01*
X249586Y247768D01*
X248735Y247415D01*
X248004Y246854D01*
X247443Y246123D01*
X247344Y245884D01*
X246776D01*
Y248307D01*
X241232D01*
Y240402D01*
X246776D01*
Y242825D01*
X247347D01*
X247443Y242593D01*
X248004Y241862D01*
X248735Y241301D01*
X249586Y240948D01*
X250500Y240828D01*
X251414Y240948D01*
X252265Y241301D01*
X252996Y241862D01*
X253557Y242593D01*
X253724Y242997D01*
X254224Y242897D01*
Y240402D01*
X259768D01*
Y242825D01*
X267653D01*
X268239Y242941D01*
X268735Y243273D01*
X269381Y243919D01*
X269855Y243759D01*
X269895Y243449D01*
X270246Y242603D01*
X270804Y241876D01*
X271531Y241318D01*
X272377Y240967D01*
X273286Y240848D01*
X274195Y240967D01*
X275041Y241318D01*
X275768Y241876D01*
X276326Y242603D01*
X276677Y243449D01*
X276796Y244358D01*
X276677Y245267D01*
X276326Y246113D01*
X276136Y246360D01*
X276357Y246809D01*
X337643D01*
X337864Y246360D01*
X337674Y246113D01*
X337323Y245267D01*
X337204Y244358D01*
X337323Y243449D01*
X337674Y242603D01*
X338232Y241876D01*
X338959Y241318D01*
X339806Y240967D01*
X340714Y240848D01*
X341622Y240967D01*
X342469Y241318D01*
X343196Y241876D01*
X343754Y242603D01*
X344105Y243449D01*
X344224Y244358D01*
X344105Y245267D01*
X343754Y246113D01*
X343196Y246840D01*
X343120Y246899D01*
X343080Y247559D01*
X355214Y259693D01*
X359776D01*
Y262185D01*
X360276Y262284D01*
X360443Y261881D01*
X361004Y261149D01*
X361735Y260588D01*
X362586Y260236D01*
X363000Y260181D01*
Y263646D01*
Y267110D01*
X362586Y267056D01*
X361735Y266703D01*
X361004Y266142D01*
X360443Y265411D01*
X360276Y265007D01*
X359776Y265107D01*
Y267598D01*
D02*
G37*
G36*
X246776D02*
X241232D01*
Y263037D01*
X228063Y249868D01*
X188581D01*
X187996Y249751D01*
X187500Y249420D01*
X183964Y245884D01*
X176890D01*
Y248307D01*
X171346D01*
Y245576D01*
X170846Y245477D01*
X170679Y245880D01*
X170118Y246612D01*
X169387Y247173D01*
X168536Y247525D01*
X167622Y247645D01*
X166708Y247525D01*
X165857Y247173D01*
X165126Y246612D01*
X164567Y245884D01*
X163898D01*
Y248307D01*
X158354D01*
Y240402D01*
X163898D01*
Y242825D01*
X164368D01*
X164565Y242350D01*
X165126Y241619D01*
X165857Y241058D01*
X166708Y240705D01*
X167622Y240585D01*
X168536Y240705D01*
X169387Y241058D01*
X170118Y241619D01*
X170679Y242350D01*
X170846Y242754D01*
X171346Y242654D01*
Y240402D01*
X176890D01*
Y242825D01*
X184597D01*
X185183Y242941D01*
X185679Y243273D01*
X186325Y243919D01*
X186799Y243759D01*
X186839Y243449D01*
X187190Y242603D01*
X187748Y241876D01*
X188475Y241318D01*
X189321Y240967D01*
X190230Y240848D01*
X191139Y240967D01*
X191985Y241318D01*
X192712Y241876D01*
X193270Y242603D01*
X193621Y243449D01*
X193740Y244358D01*
X193621Y245267D01*
X193270Y246113D01*
X193080Y246360D01*
X193301Y246809D01*
X224643D01*
X224864Y246360D01*
X224674Y246113D01*
X224323Y245267D01*
X224204Y244358D01*
X224323Y243449D01*
X224674Y242603D01*
X225232Y241876D01*
X225959Y241318D01*
X226805Y240967D01*
X227714Y240848D01*
X228623Y240967D01*
X229469Y241318D01*
X230196Y241876D01*
X230754Y242603D01*
X231105Y243449D01*
X231224Y244358D01*
X231105Y245267D01*
X230754Y246113D01*
X230196Y246840D01*
X230120Y246899D01*
X230080Y247559D01*
X242214Y259693D01*
X246776D01*
Y262185D01*
X247276Y262284D01*
X247443Y261881D01*
X248004Y261149D01*
X248735Y260588D01*
X249586Y260236D01*
X250000Y260181D01*
Y263646D01*
Y267110D01*
X249586Y267056D01*
X248735Y266703D01*
X248004Y266142D01*
X247443Y265411D01*
X247276Y265007D01*
X246776Y265107D01*
Y267598D01*
D02*
G37*
G36*
X163898D02*
X158354D01*
Y259693D01*
X163898D01*
Y261890D01*
X164398Y261989D01*
X164443Y261881D01*
X165004Y261149D01*
X165735Y260588D01*
X166586Y260236D01*
X167000Y260181D01*
Y263646D01*
Y267110D01*
X166586Y267056D01*
X165735Y266703D01*
X165004Y266142D01*
X164443Y265411D01*
X164398Y265302D01*
X163898Y265401D01*
Y267598D01*
D02*
G37*
G36*
X638898D02*
X633354D01*
Y259693D01*
X634597D01*
Y257155D01*
X634361Y257057D01*
X633630Y256496D01*
X633069Y255765D01*
X632716Y254914D01*
X632596Y254000D01*
X632716Y253086D01*
X633069Y252235D01*
X633630Y251504D01*
X634361Y250943D01*
X635212Y250590D01*
X636126Y250470D01*
X637040Y250590D01*
X637891Y250943D01*
X638622Y251504D01*
X639183Y252235D01*
X639536Y253086D01*
X639656Y254000D01*
X639536Y254914D01*
X639183Y255765D01*
X638622Y256496D01*
X637891Y257057D01*
X637655Y257155D01*
Y259693D01*
X638898D01*
Y261744D01*
X639398Y261844D01*
X639443Y261735D01*
X640004Y261004D01*
X640735Y260443D01*
X641586Y260090D01*
X642000Y260036D01*
Y263500D01*
Y266964D01*
X641586Y266910D01*
X640735Y266557D01*
X640004Y265996D01*
X639443Y265265D01*
X639398Y265156D01*
X638898Y265256D01*
Y267598D01*
D02*
G37*
G36*
X555584D02*
X550040D01*
Y259693D01*
X551283D01*
Y256655D01*
X551047Y256557D01*
X550316Y255996D01*
X549755Y255265D01*
X549402Y254414D01*
X549282Y253500D01*
X549402Y252586D01*
X549755Y251735D01*
X550316Y251004D01*
X551047Y250443D01*
X551898Y250090D01*
X552812Y249970D01*
X553726Y250090D01*
X554577Y250443D01*
X555308Y251004D01*
X555869Y251735D01*
X556222Y252586D01*
X556342Y253500D01*
X556222Y254414D01*
X555869Y255265D01*
X555308Y255996D01*
X554577Y256557D01*
X554341Y256655D01*
Y259693D01*
X555584D01*
Y262603D01*
X556084Y262636D01*
X556090Y262586D01*
X556443Y261735D01*
X557004Y261004D01*
X557735Y260443D01*
X558586Y260090D01*
X559000Y260036D01*
Y263500D01*
Y266964D01*
X558586Y266910D01*
X557735Y266557D01*
X557004Y265996D01*
X556443Y265265D01*
X556090Y264414D01*
X556084Y264364D01*
X555584Y264397D01*
Y267598D01*
D02*
G37*
G36*
X442898D02*
X437354D01*
Y259693D01*
X438471D01*
Y257155D01*
X438235Y257057D01*
X437504Y256496D01*
X436943Y255765D01*
X436590Y254914D01*
X436470Y254000D01*
X436590Y253086D01*
X436943Y252235D01*
X437504Y251504D01*
X438235Y250943D01*
X439086Y250590D01*
X440000Y250470D01*
X440914Y250590D01*
X441765Y250943D01*
X442496Y251504D01*
X443057Y252235D01*
X443410Y253086D01*
X443530Y254000D01*
X443410Y254914D01*
X443057Y255765D01*
X442496Y256496D01*
X441765Y257057D01*
X441529Y257155D01*
Y259693D01*
X442898D01*
Y262039D01*
X443398Y262139D01*
X443565Y261735D01*
X444126Y261004D01*
X444857Y260443D01*
X445708Y260090D01*
X446122Y260036D01*
Y263500D01*
Y266964D01*
X445708Y266910D01*
X444857Y266557D01*
X444126Y265996D01*
X443565Y265265D01*
X443398Y264861D01*
X442898Y264961D01*
Y267598D01*
D02*
G37*
G36*
X651890Y263146D02*
X649618D01*
Y259693D01*
X651890D01*
Y263146D01*
D02*
G37*
G36*
X568576Y263146D02*
X566304D01*
Y259693D01*
X568576D01*
Y263146D01*
D02*
G37*
G36*
X455890Y263146D02*
X453618D01*
Y259693D01*
X455890D01*
Y263146D01*
D02*
G37*
G36*
X372768Y263146D02*
X370496D01*
Y259693D01*
X372768D01*
Y263146D01*
D02*
G37*
G36*
X259768Y263146D02*
X257496D01*
Y259693D01*
X259768D01*
Y263146D01*
D02*
G37*
G36*
X176890Y263146D02*
X174618D01*
Y259693D01*
X176890D01*
Y263146D01*
D02*
G37*
G36*
X387692Y259447D02*
X386784Y259328D01*
X385937Y258977D01*
X385210Y258419D01*
X384652Y257692D01*
X384301Y256845D01*
X384182Y255937D01*
X384301Y255029D01*
X384652Y254182D01*
X385210Y253455D01*
X385937Y252897D01*
X386784Y252546D01*
X387692Y252427D01*
X388600Y252546D01*
X389447Y252897D01*
X390174Y253455D01*
X390732Y254182D01*
X391083Y255029D01*
X391202Y255937D01*
X391083Y256845D01*
X390732Y257692D01*
X390174Y258419D01*
X389447Y258977D01*
X388600Y259328D01*
X387692Y259447D01*
D02*
G37*
G36*
X339308D02*
X338400Y259328D01*
X337553Y258977D01*
X336826Y258419D01*
X336268Y257692D01*
X335917Y256845D01*
X335798Y255937D01*
X335917Y255029D01*
X336268Y254182D01*
X336826Y253455D01*
X337553Y252897D01*
X338400Y252546D01*
X339308Y252427D01*
X340216Y252546D01*
X341063Y252897D01*
X341790Y253455D01*
X342348Y254182D01*
X342699Y255029D01*
X342818Y255937D01*
X342699Y256845D01*
X342348Y257692D01*
X341790Y258419D01*
X341063Y258977D01*
X340216Y259328D01*
X339308Y259447D01*
D02*
G37*
G36*
X274692D02*
X273783Y259328D01*
X272937Y258977D01*
X272210Y258419D01*
X271652Y257692D01*
X271301Y256845D01*
X271182Y255937D01*
X271301Y255029D01*
X271652Y254182D01*
X272210Y253455D01*
X272937Y252897D01*
X273783Y252546D01*
X274692Y252427D01*
X275601Y252546D01*
X276447Y252897D01*
X277174Y253455D01*
X277732Y254182D01*
X278083Y255029D01*
X278202Y255937D01*
X278083Y256845D01*
X277732Y257692D01*
X277174Y258419D01*
X276447Y258977D01*
X275601Y259328D01*
X274692Y259447D01*
D02*
G37*
G36*
X226308D02*
X225399Y259328D01*
X224553Y258977D01*
X223826Y258419D01*
X223268Y257692D01*
X222917Y256845D01*
X222798Y255937D01*
X222917Y255029D01*
X223268Y254182D01*
X223826Y253455D01*
X224553Y252897D01*
X225399Y252546D01*
X226308Y252427D01*
X227217Y252546D01*
X228063Y252897D01*
X228790Y253455D01*
X229348Y254182D01*
X229699Y255029D01*
X229818Y255937D01*
X229699Y256845D01*
X229348Y257692D01*
X228790Y258419D01*
X228063Y258977D01*
X227217Y259328D01*
X226308Y259447D01*
D02*
G37*
G36*
X191636D02*
X190727Y259328D01*
X189881Y258977D01*
X189154Y258419D01*
X188596Y257692D01*
X188245Y256845D01*
X188126Y255937D01*
X188245Y255029D01*
X188596Y254182D01*
X189154Y253455D01*
X189881Y252897D01*
X190727Y252546D01*
X191636Y252427D01*
X192544Y252546D01*
X193391Y252897D01*
X194118Y253455D01*
X194676Y254182D01*
X195027Y255029D01*
X195146Y255937D01*
X195027Y256845D01*
X194676Y257692D01*
X194118Y258419D01*
X193391Y258977D01*
X192544Y259328D01*
X191636Y259447D01*
D02*
G37*
G36*
X143252D02*
X142343Y259328D01*
X141497Y258977D01*
X140770Y258419D01*
X140212Y257692D01*
X139861Y256845D01*
X139742Y255937D01*
X139861Y255029D01*
X140212Y254182D01*
X140770Y253455D01*
X141497Y252897D01*
X142343Y252546D01*
X143252Y252427D01*
X144160Y252546D01*
X145007Y252897D01*
X145734Y253455D01*
X146292Y254182D01*
X146643Y255029D01*
X146762Y255937D01*
X146643Y256845D01*
X146292Y257692D01*
X145734Y258419D01*
X145007Y258977D01*
X144160Y259328D01*
X143252Y259447D01*
D02*
G37*
G36*
X372768Y248307D02*
X367224D01*
Y245576D01*
X366724Y245477D01*
X366557Y245880D01*
X365996Y246612D01*
X365265Y247173D01*
X364414Y247525D01*
X363500Y247645D01*
X362586Y247525D01*
X361735Y247173D01*
X361004Y246612D01*
X360445Y245884D01*
X359776D01*
Y248307D01*
X354232D01*
Y240402D01*
X359776D01*
Y242825D01*
X360246D01*
X360443Y242350D01*
X361004Y241619D01*
X361735Y241058D01*
X362586Y240705D01*
X363500Y240585D01*
X364414Y240705D01*
X365265Y241058D01*
X365996Y241619D01*
X366557Y242350D01*
X366724Y242754D01*
X367224Y242654D01*
Y240402D01*
X372768D01*
Y242825D01*
X380027D01*
X383556Y239296D01*
X384052Y238965D01*
X384637Y238848D01*
X410396D01*
X410443Y238735D01*
X411004Y238004D01*
X411735Y237443D01*
X412586Y237090D01*
X413500Y236970D01*
X414414Y237090D01*
X415265Y237443D01*
X415996Y238004D01*
X416557Y238735D01*
X416910Y239586D01*
X417030Y240500D01*
X416910Y241414D01*
X416557Y242265D01*
X415996Y242996D01*
X415265Y243557D01*
X414414Y243910D01*
X413500Y244030D01*
X412586Y243910D01*
X411735Y243557D01*
X411004Y242996D01*
X410443Y242265D01*
X410294Y241907D01*
X389357D01*
X389136Y242356D01*
X389326Y242603D01*
X389677Y243449D01*
X389796Y244358D01*
X389677Y245267D01*
X389326Y246113D01*
X388768Y246840D01*
X388041Y247398D01*
X387194Y247749D01*
X386286Y247868D01*
X385378Y247749D01*
X384531Y247398D01*
X383804Y246840D01*
X383246Y246113D01*
X382895Y245267D01*
X382855Y244957D01*
X382381Y244797D01*
X381742Y245436D01*
X381246Y245767D01*
X380661Y245884D01*
X372768D01*
Y248307D01*
D02*
G37*
G36*
X649000Y257530D02*
X648086Y257410D01*
X647235Y257057D01*
X646504Y256496D01*
X645943Y255765D01*
X645590Y254914D01*
X645470Y254000D01*
X645590Y253086D01*
X645943Y252235D01*
X646504Y251504D01*
X647235Y250943D01*
X647589Y250796D01*
Y248307D01*
X646347D01*
Y245524D01*
X645847Y245425D01*
X645557Y246123D01*
X644996Y246854D01*
X644265Y247415D01*
X643414Y247768D01*
X642500Y247888D01*
X641586Y247768D01*
X640735Y247415D01*
X640004Y246854D01*
X639443Y246123D01*
X639398Y246014D01*
X638898Y246114D01*
Y248307D01*
X633354D01*
Y240402D01*
X638898D01*
Y242602D01*
X639398Y242702D01*
X639443Y242593D01*
X640004Y241862D01*
X640735Y241301D01*
X641586Y240948D01*
X642500Y240828D01*
X643414Y240948D01*
X644265Y241301D01*
X644996Y241862D01*
X645557Y242593D01*
X645847Y243291D01*
X646347Y243192D01*
Y240402D01*
X651890D01*
Y248307D01*
X650647D01*
Y250894D01*
X650765Y250943D01*
X651496Y251504D01*
X652057Y252235D01*
X652410Y253086D01*
X652530Y254000D01*
X652410Y254914D01*
X652057Y255765D01*
X651496Y256496D01*
X650765Y257057D01*
X649914Y257410D01*
X649000Y257530D01*
D02*
G37*
G36*
X144658Y247868D02*
X143749Y247749D01*
X142903Y247398D01*
X142176Y246840D01*
X141618Y246113D01*
X141267Y245267D01*
X141148Y244358D01*
X141267Y243449D01*
X141618Y242603D01*
X142176Y241876D01*
X142903Y241318D01*
X143749Y240967D01*
X144658Y240848D01*
X145566Y240967D01*
X146413Y241318D01*
X147140Y241876D01*
X147698Y242603D01*
X148049Y243449D01*
X148168Y244358D01*
X148049Y245267D01*
X147698Y246113D01*
X147140Y246840D01*
X146413Y247398D01*
X145566Y247749D01*
X144658Y247868D01*
D02*
G37*
G36*
X379660Y238269D02*
X378751Y238150D01*
X377905Y237799D01*
X377178Y237241D01*
X376620Y236514D01*
X376269Y235667D01*
X376150Y234759D01*
X376269Y233851D01*
X376620Y233004D01*
X377178Y232277D01*
X377905Y231719D01*
X378751Y231368D01*
X379660Y231249D01*
X380569Y231368D01*
X381415Y231719D01*
X382142Y232277D01*
X382700Y233004D01*
X383051Y233851D01*
X383170Y234759D01*
X383051Y235667D01*
X382700Y236514D01*
X382142Y237241D01*
X381415Y237799D01*
X380569Y238150D01*
X379660Y238269D01*
D02*
G37*
G36*
X347340D02*
X346431Y238150D01*
X345585Y237799D01*
X344858Y237241D01*
X344300Y236514D01*
X343949Y235667D01*
X343830Y234759D01*
X343949Y233851D01*
X344300Y233004D01*
X344858Y232277D01*
X345585Y231719D01*
X346431Y231368D01*
X347340Y231249D01*
X348249Y231368D01*
X349095Y231719D01*
X349822Y232277D01*
X350380Y233004D01*
X350731Y233851D01*
X350850Y234759D01*
X350731Y235667D01*
X350380Y236514D01*
X349822Y237241D01*
X349095Y237799D01*
X348249Y238150D01*
X347340Y238269D01*
D02*
G37*
G36*
X266660D02*
X265752Y238150D01*
X264905Y237799D01*
X264178Y237241D01*
X263620Y236514D01*
X263269Y235667D01*
X263150Y234759D01*
X263269Y233851D01*
X263620Y233004D01*
X264178Y232277D01*
X264905Y231719D01*
X265752Y231368D01*
X266660Y231249D01*
X267568Y231368D01*
X268415Y231719D01*
X269142Y232277D01*
X269700Y233004D01*
X270051Y233851D01*
X270170Y234759D01*
X270051Y235667D01*
X269700Y236514D01*
X269142Y237241D01*
X268415Y237799D01*
X267568Y238150D01*
X266660Y238269D01*
D02*
G37*
G36*
X234340D02*
X233432Y238150D01*
X232585Y237799D01*
X231858Y237241D01*
X231300Y236514D01*
X230949Y235667D01*
X230830Y234759D01*
X230949Y233851D01*
X231300Y233004D01*
X231858Y232277D01*
X232585Y231719D01*
X233432Y231368D01*
X234340Y231249D01*
X235248Y231368D01*
X236095Y231719D01*
X236822Y232277D01*
X237380Y233004D01*
X237731Y233851D01*
X237850Y234759D01*
X237731Y235667D01*
X237380Y236514D01*
X236822Y237241D01*
X236095Y237799D01*
X235248Y238150D01*
X234340Y238269D01*
D02*
G37*
G36*
X183604D02*
X182695Y238150D01*
X181849Y237799D01*
X181122Y237241D01*
X180564Y236514D01*
X180213Y235667D01*
X180094Y234759D01*
X180213Y233851D01*
X180564Y233004D01*
X181122Y232277D01*
X181849Y231719D01*
X182695Y231368D01*
X183604Y231249D01*
X184512Y231368D01*
X185359Y231719D01*
X186086Y232277D01*
X186644Y233004D01*
X186995Y233851D01*
X187114Y234759D01*
X186995Y235667D01*
X186644Y236514D01*
X186086Y237241D01*
X185359Y237799D01*
X184512Y238150D01*
X183604Y238269D01*
D02*
G37*
G36*
X151284D02*
X150375Y238150D01*
X149529Y237799D01*
X148802Y237241D01*
X148244Y236514D01*
X147893Y235667D01*
X147774Y234759D01*
X147893Y233851D01*
X148244Y233004D01*
X148802Y232277D01*
X149529Y231719D01*
X150375Y231368D01*
X151284Y231249D01*
X152192Y231368D01*
X153039Y231719D01*
X153766Y232277D01*
X154324Y233004D01*
X154675Y233851D01*
X154794Y234759D01*
X154675Y235667D01*
X154324Y236514D01*
X153766Y237241D01*
X153039Y237799D01*
X152192Y238150D01*
X151284Y238269D01*
D02*
G37*
G36*
X369332Y232848D02*
X368424Y232729D01*
X367577Y232378D01*
X366850Y231820D01*
X366292Y231093D01*
X365941Y230246D01*
X365822Y229338D01*
X365941Y228430D01*
X366292Y227583D01*
X366850Y226856D01*
X367577Y226298D01*
X368424Y225947D01*
X369332Y225828D01*
X370240Y225947D01*
X371087Y226298D01*
X371814Y226856D01*
X372372Y227583D01*
X372723Y228430D01*
X372842Y229338D01*
X372723Y230246D01*
X372372Y231093D01*
X371814Y231820D01*
X371087Y232378D01*
X370240Y232729D01*
X369332Y232848D01*
D02*
G37*
G36*
X357668D02*
X356760Y232729D01*
X355913Y232378D01*
X355186Y231820D01*
X354628Y231093D01*
X354277Y230246D01*
X354158Y229338D01*
X354277Y228430D01*
X354628Y227583D01*
X355186Y226856D01*
X355913Y226298D01*
X356760Y225947D01*
X357668Y225828D01*
X358576Y225947D01*
X359423Y226298D01*
X360150Y226856D01*
X360708Y227583D01*
X361059Y228430D01*
X361178Y229338D01*
X361059Y230246D01*
X360708Y231093D01*
X360150Y231820D01*
X359423Y232378D01*
X358576Y232729D01*
X357668Y232848D01*
D02*
G37*
G36*
X256332D02*
X255423Y232729D01*
X254577Y232378D01*
X253850Y231820D01*
X253292Y231093D01*
X252941Y230246D01*
X252822Y229338D01*
X252941Y228430D01*
X253292Y227583D01*
X253850Y226856D01*
X254577Y226298D01*
X255423Y225947D01*
X256332Y225828D01*
X257241Y225947D01*
X258087Y226298D01*
X258814Y226856D01*
X259372Y227583D01*
X259723Y228430D01*
X259842Y229338D01*
X259723Y230246D01*
X259372Y231093D01*
X258814Y231820D01*
X258087Y232378D01*
X257241Y232729D01*
X256332Y232848D01*
D02*
G37*
G36*
X244668D02*
X243759Y232729D01*
X242913Y232378D01*
X242186Y231820D01*
X241628Y231093D01*
X241277Y230246D01*
X241158Y229338D01*
X241277Y228430D01*
X241628Y227583D01*
X242186Y226856D01*
X242913Y226298D01*
X243759Y225947D01*
X244668Y225828D01*
X245577Y225947D01*
X246423Y226298D01*
X247150Y226856D01*
X247708Y227583D01*
X248059Y228430D01*
X248178Y229338D01*
X248059Y230246D01*
X247708Y231093D01*
X247150Y231820D01*
X246423Y232378D01*
X245577Y232729D01*
X244668Y232848D01*
D02*
G37*
G36*
X173276D02*
X172368Y232729D01*
X171521Y232378D01*
X170794Y231820D01*
X170236Y231093D01*
X169885Y230246D01*
X169766Y229338D01*
X169885Y228430D01*
X170236Y227583D01*
X170794Y226856D01*
X171521Y226298D01*
X172368Y225947D01*
X173276Y225828D01*
X174185Y225947D01*
X175031Y226298D01*
X175758Y226856D01*
X176316Y227583D01*
X176667Y228430D01*
X176786Y229338D01*
X176667Y230246D01*
X176316Y231093D01*
X175758Y231820D01*
X175031Y232378D01*
X174185Y232729D01*
X173276Y232848D01*
D02*
G37*
G36*
X161612D02*
X160704Y232729D01*
X159857Y232378D01*
X159130Y231820D01*
X158572Y231093D01*
X158221Y230246D01*
X158102Y229338D01*
X158221Y228430D01*
X158572Y227583D01*
X159130Y226856D01*
X159857Y226298D01*
X160704Y225947D01*
X161612Y225828D01*
X162521Y225947D01*
X163367Y226298D01*
X164094Y226856D01*
X164652Y227583D01*
X165003Y228430D01*
X165122Y229338D01*
X165003Y230246D01*
X164652Y231093D01*
X164094Y231820D01*
X163367Y232378D01*
X162521Y232729D01*
X161612Y232848D01*
D02*
G37*
G36*
X683500Y176417D02*
X681760Y176246D01*
X680088Y175738D01*
X678546Y174914D01*
X677195Y173805D01*
X676086Y172454D01*
X675262Y170912D01*
X674754Y169240D01*
X674583Y167500D01*
X674754Y165760D01*
X675262Y164088D01*
X676086Y162546D01*
X677195Y161195D01*
X678546Y160086D01*
X680088Y159262D01*
X681760Y158754D01*
X683500Y158583D01*
X685240Y158754D01*
X686912Y159262D01*
X688454Y160086D01*
X689805Y161195D01*
X690914Y162546D01*
X691738Y164088D01*
X692246Y165760D01*
X692417Y167500D01*
X692246Y169240D01*
X691738Y170912D01*
X690914Y172454D01*
X689805Y173805D01*
X688454Y174914D01*
X686912Y175738D01*
X685240Y176246D01*
X683500Y176417D01*
D02*
G37*
G36*
X546000D02*
X544260Y176246D01*
X542588Y175738D01*
X541046Y174914D01*
X539695Y173805D01*
X538586Y172454D01*
X537762Y170912D01*
X537254Y169240D01*
X537083Y167500D01*
X537254Y165760D01*
X537762Y164088D01*
X538586Y162546D01*
X539695Y161195D01*
X541046Y160086D01*
X542588Y159262D01*
X544260Y158754D01*
X546000Y158583D01*
X547740Y158754D01*
X549412Y159262D01*
X550954Y160086D01*
X552305Y161195D01*
X553414Y162546D01*
X554238Y164088D01*
X554746Y165760D01*
X554917Y167500D01*
X554746Y169240D01*
X554238Y170912D01*
X553414Y172454D01*
X552305Y173805D01*
X550954Y174914D01*
X549412Y175738D01*
X547740Y176246D01*
X546000Y176417D01*
D02*
G37*
G36*
X262000D02*
X260260Y176246D01*
X258588Y175738D01*
X257046Y174914D01*
X255695Y173805D01*
X254586Y172454D01*
X253762Y170912D01*
X253254Y169240D01*
X253083Y167500D01*
X253254Y165760D01*
X253762Y164088D01*
X254586Y162546D01*
X255695Y161195D01*
X257046Y160086D01*
X258588Y159262D01*
X260260Y158754D01*
X262000Y158583D01*
X263740Y158754D01*
X265412Y159262D01*
X266954Y160086D01*
X268305Y161195D01*
X269414Y162546D01*
X270238Y164088D01*
X270746Y165760D01*
X270917Y167500D01*
X270746Y169240D01*
X270238Y170912D01*
X269414Y172454D01*
X268305Y173805D01*
X266954Y174914D01*
X265412Y175738D01*
X263740Y176246D01*
X262000Y176417D01*
D02*
G37*
G36*
X126500D02*
X124760Y176246D01*
X123088Y175738D01*
X121546Y174914D01*
X120195Y173805D01*
X119086Y172454D01*
X118262Y170912D01*
X117754Y169240D01*
X117583Y167500D01*
X117754Y165760D01*
X118262Y164088D01*
X119086Y162546D01*
X120195Y161195D01*
X121546Y160086D01*
X123088Y159262D01*
X124760Y158754D01*
X126500Y158583D01*
X128240Y158754D01*
X129912Y159262D01*
X131454Y160086D01*
X132805Y161195D01*
X133914Y162546D01*
X134738Y164088D01*
X135246Y165760D01*
X135417Y167500D01*
X135246Y169240D01*
X134738Y170912D01*
X133914Y172454D01*
X132805Y173805D01*
X131454Y174914D01*
X129912Y175738D01*
X128240Y176246D01*
X126500Y176417D01*
D02*
G37*
%LPD*%
G36*
X514995Y303342D02*
X514804Y302880D01*
X512612D01*
X488404Y327087D01*
X488638Y327561D01*
X489000Y327513D01*
X490032Y327649D01*
X490496Y327841D01*
X514995Y303342D01*
D02*
G37*
G36*
X482846Y315491D02*
X482654Y315029D01*
X480462D01*
X468404Y327087D01*
X468638Y327561D01*
X469000Y327513D01*
X470032Y327649D01*
X470496Y327841D01*
X482846Y315491D01*
D02*
G37*
G36*
X476846Y311491D02*
X476654Y311029D01*
X474634D01*
X458571Y327092D01*
X458792Y327540D01*
X459000Y327513D01*
X460032Y327649D01*
X460496Y327841D01*
X476846Y311491D01*
D02*
G37*
G36*
X470846Y307491D02*
X470654Y307029D01*
X468634D01*
X448571Y327092D01*
X448792Y327540D01*
X449000Y327513D01*
X450032Y327649D01*
X450496Y327841D01*
X470846Y307491D01*
D02*
G37*
G36*
X464846Y303491D02*
X464654Y303029D01*
X462462D01*
X438404Y327087D01*
X438638Y327561D01*
X439000Y327513D01*
X440032Y327649D01*
X440496Y327841D01*
X464846Y303491D01*
D02*
G37*
G36*
X458846Y299491D02*
X458654Y299029D01*
X456462D01*
X428404Y327087D01*
X428638Y327561D01*
X429000Y327513D01*
X430032Y327649D01*
X430496Y327841D01*
X458846Y299491D01*
D02*
G37*
G36*
X452846Y295491D02*
X452654Y295029D01*
X450462D01*
X418404Y327087D01*
X418638Y327561D01*
X419000Y327513D01*
X420032Y327649D01*
X420496Y327841D01*
X452846Y295491D01*
D02*
G37*
G36*
X446846Y291491D02*
X446654Y291029D01*
X444462D01*
X408404Y327087D01*
X408638Y327561D01*
X409000Y327513D01*
X410032Y327649D01*
X410496Y327841D01*
X446846Y291491D01*
D02*
G37*
G36*
X440996Y287342D02*
X440804Y286880D01*
X438612D01*
X398404Y327087D01*
X398638Y327561D01*
X399000Y327513D01*
X400032Y327649D01*
X400496Y327841D01*
X440996Y287342D01*
D02*
G37*
G36*
X434996Y283342D02*
X434804Y282880D01*
X432612D01*
X388404Y327087D01*
X388638Y327561D01*
X389000Y327513D01*
X390032Y327649D01*
X390496Y327841D01*
X434996Y283342D01*
D02*
G37*
G36*
X430860Y277477D02*
X431356Y277145D01*
X431942Y277029D01*
X432104D01*
X432325Y276580D01*
X432135Y276333D01*
X431784Y275486D01*
X431665Y274578D01*
X431677Y274484D01*
X431229Y274263D01*
X378404Y327087D01*
X378638Y327561D01*
X379000Y327513D01*
X380032Y327649D01*
X380496Y327841D01*
X430860Y277477D01*
D02*
G37*
G36*
X427709Y270628D02*
X427426Y270204D01*
X427353Y270235D01*
X426444Y270354D01*
X425535Y270235D01*
X425338Y270153D01*
X368404Y327087D01*
X368638Y327561D01*
X369000Y327513D01*
X370032Y327649D01*
X370496Y327841D01*
X427709Y270628D01*
D02*
G37*
G36*
X420779Y267559D02*
Y259070D01*
X420553Y258977D01*
X419826Y258419D01*
X419268Y257692D01*
X418917Y256845D01*
X418798Y255937D01*
X418917Y255029D01*
X419268Y254182D01*
X419826Y253455D01*
X420553Y252897D01*
X421399Y252546D01*
X422308Y252427D01*
X423216Y252546D01*
X424063Y252897D01*
X424790Y253455D01*
X425348Y254182D01*
X425699Y255029D01*
X425818Y255937D01*
X425699Y256845D01*
X425348Y257692D01*
X424790Y258419D01*
X424063Y258977D01*
X423837Y259070D01*
Y263827D01*
X424337Y264074D01*
X424689Y263804D01*
X425535Y263453D01*
X426444Y263334D01*
X427353Y263453D01*
X428199Y263804D01*
X428446Y263994D01*
X428895Y263773D01*
Y240304D01*
X429011Y239718D01*
X429343Y239222D01*
X429901Y238664D01*
X429740Y238190D01*
X429431Y238150D01*
X428585Y237799D01*
X427858Y237241D01*
X427395Y237211D01*
X424153Y240453D01*
X424313Y240927D01*
X424622Y240967D01*
X425469Y241318D01*
X426196Y241876D01*
X426754Y242603D01*
X427105Y243449D01*
X427224Y244358D01*
X427105Y245267D01*
X426754Y246113D01*
X426196Y246840D01*
X425469Y247398D01*
X424622Y247749D01*
X423714Y247868D01*
X422806Y247749D01*
X421959Y247398D01*
X421232Y246840D01*
X420848Y246815D01*
X417029Y250634D01*
Y267828D01*
X416913Y268414D01*
X416581Y268910D01*
X358404Y327087D01*
X358638Y327561D01*
X359000Y327513D01*
X360032Y327649D01*
X360496Y327841D01*
X420779Y267559D01*
D02*
G37*
G36*
X570194Y278483D02*
X570034Y278009D01*
X569725Y277969D01*
X568878Y277618D01*
X568151Y277060D01*
X567593Y276333D01*
X567242Y275486D01*
X567123Y274578D01*
X567242Y273670D01*
X567593Y272823D01*
X567779Y272580D01*
X567533Y272080D01*
X558273D01*
X551032Y279321D01*
X551239Y279821D01*
X556237D01*
X556458Y279372D01*
X556268Y279125D01*
X555917Y278278D01*
X555798Y277370D01*
X555917Y276462D01*
X556268Y275615D01*
X556826Y274888D01*
X557553Y274330D01*
X558399Y273979D01*
X559308Y273860D01*
X560217Y273979D01*
X561063Y274330D01*
X561790Y274888D01*
X562348Y275615D01*
X562699Y276462D01*
X562818Y277370D01*
X562699Y278278D01*
X562348Y279125D01*
X562158Y279372D01*
X562379Y279821D01*
X568856D01*
X570194Y278483D01*
D02*
G37*
G36*
X457386D02*
X457226Y278009D01*
X456917Y277969D01*
X456070Y277618D01*
X455343Y277060D01*
X454785Y276333D01*
X454434Y275486D01*
X454315Y274578D01*
X454434Y273670D01*
X454492Y273529D01*
X454158Y273029D01*
X444515D01*
X438224Y279321D01*
X438431Y279821D01*
X443429D01*
X443650Y279372D01*
X443460Y279125D01*
X443109Y278278D01*
X442990Y277370D01*
X443109Y276462D01*
X443460Y275615D01*
X444018Y274888D01*
X444745Y274330D01*
X445591Y273979D01*
X446500Y273860D01*
X447408Y273979D01*
X448255Y274330D01*
X448982Y274888D01*
X449540Y275615D01*
X449891Y276462D01*
X450010Y277370D01*
X449891Y278278D01*
X449540Y279125D01*
X449350Y279372D01*
X449571Y279821D01*
X456048D01*
X457386Y278483D01*
D02*
G37*
G36*
X653386D02*
X653226Y278009D01*
X652916Y277969D01*
X652070Y277618D01*
X651343Y277060D01*
X650785Y276333D01*
X650434Y275486D01*
X650315Y274578D01*
X650394Y273976D01*
X649920Y273743D01*
X649581Y274081D01*
X649085Y274413D01*
X648500Y274529D01*
X645285D01*
X645091Y275029D01*
X645540Y275615D01*
X645891Y276462D01*
X646010Y277370D01*
X645891Y278278D01*
X645540Y279125D01*
X645275Y279471D01*
X645521Y279971D01*
X651898D01*
X653386Y278483D01*
D02*
G37*
G36*
X622005Y270749D02*
X621844Y270275D01*
X621535Y270235D01*
X621310Y270141D01*
X598092Y293359D01*
X598283Y293821D01*
X598933D01*
X622005Y270749D01*
D02*
G37*
G36*
X537706Y269971D02*
X537497Y269884D01*
X536770Y269326D01*
X536212Y268599D01*
X536119Y268373D01*
X506275D01*
X504639Y270009D01*
X504831Y270471D01*
X537606D01*
X537706Y269971D01*
D02*
G37*
G36*
X536212Y265089D02*
X536770Y264362D01*
X537497Y263804D01*
X538343Y263453D01*
X539252Y263334D01*
X540161Y263453D01*
X541007Y263804D01*
X541254Y263994D01*
X541703Y263773D01*
Y240509D01*
X541819Y239924D01*
X542151Y239427D01*
X542845Y238734D01*
X542665Y238206D01*
X542240Y238150D01*
X541393Y237799D01*
X540666Y237241D01*
X540108Y236514D01*
X540015Y236288D01*
X529875D01*
X523796Y242367D01*
X523988Y242829D01*
X533389D01*
X533482Y242603D01*
X534040Y241876D01*
X534767Y241318D01*
X535613Y240967D01*
X536522Y240848D01*
X537430Y240967D01*
X538277Y241318D01*
X539004Y241876D01*
X539562Y242603D01*
X539913Y243449D01*
X540032Y244358D01*
X539913Y245267D01*
X539562Y246113D01*
X539004Y246840D01*
X538277Y247398D01*
X537430Y247749D01*
X536522Y247868D01*
X535613Y247749D01*
X534767Y247398D01*
X534040Y246840D01*
X533482Y246113D01*
X533389Y245887D01*
X523104D01*
X515046Y253946D01*
X515237Y254408D01*
X531983D01*
X532076Y254182D01*
X532634Y253455D01*
X533361Y252897D01*
X534207Y252546D01*
X535116Y252427D01*
X536025Y252546D01*
X536871Y252897D01*
X537598Y253455D01*
X538156Y254182D01*
X538507Y255029D01*
X538626Y255937D01*
X538507Y256845D01*
X538156Y257692D01*
X537598Y258419D01*
X536871Y258977D01*
X536025Y259328D01*
X535116Y259447D01*
X534207Y259328D01*
X533361Y258977D01*
X532634Y258419D01*
X532076Y257692D01*
X531983Y257466D01*
X514353D01*
X506967Y264853D01*
X507158Y265315D01*
X536119D01*
X536212Y265089D01*
D02*
G37*
G36*
X616779Y267518D02*
Y259070D01*
X616553Y258977D01*
X615826Y258419D01*
X615268Y257692D01*
X614917Y256845D01*
X614798Y255937D01*
X614917Y255029D01*
X615268Y254182D01*
X615826Y253455D01*
X616553Y252897D01*
X617400Y252546D01*
X618308Y252427D01*
X619216Y252546D01*
X620063Y252897D01*
X620790Y253455D01*
X621348Y254182D01*
X621699Y255029D01*
X621818Y255937D01*
X621699Y256845D01*
X621348Y257692D01*
X620790Y258419D01*
X620063Y258977D01*
X619837Y259070D01*
Y263827D01*
X620337Y264074D01*
X620689Y263804D01*
X621535Y263453D01*
X622444Y263334D01*
X623352Y263453D01*
X624199Y263804D01*
X624471Y264012D01*
X624971Y263766D01*
Y240228D01*
X625087Y239643D01*
X625419Y239146D01*
X625901Y238664D01*
X625740Y238190D01*
X625431Y238150D01*
X624585Y237799D01*
X623858Y237241D01*
X623395Y237211D01*
X620153Y240453D01*
X620314Y240927D01*
X620622Y240967D01*
X621469Y241318D01*
X622196Y241876D01*
X622754Y242603D01*
X623105Y243449D01*
X623224Y244358D01*
X623105Y245267D01*
X622754Y246113D01*
X622196Y246840D01*
X621469Y247398D01*
X620622Y247749D01*
X619714Y247868D01*
X618806Y247749D01*
X617959Y247398D01*
X617461Y247016D01*
X575118Y289359D01*
X575309Y289821D01*
X594476D01*
X616779Y267518D01*
D02*
G37*
D11*
X551811Y234759D02*
X559719D01*
X545232Y241337D02*
X551811Y234759D01*
X545232Y241337D02*
Y269321D01*
X553476Y229338D02*
Y230265D01*
X543232Y240509D02*
X553476Y230265D01*
X543232Y240509D02*
Y268493D01*
X571384Y238843D02*
Y268510D01*
X569343Y270551D02*
X571384Y268510D01*
X557639Y270551D02*
X569343D01*
X649000Y254000D02*
X649118Y253882D01*
Y244354D02*
Y253882D01*
X636126Y254000D02*
Y263646D01*
X565804Y253304D02*
X566000Y253500D01*
X565804Y244354D02*
Y253304D01*
X552812Y253500D02*
Y263646D01*
X453500Y244736D02*
Y254500D01*
X453118Y244354D02*
X453500Y244736D01*
X440000Y263520D02*
X440126Y263646D01*
X440000Y254000D02*
Y263520D01*
X413378Y240378D02*
X413500Y240500D01*
X384637Y240378D02*
X413378D01*
X380661Y244354D02*
X384637Y240378D01*
X369996Y244354D02*
X380661D01*
X341697Y248338D02*
X357004Y263646D01*
X271637Y248338D02*
X341697D01*
X267653Y244354D02*
X271637Y248338D01*
X256996Y244354D02*
X267653D01*
X228696Y248338D02*
X244004Y263646D01*
X188581Y248338D02*
X228696D01*
X184597Y244354D02*
X188581Y248338D01*
X174118Y244354D02*
X184597D01*
X642496D02*
X642500Y244358D01*
X636126Y244354D02*
X642496D01*
X559304D02*
X559308Y244358D01*
X552812Y244354D02*
X559304D01*
X446261D02*
X446500Y244115D01*
X440126Y244354D02*
X446261D01*
X363261D02*
X363500Y244115D01*
X357004Y244354D02*
X363261D01*
X250496D02*
X250500Y244358D01*
X244004Y244354D02*
X250496D01*
X167383D02*
X167622Y244115D01*
X161126Y244354D02*
X167383D01*
X167500Y263646D02*
X174118D01*
X250500D02*
X256996D01*
X363500D02*
X369996D01*
X446622Y263500D02*
X446768Y263646D01*
X453118D01*
X559500Y263500D02*
X559646Y263646D01*
X565804D01*
X642500Y263500D02*
X642646Y263646D01*
X649118D01*
X458576Y238843D02*
Y267424D01*
X454500Y271500D02*
X458576Y267424D01*
X443882Y271500D02*
X454500D01*
X458576Y238843D02*
X462660Y234759D01*
X571384Y238843D02*
X575468Y234759D01*
X634056Y235500D02*
X642170D01*
X628500Y241056D02*
X634056Y235500D01*
X628500Y241056D02*
Y269245D01*
X654576Y238843D02*
Y266924D01*
Y238843D02*
X658660Y234759D01*
X648500Y273000D02*
X654576Y266924D01*
X638382Y273000D02*
X648500D01*
X369500Y280000D02*
X382779D01*
X339000Y310500D02*
X369500Y280000D01*
X312000Y283500D02*
X339000Y310500D01*
X275500Y283500D02*
X312000D01*
X272000Y280000D02*
X275500Y283500D01*
X660576Y267664D02*
X661805Y268894D01*
X660576Y266844D02*
Y267664D01*
X577384D02*
X578613Y268894D01*
X577384Y266844D02*
Y267664D01*
X464576D02*
X465805Y268894D01*
X464576Y266844D02*
Y267664D01*
X347500Y349000D02*
X520000D01*
X340000Y341500D02*
X347500Y349000D01*
X339000Y341500D02*
X340000D01*
X580613Y277830D02*
Y278872D01*
Y277830D02*
X623684Y234759D01*
X572135Y287350D02*
X580613Y278872D01*
X623684Y234759D02*
X626340D01*
X595109Y291350D02*
X618308Y268152D01*
X595938Y293350D02*
X622444Y266844D01*
X506591Y291350D02*
X595109D01*
X618308Y255937D02*
Y268152D01*
X507419Y293350D02*
X595938D01*
X572963Y289350D02*
X617956Y244358D01*
X520000Y349000D02*
X553000Y316000D01*
X620350D02*
X645000Y291350D01*
X553000Y316000D02*
X620350D01*
X349000Y340000D02*
X353453Y335547D01*
Y329876D02*
Y335547D01*
X349000Y331500D02*
X413500Y267000D01*
X353453Y329876D02*
X415500Y267828D01*
X187000Y279500D02*
X191000Y283500D01*
X275500D01*
X339000Y310500D02*
Y331500D01*
X511150Y299350D02*
X601224D01*
X479000Y331500D02*
X511150Y299350D01*
X622015Y278558D02*
X632824D01*
X601224Y299350D02*
X622015Y278558D01*
X632824D02*
X638382Y273000D01*
X493453Y329876D02*
Y337047D01*
X489000Y341500D02*
X493453Y337047D01*
X483453Y329876D02*
Y337047D01*
X479000Y341500D02*
X483453Y337047D01*
X473453Y330750D02*
Y337047D01*
X469000Y341500D02*
X473453Y337047D01*
X463453Y329876D02*
Y337047D01*
X459000Y341500D02*
X463453Y337047D01*
X453453Y330047D02*
Y336047D01*
X449000Y340500D02*
X453453Y336047D01*
X449000Y340500D02*
Y341500D01*
X443453Y330047D02*
Y336047D01*
X439000Y340500D02*
X443453Y336047D01*
X439000Y340500D02*
Y341500D01*
X433453Y329876D02*
Y336047D01*
X429000Y340500D02*
X433453Y336047D01*
X429000Y340500D02*
Y341500D01*
X423453Y329876D02*
Y336047D01*
X419000Y340500D02*
X423453Y336047D01*
X419000Y340500D02*
Y341500D01*
X403453Y329876D02*
Y336047D01*
X399000Y340500D02*
X403453Y336047D01*
X399000Y340500D02*
Y341500D01*
X363453Y329876D02*
Y335547D01*
X359000Y340000D02*
X363453Y335547D01*
X359000Y340000D02*
Y341500D01*
X349000Y340000D02*
Y341500D01*
X373453Y329876D02*
Y335547D01*
X369000Y340000D02*
X373453Y335547D01*
X369000Y340000D02*
Y341500D01*
X383453Y329876D02*
Y336047D01*
X379000Y340500D02*
X383453Y336047D01*
X379000Y340500D02*
Y341500D01*
X394547Y328781D02*
Y335953D01*
X389000Y341500D02*
X394547Y335953D01*
X617956Y244358D02*
X619714D01*
X505762Y289350D02*
X572963D01*
X642170Y235500D02*
X648332Y229338D01*
X662391Y255937D02*
X666692D01*
X658576Y259753D02*
X662391Y255937D01*
X658576Y259753D02*
Y268493D01*
X665286Y244358D02*
Y250214D01*
X656576Y258924D02*
X665286Y250214D01*
X656576Y258924D02*
Y269321D01*
X660576Y266844D02*
X662556D01*
X661805Y268894D02*
Y277884D01*
X654189Y285500D02*
X661805Y277884D01*
X623559Y285500D02*
X654189D01*
X603709Y305350D02*
X623559Y285500D01*
X517978Y305350D02*
X603709D01*
X653360Y283500D02*
X659805Y277055D01*
X622731Y283500D02*
X653360D01*
X602880Y303350D02*
X622731Y283500D01*
X517150Y303350D02*
X602880D01*
X652532Y281500D02*
X657805Y276227D01*
X621902Y281500D02*
X652532D01*
X602052Y301350D02*
X621902Y281500D01*
X511978Y301350D02*
X602052D01*
X600395Y297350D02*
X628500Y269245D01*
X509076Y297350D02*
X600395D01*
X599567Y295350D02*
X626424Y268493D01*
X508248Y295350D02*
X599567D01*
X504934Y287350D02*
X572135D01*
X571307Y285350D02*
X578613Y278044D01*
X504106Y285350D02*
X571307D01*
X570478Y283350D02*
X576613Y277215D01*
X503277Y283350D02*
X570478D01*
X569490Y281350D02*
X574613Y276227D01*
X502449Y281350D02*
X569490D01*
X549632Y278558D02*
X557639Y270551D01*
X502412Y278558D02*
X549632D01*
X493453Y329876D02*
X517978Y305350D01*
X658576Y268493D02*
X659805Y269722D01*
Y277055D01*
X656576Y269321D02*
X657805Y270551D01*
Y276227D01*
X489000Y331500D02*
X517150Y303350D01*
X483453Y329876D02*
X511978Y301350D01*
X626424Y267576D02*
Y268493D01*
X488926Y317500D02*
X509076Y297350D01*
X486703Y317500D02*
X488926D01*
X473453Y330750D02*
X486703Y317500D01*
X636668Y229338D02*
Y230060D01*
X626500Y240228D02*
X636668Y230060D01*
X626500Y240228D02*
Y267500D01*
X626424Y267576D02*
X626500Y267500D01*
X488098Y315500D02*
X508248Y295350D01*
X485000Y315500D02*
X488098D01*
X469000Y331500D02*
X485000Y315500D01*
X487269Y313500D02*
X507419Y293350D01*
X479828Y313500D02*
X487269D01*
X463453Y329876D02*
X479828Y313500D01*
X486441Y311500D02*
X506591Y291350D01*
X479000Y311500D02*
X486441D01*
X459000Y331500D02*
X479000Y311500D01*
X485613Y309500D02*
X505762Y289350D01*
X474000Y309500D02*
X485613D01*
X453453Y330047D02*
X474000Y309500D01*
X484784Y307500D02*
X504934Y287350D01*
X473000Y307500D02*
X484784D01*
X449000Y331500D02*
X473000Y307500D01*
X483956Y305500D02*
X504106Y285350D01*
X483127Y303500D02*
X503277Y283350D01*
X467000Y303500D02*
X483127D01*
X439000Y331500D02*
X467000Y303500D01*
X573384Y253068D02*
Y269321D01*
X574613Y270551D02*
Y276227D01*
X573384Y269321D02*
X574613Y270551D01*
X577384Y266844D02*
X579364D01*
X578613Y268894D02*
Y278044D01*
X468000Y305500D02*
X483956D01*
X443453Y330047D02*
X468000Y305500D01*
X582823Y255937D02*
X583500D01*
X575500Y263260D02*
X582823Y255937D01*
X575500Y263260D02*
Y265079D01*
X575384Y265195D02*
X575500Y265079D01*
X575384Y265195D02*
Y268493D01*
X576613Y269722D01*
Y277215D01*
X573384Y253068D02*
X582094Y244358D01*
X482299Y301500D02*
X502449Y281350D01*
X461828Y301500D02*
X482299D01*
X433453Y329876D02*
X461828Y301500D01*
X481470Y299500D02*
X502412Y278558D01*
X461000Y299500D02*
X481470D01*
X429000Y331500D02*
X461000Y299500D01*
X539725Y272000D02*
X543232Y268493D01*
X540553Y274000D02*
X545232Y269321D01*
X559719Y234759D02*
X565140Y229338D01*
X504142Y274000D02*
X540553D01*
X480642Y297500D02*
X504142Y274000D01*
X455828Y297500D02*
X480642D01*
X423453Y329876D02*
X455828Y297500D01*
X503314Y272000D02*
X539725D01*
X479814Y295500D02*
X503314Y272000D01*
X455000Y295500D02*
X479814D01*
X419000Y331500D02*
X455000Y295500D01*
X505641Y266844D02*
X539252D01*
X478985Y293500D02*
X505641Y266844D01*
X449828Y293500D02*
X478985D01*
X414547Y328781D02*
X449828Y293500D01*
X414547Y328781D02*
Y335953D01*
X409000Y341500D02*
X414547Y335953D01*
X513720Y255937D02*
X535116D01*
X478157Y291500D02*
X513720Y255937D01*
X449000Y291500D02*
X478157D01*
X409000Y331500D02*
X449000Y291500D01*
X522470Y244358D02*
X536522D01*
X477328Y289500D02*
X522470Y244358D01*
X443828Y289500D02*
X477328D01*
X403453Y329876D02*
X443828Y289500D01*
X529241Y234759D02*
X543148D01*
X476500Y287500D02*
X529241Y234759D01*
X443000Y287500D02*
X476500D01*
X399000Y331500D02*
X443000Y287500D01*
X462576Y264053D02*
X470692Y255937D01*
X462576Y264053D02*
Y268493D01*
X436824Y278558D02*
X443882Y271500D01*
X373453Y329876D02*
X432424Y270904D01*
Y241132D02*
Y270904D01*
Y241132D02*
X440238Y233318D01*
X448352D02*
X452332Y229338D01*
X440238Y233318D02*
X448352D01*
X427684Y234759D02*
X430340D01*
X413500Y248943D02*
Y267000D01*
Y248943D02*
X427684Y234759D01*
X421142Y244358D02*
X423714D01*
X415500Y250000D02*
X421142Y244358D01*
X415500Y250000D02*
Y267828D01*
X464576Y266844D02*
X466556D01*
X465805Y268894D02*
Y277884D01*
X458338Y285350D02*
X465805Y277884D01*
X437978Y285350D02*
X458338D01*
X394547Y328781D02*
X437978Y285350D01*
X462576Y268493D02*
X463805Y269722D01*
Y277055D01*
X457510Y283350D02*
X463805Y277055D01*
X437150Y283350D02*
X457510D01*
X389000Y331500D02*
X437150Y283350D01*
X460576Y253068D02*
X469286Y244358D01*
X460576Y253068D02*
Y269321D01*
X461805Y270551D01*
Y276227D01*
X456682Y281350D02*
X461805Y276227D01*
X431978Y281350D02*
X456682D01*
X383453Y329876D02*
X431978Y281350D01*
X431942Y278558D02*
X436824D01*
X379000Y331500D02*
X431942Y278558D01*
X430424Y240304D02*
X440668Y230060D01*
X430424Y240304D02*
Y270076D01*
X369000Y331500D02*
X430424Y270076D01*
X363453Y329876D02*
X426444Y266884D01*
X359000Y331500D02*
X422308Y268192D01*
X440668Y229338D02*
Y230060D01*
X426444Y266844D02*
Y266884D01*
X422308Y255937D02*
Y268192D01*
D18*
X161126Y244354D02*
D03*
X174118D02*
D03*
X161126Y263646D02*
D03*
X174118D02*
D03*
X244004Y244354D02*
D03*
X256996D02*
D03*
X244004Y263646D02*
D03*
X256996D02*
D03*
X357004Y244354D02*
D03*
X369996D02*
D03*
X357004Y263646D02*
D03*
X369996D02*
D03*
X440126Y244354D02*
D03*
X453118D02*
D03*
X440126Y263646D02*
D03*
X453118D02*
D03*
X552812Y244354D02*
D03*
X565804D02*
D03*
X552812Y263646D02*
D03*
X565804D02*
D03*
X636126Y244354D02*
D03*
X649118D02*
D03*
X636126Y263646D02*
D03*
X649118D02*
D03*
D19*
X631175Y274578D02*
D03*
X653825D02*
D03*
X642500Y277370D02*
D03*
X618308Y255937D02*
D03*
X619714Y244358D02*
D03*
X626340Y234759D02*
D03*
X636668Y229338D02*
D03*
X648332D02*
D03*
X658660Y234759D02*
D03*
X665286Y244358D02*
D03*
X666692Y255937D02*
D03*
X662556Y266844D02*
D03*
X622444D02*
D03*
X539252D02*
D03*
X579364D02*
D03*
X583500Y255937D02*
D03*
X582094Y244358D02*
D03*
X575468Y234759D02*
D03*
X565140Y229338D02*
D03*
X553476D02*
D03*
X543148Y234759D02*
D03*
X536522Y244358D02*
D03*
X535116Y255937D02*
D03*
X559308Y277370D02*
D03*
X570633Y274578D02*
D03*
X547983D02*
D03*
X435175D02*
D03*
X457825D02*
D03*
X446500Y277370D02*
D03*
X422308Y255937D02*
D03*
X423714Y244358D02*
D03*
X430340Y234759D02*
D03*
X440668Y229338D02*
D03*
X452332D02*
D03*
X462660Y234759D02*
D03*
X469286Y244358D02*
D03*
X470692Y255937D02*
D03*
X466556Y266844D02*
D03*
X426444D02*
D03*
X343444D02*
D03*
X383556D02*
D03*
X387692Y255937D02*
D03*
X386286Y244358D02*
D03*
X379660Y234759D02*
D03*
X369332Y229338D02*
D03*
X357668D02*
D03*
X347340Y234759D02*
D03*
X340714Y244358D02*
D03*
X339308Y255937D02*
D03*
X363500Y277370D02*
D03*
X374825Y274578D02*
D03*
X352175D02*
D03*
X239175D02*
D03*
X261825D02*
D03*
X250500Y277370D02*
D03*
X226308Y255937D02*
D03*
X227714Y244358D02*
D03*
X234340Y234759D02*
D03*
X244668Y229338D02*
D03*
X256332D02*
D03*
X266660Y234759D02*
D03*
X273286Y244358D02*
D03*
X274692Y255937D02*
D03*
X270556Y266844D02*
D03*
X230444D02*
D03*
X147388D02*
D03*
X187500D02*
D03*
X191636Y255937D02*
D03*
X190230Y244358D02*
D03*
X183604Y234759D02*
D03*
X173276Y229338D02*
D03*
X161612D02*
D03*
X151284Y234759D02*
D03*
X144658Y244358D02*
D03*
X143252Y255937D02*
D03*
X167444Y277370D02*
D03*
X178769Y274578D02*
D03*
X156119D02*
D03*
D20*
X319000Y331500D02*
D03*
Y341500D02*
D03*
X329000Y331500D02*
D03*
Y341500D02*
D03*
X339000Y331500D02*
D03*
Y341500D02*
D03*
X349000Y331500D02*
D03*
Y341500D02*
D03*
X359000Y331500D02*
D03*
Y341500D02*
D03*
X369000Y331500D02*
D03*
Y341500D02*
D03*
X379000Y331500D02*
D03*
Y341500D02*
D03*
X389000Y331500D02*
D03*
Y341500D02*
D03*
X399000Y331500D02*
D03*
Y341500D02*
D03*
X409000Y331500D02*
D03*
Y341500D02*
D03*
X419000Y331500D02*
D03*
Y341500D02*
D03*
X429000Y331500D02*
D03*
Y341500D02*
D03*
X439000Y331500D02*
D03*
Y341500D02*
D03*
X449000Y331500D02*
D03*
Y341500D02*
D03*
X459000Y331500D02*
D03*
Y341500D02*
D03*
X469000Y331500D02*
D03*
Y341500D02*
D03*
X479000Y331500D02*
D03*
Y341500D02*
D03*
X489000Y331500D02*
D03*
D21*
Y341500D02*
D03*
D22*
X649000Y254000D02*
D03*
X636126D02*
D03*
X566000Y253500D02*
D03*
X552812D02*
D03*
X453500Y254500D02*
D03*
X440000Y254000D02*
D03*
X413500Y240500D02*
D03*
X642500Y244358D02*
D03*
X559308D02*
D03*
X446500Y244115D02*
D03*
X363500D02*
D03*
X250500Y244358D02*
D03*
X167622Y244115D02*
D03*
X167500Y263646D02*
D03*
X250500D02*
D03*
X363500D02*
D03*
X446622Y263500D02*
D03*
X559500D02*
D03*
X642500D02*
D03*
X382779Y280000D02*
D03*
X645000Y291350D02*
D03*
X187000Y279500D02*
D03*
X272000Y280000D02*
D03*
D23*
X683500Y339000D02*
D03*
X126500D02*
D03*
Y167500D02*
D03*
X683500D02*
D03*
X546000Y339000D02*
D03*
X262000D02*
D03*
Y167500D02*
D03*
X546000D02*
D03*
M02*
