G04*
G04 #@! TF.GenerationSoftware,Altium Limited,Altium Designer,21.0.8 (223)*
G04*
G04 Layer_Physical_Order=4*
G04 Layer_Color=16711680*
%FSLAX25Y25*%
%MOIN*%
G70*
G04*
G04 #@! TF.SameCoordinates,B3F2E434-1899-4535-8EE7-37C191B5E607*
G04*
G04*
G04 #@! TF.FilePolarity,Positive*
G04*
G01*
G75*
%ADD12C,0.01000*%
%ADD19C,0.05906*%
%ADD20R,0.05906X0.05906*%
%ADD21C,0.04961*%
%ADD22C,0.05000*%
%ADD23C,0.15748*%
%ADD24O,0.01181X0.04134*%
%ADD25R,0.01181X0.04134*%
%ADD26R,0.04134X0.01181*%
%ADD27R,0.03543X0.03150*%
%ADD28R,0.03150X0.03543*%
%ADD29C,0.00800*%
G36*
X253244Y340634D02*
X253083Y339000D01*
X253254Y337260D01*
X253762Y335588D01*
X254586Y334046D01*
X254785Y333804D01*
X250700Y329719D01*
X250238Y329910D01*
Y338335D01*
X252831Y340928D01*
X253244Y340634D01*
D02*
G37*
G36*
X565635Y341554D02*
Y327756D01*
X565472D01*
Y324689D01*
X564595D01*
Y327756D01*
X563626D01*
Y324689D01*
Y321622D01*
X563951D01*
X563959Y321581D01*
X564291Y321085D01*
X564935Y320441D01*
X565431Y320109D01*
X566017Y319993D01*
X568109D01*
X568694Y320109D01*
X568811Y320187D01*
X569311Y319920D01*
Y317783D01*
Y313846D01*
Y309910D01*
Y305972D01*
Y301639D01*
X569031Y301409D01*
X568697Y301343D01*
X568653Y301378D01*
Y301378D01*
X549067D01*
Y305972D01*
Y309910D01*
Y313846D01*
Y317783D01*
Y321622D01*
X556843D01*
Y324689D01*
X557598D01*
Y321622D01*
X562748D01*
Y324689D01*
Y327756D01*
X562301D01*
X562286Y327835D01*
X561976Y328298D01*
X561976Y328298D01*
X554343Y335931D01*
X554746Y337260D01*
X554917Y339000D01*
X554746Y340740D01*
X554238Y342412D01*
X553414Y343954D01*
X552305Y345305D01*
X550954Y346414D01*
X549412Y347238D01*
X547740Y347746D01*
X546000Y347917D01*
X544260Y347746D01*
X542588Y347238D01*
X541046Y346414D01*
X539695Y345305D01*
X538586Y343954D01*
X537762Y342412D01*
X537254Y340740D01*
X537083Y339000D01*
X537254Y337260D01*
X537762Y335588D01*
X538586Y334046D01*
X539695Y332695D01*
X541046Y331586D01*
X541640Y331268D01*
X541518Y330783D01*
X539857D01*
X522629Y348011D01*
X522821Y348473D01*
X558717D01*
X565635Y341554D01*
D02*
G37*
G36*
X659171Y293166D02*
Y292146D01*
X658709Y291954D01*
X635249Y315414D01*
X635440Y315876D01*
X636461D01*
X659171Y293166D01*
D02*
G37*
G36*
X649604Y288734D02*
X649412Y288272D01*
X645181D01*
Y288272D01*
X644819D01*
Y288272D01*
X639669D01*
Y282963D01*
X639169Y282756D01*
X610448Y311477D01*
X610640Y311939D01*
X626398D01*
X649604Y288734D01*
D02*
G37*
G36*
X370971Y293542D02*
Y288272D01*
X366681D01*
Y288272D01*
X366319D01*
Y288272D01*
X361169D01*
Y282728D01*
X361971D01*
Y280504D01*
X361745Y280410D01*
X361129Y279938D01*
X360629Y280103D01*
Y284998D01*
X360513Y285583D01*
X360181Y286079D01*
X336752Y309509D01*
X336943Y309971D01*
X354541D01*
X370971Y293542D01*
D02*
G37*
G36*
X657571Y288767D02*
Y285746D01*
X657109Y285554D01*
X629217Y313446D01*
X629409Y313908D01*
X632430D01*
X657571Y288767D01*
D02*
G37*
G36*
X479592Y309509D02*
X454793Y284710D01*
X454331Y284901D01*
Y288272D01*
X449181D01*
Y288272D01*
X448819D01*
Y288272D01*
X444667D01*
X444476Y288734D01*
X465713Y309971D01*
X479400D01*
X479592Y309509D01*
D02*
G37*
G36*
X202377Y307540D02*
X174747Y279910D01*
X174285Y280101D01*
Y282728D01*
X175331D01*
Y288272D01*
X170181D01*
Y288272D01*
X169819D01*
Y288272D01*
X165393D01*
Y291705D01*
X181691Y308002D01*
X202186D01*
X202377Y307540D01*
D02*
G37*
G36*
X357571Y284364D02*
Y278429D01*
X357109Y278238D01*
X327806Y307540D01*
X327997Y308002D01*
X333933D01*
X357571Y284364D01*
D02*
G37*
G36*
X157471Y289917D02*
Y278235D01*
X157149Y278020D01*
X156971Y277976D01*
X156119Y278088D01*
X155210Y277969D01*
X154568Y277703D01*
X154068Y277976D01*
Y287168D01*
X157009Y290108D01*
X157471Y289917D01*
D02*
G37*
G36*
X572684Y280447D02*
Y277976D01*
X572184Y277703D01*
X571542Y277969D01*
X570633Y278088D01*
X569725Y277969D01*
X568878Y277618D01*
X568151Y277060D01*
X567593Y276333D01*
X567242Y275486D01*
X567123Y274578D01*
X567216Y273869D01*
X566752Y273594D01*
X566253Y273977D01*
X566018Y274075D01*
Y282728D01*
X567331D01*
Y285147D01*
X567793Y285339D01*
X572684Y280447D01*
D02*
G37*
G36*
X655971Y282366D02*
Y277881D01*
X655471Y277663D01*
X654734Y277969D01*
X653825Y278088D01*
X652916Y277969D01*
X652070Y277618D01*
X651343Y277060D01*
X650785Y276333D01*
X650434Y275486D01*
X650315Y274578D01*
X650422Y273763D01*
X650137Y273558D01*
X649972Y273515D01*
X649265Y274057D01*
X649029Y274155D01*
Y282728D01*
X650331D01*
Y287353D01*
X650793Y287544D01*
X655971Y282366D01*
D02*
G37*
G36*
X437471Y285601D02*
Y277768D01*
X437022Y277547D01*
X436930Y277618D01*
X436084Y277969D01*
X435175Y278088D01*
X434267Y277969D01*
X433624Y277703D01*
X433124Y277976D01*
Y281908D01*
X437009Y285792D01*
X437471Y285601D01*
D02*
G37*
G36*
X243345Y290404D02*
Y289691D01*
X242638Y288985D01*
X242307Y288489D01*
X242190Y287903D01*
Y277143D01*
X241717Y276982D01*
X241657Y277060D01*
X240930Y277618D01*
X240084Y277969D01*
X239175Y278088D01*
X238266Y277969D01*
X237624Y277703D01*
X237124Y277976D01*
Y284837D01*
X242883Y290596D01*
X243345Y290404D01*
D02*
G37*
G36*
X213041Y305572D02*
X182652Y275183D01*
X182178Y275344D01*
X182160Y275486D01*
X181809Y276333D01*
X181251Y277060D01*
X180524Y277618D01*
X179677Y277969D01*
X178769Y278088D01*
X177860Y277969D01*
X177823Y277953D01*
X177540Y278377D01*
X205196Y306034D01*
X212849D01*
X213041Y305572D01*
D02*
G37*
G36*
X635139Y280199D02*
Y274965D01*
X634639Y274933D01*
X634566Y275486D01*
X634215Y276333D01*
X633657Y277060D01*
X632930Y277618D01*
X632084Y277969D01*
X631175Y278088D01*
X630267Y277969D01*
X629624Y277703D01*
X629124Y277976D01*
Y285560D01*
X629586Y285751D01*
X635139Y280199D01*
D02*
G37*
G36*
X551971Y284838D02*
Y274783D01*
X551471Y274750D01*
X551374Y275486D01*
X551023Y276333D01*
X550465Y277060D01*
X549738Y277618D01*
X548891Y277969D01*
X547983Y278088D01*
X547075Y277969D01*
X546432Y277703D01*
X545932Y277976D01*
Y279453D01*
X551509Y285029D01*
X551971Y284838D01*
D02*
G37*
G36*
X635139Y274191D02*
Y259786D01*
X635210Y259427D01*
X634779Y259081D01*
X634138Y259347D01*
X633224Y259467D01*
X632311Y259347D01*
X631459Y258994D01*
X631202Y258797D01*
X630754Y259018D01*
Y270744D01*
X631130Y271074D01*
X631175Y271068D01*
X632084Y271187D01*
X632930Y271538D01*
X633657Y272096D01*
X634215Y272823D01*
X634566Y273670D01*
X634639Y274223D01*
X635139Y274191D01*
D02*
G37*
G36*
X551971Y274373D02*
Y259018D01*
X551522Y258797D01*
X551265Y258994D01*
X550414Y259347D01*
X549500Y259467D01*
X548586Y259347D01*
X547735Y258994D01*
X547004Y258433D01*
X546462Y257727D01*
X546410Y257723D01*
X545962Y257926D01*
Y268990D01*
X545932Y269138D01*
Y271180D01*
X546432Y271453D01*
X547075Y271187D01*
X547983Y271068D01*
X548891Y271187D01*
X549738Y271538D01*
X550465Y272096D01*
X551023Y272823D01*
X551374Y273670D01*
X551471Y274406D01*
X551971Y274373D01*
D02*
G37*
G36*
X494909Y305572D02*
X459979Y270641D01*
X459647Y270145D01*
X459531Y269560D01*
Y254465D01*
X459062Y254022D01*
X459000Y254030D01*
X458086Y253910D01*
X457235Y253557D01*
X456504Y252996D01*
X456274Y252697D01*
X455774Y252867D01*
Y271180D01*
X456274Y271453D01*
X456917Y271187D01*
X457825Y271068D01*
X458734Y271187D01*
X459580Y271538D01*
X460307Y272096D01*
X460865Y272823D01*
X461216Y273670D01*
X461335Y274578D01*
X461216Y275486D01*
X460865Y276333D01*
X460307Y277060D01*
X459580Y277618D01*
X458734Y277969D01*
X457825Y278088D01*
X456917Y277969D01*
X456274Y277703D01*
X455774Y277976D01*
Y279103D01*
X482705Y306034D01*
X494717D01*
X494909Y305572D01*
D02*
G37*
G36*
X437471Y271388D02*
Y259018D01*
X437022Y258797D01*
X436765Y258994D01*
X435914Y259347D01*
X435000Y259467D01*
X434086Y259347D01*
X433235Y258994D01*
X432978Y258797D01*
X432529Y259018D01*
Y260563D01*
X432706Y260739D01*
X433037Y261235D01*
X433154Y261820D01*
Y271131D01*
X433176Y271166D01*
X433596Y271440D01*
X433639Y271447D01*
X434267Y271187D01*
X435175Y271068D01*
X436084Y271187D01*
X436930Y271538D01*
X437022Y271609D01*
X437471Y271388D01*
D02*
G37*
G36*
X355971Y273341D02*
Y259081D01*
X355522Y258860D01*
X355265Y259057D01*
X354414Y259410D01*
X353500Y259530D01*
X352586Y259410D01*
X351735Y259057D01*
X351004Y258496D01*
X350654Y258040D01*
X350154Y258210D01*
Y271151D01*
X350654Y271441D01*
X351267Y271187D01*
X352175Y271068D01*
X353083Y271187D01*
X353930Y271538D01*
X354657Y272096D01*
X355215Y272823D01*
X355471Y273440D01*
X355971Y273341D01*
D02*
G37*
G36*
X242190Y272013D02*
Y259581D01*
X241742Y259360D01*
X241485Y259557D01*
X240633Y259910D01*
X239720Y260030D01*
X238806Y259910D01*
X237955Y259557D01*
X237654Y259326D01*
X237154Y259573D01*
Y270836D01*
X237124Y270985D01*
Y271180D01*
X237624Y271453D01*
X238266Y271187D01*
X239175Y271068D01*
X240084Y271187D01*
X240930Y271538D01*
X241657Y272096D01*
X241717Y272174D01*
X242190Y272013D01*
D02*
G37*
G36*
X499184Y301635D02*
X467690Y270141D01*
X467464Y270235D01*
X466937Y270304D01*
X466758Y270832D01*
X498022Y302097D01*
X498992D01*
X499184Y301635D01*
D02*
G37*
G36*
X220128D02*
X188634Y270141D01*
X188409Y270235D01*
X187500Y270354D01*
X186591Y270235D01*
X185745Y269884D01*
X185018Y269326D01*
X184944Y269229D01*
X184444Y269399D01*
Y269984D01*
X216556Y302097D01*
X219936D01*
X220128Y301635D01*
D02*
G37*
G36*
X345465Y281030D02*
Y272432D01*
X345495Y272284D01*
Y270242D01*
X344995Y269969D01*
X344353Y270235D01*
X343444Y270354D01*
X342535Y270235D01*
X342310Y270141D01*
X310816Y301635D01*
X311008Y302097D01*
X324398D01*
X345465Y281030D01*
D02*
G37*
G36*
X694971Y156529D02*
X115029D01*
X115029Y349971D01*
X246641D01*
X246832Y349509D01*
X237959Y340635D01*
X237650Y340172D01*
X237541Y339626D01*
X237541Y339626D01*
Y327756D01*
X237378D01*
Y322933D01*
X232555D01*
Y320903D01*
X179586D01*
X179000Y320787D01*
X178504Y320455D01*
X146307Y288258D01*
X145975Y287761D01*
X145859Y287176D01*
Y269977D01*
X145633Y269884D01*
X144906Y269326D01*
X144348Y268599D01*
X143997Y267753D01*
X143878Y266844D01*
X143997Y265935D01*
X144348Y265089D01*
X144906Y264362D01*
X145633Y263804D01*
X146479Y263453D01*
X147388Y263334D01*
X147838Y263393D01*
X148072Y262919D01*
X144386Y259234D01*
X144160Y259328D01*
X143252Y259447D01*
X142343Y259328D01*
X141497Y258977D01*
X140770Y258419D01*
X140212Y257692D01*
X139861Y256845D01*
X139742Y255937D01*
X139861Y255029D01*
X140212Y254182D01*
X140770Y253455D01*
X141497Y252897D01*
X142343Y252546D01*
X143252Y252427D01*
X144160Y252546D01*
X145007Y252897D01*
X145734Y253455D01*
X146292Y254182D01*
X146643Y255029D01*
X146762Y255937D01*
X146643Y256845D01*
X146549Y257071D01*
X150577Y261099D01*
X151039Y260908D01*
Y252902D01*
X145792Y247655D01*
X145566Y247749D01*
X144658Y247868D01*
X143749Y247749D01*
X142903Y247398D01*
X142176Y246840D01*
X141618Y246113D01*
X141267Y245267D01*
X141148Y244358D01*
X141267Y243449D01*
X141618Y242603D01*
X142176Y241876D01*
X142903Y241318D01*
X143749Y240967D01*
X144658Y240848D01*
X145566Y240967D01*
X146413Y241318D01*
X147140Y241876D01*
X147698Y242603D01*
X148049Y243449D01*
X148168Y244358D01*
X148049Y245267D01*
X147955Y245492D01*
X153650Y251187D01*
X153981Y251683D01*
X154098Y252268D01*
Y270836D01*
X154068Y270985D01*
Y271180D01*
X154568Y271453D01*
X155210Y271187D01*
X156119Y271068D01*
X157027Y271187D01*
X157670Y271453D01*
X158170Y271180D01*
Y243808D01*
X152418Y238056D01*
X152192Y238150D01*
X151284Y238269D01*
X150375Y238150D01*
X149529Y237799D01*
X148802Y237241D01*
X148244Y236514D01*
X147893Y235667D01*
X147774Y234759D01*
X147893Y233851D01*
X148244Y233004D01*
X148802Y232277D01*
X149529Y231719D01*
X150375Y231368D01*
X151284Y231249D01*
X152192Y231368D01*
X153039Y231719D01*
X153766Y232277D01*
X154324Y233004D01*
X154675Y233851D01*
X154794Y234759D01*
X154675Y235667D01*
X154581Y235893D01*
X159621Y240933D01*
X160083Y240741D01*
Y232471D01*
X159857Y232378D01*
X159130Y231820D01*
X158572Y231093D01*
X158221Y230246D01*
X158102Y229338D01*
X158221Y228430D01*
X158572Y227583D01*
X159130Y226856D01*
X159857Y226298D01*
X160704Y225947D01*
X161612Y225828D01*
X162521Y225947D01*
X163367Y226298D01*
X164094Y226856D01*
X164652Y227583D01*
X165003Y228430D01*
X165122Y229338D01*
X165003Y230246D01*
X164652Y231093D01*
X164094Y231820D01*
X163367Y232378D01*
X163141Y232471D01*
Y236656D01*
X163603Y236848D01*
X169979Y230472D01*
X169885Y230246D01*
X169766Y229338D01*
X169885Y228430D01*
X170236Y227583D01*
X170794Y226856D01*
X171521Y226298D01*
X172368Y225947D01*
X173276Y225828D01*
X174185Y225947D01*
X175031Y226298D01*
X175758Y226856D01*
X176316Y227583D01*
X176667Y228430D01*
X176786Y229338D01*
X176667Y230246D01*
X176316Y231093D01*
X175758Y231820D01*
X175031Y232378D01*
X174185Y232729D01*
X173276Y232848D01*
X172368Y232729D01*
X172142Y232635D01*
X165393Y239384D01*
Y241277D01*
X165842Y241498D01*
X166099Y241301D01*
X166950Y240948D01*
X167864Y240828D01*
X168777Y240948D01*
X169629Y241301D01*
X170360Y241862D01*
X170921Y242593D01*
X171274Y243444D01*
X171394Y244358D01*
X171274Y245272D01*
X170921Y246123D01*
X170360Y246854D01*
X169629Y247415D01*
X169393Y247513D01*
Y248669D01*
X170216D01*
Y253819D01*
X170216D01*
Y254181D01*
X170216D01*
Y256256D01*
X167444D01*
Y257256D01*
X170216D01*
Y259331D01*
X169393D01*
Y260491D01*
X169629Y260588D01*
X170360Y261149D01*
X170921Y261881D01*
X171274Y262732D01*
X171328Y263146D01*
X167864D01*
Y264146D01*
X171328D01*
X171274Y264559D01*
X170921Y265411D01*
X170360Y266142D01*
X170289Y266196D01*
X170487Y266675D01*
X170500Y266673D01*
X171414Y266793D01*
X172265Y267146D01*
X172522Y267343D01*
X172971Y267122D01*
Y243863D01*
X173087Y243278D01*
X173419Y242782D01*
X180307Y235893D01*
X180213Y235667D01*
X180094Y234759D01*
X180213Y233851D01*
X180564Y233004D01*
X181122Y232277D01*
X181849Y231719D01*
X182695Y231368D01*
X183604Y231249D01*
X184512Y231368D01*
X185359Y231719D01*
X186086Y232277D01*
X186644Y233004D01*
X186995Y233851D01*
X187114Y234759D01*
X186995Y235667D01*
X186644Y236514D01*
X186086Y237241D01*
X185359Y237799D01*
X184512Y238150D01*
X183604Y238269D01*
X182695Y238150D01*
X182470Y238056D01*
X176029Y244496D01*
Y271663D01*
X176529Y271910D01*
X177014Y271538D01*
X177860Y271187D01*
X178769Y271068D01*
X179285Y271136D01*
X179785Y270716D01*
Y261196D01*
X179901Y260610D01*
X180233Y260114D01*
X188701Y251646D01*
Y247492D01*
X188475Y247398D01*
X187748Y246840D01*
X187190Y246113D01*
X186839Y245267D01*
X186720Y244358D01*
X186839Y243449D01*
X187190Y242603D01*
X187748Y241876D01*
X188475Y241318D01*
X189321Y240967D01*
X190230Y240848D01*
X191139Y240967D01*
X191985Y241318D01*
X192712Y241876D01*
X193270Y242603D01*
X193621Y243449D01*
X193740Y244358D01*
X193621Y245267D01*
X193270Y246113D01*
X192712Y246840D01*
X191985Y247398D01*
X191759Y247492D01*
Y252280D01*
X191888Y252460D01*
X192544Y252546D01*
X193391Y252897D01*
X194118Y253455D01*
X194676Y254182D01*
X195027Y255029D01*
X195146Y255937D01*
X195027Y256845D01*
X194676Y257692D01*
X194118Y258419D01*
X193391Y258977D01*
X192544Y259328D01*
X191636Y259447D01*
X190727Y259328D01*
X190502Y259234D01*
X186817Y262919D01*
X187050Y263393D01*
X187500Y263334D01*
X188409Y263453D01*
X189255Y263804D01*
X189982Y264362D01*
X190540Y265089D01*
X190891Y265935D01*
X191010Y266844D01*
X190891Y267753D01*
X190797Y267978D01*
X222947Y300128D01*
X232555D01*
Y300067D01*
X237378D01*
Y297407D01*
X229363Y289392D01*
X229031Y288895D01*
X228915Y288310D01*
Y269977D01*
X228689Y269884D01*
X227962Y269326D01*
X227404Y268599D01*
X227053Y267753D01*
X226934Y266844D01*
X227053Y265935D01*
X227404Y265089D01*
X227962Y264362D01*
X228689Y263804D01*
X229536Y263453D01*
X230444Y263334D01*
X230894Y263393D01*
X231128Y262919D01*
X227442Y259234D01*
X227217Y259328D01*
X226308Y259447D01*
X225399Y259328D01*
X224553Y258977D01*
X223826Y258419D01*
X223268Y257692D01*
X222917Y256845D01*
X222798Y255937D01*
X222917Y255029D01*
X223268Y254182D01*
X223826Y253455D01*
X224553Y252897D01*
X225399Y252546D01*
X226308Y252427D01*
X227217Y252546D01*
X228063Y252897D01*
X228790Y253455D01*
X229348Y254182D01*
X229699Y255029D01*
X229818Y255937D01*
X229699Y256845D01*
X229605Y257071D01*
X233633Y261099D01*
X234095Y260908D01*
Y252902D01*
X228848Y247655D01*
X228623Y247749D01*
X227714Y247868D01*
X226805Y247749D01*
X225959Y247398D01*
X225232Y246840D01*
X224674Y246113D01*
X224323Y245267D01*
X224204Y244358D01*
X224323Y243449D01*
X224674Y242603D01*
X225232Y241876D01*
X225959Y241318D01*
X226805Y240967D01*
X227714Y240848D01*
X228623Y240967D01*
X229469Y241318D01*
X230196Y241876D01*
X230754Y242603D01*
X231105Y243449D01*
X231224Y244358D01*
X231105Y245267D01*
X231011Y245492D01*
X236706Y251187D01*
X237037Y251683D01*
X237154Y252268D01*
Y253427D01*
X237654Y253674D01*
X237955Y253443D01*
X238806Y253090D01*
X239720Y252970D01*
X240633Y253090D01*
X241485Y253443D01*
X241742Y253640D01*
X242190Y253419D01*
Y244772D01*
X235474Y238056D01*
X235248Y238150D01*
X234340Y238269D01*
X233432Y238150D01*
X232585Y237799D01*
X231858Y237241D01*
X231300Y236514D01*
X230949Y235667D01*
X230830Y234759D01*
X230949Y233851D01*
X231300Y233004D01*
X231858Y232277D01*
X232585Y231719D01*
X233432Y231368D01*
X234340Y231249D01*
X235248Y231368D01*
X236095Y231719D01*
X236822Y232277D01*
X237380Y233004D01*
X237731Y233851D01*
X237850Y234759D01*
X237731Y235667D01*
X237637Y235893D01*
X243328Y241584D01*
X243790Y241393D01*
Y232733D01*
X243759Y232729D01*
X242913Y232378D01*
X242186Y231820D01*
X241628Y231093D01*
X241277Y230246D01*
X241158Y229338D01*
X241277Y228430D01*
X241628Y227583D01*
X242186Y226856D01*
X242913Y226298D01*
X243759Y225947D01*
X244668Y225828D01*
X245577Y225947D01*
X246423Y226298D01*
X247150Y226856D01*
X247708Y227583D01*
X248059Y228430D01*
X248178Y229338D01*
X248059Y230246D01*
X247708Y231093D01*
X247150Y231820D01*
X246849Y232051D01*
Y236005D01*
X247311Y236196D01*
X253035Y230472D01*
X252941Y230246D01*
X252822Y229338D01*
X252941Y228430D01*
X253292Y227583D01*
X253850Y226856D01*
X254577Y226298D01*
X255423Y225947D01*
X256332Y225828D01*
X257241Y225947D01*
X258087Y226298D01*
X258814Y226856D01*
X259372Y227583D01*
X259723Y228430D01*
X259842Y229338D01*
X259723Y230246D01*
X259372Y231093D01*
X258814Y231820D01*
X258087Y232378D01*
X257241Y232729D01*
X256332Y232848D01*
X255423Y232729D01*
X255198Y232635D01*
X248449Y239384D01*
Y241277D01*
X248898Y241498D01*
X249155Y241301D01*
X250006Y240948D01*
X250920Y240828D01*
X251833Y240948D01*
X252685Y241301D01*
X253416Y241862D01*
X253977Y242593D01*
X254330Y243444D01*
X254450Y244358D01*
X254330Y245272D01*
X253977Y246123D01*
X253416Y246854D01*
X252685Y247415D01*
X252449Y247513D01*
Y248669D01*
X253272D01*
Y253819D01*
X253272D01*
Y254181D01*
X253272D01*
Y256256D01*
X250500D01*
Y257256D01*
X253272D01*
Y259331D01*
X252449D01*
Y260491D01*
X252685Y260588D01*
X253416Y261149D01*
X253977Y261881D01*
X254330Y262732D01*
X254384Y263146D01*
X250920D01*
Y263646D01*
X250420D01*
Y267110D01*
X250006Y267056D01*
X249155Y266703D01*
X248898Y266506D01*
X248449Y266727D01*
Y273972D01*
X248949Y274245D01*
X249591Y273979D01*
X250500Y273860D01*
X251409Y273979D01*
X252255Y274330D01*
X252545Y273929D01*
X252157Y273632D01*
X251596Y272901D01*
X251243Y272049D01*
X251123Y271136D01*
X251243Y270222D01*
X251596Y269371D01*
X252157Y268639D01*
X252888Y268078D01*
X253740Y267726D01*
X254653Y267605D01*
X255567Y267726D01*
X256418Y268078D01*
X257149Y268639D01*
X257710Y269371D01*
X258063Y270222D01*
X258183Y271136D01*
X258063Y272049D01*
X257710Y272901D01*
X257149Y273632D01*
X256711Y273969D01*
Y282728D01*
X258831D01*
Y285014D01*
X259293Y285205D01*
X263878Y280620D01*
Y277974D01*
X263378Y277702D01*
X262734Y277969D01*
X261825Y278088D01*
X260916Y277969D01*
X260070Y277618D01*
X259343Y277060D01*
X258785Y276333D01*
X258434Y275486D01*
X258315Y274578D01*
X258434Y273670D01*
X258785Y272823D01*
X259343Y272096D01*
X260070Y271538D01*
X260916Y271187D01*
X261825Y271068D01*
X262725Y271186D01*
X262743Y271173D01*
X263004Y270758D01*
X259255Y267009D01*
X258946Y266546D01*
X258837Y266000D01*
X258837Y266000D01*
Y241155D01*
X258837Y241155D01*
X258946Y240608D01*
X259255Y240145D01*
X263405Y235995D01*
X263269Y235667D01*
X263150Y234759D01*
X263269Y233851D01*
X263620Y233004D01*
X264178Y232277D01*
X264905Y231719D01*
X265752Y231368D01*
X266660Y231249D01*
X267568Y231368D01*
X268415Y231719D01*
X269142Y232277D01*
X269700Y233004D01*
X270051Y233851D01*
X270170Y234759D01*
X270051Y235667D01*
X269700Y236514D01*
X269142Y237241D01*
X268415Y237799D01*
X267568Y238150D01*
X266660Y238269D01*
X265752Y238150D01*
X265424Y238014D01*
X261692Y241746D01*
Y242920D01*
X262140Y243142D01*
X262399Y242943D01*
X263251Y242590D01*
X264164Y242470D01*
X265078Y242590D01*
X265930Y242943D01*
X266661Y243504D01*
X267222Y244235D01*
X267574Y245086D01*
X267695Y246000D01*
X267574Y246914D01*
X267372Y247402D01*
X267796Y247685D01*
X269989Y245492D01*
X269895Y245267D01*
X269776Y244358D01*
X269895Y243449D01*
X270246Y242603D01*
X270804Y241876D01*
X271531Y241318D01*
X272377Y240967D01*
X273286Y240848D01*
X274195Y240967D01*
X275041Y241318D01*
X275768Y241876D01*
X276326Y242603D01*
X276677Y243449D01*
X276796Y244358D01*
X276677Y245267D01*
X276326Y246113D01*
X275768Y246840D01*
X275041Y247398D01*
X274195Y247749D01*
X273286Y247868D01*
X272377Y247749D01*
X272152Y247655D01*
X266905Y252902D01*
Y260874D01*
X267120Y261003D01*
X267405Y261061D01*
X271395Y257071D01*
X271301Y256845D01*
X271182Y255937D01*
X271301Y255029D01*
X271652Y254182D01*
X272210Y253455D01*
X272937Y252897D01*
X273783Y252546D01*
X274692Y252427D01*
X275601Y252546D01*
X276447Y252897D01*
X277174Y253455D01*
X277732Y254182D01*
X278083Y255029D01*
X278202Y255937D01*
X278083Y256845D01*
X277732Y257692D01*
X277174Y258419D01*
X276447Y258977D01*
X275601Y259328D01*
X274692Y259447D01*
X273783Y259328D01*
X273558Y259234D01*
X270169Y262623D01*
X270177Y262914D01*
X270556Y263334D01*
X271464Y263453D01*
X272311Y263804D01*
X273038Y264362D01*
X273596Y265089D01*
X273947Y265935D01*
X274066Y266844D01*
X273947Y267753D01*
X273596Y268599D01*
X273038Y269326D01*
X272311Y269884D01*
X271872Y270066D01*
Y282821D01*
X271755Y283406D01*
X271424Y283902D01*
X261346Y293980D01*
X261147Y294113D01*
X259780Y295480D01*
X259800Y295688D01*
X260152Y296214D01*
X260275Y296835D01*
Y299787D01*
X260505Y300067D01*
X265067D01*
Y300128D01*
X307997D01*
X340147Y267978D01*
X340053Y267753D01*
X339934Y266844D01*
X340053Y265935D01*
X340404Y265089D01*
X340962Y264362D01*
X341689Y263804D01*
X342535Y263453D01*
X343444Y263334D01*
X344353Y263453D01*
X344995Y263719D01*
X345495Y263446D01*
Y262219D01*
X341736Y258461D01*
X341063Y258977D01*
X340216Y259328D01*
X339308Y259447D01*
X338400Y259328D01*
X337553Y258977D01*
X336826Y258419D01*
X336268Y257692D01*
X335917Y256845D01*
X335798Y255937D01*
X335917Y255029D01*
X336268Y254182D01*
X336826Y253455D01*
X337553Y252897D01*
X338400Y252546D01*
X339308Y252427D01*
X340216Y252546D01*
X341063Y252897D01*
X341790Y253455D01*
X342348Y254182D01*
X342699Y255029D01*
X342733Y255292D01*
X343215Y255613D01*
X346633Y259032D01*
X347095Y258840D01*
Y252902D01*
X341848Y247655D01*
X341622Y247749D01*
X340714Y247868D01*
X339806Y247749D01*
X338959Y247398D01*
X338232Y246840D01*
X337674Y246113D01*
X337323Y245267D01*
X337204Y244358D01*
X337323Y243449D01*
X337674Y242603D01*
X338232Y241876D01*
X338959Y241318D01*
X339806Y240967D01*
X340714Y240848D01*
X341622Y240967D01*
X342469Y241318D01*
X343196Y241876D01*
X343754Y242603D01*
X344105Y243449D01*
X344224Y244358D01*
X344105Y245267D01*
X344011Y245492D01*
X349706Y251187D01*
X350037Y251683D01*
X350154Y252268D01*
Y253790D01*
X350654Y253960D01*
X351004Y253504D01*
X351735Y252943D01*
X352586Y252590D01*
X353500Y252470D01*
X354414Y252590D01*
X355265Y252943D01*
X355522Y253140D01*
X355971Y252919D01*
Y245552D01*
X348474Y238056D01*
X348249Y238150D01*
X347340Y238269D01*
X346431Y238150D01*
X345585Y237799D01*
X344858Y237241D01*
X344300Y236514D01*
X343949Y235667D01*
X343830Y234759D01*
X343949Y233851D01*
X344300Y233004D01*
X344858Y232277D01*
X345585Y231719D01*
X346431Y231368D01*
X347340Y231249D01*
X348249Y231368D01*
X349095Y231719D01*
X349822Y232277D01*
X350380Y233004D01*
X350731Y233851D01*
X350850Y234759D01*
X350731Y235667D01*
X350637Y235893D01*
X357109Y242365D01*
X357571Y242173D01*
Y232836D01*
X356760Y232729D01*
X355913Y232378D01*
X355186Y231820D01*
X354628Y231093D01*
X354277Y230246D01*
X354158Y229338D01*
X354277Y228430D01*
X354628Y227583D01*
X355186Y226856D01*
X355913Y226298D01*
X356760Y225947D01*
X357668Y225828D01*
X358576Y225947D01*
X359423Y226298D01*
X360150Y226856D01*
X360708Y227583D01*
X361059Y228430D01*
X361178Y229338D01*
X361059Y230246D01*
X360708Y231093D01*
X360527Y231329D01*
X360629Y231842D01*
Y241846D01*
X361129Y242016D01*
X361248Y241862D01*
X361979Y241301D01*
X362830Y240948D01*
X363744Y240828D01*
X364658Y240948D01*
X365509Y241301D01*
X366240Y241862D01*
X366801Y242593D01*
X367154Y243444D01*
X367274Y244358D01*
X367154Y245272D01*
X366801Y246123D01*
X366240Y246854D01*
X365509Y247415D01*
X365029Y247614D01*
Y248669D01*
X366272D01*
Y253819D01*
X366272D01*
Y254181D01*
X366272D01*
Y256256D01*
X363500D01*
Y257256D01*
X366272D01*
Y259331D01*
X365029D01*
Y260491D01*
X365265Y260588D01*
X365996Y261149D01*
X366557Y261881D01*
X366910Y262732D01*
X366964Y263146D01*
X363500D01*
Y264146D01*
X366964D01*
X366910Y264559D01*
X366557Y265411D01*
X365996Y266142D01*
X365265Y266703D01*
X365228Y266718D01*
X365332Y267209D01*
X366246Y267329D01*
X367097Y267682D01*
X367354Y267879D01*
X367803Y267658D01*
Y232471D01*
X367577Y232378D01*
X366850Y231820D01*
X366292Y231093D01*
X365941Y230246D01*
X365822Y229338D01*
X365941Y228430D01*
X366292Y227583D01*
X366850Y226856D01*
X367577Y226298D01*
X368424Y225947D01*
X369332Y225828D01*
X370240Y225947D01*
X371087Y226298D01*
X371814Y226856D01*
X372372Y227583D01*
X372723Y228430D01*
X372842Y229338D01*
X372723Y230246D01*
X372372Y231093D01*
X371814Y231820D01*
X371087Y232378D01*
X370861Y232471D01*
Y240741D01*
X371323Y240933D01*
X376363Y235893D01*
X376269Y235667D01*
X376150Y234759D01*
X376269Y233851D01*
X376620Y233004D01*
X377178Y232277D01*
X377905Y231719D01*
X378751Y231368D01*
X379660Y231249D01*
X380569Y231368D01*
X381415Y231719D01*
X382142Y232277D01*
X382700Y233004D01*
X383051Y233851D01*
X383170Y234759D01*
X383051Y235667D01*
X382700Y236514D01*
X382142Y237241D01*
X381415Y237799D01*
X380569Y238150D01*
X379660Y238269D01*
X378751Y238150D01*
X378526Y238056D01*
X372774Y243808D01*
Y248919D01*
X373223Y249140D01*
X373480Y248943D01*
X374331Y248590D01*
X375245Y248470D01*
X376158Y248590D01*
X377010Y248943D01*
X377741Y249504D01*
X378302Y250235D01*
X378655Y251086D01*
X378775Y252000D01*
X378655Y252914D01*
X378302Y253765D01*
X377741Y254496D01*
X377010Y255057D01*
X376158Y255410D01*
X375245Y255530D01*
X374331Y255410D01*
X373480Y255057D01*
X373223Y254860D01*
X372774Y255081D01*
Y271180D01*
X373274Y271453D01*
X373917Y271187D01*
X374825Y271068D01*
X375733Y271187D01*
X376376Y271453D01*
X376876Y271180D01*
Y269688D01*
X376846Y269539D01*
Y260190D01*
X376963Y259605D01*
X377294Y259109D01*
X384757Y251646D01*
Y247492D01*
X384531Y247398D01*
X383804Y246840D01*
X383246Y246113D01*
X382895Y245267D01*
X382776Y244358D01*
X382895Y243449D01*
X383246Y242603D01*
X383804Y241876D01*
X384531Y241318D01*
X385378Y240967D01*
X386286Y240848D01*
X387194Y240967D01*
X388041Y241318D01*
X388768Y241876D01*
X389326Y242603D01*
X389677Y243449D01*
X389796Y244358D01*
X389677Y245267D01*
X389326Y246113D01*
X388768Y246840D01*
X388041Y247398D01*
X387815Y247492D01*
Y252280D01*
X387945Y252460D01*
X388600Y252546D01*
X389447Y252897D01*
X390174Y253455D01*
X390732Y254182D01*
X391083Y255029D01*
X391202Y255937D01*
X391083Y256845D01*
X390732Y257692D01*
X390174Y258419D01*
X389447Y258977D01*
X388600Y259328D01*
X387692Y259447D01*
X386784Y259328D01*
X386558Y259234D01*
X382873Y262919D01*
X383106Y263393D01*
X383556Y263334D01*
X384465Y263453D01*
X385311Y263804D01*
X386038Y264362D01*
X386596Y265089D01*
X386947Y265935D01*
X387066Y266844D01*
X386947Y267753D01*
X386596Y268599D01*
X386038Y269326D01*
X385311Y269884D01*
X384529Y270208D01*
Y292788D01*
X384413Y293373D01*
X384081Y293870D01*
X357496Y320455D01*
X356999Y320787D01*
X356414Y320903D01*
X265067D01*
Y322933D01*
X260244D01*
Y324189D01*
X258653D01*
Y325189D01*
X260244D01*
Y326328D01*
X419756D01*
X419756Y326328D01*
X420302Y326437D01*
X420765Y326747D01*
X432066Y338047D01*
X437953D01*
Y345953D01*
X430047D01*
Y340066D01*
X419165Y329183D01*
X257649D01*
X257649Y329183D01*
X257102Y329075D01*
X256639Y328765D01*
X256639Y328765D01*
X255866Y327992D01*
X255708Y327756D01*
X255094D01*
Y324689D01*
Y321622D01*
X258933D01*
Y317783D01*
Y313846D01*
Y309910D01*
Y305972D01*
Y301639D01*
X258653Y301409D01*
X258319Y301343D01*
X258276Y301378D01*
Y301378D01*
X238689D01*
Y305972D01*
Y309910D01*
Y313846D01*
Y317783D01*
Y321622D01*
X246465D01*
Y324689D01*
Y327756D01*
X240396D01*
Y339035D01*
X249834Y348473D01*
X255685D01*
X255876Y348011D01*
X247802Y339936D01*
X247492Y339473D01*
X247384Y338927D01*
X247384Y338926D01*
Y327756D01*
X247220D01*
Y324689D01*
Y321622D01*
X252370D01*
Y324689D01*
X253248D01*
Y321622D01*
X254217D01*
Y324689D01*
Y327756D01*
X253428D01*
X253237Y328218D01*
X256803Y331785D01*
X257046Y331586D01*
X258588Y330762D01*
X260260Y330254D01*
X262000Y330083D01*
X263740Y330254D01*
X265412Y330762D01*
X266954Y331586D01*
X268305Y332695D01*
X269414Y334046D01*
X270238Y335588D01*
X270746Y337260D01*
X270917Y339000D01*
X270746Y340740D01*
X270238Y342412D01*
X269414Y343954D01*
X268305Y345305D01*
X266954Y346414D01*
X266630Y346588D01*
X266751Y347073D01*
X406909D01*
X410383Y343598D01*
X410149Y343032D01*
X410013Y342000D01*
X410149Y340968D01*
X410547Y340007D01*
X411181Y339181D01*
X412007Y338547D01*
X412968Y338149D01*
X414000Y338013D01*
X415032Y338149D01*
X415993Y338547D01*
X416819Y339181D01*
X417453Y340007D01*
X417851Y340968D01*
X417987Y342000D01*
X417851Y343032D01*
X417617Y343598D01*
X421091Y347073D01*
X519530D01*
X538256Y328346D01*
X538719Y328037D01*
X539265Y327928D01*
X539265Y327928D01*
X547327D01*
X547756Y327756D01*
Y322933D01*
X542933D01*
Y320903D01*
X463902D01*
X463317Y320787D01*
X462821Y320455D01*
X425363Y282997D01*
X425031Y282501D01*
X424915Y281916D01*
Y269977D01*
X424689Y269884D01*
X423962Y269326D01*
X423404Y268599D01*
X423053Y267753D01*
X422934Y266844D01*
X423053Y265935D01*
X423404Y265089D01*
X423962Y264362D01*
X424689Y263804D01*
X425535Y263453D01*
X426444Y263334D01*
X426894Y263393D01*
X427128Y262919D01*
X423442Y259234D01*
X423216Y259328D01*
X422308Y259447D01*
X421399Y259328D01*
X420553Y258977D01*
X419826Y258419D01*
X419268Y257692D01*
X418917Y256845D01*
X418798Y255937D01*
X418917Y255029D01*
X419268Y254182D01*
X419826Y253455D01*
X420553Y252897D01*
X421399Y252546D01*
X422308Y252427D01*
X423216Y252546D01*
X424063Y252897D01*
X424790Y253455D01*
X425348Y254182D01*
X425699Y255029D01*
X425818Y255937D01*
X425699Y256845D01*
X425605Y257071D01*
X429009Y260475D01*
X429471Y260283D01*
Y252277D01*
X424848Y247655D01*
X424622Y247749D01*
X423714Y247868D01*
X422806Y247749D01*
X421959Y247398D01*
X421232Y246840D01*
X420674Y246113D01*
X420323Y245267D01*
X420204Y244358D01*
X420323Y243449D01*
X420674Y242603D01*
X421232Y241876D01*
X421959Y241318D01*
X422806Y240967D01*
X423714Y240848D01*
X424622Y240967D01*
X425469Y241318D01*
X426196Y241876D01*
X426754Y242603D01*
X427105Y243449D01*
X427224Y244358D01*
X427105Y245267D01*
X427011Y245492D01*
X432081Y250563D01*
X432413Y251059D01*
X432529Y251644D01*
Y252856D01*
X432978Y253077D01*
X433235Y252880D01*
X434086Y252527D01*
X435000Y252407D01*
X435914Y252527D01*
X436765Y252880D01*
X437022Y253077D01*
X437471Y252856D01*
Y244053D01*
X431474Y238056D01*
X431249Y238150D01*
X430340Y238269D01*
X429431Y238150D01*
X428585Y237799D01*
X427858Y237241D01*
X427300Y236514D01*
X426949Y235667D01*
X426830Y234759D01*
X426949Y233851D01*
X427300Y233004D01*
X427858Y232277D01*
X428585Y231719D01*
X429431Y231368D01*
X430340Y231249D01*
X431249Y231368D01*
X432095Y231719D01*
X432822Y232277D01*
X433380Y233004D01*
X433731Y233851D01*
X433850Y234759D01*
X433731Y235667D01*
X433637Y235893D01*
X438677Y240933D01*
X439139Y240741D01*
Y232471D01*
X438913Y232378D01*
X438186Y231820D01*
X437628Y231093D01*
X437277Y230246D01*
X437158Y229338D01*
X437277Y228430D01*
X437628Y227583D01*
X438186Y226856D01*
X438913Y226298D01*
X439759Y225947D01*
X440668Y225828D01*
X441576Y225947D01*
X442423Y226298D01*
X443150Y226856D01*
X443708Y227583D01*
X444059Y228430D01*
X444178Y229338D01*
X444059Y230246D01*
X443708Y231093D01*
X443150Y231820D01*
X442423Y232378D01*
X442197Y232471D01*
Y286455D01*
X443207Y287465D01*
X443669Y287274D01*
Y282728D01*
X444971D01*
Y280504D01*
X444745Y280410D01*
X444018Y279852D01*
X443460Y279125D01*
X443109Y278278D01*
X442990Y277370D01*
X443109Y276462D01*
X443460Y275615D01*
X444018Y274888D01*
X444745Y274330D01*
X445019Y274216D01*
Y273675D01*
X444735Y273557D01*
X444004Y272996D01*
X443443Y272265D01*
X443090Y271414D01*
X442970Y270500D01*
X443090Y269586D01*
X443443Y268735D01*
X444004Y268004D01*
X444735Y267443D01*
X444966Y267347D01*
Y266806D01*
X444735Y266710D01*
X444004Y266149D01*
X443443Y265418D01*
X443090Y264567D01*
X443036Y264153D01*
X449964D01*
X449910Y264567D01*
X449557Y265418D01*
X448996Y266149D01*
X448265Y266710D01*
X448034Y266806D01*
Y267347D01*
X448265Y267443D01*
X448996Y268004D01*
X449557Y268735D01*
X449910Y269586D01*
X450030Y270500D01*
X449910Y271414D01*
X449812Y271649D01*
X450341Y272178D01*
X450803Y271986D01*
Y232471D01*
X450577Y232378D01*
X449850Y231820D01*
X449292Y231093D01*
X448941Y230246D01*
X448822Y229338D01*
X448941Y228430D01*
X449292Y227583D01*
X449850Y226856D01*
X450577Y226298D01*
X451424Y225947D01*
X452332Y225828D01*
X453240Y225947D01*
X454087Y226298D01*
X454814Y226856D01*
X455372Y227583D01*
X455723Y228430D01*
X455842Y229338D01*
X455723Y230246D01*
X455372Y231093D01*
X454814Y231820D01*
X454087Y232378D01*
X453861Y232471D01*
Y240741D01*
X454323Y240933D01*
X459363Y235893D01*
X459269Y235667D01*
X459150Y234759D01*
X459269Y233851D01*
X459620Y233004D01*
X460178Y232277D01*
X460905Y231719D01*
X461752Y231368D01*
X462660Y231249D01*
X463568Y231368D01*
X464415Y231719D01*
X465142Y232277D01*
X465700Y233004D01*
X466051Y233851D01*
X466170Y234759D01*
X466051Y235667D01*
X465700Y236514D01*
X465142Y237241D01*
X464415Y237799D01*
X463568Y238150D01*
X462660Y238269D01*
X461752Y238150D01*
X461526Y238056D01*
X455774Y243808D01*
Y248133D01*
X456274Y248303D01*
X456504Y248004D01*
X457235Y247443D01*
X458086Y247090D01*
X459000Y246970D01*
X459914Y247090D01*
X460765Y247443D01*
X461496Y248004D01*
X462049Y248725D01*
X462118Y248804D01*
X462621Y248861D01*
X465989Y245492D01*
X465895Y245267D01*
X465776Y244358D01*
X465895Y243449D01*
X466246Y242603D01*
X466804Y241876D01*
X467531Y241318D01*
X468377Y240967D01*
X469286Y240848D01*
X470194Y240967D01*
X471041Y241318D01*
X471768Y241876D01*
X472326Y242603D01*
X472677Y243449D01*
X472796Y244358D01*
X472677Y245267D01*
X472326Y246113D01*
X471768Y246840D01*
X471041Y247398D01*
X470194Y247749D01*
X469286Y247868D01*
X468377Y247749D01*
X468152Y247655D01*
X464529Y251277D01*
Y252157D01*
X464413Y252742D01*
X464081Y253238D01*
X462589Y254730D01*
Y260908D01*
X463051Y261099D01*
X467302Y256848D01*
X467301Y256845D01*
X467182Y255937D01*
X467301Y255029D01*
X467652Y254182D01*
X468210Y253455D01*
X468937Y252897D01*
X469783Y252546D01*
X470692Y252427D01*
X471600Y252546D01*
X472447Y252897D01*
X473174Y253455D01*
X473732Y254182D01*
X474083Y255029D01*
X474202Y255937D01*
X474083Y256845D01*
X473732Y257692D01*
X473174Y258419D01*
X472447Y258977D01*
X471600Y259328D01*
X470692Y259447D01*
X469783Y259328D01*
X469335Y259142D01*
X465485Y262991D01*
X465562Y263211D01*
X465742Y263441D01*
X466556Y263334D01*
X467464Y263453D01*
X468311Y263804D01*
X469038Y264362D01*
X469596Y265089D01*
X469947Y265935D01*
X470066Y266844D01*
X469947Y267753D01*
X469853Y267978D01*
X502003Y300128D01*
X542933D01*
Y300067D01*
X547756D01*
Y295244D01*
X547817D01*
Y291342D01*
X538171Y281695D01*
X537839Y281199D01*
X537723Y280614D01*
Y269977D01*
X537497Y269884D01*
X536770Y269326D01*
X536212Y268599D01*
X535861Y267753D01*
X535742Y266844D01*
X535861Y265935D01*
X536212Y265089D01*
X536770Y264362D01*
X537497Y263804D01*
X538343Y263453D01*
X539252Y263334D01*
X539702Y263393D01*
X539935Y262919D01*
X536250Y259234D01*
X536025Y259328D01*
X535116Y259447D01*
X534207Y259328D01*
X533361Y258977D01*
X532634Y258419D01*
X532076Y257692D01*
X531725Y256845D01*
X531606Y255937D01*
X531725Y255029D01*
X532076Y254182D01*
X532634Y253455D01*
X533361Y252897D01*
X534207Y252546D01*
X535116Y252427D01*
X536025Y252546D01*
X536871Y252897D01*
X537598Y253455D01*
X538156Y254182D01*
X538507Y255029D01*
X538626Y255937D01*
X538507Y256845D01*
X538413Y257071D01*
X542441Y261099D01*
X542903Y260908D01*
Y252902D01*
X537656Y247655D01*
X537430Y247749D01*
X536522Y247868D01*
X535613Y247749D01*
X534767Y247398D01*
X534040Y246840D01*
X533482Y246113D01*
X533131Y245267D01*
X533012Y244358D01*
X533131Y243449D01*
X533482Y242603D01*
X534040Y241876D01*
X534767Y241318D01*
X535613Y240967D01*
X536522Y240848D01*
X537430Y240967D01*
X538277Y241318D01*
X539004Y241876D01*
X539562Y242603D01*
X539913Y243449D01*
X540032Y244358D01*
X539913Y245267D01*
X539819Y245492D01*
X545514Y251187D01*
X545845Y251683D01*
X545962Y252268D01*
Y253948D01*
X546410Y254151D01*
X546462Y254147D01*
X547004Y253441D01*
X547735Y252880D01*
X548586Y252527D01*
X549500Y252407D01*
X550414Y252527D01*
X551265Y252880D01*
X551522Y253077D01*
X551971Y252856D01*
Y245744D01*
X544282Y238056D01*
X544057Y238150D01*
X543148Y238269D01*
X542240Y238150D01*
X541393Y237799D01*
X540666Y237241D01*
X540108Y236514D01*
X539757Y235667D01*
X539638Y234759D01*
X539757Y233851D01*
X540108Y233004D01*
X540666Y232277D01*
X541393Y231719D01*
X542240Y231368D01*
X543148Y231249D01*
X544057Y231368D01*
X544903Y231719D01*
X545630Y232277D01*
X546188Y233004D01*
X546539Y233851D01*
X546658Y234759D01*
X546539Y235667D01*
X546445Y235893D01*
X553109Y242557D01*
X553571Y242365D01*
Y232931D01*
X553476Y232848D01*
X552567Y232729D01*
X551721Y232378D01*
X550994Y231820D01*
X550436Y231093D01*
X550085Y230246D01*
X549966Y229338D01*
X550085Y228430D01*
X550436Y227583D01*
X550994Y226856D01*
X551721Y226298D01*
X552567Y225947D01*
X553476Y225828D01*
X554385Y225947D01*
X555231Y226298D01*
X555958Y226856D01*
X556516Y227583D01*
X556867Y228430D01*
X556986Y229338D01*
X556867Y230246D01*
X556516Y231093D01*
X556434Y231200D01*
X556513Y231319D01*
X556629Y231904D01*
Y241232D01*
X557129Y241478D01*
X557361Y241301D01*
X558212Y240948D01*
X559126Y240828D01*
X560040Y240948D01*
X560891Y241301D01*
X561622Y241862D01*
X562183Y242593D01*
X562536Y243444D01*
X562656Y244358D01*
X562536Y245272D01*
X562183Y246123D01*
X561622Y246854D01*
X560891Y247415D01*
X560655Y247513D01*
Y248669D01*
X562272D01*
Y253819D01*
X562272D01*
Y254181D01*
X562272D01*
Y256256D01*
X559500D01*
Y257256D01*
X562272D01*
Y259331D01*
X561029D01*
Y260702D01*
X561622Y261157D01*
X562183Y261888D01*
X562536Y262740D01*
X562578Y263061D01*
X563052Y263222D01*
X563611Y262663D01*
Y232471D01*
X563385Y232378D01*
X562658Y231820D01*
X562100Y231093D01*
X561749Y230246D01*
X561630Y229338D01*
X561749Y228430D01*
X562100Y227583D01*
X562658Y226856D01*
X563385Y226298D01*
X564231Y225947D01*
X565140Y225828D01*
X566048Y225947D01*
X566895Y226298D01*
X567622Y226856D01*
X568180Y227583D01*
X568531Y228430D01*
X568650Y229338D01*
X568531Y230246D01*
X568180Y231093D01*
X567622Y231820D01*
X566895Y232378D01*
X566669Y232471D01*
Y240741D01*
X567131Y240933D01*
X572171Y235893D01*
X572077Y235667D01*
X571958Y234759D01*
X572077Y233851D01*
X572428Y233004D01*
X572986Y232277D01*
X573713Y231719D01*
X574559Y231368D01*
X575468Y231249D01*
X576376Y231368D01*
X577223Y231719D01*
X577950Y232277D01*
X578508Y233004D01*
X578859Y233851D01*
X578978Y234759D01*
X578859Y235667D01*
X578508Y236514D01*
X577950Y237241D01*
X577223Y237799D01*
X576376Y238150D01*
X575468Y238269D01*
X574559Y238150D01*
X574334Y238056D01*
X572001Y240389D01*
X572234Y240863D01*
X572500Y240828D01*
X573414Y240948D01*
X574265Y241301D01*
X574996Y241862D01*
X575557Y242593D01*
X575910Y243444D01*
X576030Y244358D01*
X575910Y245272D01*
X575557Y246123D01*
X574996Y246854D01*
X574265Y247415D01*
X573414Y247768D01*
X572500Y247888D01*
X571586Y247768D01*
X570735Y247415D01*
X570004Y246854D01*
X569443Y246123D01*
X569090Y245272D01*
X569082Y245211D01*
X568582Y245244D01*
Y265064D01*
X570878Y267360D01*
X571209Y267856D01*
X571227Y267946D01*
X572192Y268911D01*
X572654Y268720D01*
Y252268D01*
X572771Y251683D01*
X573102Y251187D01*
X578797Y245492D01*
X578703Y245267D01*
X578584Y244358D01*
X578703Y243449D01*
X579054Y242603D01*
X579612Y241876D01*
X580339Y241318D01*
X581185Y240967D01*
X582094Y240848D01*
X583003Y240967D01*
X583849Y241318D01*
X584576Y241876D01*
X585134Y242603D01*
X585485Y243449D01*
X585604Y244358D01*
X585485Y245267D01*
X585134Y246113D01*
X584576Y246840D01*
X583849Y247398D01*
X583003Y247749D01*
X582094Y247868D01*
X581185Y247749D01*
X580960Y247655D01*
X575713Y252902D01*
Y260908D01*
X576175Y261099D01*
X580203Y257071D01*
X580109Y256845D01*
X579990Y255937D01*
X580109Y255029D01*
X580460Y254182D01*
X581018Y253455D01*
X581745Y252897D01*
X582591Y252546D01*
X583500Y252427D01*
X584409Y252546D01*
X585255Y252897D01*
X585982Y253455D01*
X586540Y254182D01*
X586891Y255029D01*
X587010Y255937D01*
X586891Y256845D01*
X586540Y257692D01*
X585982Y258419D01*
X585255Y258977D01*
X584409Y259328D01*
X583500Y259447D01*
X582591Y259328D01*
X582366Y259234D01*
X578681Y262919D01*
X578914Y263393D01*
X579364Y263334D01*
X580272Y263453D01*
X581119Y263804D01*
X581846Y264362D01*
X582404Y265089D01*
X582755Y265935D01*
X582874Y266844D01*
X582755Y267753D01*
X582404Y268599D01*
X581846Y269326D01*
X581119Y269884D01*
X580893Y269977D01*
Y283697D01*
X580883Y283752D01*
Y284122D01*
X580766Y284707D01*
X580435Y285204D01*
X570158Y295480D01*
X570178Y295688D01*
X570530Y296214D01*
X570653Y296835D01*
Y299787D01*
X570883Y300067D01*
X575445D01*
Y300128D01*
X602709D01*
X620915Y281923D01*
Y269977D01*
X620689Y269884D01*
X619962Y269326D01*
X619404Y268599D01*
X619053Y267753D01*
X618934Y266844D01*
X619053Y265935D01*
X619404Y265089D01*
X619962Y264362D01*
X620689Y263804D01*
X621535Y263453D01*
X622444Y263334D01*
X622894Y263393D01*
X623128Y262919D01*
X619442Y259234D01*
X619216Y259328D01*
X618308Y259447D01*
X617400Y259328D01*
X616553Y258977D01*
X615826Y258419D01*
X615268Y257692D01*
X614917Y256845D01*
X614798Y255937D01*
X614917Y255029D01*
X615268Y254182D01*
X615826Y253455D01*
X616553Y252897D01*
X617400Y252546D01*
X618308Y252427D01*
X619216Y252546D01*
X620063Y252897D01*
X620790Y253455D01*
X621348Y254182D01*
X621699Y255029D01*
X621818Y255937D01*
X621699Y256845D01*
X621605Y257071D01*
X625633Y261099D01*
X626095Y260908D01*
Y252902D01*
X620848Y247655D01*
X620622Y247749D01*
X619714Y247868D01*
X618806Y247749D01*
X617959Y247398D01*
X617232Y246840D01*
X616674Y246113D01*
X616323Y245267D01*
X616204Y244358D01*
X616323Y243449D01*
X616674Y242603D01*
X617232Y241876D01*
X617959Y241318D01*
X618806Y240967D01*
X619714Y240848D01*
X620622Y240967D01*
X621469Y241318D01*
X622196Y241876D01*
X622754Y242603D01*
X623105Y243449D01*
X623224Y244358D01*
X623105Y245267D01*
X623011Y245492D01*
X624349Y246830D01*
X624811Y246638D01*
Y237893D01*
X624585Y237799D01*
X623858Y237241D01*
X623300Y236514D01*
X622949Y235667D01*
X622830Y234759D01*
X622949Y233851D01*
X623300Y233004D01*
X623858Y232277D01*
X624585Y231719D01*
X625431Y231368D01*
X626340Y231249D01*
X627248Y231368D01*
X628095Y231719D01*
X628822Y232277D01*
X629380Y233004D01*
X629731Y233851D01*
X629850Y234759D01*
X629731Y235667D01*
X629380Y236514D01*
X628822Y237241D01*
X628095Y237799D01*
X627869Y237893D01*
Y247991D01*
X630306Y250427D01*
X630637Y250923D01*
X630754Y251508D01*
Y252856D01*
X631202Y253077D01*
X631459Y252880D01*
X632311Y252527D01*
X633224Y252407D01*
X634138Y252527D01*
X634989Y252880D01*
X635471Y253249D01*
X635971Y253003D01*
Y232756D01*
X635759Y232729D01*
X634913Y232378D01*
X634186Y231820D01*
X633628Y231093D01*
X633277Y230246D01*
X633158Y229338D01*
X633277Y228430D01*
X633628Y227583D01*
X634186Y226856D01*
X634913Y226298D01*
X635759Y225947D01*
X636668Y225828D01*
X637576Y225947D01*
X638423Y226298D01*
X639150Y226856D01*
X639708Y227583D01*
X640059Y228430D01*
X640178Y229338D01*
X640059Y230246D01*
X639708Y231093D01*
X639150Y231820D01*
X639029Y231913D01*
Y235824D01*
X639491Y236016D01*
X645035Y230472D01*
X644941Y230246D01*
X644822Y229338D01*
X644941Y228430D01*
X645292Y227583D01*
X645850Y226856D01*
X646577Y226298D01*
X647424Y225947D01*
X648332Y225828D01*
X649240Y225947D01*
X650087Y226298D01*
X650814Y226856D01*
X651372Y227583D01*
X651723Y228430D01*
X651842Y229338D01*
X651723Y230246D01*
X651372Y231093D01*
X650814Y231820D01*
X650087Y232378D01*
X649240Y232729D01*
X648332Y232848D01*
X647424Y232729D01*
X647198Y232635D01*
X640629Y239204D01*
Y241273D01*
X641078Y241494D01*
X641335Y241297D01*
X642186Y240944D01*
X643100Y240824D01*
X644014Y240944D01*
X644865Y241297D01*
X645596Y241858D01*
X646157Y242589D01*
X646510Y243441D01*
X646630Y244354D01*
X646510Y245268D01*
X646157Y246119D01*
X645596Y246851D01*
X644865Y247412D01*
X644629Y247509D01*
Y248669D01*
X645272D01*
Y253819D01*
X645272D01*
Y254181D01*
X645272D01*
Y256256D01*
X642500D01*
Y257256D01*
X645272D01*
Y259331D01*
X644029D01*
Y260491D01*
X644265Y260588D01*
X644996Y261149D01*
X645557Y261881D01*
X645910Y262732D01*
X645964Y263146D01*
X642500D01*
Y263646D01*
X642000D01*
Y267110D01*
X641586Y267056D01*
X640735Y266703D01*
X640478Y266506D01*
X640029Y266727D01*
Y274314D01*
X640478Y274535D01*
X640745Y274330D01*
X641592Y273979D01*
X642500Y273860D01*
X643408Y273979D01*
X644255Y274330D01*
X644982Y274888D01*
X645471Y275524D01*
X645839Y275460D01*
X645971Y275392D01*
Y274155D01*
X645735Y274057D01*
X645004Y273496D01*
X644443Y272765D01*
X644090Y271914D01*
X643970Y271000D01*
X644090Y270086D01*
X644443Y269235D01*
X645004Y268504D01*
X645735Y267943D01*
X646586Y267590D01*
X647500Y267470D01*
X648414Y267590D01*
X649265Y267943D01*
X649996Y268504D01*
X650557Y269235D01*
X650910Y270086D01*
X651030Y271000D01*
X650922Y271823D01*
X651194Y272024D01*
X651372Y272074D01*
X652070Y271538D01*
X652916Y271187D01*
X653767Y271075D01*
X653840Y271052D01*
X654246Y270619D01*
Y251606D01*
X654363Y251020D01*
X654694Y250524D01*
X657131Y248088D01*
Y237893D01*
X656905Y237799D01*
X656293Y237329D01*
X655936Y237686D01*
X655974Y237735D01*
X656326Y238586D01*
X656447Y239500D01*
X656326Y240414D01*
X655974Y241265D01*
X655413Y241996D01*
X654682Y242557D01*
X653830Y242910D01*
X652916Y243030D01*
X652003Y242910D01*
X651151Y242557D01*
X650420Y241996D01*
X649859Y241265D01*
X649507Y240414D01*
X649386Y239500D01*
X649507Y238586D01*
X649859Y237735D01*
X650420Y237004D01*
X651151Y236443D01*
X652003Y236090D01*
X652916Y235970D01*
X653830Y236090D01*
X654682Y236443D01*
X655298Y236916D01*
X655654Y236559D01*
X655620Y236514D01*
X655269Y235667D01*
X655150Y234759D01*
X655269Y233851D01*
X655620Y233004D01*
X656178Y232277D01*
X656905Y231719D01*
X657752Y231368D01*
X658660Y231249D01*
X659569Y231368D01*
X660415Y231719D01*
X661142Y232277D01*
X661700Y233004D01*
X662051Y233851D01*
X662170Y234759D01*
X662051Y235667D01*
X661700Y236514D01*
X661142Y237241D01*
X660415Y237799D01*
X660189Y237893D01*
Y246638D01*
X660651Y246830D01*
X661989Y245492D01*
X661895Y245267D01*
X661776Y244358D01*
X661895Y243449D01*
X662246Y242603D01*
X662804Y241876D01*
X663531Y241318D01*
X664377Y240967D01*
X665286Y240848D01*
X666194Y240967D01*
X667041Y241318D01*
X667768Y241876D01*
X668326Y242603D01*
X668677Y243449D01*
X668796Y244358D01*
X668677Y245267D01*
X668326Y246113D01*
X667768Y246840D01*
X667041Y247398D01*
X666194Y247749D01*
X665286Y247868D01*
X664377Y247749D01*
X664152Y247655D01*
X658905Y252902D01*
Y260908D01*
X659367Y261099D01*
X663395Y257071D01*
X663301Y256845D01*
X663182Y255937D01*
X663301Y255029D01*
X663652Y254182D01*
X664210Y253455D01*
X664937Y252897D01*
X665784Y252546D01*
X666692Y252427D01*
X667600Y252546D01*
X668447Y252897D01*
X669174Y253455D01*
X669732Y254182D01*
X670083Y255029D01*
X670202Y255937D01*
X670083Y256845D01*
X669732Y257692D01*
X669174Y258419D01*
X668447Y258977D01*
X667600Y259328D01*
X666692Y259447D01*
X665784Y259328D01*
X665558Y259234D01*
X661872Y262919D01*
X662106Y263393D01*
X662556Y263334D01*
X663464Y263453D01*
X664311Y263804D01*
X665038Y264362D01*
X665596Y265089D01*
X665947Y265935D01*
X666066Y266844D01*
X665947Y267753D01*
X665596Y268599D01*
X665038Y269326D01*
X664311Y269884D01*
X664085Y269977D01*
Y296944D01*
X663969Y297529D01*
X663637Y298025D01*
X641207Y320455D01*
X640711Y320787D01*
X640126Y320903D01*
X575445D01*
Y322933D01*
X570622D01*
Y324189D01*
X569031D01*
Y324689D01*
X568654D01*
Y327756D01*
X568490D01*
Y342145D01*
X568490Y342145D01*
X568382Y342691D01*
X568072Y343154D01*
X561718Y349509D01*
X561909Y349971D01*
X694971D01*
X694971Y156529D01*
D02*
G37*
G36*
X263846Y266910D02*
Y252268D01*
X263963Y251683D01*
X264294Y251187D01*
X265850Y249632D01*
X265566Y249208D01*
X265078Y249410D01*
X264164Y249530D01*
X263251Y249410D01*
X262399Y249057D01*
X262140Y248858D01*
X261692Y249080D01*
Y265408D01*
X263384Y267101D01*
X263846Y266910D01*
D02*
G37*
%LPC*%
G36*
X394500Y345921D02*
Y342500D01*
X397921D01*
X397851Y343032D01*
X397453Y343993D01*
X396819Y344819D01*
X395993Y345453D01*
X395032Y345851D01*
X394500Y345921D01*
D02*
G37*
G36*
X393500D02*
X392968Y345851D01*
X392007Y345453D01*
X391181Y344819D01*
X390547Y343993D01*
X390149Y343032D01*
X390079Y342500D01*
X393500D01*
Y345921D01*
D02*
G37*
G36*
X397921Y341500D02*
X394500D01*
Y338079D01*
X395032Y338149D01*
X395993Y338547D01*
X396819Y339181D01*
X397453Y340007D01*
X397851Y340968D01*
X397921Y341500D01*
D02*
G37*
G36*
X393500D02*
X390079D01*
X390149Y340968D01*
X390547Y340007D01*
X391181Y339181D01*
X392007Y338547D01*
X392968Y338149D01*
X393500Y338079D01*
Y341500D01*
D02*
G37*
G36*
X424000Y345987D02*
X422968Y345851D01*
X422007Y345453D01*
X421181Y344819D01*
X420547Y343993D01*
X420149Y343032D01*
X420013Y342000D01*
X420149Y340968D01*
X420547Y340007D01*
X421181Y339181D01*
X422007Y338547D01*
X422968Y338149D01*
X424000Y338013D01*
X425032Y338149D01*
X425993Y338547D01*
X426819Y339181D01*
X427453Y340007D01*
X427851Y340968D01*
X427987Y342000D01*
X427851Y343032D01*
X427453Y343993D01*
X426819Y344819D01*
X425993Y345453D01*
X425032Y345851D01*
X424000Y345987D01*
D02*
G37*
G36*
X404000D02*
X402968Y345851D01*
X402007Y345453D01*
X401181Y344819D01*
X400547Y343993D01*
X400149Y343032D01*
X400013Y342000D01*
X400149Y340968D01*
X400547Y340007D01*
X401181Y339181D01*
X402007Y338547D01*
X402968Y338149D01*
X404000Y338013D01*
X405032Y338149D01*
X405993Y338547D01*
X406819Y339181D01*
X407453Y340007D01*
X407851Y340968D01*
X407987Y342000D01*
X407851Y343032D01*
X407453Y343993D01*
X406819Y344819D01*
X405993Y345453D01*
X405032Y345851D01*
X404000Y345987D01*
D02*
G37*
G36*
X384000D02*
X382968Y345851D01*
X382007Y345453D01*
X381181Y344819D01*
X380547Y343993D01*
X380149Y343032D01*
X380013Y342000D01*
X380149Y340968D01*
X380547Y340007D01*
X381181Y339181D01*
X382007Y338547D01*
X382968Y338149D01*
X384000Y338013D01*
X385032Y338149D01*
X385993Y338547D01*
X386819Y339181D01*
X387453Y340007D01*
X387851Y340968D01*
X387987Y342000D01*
X387851Y343032D01*
X387453Y343993D01*
X386819Y344819D01*
X385993Y345453D01*
X385032Y345851D01*
X384000Y345987D01*
D02*
G37*
G36*
X374000D02*
X372968Y345851D01*
X372007Y345453D01*
X371181Y344819D01*
X370547Y343993D01*
X370149Y343032D01*
X370013Y342000D01*
X370149Y340968D01*
X370547Y340007D01*
X371181Y339181D01*
X372007Y338547D01*
X372968Y338149D01*
X374000Y338013D01*
X375032Y338149D01*
X375993Y338547D01*
X376819Y339181D01*
X377453Y340007D01*
X377851Y340968D01*
X377987Y342000D01*
X377851Y343032D01*
X377453Y343993D01*
X376819Y344819D01*
X375993Y345453D01*
X375032Y345851D01*
X374000Y345987D01*
D02*
G37*
G36*
X683500Y347917D02*
X681760Y347746D01*
X680088Y347238D01*
X678546Y346414D01*
X677195Y345305D01*
X676086Y343954D01*
X675262Y342412D01*
X674754Y340740D01*
X674583Y339000D01*
X674754Y337260D01*
X675262Y335588D01*
X676086Y334046D01*
X677195Y332695D01*
X678546Y331586D01*
X680088Y330762D01*
X681760Y330254D01*
X683500Y330083D01*
X685240Y330254D01*
X686912Y330762D01*
X688454Y331586D01*
X689805Y332695D01*
X690914Y334046D01*
X691738Y335588D01*
X692246Y337260D01*
X692417Y339000D01*
X692246Y340740D01*
X691738Y342412D01*
X690914Y343954D01*
X689805Y345305D01*
X688454Y346414D01*
X686912Y347238D01*
X685240Y347746D01*
X683500Y347917D01*
D02*
G37*
G36*
X126500D02*
X124760Y347746D01*
X123088Y347238D01*
X121546Y346414D01*
X120195Y345305D01*
X119086Y343954D01*
X118262Y342412D01*
X117754Y340740D01*
X117583Y339000D01*
X117754Y337260D01*
X118262Y335588D01*
X119086Y334046D01*
X120195Y332695D01*
X121546Y331586D01*
X123088Y330762D01*
X124760Y330254D01*
X126500Y330083D01*
X128240Y330254D01*
X129912Y330762D01*
X131454Y331586D01*
X132805Y332695D01*
X133914Y334046D01*
X134738Y335588D01*
X135246Y337260D01*
X135417Y339000D01*
X135246Y340740D01*
X134738Y342412D01*
X133914Y343954D01*
X132805Y345305D01*
X131454Y346414D01*
X129912Y347238D01*
X128240Y347746D01*
X126500Y347917D01*
D02*
G37*
G36*
X570622Y327756D02*
X569531D01*
Y325189D01*
X570622D01*
Y327756D01*
D02*
G37*
G36*
X643000Y267110D02*
Y264146D01*
X645964D01*
X645910Y264559D01*
X645557Y265411D01*
X644996Y266142D01*
X644265Y266703D01*
X643414Y267056D01*
X643000Y267110D01*
D02*
G37*
G36*
X251420D02*
Y264146D01*
X254384D01*
X254330Y264559D01*
X253977Y265411D01*
X253416Y266142D01*
X252685Y266703D01*
X251833Y267056D01*
X251420Y267110D01*
D02*
G37*
G36*
X449964Y263153D02*
X443036D01*
X443090Y262740D01*
X443443Y261888D01*
X444004Y261157D01*
X444735Y260596D01*
X444971Y260498D01*
Y259331D01*
X443728D01*
Y257256D01*
X449272D01*
Y259331D01*
X448029D01*
Y260498D01*
X448265Y260596D01*
X448996Y261157D01*
X449557Y261888D01*
X449910Y262740D01*
X449964Y263153D01*
D02*
G37*
G36*
X181000Y256739D02*
X180086Y256619D01*
X179235Y256266D01*
X178504Y255705D01*
X177943Y254974D01*
X177590Y254122D01*
X177470Y253209D01*
X177590Y252295D01*
X177943Y251444D01*
X178504Y250712D01*
X179235Y250151D01*
X180086Y249799D01*
X181000Y249678D01*
X181914Y249799D01*
X182765Y250151D01*
X183496Y250712D01*
X184057Y251444D01*
X184410Y252295D01*
X184530Y253209D01*
X184410Y254122D01*
X184057Y254974D01*
X183496Y255705D01*
X182765Y256266D01*
X181914Y256619D01*
X181000Y256739D01*
D02*
G37*
G36*
X449272Y256256D02*
X443728D01*
Y254319D01*
X443728Y254181D01*
Y253819D01*
X443728Y253681D01*
Y248669D01*
X444971D01*
Y247757D01*
X444735Y247659D01*
X444004Y247098D01*
X443443Y246367D01*
X443090Y245516D01*
X442970Y244602D01*
X443090Y243688D01*
X443443Y242837D01*
X444004Y242106D01*
X444735Y241545D01*
X445586Y241192D01*
X446500Y241072D01*
X447414Y241192D01*
X448265Y241545D01*
X448996Y242106D01*
X449557Y242837D01*
X449910Y243688D01*
X450030Y244602D01*
X449910Y245516D01*
X449557Y246367D01*
X448996Y247098D01*
X448265Y247659D01*
X448029Y247757D01*
Y248669D01*
X449272D01*
Y253681D01*
X449272Y253819D01*
Y254181D01*
X449272Y254319D01*
Y256256D01*
D02*
G37*
G36*
X683500Y176417D02*
X681760Y176246D01*
X680088Y175738D01*
X678546Y174914D01*
X677195Y173805D01*
X676086Y172454D01*
X675262Y170912D01*
X674754Y169240D01*
X674583Y167500D01*
X674754Y165760D01*
X675262Y164088D01*
X676086Y162546D01*
X677195Y161195D01*
X678546Y160086D01*
X680088Y159262D01*
X681760Y158754D01*
X683500Y158583D01*
X685240Y158754D01*
X686912Y159262D01*
X688454Y160086D01*
X689805Y161195D01*
X690914Y162546D01*
X691738Y164088D01*
X692246Y165760D01*
X692417Y167500D01*
X692246Y169240D01*
X691738Y170912D01*
X690914Y172454D01*
X689805Y173805D01*
X688454Y174914D01*
X686912Y175738D01*
X685240Y176246D01*
X683500Y176417D01*
D02*
G37*
G36*
X546000D02*
X544260Y176246D01*
X542588Y175738D01*
X541046Y174914D01*
X539695Y173805D01*
X538586Y172454D01*
X537762Y170912D01*
X537254Y169240D01*
X537083Y167500D01*
X537254Y165760D01*
X537762Y164088D01*
X538586Y162546D01*
X539695Y161195D01*
X541046Y160086D01*
X542588Y159262D01*
X544260Y158754D01*
X546000Y158583D01*
X547740Y158754D01*
X549412Y159262D01*
X550954Y160086D01*
X552305Y161195D01*
X553414Y162546D01*
X554238Y164088D01*
X554746Y165760D01*
X554917Y167500D01*
X554746Y169240D01*
X554238Y170912D01*
X553414Y172454D01*
X552305Y173805D01*
X550954Y174914D01*
X549412Y175738D01*
X547740Y176246D01*
X546000Y176417D01*
D02*
G37*
G36*
X262000D02*
X260260Y176246D01*
X258588Y175738D01*
X257046Y174914D01*
X255695Y173805D01*
X254586Y172454D01*
X253762Y170912D01*
X253254Y169240D01*
X253083Y167500D01*
X253254Y165760D01*
X253762Y164088D01*
X254586Y162546D01*
X255695Y161195D01*
X257046Y160086D01*
X258588Y159262D01*
X260260Y158754D01*
X262000Y158583D01*
X263740Y158754D01*
X265412Y159262D01*
X266954Y160086D01*
X268305Y161195D01*
X269414Y162546D01*
X270238Y164088D01*
X270746Y165760D01*
X270917Y167500D01*
X270746Y169240D01*
X270238Y170912D01*
X269414Y172454D01*
X268305Y173805D01*
X266954Y174914D01*
X265412Y175738D01*
X263740Y176246D01*
X262000Y176417D01*
D02*
G37*
G36*
X126500D02*
X124760Y176246D01*
X123088Y175738D01*
X121546Y174914D01*
X120195Y173805D01*
X119086Y172454D01*
X118262Y170912D01*
X117754Y169240D01*
X117583Y167500D01*
X117754Y165760D01*
X118262Y164088D01*
X119086Y162546D01*
X120195Y161195D01*
X121546Y160086D01*
X123088Y159262D01*
X124760Y158754D01*
X126500Y158583D01*
X128240Y158754D01*
X129912Y159262D01*
X131454Y160086D01*
X132805Y161195D01*
X133914Y162546D01*
X134738Y164088D01*
X135246Y165760D01*
X135417Y167500D01*
X135246Y169240D01*
X134738Y170912D01*
X133914Y172454D01*
X132805Y173805D01*
X131454Y174914D01*
X129912Y175738D01*
X128240Y176246D01*
X126500Y176417D01*
D02*
G37*
%LPD*%
D12*
X255181Y284425D02*
X256256Y285500D01*
X255181Y271663D02*
Y284425D01*
X254653Y271136D02*
X255181Y271663D01*
X562888Y275887D02*
Y282466D01*
X560488Y267948D02*
X565140Y263296D01*
X561919Y283435D02*
Y287727D01*
X559189Y290457D02*
X561919Y287727D01*
X564488Y285232D02*
X564756Y285500D01*
X564488Y270920D02*
Y285232D01*
X561919Y283435D02*
X562888Y282466D01*
X560488Y273487D02*
X562888Y275887D01*
X560488Y267948D02*
Y273487D01*
X365332Y270739D02*
Y270968D01*
X170500Y271286D02*
X172756Y273541D01*
Y285500D01*
X170500Y270203D02*
Y271286D01*
X568109Y321522D02*
X568941Y322354D01*
X565372Y322166D02*
X566017Y321522D01*
X565095Y323213D02*
X565372Y322935D01*
X568941Y324598D02*
X569031Y324689D01*
X568941Y322354D02*
Y324598D01*
X566017Y321522D02*
X568109D01*
X565372Y322166D02*
Y322935D01*
X565095Y323213D02*
Y324689D01*
X658660Y234759D02*
Y248721D01*
X655776Y251606D02*
X658660Y248721D01*
X655776Y270920D02*
X657500Y272644D01*
X655776Y251606D02*
Y270920D01*
X647500Y271000D02*
Y285244D01*
X647756Y285500D01*
X256776Y296322D02*
Y298220D01*
X258939Y289699D02*
X266805Y281833D01*
X259536Y291299D02*
X259602D01*
X256776Y296322D02*
X260198Y292899D01*
X260264D01*
X258873Y289699D02*
X258939D01*
X265376Y252268D02*
Y268990D01*
X254807Y295976D02*
X255886Y294897D01*
X255937D01*
X259536Y291299D01*
X260264Y292899D02*
X270342Y282821D01*
X265376Y252268D02*
X273286Y244358D01*
X266805Y270419D02*
Y281833D01*
X268415Y269766D02*
Y282486D01*
X270342Y267057D02*
Y282821D01*
X252839Y295682D02*
X255223Y293297D01*
X255275D01*
X258873Y289699D01*
X265376Y268990D02*
X266805Y270419D01*
X259602Y291299D02*
X268415Y282486D01*
X266976Y265361D02*
X268351Y263986D01*
X266976Y265361D02*
Y268327D01*
X268415Y262214D02*
X274692Y255937D01*
X268415Y262214D02*
Y263922D01*
X266976Y268327D02*
X268351Y269702D01*
Y263986D02*
X268415Y263922D01*
X268351Y269702D02*
X268415Y269766D01*
X252748Y298311D02*
X252839Y298220D01*
Y295682D02*
Y298220D01*
X254807Y295976D02*
Y298220D01*
X254716Y298311D02*
X254807Y298220D01*
X369256Y278598D02*
Y285500D01*
X367677Y277018D02*
X369256Y278598D01*
X367677Y273312D02*
Y277018D01*
X365332Y270968D02*
X367677Y273312D01*
X325621Y307563D02*
X357500Y275683D01*
Y244919D02*
Y275683D01*
X262000Y307563D02*
X325621D01*
X359100Y231842D02*
Y284998D01*
X334566Y309531D02*
X359100Y284998D01*
X357668Y229338D02*
Y230410D01*
X359100Y231842D01*
X451756Y281773D02*
Y285500D01*
X450080Y280097D02*
X451756Y281773D01*
X450080Y274080D02*
Y280097D01*
X446500Y270500D02*
X450080Y274080D01*
X567053Y265698D02*
X569797Y268442D01*
Y268678D02*
X574213Y273095D01*
X567053Y243174D02*
Y265698D01*
X565140Y229338D02*
Y263296D01*
X569797Y268442D02*
Y268678D01*
X559126Y250870D02*
X559500Y251244D01*
X559126Y263653D02*
X559500Y263279D01*
X559126Y244358D02*
Y250870D01*
X559500Y256756D02*
Y263279D01*
X627032Y313469D02*
X657500Y283000D01*
Y272644D02*
Y283000D01*
X659100Y271820D02*
Y289400D01*
X658976Y269433D02*
X660700Y271158D01*
X657376Y270096D02*
X659100Y271820D01*
X660700Y271158D02*
Y293800D01*
X658976Y263653D02*
X666692Y255937D01*
X657376Y252268D02*
X665286Y244358D01*
X633063Y315437D02*
X659100Y289400D01*
X637094Y317406D02*
X660700Y293800D01*
X662556Y266844D02*
Y296944D01*
X640126Y319374D02*
X662556Y296944D01*
X658976Y263653D02*
Y269433D01*
X657376Y252268D02*
Y270096D01*
X579353Y283708D02*
X579364Y283697D01*
Y266844D02*
Y283697D01*
X565185Y295315D02*
X577500Y283000D01*
X575784Y270029D02*
X577500Y271745D01*
Y283000D01*
X574184Y270692D02*
X575813Y272321D01*
X563126Y295090D02*
X575813Y282403D01*
Y272321D02*
Y282403D01*
X574213Y273095D02*
Y281081D01*
X561157Y294137D02*
X574213Y281081D01*
X561158Y294137D02*
Y298311D01*
X574184Y252268D02*
Y270692D01*
X575784Y263653D02*
Y270029D01*
X574184Y252268D02*
X582094Y244358D01*
X579353Y283708D02*
Y284122D01*
X575784Y263653D02*
X583500Y255937D01*
X636668Y229338D02*
X637426Y230096D01*
Y231830D02*
X637500Y231904D01*
X637426Y230096D02*
Y231830D01*
X637500Y231904D02*
Y258954D01*
X543148Y234759D02*
X553500Y245111D01*
Y286921D01*
X553476Y229338D02*
Y230280D01*
X555100Y231904D02*
Y286258D01*
X553476Y230280D02*
X555100Y231904D01*
X347340Y234759D02*
X357500Y244919D01*
X642500Y251244D02*
X643100Y250644D01*
Y244354D02*
Y250644D01*
X446500Y244602D02*
Y251244D01*
X363500Y244602D02*
X363744Y244358D01*
X363500Y244602D02*
Y251244D01*
X250500D02*
X250920Y250824D01*
Y244358D02*
Y250824D01*
X246920Y238750D02*
X256332Y229338D01*
X246920Y238750D02*
Y286578D01*
X167444Y251244D02*
X167864Y250824D01*
Y244358D02*
Y250824D01*
X190230Y244358D02*
Y252280D01*
X181314Y271682D02*
X215227Y305594D01*
X181314Y261196D02*
Y271682D01*
Y261196D02*
X190230Y252280D01*
X348624Y252268D02*
Y273065D01*
X369332Y229338D02*
Y276411D01*
X371245Y243174D02*
Y276061D01*
Y243174D02*
X379660Y234759D01*
X371245Y276061D02*
X374825Y279641D01*
X386286Y244358D02*
Y252280D01*
X378376Y260190D02*
X386286Y252280D01*
X378376Y260190D02*
Y269539D01*
X423714Y244358D02*
X431000Y251644D01*
Y261196D02*
X431624Y261820D01*
X431000Y251644D02*
Y261196D01*
X431624Y261820D02*
Y271372D01*
X439000Y243419D02*
Y287684D01*
X430340Y234759D02*
X439000Y243419D01*
X440668Y229338D02*
Y287089D01*
X465079Y311500D01*
X439000Y287684D02*
X464785Y313469D01*
X463000Y250644D02*
X469286Y244358D01*
X463000Y250644D02*
Y252157D01*
X461060Y254097D02*
X463000Y252157D01*
X461060Y254097D02*
Y269560D01*
X454245Y243174D02*
Y279736D01*
Y243174D02*
X462660Y234759D01*
X454245Y279736D02*
X482071Y307563D01*
X452332Y229338D02*
Y280086D01*
X481777Y309531D01*
X553500Y286921D02*
X555252Y288673D01*
X555100Y286258D02*
X557221Y288379D01*
X544432Y252268D02*
Y268990D01*
X536522Y244358D02*
X544432Y252268D01*
X567053Y243174D02*
X575468Y234759D01*
X638500Y260216D02*
Y281263D01*
X639100Y238570D02*
X648332Y229338D01*
X638500Y260216D02*
X639100Y259616D01*
X636668Y259786D02*
Y280832D01*
X639100Y238570D02*
Y259616D01*
X636668Y259786D02*
X637500Y258954D01*
X608263Y311500D02*
X638500Y281263D01*
X627595Y273095D02*
X629224Y271465D01*
Y251508D02*
Y271465D01*
X626340Y248624D02*
X629224Y251508D01*
X619714Y244358D02*
X627624Y252268D01*
Y270803D01*
X625995Y272432D02*
X627624Y270803D01*
X642500Y256756D02*
Y263646D01*
X607969Y309531D02*
X636668Y280832D01*
X642500Y256756D02*
X642500Y256756D01*
X446500D02*
Y263653D01*
X363500Y256756D02*
X363500Y256756D01*
X363500Y256756D02*
Y263646D01*
X250500Y256756D02*
X250920Y257176D01*
Y263646D01*
X167444Y256756D02*
X167864Y257176D01*
Y263646D01*
X342133Y256695D02*
X347024Y261586D01*
X339308Y255937D02*
X340066Y256695D01*
X342133D01*
X431595Y271402D02*
X431624Y271372D01*
X429995Y283204D02*
X464197Y317406D01*
X431595Y282541D02*
X464491Y315437D01*
X430024Y263653D02*
Y270710D01*
X422308Y255937D02*
X430024Y263653D01*
X626340Y234759D02*
Y248624D01*
X182914Y264659D02*
X191636Y255937D01*
X182914Y264659D02*
Y270618D01*
X215923Y303626D01*
X234340Y234759D02*
X243720Y244139D01*
X246920Y286578D02*
X248811Y288469D01*
X243720Y244139D02*
Y287903D01*
X245320Y229990D02*
Y287241D01*
X244668Y229338D02*
X245320Y229990D01*
X243720Y287903D02*
X244874Y289057D01*
X245320Y287241D02*
X246843Y288763D01*
X226308Y255937D02*
X234024Y263653D01*
X235624Y252268D02*
Y270836D01*
X233995Y286837D02*
X240937Y293779D01*
X233995Y270203D02*
X234024Y270174D01*
X227714Y244358D02*
X235624Y252268D01*
X235595Y285471D02*
X242905Y292781D01*
X235595Y270866D02*
X235624Y270836D01*
X234024Y263653D02*
Y270174D01*
X235595Y270866D02*
Y285471D01*
X233995Y270203D02*
Y286837D01*
X426444Y281916D02*
X463902Y319374D01*
X431595Y271402D02*
Y282541D01*
X464491Y315437D02*
X546000D01*
X429995Y270739D02*
Y283204D01*
X426444Y266844D02*
Y281916D01*
X465079Y311500D02*
X546000D01*
X464785Y313469D02*
X546000D01*
X463902Y319374D02*
X546000D01*
X464197Y317406D02*
X546000D01*
X262000Y301658D02*
X308630D01*
X343444Y266844D01*
X347024Y261586D02*
Y272403D01*
X325326Y305594D02*
X348595Y282326D01*
X325032Y303626D02*
X346995Y281663D01*
X348595Y273095D02*
Y282326D01*
X346995Y272432D02*
Y281663D01*
Y272432D02*
X347024Y272403D01*
X348595Y273095D02*
X348624Y273065D01*
X340714Y244358D02*
X348624Y252268D01*
X262000Y305594D02*
X325326D01*
X262000Y303626D02*
X325032D01*
X262000Y309531D02*
X334566D01*
X372500Y279579D02*
Y294175D01*
X369332Y276411D02*
X372500Y279579D01*
X374825Y279641D02*
Y294175D01*
X262000Y311500D02*
X355175D01*
X372500Y294175D01*
X383000Y267400D02*
Y292788D01*
X355826Y315437D02*
X378405Y292858D01*
X262000Y313469D02*
X355532D01*
X262000Y315437D02*
X355826D01*
X262000Y317406D02*
X356120D01*
X356414Y319374D02*
X383000Y292788D01*
X356120Y317406D02*
X380500Y293025D01*
X262000Y319374D02*
X356414D01*
X355532Y313469D02*
X374825Y294175D01*
X380500Y269401D02*
Y293025D01*
X378405Y269569D02*
Y292858D01*
X379976Y263653D02*
Y268877D01*
X380500Y269401D01*
X378376Y269539D02*
X378405Y269569D01*
X379976Y263653D02*
X387692Y255937D01*
X383000Y267400D02*
X383556Y266844D01*
X270342Y267057D02*
X270556Y266844D01*
X256685Y298311D02*
X256776Y298220D01*
X248811Y288469D02*
Y298311D01*
X246843Y288763D02*
Y298311D01*
X244874Y289057D02*
Y298311D01*
X242905Y292781D02*
Y298311D01*
X240937Y293779D02*
Y298311D01*
X238968Y296835D02*
Y298311D01*
X230444Y288310D02*
X238968Y296835D01*
X230444Y266844D02*
Y288310D01*
X222313Y301658D02*
X235622D01*
X187500Y266844D02*
X222313Y301658D01*
X215923Y303626D02*
X235622D01*
X215227Y305594D02*
X235622D01*
X174500Y243863D02*
X183604Y234759D01*
X174500Y243863D02*
Y277500D01*
X204563Y307563D02*
X235622D01*
X174500Y277500D02*
X204563Y307563D01*
X163864Y238750D02*
X173276Y229338D01*
X163864Y238750D02*
Y292338D01*
X159000Y292000D02*
X180468Y313469D01*
X151284Y234759D02*
X159699Y243174D01*
X159000Y276760D02*
Y292000D01*
X161612Y229338D02*
Y292349D01*
X159000Y276760D02*
X159699Y276061D01*
X161612Y292349D02*
X180763Y311500D01*
X181057Y309531D02*
X235622D01*
X163864Y292338D02*
X181057Y309531D01*
X159699Y243174D02*
Y276061D01*
X180468Y313469D02*
X235622D01*
X180763Y311500D02*
X235622D01*
X144658Y244358D02*
X152568Y252268D01*
Y270836D01*
X150939Y270203D02*
Y288464D01*
X152539Y287802D02*
X180174Y315437D01*
X179586Y319374D02*
X235622D01*
X180174Y315437D02*
X235622D01*
X150939Y288464D02*
X179880Y317406D01*
X147388Y266844D02*
Y287176D01*
X152539Y270866D02*
Y287802D01*
X147388Y287176D02*
X179586Y319374D01*
X179880Y317406D02*
X235622D01*
X152539Y270866D02*
X152568Y270836D01*
X143252Y255937D02*
X150968Y263653D01*
Y270174D01*
X150939Y270203D02*
X150968Y270174D01*
X501369Y301658D02*
X546000D01*
X466556Y266844D02*
X501369Y301658D01*
X470376Y255937D02*
X470692D01*
X462660Y263653D02*
X470376Y255937D01*
X462660Y263653D02*
Y268897D01*
X497094Y305594D02*
X546000D01*
X461060Y269560D02*
X497094Y305594D01*
X462660Y268897D02*
X497389Y303626D01*
X546000D01*
X481777Y309531D02*
X546000D01*
X482071Y307563D02*
X546000D01*
X429995Y270739D02*
X430024Y270710D01*
X539252Y266844D02*
Y280614D01*
X549346Y290708D02*
Y298311D01*
X539252Y280614D02*
X549346Y290708D01*
X542803Y268356D02*
Y280749D01*
X551315Y289261D01*
X544403Y280086D02*
X553284Y288967D01*
X542832Y263653D02*
Y268327D01*
X535116Y255937D02*
X542832Y263653D01*
X542803Y268356D02*
X542832Y268327D01*
X544403Y269019D02*
X544432Y268990D01*
X544403Y269019D02*
Y280086D01*
X551315Y289261D02*
Y298311D01*
X553284Y288967D02*
Y298311D01*
X555252Y288673D02*
Y298311D01*
X557221Y288379D02*
Y298311D01*
X559189Y290457D02*
Y298311D01*
X563126Y295090D02*
Y298311D01*
X567154Y296322D02*
X579353Y284122D01*
X565095Y298311D02*
X565185Y298220D01*
Y295315D02*
Y298220D01*
X567063Y298311D02*
X567154Y298220D01*
Y296322D02*
Y298220D01*
X572378Y301658D02*
X603342D01*
X622444Y282556D01*
Y266844D02*
Y282556D01*
X624300Y271795D02*
X626024Y270071D01*
Y263653D02*
Y270071D01*
X618308Y255937D02*
X626024Y263653D01*
X627595Y273095D02*
Y286405D01*
X624300Y271795D02*
Y283500D01*
X606437Y307563D02*
X627595Y286405D01*
X605905Y305594D02*
X625995Y285505D01*
Y272432D02*
Y285505D01*
X572378Y303626D02*
X604174D01*
X624300Y283500D01*
X572378Y305594D02*
X605905D01*
X572378Y307563D02*
X606437D01*
X572378Y309531D02*
X607969D01*
X572378Y311500D02*
X608263D01*
X572378Y313469D02*
X627032D01*
X572378Y315437D02*
X633063D01*
X572378Y317406D02*
X637094D01*
X572378Y319374D02*
X640126D01*
X642244Y285500D02*
X642500Y285244D01*
Y277370D02*
Y285244D01*
X559244Y285500D02*
X559308Y285436D01*
Y277370D02*
Y285436D01*
X446244Y285500D02*
X446500Y285244D01*
Y277370D02*
Y285244D01*
X363500Y285256D02*
X363744Y285500D01*
X363500Y277370D02*
Y285256D01*
X250500D02*
X250744Y285500D01*
X250500Y277370D02*
Y285256D01*
X167244Y285500D02*
X167444Y285300D01*
Y277370D02*
Y285300D01*
D19*
X414000Y342000D02*
D03*
X424000D02*
D03*
X404000D02*
D03*
X394000D02*
D03*
X384000D02*
D03*
X374000D02*
D03*
D20*
X434000D02*
D03*
D21*
X631175Y274578D02*
D03*
X653825D02*
D03*
X642500Y277370D02*
D03*
X618308Y255937D02*
D03*
X619714Y244358D02*
D03*
X626340Y234759D02*
D03*
X636668Y229338D02*
D03*
X648332D02*
D03*
X658660Y234759D02*
D03*
X665286Y244358D02*
D03*
X666692Y255937D02*
D03*
X662556Y266844D02*
D03*
X622444D02*
D03*
X539252D02*
D03*
X579364D02*
D03*
X583500Y255937D02*
D03*
X582094Y244358D02*
D03*
X575468Y234759D02*
D03*
X565140Y229338D02*
D03*
X553476D02*
D03*
X543148Y234759D02*
D03*
X536522Y244358D02*
D03*
X535116Y255937D02*
D03*
X559308Y277370D02*
D03*
X570633Y274578D02*
D03*
X547983D02*
D03*
X435175D02*
D03*
X457825D02*
D03*
X446500Y277370D02*
D03*
X422308Y255937D02*
D03*
X423714Y244358D02*
D03*
X430340Y234759D02*
D03*
X440668Y229338D02*
D03*
X452332D02*
D03*
X462660Y234759D02*
D03*
X469286Y244358D02*
D03*
X470692Y255937D02*
D03*
X466556Y266844D02*
D03*
X426444D02*
D03*
X343444D02*
D03*
X383556D02*
D03*
X387692Y255937D02*
D03*
X386286Y244358D02*
D03*
X379660Y234759D02*
D03*
X369332Y229338D02*
D03*
X357668D02*
D03*
X347340Y234759D02*
D03*
X340714Y244358D02*
D03*
X339308Y255937D02*
D03*
X363500Y277370D02*
D03*
X374825Y274578D02*
D03*
X352175D02*
D03*
X239175D02*
D03*
X261825D02*
D03*
X250500Y277370D02*
D03*
X226308Y255937D02*
D03*
X227714Y244358D02*
D03*
X234340Y234759D02*
D03*
X244668Y229338D02*
D03*
X256332D02*
D03*
X266660Y234759D02*
D03*
X273286Y244358D02*
D03*
X274692Y255937D02*
D03*
X270556Y266844D02*
D03*
X230444D02*
D03*
X147388D02*
D03*
X187500D02*
D03*
X191636Y255937D02*
D03*
X190230Y244358D02*
D03*
X183604Y234759D02*
D03*
X173276Y229338D02*
D03*
X161612D02*
D03*
X151284Y234759D02*
D03*
X144658Y244358D02*
D03*
X143252Y255937D02*
D03*
X167444Y277370D02*
D03*
X178769Y274578D02*
D03*
X156119D02*
D03*
D22*
X633224Y255937D02*
D03*
X254653Y271136D02*
D03*
X564488Y270920D02*
D03*
X365332Y270739D02*
D03*
X170500Y270203D02*
D03*
X652916Y239500D02*
D03*
X647500Y271000D02*
D03*
X264164Y246000D02*
D03*
X446500Y270500D02*
D03*
X559126Y244358D02*
D03*
Y263653D02*
D03*
X643100Y244354D02*
D03*
X446500Y244602D02*
D03*
X363744Y244358D02*
D03*
X250920D02*
D03*
X167864D02*
D03*
X181000Y253209D02*
D03*
X239720Y256500D02*
D03*
X353500Y256000D02*
D03*
X375245Y252000D02*
D03*
X435000Y255937D02*
D03*
X459000Y250500D02*
D03*
X549500Y255937D02*
D03*
X572500Y244358D02*
D03*
X642500Y263646D02*
D03*
X446500Y263653D02*
D03*
X363500Y263646D02*
D03*
X250920D02*
D03*
X167864D02*
D03*
D23*
X683500Y339000D02*
D03*
X126500D02*
D03*
Y167500D02*
D03*
X683500D02*
D03*
X546000Y339000D02*
D03*
X262000D02*
D03*
Y167500D02*
D03*
X546000D02*
D03*
D24*
X569031Y298311D02*
D03*
X258653D02*
D03*
D25*
X567063D02*
D03*
X565095D02*
D03*
X563126D02*
D03*
X561158D02*
D03*
X559189D02*
D03*
X557221D02*
D03*
X555252D02*
D03*
X553284D02*
D03*
X551315D02*
D03*
X549346D02*
D03*
Y324689D02*
D03*
X551315D02*
D03*
X553284D02*
D03*
X555252D02*
D03*
X557221D02*
D03*
X559189D02*
D03*
X561158D02*
D03*
X563126D02*
D03*
X565095D02*
D03*
X567063D02*
D03*
X569031D02*
D03*
X256685Y298311D02*
D03*
X254716D02*
D03*
X252748D02*
D03*
X250780D02*
D03*
X248811D02*
D03*
X246843D02*
D03*
X244874D02*
D03*
X242905D02*
D03*
X240937D02*
D03*
X238968D02*
D03*
Y324689D02*
D03*
X240937D02*
D03*
X242905D02*
D03*
X244874D02*
D03*
X246843D02*
D03*
X248811D02*
D03*
X250780D02*
D03*
X252748D02*
D03*
X254716D02*
D03*
X256685D02*
D03*
X258653D02*
D03*
D26*
X546000Y301658D02*
D03*
Y303626D02*
D03*
Y305594D02*
D03*
Y307563D02*
D03*
Y309531D02*
D03*
Y311500D02*
D03*
Y313469D02*
D03*
Y315437D02*
D03*
Y317406D02*
D03*
Y319374D02*
D03*
Y321342D02*
D03*
X572378D02*
D03*
Y319374D02*
D03*
Y317406D02*
D03*
Y315437D02*
D03*
Y313469D02*
D03*
Y311500D02*
D03*
Y309531D02*
D03*
Y307563D02*
D03*
Y305594D02*
D03*
Y303626D02*
D03*
Y301658D02*
D03*
X235622D02*
D03*
Y303626D02*
D03*
Y305594D02*
D03*
Y307563D02*
D03*
Y309531D02*
D03*
Y311500D02*
D03*
Y313469D02*
D03*
Y315437D02*
D03*
Y317406D02*
D03*
Y319374D02*
D03*
Y321342D02*
D03*
X262000D02*
D03*
Y319374D02*
D03*
Y317406D02*
D03*
Y315437D02*
D03*
Y313469D02*
D03*
Y311500D02*
D03*
Y309531D02*
D03*
Y307563D02*
D03*
Y305594D02*
D03*
Y303626D02*
D03*
Y301658D02*
D03*
D27*
X250500Y251244D02*
D03*
Y256756D02*
D03*
X446500Y251244D02*
D03*
Y256756D02*
D03*
X167444Y251244D02*
D03*
Y256756D02*
D03*
X363500Y251244D02*
D03*
Y256756D02*
D03*
X559500Y251244D02*
D03*
Y256756D02*
D03*
X642500Y251244D02*
D03*
Y256756D02*
D03*
D28*
X167244Y285500D02*
D03*
X172756D02*
D03*
X250744D02*
D03*
X256256D02*
D03*
X363744D02*
D03*
X369256D02*
D03*
X446244D02*
D03*
X451756D02*
D03*
X559244D02*
D03*
X564756D02*
D03*
X642244D02*
D03*
X647756D02*
D03*
D29*
X260264Y241155D02*
X266660Y234759D01*
X265251Y270986D02*
Y272096D01*
X260264Y266000D02*
X265251Y270986D01*
X260264Y241155D02*
Y266000D01*
X265251Y272096D02*
X265305Y272150D01*
X254653Y291797D02*
X258252Y288199D01*
X258318D01*
X265305Y281211D01*
Y272150D02*
Y281211D01*
X250780Y298311D02*
X250970Y298120D01*
Y295429D02*
Y298120D01*
Y295429D02*
X254602Y291797D01*
X254653D01*
X560967Y324880D02*
X561158Y324689D01*
X560967Y324880D02*
Y327288D01*
X549255Y339000D02*
X560967Y327288D01*
X546000Y339000D02*
X549255D01*
X250780Y324689D02*
Y327780D01*
X262000Y339000D01*
X419756Y327756D02*
X434000Y342000D01*
X257649Y327756D02*
X419756D01*
X256876Y326983D02*
X257649Y327756D01*
X539265Y329356D02*
X556919D01*
X520121Y348500D02*
X539265Y329356D01*
X420500Y348500D02*
X520121D01*
X556919Y329356D02*
X558998Y327277D01*
Y324880D02*
Y327277D01*
X414000Y342000D02*
X420500Y348500D01*
X558998Y324880D02*
X559189Y324689D01*
X407500Y348500D02*
X414000Y342000D01*
X258385Y348500D02*
X407500D01*
X248811Y324689D02*
Y338927D01*
X258385Y348500D01*
X256685Y324689D02*
X256876Y324880D01*
Y326983D01*
X249242Y349900D02*
X559308D01*
X238968Y339626D02*
X249242Y349900D01*
X559308D02*
X567063Y342145D01*
Y324689D02*
Y342145D01*
X238968Y324689D02*
Y339626D01*
M02*
