G04*
G04 #@! TF.GenerationSoftware,Altium Limited,Altium Designer,20.1.12 (249)*
G04*
G04 Layer_Color=8388736*
%FSLAX25Y25*%
%MOIN*%
G70*
G04*
G04 #@! TF.SameCoordinates,74AEBE94-157A-41FA-B5F8-CCC6D1A26549*
G04*
G04*
G04 #@! TF.FilePolarity,Negative*
G04*
G01*
G75*
%ADD15O,0.01981X0.04934*%
%ADD16R,0.01981X0.04934*%
%ADD17R,0.04934X0.01981*%
%ADD18R,0.06706X0.06312*%
%ADD19R,0.22060X0.10800*%
%ADD20R,0.10249X0.04737*%
%ADD21R,0.10249X0.13792*%
%ADD22O,0.03162X0.09461*%
%ADD23R,0.06312X0.06706*%
%ADD24O,0.06800X0.03200*%
%ADD25R,0.06800X0.03200*%
%ADD26R,0.05524X0.06312*%
%ADD27R,0.06100X0.08500*%
%ADD28R,0.05900X0.15000*%
%ADD29R,0.03950X0.14186*%
%ADD30R,0.42532X0.34658*%
%ADD31R,0.04737X0.09068*%
%ADD32R,0.03162X0.06509*%
%ADD33R,0.06312X0.05524*%
%ADD34R,0.14200X0.10200*%
%ADD35R,0.01981X0.04147*%
%ADD36R,0.04147X0.01981*%
%ADD37O,0.04147X0.01981*%
%ADD38R,0.11036X0.11036*%
G04:AMPARAMS|DCode=39|XSize=158mil|YSize=86.74mil|CornerRadius=23.68mil|HoleSize=0mil|Usage=FLASHONLY|Rotation=0.000|XOffset=0mil|YOffset=0mil|HoleType=Round|Shape=RoundedRectangle|*
%AMROUNDEDRECTD39*
21,1,0.15800,0.03937,0,0,0.0*
21,1,0.11063,0.08674,0,0,0.0*
1,1,0.04737,0.05531,-0.01968*
1,1,0.04737,-0.05531,-0.01968*
1,1,0.04737,-0.05531,0.01968*
1,1,0.04737,0.05531,0.01968*
%
%ADD39ROUNDEDRECTD39*%
%ADD40C,0.06312*%
%ADD41C,0.07700*%
%ADD42C,0.06706*%
%ADD43R,0.06706X0.06706*%
%ADD44R,0.06706X0.06706*%
%ADD45C,0.07887*%
%ADD46C,0.04300*%
%ADD47C,0.16548*%
D15*
X425153Y458095D02*
D03*
D16*
X423185D02*
D03*
X421216D02*
D03*
X419248D02*
D03*
X417279D02*
D03*
X415311D02*
D03*
X413343D02*
D03*
X411374D02*
D03*
X409406D02*
D03*
X407437D02*
D03*
X405469D02*
D03*
Y431716D02*
D03*
X407437D02*
D03*
X409406D02*
D03*
X411374D02*
D03*
X413343D02*
D03*
X415311D02*
D03*
X417280D02*
D03*
X419248Y431716D02*
D03*
X421216D02*
D03*
X423185D02*
D03*
X425153D02*
D03*
D17*
X402122Y454748D02*
D03*
Y452779D02*
D03*
Y450811D02*
D03*
Y448842D02*
D03*
Y446874D02*
D03*
Y444906D02*
D03*
Y442937D02*
D03*
Y440969D02*
D03*
Y439000D02*
D03*
Y437032D02*
D03*
Y435063D02*
D03*
X428500D02*
D03*
Y437032D02*
D03*
Y439000D02*
D03*
Y440969D02*
D03*
Y442937D02*
D03*
Y444906D02*
D03*
Y446874D02*
D03*
Y448842D02*
D03*
Y450811D02*
D03*
Y452779D02*
D03*
Y454748D02*
D03*
D18*
X262000Y457937D02*
D03*
Y450063D02*
D03*
X251000Y457937D02*
D03*
Y450063D02*
D03*
X517937Y371137D02*
D03*
Y363263D02*
D03*
X351500Y428063D02*
D03*
Y435937D02*
D03*
X340500Y428063D02*
D03*
Y435937D02*
D03*
X329500Y428063D02*
D03*
Y435937D02*
D03*
X318500Y428063D02*
D03*
Y435937D02*
D03*
X534500Y456563D02*
D03*
Y464437D02*
D03*
D19*
X276500Y377803D02*
D03*
Y428197D02*
D03*
D20*
X521417Y456445D02*
D03*
Y465500D02*
D03*
Y474555D02*
D03*
D21*
X498583Y465500D02*
D03*
D22*
X527000Y355051D02*
D03*
X532000D02*
D03*
X537000D02*
D03*
X542000D02*
D03*
X527000Y373949D02*
D03*
X532000D02*
D03*
X537000D02*
D03*
X542000D02*
D03*
D23*
X527063Y385500D02*
D03*
X534937D02*
D03*
X507063Y486000D02*
D03*
X514937D02*
D03*
D24*
X286000Y344500D02*
D03*
Y339500D02*
D03*
Y334500D02*
D03*
Y329500D02*
D03*
X307500Y344500D02*
D03*
Y339500D02*
D03*
Y334500D02*
D03*
D25*
Y329500D02*
D03*
D26*
X324043Y345500D02*
D03*
X316957D02*
D03*
X324043Y328500D02*
D03*
X316957D02*
D03*
X307543Y354000D02*
D03*
X300457D02*
D03*
X324043Y337000D02*
D03*
X316957D02*
D03*
X316543Y319500D02*
D03*
X309457D02*
D03*
X316543Y311000D02*
D03*
X309457D02*
D03*
D27*
X356500Y364300D02*
D03*
Y378700D02*
D03*
D28*
X358000Y343750D02*
D03*
Y310250D02*
D03*
D29*
X266500Y329976D02*
D03*
Y352024D02*
D03*
D30*
X326500Y403279D02*
D03*
D31*
X336500Y362925D02*
D03*
X316500D02*
D03*
D32*
X320760Y447874D02*
D03*
X328240D02*
D03*
X324500Y457126D02*
D03*
X342760Y447874D02*
D03*
X350240D02*
D03*
X346500Y457126D02*
D03*
D33*
X292500Y360543D02*
D03*
Y353457D02*
D03*
X448500Y403457D02*
D03*
Y410543D02*
D03*
X483500Y428043D02*
D03*
Y420957D02*
D03*
D34*
X485100Y361500D02*
D03*
X422900D02*
D03*
D35*
X462558Y421894D02*
D03*
X464527D02*
D03*
X466495D02*
D03*
X468464D02*
D03*
X470432D02*
D03*
X472401D02*
D03*
Y406145D02*
D03*
X470432D02*
D03*
X468464D02*
D03*
X466495D02*
D03*
X464527D02*
D03*
X462558D02*
D03*
D36*
X475354Y418941D02*
D03*
Y416972D02*
D03*
Y415004D02*
D03*
Y413035D02*
D03*
Y411067D02*
D03*
Y409098D02*
D03*
X459606D02*
D03*
Y411067D02*
D03*
Y413035D02*
D03*
Y415004D02*
D03*
Y416972D02*
D03*
D37*
Y418941D02*
D03*
D38*
X467500Y414000D02*
D03*
D39*
X287500Y463500D02*
D03*
Y439878D02*
D03*
D40*
X492000Y306500D02*
D03*
X509913D02*
D03*
X445772D02*
D03*
X463685D02*
D03*
X399543D02*
D03*
X417457D02*
D03*
D41*
X468750Y361500D02*
D03*
X439250D02*
D03*
D42*
X494000Y440500D02*
D03*
Y430500D02*
D03*
Y420500D02*
D03*
Y410500D02*
D03*
X313500Y474500D02*
D03*
Y484500D02*
D03*
X323500Y474500D02*
D03*
Y484500D02*
D03*
X333500Y474500D02*
D03*
Y484500D02*
D03*
X343500Y474500D02*
D03*
Y484500D02*
D03*
X353500Y474500D02*
D03*
Y484500D02*
D03*
X363500Y474500D02*
D03*
Y484500D02*
D03*
X373500Y474500D02*
D03*
Y484500D02*
D03*
X383500Y474500D02*
D03*
Y484500D02*
D03*
X393500Y474500D02*
D03*
Y484500D02*
D03*
X403500Y474500D02*
D03*
Y484500D02*
D03*
X413500Y474500D02*
D03*
Y484500D02*
D03*
X423500Y474500D02*
D03*
Y484500D02*
D03*
X433500Y474500D02*
D03*
Y484500D02*
D03*
X443500Y474500D02*
D03*
Y484500D02*
D03*
X453500Y474500D02*
D03*
Y484500D02*
D03*
X463500Y474500D02*
D03*
Y484500D02*
D03*
X473500Y474500D02*
D03*
Y484500D02*
D03*
X483500Y474500D02*
D03*
D43*
X494000Y400500D02*
D03*
D44*
X483500Y484500D02*
D03*
D45*
X487177Y316342D02*
D03*
X514736D02*
D03*
X440949D02*
D03*
X468508D02*
D03*
X394721D02*
D03*
X422280D02*
D03*
D46*
X467500Y414000D02*
D03*
D47*
X540500Y481500D02*
D03*
X256500Y309500D02*
D03*
X540500D02*
D03*
X256500Y481500D02*
D03*
M02*
