G04*
G04 #@! TF.GenerationSoftware,Altium Limited,Altium Designer,18.1.11 (251)*
G04*
G04 Layer_Physical_Order=2*
G04 Layer_Color=16711680*
%FSLAX25Y25*%
%MOIN*%
G70*
G01*
G75*
%ADD45R,0.03543X0.03150*%
%ADD47R,0.05512X0.05906*%
%ADD64R,0.05906X0.05512*%
%ADD71C,0.01200*%
%ADD74C,0.05906*%
%ADD75R,0.05906X0.05906*%
G04:AMPARAMS|DCode=76|XSize=150mil|YSize=78.74mil|CornerRadius=19.68mil|HoleSize=0mil|Usage=FLASHONLY|Rotation=0.000|XOffset=0mil|YOffset=0mil|HoleType=Round|Shape=RoundedRectangle|*
%AMROUNDEDRECTD76*
21,1,0.15000,0.03937,0,0,0.0*
21,1,0.11063,0.07874,0,0,0.0*
1,1,0.03937,0.05531,-0.01968*
1,1,0.03937,-0.05531,-0.01968*
1,1,0.03937,-0.05531,0.01968*
1,1,0.03937,0.05531,0.01968*
%
%ADD76ROUNDEDRECTD76*%
%ADD77C,0.05000*%
%ADD78C,0.15748*%
%ADD79C,0.02800*%
%ADD80O,0.01378X0.05906*%
%ADD81R,0.04724X0.05118*%
%ADD82R,0.03543X0.05906*%
%ADD83R,0.03000X0.10000*%
%ADD84O,0.03000X0.10000*%
G36*
X552379Y297621D02*
X244621D01*
Y493378D01*
X328941D01*
X329148Y492878D01*
X324254Y487984D01*
X323500Y488083D01*
X322573Y487961D01*
X321708Y487603D01*
X320966Y487034D01*
X320397Y486292D01*
X320039Y485428D01*
X319917Y484500D01*
X320039Y483572D01*
X320397Y482708D01*
X320966Y481966D01*
X321708Y481397D01*
X322573Y481039D01*
X323500Y480917D01*
X324427Y481039D01*
X325292Y481397D01*
X326034Y481966D01*
X326603Y482708D01*
X326961Y483572D01*
X327083Y484500D01*
X326961Y485428D01*
X326603Y486292D01*
X326351Y486621D01*
X331007Y491277D01*
X486993D01*
X497974Y480296D01*
Y472589D01*
X498067Y472120D01*
X498332Y471724D01*
X500124Y469932D01*
X499889Y469363D01*
X499767Y468436D01*
X499889Y467508D01*
X500247Y466644D01*
X500536Y466267D01*
X495635Y461365D01*
X495370Y460968D01*
X495276Y460500D01*
Y424497D01*
X494776Y424398D01*
X494708Y424563D01*
X494211Y425211D01*
X493563Y425708D01*
X492809Y426020D01*
X492000Y426127D01*
X491191Y426020D01*
X490437Y425708D01*
X489789Y425211D01*
X489292Y424563D01*
X489234Y424424D01*
X479645D01*
X479176Y424330D01*
X478779Y424065D01*
X457649Y402935D01*
X457309Y403076D01*
X456500Y403182D01*
X455691Y403076D01*
X454937Y402763D01*
X454289Y402266D01*
X453792Y401619D01*
X453480Y400865D01*
X453373Y400055D01*
X453480Y399246D01*
X453792Y398492D01*
X454289Y397845D01*
X454937Y397348D01*
X455691Y397035D01*
X456500Y396929D01*
X457309Y397035D01*
X458063Y397348D01*
X458711Y397845D01*
X459208Y398492D01*
X459520Y399246D01*
X459627Y400055D01*
X459520Y400865D01*
X459379Y401204D01*
X480151Y421977D01*
X489069D01*
X489292Y421437D01*
X489789Y420789D01*
X490437Y420292D01*
X491191Y419980D01*
X492000Y419873D01*
X492809Y419980D01*
X493563Y420292D01*
X494211Y420789D01*
X494708Y421437D01*
X494776Y421602D01*
X495276Y421503D01*
Y403838D01*
X495370Y403369D01*
X495635Y402972D01*
X504521Y394086D01*
X504521Y394086D01*
X511540Y387068D01*
X511936Y386803D01*
X512234Y386743D01*
Y384725D01*
X507880D01*
X507412Y384632D01*
X507015Y384367D01*
X505616Y382968D01*
X505166Y383150D01*
Y389407D01*
X499242D01*
Y387078D01*
X424304D01*
X408058Y403323D01*
Y407911D01*
X407468D01*
Y408698D01*
X402724D01*
Y407911D01*
X402134D01*
Y401593D01*
X406328D01*
X420453Y387468D01*
X420246Y386968D01*
X414872D01*
Y387919D01*
X410128D01*
Y386968D01*
X408058D01*
Y389407D01*
X402134D01*
Y386968D01*
X400244D01*
X399776Y386875D01*
X399379Y386609D01*
X395695Y382925D01*
X395498D01*
X395066Y383089D01*
Y389407D01*
X389142D01*
Y384725D01*
X346197D01*
Y423803D01*
X295803Y423697D01*
Y408698D01*
X292624D01*
Y407911D01*
X292034D01*
Y401593D01*
X295803D01*
Y392479D01*
X293386D01*
X292917Y392386D01*
X292520Y392121D01*
X287635Y387235D01*
X287370Y386839D01*
X287277Y386370D01*
Y369500D01*
X287370Y369032D01*
X287635Y368635D01*
X288032Y368370D01*
X288500Y368277D01*
X288968Y368370D01*
X289365Y368635D01*
X289630Y369032D01*
X289723Y369500D01*
Y385863D01*
X291572Y387712D01*
X292034Y387521D01*
Y383089D01*
X292624D01*
Y382302D01*
X295803D01*
Y373303D01*
X346197D01*
Y380478D01*
X396202D01*
X396670Y380571D01*
X397067Y380836D01*
X400751Y384521D01*
X402134D01*
Y383089D01*
X402724D01*
Y382302D01*
X407468D01*
Y383089D01*
X408058D01*
Y384521D01*
X410128D01*
Y383569D01*
X414872D01*
Y384521D01*
X419970D01*
X423654Y380836D01*
X424051Y380571D01*
X424519Y380478D01*
X506080D01*
X506548Y380571D01*
X506945Y380836D01*
X508387Y382278D01*
X514024D01*
X514143Y382302D01*
X517568D01*
Y383089D01*
X518158D01*
Y385021D01*
X519628D01*
Y384069D01*
X524372D01*
Y386885D01*
X524763Y387277D01*
X531116D01*
X531584Y387370D01*
X531981Y387635D01*
X536886Y392540D01*
X537588D01*
X538056Y392633D01*
X538092Y392656D01*
X538385Y392459D01*
X538496Y392325D01*
X538406Y391874D01*
Y387347D01*
X538439Y387181D01*
X538059Y386681D01*
X529203D01*
X528735Y386588D01*
X528338Y386323D01*
X527635Y385620D01*
X527370Y385223D01*
X527277Y384754D01*
Y368552D01*
X499649Y340924D01*
X499309Y341065D01*
X498500Y341172D01*
X497691Y341065D01*
X496937Y340753D01*
X496289Y340256D01*
X495792Y339608D01*
X495480Y338854D01*
X495373Y338045D01*
X495480Y337236D01*
X495792Y336481D01*
X496289Y335834D01*
X496937Y335337D01*
X497691Y335025D01*
X498500Y334918D01*
X499309Y335025D01*
X500063Y335337D01*
X500711Y335834D01*
X501208Y336481D01*
X501520Y337236D01*
X501627Y338045D01*
X501520Y338854D01*
X501379Y339194D01*
X529365Y367180D01*
X529630Y367577D01*
X529724Y368045D01*
Y384234D01*
X540503D01*
X540971Y384327D01*
X541368Y384592D01*
X542475Y385699D01*
X542604Y385892D01*
X542967Y386256D01*
X543209Y386417D01*
X543258Y386491D01*
X543860D01*
X543909Y386417D01*
X544336Y386132D01*
X544839Y386032D01*
X545341Y386132D01*
X545768Y386417D01*
X546053Y386843D01*
X546153Y387347D01*
Y389502D01*
X547593Y390942D01*
X547858Y391338D01*
X547951Y391807D01*
Y409928D01*
X548291Y410069D01*
X548939Y410566D01*
X549435Y411213D01*
X549748Y411967D01*
X549854Y412777D01*
X549748Y413586D01*
X549435Y414340D01*
X548939Y414987D01*
X548291Y415484D01*
X547537Y415797D01*
X546728Y415903D01*
X545918Y415797D01*
X545164Y415484D01*
X544517Y414987D01*
X544020Y414340D01*
X543707Y413586D01*
X543601Y412777D01*
X543707Y411967D01*
X544020Y411213D01*
X544517Y410566D01*
X545164Y410069D01*
X545504Y409928D01*
Y407315D01*
X545004Y406935D01*
X544839Y406968D01*
X544336Y406868D01*
X543951Y406611D01*
X543712Y406647D01*
X543415Y406743D01*
X543376Y406938D01*
X543111Y407335D01*
X542038Y408408D01*
X541641Y408673D01*
X541173Y408766D01*
X530126D01*
X529658Y408673D01*
X529261Y408408D01*
X526828Y405975D01*
X518158D01*
Y407911D01*
X517568D01*
Y408698D01*
X512824D01*
Y407911D01*
X512234D01*
Y401593D01*
X518158D01*
Y403528D01*
X527335D01*
X527804Y403622D01*
X528200Y403887D01*
X530633Y406319D01*
X538059D01*
X538439Y405819D01*
X538406Y405653D01*
Y401126D01*
X538506Y400623D01*
X538791Y400197D01*
X539218Y399912D01*
X539720Y399812D01*
X540223Y399912D01*
X540650Y400197D01*
X540699Y400271D01*
X541301D01*
X541350Y400197D01*
X541491Y400103D01*
X541575Y399481D01*
X537081Y394987D01*
X536379D01*
X535911Y394893D01*
X535514Y394628D01*
X530609Y389723D01*
X524256D01*
X523788Y389630D01*
X523391Y389365D01*
X522444Y388419D01*
X519628D01*
Y387468D01*
X518158D01*
Y389407D01*
X512661D01*
X506251Y395817D01*
X506251Y395817D01*
X497723Y404344D01*
Y419003D01*
X498223Y419102D01*
X498292Y418937D01*
X498789Y418289D01*
X499437Y417792D01*
X500191Y417480D01*
X501000Y417373D01*
X501809Y417480D01*
X501886Y417511D01*
X508295Y411102D01*
X508692Y410837D01*
X509160Y410744D01*
X531374D01*
X531842Y410837D01*
X532239Y411102D01*
X536365Y415228D01*
X536630Y415625D01*
X536724Y416093D01*
Y432843D01*
X536630Y433311D01*
X536365Y433708D01*
X529152Y440921D01*
X529141Y440928D01*
Y447400D01*
X528978Y448219D01*
X528514Y448914D01*
X527819Y449378D01*
X527000Y449541D01*
X526181Y449378D01*
X525486Y448914D01*
X525022Y448219D01*
X524859Y447400D01*
Y440400D01*
X525022Y439581D01*
X525486Y438886D01*
X526181Y438422D01*
X527000Y438259D01*
X527819Y438422D01*
X528042Y438570D01*
X529598Y437015D01*
X529406Y436553D01*
X524581D01*
Y429447D01*
X526714D01*
Y428444D01*
X519996Y421726D01*
X519427Y421961D01*
X518500Y422083D01*
X517572Y421961D01*
X516708Y421603D01*
X515966Y421034D01*
X515397Y420292D01*
X515039Y419427D01*
X514917Y418500D01*
X515039Y417572D01*
X515397Y416708D01*
X515966Y415966D01*
X516708Y415397D01*
X517572Y415039D01*
X518500Y414917D01*
X519427Y415039D01*
X520292Y415397D01*
X521034Y415966D01*
X521603Y416708D01*
X521961Y417572D01*
X522083Y418500D01*
X521961Y419427D01*
X521726Y419996D01*
X528802Y427072D01*
X529067Y427469D01*
X529160Y427937D01*
Y429447D01*
X531293D01*
Y434666D01*
X531755Y434858D01*
X534276Y432336D01*
Y416600D01*
X530867Y413191D01*
X509667D01*
X508390Y414468D01*
X508631Y414934D01*
X509427Y415039D01*
X510292Y415397D01*
X511034Y415966D01*
X511603Y416708D01*
X511961Y417572D01*
X512083Y418500D01*
X511961Y419427D01*
X511603Y420292D01*
X511034Y421034D01*
X510292Y421603D01*
X509427Y421961D01*
X508500Y422083D01*
X507573Y421961D01*
X506708Y421603D01*
X505966Y421034D01*
X505397Y420292D01*
X505039Y419427D01*
X504934Y418631D01*
X504468Y418390D01*
X503770Y419087D01*
X504020Y419691D01*
X504127Y420500D01*
X504020Y421309D01*
X503708Y422063D01*
X503211Y422711D01*
X502563Y423208D01*
X501809Y423520D01*
X501000Y423627D01*
X500191Y423520D01*
X499437Y423208D01*
X498789Y422711D01*
X498292Y422063D01*
X498223Y421898D01*
X497723Y421997D01*
Y459993D01*
X502672Y464942D01*
X503350Y464853D01*
X504278Y464975D01*
X505142Y465333D01*
X505884Y465902D01*
X506454Y466644D01*
X506812Y467508D01*
X506934Y468436D01*
X506812Y469363D01*
X506454Y470228D01*
X505884Y470970D01*
X505142Y471539D01*
X504278Y471897D01*
X503350Y472019D01*
X502423Y471897D01*
X501855Y471662D01*
X500421Y473095D01*
Y475663D01*
X500921Y475822D01*
X501559Y475333D01*
X502423Y474975D01*
X503350Y474853D01*
X504278Y474975D01*
X505142Y475333D01*
X505884Y475902D01*
X506454Y476644D01*
X506812Y477508D01*
X506934Y478436D01*
X506812Y479363D01*
X506454Y480228D01*
X505884Y480970D01*
X505142Y481539D01*
X504278Y481897D01*
X503350Y482019D01*
X502423Y481897D01*
X501559Y481539D01*
X500887Y481024D01*
X500593Y481069D01*
X500346Y481178D01*
X500328Y481271D01*
X500063Y481668D01*
X488852Y492878D01*
X489059Y493378D01*
X552378D01*
X552379Y297621D01*
D02*
G37*
G36*
X499242Y383089D02*
X498810Y382925D01*
X425026D01*
X423820Y384131D01*
X424027Y384631D01*
X499242D01*
Y383089D01*
D02*
G37*
%LPC*%
G36*
X487053Y488053D02*
X479947D01*
Y480947D01*
X487053D01*
Y488053D01*
D02*
G37*
G36*
X473500Y488083D02*
X472573Y487961D01*
X471708Y487603D01*
X470966Y487034D01*
X470397Y486292D01*
X470039Y485428D01*
X469917Y484500D01*
X470039Y483572D01*
X470397Y482708D01*
X470966Y481966D01*
X471708Y481397D01*
X472573Y481039D01*
X473500Y480917D01*
X474428Y481039D01*
X475292Y481397D01*
X476034Y481966D01*
X476603Y482708D01*
X476961Y483572D01*
X477083Y484500D01*
X476961Y485428D01*
X476603Y486292D01*
X476034Y487034D01*
X475292Y487603D01*
X474428Y487961D01*
X473500Y488083D01*
D02*
G37*
G36*
X463500D02*
X462572Y487961D01*
X461708Y487603D01*
X460966Y487034D01*
X460397Y486292D01*
X460039Y485428D01*
X459917Y484500D01*
X460039Y483572D01*
X460397Y482708D01*
X460966Y481966D01*
X461708Y481397D01*
X462572Y481039D01*
X463500Y480917D01*
X464428Y481039D01*
X465292Y481397D01*
X466034Y481966D01*
X466603Y482708D01*
X466961Y483572D01*
X467083Y484500D01*
X466961Y485428D01*
X466603Y486292D01*
X466034Y487034D01*
X465292Y487603D01*
X464428Y487961D01*
X463500Y488083D01*
D02*
G37*
G36*
X453500D02*
X452572Y487961D01*
X451708Y487603D01*
X450966Y487034D01*
X450397Y486292D01*
X450039Y485428D01*
X449917Y484500D01*
X450039Y483572D01*
X450397Y482708D01*
X450966Y481966D01*
X451708Y481397D01*
X452572Y481039D01*
X453500Y480917D01*
X454427Y481039D01*
X455292Y481397D01*
X456034Y481966D01*
X456603Y482708D01*
X456961Y483572D01*
X457083Y484500D01*
X456961Y485428D01*
X456603Y486292D01*
X456034Y487034D01*
X455292Y487603D01*
X454427Y487961D01*
X453500Y488083D01*
D02*
G37*
G36*
X443500D02*
X442572Y487961D01*
X441708Y487603D01*
X440966Y487034D01*
X440397Y486292D01*
X440039Y485428D01*
X439917Y484500D01*
X440039Y483572D01*
X440397Y482708D01*
X440966Y481966D01*
X441708Y481397D01*
X442572Y481039D01*
X443500Y480917D01*
X444427Y481039D01*
X445292Y481397D01*
X446034Y481966D01*
X446603Y482708D01*
X446961Y483572D01*
X447083Y484500D01*
X446961Y485428D01*
X446603Y486292D01*
X446034Y487034D01*
X445292Y487603D01*
X444427Y487961D01*
X443500Y488083D01*
D02*
G37*
G36*
X433500D02*
X432573Y487961D01*
X431708Y487603D01*
X430966Y487034D01*
X430397Y486292D01*
X430039Y485428D01*
X429917Y484500D01*
X430039Y483572D01*
X430397Y482708D01*
X430966Y481966D01*
X431708Y481397D01*
X432573Y481039D01*
X433500Y480917D01*
X434427Y481039D01*
X435292Y481397D01*
X436034Y481966D01*
X436603Y482708D01*
X436961Y483572D01*
X437083Y484500D01*
X436961Y485428D01*
X436603Y486292D01*
X436034Y487034D01*
X435292Y487603D01*
X434427Y487961D01*
X433500Y488083D01*
D02*
G37*
G36*
X423500D02*
X422573Y487961D01*
X421708Y487603D01*
X420966Y487034D01*
X420397Y486292D01*
X420039Y485428D01*
X419917Y484500D01*
X420039Y483572D01*
X420397Y482708D01*
X420966Y481966D01*
X421708Y481397D01*
X422573Y481039D01*
X423500Y480917D01*
X424428Y481039D01*
X425292Y481397D01*
X426034Y481966D01*
X426603Y482708D01*
X426961Y483572D01*
X427083Y484500D01*
X426961Y485428D01*
X426603Y486292D01*
X426034Y487034D01*
X425292Y487603D01*
X424428Y487961D01*
X423500Y488083D01*
D02*
G37*
G36*
X413500D02*
X412572Y487961D01*
X411708Y487603D01*
X410966Y487034D01*
X410397Y486292D01*
X410039Y485428D01*
X409917Y484500D01*
X410039Y483572D01*
X410397Y482708D01*
X410966Y481966D01*
X411708Y481397D01*
X412572Y481039D01*
X413500Y480917D01*
X414428Y481039D01*
X415292Y481397D01*
X416034Y481966D01*
X416603Y482708D01*
X416961Y483572D01*
X417083Y484500D01*
X416961Y485428D01*
X416603Y486292D01*
X416034Y487034D01*
X415292Y487603D01*
X414428Y487961D01*
X413500Y488083D01*
D02*
G37*
G36*
X403500D02*
X402573Y487961D01*
X401708Y487603D01*
X400966Y487034D01*
X400397Y486292D01*
X400039Y485428D01*
X399917Y484500D01*
X400039Y483572D01*
X400397Y482708D01*
X400966Y481966D01*
X401708Y481397D01*
X402573Y481039D01*
X403500Y480917D01*
X404427Y481039D01*
X405292Y481397D01*
X406034Y481966D01*
X406603Y482708D01*
X406961Y483572D01*
X407083Y484500D01*
X406961Y485428D01*
X406603Y486292D01*
X406034Y487034D01*
X405292Y487603D01*
X404427Y487961D01*
X403500Y488083D01*
D02*
G37*
G36*
X393500D02*
X392573Y487961D01*
X391708Y487603D01*
X390966Y487034D01*
X390397Y486292D01*
X390039Y485428D01*
X389917Y484500D01*
X390039Y483572D01*
X390397Y482708D01*
X390966Y481966D01*
X391708Y481397D01*
X392573Y481039D01*
X393500Y480917D01*
X394427Y481039D01*
X395292Y481397D01*
X396034Y481966D01*
X396603Y482708D01*
X396961Y483572D01*
X397083Y484500D01*
X396961Y485428D01*
X396603Y486292D01*
X396034Y487034D01*
X395292Y487603D01*
X394427Y487961D01*
X393500Y488083D01*
D02*
G37*
G36*
X383500D02*
X382573Y487961D01*
X381708Y487603D01*
X380966Y487034D01*
X380397Y486292D01*
X380039Y485428D01*
X379917Y484500D01*
X380039Y483572D01*
X380397Y482708D01*
X380966Y481966D01*
X381708Y481397D01*
X382573Y481039D01*
X383500Y480917D01*
X384427Y481039D01*
X385292Y481397D01*
X386034Y481966D01*
X386603Y482708D01*
X386961Y483572D01*
X387083Y484500D01*
X386961Y485428D01*
X386603Y486292D01*
X386034Y487034D01*
X385292Y487603D01*
X384427Y487961D01*
X383500Y488083D01*
D02*
G37*
G36*
X373500D02*
X372573Y487961D01*
X371708Y487603D01*
X370966Y487034D01*
X370397Y486292D01*
X370039Y485428D01*
X369917Y484500D01*
X370039Y483572D01*
X370397Y482708D01*
X370966Y481966D01*
X371708Y481397D01*
X372573Y481039D01*
X373500Y480917D01*
X374427Y481039D01*
X375292Y481397D01*
X376034Y481966D01*
X376603Y482708D01*
X376961Y483572D01*
X377083Y484500D01*
X376961Y485428D01*
X376603Y486292D01*
X376034Y487034D01*
X375292Y487603D01*
X374427Y487961D01*
X373500Y488083D01*
D02*
G37*
G36*
X363500D02*
X362573Y487961D01*
X361708Y487603D01*
X360966Y487034D01*
X360397Y486292D01*
X360039Y485428D01*
X359917Y484500D01*
X360039Y483572D01*
X360397Y482708D01*
X360966Y481966D01*
X361708Y481397D01*
X362573Y481039D01*
X363500Y480917D01*
X364427Y481039D01*
X365292Y481397D01*
X366034Y481966D01*
X366603Y482708D01*
X366961Y483572D01*
X367083Y484500D01*
X366961Y485428D01*
X366603Y486292D01*
X366034Y487034D01*
X365292Y487603D01*
X364427Y487961D01*
X363500Y488083D01*
D02*
G37*
G36*
X353500D02*
X352573Y487961D01*
X351708Y487603D01*
X350966Y487034D01*
X350397Y486292D01*
X350039Y485428D01*
X349917Y484500D01*
X350039Y483572D01*
X350397Y482708D01*
X350966Y481966D01*
X351708Y481397D01*
X352573Y481039D01*
X353500Y480917D01*
X354427Y481039D01*
X355292Y481397D01*
X356034Y481966D01*
X356603Y482708D01*
X356961Y483572D01*
X357083Y484500D01*
X356961Y485428D01*
X356603Y486292D01*
X356034Y487034D01*
X355292Y487603D01*
X354427Y487961D01*
X353500Y488083D01*
D02*
G37*
G36*
X343500D02*
X342573Y487961D01*
X341708Y487603D01*
X340966Y487034D01*
X340397Y486292D01*
X340039Y485428D01*
X339917Y484500D01*
X340039Y483572D01*
X340397Y482708D01*
X340966Y481966D01*
X341708Y481397D01*
X342573Y481039D01*
X343500Y480917D01*
X344427Y481039D01*
X345292Y481397D01*
X346034Y481966D01*
X346603Y482708D01*
X346961Y483572D01*
X347083Y484500D01*
X346961Y485428D01*
X346603Y486292D01*
X346034Y487034D01*
X345292Y487603D01*
X344427Y487961D01*
X343500Y488083D01*
D02*
G37*
G36*
X333500D02*
X332573Y487961D01*
X331708Y487603D01*
X330966Y487034D01*
X330397Y486292D01*
X330039Y485428D01*
X329917Y484500D01*
X330039Y483572D01*
X330397Y482708D01*
X330966Y481966D01*
X331708Y481397D01*
X332573Y481039D01*
X333500Y480917D01*
X334427Y481039D01*
X335292Y481397D01*
X336034Y481966D01*
X336603Y482708D01*
X336961Y483572D01*
X337083Y484500D01*
X336961Y485428D01*
X336603Y486292D01*
X336034Y487034D01*
X335292Y487603D01*
X334427Y487961D01*
X333500Y488083D01*
D02*
G37*
G36*
X313500D02*
X312573Y487961D01*
X311708Y487603D01*
X310966Y487034D01*
X310397Y486292D01*
X310039Y485428D01*
X309917Y484500D01*
X310039Y483572D01*
X310274Y483004D01*
X292319Y465050D01*
X292036Y464993D01*
X291639Y464728D01*
X276435Y449524D01*
X276170Y449127D01*
X276077Y448659D01*
Y428357D01*
X276170Y427889D01*
X276435Y427492D01*
X284343Y419584D01*
Y400295D01*
X281139Y397092D01*
X280874Y396695D01*
X280780Y396227D01*
Y389407D01*
X279042D01*
Y383089D01*
X279632D01*
Y382302D01*
X284376D01*
Y383089D01*
X284966D01*
Y389407D01*
X283227D01*
Y395720D01*
X286431Y398923D01*
X286697Y399321D01*
X286790Y399789D01*
Y420091D01*
X286697Y420559D01*
X286431Y420956D01*
X278523Y428864D01*
Y441034D01*
X279024Y441281D01*
X279173Y441166D01*
X279798Y440907D01*
X280469Y440819D01*
X291531D01*
X292202Y440907D01*
X292827Y441166D01*
X293363Y441578D01*
X293775Y442114D01*
X294034Y442739D01*
X294122Y443409D01*
Y447346D01*
X294034Y448017D01*
X293775Y448642D01*
X293363Y449178D01*
X292827Y449590D01*
X292202Y449849D01*
X291531Y449937D01*
X281016D01*
X280808Y450437D01*
X293048Y462676D01*
X293331Y462733D01*
X293728Y462998D01*
X312004Y481274D01*
X312573Y481039D01*
X313500Y480917D01*
X314427Y481039D01*
X315292Y481397D01*
X316034Y481966D01*
X316603Y482708D01*
X316961Y483572D01*
X317083Y484500D01*
X316961Y485428D01*
X316603Y486292D01*
X316034Y487034D01*
X315292Y487603D01*
X314427Y487961D01*
X313500Y488083D01*
D02*
G37*
G36*
X540500Y490015D02*
X538839Y489851D01*
X537241Y489367D01*
X535769Y488580D01*
X534479Y487521D01*
X533420Y486231D01*
X532633Y484759D01*
X532149Y483161D01*
X531985Y481500D01*
X532149Y479839D01*
X532633Y478241D01*
X533420Y476769D01*
X534479Y475479D01*
X535769Y474420D01*
X537241Y473633D01*
X538839Y473149D01*
X540500Y472985D01*
X542161Y473149D01*
X543759Y473633D01*
X545231Y474420D01*
X546521Y475479D01*
X547580Y476769D01*
X548367Y478241D01*
X548851Y479839D01*
X549015Y481500D01*
X548851Y483161D01*
X548367Y484759D01*
X547580Y486231D01*
X546521Y487521D01*
X545231Y488580D01*
X543759Y489367D01*
X542161Y489851D01*
X540500Y490015D01*
D02*
G37*
G36*
X256500D02*
X254839Y489851D01*
X253241Y489367D01*
X251769Y488580D01*
X250479Y487521D01*
X249420Y486231D01*
X248633Y484759D01*
X248149Y483161D01*
X247985Y481500D01*
X248149Y479839D01*
X248633Y478241D01*
X249420Y476769D01*
X250479Y475479D01*
X251769Y474420D01*
X253241Y473633D01*
X254839Y473149D01*
X256500Y472985D01*
X258161Y473149D01*
X259759Y473633D01*
X261231Y474420D01*
X262521Y475479D01*
X263580Y476769D01*
X264367Y478241D01*
X264851Y479839D01*
X265015Y481500D01*
X264851Y483161D01*
X264367Y484759D01*
X263580Y486231D01*
X262521Y487521D01*
X261231Y488580D01*
X259759Y489367D01*
X258161Y489851D01*
X256500Y490015D01*
D02*
G37*
G36*
X483500Y478083D02*
X482573Y477961D01*
X481708Y477603D01*
X480966Y477034D01*
X480397Y476292D01*
X480039Y475427D01*
X479917Y474500D01*
X480039Y473572D01*
X480397Y472708D01*
X480966Y471966D01*
X481708Y471397D01*
X482573Y471039D01*
X483500Y470917D01*
X484427Y471039D01*
X485292Y471397D01*
X486034Y471966D01*
X486603Y472708D01*
X486961Y473572D01*
X487083Y474500D01*
X486961Y475427D01*
X486603Y476292D01*
X486034Y477034D01*
X485292Y477603D01*
X484427Y477961D01*
X483500Y478083D01*
D02*
G37*
G36*
X473500D02*
X472573Y477961D01*
X471708Y477603D01*
X470966Y477034D01*
X470397Y476292D01*
X470039Y475427D01*
X469917Y474500D01*
X470039Y473572D01*
X470397Y472708D01*
X470966Y471966D01*
X471708Y471397D01*
X472573Y471039D01*
X473500Y470917D01*
X474428Y471039D01*
X475292Y471397D01*
X476034Y471966D01*
X476603Y472708D01*
X476961Y473572D01*
X477083Y474500D01*
X476961Y475427D01*
X476603Y476292D01*
X476034Y477034D01*
X475292Y477603D01*
X474428Y477961D01*
X473500Y478083D01*
D02*
G37*
G36*
X463500D02*
X462572Y477961D01*
X461708Y477603D01*
X460966Y477034D01*
X460397Y476292D01*
X460039Y475427D01*
X459917Y474500D01*
X460039Y473572D01*
X460397Y472708D01*
X460966Y471966D01*
X461708Y471397D01*
X462572Y471039D01*
X463500Y470917D01*
X464428Y471039D01*
X465292Y471397D01*
X466034Y471966D01*
X466603Y472708D01*
X466961Y473572D01*
X467083Y474500D01*
X466961Y475427D01*
X466603Y476292D01*
X466034Y477034D01*
X465292Y477603D01*
X464428Y477961D01*
X463500Y478083D01*
D02*
G37*
G36*
X453500D02*
X452572Y477961D01*
X451708Y477603D01*
X450966Y477034D01*
X450397Y476292D01*
X450039Y475427D01*
X449917Y474500D01*
X450039Y473572D01*
X450397Y472708D01*
X450966Y471966D01*
X451708Y471397D01*
X452572Y471039D01*
X453500Y470917D01*
X454427Y471039D01*
X455292Y471397D01*
X456034Y471966D01*
X456603Y472708D01*
X456961Y473572D01*
X457083Y474500D01*
X456961Y475427D01*
X456603Y476292D01*
X456034Y477034D01*
X455292Y477603D01*
X454427Y477961D01*
X453500Y478083D01*
D02*
G37*
G36*
X443500D02*
X442572Y477961D01*
X441708Y477603D01*
X440966Y477034D01*
X440397Y476292D01*
X440039Y475427D01*
X439917Y474500D01*
X440039Y473572D01*
X440397Y472708D01*
X440966Y471966D01*
X441708Y471397D01*
X442572Y471039D01*
X443500Y470917D01*
X444427Y471039D01*
X445292Y471397D01*
X446034Y471966D01*
X446603Y472708D01*
X446961Y473572D01*
X447083Y474500D01*
X446961Y475427D01*
X446603Y476292D01*
X446034Y477034D01*
X445292Y477603D01*
X444427Y477961D01*
X443500Y478083D01*
D02*
G37*
G36*
X433500D02*
X432573Y477961D01*
X431708Y477603D01*
X430966Y477034D01*
X430397Y476292D01*
X430039Y475427D01*
X429917Y474500D01*
X430039Y473572D01*
X430397Y472708D01*
X430966Y471966D01*
X431708Y471397D01*
X432573Y471039D01*
X433500Y470917D01*
X434427Y471039D01*
X435292Y471397D01*
X436034Y471966D01*
X436603Y472708D01*
X436961Y473572D01*
X437083Y474500D01*
X436961Y475427D01*
X436603Y476292D01*
X436034Y477034D01*
X435292Y477603D01*
X434427Y477961D01*
X433500Y478083D01*
D02*
G37*
G36*
X423500D02*
X422573Y477961D01*
X421708Y477603D01*
X420966Y477034D01*
X420397Y476292D01*
X420039Y475427D01*
X419917Y474500D01*
X420039Y473572D01*
X420397Y472708D01*
X420966Y471966D01*
X421708Y471397D01*
X422573Y471039D01*
X423500Y470917D01*
X424428Y471039D01*
X425292Y471397D01*
X426034Y471966D01*
X426603Y472708D01*
X426961Y473572D01*
X427083Y474500D01*
X426961Y475427D01*
X426603Y476292D01*
X426034Y477034D01*
X425292Y477603D01*
X424428Y477961D01*
X423500Y478083D01*
D02*
G37*
G36*
X413500D02*
X412572Y477961D01*
X411708Y477603D01*
X410966Y477034D01*
X410397Y476292D01*
X410039Y475427D01*
X409917Y474500D01*
X410039Y473572D01*
X410397Y472708D01*
X410966Y471966D01*
X411708Y471397D01*
X412572Y471039D01*
X413500Y470917D01*
X414428Y471039D01*
X415292Y471397D01*
X416034Y471966D01*
X416603Y472708D01*
X416961Y473572D01*
X417083Y474500D01*
X416961Y475427D01*
X416603Y476292D01*
X416034Y477034D01*
X415292Y477603D01*
X414428Y477961D01*
X413500Y478083D01*
D02*
G37*
G36*
X403500D02*
X402573Y477961D01*
X401708Y477603D01*
X400966Y477034D01*
X400397Y476292D01*
X400039Y475427D01*
X399917Y474500D01*
X400039Y473572D01*
X400397Y472708D01*
X400966Y471966D01*
X401708Y471397D01*
X402573Y471039D01*
X403500Y470917D01*
X404427Y471039D01*
X405292Y471397D01*
X406034Y471966D01*
X406603Y472708D01*
X406961Y473572D01*
X407083Y474500D01*
X406961Y475427D01*
X406603Y476292D01*
X406034Y477034D01*
X405292Y477603D01*
X404427Y477961D01*
X403500Y478083D01*
D02*
G37*
G36*
X393500D02*
X392573Y477961D01*
X391708Y477603D01*
X390966Y477034D01*
X390397Y476292D01*
X390039Y475427D01*
X389917Y474500D01*
X390039Y473572D01*
X390397Y472708D01*
X390966Y471966D01*
X391708Y471397D01*
X392573Y471039D01*
X393500Y470917D01*
X394427Y471039D01*
X395292Y471397D01*
X396034Y471966D01*
X396603Y472708D01*
X396961Y473572D01*
X397083Y474500D01*
X396961Y475427D01*
X396603Y476292D01*
X396034Y477034D01*
X395292Y477603D01*
X394427Y477961D01*
X393500Y478083D01*
D02*
G37*
G36*
X383500D02*
X382573Y477961D01*
X381708Y477603D01*
X380966Y477034D01*
X380397Y476292D01*
X380039Y475427D01*
X379917Y474500D01*
X380039Y473572D01*
X380397Y472708D01*
X380966Y471966D01*
X381708Y471397D01*
X382573Y471039D01*
X383500Y470917D01*
X384427Y471039D01*
X385292Y471397D01*
X386034Y471966D01*
X386603Y472708D01*
X386961Y473572D01*
X387083Y474500D01*
X386961Y475427D01*
X386603Y476292D01*
X386034Y477034D01*
X385292Y477603D01*
X384427Y477961D01*
X383500Y478083D01*
D02*
G37*
G36*
X373500D02*
X372573Y477961D01*
X371708Y477603D01*
X370966Y477034D01*
X370397Y476292D01*
X370039Y475427D01*
X369917Y474500D01*
X370039Y473572D01*
X370397Y472708D01*
X370966Y471966D01*
X371708Y471397D01*
X372573Y471039D01*
X373500Y470917D01*
X374427Y471039D01*
X375292Y471397D01*
X376034Y471966D01*
X376603Y472708D01*
X376961Y473572D01*
X377083Y474500D01*
X376961Y475427D01*
X376603Y476292D01*
X376034Y477034D01*
X375292Y477603D01*
X374427Y477961D01*
X373500Y478083D01*
D02*
G37*
G36*
X363500D02*
X362573Y477961D01*
X361708Y477603D01*
X360966Y477034D01*
X360397Y476292D01*
X360039Y475427D01*
X359917Y474500D01*
X360039Y473572D01*
X360397Y472708D01*
X360966Y471966D01*
X361708Y471397D01*
X362573Y471039D01*
X363500Y470917D01*
X364427Y471039D01*
X365292Y471397D01*
X366034Y471966D01*
X366603Y472708D01*
X366961Y473572D01*
X367083Y474500D01*
X366961Y475427D01*
X366603Y476292D01*
X366034Y477034D01*
X365292Y477603D01*
X364427Y477961D01*
X363500Y478083D01*
D02*
G37*
G36*
X353500D02*
X352573Y477961D01*
X351708Y477603D01*
X350966Y477034D01*
X350397Y476292D01*
X350039Y475427D01*
X349917Y474500D01*
X350039Y473572D01*
X350397Y472708D01*
X350966Y471966D01*
X351708Y471397D01*
X352573Y471039D01*
X353500Y470917D01*
X354427Y471039D01*
X355292Y471397D01*
X356034Y471966D01*
X356603Y472708D01*
X356961Y473572D01*
X357083Y474500D01*
X356961Y475427D01*
X356603Y476292D01*
X356034Y477034D01*
X355292Y477603D01*
X354427Y477961D01*
X353500Y478083D01*
D02*
G37*
G36*
X343500D02*
X342573Y477961D01*
X341708Y477603D01*
X340966Y477034D01*
X340397Y476292D01*
X340039Y475427D01*
X339917Y474500D01*
X340039Y473572D01*
X340397Y472708D01*
X340966Y471966D01*
X341708Y471397D01*
X342573Y471039D01*
X343500Y470917D01*
X344427Y471039D01*
X345292Y471397D01*
X346034Y471966D01*
X346603Y472708D01*
X346961Y473572D01*
X347083Y474500D01*
X346961Y475427D01*
X346603Y476292D01*
X346034Y477034D01*
X345292Y477603D01*
X344427Y477961D01*
X343500Y478083D01*
D02*
G37*
G36*
X333500D02*
X332573Y477961D01*
X331708Y477603D01*
X330966Y477034D01*
X330397Y476292D01*
X330039Y475427D01*
X329917Y474500D01*
X330039Y473572D01*
X330397Y472708D01*
X330966Y471966D01*
X331708Y471397D01*
X332573Y471039D01*
X333500Y470917D01*
X334427Y471039D01*
X335292Y471397D01*
X336034Y471966D01*
X336603Y472708D01*
X336961Y473572D01*
X337083Y474500D01*
X336961Y475427D01*
X336603Y476292D01*
X336034Y477034D01*
X335292Y477603D01*
X334427Y477961D01*
X333500Y478083D01*
D02*
G37*
G36*
X313500D02*
X312573Y477961D01*
X311708Y477603D01*
X310966Y477034D01*
X310397Y476292D01*
X310039Y475427D01*
X309917Y474500D01*
X310039Y473572D01*
X310397Y472708D01*
X310966Y471966D01*
X311708Y471397D01*
X312573Y471039D01*
X313500Y470917D01*
X314427Y471039D01*
X315292Y471397D01*
X316034Y471966D01*
X316603Y472708D01*
X316961Y473572D01*
X317083Y474500D01*
X316961Y475427D01*
X316603Y476292D01*
X316034Y477034D01*
X315292Y477603D01*
X314427Y477961D01*
X313500Y478083D01*
D02*
G37*
G36*
X519100Y473100D02*
X514900D01*
Y461900D01*
X519100D01*
Y473100D01*
D02*
G37*
G36*
X532000Y473141D02*
X531181Y472978D01*
X530486Y472514D01*
X530022Y471819D01*
X529859Y471000D01*
Y464000D01*
X530022Y463181D01*
X530486Y462486D01*
X531181Y462022D01*
X532000Y461859D01*
X532819Y462022D01*
X533514Y462486D01*
X533978Y463181D01*
X534141Y464000D01*
Y471000D01*
X533978Y471819D01*
X533514Y472514D01*
X532819Y472978D01*
X532000Y473141D01*
D02*
G37*
G36*
X522000Y479974D02*
X521191Y479868D01*
X520437Y479555D01*
X519789Y479058D01*
X519292Y478411D01*
X518980Y477657D01*
X518873Y476847D01*
X518980Y476038D01*
X519292Y475284D01*
X519789Y474636D01*
X520437Y474139D01*
X520777Y473999D01*
Y472708D01*
X520486Y472514D01*
X520022Y471819D01*
X519859Y471000D01*
Y464000D01*
X520022Y463181D01*
X520486Y462486D01*
X521181Y462022D01*
X522000Y461859D01*
X522343Y461927D01*
X525198Y459072D01*
X525595Y458807D01*
X526063Y458713D01*
X535947D01*
Y456581D01*
X543053D01*
Y463293D01*
X535947D01*
Y461161D01*
X526570D01*
X526228Y461503D01*
X526474Y461964D01*
X527000Y461859D01*
X527819Y462022D01*
X528514Y462486D01*
X528978Y463181D01*
X529141Y464000D01*
Y471000D01*
X528978Y471819D01*
X528514Y472514D01*
X527819Y472978D01*
X527000Y473141D01*
X526181Y472978D01*
X525486Y472514D01*
X525022Y471819D01*
X524859Y471000D01*
Y464000D01*
X524964Y463474D01*
X524503Y463228D01*
X524073Y463657D01*
X524141Y464000D01*
Y471000D01*
X523978Y471819D01*
X523514Y472514D01*
X523223Y472708D01*
Y473999D01*
X523563Y474139D01*
X524211Y474636D01*
X524708Y475284D01*
X525020Y476038D01*
X525127Y476847D01*
X525020Y477657D01*
X524708Y478411D01*
X524211Y479058D01*
X523563Y479555D01*
X522809Y479868D01*
X522000Y479974D01*
D02*
G37*
G36*
X543053Y455419D02*
X535947D01*
Y453287D01*
X508413D01*
X507945Y453193D01*
X507548Y452928D01*
X504499Y449879D01*
X504160Y450020D01*
X503350Y450127D01*
X502541Y450020D01*
X501787Y449708D01*
X501139Y449211D01*
X500642Y448563D01*
X500330Y447809D01*
X500224Y447000D01*
X500330Y446191D01*
X500642Y445437D01*
X501139Y444789D01*
X501787Y444292D01*
X502423Y444029D01*
X502373Y443518D01*
X501828Y443446D01*
X501074Y443134D01*
X500426Y442637D01*
X499930Y441989D01*
X499617Y441235D01*
X499511Y440426D01*
X499617Y439617D01*
X499930Y438863D01*
X500426Y438215D01*
X501074Y437718D01*
X501828Y437406D01*
X502637Y437299D01*
X503447Y437406D01*
X504201Y437718D01*
X504848Y438215D01*
X505345Y438863D01*
X505658Y439617D01*
X505764Y440426D01*
X505658Y441235D01*
X505517Y441575D01*
X506618Y442676D01*
X514859D01*
Y440400D01*
X515022Y439581D01*
X515486Y438886D01*
X516181Y438422D01*
X517000Y438259D01*
X517690Y438396D01*
X518840Y437246D01*
Y436553D01*
X516707D01*
Y429447D01*
X523419D01*
Y436553D01*
X521286D01*
Y437753D01*
X521258Y437897D01*
X521681Y438322D01*
X522000Y438259D01*
X522819Y438422D01*
X523514Y438886D01*
X523978Y439581D01*
X524141Y440400D01*
Y447400D01*
X523978Y448219D01*
X523514Y448914D01*
X523223Y449108D01*
Y450840D01*
X535947D01*
Y448707D01*
X543053D01*
Y455419D01*
D02*
G37*
G36*
X330105Y465914D02*
X329296Y465808D01*
X328542Y465495D01*
X327894Y464998D01*
X327397Y464351D01*
X327085Y463597D01*
X326978Y462787D01*
X327085Y461978D01*
X327397Y461224D01*
X327894Y460576D01*
X328542Y460080D01*
X329296Y459767D01*
X329340Y459761D01*
Y447537D01*
X329121Y447391D01*
X328679Y446729D01*
X328524Y445949D01*
X328679Y445168D01*
X329121Y444507D01*
X329783Y444065D01*
X330563Y443910D01*
X331343Y444065D01*
X332005Y444507D01*
X332447Y445168D01*
X332602Y445949D01*
X332447Y446729D01*
X332005Y447391D01*
X331786Y447537D01*
Y460170D01*
X332316Y460576D01*
X332813Y461224D01*
X333125Y461978D01*
X333232Y462787D01*
X333125Y463597D01*
X332813Y464351D01*
X332316Y464998D01*
X331668Y465495D01*
X330914Y465808D01*
X330105Y465914D01*
D02*
G37*
G36*
X338437Y437488D02*
X337657Y437333D01*
X336995Y436891D01*
X336553Y436229D01*
X336398Y435449D01*
X336553Y434668D01*
X336995Y434007D01*
X337657Y433565D01*
X338437Y433410D01*
X339217Y433565D01*
X339879Y434007D01*
X340025Y434225D01*
X395946D01*
X397448Y432724D01*
X397241Y432224D01*
X337007D01*
X332916Y436314D01*
X332519Y436579D01*
X332051Y436672D01*
X323357D01*
X323211Y436891D01*
X322550Y437333D01*
X321769Y437488D01*
X320989Y437333D01*
X320327Y436891D01*
X319885Y436229D01*
X319730Y435449D01*
X319885Y434668D01*
X320327Y434007D01*
X320989Y433565D01*
X321769Y433410D01*
X322550Y433565D01*
X323211Y434007D01*
X323357Y434225D01*
X331544D01*
X335635Y430135D01*
X336032Y429870D01*
X336500Y429776D01*
X397284D01*
X405953Y421107D01*
X405873Y420500D01*
X405980Y419691D01*
X406292Y418937D01*
X406789Y418289D01*
X407437Y417792D01*
X408191Y417480D01*
X409000Y417373D01*
X409809Y417480D01*
X410563Y417792D01*
X411211Y418289D01*
X411708Y418937D01*
X412020Y419691D01*
X412127Y420500D01*
X412020Y421309D01*
X411708Y422063D01*
X411211Y422711D01*
X410995Y422877D01*
X411165Y423377D01*
X415110D01*
X415292Y422937D01*
X415789Y422289D01*
X416437Y421792D01*
X417191Y421480D01*
X418000Y421373D01*
X418809Y421480D01*
X419563Y421792D01*
X420211Y422289D01*
X420708Y422937D01*
X421020Y423691D01*
X421127Y424500D01*
X421020Y425309D01*
X420708Y426063D01*
X420211Y426711D01*
X419563Y427208D01*
X418809Y427520D01*
X418000Y427627D01*
X417191Y427520D01*
X416437Y427208D01*
X415789Y426711D01*
X415292Y426063D01*
X415193Y425823D01*
X407808D01*
X397318Y436314D01*
X396921Y436579D01*
X396453Y436672D01*
X340025D01*
X339879Y436891D01*
X339217Y437333D01*
X338437Y437488D01*
D02*
G37*
G36*
X513000Y368627D02*
X512191Y368520D01*
X511437Y368208D01*
X510789Y367711D01*
X510292Y367063D01*
X509980Y366309D01*
X509873Y365500D01*
X509980Y364691D01*
X510033Y364562D01*
X481695Y336224D01*
X402085D01*
X401711Y336711D01*
X401063Y337208D01*
X400309Y337520D01*
X399500Y337627D01*
X398691Y337520D01*
X397937Y337208D01*
X397289Y336711D01*
X396792Y336063D01*
X396480Y335309D01*
X396373Y334500D01*
X396480Y333691D01*
X396792Y332937D01*
X397289Y332289D01*
X397937Y331792D01*
X398691Y331480D01*
X399500Y331373D01*
X400309Y331480D01*
X401063Y331792D01*
X401711Y332289D01*
X402208Y332937D01*
X402520Y333691D01*
X402531Y333776D01*
X482202D01*
X482670Y333870D01*
X483067Y334135D01*
X504435Y355503D01*
X504909Y355270D01*
X504873Y355000D01*
X504980Y354191D01*
X505121Y353851D01*
X463621Y312351D01*
X463292Y312603D01*
X462428Y312961D01*
X461500Y313083D01*
X460572Y312961D01*
X459708Y312603D01*
X458966Y312034D01*
X458397Y311292D01*
X458039Y310427D01*
X457917Y309500D01*
X458039Y308573D01*
X458397Y307708D01*
X458966Y306966D01*
X459708Y306397D01*
X460572Y306039D01*
X461500Y305917D01*
X462428Y306039D01*
X463292Y306397D01*
X464034Y306966D01*
X464603Y307708D01*
X464961Y308573D01*
X465083Y309500D01*
X464984Y310254D01*
X506851Y352121D01*
X507191Y351980D01*
X508000Y351873D01*
X508809Y351980D01*
X509563Y352292D01*
X510211Y352789D01*
X510708Y353437D01*
X511020Y354191D01*
X511127Y355000D01*
X511020Y355809D01*
X510708Y356563D01*
X510211Y357211D01*
X509563Y357708D01*
X508809Y358020D01*
X508000Y358127D01*
X507730Y358091D01*
X507497Y358565D01*
X511640Y362708D01*
X512191Y362480D01*
X513000Y362373D01*
X513809Y362480D01*
X514563Y362792D01*
X515211Y363289D01*
X515708Y363937D01*
X516020Y364691D01*
X516127Y365500D01*
X516020Y366309D01*
X515708Y367063D01*
X515211Y367711D01*
X514563Y368208D01*
X513809Y368520D01*
X513000Y368627D01*
D02*
G37*
G36*
X296000Y357127D02*
X295191Y357020D01*
X294437Y356708D01*
X293789Y356211D01*
X293292Y355563D01*
X292980Y354809D01*
X292873Y354000D01*
X292980Y353191D01*
X293292Y352437D01*
X293789Y351789D01*
X294437Y351292D01*
X295191Y350980D01*
X296000Y350873D01*
X296809Y350980D01*
X297563Y351292D01*
X298211Y351789D01*
X298708Y352437D01*
X298849Y352777D01*
X317629D01*
X317862Y352511D01*
X317969Y351702D01*
X318281Y350948D01*
X318778Y350300D01*
X319426Y349803D01*
X320180Y349491D01*
X320989Y349384D01*
X321798Y349491D01*
X322552Y349803D01*
X323200Y350300D01*
X323697Y350948D01*
X324009Y351702D01*
X324116Y352511D01*
X324009Y353320D01*
X323697Y354074D01*
X323200Y354722D01*
X322552Y355219D01*
X321798Y355531D01*
X320989Y355638D01*
X320180Y355531D01*
X319437Y355223D01*
X298849D01*
X298708Y355563D01*
X298211Y356211D01*
X297563Y356708D01*
X296809Y357020D01*
X296000Y357127D01*
D02*
G37*
G36*
X495000Y322127D02*
X494191Y322020D01*
X493437Y321708D01*
X492789Y321211D01*
X492292Y320563D01*
X491980Y319809D01*
X491873Y319000D01*
X491980Y318191D01*
X492292Y317437D01*
X492789Y316789D01*
X493437Y316292D01*
X494191Y315980D01*
X495000Y315873D01*
X495809Y315980D01*
X496563Y316292D01*
X497211Y316789D01*
X497708Y317437D01*
X497849Y317776D01*
X507932D01*
X512215Y313494D01*
X511981Y313020D01*
X511500Y313083D01*
X510572Y312961D01*
X509708Y312603D01*
X508966Y312034D01*
X508397Y311292D01*
X508039Y310427D01*
X507917Y309500D01*
X508039Y308573D01*
X508397Y307708D01*
X508966Y306966D01*
X509708Y306397D01*
X510572Y306039D01*
X511500Y305917D01*
X512428Y306039D01*
X513292Y306397D01*
X514034Y306966D01*
X514603Y307708D01*
X514961Y308573D01*
X515083Y309500D01*
X515020Y309981D01*
X515494Y310215D01*
X517073Y308635D01*
X517470Y308370D01*
X517939Y308277D01*
X517947D01*
Y305947D01*
X525053D01*
Y313053D01*
X517947D01*
Y311875D01*
X517485Y311684D01*
X509304Y319865D01*
X508907Y320130D01*
X508439Y320223D01*
X497849D01*
X497708Y320563D01*
X497211Y321211D01*
X496563Y321708D01*
X495809Y322020D01*
X495000Y322127D01*
D02*
G37*
G36*
X501500Y313083D02*
X500572Y312961D01*
X499708Y312603D01*
X498966Y312034D01*
X498397Y311292D01*
X498039Y310427D01*
X497917Y309500D01*
X498039Y308573D01*
X498397Y307708D01*
X498966Y306966D01*
X499708Y306397D01*
X500572Y306039D01*
X501500Y305917D01*
X502427Y306039D01*
X503292Y306397D01*
X504034Y306966D01*
X504603Y307708D01*
X504961Y308573D01*
X505083Y309500D01*
X504961Y310427D01*
X504603Y311292D01*
X504034Y312034D01*
X503292Y312603D01*
X502427Y312961D01*
X501500Y313083D01*
D02*
G37*
G36*
X491500D02*
X490573Y312961D01*
X489708Y312603D01*
X488966Y312034D01*
X488397Y311292D01*
X488039Y310427D01*
X487917Y309500D01*
X488039Y308573D01*
X488397Y307708D01*
X488966Y306966D01*
X489708Y306397D01*
X490573Y306039D01*
X491500Y305917D01*
X492427Y306039D01*
X493292Y306397D01*
X494034Y306966D01*
X494603Y307708D01*
X494961Y308573D01*
X495083Y309500D01*
X494961Y310427D01*
X494603Y311292D01*
X494034Y312034D01*
X493292Y312603D01*
X492427Y312961D01*
X491500Y313083D01*
D02*
G37*
G36*
X481500D02*
X480573Y312961D01*
X479708Y312603D01*
X478966Y312034D01*
X478397Y311292D01*
X478039Y310427D01*
X477917Y309500D01*
X478039Y308573D01*
X478397Y307708D01*
X478966Y306966D01*
X479708Y306397D01*
X480573Y306039D01*
X481500Y305917D01*
X482428Y306039D01*
X483292Y306397D01*
X484034Y306966D01*
X484603Y307708D01*
X484961Y308573D01*
X485083Y309500D01*
X484961Y310427D01*
X484603Y311292D01*
X484034Y312034D01*
X483292Y312603D01*
X482428Y312961D01*
X481500Y313083D01*
D02*
G37*
G36*
X540500Y318015D02*
X538839Y317851D01*
X537241Y317367D01*
X535769Y316580D01*
X534479Y315521D01*
X533420Y314231D01*
X532633Y312759D01*
X532149Y311161D01*
X531985Y309500D01*
X532149Y307839D01*
X532633Y306241D01*
X533420Y304769D01*
X534479Y303479D01*
X535769Y302420D01*
X537241Y301633D01*
X538839Y301149D01*
X540500Y300985D01*
X542161Y301149D01*
X543759Y301633D01*
X545231Y302420D01*
X546521Y303479D01*
X547580Y304769D01*
X548367Y306241D01*
X548851Y307839D01*
X549015Y309500D01*
X548851Y311161D01*
X548367Y312759D01*
X547580Y314231D01*
X546521Y315521D01*
X545231Y316580D01*
X543759Y317367D01*
X542161Y317851D01*
X540500Y318015D01*
D02*
G37*
G36*
X256500D02*
X254839Y317851D01*
X253241Y317367D01*
X251769Y316580D01*
X250479Y315521D01*
X249420Y314231D01*
X248633Y312759D01*
X248149Y311161D01*
X247985Y309500D01*
X248149Y307839D01*
X248633Y306241D01*
X249420Y304769D01*
X250479Y303479D01*
X251769Y302420D01*
X253241Y301633D01*
X254839Y301149D01*
X256500Y300985D01*
X258161Y301149D01*
X259759Y301633D01*
X261231Y302420D01*
X262521Y303479D01*
X263580Y304769D01*
X264367Y306241D01*
X264851Y307839D01*
X265015Y309500D01*
X264851Y311161D01*
X264367Y312759D01*
X263580Y314231D01*
X262521Y315521D01*
X261231Y316580D01*
X259759Y317367D01*
X258161Y317851D01*
X256500Y318015D01*
D02*
G37*
%LPD*%
G36*
X520777Y449108D02*
X520486Y448914D01*
X520022Y448219D01*
X519859Y447400D01*
Y440649D01*
X519360Y440397D01*
X519141Y440560D01*
Y447400D01*
X518978Y448219D01*
X518514Y448914D01*
X517819Y449378D01*
X517000Y449541D01*
X516181Y449378D01*
X515486Y448914D01*
X515022Y448219D01*
X514859Y447400D01*
Y445123D01*
X506448D01*
X506362Y445193D01*
X506136Y445623D01*
X506370Y446191D01*
X506477Y447000D01*
X506370Y447809D01*
X506230Y448149D01*
X508920Y450840D01*
X520777D01*
Y449108D01*
D02*
G37*
D45*
X302000Y391256D02*
D03*
Y385744D02*
D03*
X412500Y391256D02*
D03*
Y385744D02*
D03*
X522000Y391756D02*
D03*
Y386244D02*
D03*
D47*
X520063Y433000D02*
D03*
X527937D02*
D03*
D64*
X539500Y452063D02*
D03*
Y459937D02*
D03*
D71*
X330563Y445949D02*
Y462329D01*
X330105Y462787D02*
X330563Y462329D01*
X319500Y354000D02*
X320989Y352511D01*
X296000Y354000D02*
X319500D01*
X288500Y369500D02*
Y386370D01*
X293386Y391256D01*
X302000D01*
X527000Y440887D02*
X527832Y440056D01*
X527000Y440887D02*
Y443900D01*
X527832Y440056D02*
X528287D01*
X535500Y432843D01*
Y416093D02*
Y432843D01*
X531374Y411967D02*
X535500Y416093D01*
X509160Y411967D02*
X531374D01*
X501000Y420127D02*
X509160Y411967D01*
X529203Y385457D02*
X540503D01*
X498500Y338045D02*
X528500Y368045D01*
Y384754D02*
X529203Y385457D01*
X528500Y368045D02*
Y384754D01*
X544839Y389918D02*
X546728Y391807D01*
Y412777D01*
X544839Y389610D02*
Y389918D01*
X544805Y400980D02*
Y403356D01*
X537588Y393763D02*
X544805Y400980D01*
X456500Y400055D02*
X479645Y423200D01*
X499198Y472589D02*
Y480802D01*
X487500Y492500D02*
X499198Y480802D01*
Y472589D02*
X503350Y468436D01*
X330500Y492500D02*
X487500D01*
X515196Y386244D02*
Y386761D01*
Y384673D02*
Y386244D01*
X323500Y485500D02*
X330500Y492500D01*
X323500Y484500D02*
Y485500D01*
X508439Y319000D02*
X517939Y309500D01*
X495000Y319000D02*
X508439D01*
X501000Y420127D02*
Y420500D01*
X479645Y423200D02*
X491800D01*
X492000Y423000D01*
X502637Y440426D02*
X506112Y443900D01*
X524256Y388500D02*
X531116D01*
X536379Y393763D01*
X522197Y386244D02*
X523172Y387219D01*
Y387416D01*
X524256Y388500D01*
X515586Y386244D02*
X522197D01*
X540503Y385457D02*
X541609Y386564D01*
Y386628D01*
X542279Y387298D01*
Y389610D01*
X536379Y393763D02*
X537588D01*
X544805Y403356D02*
X544839Y403390D01*
X541173Y407543D02*
X542245Y406470D01*
Y403424D02*
Y406470D01*
X530126Y407543D02*
X541173D01*
X542245Y403424D02*
X542279Y403390D01*
X515196Y404752D02*
X527335D01*
X530126Y407543D01*
X496500Y460500D02*
X503350Y467350D01*
X496500Y403838D02*
Y460500D01*
X503350Y467350D02*
Y468436D01*
X514024Y387933D02*
X515196Y386761D01*
X505386Y394952D02*
X512405Y387933D01*
X514024D01*
X505386Y394952D02*
X505386D01*
X496500Y403838D02*
X505386Y394952D01*
X503350Y447000D02*
X508413Y452063D01*
X506112Y443900D02*
X517000D01*
X294996Y404555D02*
X316050Y383502D01*
X392104Y384673D02*
Y385854D01*
X316050Y383502D02*
X390932D01*
X392104Y384673D01*
X314798Y381702D02*
X396202D01*
X400244Y385744D01*
X310756D02*
X314798Y381702D01*
X400244Y385744D02*
X404986D01*
X405096Y385854D01*
X424519Y381702D02*
X506080D01*
X420476Y385744D02*
X424519Y381702D01*
X506080D02*
X507880Y383502D01*
X514024D01*
X515196Y384673D01*
X412500Y385744D02*
X420476D01*
X423797Y385854D02*
X502204D01*
X405096Y404555D02*
X423797Y385854D01*
X302000Y385744D02*
X310756D01*
X282004Y386248D02*
Y396227D01*
Y385854D02*
Y386248D01*
X277300Y428357D02*
X285566Y420091D01*
X292863Y463863D02*
X313500Y484500D01*
X285566Y399789D02*
Y420091D01*
X292504Y463863D02*
X292863D01*
X282004Y396227D02*
X285566Y399789D01*
X277300Y448659D02*
X292504Y463863D01*
X277300Y428357D02*
Y448659D01*
X294996Y404555D02*
Y404752D01*
X405096Y404555D02*
Y404752D01*
X295106Y385744D02*
X302000D01*
X294996Y385854D02*
X295106Y385744D01*
X405206D02*
X412500D01*
X405096Y385854D02*
X405206Y385744D01*
X522000Y467500D02*
Y476847D01*
X526063Y459937D02*
X539500D01*
X522000Y464000D02*
X526063Y459937D01*
X522000Y464000D02*
Y467500D01*
X527937Y427937D02*
Y433000D01*
X518500Y418500D02*
X527937Y427937D01*
X508413Y452063D02*
X522000D01*
X539500D01*
X522000Y443900D02*
Y452063D01*
X520063Y433000D02*
Y437753D01*
X517000Y440816D02*
X520063Y437753D01*
X517000Y440816D02*
Y443900D01*
X397791Y431000D02*
X408290Y420500D01*
X409000D01*
X336500Y431000D02*
X397791D01*
X332051Y435449D02*
X336500Y431000D01*
X396453Y435449D02*
X407302Y424600D01*
X338437Y435449D02*
X396453D01*
X321769D02*
X332051D01*
X400000Y335000D02*
X482202D01*
X399500Y334500D02*
X400000Y335000D01*
X512702Y365500D02*
X513000D01*
X482202Y335000D02*
X512702Y365500D01*
X461500Y309500D02*
X462500D01*
X508000Y355000D01*
X517939Y309500D02*
X521500D01*
X407302Y424600D02*
X417900D01*
X418000Y424500D01*
D74*
X508500Y418500D02*
D03*
X518500D02*
D03*
X528500D02*
D03*
X461500Y309500D02*
D03*
X471500D02*
D03*
X481500D02*
D03*
X491500D02*
D03*
X511500D02*
D03*
X501500D02*
D03*
X503350Y458436D02*
D03*
Y468436D02*
D03*
Y478436D02*
D03*
X483500Y474500D02*
D03*
X473500Y484500D02*
D03*
Y474500D02*
D03*
X463500Y484500D02*
D03*
Y474500D02*
D03*
X453500Y484500D02*
D03*
Y474500D02*
D03*
X443500Y484500D02*
D03*
Y474500D02*
D03*
X433500Y484500D02*
D03*
Y474500D02*
D03*
X423500Y484500D02*
D03*
Y474500D02*
D03*
X413500Y484500D02*
D03*
Y474500D02*
D03*
X403500Y484500D02*
D03*
Y474500D02*
D03*
X393500Y484500D02*
D03*
Y474500D02*
D03*
X383500Y484500D02*
D03*
Y474500D02*
D03*
X373500Y484500D02*
D03*
Y474500D02*
D03*
X363500Y484500D02*
D03*
Y474500D02*
D03*
X353500Y484500D02*
D03*
Y474500D02*
D03*
X343500Y484500D02*
D03*
Y474500D02*
D03*
X333500Y484500D02*
D03*
Y474500D02*
D03*
X323500Y484500D02*
D03*
Y474500D02*
D03*
X313500Y484500D02*
D03*
Y474500D02*
D03*
D75*
X521500Y309500D02*
D03*
X483500Y484500D02*
D03*
D76*
X286000Y469000D02*
D03*
Y445378D02*
D03*
D77*
X393110Y305500D02*
D03*
X330105Y462787D02*
D03*
X320989Y352511D02*
D03*
X299000Y323500D02*
D03*
X546728Y412777D02*
D03*
X288500Y369500D02*
D03*
X456500Y400055D02*
D03*
X498500Y338045D02*
D03*
X495000Y319000D02*
D03*
X472500Y341000D02*
D03*
X501000Y420500D02*
D03*
X492000Y423000D02*
D03*
X481177Y419500D02*
D03*
X502637Y440426D02*
D03*
X503350Y447000D02*
D03*
X522000Y476847D02*
D03*
X373982Y345825D02*
D03*
X300500Y346325D02*
D03*
X296000Y354000D02*
D03*
X399500Y334500D02*
D03*
X513000Y365500D02*
D03*
X508000Y355000D02*
D03*
X425500Y418500D02*
D03*
X409000Y420500D02*
D03*
X418000Y424500D02*
D03*
D78*
X540500Y481500D02*
D03*
X256500Y309500D02*
D03*
X540500D02*
D03*
X256500Y481500D02*
D03*
D79*
X321769Y435449D02*
D03*
X338437D02*
D03*
X330563Y445949D02*
D03*
D80*
X544839Y389610D02*
D03*
X542279D02*
D03*
X539720D02*
D03*
X537161D02*
D03*
Y403390D02*
D03*
X539720D02*
D03*
X542279D02*
D03*
X544839D02*
D03*
D81*
X282004Y404752D02*
D03*
X294996D02*
D03*
X282004Y386248D02*
D03*
X294996D02*
D03*
X392104Y404752D02*
D03*
X405096D02*
D03*
X392104Y386248D02*
D03*
X405096D02*
D03*
X502204Y404752D02*
D03*
X515196D02*
D03*
X502204Y386248D02*
D03*
X515196D02*
D03*
D82*
X282004Y405146D02*
D03*
X294996D02*
D03*
X282004Y385854D02*
D03*
X294996D02*
D03*
X392104Y405146D02*
D03*
X405096D02*
D03*
X392104Y385854D02*
D03*
X405096D02*
D03*
X502204Y405146D02*
D03*
X515196D02*
D03*
X502204Y385854D02*
D03*
X515196D02*
D03*
D83*
X517000Y467500D02*
D03*
D84*
X522000D02*
D03*
X527000D02*
D03*
X532000D02*
D03*
X517000Y443900D02*
D03*
X522000D02*
D03*
X527000D02*
D03*
X532000D02*
D03*
M02*
