G04*
G04 #@! TF.GenerationSoftware,Altium Limited,Altium Designer,21.0.8 (223)*
G04*
G04 Layer_Physical_Order=2*
G04 Layer_Color=16711680*
%FSLAX25Y25*%
%MOIN*%
G70*
G04*
G04 #@! TF.SameCoordinates,2B0E51DB-16DA-4BED-BE65-32D912633A35*
G04*
G04*
G04 #@! TF.FilePolarity,Positive*
G04*
G01*
G75*
%ADD59C,0.01200*%
%ADD60C,0.02500*%
%ADD61C,0.00800*%
%ADD62C,0.05906*%
%ADD63R,0.05906X0.05906*%
G04:AMPARAMS|DCode=64|XSize=150mil|YSize=78.74mil|CornerRadius=19.68mil|HoleSize=0mil|Usage=FLASHONLY|Rotation=0.000|XOffset=0mil|YOffset=0mil|HoleType=Round|Shape=RoundedRectangle|*
%AMROUNDEDRECTD64*
21,1,0.15000,0.03937,0,0,0.0*
21,1,0.11063,0.07874,0,0,0.0*
1,1,0.03937,0.05531,-0.01968*
1,1,0.03937,-0.05531,-0.01968*
1,1,0.03937,-0.05531,0.01968*
1,1,0.03937,0.05531,0.01968*
%
%ADD64ROUNDEDRECTD64*%
%ADD65C,0.05512*%
%ADD66C,0.06900*%
%ADD67R,0.05906X0.05906*%
%ADD68C,0.04000*%
%ADD69C,0.07087*%
%ADD70C,0.15748*%
%ADD71R,0.03150X0.03543*%
%ADD72R,0.05118X0.04724*%
%ADD73R,0.05906X0.03543*%
G36*
X552379Y298122D02*
X244621D01*
Y492878D01*
X552378D01*
X552379Y298122D01*
D02*
G37*
%LPC*%
G36*
X432053Y488053D02*
X424947D01*
Y480947D01*
X432053D01*
Y488053D01*
D02*
G37*
G36*
X418500Y488083D02*
X417572Y487961D01*
X416708Y487603D01*
X415966Y487034D01*
X415397Y486292D01*
X415039Y485428D01*
X414917Y484500D01*
X415039Y483572D01*
X415358Y482800D01*
X402779Y470221D01*
X402558Y469890D01*
X402480Y469500D01*
Y442000D01*
X402558Y441610D01*
X402779Y441279D01*
X406213Y437845D01*
Y432892D01*
X405921Y432771D01*
X405378Y432354D01*
X404961Y431811D01*
X404699Y431179D01*
X404610Y430500D01*
X404699Y429821D01*
X404961Y429189D01*
X405378Y428646D01*
X405921Y428229D01*
X406554Y427967D01*
X407232Y427878D01*
X407911Y427967D01*
X408544Y428229D01*
X409087Y428646D01*
X409504Y429189D01*
X409765Y429821D01*
X409855Y430500D01*
X409765Y431179D01*
X409504Y431811D01*
X409087Y432354D01*
X408544Y432771D01*
X408252Y432892D01*
Y438268D01*
X408174Y438658D01*
X407953Y438989D01*
X404520Y442422D01*
Y469078D01*
X416800Y481358D01*
X417572Y481039D01*
X418500Y480917D01*
X419427Y481039D01*
X420292Y481397D01*
X421034Y481966D01*
X421603Y482708D01*
X421961Y483572D01*
X422083Y484500D01*
X421961Y485428D01*
X421603Y486292D01*
X421034Y487034D01*
X420292Y487603D01*
X419427Y487961D01*
X418500Y488083D01*
D02*
G37*
G36*
X408500D02*
X407573Y487961D01*
X406708Y487603D01*
X405966Y487034D01*
X405397Y486292D01*
X405039Y485428D01*
X404917Y484500D01*
X405039Y483572D01*
X405397Y482708D01*
X405966Y481966D01*
X406708Y481397D01*
X407573Y481039D01*
X408500Y480917D01*
X409427Y481039D01*
X410292Y481397D01*
X411034Y481966D01*
X411603Y482708D01*
X411961Y483572D01*
X412083Y484500D01*
X411961Y485428D01*
X411603Y486292D01*
X411034Y487034D01*
X410292Y487603D01*
X409427Y487961D01*
X408500Y488083D01*
D02*
G37*
G36*
X398500D02*
X397573Y487961D01*
X396708Y487603D01*
X395966Y487034D01*
X395397Y486292D01*
X395039Y485428D01*
X394917Y484500D01*
X395039Y483572D01*
X395274Y483004D01*
X346579Y434309D01*
X309347D01*
X308879Y434216D01*
X308482Y433951D01*
X276635Y402104D01*
X273934D01*
X273742Y402566D01*
X300678Y429502D01*
X300890Y429414D01*
X301569Y429324D01*
X302248Y429414D01*
X302880Y429676D01*
X303423Y430092D01*
X303840Y430636D01*
X304102Y431268D01*
X304191Y431947D01*
X304102Y432626D01*
X303840Y433258D01*
X303423Y433801D01*
X302880Y434218D01*
X302248Y434480D01*
X301569Y434569D01*
X300890Y434480D01*
X300258Y434218D01*
X299715Y433801D01*
X299298Y433258D01*
X299036Y432626D01*
X298946Y431947D01*
X299030Y431314D01*
X269991Y402276D01*
X269726Y401878D01*
X269633Y401410D01*
Y396873D01*
X269726Y396405D01*
X269991Y396008D01*
X274180Y391820D01*
Y389112D01*
X272244D01*
Y388521D01*
X271457D01*
Y383778D01*
X272244D01*
Y383187D01*
X273212D01*
Y378517D01*
X272260D01*
Y373774D01*
X276610D01*
Y378517D01*
X275659D01*
Y383187D01*
X278562D01*
Y389112D01*
X276626D01*
Y392326D01*
X276533Y392795D01*
X276268Y393192D01*
X273742Y395718D01*
X273934Y396179D01*
X278562D01*
Y400570D01*
X309854Y431862D01*
X347086D01*
X347554Y431955D01*
X347951Y432221D01*
X397004Y481274D01*
X397573Y481039D01*
X398500Y480917D01*
X399427Y481039D01*
X400292Y481397D01*
X401034Y481966D01*
X401603Y482708D01*
X401961Y483572D01*
X402083Y484500D01*
X401961Y485428D01*
X401603Y486292D01*
X401034Y487034D01*
X400292Y487603D01*
X399427Y487961D01*
X398500Y488083D01*
D02*
G37*
G36*
X388500D02*
X387573Y487961D01*
X386708Y487603D01*
X385966Y487034D01*
X385397Y486292D01*
X385039Y485428D01*
X384917Y484500D01*
X385039Y483572D01*
X385397Y482708D01*
X385966Y481966D01*
X386708Y481397D01*
X387573Y481039D01*
X388500Y480917D01*
X389427Y481039D01*
X390292Y481397D01*
X391034Y481966D01*
X391603Y482708D01*
X391961Y483572D01*
X392083Y484500D01*
X391961Y485428D01*
X391603Y486292D01*
X391034Y487034D01*
X390292Y487603D01*
X389427Y487961D01*
X388500Y488083D01*
D02*
G37*
G36*
X368500D02*
X367573Y487961D01*
X366708Y487603D01*
X365966Y487034D01*
X365397Y486292D01*
X365039Y485428D01*
X364917Y484500D01*
X365039Y483572D01*
X365397Y482708D01*
X365966Y481966D01*
X366708Y481397D01*
X367573Y481039D01*
X368500Y480917D01*
X369427Y481039D01*
X370292Y481397D01*
X371034Y481966D01*
X371603Y482708D01*
X371961Y483572D01*
X372083Y484500D01*
X371961Y485428D01*
X371603Y486292D01*
X371034Y487034D01*
X370292Y487603D01*
X369427Y487961D01*
X368500Y488083D01*
D02*
G37*
G36*
X256500Y490015D02*
X254839Y489851D01*
X253241Y489367D01*
X251769Y488580D01*
X250479Y487521D01*
X249420Y486231D01*
X248633Y484759D01*
X248149Y483161D01*
X247985Y481500D01*
X248149Y479839D01*
X248633Y478241D01*
X249420Y476769D01*
X250479Y475479D01*
X251769Y474420D01*
X253241Y473633D01*
X254839Y473149D01*
X256500Y472985D01*
X258161Y473149D01*
X259759Y473633D01*
X261231Y474420D01*
X262521Y475479D01*
X263580Y476769D01*
X264367Y478241D01*
X264851Y479839D01*
X265015Y481500D01*
X264851Y483161D01*
X264367Y484759D01*
X263580Y486231D01*
X262521Y487521D01*
X261231Y488580D01*
X259759Y489367D01*
X258161Y489851D01*
X256500Y490015D01*
D02*
G37*
G36*
X487000Y455083D02*
X486072Y454961D01*
X485208Y454603D01*
X484466Y454034D01*
X483897Y453292D01*
X483539Y452427D01*
X483417Y451500D01*
X483539Y450572D01*
X483897Y449708D01*
X484466Y448966D01*
X485208Y448397D01*
X486072Y448039D01*
X487000Y447917D01*
X487927Y448039D01*
X488792Y448397D01*
X489534Y448966D01*
X490103Y449708D01*
X490461Y450572D01*
X490583Y451500D01*
X490461Y452427D01*
X490103Y453292D01*
X489534Y454034D01*
X488792Y454603D01*
X487927Y454961D01*
X487000Y455083D01*
D02*
G37*
G36*
Y445083D02*
X486072Y444961D01*
X485208Y444603D01*
X484466Y444034D01*
X483897Y443292D01*
X483539Y442427D01*
X483417Y441500D01*
X483539Y440573D01*
X483897Y439708D01*
X484466Y438966D01*
X485208Y438397D01*
X486072Y438039D01*
X487000Y437917D01*
X487927Y438039D01*
X488792Y438397D01*
X489534Y438966D01*
X490103Y439708D01*
X490461Y440573D01*
X490583Y441500D01*
X490461Y442427D01*
X490103Y443292D01*
X489534Y444034D01*
X488792Y444603D01*
X487927Y444961D01*
X487000Y445083D01*
D02*
G37*
G36*
X293032Y444437D02*
X281968D01*
X281298Y444349D01*
X280673Y444090D01*
X280137Y443678D01*
X279725Y443142D01*
X279466Y442517D01*
X279378Y441847D01*
Y437909D01*
X279466Y437239D01*
X279725Y436614D01*
X280137Y436078D01*
X280673Y435666D01*
X281298Y435407D01*
X281968Y435319D01*
X293032D01*
X293702Y435407D01*
X294327Y435666D01*
X294863Y436078D01*
X295275Y436614D01*
X295534Y437239D01*
X295622Y437909D01*
Y441847D01*
X295534Y442517D01*
X295275Y443142D01*
X294863Y443678D01*
X294327Y444090D01*
X293702Y444349D01*
X293032Y444437D01*
D02*
G37*
G36*
X432000Y450122D02*
X431321Y450033D01*
X430689Y449771D01*
X430146Y449354D01*
X429729Y448811D01*
X429467Y448179D01*
X429378Y447500D01*
X429467Y446821D01*
X429729Y446189D01*
X430146Y445646D01*
X430689Y445229D01*
X430777Y445193D01*
Y418000D01*
X430870Y417532D01*
X431135Y417135D01*
X456923Y391347D01*
X456878Y391000D01*
X456967Y390321D01*
X457229Y389689D01*
X457646Y389146D01*
X458189Y388729D01*
X458821Y388467D01*
X459500Y388378D01*
X460179Y388467D01*
X460811Y388729D01*
X461354Y389146D01*
X461771Y389689D01*
X462033Y390321D01*
X462122Y391000D01*
X462033Y391679D01*
X461771Y392311D01*
X461354Y392854D01*
X460811Y393271D01*
X460179Y393533D01*
X459500Y393622D01*
X458821Y393533D01*
X458380Y393350D01*
X438403Y413327D01*
X438689Y413729D01*
X439321Y413467D01*
X440000Y413378D01*
X440679Y413467D01*
X441311Y413729D01*
X441854Y414146D01*
X442271Y414689D01*
X442307Y414777D01*
X452493D01*
X465431Y401839D01*
X465828Y401573D01*
X466296Y401480D01*
X498993D01*
Y398500D01*
X487865Y387373D01*
X411622D01*
Y388521D01*
X410834D01*
Y389112D01*
X404516D01*
Y383187D01*
X410834D01*
Y383778D01*
X411622D01*
Y384926D01*
X441069D01*
X441239Y384426D01*
X441146Y384354D01*
X440729Y383811D01*
X440467Y383179D01*
X440378Y382500D01*
X440467Y381821D01*
X440729Y381189D01*
X441146Y380646D01*
X441689Y380229D01*
X442321Y379967D01*
X442676Y379920D01*
Y364465D01*
X442203Y364304D01*
X442138Y364388D01*
X441292Y365038D01*
X440307Y365446D01*
X439250Y365585D01*
X438193Y365446D01*
X437208Y365038D01*
X436362Y364388D01*
X435712Y363543D01*
X435666Y363430D01*
X435166Y363529D01*
Y378828D01*
X435253Y378864D01*
X435797Y379281D01*
X436213Y379824D01*
X436475Y380456D01*
X436565Y381135D01*
X436475Y381814D01*
X436213Y382446D01*
X435797Y382990D01*
X435253Y383406D01*
X434621Y383668D01*
X433942Y383758D01*
X433263Y383668D01*
X432631Y383406D01*
X432088Y382990D01*
X431671Y382446D01*
X431409Y381814D01*
X431320Y381135D01*
X431409Y380456D01*
X431671Y379824D01*
X432088Y379281D01*
X432631Y378864D01*
X432719Y378828D01*
Y343906D01*
X400888Y312075D01*
X400419Y312269D01*
X399543Y312385D01*
X398667Y312269D01*
X397851Y311931D01*
X397150Y311393D01*
X396612Y310692D01*
X396274Y309876D01*
X396158Y309000D01*
X396274Y308124D01*
X396612Y307308D01*
X397150Y306607D01*
X397851Y306069D01*
X398667Y305731D01*
X399543Y305615D01*
X400419Y305731D01*
X401236Y306069D01*
X401937Y306607D01*
X402475Y307308D01*
X402813Y308124D01*
X402928Y309000D01*
X402813Y309876D01*
X402619Y310345D01*
X434807Y342534D01*
X435073Y342931D01*
X435166Y343399D01*
Y359471D01*
X435666Y359570D01*
X435712Y359457D01*
X436362Y358611D01*
X437208Y357962D01*
X438193Y357554D01*
X439250Y357415D01*
X440307Y357554D01*
X441292Y357962D01*
X442138Y358611D01*
X442203Y358696D01*
X442676Y358535D01*
Y323893D01*
X441705Y322922D01*
X440949Y323022D01*
X439867Y322879D01*
X438859Y322462D01*
X437994Y321798D01*
X437330Y320932D01*
X436912Y319924D01*
X436770Y318843D01*
X436912Y317761D01*
X437330Y316753D01*
X437994Y315887D01*
X438859Y315223D01*
X439867Y314806D01*
X440949Y314664D01*
X442030Y314806D01*
X443038Y315223D01*
X443904Y315887D01*
X444568Y316753D01*
X444985Y317761D01*
X445128Y318843D01*
X444985Y319924D01*
X444568Y320932D01*
X443963Y321720D01*
X444765Y322521D01*
X445030Y322918D01*
X445123Y323387D01*
Y380842D01*
X445099Y380965D01*
X445271Y381189D01*
X445533Y381821D01*
X445622Y382500D01*
X445533Y383179D01*
X445271Y383811D01*
X444854Y384354D01*
X444761Y384426D01*
X444931Y384926D01*
X488372D01*
X488840Y385019D01*
X489237Y385284D01*
X500133Y396179D01*
X506098D01*
Y401480D01*
X507289D01*
X518261Y390509D01*
Y387321D01*
X518284Y387203D01*
Y383187D01*
X524602D01*
Y383778D01*
X525390D01*
Y388521D01*
X524602D01*
Y389112D01*
X520708D01*
Y391016D01*
X520614Y391484D01*
X520349Y391881D01*
X508661Y403569D01*
X508264Y403834D01*
X507796Y403927D01*
X466803D01*
X453865Y416865D01*
X453468Y417130D01*
X453000Y417224D01*
X442307D01*
X442271Y417311D01*
X441854Y417854D01*
X441311Y418271D01*
X440679Y418533D01*
X440000Y418622D01*
X439321Y418533D01*
X438689Y418271D01*
X438146Y417854D01*
X437729Y417311D01*
X437467Y416679D01*
X437378Y416000D01*
X437467Y415321D01*
X437729Y414689D01*
X437327Y414403D01*
X433223Y418507D01*
Y423602D01*
X433723Y423702D01*
X433729Y423689D01*
X434146Y423146D01*
X434689Y422729D01*
X435321Y422467D01*
X436000Y422378D01*
X436679Y422467D01*
X436766Y422503D01*
X438635Y420635D01*
X439032Y420370D01*
X439500Y420276D01*
X483447D01*
Y417947D01*
X490553D01*
Y425053D01*
X483447D01*
Y422723D01*
X440007D01*
X438497Y424234D01*
X438533Y424321D01*
X438622Y425000D01*
X438533Y425679D01*
X438271Y426311D01*
X437854Y426854D01*
X437311Y427271D01*
X436779Y427492D01*
X436747Y427646D01*
Y427854D01*
X436779Y428009D01*
X437311Y428229D01*
X437854Y428646D01*
X438271Y429189D01*
X438515Y429776D01*
X483868D01*
X483897Y429708D01*
X484466Y428966D01*
X485208Y428397D01*
X486072Y428039D01*
X487000Y427917D01*
X487927Y428039D01*
X488792Y428397D01*
X489534Y428966D01*
X490103Y429708D01*
X490461Y430573D01*
X490583Y431500D01*
X490461Y432428D01*
X490103Y433292D01*
X489534Y434034D01*
X488792Y434603D01*
X487927Y434961D01*
X487000Y435083D01*
X486072Y434961D01*
X485208Y434603D01*
X484466Y434034D01*
X483897Y433292D01*
X483539Y432428D01*
X483512Y432224D01*
X437955D01*
X437854Y432354D01*
X437311Y432771D01*
X436679Y433033D01*
X436000Y433122D01*
X435321Y433033D01*
X434689Y432771D01*
X434146Y432354D01*
X433729Y431811D01*
X433723Y431798D01*
X433223Y431898D01*
Y445193D01*
X433311Y445229D01*
X433854Y445646D01*
X434271Y446189D01*
X434533Y446821D01*
X434622Y447500D01*
X434533Y448179D01*
X434271Y448811D01*
X433854Y449354D01*
X433311Y449771D01*
X432679Y450033D01*
X432000Y450122D01*
D02*
G37*
G36*
X408500Y451122D02*
X407821Y451033D01*
X407189Y450771D01*
X406646Y450354D01*
X406229Y449811D01*
X405967Y449179D01*
X405878Y448500D01*
X405967Y447821D01*
X406229Y447189D01*
X406646Y446646D01*
X407189Y446229D01*
X407821Y445967D01*
X408500Y445878D01*
X409179Y445967D01*
X409266Y446003D01*
X410777Y444493D01*
Y413628D01*
X410335Y413289D01*
X409918Y412746D01*
X409656Y412113D01*
X409566Y411434D01*
X409656Y410756D01*
X409918Y410123D01*
X410335Y409580D01*
X410878Y409163D01*
X411510Y408901D01*
X412189Y408812D01*
X412868Y408901D01*
X413500Y409163D01*
X414043Y409580D01*
X414460Y410123D01*
X414722Y410756D01*
X414811Y411434D01*
X414722Y412113D01*
X414460Y412746D01*
X414043Y413289D01*
X413500Y413705D01*
X413224Y413820D01*
Y445000D01*
X413130Y445468D01*
X412865Y445865D01*
X410997Y447734D01*
X411033Y447821D01*
X411122Y448500D01*
X411033Y449179D01*
X410771Y449811D01*
X410354Y450354D01*
X409811Y450771D01*
X409179Y451033D01*
X408500Y451122D01*
D02*
G37*
G36*
X395499Y403122D02*
X394820Y403033D01*
X394187Y402771D01*
X393644Y402354D01*
X393228Y401811D01*
X392966Y401179D01*
X392876Y400500D01*
X392966Y399821D01*
X393228Y399189D01*
X393644Y398646D01*
X394083Y398309D01*
Y397207D01*
X388148Y391272D01*
X387648Y391479D01*
Y396179D01*
X392330D01*
Y402104D01*
X386012D01*
Y401513D01*
X385225D01*
Y398088D01*
X385201Y397970D01*
Y390528D01*
X384941Y390268D01*
X384859Y390251D01*
X384462Y389986D01*
X383759Y389283D01*
X383494Y388886D01*
X383454Y388684D01*
X366993Y372223D01*
X311138D01*
X297853Y385508D01*
Y388521D01*
X297066D01*
Y389112D01*
X290748D01*
Y383187D01*
X296714D01*
X309766Y370135D01*
X310163Y369870D01*
X310631Y369777D01*
X367500D01*
X367968Y369870D01*
X368365Y370135D01*
X384763Y386532D01*
X385225Y386341D01*
Y383778D01*
X386012D01*
Y383187D01*
X386432D01*
Y378517D01*
X385481D01*
Y373774D01*
X389831D01*
Y378517D01*
X388879D01*
Y383187D01*
X392330D01*
Y389112D01*
X390001D01*
Y389664D01*
X396171Y395835D01*
X396437Y396232D01*
X396530Y396700D01*
Y398113D01*
X396810Y398229D01*
X397353Y398646D01*
X397770Y399189D01*
X398032Y399821D01*
X398121Y400500D01*
X398032Y401179D01*
X397770Y401811D01*
X397353Y402354D01*
X396810Y402771D01*
X396177Y403033D01*
X395499Y403122D01*
D02*
G37*
G36*
X509913Y390233D02*
X509235Y390144D01*
X508602Y389882D01*
X508059Y389465D01*
X507642Y388922D01*
X507380Y388290D01*
X507291Y387611D01*
X506842Y387373D01*
X506098D01*
Y389112D01*
X499780D01*
Y388521D01*
X498993D01*
Y383778D01*
X499780D01*
Y383187D01*
X500212D01*
Y378517D01*
X499261D01*
Y373774D01*
X503610D01*
Y378517D01*
X502659D01*
Y383187D01*
X506098D01*
Y384926D01*
X507694D01*
X508163Y385019D01*
X508560Y385284D01*
X508611Y385336D01*
X509235Y385078D01*
X509913Y384988D01*
X510592Y385078D01*
X511225Y385340D01*
X511768Y385756D01*
X512184Y386300D01*
X512446Y386932D01*
X512536Y387611D01*
X512446Y388290D01*
X512184Y388922D01*
X511768Y389465D01*
X511225Y389882D01*
X510592Y390144D01*
X509913Y390233D01*
D02*
G37*
G36*
X366708Y444330D02*
X366030Y444240D01*
X365397Y443978D01*
X364854Y443561D01*
X364437Y443018D01*
X364175Y442386D01*
X364086Y441707D01*
X364175Y441028D01*
X364437Y440396D01*
X364718Y440030D01*
Y380520D01*
X364646Y380465D01*
X364229Y379922D01*
X363967Y379289D01*
X363878Y378610D01*
X363967Y377932D01*
X364229Y377299D01*
X364646Y376756D01*
X365189Y376339D01*
X365821Y376078D01*
X366500Y375988D01*
X367179Y376078D01*
X367811Y376339D01*
X368354Y376756D01*
X368771Y377299D01*
X369033Y377932D01*
X369122Y378610D01*
X369033Y379289D01*
X368771Y379922D01*
X368490Y380288D01*
Y439797D01*
X368563Y439853D01*
X368979Y440396D01*
X369241Y441028D01*
X369331Y441707D01*
X369241Y442386D01*
X368979Y443018D01*
X368563Y443561D01*
X368020Y443978D01*
X367387Y444240D01*
X366708Y444330D01*
D02*
G37*
G36*
X468750Y365585D02*
X467693Y365446D01*
X466708Y365038D01*
X465862Y364388D01*
X465212Y363543D01*
X464804Y362557D01*
X464665Y361500D01*
X464804Y360443D01*
X465212Y359457D01*
X465862Y358611D01*
X466708Y357962D01*
X467693Y357554D01*
X468750Y357415D01*
X469807Y357554D01*
X470792Y357962D01*
X471638Y358611D01*
X472288Y359457D01*
X472696Y360443D01*
X472835Y361500D01*
X472696Y362557D01*
X472288Y363543D01*
X471638Y364388D01*
X470792Y365038D01*
X469807Y365446D01*
X468750Y365585D01*
D02*
G37*
G36*
X514736Y323022D02*
X513655Y322879D01*
X512647Y322462D01*
X511781Y321798D01*
X511117Y320932D01*
X510700Y319924D01*
X510557Y318843D01*
X510700Y317761D01*
X511117Y316753D01*
X511781Y315887D01*
X512647Y315223D01*
X513655Y314806D01*
X514736Y314664D01*
X515818Y314806D01*
X516826Y315223D01*
X517691Y315887D01*
X518355Y316753D01*
X518773Y317761D01*
X518915Y318843D01*
X518773Y319924D01*
X518355Y320932D01*
X517691Y321798D01*
X516826Y322462D01*
X515818Y322879D01*
X514736Y323022D01*
D02*
G37*
G36*
X468508D02*
X467426Y322879D01*
X466418Y322462D01*
X465553Y321798D01*
X464889Y320932D01*
X464471Y319924D01*
X464329Y318843D01*
X464471Y317761D01*
X464889Y316753D01*
X465553Y315887D01*
X466418Y315223D01*
X467426Y314806D01*
X468508Y314664D01*
X469590Y314806D01*
X470597Y315223D01*
X471463Y315887D01*
X472127Y316753D01*
X472544Y317761D01*
X472687Y318843D01*
X472544Y319924D01*
X472127Y320932D01*
X471463Y321798D01*
X470597Y322462D01*
X469590Y322879D01*
X468508Y323022D01*
D02*
G37*
G36*
X422280D02*
X421198Y322879D01*
X420190Y322462D01*
X419324Y321798D01*
X418660Y320932D01*
X418243Y319924D01*
X418101Y318843D01*
X418243Y317761D01*
X418660Y316753D01*
X419324Y315887D01*
X420190Y315223D01*
X421198Y314806D01*
X422280Y314664D01*
X423361Y314806D01*
X424369Y315223D01*
X425235Y315887D01*
X425899Y316753D01*
X426316Y317761D01*
X426459Y318843D01*
X426316Y319924D01*
X425899Y320932D01*
X425235Y321798D01*
X424369Y322462D01*
X423361Y322879D01*
X422280Y323022D01*
D02*
G37*
G36*
X394721D02*
X393639Y322879D01*
X392631Y322462D01*
X391765Y321798D01*
X391101Y320932D01*
X390684Y319924D01*
X390541Y318843D01*
X390684Y317761D01*
X391101Y316753D01*
X391765Y315887D01*
X392631Y315223D01*
X393639Y314806D01*
X394721Y314664D01*
X395802Y314806D01*
X396810Y315223D01*
X397675Y315887D01*
X398340Y316753D01*
X398757Y317761D01*
X398900Y318843D01*
X398757Y319924D01*
X398340Y320932D01*
X397675Y321798D01*
X396810Y322462D01*
X395802Y322879D01*
X394721Y323022D01*
D02*
G37*
G36*
X459497Y381912D02*
X458818Y381822D01*
X458186Y381560D01*
X457643Y381144D01*
X457226Y380601D01*
X456964Y379968D01*
X456874Y379289D01*
X456964Y378610D01*
X457226Y377978D01*
X457643Y377435D01*
X458186Y377018D01*
X458273Y376982D01*
Y339815D01*
X458366Y339347D01*
X458632Y338950D01*
X485095Y312486D01*
X485492Y312221D01*
X485960Y312128D01*
X487142D01*
X488925Y310345D01*
X488730Y309876D01*
X488615Y309000D01*
X488730Y308124D01*
X489069Y307308D01*
X489607Y306607D01*
X490308Y306069D01*
X491124Y305731D01*
X492000Y305615D01*
X492876Y305731D01*
X493692Y306069D01*
X494393Y306607D01*
X494931Y307308D01*
X495269Y308124D01*
X495385Y309000D01*
X495269Y309876D01*
X494931Y310692D01*
X494393Y311393D01*
X493692Y311931D01*
X492876Y312269D01*
X492000Y312385D01*
X491124Y312269D01*
X490655Y312075D01*
X488514Y314217D01*
X488351Y314325D01*
X488335Y314406D01*
X488427Y314876D01*
X489267Y315223D01*
X490132Y315887D01*
X490796Y316753D01*
X491214Y317761D01*
X491356Y318843D01*
X491214Y319924D01*
X490796Y320932D01*
X490132Y321798D01*
X489267Y322462D01*
X488259Y322879D01*
X487177Y323022D01*
X486096Y322879D01*
X485088Y322462D01*
X484222Y321798D01*
X483558Y320932D01*
X483141Y319924D01*
X482998Y318843D01*
X483018Y318694D01*
X482569Y318473D01*
X460720Y340322D01*
Y376982D01*
X460808Y377018D01*
X461351Y377435D01*
X461768Y377978D01*
X462030Y378610D01*
X462119Y379289D01*
X462030Y379968D01*
X461768Y380601D01*
X461351Y381144D01*
X460808Y381560D01*
X460176Y381822D01*
X459497Y381912D01*
D02*
G37*
G36*
X445772Y312385D02*
X444896Y312269D01*
X444079Y311931D01*
X443378Y311393D01*
X442840Y310692D01*
X442502Y309876D01*
X442387Y309000D01*
X442502Y308124D01*
X442840Y307308D01*
X443378Y306607D01*
X444079Y306069D01*
X444896Y305731D01*
X445772Y305615D01*
X446648Y305731D01*
X447464Y306069D01*
X448165Y306607D01*
X448703Y307308D01*
X449041Y308124D01*
X449157Y309000D01*
X449041Y309876D01*
X448703Y310692D01*
X448165Y311393D01*
X447464Y311931D01*
X446648Y312269D01*
X445772Y312385D01*
D02*
G37*
G36*
X540500Y318015D02*
X538839Y317851D01*
X537241Y317367D01*
X535769Y316580D01*
X534479Y315521D01*
X533420Y314231D01*
X532633Y312759D01*
X532149Y311161D01*
X531985Y309500D01*
X532149Y307839D01*
X532633Y306241D01*
X533420Y304769D01*
X534479Y303479D01*
X535769Y302420D01*
X537241Y301633D01*
X538839Y301149D01*
X540500Y300985D01*
X542161Y301149D01*
X543759Y301633D01*
X545231Y302420D01*
X546521Y303479D01*
X547580Y304769D01*
X548367Y306241D01*
X548851Y307839D01*
X549015Y309500D01*
X548851Y311161D01*
X548367Y312759D01*
X547580Y314231D01*
X546521Y315521D01*
X545231Y316580D01*
X543759Y317367D01*
X542161Y317851D01*
X540500Y318015D01*
D02*
G37*
G36*
X256500D02*
X254839Y317851D01*
X253241Y317367D01*
X251769Y316580D01*
X250479Y315521D01*
X249420Y314231D01*
X248633Y312759D01*
X248149Y311161D01*
X247985Y309500D01*
X248149Y307839D01*
X248633Y306241D01*
X249420Y304769D01*
X250479Y303479D01*
X251769Y302420D01*
X253241Y301633D01*
X254839Y301149D01*
X256500Y300985D01*
X258161Y301149D01*
X259759Y301633D01*
X261231Y302420D01*
X262521Y303479D01*
X263580Y304769D01*
X264367Y306241D01*
X264851Y307839D01*
X265015Y309500D01*
X264851Y311161D01*
X264367Y312759D01*
X263580Y314231D01*
X262521Y315521D01*
X261231Y316580D01*
X259759Y317367D01*
X258161Y317851D01*
X256500Y318015D01*
D02*
G37*
%LPD*%
D59*
X309347Y433086D02*
X347086D01*
X398500Y484500D01*
X436000Y430500D02*
X436500Y431000D01*
X486500D02*
X487000Y431500D01*
X436500Y431000D02*
X486500D01*
X436000Y425000D02*
X439500Y421500D01*
X487000D01*
X432000Y418000D02*
Y447500D01*
Y418000D02*
X459000Y391000D01*
X521443Y386150D02*
X521837D01*
X520656D02*
X521443D01*
X519484Y387321D02*
X520656Y386150D01*
X507796Y402704D02*
X519484Y391016D01*
Y387321D02*
Y391016D01*
X453000Y416000D02*
X466296Y402704D01*
X507796D01*
X488372Y386150D02*
X501365Y399142D01*
X502546D01*
X507694Y386150D02*
X509156Y387611D01*
X502939Y386150D02*
X507694D01*
X509156Y387611D02*
X509913D01*
X502546Y386150D02*
X502939D01*
X440000Y416000D02*
X453000D01*
X459000Y391000D02*
X459500D01*
X443900Y323387D02*
Y380842D01*
X443000Y381742D02*
X443900Y380842D01*
X443000Y381742D02*
Y382500D01*
X433942Y343399D02*
Y381135D01*
X399543Y309000D02*
X433942Y343399D01*
X412000Y411623D02*
X412189Y411434D01*
X412000Y411623D02*
Y445000D01*
X408069Y386150D02*
X488372D01*
X408500Y448500D02*
X412000Y445000D01*
X440949Y320435D02*
X443900Y323387D01*
X440949Y318843D02*
Y320435D01*
X459497Y339815D02*
X485960Y313351D01*
X459497Y339815D02*
Y379289D01*
X487649Y313351D02*
X492000Y309000D01*
X485960Y313351D02*
X487649D01*
X274435Y385182D02*
X275403Y386150D01*
Y392326D01*
X301393Y431947D02*
X301569D01*
X270857Y396873D02*
Y401410D01*
Y396873D02*
X275403Y392326D01*
X270857Y401410D02*
X301393Y431947D01*
X275403Y399142D02*
X275600D01*
X277362Y400904D01*
Y401101D01*
X309347Y433086D01*
X274435Y376146D02*
Y385182D01*
X388777Y386150D02*
Y390171D01*
X387656Y376146D02*
Y385028D01*
X388777Y386150D01*
X501435Y376146D02*
Y385039D01*
X502546Y386150D01*
X388777Y390171D02*
X395306Y396700D01*
Y400308D01*
X395499Y400500D01*
X384625Y388125D02*
Y388418D01*
X385525Y389121D02*
X386425Y390021D01*
X367500Y371000D02*
X384625Y388125D01*
X385328Y389121D02*
X385525D01*
X386425Y390021D02*
Y397970D01*
X384625Y388418D02*
X385328Y389121D01*
X310631Y371000D02*
X367500D01*
X295482Y386150D02*
X310631Y371000D01*
X294301Y386150D02*
X295482D01*
X387596Y399142D02*
X388777D01*
X386425Y397970D02*
X387596Y399142D01*
D60*
X366500Y378610D02*
X366604Y378715D01*
Y441603D01*
X366708Y441707D01*
D61*
X403500Y442000D02*
X407232Y438268D01*
Y430500D02*
Y438268D01*
X403500Y442000D02*
Y469500D01*
X418500Y484500D01*
D62*
X368500D02*
D03*
X378500D02*
D03*
X388500D02*
D03*
X398500D02*
D03*
X418500D02*
D03*
X408500D02*
D03*
X487000Y461500D02*
D03*
Y451500D02*
D03*
Y441500D02*
D03*
Y431500D02*
D03*
D63*
X428500Y484500D02*
D03*
D64*
X287500Y463500D02*
D03*
Y439878D02*
D03*
D65*
X492000Y309000D02*
D03*
X509913D02*
D03*
X445772D02*
D03*
X463685D02*
D03*
X399543D02*
D03*
X417457D02*
D03*
D66*
X468750Y361500D02*
D03*
X439250D02*
D03*
D67*
X487000Y421500D02*
D03*
D68*
X366708Y441707D02*
D03*
X366500Y378610D02*
D03*
X313000Y465555D02*
D03*
X327000Y437845D02*
D03*
X436000Y430500D02*
D03*
Y425000D02*
D03*
X509913Y387611D02*
D03*
X440000Y416000D02*
D03*
X418000Y439500D02*
D03*
X433942Y381135D02*
D03*
X412189Y411434D02*
D03*
X407232Y430500D02*
D03*
X408500Y448500D02*
D03*
X443000Y382500D02*
D03*
X459497Y379289D02*
D03*
X459500Y391000D02*
D03*
X432000Y447500D02*
D03*
X474000Y448500D02*
D03*
X390500Y438500D02*
D03*
X361500Y330000D02*
D03*
X301569Y431947D02*
D03*
X395499Y400500D02*
D03*
X411000Y362000D02*
D03*
X273000Y347000D02*
D03*
X330500Y324500D02*
D03*
X331000Y345500D02*
D03*
X313500Y354000D02*
D03*
X284044Y349000D02*
D03*
D69*
X487177Y318843D02*
D03*
X514736D02*
D03*
X440949D02*
D03*
X468508D02*
D03*
X394721D02*
D03*
X422280D02*
D03*
D70*
X540500Y481500D02*
D03*
X256500Y309500D02*
D03*
X540500D02*
D03*
X256500Y481500D02*
D03*
D71*
X279947Y376146D02*
D03*
X274435D02*
D03*
X393168D02*
D03*
X387656D02*
D03*
X506947D02*
D03*
X501435D02*
D03*
D72*
X293907Y399142D02*
D03*
Y386150D02*
D03*
X275403Y399142D02*
D03*
Y386150D02*
D03*
X407675Y399142D02*
D03*
Y386150D02*
D03*
X389171Y399142D02*
D03*
Y386150D02*
D03*
X521443Y399142D02*
D03*
Y386150D02*
D03*
X502939Y399142D02*
D03*
Y386150D02*
D03*
D73*
X294301Y399142D02*
D03*
Y386150D02*
D03*
X275009Y399142D02*
D03*
Y386150D02*
D03*
X408069Y399142D02*
D03*
Y386150D02*
D03*
X388777Y399142D02*
D03*
Y386150D02*
D03*
X521837Y399142D02*
D03*
Y386150D02*
D03*
X502546Y399142D02*
D03*
Y386150D02*
D03*
M02*
