M48
;Layer_Color=9474304
;FILE_FORMAT=2:5
INCH,TZ
;TYPE=PLATED
T1F00S00C0.02000
T2F00S00C0.03543
T3F00S00C0.03937
T5F00S00C0.04900
T6F00S00C0.05118
T7F00S00C0.07874
%
T01
X273000Y347000
X284044Y349000
X301569Y431947
X327000Y437845
X313000Y465555
X366708Y441707
X390500Y438500
X407232Y430500
X408500Y448500
X418000Y439500
X432000Y447500
X436000Y430500
Y425000
X440000Y416000
X412189Y411434
X395499Y400500
X366500Y378610
X361500Y330000
X330500Y324500
X331000Y345500
X313500Y354000
X411000Y362000
X433942Y381135
X443000Y382500
X459497Y379289
X459500Y391000
X509913Y387611
X474000Y448500
T02
X487000Y421500
Y431500
Y441500
Y451500
Y461500
X428500Y484500
X418500
X408500
X398500
X388500
X378500
X368500
T03
X492000Y309000
X509913
X463685
X445772
X417457
X399543
T05
X439250Y361500
X468750
T06
X394721Y318843
X422280
X440949
X468508
X487177
X514736
T07
X540500Y309500
X256500
X540500Y481500
X256500
M30
