G04*
G04 #@! TF.GenerationSoftware,Altium Limited,Altium Designer,21.0.8 (223)*
G04*
G04 Layer_Physical_Order=1*
G04 Layer_Color=255*
%FSLAX25Y25*%
%MOIN*%
G70*
G04*
G04 #@! TF.SameCoordinates,2B0E51DB-16DA-4BED-BE65-32D912633A35*
G04*
G04*
G04 #@! TF.FilePolarity,Positive*
G04*
G01*
G75*
%ADD23R,0.06100X0.08500*%
%ADD24R,0.05900X0.15000*%
%ADD29R,0.14200X0.10200*%
%ADD43R,0.05906X0.05512*%
%ADD44R,0.21260X0.10000*%
%ADD45R,0.09449X0.03937*%
%ADD46R,0.09449X0.12992*%
%ADD47O,0.02362X0.08661*%
%ADD48O,0.06000X0.02400*%
%ADD49R,0.06000X0.02400*%
%ADD50R,0.04724X0.05512*%
%ADD51R,0.03150X0.13386*%
%ADD52R,0.41732X0.33858*%
%ADD53R,0.03937X0.08268*%
%ADD54R,0.05512X0.04724*%
%ADD55R,0.01181X0.03347*%
%ADD56R,0.03347X0.01181*%
%ADD57O,0.03347X0.01181*%
%ADD58R,0.10236X0.10236*%
%ADD59C,0.01200*%
%ADD60C,0.02500*%
%ADD61C,0.00800*%
%ADD62C,0.05906*%
%ADD63R,0.05906X0.05906*%
G04:AMPARAMS|DCode=64|XSize=150mil|YSize=78.74mil|CornerRadius=19.68mil|HoleSize=0mil|Usage=FLASHONLY|Rotation=0.000|XOffset=0mil|YOffset=0mil|HoleType=Round|Shape=RoundedRectangle|*
%AMROUNDEDRECTD64*
21,1,0.15000,0.03937,0,0,0.0*
21,1,0.11063,0.07874,0,0,0.0*
1,1,0.03937,0.05531,-0.01968*
1,1,0.03937,-0.05531,-0.01968*
1,1,0.03937,-0.05531,0.01968*
1,1,0.03937,0.05531,0.01968*
%
%ADD64ROUNDEDRECTD64*%
%ADD65C,0.05512*%
%ADD66C,0.06900*%
%ADD67R,0.05906X0.05906*%
%ADD68C,0.04000*%
%ADD69C,0.07087*%
%ADD70C,0.15748*%
G36*
X552379Y298122D02*
X388901D01*
Y326099D01*
X457352D01*
X457519Y326168D01*
X457698Y326199D01*
X458097Y326450D01*
X458138Y326508D01*
X458204Y326534D01*
X458222Y326575D01*
X458260Y326596D01*
X458261Y326597D01*
X458300Y326737D01*
X458384Y326855D01*
X458372Y326925D01*
X458401Y326991D01*
X458408Y327487D01*
X458408Y327487D01*
X458408Y327487D01*
X459106Y376342D01*
X459484Y376669D01*
X459497Y376667D01*
X460176Y376756D01*
X460808Y377018D01*
X461351Y377435D01*
X461768Y377978D01*
X462030Y378610D01*
X462119Y379289D01*
X462030Y379968D01*
X461768Y380601D01*
X461351Y381144D01*
X460808Y381560D01*
X460723Y381595D01*
Y388693D01*
X460811Y388729D01*
X461354Y389146D01*
X461771Y389689D01*
X462033Y390321D01*
X462122Y391000D01*
X462033Y391679D01*
X461771Y392311D01*
X461354Y392854D01*
X460811Y393271D01*
X460179Y393533D01*
X459500Y393622D01*
X459355Y393752D01*
X459399Y396825D01*
X459309Y397050D01*
X459224Y397277D01*
X458837Y397691D01*
X458821Y397698D01*
X458816Y397711D01*
X458754Y397737D01*
X458714Y397794D01*
X458708Y397798D01*
X458533Y397829D01*
X458385Y397897D01*
X458375Y397893D01*
X458357Y397901D01*
X432230D01*
X432111Y397851D01*
X431982D01*
X431890Y397760D01*
X431771Y397711D01*
X431260Y397569D01*
X420187Y408641D01*
Y428015D01*
X420649Y428206D01*
X428220Y420635D01*
X428617Y420370D01*
X429086Y420276D01*
X433993D01*
X437503Y416766D01*
X437467Y416679D01*
X437378Y416000D01*
X437467Y415321D01*
X437729Y414689D01*
X438146Y414146D01*
X438689Y413729D01*
X439321Y413467D01*
X440000Y413378D01*
X440679Y413467D01*
X441311Y413729D01*
X441854Y414146D01*
X442271Y414689D01*
X442533Y415321D01*
X442622Y416000D01*
X442533Y416679D01*
X442271Y417311D01*
X441854Y417854D01*
X441311Y418271D01*
X440679Y418533D01*
X440000Y418622D01*
X439321Y418533D01*
X439234Y418497D01*
X435835Y421895D01*
X435950Y422231D01*
X436053Y422385D01*
X436679Y422467D01*
X437311Y422729D01*
X437854Y423146D01*
X438271Y423689D01*
X438533Y424321D01*
X438622Y425000D01*
X438533Y425679D01*
X438271Y426311D01*
X437854Y426854D01*
X437311Y427271D01*
X436779Y427492D01*
X436747Y427646D01*
Y427854D01*
X436779Y428009D01*
X437311Y428229D01*
X437854Y428646D01*
X438271Y429189D01*
X438533Y429821D01*
X438622Y430500D01*
X438533Y431179D01*
X438271Y431811D01*
X437854Y432354D01*
X437311Y432771D01*
X436679Y433033D01*
X436000Y433122D01*
X435321Y433033D01*
X435234Y432997D01*
X431215Y437016D01*
X431422Y437516D01*
X438282D01*
X439447Y436351D01*
Y431081D01*
X446553D01*
Y435773D01*
X449081D01*
X449472Y435851D01*
X449802Y436072D01*
X457344Y443614D01*
X458000Y443483D01*
X458695Y443621D01*
X459284Y444015D01*
X459678Y444604D01*
X459816Y445299D01*
Y451598D01*
X459678Y452293D01*
X459284Y452882D01*
X458695Y453276D01*
X458000Y453414D01*
X457305Y453276D01*
X456716Y452882D01*
X456322Y452293D01*
X456184Y451598D01*
Y445337D01*
X454933Y444087D01*
X454545Y444406D01*
X454678Y444604D01*
X454816Y445299D01*
Y451598D01*
X454678Y452293D01*
X454284Y452882D01*
X453695Y453276D01*
X453000Y453414D01*
X452305Y453276D01*
X451716Y452882D01*
X451322Y452293D01*
X451184Y451598D01*
Y446083D01*
X446553D01*
Y448419D01*
X439447D01*
Y443149D01*
X437822Y441523D01*
X428127D01*
Y445631D01*
X424091D01*
Y446223D01*
X429715D01*
X429729Y446189D01*
X430146Y445646D01*
X430689Y445229D01*
X431321Y444967D01*
X432000Y444878D01*
X432679Y444967D01*
X433311Y445229D01*
X433854Y445646D01*
X434271Y446189D01*
X434533Y446821D01*
X434622Y447500D01*
X434533Y448179D01*
X434271Y448811D01*
X433854Y449354D01*
X433311Y449771D01*
X432679Y450033D01*
X432000Y450122D01*
X431321Y450033D01*
X430689Y449771D01*
X430146Y449354D01*
X429729Y448811D01*
X429670Y448670D01*
X424091D01*
Y449667D01*
X416250D01*
Y451670D01*
X416725Y452144D01*
X420919D01*
Y458856D01*
X414994D01*
Y453874D01*
X414578Y453458D01*
X414078Y453665D01*
Y468636D01*
X426389Y480947D01*
X432053D01*
Y488053D01*
X424947D01*
Y482389D01*
X412337Y469779D01*
X412116Y469449D01*
X412039Y469058D01*
Y449667D01*
X411868D01*
Y446489D01*
X411368Y446185D01*
X411329Y446205D01*
Y446504D01*
X411236Y446972D01*
X410971Y447369D01*
X410882Y447457D01*
X411033Y447821D01*
X411122Y448500D01*
X411033Y449179D01*
X410771Y449811D01*
X410354Y450354D01*
X409811Y450771D01*
X409179Y451033D01*
X408500Y451122D01*
X407821Y451033D01*
X407189Y450771D01*
X407023Y450644D01*
X406524Y450891D01*
Y480472D01*
X407232Y481180D01*
X407573Y481039D01*
X408500Y480917D01*
X409427Y481039D01*
X410292Y481397D01*
X411034Y481966D01*
X411603Y482708D01*
X411961Y483572D01*
X412083Y484500D01*
X411961Y485428D01*
X411603Y486292D01*
X411034Y487034D01*
X410292Y487603D01*
X409427Y487961D01*
X408500Y488083D01*
X407573Y487961D01*
X406708Y487603D01*
X405966Y487034D01*
X405397Y486292D01*
X405039Y485428D01*
X404917Y484500D01*
X405039Y483572D01*
X405368Y482777D01*
X404435Y481844D01*
X404170Y481447D01*
X404076Y480979D01*
Y445632D01*
X404170Y445163D01*
X404435Y444766D01*
X407585Y441617D01*
X407832Y441451D01*
Y439313D01*
X408624D01*
X408930Y438813D01*
X408873Y438526D01*
X408926Y438257D01*
X408611Y437757D01*
X407832D01*
Y437172D01*
X407628Y437131D01*
X407297Y436910D01*
X406711Y436324D01*
X406490Y435993D01*
X406413Y435603D01*
Y434267D01*
X406290Y434084D01*
X406213Y433694D01*
Y432892D01*
X405921Y432771D01*
X405378Y432354D01*
X404961Y431811D01*
X404699Y431179D01*
X404610Y430500D01*
X404699Y429821D01*
X404961Y429189D01*
X405378Y428646D01*
X405921Y428229D01*
X406554Y427967D01*
X407232Y427878D01*
X407911Y427967D01*
X408544Y428229D01*
X409087Y428646D01*
X409504Y429189D01*
X409765Y429821D01*
X409855Y430500D01*
X409765Y431179D01*
X409504Y431811D01*
X409087Y432354D01*
X408758Y432607D01*
X408635Y433176D01*
X408655Y433266D01*
X408773Y433408D01*
X411868D01*
Y429372D01*
X417740D01*
Y408321D01*
X417255Y408099D01*
X414686Y410668D01*
X414722Y410756D01*
X414811Y411434D01*
X414722Y412113D01*
X414460Y412746D01*
X414043Y413289D01*
X413500Y413705D01*
X412868Y413968D01*
X412189Y414057D01*
X411510Y413968D01*
X410878Y413705D01*
X410335Y413289D01*
X409918Y412746D01*
X409656Y412113D01*
X409566Y411434D01*
X409656Y410756D01*
X409918Y410123D01*
X410335Y409580D01*
X410878Y409163D01*
X411510Y408901D01*
X412189Y408812D01*
X412868Y408901D01*
X412955Y408938D01*
X423530Y398363D01*
X423339Y397901D01*
X363401D01*
Y420957D01*
X363351Y421076D01*
X363352Y421205D01*
X363313Y421298D01*
X363222Y421389D01*
X363173Y421508D01*
X363102Y421579D01*
X362983Y421629D01*
X362892Y421720D01*
X362800Y421758D01*
X362670Y421758D01*
X362551Y421808D01*
X362501Y421808D01*
X303666Y421901D01*
X303504Y421834D01*
X303330Y421807D01*
X303277Y421776D01*
X302892Y421744D01*
X302740Y421760D01*
X295500Y429000D01*
X287730D01*
Y431765D01*
X287766Y431947D01*
Y435319D01*
X293032D01*
X293702Y435407D01*
X294327Y435666D01*
X294863Y436078D01*
X295275Y436614D01*
X295534Y437239D01*
X295622Y437909D01*
Y437992D01*
X303293D01*
X304014Y438135D01*
X304626Y438544D01*
X310605Y444523D01*
X316065D01*
Y443053D01*
X323171D01*
Y444523D01*
X327258D01*
Y443876D01*
X337907D01*
Y449013D01*
X333201D01*
X332940Y449188D01*
X332219Y449331D01*
X329827D01*
X329105Y449188D01*
X328844Y449013D01*
X327258D01*
Y448296D01*
X323171D01*
Y449765D01*
X316065D01*
Y448296D01*
X309824D01*
X309102Y448152D01*
X308490Y447743D01*
X302511Y441764D01*
X295622D01*
Y441847D01*
X295534Y442517D01*
X295275Y443142D01*
X294863Y443678D01*
X294327Y444090D01*
X293702Y444349D01*
X293032Y444437D01*
X281968D01*
X281298Y444349D01*
X281226Y444319D01*
X274617Y450928D01*
X274220Y451193D01*
X273752Y451287D01*
X265553D01*
Y453419D01*
X258447D01*
Y451287D01*
X254553D01*
Y453419D01*
X247447D01*
Y446707D01*
X254553D01*
Y448840D01*
X258447D01*
Y446707D01*
X265553D01*
Y448840D01*
X273245D01*
X279496Y442589D01*
X279466Y442517D01*
X279378Y441847D01*
Y437909D01*
X279466Y437239D01*
X279725Y436614D01*
X280137Y436078D01*
X280673Y435666D01*
X281298Y435407D01*
X281968Y435319D01*
X283994D01*
Y433797D01*
X265270D01*
Y431386D01*
X252563D01*
X251841Y431243D01*
X251229Y430834D01*
X249395Y429000D01*
X244621D01*
Y492878D01*
X552378D01*
X552379Y298122D01*
D02*
G37*
G36*
X451716Y444015D02*
X452305Y443621D01*
X453000Y443483D01*
X453695Y443621D01*
X453894Y443754D01*
X454212Y443366D01*
X448659Y437813D01*
X445356D01*
X445257Y437793D01*
X440889D01*
X439426Y439256D01*
X439248Y439375D01*
X439221Y439415D01*
X439141Y439850D01*
X439157Y439975D01*
X440889Y441707D01*
X446553D01*
Y444043D01*
X451697D01*
X451716Y444015D01*
D02*
G37*
G36*
X425854Y433375D02*
X426411D01*
X433654Y426131D01*
X433467Y425679D01*
X433378Y425000D01*
X433467Y424321D01*
X433729Y423689D01*
X434086Y423223D01*
X434008Y422932D01*
X433874Y422723D01*
X429592D01*
X423406Y428910D01*
X423597Y429372D01*
X424091D01*
Y433408D01*
X425688D01*
X425854Y433375D01*
D02*
G37*
G36*
X362500Y421159D02*
X362550Y421159D01*
X362643Y421120D01*
X362713Y421049D01*
X362752Y420957D01*
Y397252D01*
X424642D01*
X432719Y389174D01*
Y383443D01*
X432631Y383406D01*
X432088Y382990D01*
X431671Y382446D01*
X431409Y381814D01*
X431320Y381135D01*
X431409Y380456D01*
X431671Y379824D01*
X432088Y379281D01*
X432631Y378864D01*
X433263Y378602D01*
X433942Y378513D01*
X434621Y378602D01*
X435253Y378864D01*
X435797Y379281D01*
X436213Y379824D01*
X436475Y380456D01*
X436565Y381135D01*
X436475Y381814D01*
X436213Y382446D01*
X435797Y382990D01*
X435253Y383406D01*
X435166Y383443D01*
Y389495D01*
X435651Y389717D01*
X441088Y384280D01*
X440729Y383811D01*
X440467Y383179D01*
X440378Y382500D01*
X440467Y381821D01*
X440729Y381189D01*
X441146Y380646D01*
X441689Y380229D01*
X442321Y379967D01*
X443000Y379878D01*
X443679Y379967D01*
X444311Y380229D01*
X444854Y380646D01*
X445271Y381189D01*
X445533Y381821D01*
X445622Y382500D01*
X445533Y383179D01*
X445271Y383811D01*
X444854Y384354D01*
X444311Y384771D01*
X443679Y385033D01*
X443607Y385043D01*
X443595Y385102D01*
X443329Y385499D01*
X432039Y396790D01*
X432230Y397252D01*
X458357D01*
X458363Y397248D01*
X458749Y396834D01*
X458701Y393483D01*
X458189Y393271D01*
X457646Y392854D01*
X457229Y392311D01*
X456967Y391679D01*
X456878Y391000D01*
X456967Y390321D01*
X457229Y389689D01*
X457646Y389146D01*
X458189Y388729D01*
X458277Y388693D01*
Y381598D01*
X458186Y381560D01*
X457643Y381144D01*
X457226Y380601D01*
X456964Y379968D01*
X456874Y379289D01*
X456964Y378610D01*
X457226Y377978D01*
X457643Y377435D01*
X458186Y377018D01*
X458464Y376903D01*
X457759Y327497D01*
X457752Y327000D01*
X457751Y326999D01*
X457352Y326748D01*
X388251D01*
Y298122D01*
X244621D01*
Y336588D01*
X245114Y336606D01*
X245257Y335884D01*
X245666Y335273D01*
X252296Y328643D01*
X252908Y328234D01*
X253630Y328090D01*
X264325D01*
Y322684D01*
X268675D01*
Y333277D01*
X282853D01*
X282902Y333202D01*
X283498Y332804D01*
X284200Y332665D01*
X287490D01*
X287697Y332165D01*
X286919Y331386D01*
X286000D01*
X285744Y331335D01*
X284200D01*
X283498Y331196D01*
X282902Y330798D01*
X282504Y330202D01*
X282365Y329500D01*
X282504Y328798D01*
X282902Y328202D01*
X283498Y327804D01*
X284200Y327665D01*
X285744D01*
X286000Y327614D01*
X287700D01*
X288422Y327757D01*
X288488Y327802D01*
X288502Y327804D01*
X289098Y328202D01*
X289154Y328286D01*
X292184Y331316D01*
X292593Y331928D01*
X292736Y332650D01*
Y345763D01*
X292593Y346485D01*
X292184Y347097D01*
X289780Y349501D01*
Y350495D01*
X295856D01*
Y351842D01*
X297495D01*
Y350644D01*
X299683D01*
Y350431D01*
X299826Y349709D01*
X300235Y349097D01*
X303864Y345469D01*
Y344550D01*
X303869Y344523D01*
X303865Y344500D01*
X304004Y343798D01*
X304402Y343202D01*
X304998Y342804D01*
X305012Y342802D01*
X305078Y342757D01*
X305800Y342614D01*
X307500D01*
X307756Y342665D01*
X309300D01*
X310002Y342804D01*
X310598Y343202D01*
X310996Y343798D01*
X311135Y344500D01*
X310996Y345202D01*
X310598Y345798D01*
X310002Y346196D01*
X309300Y346335D01*
X307756D01*
X307614Y346364D01*
X307493Y346972D01*
X307084Y347584D01*
X304483Y350185D01*
X304731Y350644D01*
X305019Y350644D01*
X310506D01*
Y352777D01*
X311193D01*
X311229Y352689D01*
X311646Y352146D01*
X312189Y351729D01*
X312821Y351467D01*
X313500Y351378D01*
X314179Y351467D01*
X314811Y351729D01*
X315354Y352146D01*
X315771Y352689D01*
X316033Y353321D01*
X316122Y354000D01*
X316033Y354679D01*
X315771Y355311D01*
X315354Y355854D01*
X314811Y356271D01*
X314179Y356533D01*
X313500Y356622D01*
X312821Y356533D01*
X312189Y356271D01*
X311646Y355854D01*
X311229Y355311D01*
X311193Y355223D01*
X310506D01*
Y357356D01*
X304581D01*
Y351118D01*
X304581Y350794D01*
X304122Y350546D01*
X303455Y351212D01*
Y352888D01*
X303419Y353070D01*
Y357356D01*
X297495D01*
Y355615D01*
X295856D01*
Y356419D01*
X291303D01*
X291111Y356881D01*
X291812Y357581D01*
X295856D01*
Y363506D01*
X296311Y363614D01*
X313931D01*
Y358191D01*
X319069D01*
Y367659D01*
X313931D01*
Y367386D01*
X285500D01*
X284778Y367243D01*
X284166Y366834D01*
X278860Y361528D01*
X278451Y360916D01*
X278308Y360194D01*
Y343606D01*
X278451Y342884D01*
X278860Y342272D01*
X282846Y338286D01*
X282902Y338202D01*
X283498Y337804D01*
X284200Y337665D01*
X284245D01*
X284250Y337664D01*
X284255Y337665D01*
X287800D01*
X288464Y337797D01*
X288580Y337787D01*
X288964Y337582D01*
Y336418D01*
X288580Y336213D01*
X288464Y336203D01*
X287800Y336335D01*
X284200D01*
X283498Y336196D01*
X282902Y335798D01*
X282853Y335723D01*
X268675D01*
Y337269D01*
X264325D01*
Y331863D01*
X254411D01*
X248886Y337388D01*
Y384251D01*
X292896D01*
X303249Y394604D01*
Y420835D01*
X303280Y420888D01*
X303613Y421220D01*
X303665Y421251D01*
X362500Y421159D01*
D02*
G37*
G36*
X289144Y363506D02*
Y360249D01*
X288320Y359424D01*
X288256Y359412D01*
X287644Y359003D01*
X286560Y357919D01*
X286151Y357307D01*
X286008Y356585D01*
Y351401D01*
X285508Y351154D01*
X285355Y351271D01*
X284723Y351533D01*
X284044Y351622D01*
X283365Y351533D01*
X282733Y351271D01*
X282580Y351154D01*
X282080Y351401D01*
Y359413D01*
X286281Y363614D01*
X288689D01*
X289144Y363506D01*
D02*
G37*
%LPC*%
G36*
X418500Y488083D02*
X417572Y487961D01*
X416708Y487603D01*
X415966Y487034D01*
X415397Y486292D01*
X415039Y485428D01*
X414917Y484500D01*
X415039Y483572D01*
X415397Y482708D01*
X415966Y481966D01*
X416708Y481397D01*
X417572Y481039D01*
X418500Y480917D01*
X419427Y481039D01*
X420292Y481397D01*
X421034Y481966D01*
X421603Y482708D01*
X421961Y483572D01*
X422083Y484500D01*
X421961Y485428D01*
X421603Y486292D01*
X421034Y487034D01*
X420292Y487603D01*
X419427Y487961D01*
X418500Y488083D01*
D02*
G37*
G36*
X398500D02*
X397573Y487961D01*
X396708Y487603D01*
X395966Y487034D01*
X395397Y486292D01*
X395039Y485428D01*
X394917Y484500D01*
X395039Y483572D01*
X395397Y482708D01*
X395966Y481966D01*
X396708Y481397D01*
X397573Y481039D01*
X398500Y480917D01*
X399427Y481039D01*
X400292Y481397D01*
X401034Y481966D01*
X401603Y482708D01*
X401961Y483572D01*
X402083Y484500D01*
X401961Y485428D01*
X401603Y486292D01*
X401034Y487034D01*
X400292Y487603D01*
X399427Y487961D01*
X398500Y488083D01*
D02*
G37*
G36*
X378500D02*
X377573Y487961D01*
X376708Y487603D01*
X375966Y487034D01*
X375397Y486292D01*
X375039Y485428D01*
X374917Y484500D01*
X375039Y483572D01*
X375397Y482708D01*
X375966Y481966D01*
X376708Y481397D01*
X377573Y481039D01*
X378500Y480917D01*
X379427Y481039D01*
X380292Y481397D01*
X381034Y481966D01*
X381603Y482708D01*
X381961Y483572D01*
X382083Y484500D01*
X381961Y485428D01*
X381603Y486292D01*
X381034Y487034D01*
X380292Y487603D01*
X379427Y487961D01*
X378500Y488083D01*
D02*
G37*
G36*
X540500Y490015D02*
X538839Y489851D01*
X537241Y489367D01*
X535769Y488580D01*
X534479Y487521D01*
X533420Y486231D01*
X532633Y484759D01*
X532149Y483161D01*
X531985Y481500D01*
X532149Y479839D01*
X532633Y478241D01*
X533420Y476769D01*
X534479Y475479D01*
X535769Y474420D01*
X537241Y473633D01*
X538839Y473149D01*
X540500Y472985D01*
X542161Y473149D01*
X543759Y473633D01*
X545231Y474420D01*
X546521Y475479D01*
X547580Y476769D01*
X548367Y478241D01*
X548851Y479839D01*
X549015Y481500D01*
X548851Y483161D01*
X548367Y484759D01*
X547580Y486231D01*
X546521Y487521D01*
X545231Y488580D01*
X543759Y489367D01*
X542161Y489851D01*
X540500Y490015D01*
D02*
G37*
G36*
X256500D02*
X254839Y489851D01*
X253241Y489367D01*
X251769Y488580D01*
X250479Y487521D01*
X249420Y486231D01*
X248633Y484759D01*
X248149Y483161D01*
X247985Y481500D01*
X248149Y479839D01*
X248633Y478241D01*
X249420Y476769D01*
X250479Y475479D01*
X251769Y474420D01*
X253241Y473633D01*
X254839Y473149D01*
X256500Y472985D01*
X258161Y473149D01*
X259759Y473633D01*
X261231Y474420D01*
X262521Y475479D01*
X263580Y476769D01*
X264367Y478241D01*
X264851Y479839D01*
X265015Y481500D01*
X264851Y483161D01*
X264367Y484759D01*
X263580Y486231D01*
X262521Y487521D01*
X261231Y488580D01*
X259759Y489367D01*
X258161Y489851D01*
X256500Y490015D01*
D02*
G37*
G36*
X323053Y468793D02*
X315947D01*
Y466660D01*
X315356D01*
X315271Y466866D01*
X314854Y467410D01*
X314311Y467826D01*
X313679Y468088D01*
X313000Y468178D01*
X312321Y468088D01*
X311689Y467826D01*
X311146Y467410D01*
X310729Y466866D01*
X310467Y466234D01*
X310378Y465555D01*
X310467Y464876D01*
X310729Y464244D01*
X311146Y463701D01*
X311689Y463284D01*
X312321Y463022D01*
X313000Y462933D01*
X313679Y463022D01*
X314311Y463284D01*
X314854Y463701D01*
X315248Y464214D01*
X315947D01*
Y462081D01*
X323053D01*
Y464332D01*
X327258D01*
Y461987D01*
X337907D01*
Y467124D01*
X327258D01*
Y466779D01*
X323053D01*
Y468793D01*
D02*
G37*
G36*
X293032Y468059D02*
X281968D01*
X281298Y467971D01*
X280673Y467712D01*
X280137Y467300D01*
X279725Y466764D01*
X279466Y466139D01*
X279378Y465469D01*
Y461531D01*
X279466Y460861D01*
X279496Y460789D01*
X277867Y459161D01*
X265553D01*
Y461293D01*
X258447D01*
Y459161D01*
X254553D01*
Y461293D01*
X247447D01*
Y454581D01*
X254553D01*
Y456713D01*
X258447D01*
Y454581D01*
X265553D01*
Y456713D01*
X278374D01*
X278842Y456807D01*
X279239Y457072D01*
X281226Y459059D01*
X281298Y459029D01*
X281968Y458941D01*
X293032D01*
X293702Y459029D01*
X294327Y459288D01*
X294863Y459700D01*
X295275Y460236D01*
X295534Y460861D01*
X295622Y461531D01*
Y465469D01*
X295534Y466139D01*
X295275Y466764D01*
X294863Y467300D01*
X294327Y467712D01*
X293702Y467971D01*
X293032Y468059D01*
D02*
G37*
G36*
X487000Y465083D02*
X486072Y464961D01*
X485208Y464603D01*
X484466Y464034D01*
X483897Y463292D01*
X483539Y462428D01*
X483417Y461500D01*
X483539Y460572D01*
X483897Y459708D01*
X484466Y458966D01*
X485208Y458397D01*
X486072Y458039D01*
X487000Y457917D01*
X487927Y458039D01*
X488792Y458397D01*
X489534Y458966D01*
X490103Y459708D01*
X490461Y460572D01*
X490583Y461500D01*
X490461Y462428D01*
X490103Y463292D01*
X489534Y464034D01*
X488792Y464603D01*
X487927Y464961D01*
X487000Y465083D01*
D02*
G37*
G36*
X319500Y458786D02*
X319032Y458693D01*
X318635Y458428D01*
X318370Y458031D01*
X318277Y457563D01*
X318370Y457095D01*
X318635Y456698D01*
X319698Y455635D01*
X320095Y455370D01*
X320563Y455276D01*
X321031Y455370D01*
X321428Y455635D01*
X321693Y456032D01*
X321786Y456500D01*
X321693Y456968D01*
X321428Y457365D01*
X320365Y458428D01*
X319968Y458693D01*
X319500Y458786D01*
D02*
G37*
G36*
X360742Y462596D02*
X350093D01*
Y448404D01*
X360742D01*
Y462596D01*
D02*
G37*
G36*
X468000Y453414D02*
X467305Y453276D01*
X466716Y452882D01*
X466322Y452293D01*
X466184Y451598D01*
Y445299D01*
X466322Y444604D01*
X466716Y444015D01*
X467305Y443621D01*
X468000Y443483D01*
X468695Y443621D01*
X469284Y444015D01*
X469678Y444604D01*
X469816Y445299D01*
Y447276D01*
X471693D01*
X471729Y447189D01*
X472146Y446646D01*
X472689Y446229D01*
X473321Y445967D01*
X474000Y445878D01*
X474679Y445967D01*
X475311Y446229D01*
X475854Y446646D01*
X476271Y447189D01*
X476533Y447821D01*
X476622Y448500D01*
X476533Y449179D01*
X476271Y449811D01*
X475854Y450354D01*
X475311Y450771D01*
X474679Y451033D01*
X474000Y451122D01*
X473321Y451033D01*
X472689Y450771D01*
X472146Y450354D01*
X471729Y449811D01*
X471693Y449723D01*
X469816D01*
Y451598D01*
X469678Y452293D01*
X469284Y452882D01*
X468695Y453276D01*
X468000Y453414D01*
D02*
G37*
G36*
X463000D02*
X462305Y453276D01*
X461716Y452882D01*
X461322Y452293D01*
X461184Y451598D01*
Y445299D01*
X461198Y445228D01*
X455807Y439837D01*
X455545D01*
X455077Y439744D01*
X454680Y439478D01*
X448216Y433015D01*
X447951Y432618D01*
X447858Y432150D01*
Y412535D01*
X447951Y412067D01*
X448216Y411670D01*
X477377Y382509D01*
Y366000D01*
X477400Y365882D01*
Y355800D01*
X492800D01*
Y367200D01*
X479823D01*
Y383016D01*
X479730Y383485D01*
X479465Y383881D01*
X450305Y413042D01*
Y431643D01*
X450722Y432060D01*
X451184Y431869D01*
Y426402D01*
X451322Y425707D01*
X451716Y425117D01*
X452305Y424724D01*
X453000Y424586D01*
X453695Y424724D01*
X454284Y425117D01*
X454678Y425707D01*
X454816Y426402D01*
Y432701D01*
X454678Y433396D01*
X454284Y433985D01*
X453727Y434357D01*
X453651Y434444D01*
X453524Y434862D01*
X456052Y437390D01*
X456314D01*
X456782Y437483D01*
X457179Y437748D01*
X462928Y443497D01*
X463000Y443483D01*
X463695Y443621D01*
X464284Y444015D01*
X464678Y444604D01*
X464816Y445299D01*
Y451598D01*
X464678Y452293D01*
X464284Y452882D01*
X463695Y453276D01*
X463000Y453414D01*
D02*
G37*
G36*
X398919Y441891D02*
X392994D01*
Y440341D01*
X392495Y440172D01*
X392354Y440354D01*
X391811Y440771D01*
X391179Y441033D01*
X390500Y441122D01*
X389821Y441033D01*
X389189Y440771D01*
X388646Y440354D01*
X388229Y439811D01*
X387967Y439179D01*
X387878Y438500D01*
X387967Y437821D01*
X388229Y437189D01*
X388646Y436646D01*
X389189Y436229D01*
X389821Y435967D01*
X390500Y435878D01*
X391179Y435967D01*
X391811Y436229D01*
X392354Y436646D01*
X392495Y436828D01*
X392994Y436659D01*
Y435179D01*
X398919D01*
Y441891D01*
D02*
G37*
G36*
X368500Y488083D02*
X367573Y487961D01*
X366708Y487603D01*
X365966Y487034D01*
X365397Y486292D01*
X365039Y485428D01*
X364917Y484500D01*
X365039Y483572D01*
X365397Y482708D01*
X365966Y481966D01*
X366614Y481469D01*
Y444686D01*
X366189Y444261D01*
X366030Y444240D01*
X365397Y443978D01*
X364854Y443561D01*
X364437Y443018D01*
X364175Y442386D01*
X364086Y441707D01*
X364175Y441028D01*
X364437Y440396D01*
X364854Y439853D01*
X365397Y439436D01*
X366030Y439174D01*
X366708Y439085D01*
X367387Y439174D01*
X368020Y439436D01*
X368563Y439853D01*
X368979Y440396D01*
X369241Y441028D01*
X369331Y441707D01*
X369289Y442026D01*
X369834Y442571D01*
X370243Y443183D01*
X370386Y443905D01*
Y481469D01*
X371034Y481966D01*
X371603Y482708D01*
X371961Y483572D01*
X372083Y484500D01*
X371961Y485428D01*
X371603Y486292D01*
X371034Y487034D01*
X370292Y487603D01*
X369427Y487961D01*
X368500Y488083D01*
D02*
G37*
G36*
X428006Y458856D02*
X422081D01*
Y452144D01*
X428006D01*
Y454480D01*
X436090D01*
X436480Y454558D01*
X436811Y454779D01*
X437705Y455673D01*
X471385D01*
X483858Y443200D01*
X483539Y442427D01*
X483417Y441500D01*
X483539Y440573D01*
X483897Y439708D01*
X484466Y438966D01*
X485208Y438397D01*
X486072Y438039D01*
X487000Y437917D01*
X487927Y438039D01*
X488792Y438397D01*
X489534Y438966D01*
X490103Y439708D01*
X490461Y440573D01*
X490583Y441500D01*
X490461Y442427D01*
X490103Y443292D01*
X489534Y444034D01*
X488792Y444603D01*
X487927Y444961D01*
X487000Y445083D01*
X486072Y444961D01*
X485300Y444641D01*
X472528Y457414D01*
X472197Y457635D01*
X471807Y457713D01*
X437283D01*
X436893Y457635D01*
X436562Y457414D01*
X435668Y456520D01*
X428006D01*
Y458856D01*
D02*
G37*
G36*
X403043Y439759D02*
X402575Y439666D01*
X402178Y439400D01*
X401913Y439004D01*
X401820Y438535D01*
X401913Y438067D01*
X402178Y437670D01*
X402188Y437661D01*
X402585Y437395D01*
X403053Y437302D01*
X403521Y437395D01*
X403918Y437661D01*
X404183Y438058D01*
X404276Y438526D01*
X404183Y438994D01*
X403918Y439391D01*
X403908Y439400D01*
X403511Y439666D01*
X403043Y439759D01*
D02*
G37*
G36*
X323171Y441891D02*
X316065D01*
Y435179D01*
X323171D01*
Y436622D01*
X324693D01*
X324729Y436534D01*
X325146Y435991D01*
X325689Y435574D01*
X326321Y435312D01*
X327000Y435223D01*
X327679Y435312D01*
X328311Y435574D01*
X328854Y435991D01*
X329271Y436534D01*
X329533Y437167D01*
X329622Y437845D01*
X329533Y438524D01*
X329271Y439156D01*
X328854Y439700D01*
X328311Y440116D01*
X327679Y440378D01*
X327000Y440468D01*
X326321Y440378D01*
X325689Y440116D01*
X325146Y439700D01*
X324729Y439156D01*
X324693Y439069D01*
X323171D01*
Y441891D01*
D02*
G37*
G36*
X487000Y435083D02*
X486072Y434961D01*
X485208Y434603D01*
X484466Y434034D01*
X483897Y433292D01*
X483539Y432428D01*
X483417Y431500D01*
X483539Y430573D01*
X483897Y429708D01*
X484466Y428966D01*
X485208Y428397D01*
X486072Y428039D01*
X487000Y427917D01*
X487927Y428039D01*
X488792Y428397D01*
X489534Y428966D01*
X490103Y429708D01*
X490461Y430573D01*
X490583Y431500D01*
X490461Y432428D01*
X490103Y433292D01*
X489534Y434034D01*
X488792Y434603D01*
X487927Y434961D01*
X487000Y435083D01*
D02*
G37*
G36*
X468000Y434517D02*
X467305Y434378D01*
X466716Y433985D01*
X466322Y433396D01*
X466184Y432701D01*
Y426402D01*
X466322Y425707D01*
X466716Y425117D01*
X467305Y424724D01*
X468000Y424586D01*
X468695Y424724D01*
X469284Y425117D01*
X469678Y425707D01*
X469816Y426402D01*
Y432701D01*
X469678Y433396D01*
X469284Y433985D01*
X468695Y434378D01*
X468000Y434517D01*
D02*
G37*
G36*
X463000D02*
X462305Y434378D01*
X461716Y433985D01*
X461322Y433396D01*
X461184Y432701D01*
Y426402D01*
X461322Y425707D01*
X461716Y425117D01*
X462305Y424724D01*
X463000Y424586D01*
X463695Y424724D01*
X464284Y425117D01*
X464678Y425707D01*
X464816Y426402D01*
Y432701D01*
X464678Y433396D01*
X464284Y433985D01*
X463695Y434378D01*
X463000Y434517D01*
D02*
G37*
G36*
X490553Y425053D02*
X483447D01*
Y417947D01*
X490553D01*
Y425053D01*
D02*
G37*
G36*
X468750Y365585D02*
X467693Y365446D01*
X466708Y365038D01*
X465862Y364388D01*
X465212Y363543D01*
X464804Y362557D01*
X464665Y361500D01*
X464804Y360443D01*
X465212Y359457D01*
X465862Y358611D01*
X466708Y357962D01*
X467693Y357554D01*
X468750Y357415D01*
X469807Y357554D01*
X470792Y357962D01*
X471638Y358611D01*
X472288Y359457D01*
X472696Y360443D01*
X472835Y361500D01*
X472696Y362557D01*
X472288Y363543D01*
X471638Y364388D01*
X470792Y365038D01*
X469807Y365446D01*
X468750Y365585D01*
D02*
G37*
G36*
X514736Y323022D02*
X513655Y322879D01*
X512647Y322462D01*
X511781Y321798D01*
X511117Y320932D01*
X510700Y319924D01*
X510557Y318843D01*
X510700Y317761D01*
X511117Y316753D01*
X511781Y315887D01*
X512647Y315223D01*
X513655Y314806D01*
X514736Y314664D01*
X515818Y314806D01*
X516826Y315223D01*
X517691Y315887D01*
X518355Y316753D01*
X518773Y317761D01*
X518915Y318843D01*
X518773Y319924D01*
X518355Y320932D01*
X517691Y321798D01*
X516826Y322462D01*
X515818Y322879D01*
X514736Y323022D01*
D02*
G37*
G36*
X487177D02*
X486096Y322879D01*
X485088Y322462D01*
X484222Y321798D01*
X483558Y320932D01*
X483141Y319924D01*
X482998Y318843D01*
X483141Y317761D01*
X483558Y316753D01*
X484222Y315887D01*
X485088Y315223D01*
X486096Y314806D01*
X487177Y314664D01*
X488259Y314806D01*
X489267Y315223D01*
X490132Y315887D01*
X490796Y316753D01*
X491214Y317761D01*
X491356Y318843D01*
X491214Y319924D01*
X490796Y320932D01*
X490132Y321798D01*
X489267Y322462D01*
X488259Y322879D01*
X487177Y323022D01*
D02*
G37*
G36*
X468508D02*
X467426Y322879D01*
X466418Y322462D01*
X465553Y321798D01*
X464889Y320932D01*
X464471Y319924D01*
X464329Y318843D01*
X464471Y317761D01*
X464889Y316753D01*
X465553Y315887D01*
X466418Y315223D01*
X467426Y314806D01*
X468508Y314664D01*
X469590Y314806D01*
X470597Y315223D01*
X471463Y315887D01*
X472127Y316753D01*
X472544Y317761D01*
X472687Y318843D01*
X472544Y319924D01*
X472127Y320932D01*
X471463Y321798D01*
X470597Y322462D01*
X469590Y322879D01*
X468508Y323022D01*
D02*
G37*
G36*
X422280D02*
X421198Y322879D01*
X420190Y322462D01*
X419324Y321798D01*
X418660Y320932D01*
X418243Y319924D01*
X418101Y318843D01*
X418243Y317761D01*
X418660Y316753D01*
X419324Y315887D01*
X420190Y315223D01*
X421198Y314806D01*
X422280Y314664D01*
X423361Y314806D01*
X424369Y315223D01*
X425235Y315887D01*
X425899Y316753D01*
X426316Y317761D01*
X426459Y318843D01*
X426316Y319924D01*
X425899Y320932D01*
X425235Y321798D01*
X424369Y322462D01*
X423361Y322879D01*
X422280Y323022D01*
D02*
G37*
G36*
X394721D02*
X393639Y322879D01*
X392631Y322462D01*
X391765Y321798D01*
X391101Y320932D01*
X390684Y319924D01*
X390541Y318843D01*
X390684Y317761D01*
X391101Y316753D01*
X391765Y315887D01*
X392631Y315223D01*
X393639Y314806D01*
X394721Y314664D01*
X395802Y314806D01*
X396810Y315223D01*
X397675Y315887D01*
X398340Y316753D01*
X398757Y317761D01*
X398900Y318843D01*
X398757Y319924D01*
X398340Y320932D01*
X397675Y321798D01*
X396810Y322462D01*
X395802Y322879D01*
X394721Y323022D01*
D02*
G37*
G36*
X509913Y312385D02*
X509037Y312269D01*
X508221Y311931D01*
X507520Y311393D01*
X506982Y310692D01*
X506644Y309876D01*
X506529Y309000D01*
X506644Y308124D01*
X506982Y307308D01*
X507520Y306607D01*
X508221Y306069D01*
X509037Y305731D01*
X509913Y305615D01*
X510789Y305731D01*
X511606Y306069D01*
X512307Y306607D01*
X512845Y307308D01*
X513183Y308124D01*
X513298Y309000D01*
X513183Y309876D01*
X512845Y310692D01*
X512307Y311393D01*
X511606Y311931D01*
X510789Y312269D01*
X509913Y312385D01*
D02*
G37*
G36*
X492000D02*
X491124Y312269D01*
X490308Y311931D01*
X489607Y311393D01*
X489069Y310692D01*
X488730Y309876D01*
X488615Y309000D01*
X488730Y308124D01*
X489069Y307308D01*
X489607Y306607D01*
X490308Y306069D01*
X491124Y305731D01*
X492000Y305615D01*
X492876Y305731D01*
X493692Y306069D01*
X494393Y306607D01*
X494931Y307308D01*
X495269Y308124D01*
X495385Y309000D01*
X495269Y309876D01*
X494931Y310692D01*
X494393Y311393D01*
X493692Y311931D01*
X492876Y312269D01*
X492000Y312385D01*
D02*
G37*
G36*
X463685D02*
X462809Y312269D01*
X461993Y311931D01*
X461292Y311393D01*
X460754Y310692D01*
X460416Y309876D01*
X460300Y309000D01*
X460416Y308124D01*
X460754Y307308D01*
X461292Y306607D01*
X461993Y306069D01*
X462809Y305731D01*
X463685Y305615D01*
X464561Y305731D01*
X465378Y306069D01*
X466079Y306607D01*
X466616Y307308D01*
X466955Y308124D01*
X467070Y309000D01*
X466955Y309876D01*
X466616Y310692D01*
X466079Y311393D01*
X465378Y311931D01*
X464561Y312269D01*
X463685Y312385D01*
D02*
G37*
G36*
X440949Y323022D02*
X439867Y322879D01*
X438859Y322462D01*
X437994Y321798D01*
X437330Y320932D01*
X436912Y319924D01*
X436770Y318843D01*
X436912Y317761D01*
X437330Y316753D01*
X437994Y315887D01*
X438859Y315223D01*
X439867Y314806D01*
X440049Y314782D01*
Y313499D01*
X440142Y313031D01*
X440407Y312634D01*
X442696Y310345D01*
X442502Y309876D01*
X442387Y309000D01*
X442502Y308124D01*
X442840Y307308D01*
X443378Y306607D01*
X444079Y306069D01*
X444896Y305731D01*
X445772Y305615D01*
X446648Y305731D01*
X447464Y306069D01*
X448165Y306607D01*
X448703Y307308D01*
X449041Y308124D01*
X449157Y309000D01*
X449041Y309876D01*
X448703Y310692D01*
X448165Y311393D01*
X447464Y311931D01*
X446648Y312269D01*
X445772Y312385D01*
X444896Y312269D01*
X444427Y312075D01*
X442496Y314006D01*
Y314999D01*
X443038Y315223D01*
X443904Y315887D01*
X444568Y316753D01*
X444985Y317761D01*
X445128Y318843D01*
X444985Y319924D01*
X444568Y320932D01*
X443904Y321798D01*
X443038Y322462D01*
X442030Y322879D01*
X440949Y323022D01*
D02*
G37*
G36*
X417457Y312385D02*
X416581Y312269D01*
X415764Y311931D01*
X415063Y311393D01*
X414525Y310692D01*
X414187Y309876D01*
X414072Y309000D01*
X414187Y308124D01*
X414525Y307308D01*
X415063Y306607D01*
X415764Y306069D01*
X416581Y305731D01*
X417457Y305615D01*
X418333Y305731D01*
X419149Y306069D01*
X419850Y306607D01*
X420388Y307308D01*
X420726Y308124D01*
X420842Y309000D01*
X420726Y309876D01*
X420388Y310692D01*
X419850Y311393D01*
X419149Y311931D01*
X418333Y312269D01*
X417457Y312385D01*
D02*
G37*
G36*
X399543D02*
X398667Y312269D01*
X397851Y311931D01*
X397150Y311393D01*
X396612Y310692D01*
X396274Y309876D01*
X396158Y309000D01*
X396274Y308124D01*
X396612Y307308D01*
X397150Y306607D01*
X397851Y306069D01*
X398667Y305731D01*
X399543Y305615D01*
X400419Y305731D01*
X401236Y306069D01*
X401937Y306607D01*
X402475Y307308D01*
X402813Y308124D01*
X402928Y309000D01*
X402813Y309876D01*
X402475Y310692D01*
X401937Y311393D01*
X401236Y311931D01*
X400419Y312269D01*
X399543Y312385D01*
D02*
G37*
G36*
X540500Y318015D02*
X538839Y317851D01*
X537241Y317367D01*
X535769Y316580D01*
X534479Y315521D01*
X533420Y314231D01*
X532633Y312759D01*
X532149Y311161D01*
X531985Y309500D01*
X532149Y307839D01*
X532633Y306241D01*
X533420Y304769D01*
X534479Y303479D01*
X535769Y302420D01*
X537241Y301633D01*
X538839Y301149D01*
X540500Y300985D01*
X542161Y301149D01*
X543759Y301633D01*
X545231Y302420D01*
X546521Y303479D01*
X547580Y304769D01*
X548367Y306241D01*
X548851Y307839D01*
X549015Y309500D01*
X548851Y311161D01*
X548367Y312759D01*
X547580Y314231D01*
X546521Y315521D01*
X545231Y316580D01*
X543759Y317367D01*
X542161Y317851D01*
X540500Y318015D01*
D02*
G37*
G36*
X430600Y367200D02*
X415200D01*
Y363224D01*
X413307D01*
X413271Y363311D01*
X412854Y363854D01*
X412311Y364271D01*
X411679Y364533D01*
X411000Y364622D01*
X410321Y364533D01*
X409689Y364271D01*
X409146Y363854D01*
X408729Y363311D01*
X408467Y362679D01*
X408378Y362000D01*
X408467Y361321D01*
X408729Y360689D01*
X409146Y360146D01*
X409689Y359729D01*
X410321Y359467D01*
X411000Y359378D01*
X411679Y359467D01*
X412311Y359729D01*
X412854Y360146D01*
X413271Y360689D01*
X413307Y360776D01*
X415200D01*
Y355800D01*
X430600D01*
Y367200D01*
D02*
G37*
G36*
X439250Y365585D02*
X438193Y365446D01*
X437208Y365038D01*
X436362Y364388D01*
X435712Y363543D01*
X435304Y362557D01*
X435165Y361500D01*
X435304Y360443D01*
X435712Y359457D01*
X436362Y358611D01*
X437208Y357962D01*
X438193Y357554D01*
X439250Y357415D01*
X440307Y357554D01*
X441292Y357962D01*
X442138Y358611D01*
X442788Y359457D01*
X443196Y360443D01*
X443335Y361500D01*
X443196Y362557D01*
X442788Y363543D01*
X442138Y364388D01*
X441292Y365038D01*
X440307Y365446D01*
X439250Y365585D01*
D02*
G37*
G36*
X268675Y359316D02*
X264325D01*
Y344731D01*
X268675D01*
Y345777D01*
X270693D01*
X270729Y345689D01*
X271146Y345146D01*
X271689Y344729D01*
X272321Y344467D01*
X273000Y344378D01*
X273679Y344467D01*
X274311Y344729D01*
X274854Y345146D01*
X275271Y345689D01*
X275533Y346321D01*
X275622Y347000D01*
X275533Y347679D01*
X275271Y348311D01*
X274854Y348854D01*
X274311Y349271D01*
X273679Y349533D01*
X273000Y349622D01*
X272321Y349533D01*
X271689Y349271D01*
X271146Y348854D01*
X270729Y348311D01*
X270693Y348223D01*
X268675D01*
Y359316D01*
D02*
G37*
G36*
X339069Y367659D02*
X333931D01*
Y360859D01*
X329491Y356418D01*
X325341D01*
X324619Y356274D01*
X324007Y355866D01*
X316997Y348856D01*
X313995D01*
Y344812D01*
X310619Y341436D01*
X307550D01*
X307042Y341335D01*
X305700D01*
X304998Y341196D01*
X304402Y340798D01*
X304004Y340202D01*
X303865Y339500D01*
X304004Y338798D01*
X304402Y338202D01*
X304998Y337804D01*
X305700Y337665D01*
X307244D01*
X307500Y337614D01*
X307751Y337664D01*
X311400D01*
X312122Y337807D01*
X312734Y338216D01*
X313533Y339015D01*
X313995Y338823D01*
Y336386D01*
X307500D01*
X307244Y336335D01*
X305700D01*
X304998Y336196D01*
X304402Y335798D01*
X304004Y335202D01*
X303865Y334500D01*
X304004Y333798D01*
X304402Y333202D01*
X304998Y332804D01*
X305700Y332665D01*
X307244D01*
X307500Y332614D01*
X314850D01*
X315071Y332433D01*
Y331856D01*
X313995D01*
Y325144D01*
X314864D01*
Y322856D01*
X313581D01*
Y316144D01*
X314657D01*
Y314356D01*
X313581D01*
Y307644D01*
X319506D01*
Y314356D01*
X318429D01*
Y316144D01*
X319506D01*
Y322856D01*
X318636D01*
Y325144D01*
X319919D01*
Y331856D01*
X318843D01*
Y333644D01*
X319919D01*
Y340356D01*
X315527D01*
X315336Y340818D01*
X316662Y342144D01*
X319919D01*
Y346430D01*
X319922Y346446D01*
X320619Y347143D01*
X321081Y346951D01*
Y342144D01*
X327006D01*
Y344276D01*
X328693D01*
X328729Y344189D01*
X329146Y343646D01*
X329689Y343229D01*
X330321Y342967D01*
X331000Y342878D01*
X331679Y342967D01*
X332311Y343229D01*
X332854Y343646D01*
X333271Y344189D01*
X333533Y344821D01*
X333622Y345500D01*
X333533Y346179D01*
X333271Y346811D01*
X332854Y347354D01*
X332311Y347771D01*
X331679Y348033D01*
X331000Y348122D01*
X330321Y348033D01*
X329689Y347771D01*
X329146Y347354D01*
X328729Y346811D01*
X328693Y346724D01*
X327006D01*
Y348856D01*
X322986D01*
X322794Y349318D01*
X326122Y352645D01*
X330272D01*
X330994Y352789D01*
X331606Y353198D01*
X336599Y358191D01*
X339069D01*
Y367659D01*
D02*
G37*
G36*
X366500Y381233D02*
X365821Y381144D01*
X365189Y380882D01*
X364646Y380465D01*
X364229Y379922D01*
X363967Y379289D01*
X363878Y378610D01*
X363967Y377932D01*
X364229Y377299D01*
X364327Y377172D01*
Y375994D01*
X357483Y369150D01*
X352850D01*
Y359450D01*
X355364D01*
Y351850D01*
X354450D01*
Y339386D01*
X331200D01*
X330478Y339243D01*
X329945Y338886D01*
X327006D01*
Y340356D01*
X321081D01*
Y333644D01*
X327006D01*
Y335114D01*
X330700D01*
X331422Y335257D01*
X331955Y335614D01*
X356300D01*
X356482Y335650D01*
X361550D01*
Y351850D01*
X359136D01*
Y359450D01*
X360150D01*
Y366482D01*
X367547Y373879D01*
X367956Y374491D01*
X368099Y375213D01*
Y376560D01*
X368354Y376756D01*
X368771Y377299D01*
X369033Y377932D01*
X369122Y378610D01*
X369033Y379289D01*
X368771Y379922D01*
X368354Y380465D01*
X367811Y380882D01*
X367179Y381144D01*
X366500Y381233D01*
D02*
G37*
G36*
X361500Y332622D02*
X360821Y332533D01*
X360189Y332271D01*
X359646Y331854D01*
X359229Y331311D01*
X358967Y330679D01*
X358878Y330000D01*
X358967Y329321D01*
X359003Y329234D01*
X357135Y327365D01*
X356870Y326968D01*
X356776Y326500D01*
Y318350D01*
X354450D01*
Y302150D01*
X361550D01*
Y318350D01*
X359224D01*
Y325993D01*
X360734Y327503D01*
X360821Y327467D01*
X361500Y327378D01*
X362179Y327467D01*
X362811Y327729D01*
X363354Y328146D01*
X363771Y328689D01*
X364033Y329321D01*
X364122Y330000D01*
X364033Y330679D01*
X363771Y331311D01*
X363354Y331854D01*
X362811Y332271D01*
X362179Y332533D01*
X361500Y332622D01*
D02*
G37*
G36*
X327006Y331856D02*
X321081D01*
Y325144D01*
X325669D01*
X326642Y324171D01*
X327039Y323905D01*
X327508Y323812D01*
X327971D01*
X328229Y323189D01*
X328646Y322646D01*
X329189Y322229D01*
X329821Y321967D01*
X330500Y321878D01*
X331179Y321967D01*
X331811Y322229D01*
X332354Y322646D01*
X332771Y323189D01*
X333033Y323821D01*
X333122Y324500D01*
X333033Y325179D01*
X332771Y325811D01*
X332354Y326354D01*
X331811Y326771D01*
X331179Y327033D01*
X330500Y327122D01*
X329821Y327033D01*
X329189Y326771D01*
X328646Y326354D01*
X328573Y326259D01*
X328014D01*
X327064Y327209D01*
X327006Y327249D01*
Y331856D01*
D02*
G37*
G36*
X311100Y331300D02*
X303900D01*
Y327700D01*
X308233D01*
Y322856D01*
X306494D01*
Y316144D01*
X308233D01*
Y314356D01*
X306494D01*
Y307644D01*
X312419D01*
Y314356D01*
X310680D01*
Y316144D01*
X312419D01*
Y322856D01*
X310680D01*
Y327700D01*
X311100D01*
Y331300D01*
D02*
G37*
G36*
X256500Y318015D02*
X254839Y317851D01*
X253241Y317367D01*
X251769Y316580D01*
X250479Y315521D01*
X249420Y314231D01*
X248633Y312759D01*
X248149Y311161D01*
X247985Y309500D01*
X248149Y307839D01*
X248633Y306241D01*
X249420Y304769D01*
X250479Y303479D01*
X251769Y302420D01*
X253241Y301633D01*
X254839Y301149D01*
X256500Y300985D01*
X258161Y301149D01*
X259759Y301633D01*
X261231Y302420D01*
X262521Y303479D01*
X263580Y304769D01*
X264367Y306241D01*
X264851Y307839D01*
X265015Y309500D01*
X264851Y311161D01*
X264367Y312759D01*
X263580Y314231D01*
X262521Y315521D01*
X261231Y316580D01*
X259759Y317367D01*
X258161Y317851D01*
X256500Y318015D01*
D02*
G37*
%LPD*%
D23*
X356500Y364300D02*
D03*
Y378700D02*
D03*
D24*
X358000Y343750D02*
D03*
Y310250D02*
D03*
D29*
X485100Y361500D02*
D03*
X422900D02*
D03*
D43*
X262000Y457937D02*
D03*
Y450063D02*
D03*
X251000Y457937D02*
D03*
Y450063D02*
D03*
X443000Y445063D02*
D03*
Y452937D02*
D03*
Y434437D02*
D03*
Y426563D02*
D03*
X319618Y438535D02*
D03*
Y446409D02*
D03*
X319500Y465437D02*
D03*
Y457563D02*
D03*
D44*
X276500Y377803D02*
D03*
Y428197D02*
D03*
D45*
X332583Y464555D02*
D03*
Y455500D02*
D03*
Y446445D02*
D03*
D46*
X355417Y455500D02*
D03*
D47*
X453000Y429551D02*
D03*
X458000D02*
D03*
X463000D02*
D03*
X468000D02*
D03*
X453000Y448449D02*
D03*
X458000D02*
D03*
X463000D02*
D03*
X468000D02*
D03*
D48*
X286000Y344500D02*
D03*
Y339500D02*
D03*
Y334500D02*
D03*
Y329500D02*
D03*
X307500Y344500D02*
D03*
Y339500D02*
D03*
Y334500D02*
D03*
D49*
Y329500D02*
D03*
D50*
X324043Y345500D02*
D03*
X316957D02*
D03*
X324043Y328500D02*
D03*
X316957D02*
D03*
X307543Y354000D02*
D03*
X300457D02*
D03*
X324043Y337000D02*
D03*
X316957D02*
D03*
X395957Y438535D02*
D03*
X403043D02*
D03*
X417957Y455500D02*
D03*
X425043D02*
D03*
X316543Y319500D02*
D03*
X309457D02*
D03*
X316543Y311000D02*
D03*
X309457D02*
D03*
D51*
X266500Y329976D02*
D03*
Y352024D02*
D03*
D52*
X326500Y403279D02*
D03*
D53*
X336500Y362925D02*
D03*
X316500D02*
D03*
D54*
X292500Y360543D02*
D03*
Y353457D02*
D03*
D55*
X413058Y447394D02*
D03*
X415027D02*
D03*
X416995D02*
D03*
X418964D02*
D03*
X420932D02*
D03*
X422901D02*
D03*
Y431645D02*
D03*
X420932D02*
D03*
X418964D02*
D03*
X416995D02*
D03*
X415027D02*
D03*
X413058D02*
D03*
D56*
X425854Y444441D02*
D03*
Y442472D02*
D03*
Y440504D02*
D03*
Y438535D02*
D03*
Y436567D02*
D03*
Y434598D02*
D03*
X410106D02*
D03*
Y436567D02*
D03*
Y438535D02*
D03*
Y440504D02*
D03*
Y442472D02*
D03*
D57*
Y444441D02*
D03*
D58*
X418000Y439500D02*
D03*
D59*
X440949Y318843D02*
X441272Y318519D01*
Y313499D02*
X445772Y309000D01*
X441272Y313499D02*
Y318519D01*
X319618Y465555D02*
X332583D01*
X313000D02*
X313118Y465437D01*
X319500D01*
X319618Y438535D02*
X320308Y437845D01*
X327000D01*
X425854Y436567D02*
X429933D01*
X436000Y430500D01*
X426917Y434598D02*
X436000Y425516D01*
Y425000D02*
Y425516D01*
X425854Y434598D02*
X426917D01*
X434500Y421500D02*
X440000Y416000D01*
X429086Y421500D02*
X434500D01*
X420942Y429644D02*
X429086Y421500D01*
X420932Y431645D02*
X420942Y431636D01*
Y429644D02*
Y431636D01*
X410106Y440504D02*
X416996D01*
X418964Y408134D02*
Y431645D01*
Y408134D02*
X442464Y384634D01*
Y383036D02*
Y384634D01*
Y383036D02*
X443000Y382500D01*
X433942Y381135D02*
Y389681D01*
X412189Y411434D02*
X433942Y389681D01*
X408500Y448109D02*
Y448500D01*
Y448109D02*
X410106Y446504D01*
Y444441D02*
Y446504D01*
X405300Y445632D02*
X408450Y442482D01*
X405300Y445632D02*
Y480979D01*
X408500Y484179D02*
Y484500D01*
X405300Y480979D02*
X408500Y484179D01*
X459497Y379289D02*
X459500Y379292D01*
Y391000D01*
X422910Y447447D02*
X431947D01*
X432000Y447500D01*
X422901Y447394D02*
Y447437D01*
X422910Y447447D01*
X468000Y448449D02*
X468051Y448500D01*
X474000D01*
X390500Y438500D02*
X395921D01*
X395957Y438535D01*
X408450Y442482D02*
X410096D01*
X410106Y442472D01*
X415027Y452177D02*
X417957Y455106D01*
Y455500D01*
X415027Y447394D02*
Y452177D01*
X478600Y366000D02*
X483100Y361500D01*
X449081Y412535D02*
X478600Y383016D01*
X483100Y361500D02*
X485100D01*
X478600Y366000D02*
Y383016D01*
X449081Y412535D02*
Y432150D01*
X455545Y438613D01*
X456314D02*
X463000Y445299D01*
X455545Y438613D02*
X456314D01*
X463000Y445299D02*
Y448449D01*
X403043Y438535D02*
X403053Y438526D01*
X410096D02*
X410106Y438535D01*
X319500Y457563D02*
X320563Y456500D01*
X319500Y465437D02*
X319618Y465555D01*
X358000Y310250D02*
Y326500D01*
X361500Y330000D01*
X485100Y361500D02*
X487100D01*
X422400Y362000D02*
X422900Y361500D01*
X411000Y362000D02*
X422400D01*
X262000Y457937D02*
X278374D01*
X283937Y463500D01*
X287500D01*
X251000Y457937D02*
X262000D01*
Y450063D02*
X273752D01*
X283937Y439878D01*
X287500D01*
X251000Y450063D02*
X262000D01*
X266500Y347975D02*
Y352024D01*
Y347975D02*
X267475Y347000D01*
X273000D01*
X324043Y328106D02*
Y328500D01*
Y328106D02*
X325805Y326344D01*
X326199D01*
X327508Y325036D01*
X329964D01*
X330500Y324500D01*
X324043Y328500D02*
X324043Y328500D01*
X324043Y345500D02*
X324043Y345500D01*
X331000D01*
X307550Y354000D02*
X307550Y354000D01*
X313500D01*
X307543Y354000D02*
X307550D01*
X284976Y344500D02*
X286000D01*
X284422Y345054D02*
X284976Y344500D01*
X284422Y345054D02*
Y348622D01*
X284044Y349000D02*
X284422Y348622D01*
X309457Y319500D02*
Y328900D01*
X308857Y329500D02*
X309457Y328900D01*
X307500Y329500D02*
X308857D01*
X309457Y311000D02*
Y319500D01*
X267475Y334500D02*
X286000D01*
X266500Y333525D02*
X267475Y334500D01*
X266500Y329976D02*
Y333525D01*
D60*
X366708Y441707D02*
Y442113D01*
X368500Y443905D02*
Y484500D01*
X366708Y442113D02*
X368500Y443905D01*
X366213Y378324D02*
X366500Y378610D01*
X356500Y364300D02*
Y365500D01*
X366213Y375213D01*
Y378324D01*
X328791Y446409D02*
X329827Y447445D01*
X332219D01*
X319618Y446409D02*
X328791D01*
X303293Y439878D02*
X309824Y446409D01*
X319618D01*
X287500Y439878D02*
X303293D01*
X357250Y344500D02*
X358000Y343750D01*
X357250Y344500D02*
Y363550D01*
X356500Y364300D02*
X357250Y363550D01*
X358000Y339200D02*
Y343750D01*
X356300Y337500D02*
X358000Y339200D01*
X331200Y337500D02*
X356300D01*
X330700Y337000D02*
X331200Y337500D01*
X331500Y446726D02*
X332219Y447445D01*
X276500Y428197D02*
X282130D01*
X285880Y431947D01*
Y438258D01*
X287500Y439878D01*
X247000Y423937D02*
X252563Y429500D01*
X275197D01*
X276500Y428197D01*
X253630Y329976D02*
X266500D01*
X247000Y336606D02*
X253630Y329976D01*
X247000Y336606D02*
Y423937D01*
X280194Y343606D02*
X284250Y339550D01*
X280194Y343606D02*
Y360194D01*
X285500Y365500D01*
X287894Y348719D02*
X290850Y345763D01*
X287894Y348719D02*
Y356585D01*
X290850Y332650D02*
Y345763D01*
X288978Y357669D02*
X289232D01*
X292106Y360543D01*
X287894Y356585D02*
X288978Y357669D01*
X292106Y360543D02*
X292500D01*
X287700Y329500D02*
X290850Y332650D01*
X286000Y329500D02*
X287700D01*
X316500Y362925D02*
Y364781D01*
X315781Y365500D02*
X316500Y364781D01*
X285500Y365500D02*
X315781D01*
X316543Y319500D02*
X316750Y319707D01*
Y328293D01*
X316957Y328500D01*
X316543Y311000D02*
Y319500D01*
X316957Y345106D02*
Y345500D01*
X311400Y339550D02*
X316957Y345106D01*
X307550Y339550D02*
X311400D01*
X307500Y339500D02*
X307550Y339550D01*
X336500Y360760D02*
Y362925D01*
X330272Y354532D02*
X336500Y360760D01*
X325341Y354532D02*
X330272D01*
X318069Y347260D02*
X325341Y354532D01*
X318069Y346612D02*
Y347260D01*
X316957Y345500D02*
X318069Y346612D01*
X300457Y354000D02*
X301569Y352888D01*
Y350431D02*
Y352888D01*
Y350431D02*
X305750Y346250D01*
Y344550D02*
Y346250D01*
Y344550D02*
X305800Y344500D01*
X307500D01*
X292500Y353457D02*
X292772Y353728D01*
X300185D01*
X300457Y354000D01*
X316957Y328500D02*
Y336606D01*
Y337000D01*
X314850Y334500D02*
X316957Y336606D01*
X307500Y334500D02*
X314850D01*
X316957Y328500D02*
X316957Y328500D01*
X324043Y337000D02*
X330700D01*
D61*
X407232Y430500D02*
Y433694D01*
X407432Y433894D01*
X409728Y436189D02*
X410106Y436567D01*
X407432Y435603D02*
X408018Y436189D01*
X409728D01*
X407432Y433894D02*
Y435603D01*
X413058Y447394D02*
Y469058D01*
X428500Y484500D01*
X425043Y455500D02*
X436090D01*
X437283Y456693D01*
X471807D01*
X487000Y441500D01*
X445356Y436793D02*
X449081D01*
X458000Y445712D01*
Y448449D01*
X443000Y434437D02*
X445356Y436793D01*
X438705Y438535D02*
X442803Y434437D01*
X443000D01*
X425854Y438535D02*
X438705D01*
X453000Y445785D02*
Y448449D01*
X443000Y445063D02*
X452278D01*
X453000Y445785D01*
X442803Y445063D02*
X443000D01*
X425854Y440504D02*
X438244D01*
X442803Y445063D01*
D62*
X368500Y484500D02*
D03*
X378500D02*
D03*
X388500D02*
D03*
X398500D02*
D03*
X418500D02*
D03*
X408500D02*
D03*
X487000Y461500D02*
D03*
Y451500D02*
D03*
Y441500D02*
D03*
Y431500D02*
D03*
D63*
X428500Y484500D02*
D03*
D64*
X287500Y463500D02*
D03*
Y439878D02*
D03*
D65*
X492000Y309000D02*
D03*
X509913D02*
D03*
X445772D02*
D03*
X463685D02*
D03*
X399543D02*
D03*
X417457D02*
D03*
D66*
X468750Y361500D02*
D03*
X439250D02*
D03*
D67*
X487000Y421500D02*
D03*
D68*
X366708Y441707D02*
D03*
X366500Y378610D02*
D03*
X313000Y465555D02*
D03*
X327000Y437845D02*
D03*
X436000Y430500D02*
D03*
Y425000D02*
D03*
X509913Y387611D02*
D03*
X440000Y416000D02*
D03*
X418000Y439500D02*
D03*
X433942Y381135D02*
D03*
X412189Y411434D02*
D03*
X407232Y430500D02*
D03*
X408500Y448500D02*
D03*
X443000Y382500D02*
D03*
X459497Y379289D02*
D03*
X459500Y391000D02*
D03*
X432000Y447500D02*
D03*
X474000Y448500D02*
D03*
X390500Y438500D02*
D03*
X361500Y330000D02*
D03*
X301569Y431947D02*
D03*
X395499Y400500D02*
D03*
X411000Y362000D02*
D03*
X273000Y347000D02*
D03*
X330500Y324500D02*
D03*
X331000Y345500D02*
D03*
X313500Y354000D02*
D03*
X284044Y349000D02*
D03*
D69*
X487177Y318843D02*
D03*
X514736D02*
D03*
X440949D02*
D03*
X468508D02*
D03*
X394721D02*
D03*
X422280D02*
D03*
D70*
X540500Y481500D02*
D03*
X256500Y309500D02*
D03*
X540500D02*
D03*
X256500Y481500D02*
D03*
M02*
