G04*
G04 #@! TF.GenerationSoftware,Altium Limited,Altium Designer,18.1.11 (251)*
G04*
G04 Layer_Color=16711935*
%FSLAX25Y25*%
%MOIN*%
G70*
G01*
G75*
%ADD15R,0.04343X0.03950*%
%ADD17R,0.06312X0.06706*%
%ADD34R,0.06706X0.06312*%
%ADD41C,0.06706*%
%ADD42R,0.06706X0.06706*%
G04:AMPARAMS|DCode=43|XSize=158mil|YSize=86.74mil|CornerRadius=23.68mil|HoleSize=0mil|Usage=FLASHONLY|Rotation=0.000|XOffset=0mil|YOffset=0mil|HoleType=Round|Shape=RoundedRectangle|*
%AMROUNDEDRECTD43*
21,1,0.15800,0.03937,0,0,0.0*
21,1,0.11063,0.08674,0,0,0.0*
1,1,0.04737,0.05531,-0.01968*
1,1,0.04737,-0.05531,-0.01968*
1,1,0.04737,-0.05531,0.01968*
1,1,0.04737,0.05531,0.01968*
%
%ADD43ROUNDEDRECTD43*%
%ADD44C,0.16548*%
%ADD85O,0.01778X0.06306*%
%ADD86R,0.05524X0.05918*%
%ADD87R,0.04343X0.06706*%
%ADD88R,0.03800X0.10800*%
%ADD89O,0.03800X0.10800*%
D15*
X302000Y391256D02*
D03*
Y385744D02*
D03*
X412500Y391256D02*
D03*
Y385744D02*
D03*
X522000Y391756D02*
D03*
Y386244D02*
D03*
D17*
X520063Y433000D02*
D03*
X527937D02*
D03*
D34*
X539500Y452063D02*
D03*
Y459937D02*
D03*
D41*
X508500Y418500D02*
D03*
X518500D02*
D03*
X528500D02*
D03*
X461500Y309500D02*
D03*
X471500D02*
D03*
X481500D02*
D03*
X491500D02*
D03*
X511500D02*
D03*
X501500D02*
D03*
X503350Y458436D02*
D03*
Y468436D02*
D03*
Y478436D02*
D03*
X483500Y474500D02*
D03*
X473500Y484500D02*
D03*
Y474500D02*
D03*
X463500Y484500D02*
D03*
Y474500D02*
D03*
X453500Y484500D02*
D03*
Y474500D02*
D03*
X443500Y484500D02*
D03*
Y474500D02*
D03*
X433500Y484500D02*
D03*
Y474500D02*
D03*
X423500Y484500D02*
D03*
Y474500D02*
D03*
X413500Y484500D02*
D03*
Y474500D02*
D03*
X403500Y484500D02*
D03*
Y474500D02*
D03*
X393500Y484500D02*
D03*
Y474500D02*
D03*
X383500Y484500D02*
D03*
Y474500D02*
D03*
X373500Y484500D02*
D03*
Y474500D02*
D03*
X363500Y484500D02*
D03*
Y474500D02*
D03*
X353500Y484500D02*
D03*
Y474500D02*
D03*
X343500Y484500D02*
D03*
Y474500D02*
D03*
X333500Y484500D02*
D03*
Y474500D02*
D03*
X323500Y484500D02*
D03*
Y474500D02*
D03*
X313500Y484500D02*
D03*
Y474500D02*
D03*
D42*
X521500Y309500D02*
D03*
X483500Y484500D02*
D03*
D43*
X286000Y469000D02*
D03*
Y445378D02*
D03*
D44*
X540500Y481500D02*
D03*
X256500Y309500D02*
D03*
X540500D02*
D03*
X256500Y481500D02*
D03*
D85*
X544839Y389610D02*
D03*
X542279D02*
D03*
X539720D02*
D03*
X537161D02*
D03*
Y403390D02*
D03*
X539720D02*
D03*
X542279D02*
D03*
X544839D02*
D03*
D86*
X282004Y404752D02*
D03*
X294996D02*
D03*
X282004Y386248D02*
D03*
X294996D02*
D03*
X392104Y404752D02*
D03*
X405096D02*
D03*
X392104Y386248D02*
D03*
X405096D02*
D03*
X502204Y404752D02*
D03*
X515196D02*
D03*
X502204Y386248D02*
D03*
X515196D02*
D03*
D87*
X282004Y405146D02*
D03*
X294996D02*
D03*
X282004Y385854D02*
D03*
X294996D02*
D03*
X392104Y405146D02*
D03*
X405096D02*
D03*
X392104Y385854D02*
D03*
X405096D02*
D03*
X502204Y405146D02*
D03*
X515196D02*
D03*
X502204Y385854D02*
D03*
X515196D02*
D03*
D88*
X517000Y467500D02*
D03*
D89*
X522000D02*
D03*
X527000D02*
D03*
X532000D02*
D03*
X517000Y443900D02*
D03*
X522000D02*
D03*
X527000D02*
D03*
X532000D02*
D03*
M02*
