G04*
G04 #@! TF.GenerationSoftware,Altium Limited,Altium Designer,21.0.8 (223)*
G04*
G04 Layer_Color=65535*
%FSLAX25Y25*%
%MOIN*%
G70*
G04*
G04 #@! TF.SameCoordinates,2B0E51DB-16DA-4BED-BE65-32D912633A35*
G04*
G04*
G04 #@! TF.FilePolarity,Positive*
G04*
G01*
G75*
%ADD10C,0.00984*%
%ADD11C,0.01000*%
%ADD12C,0.00787*%
%ADD13C,0.00600*%
%ADD14C,0.00500*%
D10*
X333075Y468689D02*
G03*
X333075Y468689I-492J0D01*
G01*
X450146Y429551D02*
G03*
X450146Y429551I-492J0D01*
G01*
X312858Y362925D02*
G03*
X312858Y362925I-492J0D01*
G01*
D11*
X298000Y327000D02*
G03*
X295500Y327000I-1250J0D01*
G01*
X495914Y361500D02*
G03*
X495914Y361500I-1414J0D01*
G01*
X269783Y436500D02*
Y493815D01*
X305217D02*
X305217Y436500D01*
X269783Y493815D02*
X305217D01*
X269783Y436500D02*
X278000D01*
X297000D02*
X305217D01*
X251303Y428197D02*
X264500D01*
X251303Y377697D02*
X264500D01*
X251303D02*
Y428197D01*
X301697Y377803D02*
Y428303D01*
X288500D02*
X301697D01*
X288500Y377803D02*
X301697D01*
X301000Y327000D02*
Y347000D01*
X292500D02*
X301000D01*
X292500Y327000D02*
Y347000D01*
Y327000D02*
X295500D01*
X298000D02*
X301000D01*
D12*
X363500Y479500D02*
X433500D01*
Y489500D01*
X363500D02*
X433500D01*
X363500Y479500D02*
Y489500D01*
X259441Y454000D02*
X264559D01*
X248441D02*
X253559D01*
X338488Y442311D02*
Y468689D01*
X349512Y442311D02*
Y468689D01*
X338488D02*
X349512D01*
X338488Y442311D02*
X349512D01*
X450658Y435457D02*
X470342D01*
X450658Y442543D02*
X470342D01*
X450658Y435457D02*
Y442543D01*
X470342Y435457D02*
Y442543D01*
X440441Y449000D02*
X445559D01*
X440441Y430500D02*
X445559D01*
X320500Y343138D02*
Y347862D01*
Y326138D02*
Y330862D01*
X304000Y351638D02*
Y356362D01*
X347169Y378673D02*
Y384776D01*
X305831Y378673D02*
X347169D01*
X305831D02*
Y384776D01*
X317059Y442472D02*
X322177D01*
X316941Y461500D02*
X322059D01*
X320500Y334638D02*
Y339362D01*
X290138Y357000D02*
X294862D01*
X399500Y436173D02*
Y440898D01*
X421500Y453138D02*
Y457862D01*
X482000Y416500D02*
X492000D01*
X482000D02*
Y466500D01*
X492000Y416500D02*
Y466500D01*
X482000D02*
X492000D01*
X313000Y317138D02*
Y321862D01*
Y308638D02*
Y313362D01*
D13*
X351000Y382850D02*
X352140D01*
X356500Y353650D02*
Y358650D01*
X354000Y354650D02*
X359000D01*
X354000Y357650D02*
X356500Y354650D01*
X354500Y357650D02*
X356500Y354650D01*
X355000Y357650D02*
X356500Y354650D01*
X355500Y357650D02*
X356500Y354650D01*
X356000Y357650D02*
X356500Y354650D01*
X359000Y357650D01*
X356500Y354650D02*
X358500Y357650D01*
X356500Y354650D02*
X358000Y357650D01*
X356500Y354650D02*
X357500Y357650D01*
X356500Y354650D02*
X357000Y357650D01*
X354000D02*
X359000D01*
X362000Y360150D02*
Y382850D01*
X360860D02*
X362000D01*
X351000Y360150D02*
Y382850D01*
Y360150D02*
X352140D01*
X360860D02*
X362000D01*
X362260Y306200D02*
X378800D01*
X337200D02*
Y347800D01*
Y306200D02*
X353740D01*
X378800D02*
Y347800D01*
X362260D02*
X378800D01*
X337200D02*
X353740D01*
D14*
X356500Y356000D02*
X359500D01*
X358000Y354500D02*
Y357500D01*
X269500Y328000D02*
X276000D01*
X279000Y331000D01*
Y352500D01*
X257000Y328000D02*
X264000D01*
X253500Y331500D02*
X257000Y328000D01*
X253500Y331500D02*
Y352500D01*
X264000D01*
X269000D02*
X279000D01*
X270500Y332000D02*
X272500D01*
X271500Y331000D02*
Y333000D01*
X358523Y443250D02*
X357571Y445750D01*
X356619Y443250D02*
X357571Y445750D01*
X356298Y443250D02*
Y445750D01*
Y443250D02*
X355226D01*
X354869Y443369D01*
X354750Y443488D01*
X354631Y443726D01*
Y443964D01*
X354750Y444202D01*
X354869Y444321D01*
X355226Y444441D01*
X356298D01*
X355464D02*
X354631Y445750D01*
X354072Y443726D02*
X353834Y443607D01*
X353477Y443250D01*
Y445750D01*
X316685Y474804D02*
X316566Y475042D01*
X316328Y475280D01*
X316090Y475399D01*
X315614D01*
X315376Y475280D01*
X315138Y475042D01*
X315019Y474804D01*
X314900Y474447D01*
Y473852D01*
X315019Y473495D01*
X315138Y473257D01*
X315376Y473019D01*
X315614Y472900D01*
X316090D01*
X316328Y473019D01*
X316566Y473257D01*
X316685Y473495D01*
X317388Y474923D02*
X317626Y475042D01*
X317983Y475399D01*
Y472900D01*
X319339Y474804D02*
Y474923D01*
X319459Y475161D01*
X319578Y475280D01*
X319816Y475399D01*
X320292D01*
X320530Y475280D01*
X320649Y475161D01*
X320768Y474923D01*
Y474685D01*
X320649Y474447D01*
X320411Y474090D01*
X319220Y472900D01*
X320887D01*
X315112Y455800D02*
X314874Y455681D01*
X314636Y455443D01*
X314517Y455205D01*
Y454729D01*
X314636Y454491D01*
X314874Y454252D01*
X315112Y454134D01*
X315469Y454014D01*
X316064D01*
X316421Y454134D01*
X316659Y454252D01*
X316897Y454491D01*
X317016Y454729D01*
Y455205D01*
X316897Y455443D01*
X316659Y455681D01*
X316421Y455800D01*
X314993Y456502D02*
X314874Y456740D01*
X314517Y457097D01*
X317016D01*
X314993Y458335D02*
X314874Y458573D01*
X314517Y458930D01*
X317016D01*
X472429Y441750D02*
Y439964D01*
X472548Y439607D01*
X472786Y439369D01*
X473143Y439250D01*
X473381D01*
X473738Y439369D01*
X473976Y439607D01*
X474095Y439964D01*
Y441750D01*
X475976D02*
X474786Y440083D01*
X476571D01*
X475976Y441750D02*
Y439250D01*
X500720Y317643D02*
X500482Y317881D01*
X500125Y318000D01*
X499649D01*
X499292Y317881D01*
X499054Y317643D01*
Y317405D01*
X499173Y317167D01*
X499292Y317048D01*
X499530Y316929D01*
X500244Y316691D01*
X500482Y316572D01*
X500601Y316453D01*
X500720Y316215D01*
Y315858D01*
X500482Y315620D01*
X500125Y315500D01*
X499649D01*
X499292Y315620D01*
X499054Y315858D01*
X501518Y318000D02*
X502827D01*
X502113Y317048D01*
X502470D01*
X502708Y316929D01*
X502827Y316810D01*
X502946Y316453D01*
Y316215D01*
X502827Y315858D01*
X502589Y315620D01*
X502232Y315500D01*
X501875D01*
X501518Y315620D01*
X501399Y315739D01*
X501280Y315977D01*
X454720Y317643D02*
X454482Y317881D01*
X454125Y318000D01*
X453649D01*
X453292Y317881D01*
X453054Y317643D01*
Y317405D01*
X453173Y317167D01*
X453292Y317048D01*
X453530Y316929D01*
X454244Y316691D01*
X454482Y316572D01*
X454601Y316453D01*
X454720Y316215D01*
Y315858D01*
X454482Y315620D01*
X454125Y315500D01*
X453649D01*
X453292Y315620D01*
X453054Y315858D01*
X455399Y317405D02*
Y317524D01*
X455518Y317762D01*
X455637Y317881D01*
X455875Y318000D01*
X456351D01*
X456589Y317881D01*
X456708Y317762D01*
X456827Y317524D01*
Y317286D01*
X456708Y317048D01*
X456470Y316691D01*
X455280Y315500D01*
X456946D01*
X409756Y318893D02*
X409518Y319131D01*
X409161Y319250D01*
X408685D01*
X408328Y319131D01*
X408090Y318893D01*
Y318655D01*
X408209Y318417D01*
X408328Y318298D01*
X408566Y318179D01*
X409280Y317940D01*
X409518Y317822D01*
X409637Y317702D01*
X409756Y317464D01*
Y317107D01*
X409518Y316869D01*
X409161Y316750D01*
X408685D01*
X408328Y316869D01*
X408090Y317107D01*
X410315Y318774D02*
X410553Y318893D01*
X410910Y319250D01*
Y316750D01*
X272090Y490441D02*
X273161D01*
X273518Y490559D01*
X273637Y490679D01*
X273756Y490917D01*
Y491274D01*
X273637Y491512D01*
X273518Y491631D01*
X273161Y491750D01*
X272090D01*
Y489250D01*
X274315Y491274D02*
X274553Y491393D01*
X274910Y491750D01*
Y489250D01*
X415000Y396600D02*
Y394100D01*
Y396600D02*
X416071D01*
X416428Y396480D01*
X416547Y396361D01*
X416666Y396123D01*
Y395885D01*
X416547Y395647D01*
X416428Y395528D01*
X416071Y395409D01*
X415000D02*
X416071D01*
X416428Y395290D01*
X416547Y395171D01*
X416666Y394933D01*
Y394576D01*
X416547Y394338D01*
X416428Y394219D01*
X416071Y394100D01*
X415000D01*
X418059Y396600D02*
Y394100D01*
X417226Y396600D02*
X418892D01*
X419190Y396123D02*
X419428Y396242D01*
X419785Y396600D01*
Y394100D01*
X434617Y437050D02*
Y434550D01*
Y437050D02*
X435688D01*
X436045Y436931D01*
X436164Y436812D01*
X436283Y436574D01*
Y436336D01*
X436164Y436098D01*
X436045Y435979D01*
X435688Y435859D01*
X434617D01*
X435450D02*
X436283Y434550D01*
X438509Y437050D02*
X437319Y434550D01*
X436843Y437050D02*
X438509D01*
X436250Y444113D02*
X438750D01*
X436250D02*
Y445185D01*
X436369Y445542D01*
X436488Y445661D01*
X436726Y445780D01*
X436964D01*
X437202Y445661D01*
X437322Y445542D01*
X437440Y445185D01*
Y444113D01*
Y444947D02*
X438750Y445780D01*
X436607Y447767D02*
X436369Y447648D01*
X436250Y447291D01*
Y447053D01*
X436369Y446696D01*
X436726Y446458D01*
X437322Y446339D01*
X437917D01*
X438393Y446458D01*
X438631Y446696D01*
X438750Y447053D01*
Y447172D01*
X438631Y447529D01*
X438393Y447767D01*
X438036Y447887D01*
X437917D01*
X437560Y447767D01*
X437322Y447529D01*
X437202Y447172D01*
Y447053D01*
X437322Y446696D01*
X437560Y446458D01*
X437917Y446339D01*
X306673Y424869D02*
X306435Y424750D01*
X306197Y424512D01*
X306078Y424274D01*
X305959Y423917D01*
Y423321D01*
X306078Y422964D01*
X306197Y422726D01*
X306435Y422488D01*
X306673Y422369D01*
X307149D01*
X307387Y422488D01*
X307625Y422726D01*
X307744Y422964D01*
X307863Y423321D01*
Y423917D01*
X307744Y424274D01*
X307625Y424512D01*
X307387Y424750D01*
X307149Y424869D01*
X306673D01*
X307030Y422845D02*
X307744Y422131D01*
X308446Y424393D02*
X308684Y424512D01*
X309041Y424869D01*
Y422369D01*
X253274Y433197D02*
Y430697D01*
X254703D01*
X254977Y432721D02*
X255215Y432839D01*
X255572Y433197D01*
Y430697D01*
X364090Y382250D02*
Y379750D01*
Y382250D02*
X364923D01*
X365280Y382131D01*
X365518Y381893D01*
X365637Y381655D01*
X365756Y381298D01*
Y380702D01*
X365637Y380345D01*
X365518Y380107D01*
X365280Y379869D01*
X364923Y379750D01*
X364090D01*
X366315Y381774D02*
X366553Y381893D01*
X366910Y382250D01*
Y379750D01*
X249768Y464155D02*
X249649Y464393D01*
X249411Y464631D01*
X249173Y464750D01*
X248697D01*
X248459Y464631D01*
X248221Y464393D01*
X248102Y464155D01*
X247983Y463798D01*
Y463202D01*
X248102Y462845D01*
X248221Y462607D01*
X248459Y462369D01*
X248697Y462250D01*
X249173D01*
X249411Y462369D01*
X249649Y462607D01*
X249768Y462845D01*
X251898Y464393D02*
X251779Y464631D01*
X251422Y464750D01*
X251184D01*
X250827Y464631D01*
X250589Y464274D01*
X250470Y463679D01*
Y463083D01*
X250589Y462607D01*
X250827Y462369D01*
X251184Y462250D01*
X251303D01*
X251660Y462369D01*
X251898Y462607D01*
X252017Y462964D01*
Y463083D01*
X251898Y463441D01*
X251660Y463679D01*
X251303Y463798D01*
X251184D01*
X250827Y463679D01*
X250589Y463441D01*
X250470Y463083D01*
X260708Y464155D02*
X260589Y464393D01*
X260351Y464631D01*
X260113Y464750D01*
X259637D01*
X259399Y464631D01*
X259161Y464393D01*
X259042Y464155D01*
X258923Y463798D01*
Y463202D01*
X259042Y462845D01*
X259161Y462607D01*
X259399Y462369D01*
X259637Y462250D01*
X260113D01*
X260351Y462369D01*
X260589Y462607D01*
X260708Y462845D01*
X262839Y464750D02*
X261649D01*
X261530Y463679D01*
X261649Y463798D01*
X262006Y463917D01*
X262363D01*
X262720Y463798D01*
X262958Y463559D01*
X263077Y463202D01*
Y462964D01*
X262958Y462607D01*
X262720Y462369D01*
X262363Y462250D01*
X262006D01*
X261649Y462369D01*
X261530Y462488D01*
X261411Y462726D01*
X256208Y357017D02*
X256089Y357255D01*
X255851Y357493D01*
X255613Y357612D01*
X255137D01*
X254899Y357493D01*
X254661Y357255D01*
X254542Y357017D01*
X254423Y356660D01*
Y356065D01*
X254542Y355708D01*
X254661Y355469D01*
X254899Y355231D01*
X255137Y355113D01*
X255613D01*
X255851Y355231D01*
X256089Y355469D01*
X256208Y355708D01*
X257030Y357017D02*
Y357136D01*
X257149Y357374D01*
X257268Y357493D01*
X257506Y357612D01*
X257982D01*
X258220Y357493D01*
X258339Y357374D01*
X258458Y357136D01*
Y356898D01*
X258339Y356660D01*
X258101Y356303D01*
X256911Y355113D01*
X258577D01*
X408500Y454499D02*
Y452714D01*
X408619Y452357D01*
X408857Y452119D01*
X409214Y452000D01*
X409452D01*
X409809Y452119D01*
X410047Y452357D01*
X410166Y452714D01*
Y454499D01*
X411095D02*
X412404D01*
X411690Y453547D01*
X412047D01*
X412285Y453428D01*
X412404Y453309D01*
X412523Y452952D01*
Y452714D01*
X412404Y452357D01*
X412166Y452119D01*
X411809Y452000D01*
X411452D01*
X411095Y452119D01*
X410976Y452238D01*
X410857Y452476D01*
X287024Y325750D02*
Y323964D01*
X287143Y323607D01*
X287381Y323369D01*
X287738Y323250D01*
X287976D01*
X288333Y323369D01*
X288571Y323607D01*
X288690Y323964D01*
Y325750D01*
X289381Y325274D02*
X289619Y325393D01*
X289976Y325750D01*
Y323250D01*
X414900Y464399D02*
Y461900D01*
Y464399D02*
X415971D01*
X416328Y464280D01*
X416447Y464161D01*
X416566Y463923D01*
Y463685D01*
X416447Y463447D01*
X416328Y463328D01*
X415971Y463209D01*
X414900D01*
X415733D02*
X416566Y461900D01*
X417126Y463923D02*
X417364Y464042D01*
X417721Y464399D01*
Y461900D01*
X419078Y463804D02*
Y463923D01*
X419197Y464161D01*
X419316Y464280D01*
X419554Y464399D01*
X420030D01*
X420268Y464280D01*
X420387Y464161D01*
X420506Y463923D01*
Y463685D01*
X420387Y463447D01*
X420149Y463090D01*
X418959Y461900D01*
X420625D01*
X322048Y352888D02*
Y350388D01*
Y352888D02*
X323120D01*
X323477Y352768D01*
X323596Y352649D01*
X323715Y352412D01*
Y352173D01*
X323596Y351935D01*
X323477Y351816D01*
X323120Y351697D01*
X322048D01*
X322882D02*
X323715Y350388D01*
X325702Y352888D02*
X324512D01*
X324393Y351816D01*
X324512Y351935D01*
X324869Y352054D01*
X325226D01*
X325583Y351935D01*
X325821Y351697D01*
X325940Y351340D01*
Y351102D01*
X325821Y350745D01*
X325583Y350507D01*
X325226Y350388D01*
X324869D01*
X324512Y350507D01*
X324393Y350626D01*
X324274Y350864D01*
X323994Y324250D02*
Y321750D01*
Y324250D02*
X325066D01*
X325423Y324131D01*
X325542Y324012D01*
X325661Y323774D01*
Y323536D01*
X325542Y323298D01*
X325423Y323179D01*
X325066Y323060D01*
X323994D01*
X324828D02*
X325661Y321750D01*
X327410Y324250D02*
X326220Y322583D01*
X328006D01*
X327410Y324250D02*
Y321750D01*
X482100Y470590D02*
X483171D01*
X483528Y470709D01*
X483647Y470828D01*
X483766Y471066D01*
Y471423D01*
X483647Y471661D01*
X483528Y471780D01*
X483171Y471900D01*
X482100D01*
Y469400D01*
X484564Y471900D02*
X485873D01*
X485159Y470947D01*
X485516D01*
X485754Y470828D01*
X485873Y470709D01*
X485992Y470352D01*
Y470114D01*
X485873Y469757D01*
X485635Y469519D01*
X485278Y469400D01*
X484921D01*
X484564Y469519D01*
X484445Y469638D01*
X484326Y469876D01*
X394685Y446904D02*
X394566Y447142D01*
X394328Y447380D01*
X394090Y447500D01*
X393614D01*
X393376Y447380D01*
X393138Y447142D01*
X393019Y446904D01*
X392900Y446547D01*
Y445952D01*
X393019Y445595D01*
X393138Y445357D01*
X393376Y445119D01*
X393614Y445000D01*
X394090D01*
X394328Y445119D01*
X394566Y445357D01*
X394685Y445595D01*
X395388Y447023D02*
X395626Y447142D01*
X395983Y447500D01*
Y445000D01*
X397935Y447500D02*
X397578Y447380D01*
X397340Y447023D01*
X397220Y446428D01*
Y446071D01*
X397340Y445476D01*
X397578Y445119D01*
X397935Y445000D01*
X398173D01*
X398530Y445119D01*
X398768Y445476D01*
X398887Y446071D01*
Y446428D01*
X398768Y447023D01*
X398530Y447380D01*
X398173Y447500D01*
X397935D01*
X381649Y347655D02*
X381530Y347893D01*
X381292Y348131D01*
X381054Y348250D01*
X380578D01*
X380340Y348131D01*
X380102Y347893D01*
X379983Y347655D01*
X379864Y347298D01*
Y346702D01*
X379983Y346345D01*
X380102Y346107D01*
X380340Y345869D01*
X380578Y345750D01*
X381054D01*
X381292Y345869D01*
X381530Y346107D01*
X381649Y346345D01*
X383541Y348250D02*
X382351Y346583D01*
X384137D01*
X383541Y348250D02*
Y345750D01*
X307744Y360805D02*
X307625Y361043D01*
X307387Y361281D01*
X307149Y361400D01*
X306673D01*
X306435Y361281D01*
X306197Y361043D01*
X306078Y360805D01*
X305959Y360448D01*
Y359852D01*
X306078Y359495D01*
X306197Y359257D01*
X306435Y359019D01*
X306673Y358900D01*
X307149D01*
X307387Y359019D01*
X307625Y359257D01*
X307744Y359495D01*
X308446Y360924D02*
X308684Y361043D01*
X309041Y361400D01*
Y358900D01*
X435500Y488190D02*
X436571D01*
X436928Y488309D01*
X437047Y488428D01*
X437166Y488666D01*
Y489023D01*
X437047Y489261D01*
X436928Y489380D01*
X436571Y489500D01*
X435500D01*
Y487000D01*
X437845Y488904D02*
Y489023D01*
X437964Y489261D01*
X438083Y489380D01*
X438321Y489500D01*
X438797D01*
X439035Y489380D01*
X439154Y489261D01*
X439273Y489023D01*
Y488785D01*
X439154Y488547D01*
X438916Y488190D01*
X437726Y487000D01*
X439392D01*
X328000Y338499D02*
Y336000D01*
Y338499D02*
X329071D01*
X329428Y338380D01*
X329547Y338261D01*
X329666Y338023D01*
Y337785D01*
X329547Y337547D01*
X329428Y337428D01*
X329071Y337309D01*
X328000D01*
X328833D02*
X329666Y336000D01*
X330464Y338499D02*
X331773D01*
X331059Y337547D01*
X331416D01*
X331654Y337428D01*
X331773Y337309D01*
X331892Y336952D01*
Y336714D01*
X331773Y336357D01*
X331535Y336119D01*
X331178Y336000D01*
X330821D01*
X330464Y336119D01*
X330345Y336238D01*
X330226Y336476D01*
X301000Y311137D02*
Y308638D01*
Y311137D02*
X302071D01*
X302428Y311018D01*
X302547Y310899D01*
X302666Y310661D01*
Y310423D01*
X302547Y310185D01*
X302428Y310066D01*
X302071Y309947D01*
X301000D01*
X301833D02*
X302666Y308638D01*
X303345Y310542D02*
Y310661D01*
X303464Y310899D01*
X303583Y311018D01*
X303821Y311137D01*
X304297D01*
X304535Y311018D01*
X304654Y310899D01*
X304773Y310661D01*
Y310423D01*
X304654Y310185D01*
X304416Y309828D01*
X303226Y308638D01*
X304892D01*
X291000Y367499D02*
Y365000D01*
Y367499D02*
X292071D01*
X292428Y367380D01*
X292547Y367261D01*
X292666Y367023D01*
Y366785D01*
X292547Y366547D01*
X292428Y366428D01*
X292071Y366309D01*
X291000D01*
X291833D02*
X292666Y365000D01*
X293226Y367023D02*
X293464Y367142D01*
X293821Y367499D01*
Y365000D01*
X302785Y319042D02*
X302666Y319280D01*
X302428Y319518D01*
X302190Y319637D01*
X301714D01*
X301476Y319518D01*
X301238Y319280D01*
X301119Y319042D01*
X301000Y318685D01*
Y318090D01*
X301119Y317733D01*
X301238Y317495D01*
X301476Y317257D01*
X301714Y317138D01*
X302190D01*
X302428Y317257D01*
X302666Y317495D01*
X302785Y317733D01*
X303726Y319637D02*
X305035D01*
X304321Y318685D01*
X304678D01*
X304916Y318566D01*
X305035Y318447D01*
X305154Y318090D01*
Y317852D01*
X305035Y317495D01*
X304797Y317257D01*
X304440Y317138D01*
X304083D01*
X303726Y317257D01*
X303607Y317376D01*
X303488Y317614D01*
M02*
