G04*
G04 #@! TF.GenerationSoftware,Altium Limited,Altium Designer,20.1.12 (249)*
G04*
G04 Layer_Color=16711935*
%FSLAX25Y25*%
%MOIN*%
G70*
G04*
G04 #@! TF.SameCoordinates,74AEBE94-157A-41FA-B5F8-CCC6D1A26549*
G04*
G04*
G04 #@! TF.FilePolarity,Negative*
G04*
G01*
G75*
G04:AMPARAMS|DCode=39|XSize=158mil|YSize=86.74mil|CornerRadius=23.68mil|HoleSize=0mil|Usage=FLASHONLY|Rotation=0.000|XOffset=0mil|YOffset=0mil|HoleType=Round|Shape=RoundedRectangle|*
%AMROUNDEDRECTD39*
21,1,0.15800,0.03937,0,0,0.0*
21,1,0.11063,0.08674,0,0,0.0*
1,1,0.04737,0.05531,-0.01968*
1,1,0.04737,-0.05531,-0.01968*
1,1,0.04737,-0.05531,0.01968*
1,1,0.04737,0.05531,0.01968*
%
%ADD39ROUNDEDRECTD39*%
%ADD40C,0.06312*%
%ADD41C,0.07700*%
%ADD42C,0.06706*%
%ADD43R,0.06706X0.06706*%
%ADD44R,0.06706X0.06706*%
%ADD45C,0.07887*%
%ADD46C,0.04300*%
%ADD47C,0.16548*%
%ADD86R,0.03950X0.04343*%
%ADD87R,0.05918X0.05524*%
%ADD88R,0.06706X0.04343*%
D39*
X287500Y463500D02*
D03*
Y439878D02*
D03*
D40*
X492000Y306500D02*
D03*
X509913D02*
D03*
X445772D02*
D03*
X463685D02*
D03*
X399543D02*
D03*
X417457D02*
D03*
D41*
X468750Y361500D02*
D03*
X439250D02*
D03*
D42*
X494000Y440500D02*
D03*
Y430500D02*
D03*
Y420500D02*
D03*
Y410500D02*
D03*
X313500Y474500D02*
D03*
Y484500D02*
D03*
X323500Y474500D02*
D03*
Y484500D02*
D03*
X333500Y474500D02*
D03*
Y484500D02*
D03*
X343500Y474500D02*
D03*
Y484500D02*
D03*
X353500Y474500D02*
D03*
Y484500D02*
D03*
X363500Y474500D02*
D03*
Y484500D02*
D03*
X373500Y474500D02*
D03*
Y484500D02*
D03*
X383500Y474500D02*
D03*
Y484500D02*
D03*
X393500Y474500D02*
D03*
Y484500D02*
D03*
X403500Y474500D02*
D03*
Y484500D02*
D03*
X413500Y474500D02*
D03*
Y484500D02*
D03*
X423500Y474500D02*
D03*
Y484500D02*
D03*
X433500Y474500D02*
D03*
Y484500D02*
D03*
X443500Y474500D02*
D03*
Y484500D02*
D03*
X453500Y474500D02*
D03*
Y484500D02*
D03*
X463500Y474500D02*
D03*
Y484500D02*
D03*
X473500Y474500D02*
D03*
Y484500D02*
D03*
X483500Y474500D02*
D03*
D43*
X494000Y400500D02*
D03*
D44*
X483500Y484500D02*
D03*
D45*
X487177Y316342D02*
D03*
X514736D02*
D03*
X440949D02*
D03*
X468508D02*
D03*
X394721D02*
D03*
X422280D02*
D03*
D46*
X467500Y414000D02*
D03*
D47*
X540500Y481500D02*
D03*
X256500Y309500D02*
D03*
X540500D02*
D03*
X256500Y481500D02*
D03*
D86*
X279947Y376146D02*
D03*
X274435D02*
D03*
X393168D02*
D03*
X387656D02*
D03*
X506947D02*
D03*
X501435D02*
D03*
D87*
X293907Y399142D02*
D03*
Y386150D02*
D03*
X275403Y399142D02*
D03*
Y386150D02*
D03*
X407675Y399142D02*
D03*
Y386150D02*
D03*
X389171Y399142D02*
D03*
Y386150D02*
D03*
X521443Y399142D02*
D03*
Y386150D02*
D03*
X502939Y399142D02*
D03*
Y386150D02*
D03*
D88*
X294301Y399142D02*
D03*
Y386150D02*
D03*
X275009Y399142D02*
D03*
Y386150D02*
D03*
X408069Y399142D02*
D03*
Y386150D02*
D03*
X388777Y399142D02*
D03*
Y386150D02*
D03*
X521837Y399142D02*
D03*
Y386150D02*
D03*
X502546Y399142D02*
D03*
Y386150D02*
D03*
M02*
