G04*
G04 #@! TF.GenerationSoftware,Altium Limited,Altium Designer,21.0.8 (223)*
G04*
G04 Layer_Color=8388736*
%FSLAX25Y25*%
%MOIN*%
G70*
G04*
G04 #@! TF.SameCoordinates,2B0E51DB-16DA-4BED-BE65-32D912633A35*
G04*
G04*
G04 #@! TF.FilePolarity,Negative*
G04*
G01*
G75*
%ADD15R,0.06706X0.06312*%
%ADD16R,0.22060X0.10800*%
%ADD17R,0.10249X0.04737*%
%ADD18R,0.10249X0.13792*%
%ADD19O,0.03162X0.09461*%
%ADD20O,0.06800X0.03200*%
%ADD21R,0.06800X0.03200*%
%ADD22R,0.05524X0.06312*%
%ADD23R,0.06100X0.08500*%
%ADD24R,0.05900X0.15000*%
%ADD25R,0.03950X0.14186*%
%ADD26R,0.42532X0.34658*%
%ADD27R,0.04737X0.09068*%
%ADD28R,0.06312X0.05524*%
%ADD29R,0.14200X0.10200*%
%ADD30R,0.01981X0.04147*%
%ADD31R,0.04147X0.01981*%
%ADD32O,0.04147X0.01981*%
%ADD33R,0.11036X0.11036*%
%ADD34C,0.06706*%
%ADD35R,0.06706X0.06706*%
G04:AMPARAMS|DCode=36|XSize=158mil|YSize=86.74mil|CornerRadius=23.68mil|HoleSize=0mil|Usage=FLASHONLY|Rotation=0.000|XOffset=0mil|YOffset=0mil|HoleType=Round|Shape=RoundedRectangle|*
%AMROUNDEDRECTD36*
21,1,0.15800,0.03937,0,0,0.0*
21,1,0.11063,0.08674,0,0,0.0*
1,1,0.04737,0.05531,-0.01968*
1,1,0.04737,-0.05531,-0.01968*
1,1,0.04737,-0.05531,0.01968*
1,1,0.04737,0.05531,0.01968*
%
%ADD36ROUNDEDRECTD36*%
%ADD37C,0.06312*%
%ADD38C,0.07700*%
%ADD39R,0.06706X0.06706*%
%ADD40C,0.04800*%
%ADD41C,0.07887*%
%ADD42C,0.16548*%
D15*
X262000Y457937D02*
D03*
Y450063D02*
D03*
X251000Y457937D02*
D03*
Y450063D02*
D03*
X443000Y445063D02*
D03*
Y452937D02*
D03*
Y434437D02*
D03*
Y426563D02*
D03*
X319618Y438535D02*
D03*
Y446409D02*
D03*
X319500Y465437D02*
D03*
Y457563D02*
D03*
D16*
X276500Y377803D02*
D03*
Y428197D02*
D03*
D17*
X332583Y464555D02*
D03*
Y455500D02*
D03*
Y446445D02*
D03*
D18*
X355417Y455500D02*
D03*
D19*
X453000Y429551D02*
D03*
X458000D02*
D03*
X463000D02*
D03*
X468000D02*
D03*
X453000Y448449D02*
D03*
X458000D02*
D03*
X463000D02*
D03*
X468000D02*
D03*
D20*
X286000Y344500D02*
D03*
Y339500D02*
D03*
Y334500D02*
D03*
Y329500D02*
D03*
X307500Y344500D02*
D03*
Y339500D02*
D03*
Y334500D02*
D03*
D21*
Y329500D02*
D03*
D22*
X324043Y345500D02*
D03*
X316957D02*
D03*
X324043Y328500D02*
D03*
X316957D02*
D03*
X307543Y354000D02*
D03*
X300457D02*
D03*
X324043Y337000D02*
D03*
X316957D02*
D03*
X395957Y438535D02*
D03*
X403043D02*
D03*
X417957Y455500D02*
D03*
X425043D02*
D03*
X316543Y319500D02*
D03*
X309457D02*
D03*
X316543Y311000D02*
D03*
X309457D02*
D03*
D23*
X356500Y364300D02*
D03*
Y378700D02*
D03*
D24*
X358000Y343750D02*
D03*
Y310250D02*
D03*
D25*
X266500Y329976D02*
D03*
Y352024D02*
D03*
D26*
X326500Y403279D02*
D03*
D27*
X336500Y362925D02*
D03*
X316500D02*
D03*
D28*
X292500Y360543D02*
D03*
Y353457D02*
D03*
D29*
X485100Y361500D02*
D03*
X422900D02*
D03*
D30*
X413058Y447394D02*
D03*
X415027D02*
D03*
X416995D02*
D03*
X418964D02*
D03*
X420932D02*
D03*
X422901D02*
D03*
Y431645D02*
D03*
X420932D02*
D03*
X418964D02*
D03*
X416995D02*
D03*
X415027D02*
D03*
X413058D02*
D03*
D31*
X425854Y444441D02*
D03*
Y442472D02*
D03*
Y440504D02*
D03*
Y438535D02*
D03*
Y436567D02*
D03*
Y434598D02*
D03*
X410106D02*
D03*
Y436567D02*
D03*
Y438535D02*
D03*
Y440504D02*
D03*
Y442472D02*
D03*
D32*
Y444441D02*
D03*
D33*
X418000Y439500D02*
D03*
D34*
X368500Y484500D02*
D03*
X378500D02*
D03*
X388500D02*
D03*
X398500D02*
D03*
X418500D02*
D03*
X408500D02*
D03*
X487000Y461500D02*
D03*
Y451500D02*
D03*
Y441500D02*
D03*
Y431500D02*
D03*
D35*
X428500Y484500D02*
D03*
D36*
X287500Y463500D02*
D03*
Y439878D02*
D03*
D37*
X492000Y309000D02*
D03*
X509913D02*
D03*
X445772D02*
D03*
X463685D02*
D03*
X399543D02*
D03*
X417457D02*
D03*
D38*
X468750Y361500D02*
D03*
X439250D02*
D03*
D39*
X487000Y421500D02*
D03*
D40*
X418000Y439500D02*
D03*
D41*
X487177Y318843D02*
D03*
X514736D02*
D03*
X440949D02*
D03*
X468508D02*
D03*
X394721D02*
D03*
X422280D02*
D03*
D42*
X540500Y481500D02*
D03*
X256500Y309500D02*
D03*
X540500D02*
D03*
X256500Y481500D02*
D03*
M02*
