M48
;Layer_Color=9474304
;FILE_FORMAT=2:5
INCH,TZ
;TYPE=PLATED
T1F00S00C0.02000
T2F00S00C0.03543
T3F00S00C0.03937
T5F00S00C0.04900
T6F00S00C0.05118
T7F00S00C0.07874
%
T01
X273000Y347000
X284044Y349000
X301569Y431947
X334247Y447874
X356500Y446392
X392000Y427500
X396500Y424300
X395499Y400500
X418955Y421894
Y440263
X411857Y437143
X446000Y420141
X453500Y418941
X455000Y411000
X467500Y414000
X460500Y401000
X441292Y403500
X411000Y362000
X365000Y374500
X361500Y330000
X330500Y324500
X331000Y345500
X313500Y354000
X471664Y398000
X472500Y427500
X514189Y396500
X509913Y387611
X546000Y382000
X542500Y456500
X522500Y483689
X501365Y486000
T02
X494000Y400500
Y410500
Y420500
Y430500
Y440500
X483500Y474500
X473500
Y484500
X483500
X463500
X453500
X443500
X433500
X423500
X413500
X403500
X393500
X383500
X373500
X363500
X353500
X343500
X333500
X323500
X313500
Y474500
X323500
X333500
X343500
X353500
X363500
X373500
X383500
X393500
X403500
X413500
X423500
X433500
X443500
X453500
X463500
T03
X492000Y306500
X509913
X463685
X445772
X417457
X399543
T05
X439250Y361500
X468750
T06
X394721Y316342
X422280
X440949
X468508
X487177
X514736
T07
X540500Y309500
X256500
X540500Y481500
X256500
M30
