M48
;Layer_Color=9474304
;FILE_FORMAT=2:5
INCH,TZ
;TYPE=PLATED
T1F00S00C0.02800
T2F00S00C0.03150
T3F00S00C0.03543
T5F00S00C0.07874
%
T01
X393110Y305500
X299000Y323500
X300500Y346325
X296000Y354000
X288500Y369500
X320989Y352511
X373982Y345825
X399500Y334500
X409000Y420500
X418000Y424500
X425500Y418500
X456500Y400055
X338437Y435449
X321769
X330563Y445949
X330105Y462787
X503350Y447000
X502637Y440426
X501000Y420500
X492000Y423000
X481177Y419500
X546728Y412777
X513000Y365500
X508000Y355000
X498500Y338045
X495000Y319000
X472500Y341000
X522000Y476847
T02
X508500Y418500
X518500
X528500
X503350Y458436
Y468436
Y478436
T03
X471500Y309500
X481500
X491500
X501500
X511500
X521500
X461500
X473500Y474500
X483500
Y484500
X473500
X463500
Y474500
X453500
Y484500
X443500
Y474500
X433500
Y484500
X423500
Y474500
X413500
Y484500
X403500
Y474500
X393500
Y484500
X383500
Y474500
X373500
Y484500
X363500
Y474500
X353500
Y484500
X343500
Y474500
X333500
Y484500
X323500
Y474500
X313500
Y484500
T05
X540500Y309500
X256500
X540500Y481500
X256500
M30
