G04*
G04 #@! TF.GenerationSoftware,Altium Limited,Altium Designer,18.1.11 (251)*
G04*
G04 Layer_Color=16711935*
%FSLAX25Y25*%
%MOIN*%
G70*
G01*
G75*
%ADD46C,0.06706*%
%ADD47R,0.06706X0.06706*%
G04:AMPARAMS|DCode=48|XSize=158mil|YSize=86.74mil|CornerRadius=23.68mil|HoleSize=0mil|Usage=FLASHONLY|Rotation=0.000|XOffset=0mil|YOffset=0mil|HoleType=Round|Shape=RoundedRectangle|*
%AMROUNDEDRECTD48*
21,1,0.15800,0.03937,0,0,0.0*
21,1,0.11063,0.08674,0,0,0.0*
1,1,0.04737,0.05531,-0.01968*
1,1,0.04737,-0.05531,-0.01968*
1,1,0.04737,-0.05531,0.01968*
1,1,0.04737,0.05531,0.01968*
%
%ADD48ROUNDEDRECTD48*%
%ADD49C,0.05800*%
%ADD50C,0.16548*%
%ADD93R,0.04343X0.03950*%
%ADD94O,0.04737X0.08674*%
%ADD95R,0.04737X0.08674*%
D46*
X461500Y309500D02*
D03*
X471500D02*
D03*
X481500D02*
D03*
X491500D02*
D03*
X511500D02*
D03*
X501500D02*
D03*
X500350Y458436D02*
D03*
Y468436D02*
D03*
Y478436D02*
D03*
X483500Y474500D02*
D03*
X473500Y484500D02*
D03*
Y474500D02*
D03*
X463500Y484500D02*
D03*
Y474500D02*
D03*
X453500Y484500D02*
D03*
Y474500D02*
D03*
X443500Y484500D02*
D03*
Y474500D02*
D03*
X433500Y484500D02*
D03*
Y474500D02*
D03*
X423500Y484500D02*
D03*
Y474500D02*
D03*
X413500Y484500D02*
D03*
Y474500D02*
D03*
X403500Y484500D02*
D03*
Y474500D02*
D03*
X393500Y484500D02*
D03*
Y474500D02*
D03*
X383500Y484500D02*
D03*
Y474500D02*
D03*
X373500Y484500D02*
D03*
Y474500D02*
D03*
X363500Y484500D02*
D03*
Y474500D02*
D03*
X353500Y484500D02*
D03*
Y474500D02*
D03*
X343500Y484500D02*
D03*
Y474500D02*
D03*
X333500Y484500D02*
D03*
Y474500D02*
D03*
X323500Y484500D02*
D03*
Y474500D02*
D03*
X313500Y484500D02*
D03*
Y474500D02*
D03*
D47*
X521500Y309500D02*
D03*
X483500Y484500D02*
D03*
D48*
X286000Y469000D02*
D03*
Y445378D02*
D03*
D49*
X508700Y483500D02*
D03*
X373982Y345825D02*
D03*
X320500Y350500D02*
D03*
X300500Y346325D02*
D03*
X296000Y354000D02*
D03*
X280500Y373500D02*
D03*
X305500Y325335D02*
D03*
X386500Y305500D02*
D03*
X529500Y371244D02*
D03*
X399500Y334500D02*
D03*
X513000Y365500D02*
D03*
X495752Y329000D02*
D03*
X508000Y355000D02*
D03*
X487878Y328378D02*
D03*
X464256Y329000D02*
D03*
X535799Y385240D02*
D03*
X536000Y371500D02*
D03*
X481177Y419500D02*
D03*
X425500Y418500D02*
D03*
X536000Y408389D02*
D03*
X398500Y406500D02*
D03*
X505000Y426500D02*
D03*
X439000Y392000D02*
D03*
X321769Y435449D02*
D03*
X409000Y420500D02*
D03*
X338437Y435449D02*
D03*
X418000Y424500D02*
D03*
X508500Y431500D02*
D03*
X330760Y457500D02*
D03*
X330563Y445949D02*
D03*
D50*
X540500Y481500D02*
D03*
X256500Y309500D02*
D03*
X540500D02*
D03*
X256500Y481500D02*
D03*
D93*
X392201Y371244D02*
D03*
Y376756D02*
D03*
X254500Y371244D02*
D03*
Y376756D02*
D03*
X529500Y371244D02*
D03*
Y376756D02*
D03*
D94*
X254701Y406500D02*
D03*
X261000D02*
D03*
X267299D02*
D03*
X254701Y385240D02*
D03*
X261000D02*
D03*
X392201Y406500D02*
D03*
X398500D02*
D03*
X404799D02*
D03*
X392201Y385240D02*
D03*
X398500D02*
D03*
X529500Y406500D02*
D03*
X535799D02*
D03*
X542098D02*
D03*
X529500Y385240D02*
D03*
X535799D02*
D03*
D95*
X267299D02*
D03*
X404799D02*
D03*
X542098D02*
D03*
M02*
