G04*
G04 #@! TF.GenerationSoftware,Altium Limited,Altium Designer,18.1.11 (251)*
G04*
G04 Layer_Color=8388736*
%FSLAX25Y25*%
%MOIN*%
G70*
G01*
G75*
%ADD15R,0.03162X0.05328*%
%ADD16R,0.05524X0.06312*%
%ADD17R,0.09400X0.08800*%
%ADD18R,0.22060X0.10800*%
%ADD19R,0.01981X0.02769*%
%ADD20R,0.05524X0.05524*%
%ADD21R,0.07099X0.06706*%
%ADD22O,0.09461X0.03162*%
%ADD23R,0.06312X0.05524*%
%ADD24R,0.14186X0.16548*%
%ADD25R,0.04737X0.10249*%
%ADD26R,0.13792X0.10249*%
%ADD27R,0.02769X0.01981*%
%ADD28R,0.07099X0.05918*%
G04:AMPARAMS|DCode=29|XSize=126.11mil|YSize=106.42mil|CornerRadius=0mil|HoleSize=0mil|Usage=FLASHONLY|Rotation=215.000|XOffset=0mil|YOffset=0mil|HoleType=Round|Shape=Rectangle|*
%AMROTATEDRECTD29*
4,1,4,0.02113,0.07976,0.08217,-0.00742,-0.02113,-0.07976,-0.08217,0.00742,0.02113,0.07976,0.0*
%
%ADD29ROTATEDRECTD29*%

G04:AMPARAMS|DCode=30|XSize=126.11mil|YSize=106.42mil|CornerRadius=0mil|HoleSize=0mil|Usage=FLASHONLY|Rotation=215.000|XOffset=0mil|YOffset=0mil|HoleType=Round|Shape=Round|*
%AMOVALD30*
21,1,0.01968,0.10642,0.00000,0.00000,215.0*
1,1,0.10642,0.00806,0.00564*
1,1,0.10642,-0.00806,-0.00564*
%
%ADD30OVALD30*%

%ADD31R,0.06706X0.06312*%
%ADD32R,0.01981X0.06706*%
%ADD33O,0.01981X0.06706*%
%ADD34O,0.08674X0.05524*%
%ADD35O,0.05524X0.08674*%
%ADD36R,0.05524X0.08674*%
%ADD37R,0.06312X0.06706*%
%ADD38R,0.03162X0.06509*%
%ADD39R,0.02572X0.08674*%
%ADD40O,0.02572X0.08674*%
%ADD41O,0.08674X0.02572*%
%ADD42O,0.10800X0.03800*%
%ADD43R,0.10800X0.03800*%
%ADD44R,0.05131X0.11430*%
%ADD45R,0.42926X0.37021*%
%ADD46C,0.06706*%
%ADD47R,0.06706X0.06706*%
G04:AMPARAMS|DCode=48|XSize=158mil|YSize=86.74mil|CornerRadius=23.68mil|HoleSize=0mil|Usage=FLASHONLY|Rotation=0.000|XOffset=0mil|YOffset=0mil|HoleType=Round|Shape=RoundedRectangle|*
%AMROUNDEDRECTD48*
21,1,0.15800,0.03937,0,0,0.0*
21,1,0.11063,0.08674,0,0,0.0*
1,1,0.04737,0.05531,-0.01968*
1,1,0.04737,-0.05531,-0.01968*
1,1,0.04737,-0.05531,0.01968*
1,1,0.04737,0.05531,0.01968*
%
%ADD48ROUNDEDRECTD48*%
%ADD49C,0.05800*%
%ADD50C,0.16548*%
D15*
X290784Y335429D02*
D03*
X294524Y326571D02*
D03*
X287044D02*
D03*
D16*
X279043Y357378D02*
D03*
X271957D02*
D03*
Y349000D02*
D03*
X279043D02*
D03*
Y340500D02*
D03*
X271957D02*
D03*
D17*
X334500Y360250D02*
D03*
Y345750D02*
D03*
D18*
X321000Y423697D02*
D03*
Y373303D02*
D03*
D19*
X320000Y344622D02*
D03*
Y347378D02*
D03*
D20*
X317063Y321201D02*
D03*
X324937D02*
D03*
D21*
X321000Y333996D02*
D03*
D22*
X309449Y343500D02*
D03*
Y348500D02*
D03*
Y353500D02*
D03*
Y358500D02*
D03*
X290551Y343500D02*
D03*
Y348500D02*
D03*
Y353500D02*
D03*
Y358500D02*
D03*
D23*
X335500Y325335D02*
D03*
Y332421D02*
D03*
X305500Y325335D02*
D03*
Y332421D02*
D03*
D24*
X357000Y355358D02*
D03*
Y337642D02*
D03*
D25*
X448055Y330917D02*
D03*
X439000D02*
D03*
X429945D02*
D03*
D26*
X439000Y308083D02*
D03*
D27*
X477240Y322000D02*
D03*
X479996D02*
D03*
X510878Y400500D02*
D03*
X508122D02*
D03*
X386622Y327878D02*
D03*
X389378D02*
D03*
D28*
X417000Y305500D02*
D03*
X386500D02*
D03*
X417500Y322500D02*
D03*
X386500D02*
D03*
D29*
X438482Y390988D02*
D03*
D30*
X373982Y345825D02*
D03*
D31*
X493862Y429437D02*
D03*
Y421563D02*
D03*
X487000Y450437D02*
D03*
Y442563D02*
D03*
X261000Y456563D02*
D03*
Y464437D02*
D03*
X250000Y456563D02*
D03*
Y464437D02*
D03*
D32*
X463264Y407830D02*
D03*
D33*
X465823D02*
D03*
X468382D02*
D03*
X470941D02*
D03*
X473500D02*
D03*
X476059D02*
D03*
X478618D02*
D03*
X481177D02*
D03*
X463264Y433027D02*
D03*
X465823D02*
D03*
X468382D02*
D03*
X470941D02*
D03*
X473500D02*
D03*
X476059D02*
D03*
X478618D02*
D03*
X481177D02*
D03*
D34*
X458382Y340740D02*
D03*
Y348614D02*
D03*
Y356488D02*
D03*
Y364362D02*
D03*
Y372236D02*
D03*
Y380110D02*
D03*
D35*
X464256Y329000D02*
D03*
X472130D02*
D03*
X480004D02*
D03*
X487878D02*
D03*
X495752D02*
D03*
X503626D02*
D03*
X511500D02*
D03*
X519374D02*
D03*
X464256Y391992D02*
D03*
X472130D02*
D03*
X480004D02*
D03*
X487878D02*
D03*
X495752D02*
D03*
X503626D02*
D03*
X511500D02*
D03*
D36*
X519374D02*
D03*
D37*
X513339Y407000D02*
D03*
X505465D02*
D03*
X321769Y445949D02*
D03*
X313895D02*
D03*
X338437D02*
D03*
X330563D02*
D03*
X313895Y435449D02*
D03*
X321769D02*
D03*
X330563D02*
D03*
X338437D02*
D03*
D38*
X317832Y465575D02*
D03*
X321572Y456323D02*
D03*
X314092D02*
D03*
X334500Y465626D02*
D03*
X338240Y456374D02*
D03*
X330760D02*
D03*
D39*
X435036Y462787D02*
D03*
D40*
X431886D02*
D03*
X428736D02*
D03*
X425587D02*
D03*
X422437D02*
D03*
X419287D02*
D03*
X416138D02*
D03*
X412988D02*
D03*
X409839D02*
D03*
X406689D02*
D03*
X403539D02*
D03*
Y411213D02*
D03*
X406689D02*
D03*
X409839D02*
D03*
X412988D02*
D03*
X416138D02*
D03*
X419287D02*
D03*
X422437D02*
D03*
X425587D02*
D03*
X428736D02*
D03*
X431886D02*
D03*
X435036D02*
D03*
D41*
X393500Y452748D02*
D03*
Y449598D02*
D03*
Y446449D02*
D03*
Y443299D02*
D03*
Y440150D02*
D03*
Y437000D02*
D03*
Y433850D02*
D03*
Y430701D02*
D03*
Y427551D02*
D03*
Y424402D02*
D03*
Y421252D02*
D03*
X445075D02*
D03*
Y424402D02*
D03*
Y427551D02*
D03*
Y430701D02*
D03*
Y433850D02*
D03*
Y437000D02*
D03*
Y440150D02*
D03*
Y443299D02*
D03*
Y446449D02*
D03*
Y449598D02*
D03*
Y452748D02*
D03*
D42*
X505299Y431500D02*
D03*
Y426500D02*
D03*
Y421500D02*
D03*
Y416500D02*
D03*
X528899Y431500D02*
D03*
Y426500D02*
D03*
Y421500D02*
D03*
D43*
Y416500D02*
D03*
D44*
X260500Y374031D02*
D03*
X280500D02*
D03*
D45*
X270500Y415173D02*
D03*
D46*
X461500Y309500D02*
D03*
X471500D02*
D03*
X481500D02*
D03*
X491500D02*
D03*
X511500D02*
D03*
X501500D02*
D03*
X500350Y458436D02*
D03*
Y468436D02*
D03*
Y478436D02*
D03*
X483500Y474500D02*
D03*
X473500Y484500D02*
D03*
Y474500D02*
D03*
X463500Y484500D02*
D03*
Y474500D02*
D03*
X453500Y484500D02*
D03*
Y474500D02*
D03*
X443500Y484500D02*
D03*
Y474500D02*
D03*
X433500Y484500D02*
D03*
Y474500D02*
D03*
X423500Y484500D02*
D03*
Y474500D02*
D03*
X413500Y484500D02*
D03*
Y474500D02*
D03*
X403500Y484500D02*
D03*
Y474500D02*
D03*
X393500Y484500D02*
D03*
Y474500D02*
D03*
X383500Y484500D02*
D03*
Y474500D02*
D03*
X373500Y484500D02*
D03*
Y474500D02*
D03*
X363500Y484500D02*
D03*
Y474500D02*
D03*
X353500Y484500D02*
D03*
Y474500D02*
D03*
X343500Y484500D02*
D03*
Y474500D02*
D03*
X333500Y484500D02*
D03*
Y474500D02*
D03*
X323500Y484500D02*
D03*
Y474500D02*
D03*
X313500Y484500D02*
D03*
Y474500D02*
D03*
D47*
X521500Y309500D02*
D03*
X483500Y484500D02*
D03*
D48*
X286000Y469000D02*
D03*
Y445378D02*
D03*
D49*
X508700Y483500D02*
D03*
X373982Y345825D02*
D03*
X320500Y350500D02*
D03*
X300500Y346325D02*
D03*
X296000Y354000D02*
D03*
X280500Y373500D02*
D03*
X305500Y325335D02*
D03*
X386500Y305500D02*
D03*
X529500Y371244D02*
D03*
X399500Y334500D02*
D03*
X513000Y365500D02*
D03*
X495752Y329000D02*
D03*
X508000Y355000D02*
D03*
X487878Y328378D02*
D03*
X464256Y329000D02*
D03*
X535799Y385240D02*
D03*
X536000Y371500D02*
D03*
X481177Y419500D02*
D03*
X425500Y418500D02*
D03*
X536000Y408389D02*
D03*
X398500Y406500D02*
D03*
X505000Y426500D02*
D03*
X439000Y392000D02*
D03*
X321769Y435449D02*
D03*
X409000Y420500D02*
D03*
X338437Y435449D02*
D03*
X418000Y424500D02*
D03*
X508500Y431500D02*
D03*
X330760Y457500D02*
D03*
X330563Y445949D02*
D03*
D50*
X540500Y481500D02*
D03*
X256500Y309500D02*
D03*
X540500D02*
D03*
X256500Y481500D02*
D03*
M02*
