G04*
G04 #@! TF.GenerationSoftware,Altium Limited,Altium Designer,18.1.11 (251)*
G04*
G04 Layer_Physical_Order=2*
G04 Layer_Color=16711680*
%FSLAX25Y25*%
%MOIN*%
G70*
G01*
G75*
%ADD82C,0.01200*%
%ADD85C,0.05906*%
%ADD86R,0.05906X0.05906*%
G04:AMPARAMS|DCode=87|XSize=150mil|YSize=78.74mil|CornerRadius=19.68mil|HoleSize=0mil|Usage=FLASHONLY|Rotation=0.000|XOffset=0mil|YOffset=0mil|HoleType=Round|Shape=RoundedRectangle|*
%AMROUNDEDRECTD87*
21,1,0.15000,0.03937,0,0,0.0*
21,1,0.11063,0.07874,0,0,0.0*
1,1,0.03937,0.05531,-0.01968*
1,1,0.03937,-0.05531,-0.01968*
1,1,0.03937,-0.05531,0.01968*
1,1,0.03937,0.05531,0.01968*
%
%ADD87ROUNDEDRECTD87*%
%ADD88C,0.05000*%
%ADD89C,0.15748*%
%ADD90R,0.03543X0.03150*%
%ADD91O,0.03937X0.07874*%
%ADD92R,0.03937X0.07874*%
G36*
X552379Y297621D02*
X244621D01*
Y493378D01*
X322941D01*
X323148Y492878D01*
X318082Y487812D01*
X317817Y487416D01*
X317724Y486947D01*
Y482614D01*
X317817Y482146D01*
X318082Y481749D01*
X321741Y478090D01*
X321602Y477522D01*
X320966Y477034D01*
X320397Y476292D01*
X320039Y475427D01*
X319917Y474500D01*
X320039Y473572D01*
X320397Y472708D01*
X320966Y471966D01*
X321708Y471397D01*
X322573Y471039D01*
X323500Y470917D01*
X324427Y471039D01*
X325292Y471397D01*
X326034Y471966D01*
X326603Y472708D01*
X326961Y473572D01*
X327083Y474500D01*
X326961Y475427D01*
X326603Y476292D01*
X326034Y477034D01*
X325292Y477603D01*
X324724Y477839D01*
Y478061D01*
X324630Y478530D01*
X324365Y478927D01*
X322785Y480506D01*
X323019Y480980D01*
X323500Y480917D01*
X324427Y481039D01*
X325292Y481397D01*
X326034Y481966D01*
X326603Y482708D01*
X326961Y483572D01*
X327083Y484500D01*
X326961Y485428D01*
X326726Y485996D01*
X329507Y488776D01*
X486985D01*
X487277Y488442D01*
X486982Y488053D01*
X486571Y488053D01*
X479947D01*
Y480947D01*
X487053D01*
Y487555D01*
X487053Y488010D01*
X487437Y488333D01*
X488677Y487093D01*
Y478886D01*
X488770Y478418D01*
X489035Y478021D01*
X497124Y469932D01*
X496889Y469363D01*
X496767Y468436D01*
X496889Y467508D01*
X497247Y466644D01*
X497817Y465902D01*
X498559Y465333D01*
X499423Y464975D01*
X500350Y464853D01*
X501278Y464975D01*
X501846Y465210D01*
X544921Y422135D01*
X545276Y421897D01*
Y382313D01*
X545167Y382239D01*
X544667Y382506D01*
Y389777D01*
X540008D01*
X538142Y391642D01*
X537746Y391908D01*
X537277Y392001D01*
X528022D01*
X527554Y391908D01*
X527157Y391642D01*
X516238Y380724D01*
X407368D01*
Y389777D01*
X402708D01*
X400843Y391642D01*
X400446Y391908D01*
X399978Y392001D01*
X389884D01*
X389693Y392463D01*
X399322Y402092D01*
X399795Y402288D01*
X400332Y402700D01*
X400744Y403236D01*
X401002Y403861D01*
X401091Y404531D01*
Y404784D01*
X401208Y404937D01*
X401520Y405691D01*
X401627Y406500D01*
X401520Y407309D01*
X401208Y408063D01*
X401091Y408216D01*
Y408468D01*
X401002Y409139D01*
X400744Y409764D01*
X400332Y410300D01*
X399795Y410712D01*
X399170Y410971D01*
X398500Y411059D01*
X397830Y410971D01*
X397205Y410712D01*
X396668Y410300D01*
X396256Y409764D01*
X395998Y409139D01*
X395909Y408468D01*
Y408216D01*
X395792Y408063D01*
X395480Y407309D01*
X395373Y406500D01*
X395480Y405691D01*
X395792Y404937D01*
X395909Y404784D01*
Y404531D01*
X395998Y403861D01*
X396256Y403236D01*
X396582Y402812D01*
X387570Y393801D01*
X387532D01*
X387063Y393707D01*
X386666Y393442D01*
X358748Y365524D01*
X281752D01*
X271691Y375585D01*
Y396316D01*
X271598Y396785D01*
X271333Y397182D01*
X264486Y404028D01*
X264089Y404293D01*
X263621Y404387D01*
X263578Y404436D01*
X263591Y404531D01*
Y408468D01*
X263502Y409139D01*
X263244Y409764D01*
X262832Y410300D01*
X262295Y410712D01*
X261670Y410971D01*
X261000Y411059D01*
X260330Y410971D01*
X259705Y410712D01*
X259168Y410300D01*
X258756Y409764D01*
X258498Y409139D01*
X258409Y408468D01*
Y404531D01*
X258498Y403861D01*
X258756Y403236D01*
X258871Y403087D01*
X258625Y402587D01*
X257076D01*
X256830Y403087D01*
X256944Y403236D01*
X257203Y403861D01*
X257291Y404531D01*
Y408468D01*
X257203Y409139D01*
X256944Y409764D01*
X256533Y410300D01*
X255996Y410712D01*
X255371Y410971D01*
X254977Y411023D01*
X254610Y411477D01*
X254594Y411550D01*
X254612Y411637D01*
Y424382D01*
X277378Y447148D01*
X277878Y446940D01*
Y443409D01*
X277966Y442739D01*
X278225Y442114D01*
X278637Y441578D01*
X279173Y441166D01*
X279798Y440907D01*
X280469Y440819D01*
X291531D01*
X292202Y440907D01*
X292827Y441166D01*
X293363Y441578D01*
X293775Y442114D01*
X294034Y442739D01*
X294122Y443409D01*
Y447346D01*
X294034Y448017D01*
X293775Y448642D01*
X293363Y449178D01*
X292827Y449590D01*
X292202Y449849D01*
X291531Y449937D01*
X280874D01*
X280667Y450437D01*
X292876Y462646D01*
X293312Y462733D01*
X293709Y462998D01*
X295565Y464854D01*
X295830Y465251D01*
X295917Y465687D01*
X305227Y474997D01*
X309347D01*
X309481Y475023D01*
X309931Y474612D01*
X309917Y474500D01*
X310039Y473572D01*
X310397Y472708D01*
X310966Y471966D01*
X311708Y471397D01*
X312573Y471039D01*
X313500Y470917D01*
X314427Y471039D01*
X315292Y471397D01*
X316034Y471966D01*
X316603Y472708D01*
X316961Y473572D01*
X317083Y474500D01*
X316961Y475427D01*
X316603Y476292D01*
X316034Y477034D01*
X315292Y477603D01*
X314427Y477961D01*
X313631Y478066D01*
X313389Y478532D01*
X314365Y479508D01*
X314630Y479905D01*
X314723Y480373D01*
Y481161D01*
X315292Y481397D01*
X316034Y481966D01*
X316603Y482708D01*
X316961Y483572D01*
X317083Y484500D01*
X316961Y485428D01*
X316603Y486292D01*
X316034Y487034D01*
X315292Y487603D01*
X314427Y487961D01*
X313500Y488083D01*
X312573Y487961D01*
X311708Y487603D01*
X310966Y487034D01*
X310397Y486292D01*
X310039Y485428D01*
X309917Y484500D01*
X310039Y483572D01*
X310397Y482708D01*
X310966Y481966D01*
X311708Y481397D01*
X312013Y481271D01*
X312096Y480699D01*
X308840Y477444D01*
X304720D01*
X304252Y477351D01*
X303855Y477085D01*
X293835Y467065D01*
X293570Y466668D01*
X293483Y466232D01*
X292331Y465080D01*
X291895Y464993D01*
X291498Y464728D01*
X252523Y425753D01*
X252258Y425357D01*
X252165Y424888D01*
Y412144D01*
X250667Y410646D01*
X250402Y410249D01*
X250309Y409781D01*
Y404662D01*
X250276Y404500D01*
X250309Y404338D01*
Y403219D01*
X250402Y402751D01*
X250667Y402354D01*
X252523Y400498D01*
X252920Y400233D01*
X253388Y400140D01*
X262369D01*
X266076Y396432D01*
Y389777D01*
X264731D01*
Y380707D01*
X264375Y380356D01*
X263031Y381699D01*
X263244Y381976D01*
X263502Y382601D01*
X263591Y383272D01*
Y387209D01*
X263502Y387879D01*
X263244Y388504D01*
X262832Y389040D01*
X262295Y389452D01*
X261670Y389711D01*
X261000Y389799D01*
X260330Y389711D01*
X259705Y389452D01*
X259168Y389040D01*
X258756Y388504D01*
X258498Y387879D01*
X258409Y387209D01*
Y383272D01*
X258498Y382601D01*
X258756Y381976D01*
X259168Y381440D01*
X259705Y381028D01*
X260330Y380769D01*
X260526Y380743D01*
X268340Y372930D01*
X268149Y372468D01*
X256872D01*
Y373419D01*
X252128D01*
Y369069D01*
X256872D01*
Y370021D01*
X268704D01*
X278889Y359835D01*
X279286Y359570D01*
X279754Y359476D01*
X360746D01*
X361214Y359570D01*
X361611Y359835D01*
X371796Y370021D01*
X389829D01*
Y369069D01*
X394572D01*
Y369527D01*
X526656Y370010D01*
X526792Y369681D01*
X527128Y369243D01*
Y369069D01*
X527261D01*
X527289Y369033D01*
X527937Y368536D01*
X528691Y368224D01*
X529500Y368117D01*
X529552Y368124D01*
X529785Y367651D01*
X494887Y332752D01*
X494622Y332355D01*
X494528Y331887D01*
Y331849D01*
X494189Y331708D01*
X493541Y331211D01*
X493044Y330563D01*
X492732Y329809D01*
X492625Y329000D01*
X492732Y328191D01*
X493044Y327437D01*
X493541Y326789D01*
X494189Y326292D01*
X494943Y325980D01*
X495752Y325873D01*
X496561Y325980D01*
X497315Y326292D01*
X497963Y326789D01*
X498460Y327437D01*
X498772Y328191D01*
X498879Y329000D01*
X498772Y329809D01*
X498460Y330563D01*
X497963Y331211D01*
X497709Y331406D01*
X497665Y332070D01*
X531595Y366000D01*
X531667Y366014D01*
X532063Y366279D01*
X534465Y368681D01*
X534517Y368759D01*
X535191Y368480D01*
X536000Y368373D01*
X536809Y368480D01*
X537563Y368792D01*
X538211Y369289D01*
X538708Y369937D01*
X539020Y370691D01*
X539127Y371500D01*
X539020Y372309D01*
X538708Y373063D01*
X538211Y373711D01*
X537995Y373877D01*
X538165Y374377D01*
X540626D01*
X541095Y374470D01*
X541492Y374735D01*
X547365Y380608D01*
X547630Y381005D01*
X547723Y381473D01*
Y423000D01*
X547630Y423468D01*
X547365Y423865D01*
X546968Y424130D01*
X546500Y424224D01*
X546293D01*
X503576Y466940D01*
X503812Y467508D01*
X503934Y468436D01*
X503812Y469363D01*
X503454Y470228D01*
X502884Y470970D01*
X502142Y471539D01*
X501278Y471897D01*
X500350Y472019D01*
X499423Y471897D01*
X498855Y471662D01*
X491123Y479393D01*
Y487600D01*
X491030Y488068D01*
X490765Y488465D01*
X488754Y490477D01*
X488961Y490976D01*
X499493D01*
X505821Y484649D01*
X505680Y484309D01*
X505573Y483500D01*
X505680Y482691D01*
X505992Y481937D01*
X506489Y481289D01*
X507137Y480792D01*
X507891Y480480D01*
X508700Y480373D01*
X509509Y480480D01*
X510263Y480792D01*
X510911Y481289D01*
X511408Y481937D01*
X511720Y482691D01*
X511827Y483500D01*
X511720Y484309D01*
X511408Y485063D01*
X510911Y485711D01*
X510263Y486208D01*
X509509Y486520D01*
X508700Y486627D01*
X507891Y486520D01*
X507551Y486379D01*
X501052Y492878D01*
X501259Y493378D01*
X552378D01*
X552379Y297621D01*
D02*
G37*
G36*
X533984Y389054D02*
X533967Y389040D01*
X533556Y388504D01*
X533297Y387879D01*
X533209Y387209D01*
Y386956D01*
X533091Y386804D01*
X532779Y386049D01*
X532673Y385240D01*
X532779Y384431D01*
X533091Y383677D01*
X533209Y383524D01*
Y383272D01*
X533297Y382601D01*
X533556Y381976D01*
X533967Y381440D01*
X534504Y381028D01*
X535129Y380769D01*
X535799Y380681D01*
X536470Y380769D01*
X537094Y381028D01*
X537631Y381440D01*
X538043Y381976D01*
X538302Y382601D01*
X538390Y383272D01*
Y383524D01*
X538507Y383677D01*
X538819Y384431D01*
X538926Y385240D01*
X538819Y386049D01*
X538507Y386804D01*
X538564Y387053D01*
X539112Y387212D01*
X539530Y386794D01*
Y380703D01*
X543346D01*
X543537Y380241D01*
X540120Y376823D01*
X534302D01*
X533834Y376730D01*
X533437Y376465D01*
X532334Y375362D01*
X531872Y375553D01*
Y378931D01*
X530723D01*
Y380998D01*
X530795Y381028D01*
X531332Y381440D01*
X531744Y381976D01*
X532002Y382601D01*
X532091Y383272D01*
Y387209D01*
X532002Y387879D01*
X531744Y388504D01*
X531332Y389040D01*
X531315Y389054D01*
X531485Y389554D01*
X533815D01*
X533984Y389054D01*
D02*
G37*
G36*
X396685D02*
X396668Y389040D01*
X396256Y388504D01*
X395998Y387879D01*
X395909Y387209D01*
Y383272D01*
X395998Y382601D01*
X396256Y381976D01*
X396668Y381440D01*
X397205Y381028D01*
X397830Y380769D01*
X398500Y380681D01*
X399170Y380769D01*
X399313Y380828D01*
X400365Y379775D01*
X400365Y379775D01*
X401506Y378635D01*
X401903Y378370D01*
X402371Y378276D01*
X516745D01*
X517213Y378370D01*
X517610Y378635D01*
X526439Y387464D01*
X526912Y387230D01*
X526909Y387209D01*
Y383272D01*
X526998Y382601D01*
X527256Y381976D01*
X527668Y381440D01*
X528205Y381028D01*
X528276Y380998D01*
Y378931D01*
X527128D01*
Y374581D01*
X528149D01*
X528249Y374081D01*
X527937Y373952D01*
X527289Y373455D01*
X527261Y373419D01*
X527128D01*
Y373246D01*
X526792Y372808D01*
X526647Y372457D01*
X394927Y371976D01*
X394572Y372329D01*
Y373419D01*
X389829D01*
Y372468D01*
X372351D01*
X372160Y372930D01*
X388784Y389554D01*
X390216D01*
X390386Y389054D01*
X390369Y389040D01*
X389957Y388504D01*
X389698Y387879D01*
X389610Y387209D01*
Y383272D01*
X389698Y382601D01*
X389957Y381976D01*
X390369Y381440D01*
X390905Y381028D01*
X390977Y380998D01*
Y378931D01*
X389829D01*
Y374581D01*
X394572D01*
Y378931D01*
X393424D01*
Y380998D01*
X393496Y381028D01*
X394033Y381440D01*
X394444Y381976D01*
X394703Y382601D01*
X394791Y383272D01*
Y387209D01*
X394703Y387879D01*
X394444Y388504D01*
X394033Y389040D01*
X394016Y389054D01*
X394185Y389554D01*
X396515D01*
X396685Y389054D01*
D02*
G37*
%LPC*%
G36*
X473500Y488083D02*
X472573Y487961D01*
X471708Y487603D01*
X470966Y487034D01*
X470397Y486292D01*
X470039Y485428D01*
X469917Y484500D01*
X470039Y483572D01*
X470397Y482708D01*
X470966Y481966D01*
X471708Y481397D01*
X472573Y481039D01*
X473500Y480917D01*
X474428Y481039D01*
X475292Y481397D01*
X476034Y481966D01*
X476603Y482708D01*
X476961Y483572D01*
X477083Y484500D01*
X476961Y485428D01*
X476603Y486292D01*
X476034Y487034D01*
X475292Y487603D01*
X474428Y487961D01*
X473500Y488083D01*
D02*
G37*
G36*
X463500D02*
X462572Y487961D01*
X461708Y487603D01*
X460966Y487034D01*
X460397Y486292D01*
X460039Y485428D01*
X459917Y484500D01*
X460039Y483572D01*
X460397Y482708D01*
X460966Y481966D01*
X461708Y481397D01*
X462572Y481039D01*
X463500Y480917D01*
X464428Y481039D01*
X465292Y481397D01*
X466034Y481966D01*
X466603Y482708D01*
X466961Y483572D01*
X467083Y484500D01*
X466961Y485428D01*
X466603Y486292D01*
X466034Y487034D01*
X465292Y487603D01*
X464428Y487961D01*
X463500Y488083D01*
D02*
G37*
G36*
X453500D02*
X452572Y487961D01*
X451708Y487603D01*
X450966Y487034D01*
X450397Y486292D01*
X450039Y485428D01*
X449917Y484500D01*
X450039Y483572D01*
X450397Y482708D01*
X450966Y481966D01*
X451708Y481397D01*
X452572Y481039D01*
X453500Y480917D01*
X454427Y481039D01*
X455292Y481397D01*
X456034Y481966D01*
X456603Y482708D01*
X456961Y483572D01*
X457083Y484500D01*
X456961Y485428D01*
X456603Y486292D01*
X456034Y487034D01*
X455292Y487603D01*
X454427Y487961D01*
X453500Y488083D01*
D02*
G37*
G36*
X443500D02*
X442572Y487961D01*
X441708Y487603D01*
X440966Y487034D01*
X440397Y486292D01*
X440039Y485428D01*
X439917Y484500D01*
X440039Y483572D01*
X440397Y482708D01*
X440966Y481966D01*
X441708Y481397D01*
X442572Y481039D01*
X443500Y480917D01*
X444427Y481039D01*
X445292Y481397D01*
X446034Y481966D01*
X446603Y482708D01*
X446961Y483572D01*
X447083Y484500D01*
X446961Y485428D01*
X446603Y486292D01*
X446034Y487034D01*
X445292Y487603D01*
X444427Y487961D01*
X443500Y488083D01*
D02*
G37*
G36*
X433500D02*
X432573Y487961D01*
X431708Y487603D01*
X430966Y487034D01*
X430397Y486292D01*
X430039Y485428D01*
X429917Y484500D01*
X430039Y483572D01*
X430397Y482708D01*
X430966Y481966D01*
X431708Y481397D01*
X432573Y481039D01*
X433500Y480917D01*
X434427Y481039D01*
X435292Y481397D01*
X436034Y481966D01*
X436603Y482708D01*
X436961Y483572D01*
X437083Y484500D01*
X436961Y485428D01*
X436603Y486292D01*
X436034Y487034D01*
X435292Y487603D01*
X434427Y487961D01*
X433500Y488083D01*
D02*
G37*
G36*
X423500D02*
X422573Y487961D01*
X421708Y487603D01*
X420966Y487034D01*
X420397Y486292D01*
X420039Y485428D01*
X419917Y484500D01*
X420039Y483572D01*
X420397Y482708D01*
X420966Y481966D01*
X421708Y481397D01*
X422573Y481039D01*
X423500Y480917D01*
X424428Y481039D01*
X425292Y481397D01*
X426034Y481966D01*
X426603Y482708D01*
X426961Y483572D01*
X427083Y484500D01*
X426961Y485428D01*
X426603Y486292D01*
X426034Y487034D01*
X425292Y487603D01*
X424428Y487961D01*
X423500Y488083D01*
D02*
G37*
G36*
X413500D02*
X412572Y487961D01*
X411708Y487603D01*
X410966Y487034D01*
X410397Y486292D01*
X410039Y485428D01*
X409917Y484500D01*
X410039Y483572D01*
X410397Y482708D01*
X410966Y481966D01*
X411708Y481397D01*
X412572Y481039D01*
X413500Y480917D01*
X414428Y481039D01*
X415292Y481397D01*
X416034Y481966D01*
X416603Y482708D01*
X416961Y483572D01*
X417083Y484500D01*
X416961Y485428D01*
X416603Y486292D01*
X416034Y487034D01*
X415292Y487603D01*
X414428Y487961D01*
X413500Y488083D01*
D02*
G37*
G36*
X403500D02*
X402573Y487961D01*
X401708Y487603D01*
X400966Y487034D01*
X400397Y486292D01*
X400039Y485428D01*
X399917Y484500D01*
X400039Y483572D01*
X400397Y482708D01*
X400966Y481966D01*
X401708Y481397D01*
X402573Y481039D01*
X403500Y480917D01*
X404427Y481039D01*
X405292Y481397D01*
X406034Y481966D01*
X406603Y482708D01*
X406961Y483572D01*
X407083Y484500D01*
X406961Y485428D01*
X406603Y486292D01*
X406034Y487034D01*
X405292Y487603D01*
X404427Y487961D01*
X403500Y488083D01*
D02*
G37*
G36*
X393500D02*
X392573Y487961D01*
X391708Y487603D01*
X390966Y487034D01*
X390397Y486292D01*
X390039Y485428D01*
X389917Y484500D01*
X390039Y483572D01*
X390397Y482708D01*
X390966Y481966D01*
X391708Y481397D01*
X392573Y481039D01*
X393500Y480917D01*
X394427Y481039D01*
X395292Y481397D01*
X396034Y481966D01*
X396603Y482708D01*
X396961Y483572D01*
X397083Y484500D01*
X396961Y485428D01*
X396603Y486292D01*
X396034Y487034D01*
X395292Y487603D01*
X394427Y487961D01*
X393500Y488083D01*
D02*
G37*
G36*
X383500D02*
X382573Y487961D01*
X381708Y487603D01*
X380966Y487034D01*
X380397Y486292D01*
X380039Y485428D01*
X379917Y484500D01*
X380039Y483572D01*
X380397Y482708D01*
X380966Y481966D01*
X381708Y481397D01*
X382573Y481039D01*
X383500Y480917D01*
X384427Y481039D01*
X385292Y481397D01*
X386034Y481966D01*
X386603Y482708D01*
X386961Y483572D01*
X387083Y484500D01*
X386961Y485428D01*
X386603Y486292D01*
X386034Y487034D01*
X385292Y487603D01*
X384427Y487961D01*
X383500Y488083D01*
D02*
G37*
G36*
X373500D02*
X372573Y487961D01*
X371708Y487603D01*
X370966Y487034D01*
X370397Y486292D01*
X370039Y485428D01*
X369917Y484500D01*
X370039Y483572D01*
X370397Y482708D01*
X370966Y481966D01*
X371708Y481397D01*
X372573Y481039D01*
X373500Y480917D01*
X374427Y481039D01*
X375292Y481397D01*
X376034Y481966D01*
X376603Y482708D01*
X376961Y483572D01*
X377083Y484500D01*
X376961Y485428D01*
X376603Y486292D01*
X376034Y487034D01*
X375292Y487603D01*
X374427Y487961D01*
X373500Y488083D01*
D02*
G37*
G36*
X363500D02*
X362573Y487961D01*
X361708Y487603D01*
X360966Y487034D01*
X360397Y486292D01*
X360039Y485428D01*
X359917Y484500D01*
X360039Y483572D01*
X360397Y482708D01*
X360966Y481966D01*
X361708Y481397D01*
X362573Y481039D01*
X363500Y480917D01*
X364427Y481039D01*
X365292Y481397D01*
X366034Y481966D01*
X366603Y482708D01*
X366961Y483572D01*
X367083Y484500D01*
X366961Y485428D01*
X366603Y486292D01*
X366034Y487034D01*
X365292Y487603D01*
X364427Y487961D01*
X363500Y488083D01*
D02*
G37*
G36*
X353500D02*
X352573Y487961D01*
X351708Y487603D01*
X350966Y487034D01*
X350397Y486292D01*
X350039Y485428D01*
X349917Y484500D01*
X350039Y483572D01*
X350397Y482708D01*
X350966Y481966D01*
X351708Y481397D01*
X352573Y481039D01*
X353500Y480917D01*
X354427Y481039D01*
X355292Y481397D01*
X356034Y481966D01*
X356603Y482708D01*
X356961Y483572D01*
X357083Y484500D01*
X356961Y485428D01*
X356603Y486292D01*
X356034Y487034D01*
X355292Y487603D01*
X354427Y487961D01*
X353500Y488083D01*
D02*
G37*
G36*
X343500D02*
X342573Y487961D01*
X341708Y487603D01*
X340966Y487034D01*
X340397Y486292D01*
X340039Y485428D01*
X339917Y484500D01*
X340039Y483572D01*
X340397Y482708D01*
X340966Y481966D01*
X341708Y481397D01*
X342573Y481039D01*
X343500Y480917D01*
X344427Y481039D01*
X345292Y481397D01*
X346034Y481966D01*
X346603Y482708D01*
X346961Y483572D01*
X347083Y484500D01*
X346961Y485428D01*
X346603Y486292D01*
X346034Y487034D01*
X345292Y487603D01*
X344427Y487961D01*
X343500Y488083D01*
D02*
G37*
G36*
X333500D02*
X332573Y487961D01*
X331708Y487603D01*
X330966Y487034D01*
X330397Y486292D01*
X330039Y485428D01*
X329917Y484500D01*
X330039Y483572D01*
X330397Y482708D01*
X330966Y481966D01*
X331708Y481397D01*
X332573Y481039D01*
X333500Y480917D01*
X334427Y481039D01*
X335292Y481397D01*
X336034Y481966D01*
X336603Y482708D01*
X336961Y483572D01*
X337083Y484500D01*
X336961Y485428D01*
X336603Y486292D01*
X336034Y487034D01*
X335292Y487603D01*
X334427Y487961D01*
X333500Y488083D01*
D02*
G37*
G36*
X500350Y482019D02*
X499423Y481897D01*
X498559Y481539D01*
X497817Y480970D01*
X497247Y480228D01*
X496889Y479363D01*
X496767Y478436D01*
X496889Y477508D01*
X497247Y476644D01*
X497817Y475902D01*
X498559Y475333D01*
X499423Y474975D01*
X500350Y474853D01*
X501278Y474975D01*
X502142Y475333D01*
X502884Y475902D01*
X503454Y476644D01*
X503812Y477508D01*
X503934Y478436D01*
X503812Y479363D01*
X503454Y480228D01*
X502884Y480970D01*
X502142Y481539D01*
X501278Y481897D01*
X500350Y482019D01*
D02*
G37*
G36*
X540500Y490015D02*
X538839Y489851D01*
X537241Y489367D01*
X535769Y488580D01*
X534479Y487521D01*
X533420Y486231D01*
X532633Y484759D01*
X532149Y483161D01*
X531985Y481500D01*
X532149Y479839D01*
X532633Y478241D01*
X533420Y476769D01*
X534479Y475479D01*
X535769Y474420D01*
X537241Y473633D01*
X538839Y473149D01*
X540500Y472985D01*
X542161Y473149D01*
X543759Y473633D01*
X545231Y474420D01*
X546521Y475479D01*
X547580Y476769D01*
X548367Y478241D01*
X548851Y479839D01*
X549015Y481500D01*
X548851Y483161D01*
X548367Y484759D01*
X547580Y486231D01*
X546521Y487521D01*
X545231Y488580D01*
X543759Y489367D01*
X542161Y489851D01*
X540500Y490015D01*
D02*
G37*
G36*
X256500D02*
X254839Y489851D01*
X253241Y489367D01*
X251769Y488580D01*
X250479Y487521D01*
X249420Y486231D01*
X248633Y484759D01*
X248149Y483161D01*
X247985Y481500D01*
X248149Y479839D01*
X248633Y478241D01*
X249420Y476769D01*
X250479Y475479D01*
X251769Y474420D01*
X253241Y473633D01*
X254839Y473149D01*
X256500Y472985D01*
X258161Y473149D01*
X259759Y473633D01*
X261231Y474420D01*
X262521Y475479D01*
X263580Y476769D01*
X264367Y478241D01*
X264851Y479839D01*
X265015Y481500D01*
X264851Y483161D01*
X264367Y484759D01*
X263580Y486231D01*
X262521Y487521D01*
X261231Y488580D01*
X259759Y489367D01*
X258161Y489851D01*
X256500Y490015D01*
D02*
G37*
G36*
X483500Y478083D02*
X482573Y477961D01*
X481708Y477603D01*
X480966Y477034D01*
X480397Y476292D01*
X480039Y475427D01*
X479917Y474500D01*
X480039Y473572D01*
X480397Y472708D01*
X480966Y471966D01*
X481708Y471397D01*
X482573Y471039D01*
X483500Y470917D01*
X484427Y471039D01*
X485292Y471397D01*
X486034Y471966D01*
X486603Y472708D01*
X486961Y473572D01*
X487083Y474500D01*
X486961Y475427D01*
X486603Y476292D01*
X486034Y477034D01*
X485292Y477603D01*
X484427Y477961D01*
X483500Y478083D01*
D02*
G37*
G36*
X473500D02*
X472573Y477961D01*
X471708Y477603D01*
X470966Y477034D01*
X470397Y476292D01*
X470039Y475427D01*
X469917Y474500D01*
X470039Y473572D01*
X470397Y472708D01*
X470966Y471966D01*
X471708Y471397D01*
X472573Y471039D01*
X473500Y470917D01*
X474428Y471039D01*
X475292Y471397D01*
X476034Y471966D01*
X476603Y472708D01*
X476961Y473572D01*
X477083Y474500D01*
X476961Y475427D01*
X476603Y476292D01*
X476034Y477034D01*
X475292Y477603D01*
X474428Y477961D01*
X473500Y478083D01*
D02*
G37*
G36*
X463500D02*
X462572Y477961D01*
X461708Y477603D01*
X460966Y477034D01*
X460397Y476292D01*
X460039Y475427D01*
X459917Y474500D01*
X460039Y473572D01*
X460397Y472708D01*
X460966Y471966D01*
X461708Y471397D01*
X462572Y471039D01*
X463500Y470917D01*
X464428Y471039D01*
X465292Y471397D01*
X466034Y471966D01*
X466603Y472708D01*
X466961Y473572D01*
X467083Y474500D01*
X466961Y475427D01*
X466603Y476292D01*
X466034Y477034D01*
X465292Y477603D01*
X464428Y477961D01*
X463500Y478083D01*
D02*
G37*
G36*
X453500D02*
X452572Y477961D01*
X451708Y477603D01*
X450966Y477034D01*
X450397Y476292D01*
X450039Y475427D01*
X449917Y474500D01*
X450039Y473572D01*
X450397Y472708D01*
X450966Y471966D01*
X451708Y471397D01*
X452572Y471039D01*
X453500Y470917D01*
X454427Y471039D01*
X455292Y471397D01*
X456034Y471966D01*
X456603Y472708D01*
X456961Y473572D01*
X457083Y474500D01*
X456961Y475427D01*
X456603Y476292D01*
X456034Y477034D01*
X455292Y477603D01*
X454427Y477961D01*
X453500Y478083D01*
D02*
G37*
G36*
X443500D02*
X442572Y477961D01*
X441708Y477603D01*
X440966Y477034D01*
X440397Y476292D01*
X440039Y475427D01*
X439917Y474500D01*
X440039Y473572D01*
X440397Y472708D01*
X440966Y471966D01*
X441708Y471397D01*
X442572Y471039D01*
X443500Y470917D01*
X444427Y471039D01*
X445292Y471397D01*
X446034Y471966D01*
X446603Y472708D01*
X446961Y473572D01*
X447083Y474500D01*
X446961Y475427D01*
X446603Y476292D01*
X446034Y477034D01*
X445292Y477603D01*
X444427Y477961D01*
X443500Y478083D01*
D02*
G37*
G36*
X433500D02*
X432573Y477961D01*
X431708Y477603D01*
X430966Y477034D01*
X430397Y476292D01*
X430039Y475427D01*
X429917Y474500D01*
X430039Y473572D01*
X430397Y472708D01*
X430966Y471966D01*
X431708Y471397D01*
X432573Y471039D01*
X433500Y470917D01*
X434427Y471039D01*
X435292Y471397D01*
X436034Y471966D01*
X436603Y472708D01*
X436961Y473572D01*
X437083Y474500D01*
X436961Y475427D01*
X436603Y476292D01*
X436034Y477034D01*
X435292Y477603D01*
X434427Y477961D01*
X433500Y478083D01*
D02*
G37*
G36*
X423500D02*
X422573Y477961D01*
X421708Y477603D01*
X420966Y477034D01*
X420397Y476292D01*
X420039Y475427D01*
X419917Y474500D01*
X420039Y473572D01*
X420397Y472708D01*
X420966Y471966D01*
X421708Y471397D01*
X422573Y471039D01*
X423500Y470917D01*
X424428Y471039D01*
X425292Y471397D01*
X426034Y471966D01*
X426603Y472708D01*
X426961Y473572D01*
X427083Y474500D01*
X426961Y475427D01*
X426603Y476292D01*
X426034Y477034D01*
X425292Y477603D01*
X424428Y477961D01*
X423500Y478083D01*
D02*
G37*
G36*
X413500D02*
X412572Y477961D01*
X411708Y477603D01*
X410966Y477034D01*
X410397Y476292D01*
X410039Y475427D01*
X409917Y474500D01*
X410039Y473572D01*
X410397Y472708D01*
X410966Y471966D01*
X411708Y471397D01*
X412572Y471039D01*
X413500Y470917D01*
X414428Y471039D01*
X415292Y471397D01*
X416034Y471966D01*
X416603Y472708D01*
X416961Y473572D01*
X417083Y474500D01*
X416961Y475427D01*
X416603Y476292D01*
X416034Y477034D01*
X415292Y477603D01*
X414428Y477961D01*
X413500Y478083D01*
D02*
G37*
G36*
X403500D02*
X402573Y477961D01*
X401708Y477603D01*
X400966Y477034D01*
X400397Y476292D01*
X400039Y475427D01*
X399917Y474500D01*
X400039Y473572D01*
X400397Y472708D01*
X400966Y471966D01*
X401708Y471397D01*
X402573Y471039D01*
X403500Y470917D01*
X404427Y471039D01*
X405292Y471397D01*
X406034Y471966D01*
X406603Y472708D01*
X406961Y473572D01*
X407083Y474500D01*
X406961Y475427D01*
X406603Y476292D01*
X406034Y477034D01*
X405292Y477603D01*
X404427Y477961D01*
X403500Y478083D01*
D02*
G37*
G36*
X393500D02*
X392573Y477961D01*
X391708Y477603D01*
X390966Y477034D01*
X390397Y476292D01*
X390039Y475427D01*
X389917Y474500D01*
X390039Y473572D01*
X390397Y472708D01*
X390966Y471966D01*
X391708Y471397D01*
X392573Y471039D01*
X393500Y470917D01*
X394427Y471039D01*
X395292Y471397D01*
X396034Y471966D01*
X396603Y472708D01*
X396961Y473572D01*
X397083Y474500D01*
X396961Y475427D01*
X396603Y476292D01*
X396034Y477034D01*
X395292Y477603D01*
X394427Y477961D01*
X393500Y478083D01*
D02*
G37*
G36*
X383500D02*
X382573Y477961D01*
X381708Y477603D01*
X380966Y477034D01*
X380397Y476292D01*
X380039Y475427D01*
X379917Y474500D01*
X380039Y473572D01*
X380397Y472708D01*
X380966Y471966D01*
X381708Y471397D01*
X382573Y471039D01*
X383500Y470917D01*
X384427Y471039D01*
X385292Y471397D01*
X386034Y471966D01*
X386603Y472708D01*
X386961Y473572D01*
X387083Y474500D01*
X386961Y475427D01*
X386603Y476292D01*
X386034Y477034D01*
X385292Y477603D01*
X384427Y477961D01*
X383500Y478083D01*
D02*
G37*
G36*
X373500D02*
X372573Y477961D01*
X371708Y477603D01*
X370966Y477034D01*
X370397Y476292D01*
X370039Y475427D01*
X369917Y474500D01*
X370039Y473572D01*
X370397Y472708D01*
X370966Y471966D01*
X371708Y471397D01*
X372573Y471039D01*
X373500Y470917D01*
X374427Y471039D01*
X375292Y471397D01*
X376034Y471966D01*
X376603Y472708D01*
X376961Y473572D01*
X377083Y474500D01*
X376961Y475427D01*
X376603Y476292D01*
X376034Y477034D01*
X375292Y477603D01*
X374427Y477961D01*
X373500Y478083D01*
D02*
G37*
G36*
X363500D02*
X362573Y477961D01*
X361708Y477603D01*
X360966Y477034D01*
X360397Y476292D01*
X360039Y475427D01*
X359917Y474500D01*
X360039Y473572D01*
X360397Y472708D01*
X360966Y471966D01*
X361708Y471397D01*
X362573Y471039D01*
X363500Y470917D01*
X364427Y471039D01*
X365292Y471397D01*
X366034Y471966D01*
X366603Y472708D01*
X366961Y473572D01*
X367083Y474500D01*
X366961Y475427D01*
X366603Y476292D01*
X366034Y477034D01*
X365292Y477603D01*
X364427Y477961D01*
X363500Y478083D01*
D02*
G37*
G36*
X353500D02*
X352573Y477961D01*
X351708Y477603D01*
X350966Y477034D01*
X350397Y476292D01*
X350039Y475427D01*
X349917Y474500D01*
X350039Y473572D01*
X350397Y472708D01*
X350966Y471966D01*
X351708Y471397D01*
X352573Y471039D01*
X353500Y470917D01*
X354427Y471039D01*
X355292Y471397D01*
X356034Y471966D01*
X356603Y472708D01*
X356961Y473572D01*
X357083Y474500D01*
X356961Y475427D01*
X356603Y476292D01*
X356034Y477034D01*
X355292Y477603D01*
X354427Y477961D01*
X353500Y478083D01*
D02*
G37*
G36*
X343500D02*
X342573Y477961D01*
X341708Y477603D01*
X340966Y477034D01*
X340397Y476292D01*
X340039Y475427D01*
X339917Y474500D01*
X340039Y473572D01*
X340397Y472708D01*
X340966Y471966D01*
X341708Y471397D01*
X342573Y471039D01*
X343500Y470917D01*
X344427Y471039D01*
X345292Y471397D01*
X346034Y471966D01*
X346603Y472708D01*
X346961Y473572D01*
X347083Y474500D01*
X346961Y475427D01*
X346603Y476292D01*
X346034Y477034D01*
X345292Y477603D01*
X344427Y477961D01*
X343500Y478083D01*
D02*
G37*
G36*
X333500D02*
X332573Y477961D01*
X331708Y477603D01*
X330966Y477034D01*
X330397Y476292D01*
X330039Y475427D01*
X329917Y474500D01*
X330039Y473572D01*
X330397Y472708D01*
X330966Y471966D01*
X331708Y471397D01*
X332573Y471039D01*
X333500Y470917D01*
X334427Y471039D01*
X335292Y471397D01*
X336034Y471966D01*
X336603Y472708D01*
X336961Y473572D01*
X337083Y474500D01*
X336961Y475427D01*
X336603Y476292D01*
X336034Y477034D01*
X335292Y477603D01*
X334427Y477961D01*
X333500Y478083D01*
D02*
G37*
G36*
X330760Y460627D02*
X329951Y460520D01*
X329197Y460208D01*
X328549Y459711D01*
X328052Y459063D01*
X327740Y458309D01*
X327633Y457500D01*
X327740Y456691D01*
X328052Y455937D01*
X328549Y455289D01*
X329197Y454792D01*
X329340Y454733D01*
Y448798D01*
X329000Y448657D01*
X328352Y448160D01*
X327855Y447512D01*
X327543Y446758D01*
X327436Y445949D01*
X327543Y445140D01*
X327855Y444385D01*
X328352Y443738D01*
X329000Y443241D01*
X329754Y442929D01*
X330563Y442822D01*
X331372Y442929D01*
X332126Y443241D01*
X332774Y443738D01*
X333271Y444385D01*
X333583Y445140D01*
X333690Y445949D01*
X333583Y446758D01*
X333271Y447512D01*
X332774Y448160D01*
X332126Y448657D01*
X331786Y448798D01*
Y454570D01*
X332323Y454792D01*
X332971Y455289D01*
X333468Y455937D01*
X333780Y456691D01*
X333887Y457500D01*
X333780Y458309D01*
X333468Y459063D01*
X332971Y459711D01*
X332323Y460208D01*
X331569Y460520D01*
X330760Y460627D01*
D02*
G37*
G36*
X338437Y438576D02*
X337628Y438469D01*
X336874Y438157D01*
X336226Y437660D01*
X335729Y437012D01*
X335417Y436258D01*
X335310Y435449D01*
X335417Y434640D01*
X335501Y434437D01*
X335077Y434153D01*
X332916Y436314D01*
X332519Y436579D01*
X332051Y436672D01*
X324618D01*
X324477Y437012D01*
X323980Y437660D01*
X323333Y438157D01*
X322579Y438469D01*
X321769Y438576D01*
X320960Y438469D01*
X320206Y438157D01*
X319558Y437660D01*
X319061Y437012D01*
X318749Y436258D01*
X318642Y435449D01*
X318749Y434640D01*
X319061Y433885D01*
X319558Y433238D01*
X320206Y432741D01*
X320960Y432429D01*
X321769Y432322D01*
X322579Y432429D01*
X323333Y432741D01*
X323980Y433238D01*
X324477Y433885D01*
X324618Y434225D01*
X331544D01*
X335635Y430135D01*
X336032Y429870D01*
X336500Y429776D01*
X397284D01*
X405953Y421107D01*
X405873Y420500D01*
X405980Y419691D01*
X406292Y418937D01*
X406789Y418289D01*
X407437Y417792D01*
X408191Y417480D01*
X409000Y417373D01*
X409809Y417480D01*
X410563Y417792D01*
X411211Y418289D01*
X411708Y418937D01*
X412020Y419691D01*
X412127Y420500D01*
X412020Y421309D01*
X411708Y422063D01*
X411211Y422711D01*
X410995Y422877D01*
X411165Y423377D01*
X415110D01*
X415292Y422937D01*
X415789Y422289D01*
X416437Y421792D01*
X417191Y421480D01*
X418000Y421373D01*
X418809Y421480D01*
X419563Y421792D01*
X420211Y422289D01*
X420708Y422937D01*
X421020Y423691D01*
X421127Y424500D01*
X421020Y425309D01*
X420708Y426063D01*
X420211Y426711D01*
X419563Y427208D01*
X418809Y427520D01*
X418000Y427627D01*
X417191Y427520D01*
X416437Y427208D01*
X415789Y426711D01*
X415292Y426063D01*
X415193Y425823D01*
X407808D01*
X397318Y436314D01*
X396921Y436579D01*
X396453Y436672D01*
X341286D01*
X341145Y437012D01*
X340648Y437660D01*
X340000Y438157D01*
X339246Y438469D01*
X338437Y438576D01*
D02*
G37*
G36*
X505000Y429627D02*
X504191Y429520D01*
X503437Y429208D01*
X502789Y428711D01*
X502292Y428063D01*
X502151Y427724D01*
X473500D01*
X473032Y427630D01*
X472635Y427365D01*
X440149Y394879D01*
X439809Y395020D01*
X439000Y395127D01*
X438191Y395020D01*
X437437Y394708D01*
X436789Y394211D01*
X436292Y393563D01*
X435980Y392809D01*
X435873Y392000D01*
X435980Y391191D01*
X436292Y390437D01*
X436789Y389789D01*
X437437Y389292D01*
X438191Y388980D01*
X439000Y388873D01*
X439809Y388980D01*
X440563Y389292D01*
X441211Y389789D01*
X441708Y390437D01*
X442020Y391191D01*
X442127Y392000D01*
X442020Y392809D01*
X441879Y393149D01*
X474007Y425277D01*
X502151D01*
X502292Y424937D01*
X502789Y424289D01*
X503437Y423792D01*
X504191Y423480D01*
X505000Y423373D01*
X505809Y423480D01*
X506563Y423792D01*
X507211Y424289D01*
X507708Y424937D01*
X508020Y425691D01*
X508127Y426500D01*
X508020Y427309D01*
X507708Y428063D01*
X507211Y428711D01*
X506563Y429208D01*
X505809Y429520D01*
X505000Y429627D01*
D02*
G37*
G36*
X536000Y411516D02*
X535191Y411409D01*
X534437Y411097D01*
X533789Y410600D01*
X533292Y409952D01*
X532980Y409198D01*
X532873Y408389D01*
X532980Y407580D01*
X533209Y407027D01*
Y404531D01*
X533297Y403861D01*
X533556Y403236D01*
X533967Y402700D01*
X534504Y402288D01*
X535129Y402029D01*
X535799Y401941D01*
X536470Y402029D01*
X537094Y402288D01*
X537631Y402700D01*
X538043Y403236D01*
X538302Y403861D01*
X538390Y404531D01*
Y406411D01*
X538708Y406825D01*
X539020Y407580D01*
X539127Y408389D01*
X539020Y409198D01*
X538708Y409952D01*
X538211Y410600D01*
X537563Y411097D01*
X536809Y411409D01*
X536000Y411516D01*
D02*
G37*
G36*
X529500Y411059D02*
X528829Y410971D01*
X528205Y410712D01*
X527668Y410300D01*
X527256Y409764D01*
X526998Y409139D01*
X526909Y408468D01*
Y404531D01*
X526998Y403861D01*
X527256Y403236D01*
X527668Y402700D01*
X528205Y402288D01*
X528829Y402029D01*
X529500Y401941D01*
X530170Y402029D01*
X530795Y402288D01*
X531332Y402700D01*
X531744Y403236D01*
X532002Y403861D01*
X532091Y404531D01*
Y408468D01*
X532002Y409139D01*
X531744Y409764D01*
X531332Y410300D01*
X530795Y410712D01*
X530170Y410971D01*
X529500Y411059D01*
D02*
G37*
G36*
X392201D02*
X391530Y410971D01*
X390905Y410712D01*
X390369Y410300D01*
X389957Y409764D01*
X389698Y409139D01*
X389610Y408468D01*
Y404531D01*
X389698Y403861D01*
X389957Y403236D01*
X390369Y402700D01*
X390905Y402288D01*
X391530Y402029D01*
X392201Y401941D01*
X392871Y402029D01*
X393496Y402288D01*
X394033Y402700D01*
X394444Y403236D01*
X394703Y403861D01*
X394791Y404531D01*
Y408468D01*
X394703Y409139D01*
X394444Y409764D01*
X394033Y410300D01*
X393496Y410712D01*
X392871Y410971D01*
X392201Y411059D01*
D02*
G37*
G36*
X254701Y389799D02*
X254030Y389711D01*
X253405Y389452D01*
X252869Y389040D01*
X252457Y388504D01*
X252198Y387879D01*
X252110Y387209D01*
Y383272D01*
X252198Y382601D01*
X252457Y381976D01*
X252869Y381440D01*
X253276Y381127D01*
Y378931D01*
X252128D01*
Y374581D01*
X256872D01*
Y378931D01*
X255724D01*
Y380915D01*
X255996Y381028D01*
X256533Y381440D01*
X256944Y381976D01*
X257203Y382601D01*
X257291Y383272D01*
Y387209D01*
X257203Y387879D01*
X256944Y388504D01*
X256533Y389040D01*
X255996Y389452D01*
X255371Y389711D01*
X254701Y389799D01*
D02*
G37*
G36*
X346197Y423803D02*
X295803Y423697D01*
Y373303D01*
X346197D01*
Y423803D01*
D02*
G37*
G36*
X513000Y368627D02*
X512191Y368520D01*
X511437Y368208D01*
X510789Y367711D01*
X510292Y367063D01*
X509980Y366309D01*
X509873Y365500D01*
X509980Y364691D01*
X510033Y364562D01*
X481695Y336224D01*
X402085D01*
X401711Y336711D01*
X401063Y337208D01*
X400309Y337520D01*
X399500Y337627D01*
X398691Y337520D01*
X397937Y337208D01*
X397289Y336711D01*
X396792Y336063D01*
X396480Y335309D01*
X396373Y334500D01*
X396480Y333691D01*
X396792Y332937D01*
X397289Y332289D01*
X397937Y331792D01*
X398691Y331480D01*
X399500Y331373D01*
X400309Y331480D01*
X401063Y331792D01*
X401711Y332289D01*
X402208Y332937D01*
X402520Y333691D01*
X402531Y333776D01*
X482202D01*
X482670Y333870D01*
X483067Y334135D01*
X504435Y355503D01*
X504909Y355270D01*
X504873Y355000D01*
X504980Y354191D01*
X505121Y353851D01*
X463621Y312351D01*
X463292Y312603D01*
X462428Y312961D01*
X461500Y313083D01*
X460572Y312961D01*
X459708Y312603D01*
X458966Y312034D01*
X458397Y311292D01*
X458039Y310427D01*
X457917Y309500D01*
X458039Y308573D01*
X458397Y307708D01*
X458966Y306966D01*
X459708Y306397D01*
X460572Y306039D01*
X461500Y305917D01*
X462428Y306039D01*
X463292Y306397D01*
X464034Y306966D01*
X464603Y307708D01*
X464961Y308573D01*
X465083Y309500D01*
X464984Y310254D01*
X484599Y329868D01*
X485023Y329585D01*
X484858Y329187D01*
X484751Y328378D01*
X484858Y327569D01*
X485170Y326815D01*
X485667Y326167D01*
X486315Y325670D01*
X487069Y325358D01*
X487878Y325251D01*
X488687Y325358D01*
X489027Y325499D01*
X501003Y313522D01*
X500824Y312994D01*
X500572Y312961D01*
X499708Y312603D01*
X498966Y312034D01*
X498397Y311292D01*
X498039Y310427D01*
X497917Y309500D01*
X498039Y308573D01*
X498397Y307708D01*
X498966Y306966D01*
X499708Y306397D01*
X500572Y306039D01*
X501500Y305917D01*
X502427Y306039D01*
X503292Y306397D01*
X504034Y306966D01*
X504603Y307708D01*
X504961Y308573D01*
X505083Y309500D01*
X504961Y310427D01*
X504603Y311292D01*
X504034Y312034D01*
X503649Y312329D01*
X503819Y312829D01*
X509181D01*
X509351Y312329D01*
X508966Y312034D01*
X508397Y311292D01*
X508039Y310427D01*
X507917Y309500D01*
X508039Y308573D01*
X508397Y307708D01*
X508966Y306966D01*
X509708Y306397D01*
X510572Y306039D01*
X511500Y305917D01*
X512428Y306039D01*
X513292Y306397D01*
X514034Y306966D01*
X514603Y307708D01*
X514961Y308573D01*
X515083Y309500D01*
X515020Y309981D01*
X515494Y310215D01*
X517073Y308635D01*
X517470Y308370D01*
X517939Y308277D01*
X517947D01*
Y305947D01*
X525053D01*
Y313053D01*
X517947D01*
Y311875D01*
X517485Y311684D01*
X514251Y314918D01*
X513854Y315183D01*
X513386Y315276D01*
X502710D01*
X490757Y327229D01*
X490898Y327569D01*
X491005Y328378D01*
X490898Y329187D01*
X490586Y329941D01*
X490089Y330589D01*
X489441Y331086D01*
X488687Y331398D01*
X487878Y331505D01*
X487069Y331398D01*
X486671Y331233D01*
X486387Y331657D01*
X506851Y352121D01*
X507191Y351980D01*
X508000Y351873D01*
X508809Y351980D01*
X509563Y352292D01*
X510211Y352789D01*
X510708Y353437D01*
X511020Y354191D01*
X511127Y355000D01*
X511020Y355809D01*
X510708Y356563D01*
X510211Y357211D01*
X509563Y357708D01*
X508809Y358020D01*
X508000Y358127D01*
X507730Y358091D01*
X507497Y358565D01*
X511640Y362708D01*
X512191Y362480D01*
X513000Y362373D01*
X513809Y362480D01*
X514563Y362792D01*
X515211Y363289D01*
X515708Y363937D01*
X516020Y364691D01*
X516127Y365500D01*
X516020Y366309D01*
X515708Y367063D01*
X515211Y367711D01*
X514563Y368208D01*
X513809Y368520D01*
X513000Y368627D01*
D02*
G37*
G36*
X296000Y357127D02*
X295191Y357020D01*
X294437Y356708D01*
X293789Y356211D01*
X293292Y355563D01*
X292980Y354809D01*
X292873Y354000D01*
X292980Y353191D01*
X293292Y352437D01*
X293789Y351789D01*
X294437Y351292D01*
X295191Y350980D01*
X296000Y350873D01*
X296809Y350980D01*
X297149Y351121D01*
X298635Y349635D01*
X299032Y349370D01*
X299500Y349276D01*
X317651D01*
X317792Y348937D01*
X318289Y348289D01*
X318937Y347792D01*
X319691Y347480D01*
X320500Y347373D01*
X321309Y347480D01*
X322063Y347792D01*
X322711Y348289D01*
X323208Y348937D01*
X323520Y349691D01*
X323627Y350500D01*
X323520Y351309D01*
X323208Y352063D01*
X322711Y352711D01*
X322063Y353208D01*
X321309Y353520D01*
X320500Y353627D01*
X319691Y353520D01*
X318937Y353208D01*
X318289Y352711D01*
X317792Y352063D01*
X317651Y351724D01*
X300007D01*
X298879Y352851D01*
X299020Y353191D01*
X299127Y354000D01*
X299020Y354809D01*
X298708Y355563D01*
X298211Y356211D01*
X297563Y356708D01*
X296809Y357020D01*
X296000Y357127D01*
D02*
G37*
G36*
X491500Y313083D02*
X490573Y312961D01*
X489708Y312603D01*
X488966Y312034D01*
X488397Y311292D01*
X488039Y310427D01*
X487917Y309500D01*
X488039Y308573D01*
X488397Y307708D01*
X488966Y306966D01*
X489708Y306397D01*
X490573Y306039D01*
X491500Y305917D01*
X492427Y306039D01*
X493292Y306397D01*
X494034Y306966D01*
X494603Y307708D01*
X494961Y308573D01*
X495083Y309500D01*
X494961Y310427D01*
X494603Y311292D01*
X494034Y312034D01*
X493292Y312603D01*
X492427Y312961D01*
X491500Y313083D01*
D02*
G37*
G36*
X481500D02*
X480573Y312961D01*
X479708Y312603D01*
X478966Y312034D01*
X478397Y311292D01*
X478039Y310427D01*
X477917Y309500D01*
X478039Y308573D01*
X478397Y307708D01*
X478966Y306966D01*
X479708Y306397D01*
X480573Y306039D01*
X481500Y305917D01*
X482428Y306039D01*
X483292Y306397D01*
X484034Y306966D01*
X484603Y307708D01*
X484961Y308573D01*
X485083Y309500D01*
X484961Y310427D01*
X484603Y311292D01*
X484034Y312034D01*
X483292Y312603D01*
X482428Y312961D01*
X481500Y313083D01*
D02*
G37*
G36*
X540500Y318015D02*
X538839Y317851D01*
X537241Y317367D01*
X535769Y316580D01*
X534479Y315521D01*
X533420Y314231D01*
X532633Y312759D01*
X532149Y311161D01*
X531985Y309500D01*
X532149Y307839D01*
X532633Y306241D01*
X533420Y304769D01*
X534479Y303479D01*
X535769Y302420D01*
X537241Y301633D01*
X538839Y301149D01*
X540500Y300985D01*
X542161Y301149D01*
X543759Y301633D01*
X545231Y302420D01*
X546521Y303479D01*
X547580Y304769D01*
X548367Y306241D01*
X548851Y307839D01*
X549015Y309500D01*
X548851Y311161D01*
X548367Y312759D01*
X547580Y314231D01*
X546521Y315521D01*
X545231Y316580D01*
X543759Y317367D01*
X542161Y317851D01*
X540500Y318015D01*
D02*
G37*
G36*
X256500D02*
X254839Y317851D01*
X253241Y317367D01*
X251769Y316580D01*
X250479Y315521D01*
X249420Y314231D01*
X248633Y312759D01*
X248149Y311161D01*
X247985Y309500D01*
X248149Y307839D01*
X248633Y306241D01*
X249420Y304769D01*
X250479Y303479D01*
X251769Y302420D01*
X253241Y301633D01*
X254839Y301149D01*
X256500Y300985D01*
X258161Y301149D01*
X259759Y301633D01*
X261231Y302420D01*
X262521Y303479D01*
X263580Y304769D01*
X264367Y306241D01*
X264851Y307839D01*
X265015Y309500D01*
X264851Y311161D01*
X264367Y312759D01*
X263580Y314231D01*
X262521Y315521D01*
X261231Y316580D01*
X259759Y317367D01*
X258161Y317851D01*
X256500Y318015D01*
D02*
G37*
%LPD*%
G36*
X397448Y432724D02*
X397241Y432224D01*
X340058D01*
X339958Y432724D01*
X340000Y432741D01*
X340648Y433238D01*
X341145Y433885D01*
X341286Y434225D01*
X395946D01*
X397448Y432724D01*
D02*
G37*
D82*
X279754Y360700D02*
X360746D01*
X299500Y350500D02*
X320500D01*
X261000Y403163D02*
X263621D01*
X270468Y396316D01*
X281246Y364300D02*
X359254D01*
X270468Y375078D02*
X281246Y364300D01*
X270468Y375078D02*
Y396316D01*
X261000Y403163D02*
Y406500D01*
X253388Y401363D02*
X262876D01*
X267299Y396939D01*
Y385240D02*
Y396939D01*
X251532Y403219D02*
X253388Y401363D01*
X269210Y371244D02*
X279754Y360700D01*
X254500Y371244D02*
X269210D01*
X280500Y362500D02*
X360000D01*
X261000Y382000D02*
X280500Y362500D01*
X261000Y382000D02*
Y385240D01*
X398500Y403000D02*
Y406500D01*
X388077Y392577D02*
X398500Y403000D01*
X387532Y392577D02*
X388077D01*
X359254Y364300D02*
X387532Y392577D01*
X371290Y371244D02*
X392201D01*
X360746Y360700D02*
X371290Y371244D01*
X388277Y390777D02*
X399978D01*
X360000Y362500D02*
X388277Y390777D01*
X489900Y478886D02*
Y487600D01*
Y478886D02*
X500350Y468436D01*
X487500Y490000D02*
X489900Y487600D01*
X329000Y490000D02*
X487500D01*
X323500Y484500D02*
X329000Y490000D01*
X324200Y492200D02*
X500000D01*
X318947Y486947D02*
X324200Y492200D01*
X500000D02*
X508700Y483500D01*
X294700Y466200D02*
X304720Y476220D01*
X294700Y465719D02*
Y466200D01*
X292844Y463863D02*
X294700Y465719D01*
X292363Y463863D02*
X292844D01*
X253388Y424888D02*
X292363Y463863D01*
X304720Y476220D02*
X309347D01*
X253388Y411637D02*
Y424888D01*
X313500Y480373D02*
Y484500D01*
X309347Y476220D02*
X313500Y480373D01*
X251532Y409781D02*
X253388Y411637D01*
X251532Y404532D02*
Y409781D01*
X251500Y404500D02*
X251532Y404532D01*
X251500Y404500D02*
X251532Y404468D01*
Y403219D02*
Y404468D01*
X296000Y354000D02*
X299500Y350500D01*
X397791Y431000D02*
X408290Y420500D01*
X409000D01*
X336500Y431000D02*
X397791D01*
X332051Y435449D02*
X336500Y431000D01*
X396453Y435449D02*
X407302Y424600D01*
X338437Y435449D02*
X396453D01*
X321769D02*
X332051D01*
X529500Y371244D02*
X529946D01*
X534302Y375600D01*
X540626D01*
X546500Y381473D01*
Y423000D01*
X545786D02*
X546500D01*
X500350Y468436D02*
X545786Y423000D01*
X533600Y369735D02*
X535365Y371500D01*
X533600Y369546D02*
Y369735D01*
X531198Y367144D02*
X533600Y369546D01*
X531009Y367144D02*
X531198D01*
X495752Y331887D02*
X531009Y367144D01*
X400000Y335000D02*
X482202D01*
X399500Y334500D02*
X400000Y335000D01*
X512702Y365500D02*
X513000D01*
X482202Y335000D02*
X512702Y365500D01*
X495752Y329000D02*
Y331887D01*
X461500Y309500D02*
X462500D01*
X508000Y355000D01*
X487878Y328378D02*
X502203Y314053D01*
X513386D01*
X517939Y309500D01*
X521500D01*
X535365Y371500D02*
X536000D01*
X537277Y390777D02*
X542098Y385956D01*
X528022Y390777D02*
X537277D01*
X516745Y379500D02*
X528022Y390777D01*
X542098Y385240D02*
Y385956D01*
X254500Y385039D02*
X254701Y385240D01*
X254500Y376756D02*
Y385039D01*
X535799Y408188D02*
X536000Y408389D01*
X535799Y406500D02*
Y408188D01*
X401231Y380640D02*
Y380640D01*
X399686Y382186D02*
X401231Y380640D01*
X399686Y382186D02*
Y384055D01*
X398500Y385240D02*
X399686Y384055D01*
X401231Y380640D02*
X402371Y379500D01*
X516745D01*
X399978Y390777D02*
X404799Y385956D01*
Y385240D02*
Y385956D01*
X392201Y385240D02*
X392201Y385240D01*
Y376756D02*
Y385240D01*
X529500Y385240D02*
X529500Y385240D01*
Y376756D02*
Y385240D01*
X392701Y370744D02*
X529500Y371244D01*
X473500Y426500D02*
X505000D01*
X439000Y392000D02*
X473500Y426500D01*
X407302Y424600D02*
X417900D01*
X418000Y424500D01*
X318947Y482614D02*
Y486947D01*
Y482614D02*
X323500Y478061D01*
Y474500D02*
Y478061D01*
X330563Y457303D02*
X330760Y457500D01*
X330563Y445949D02*
Y457303D01*
D85*
X461500Y309500D02*
D03*
X471500D02*
D03*
X481500D02*
D03*
X491500D02*
D03*
X511500D02*
D03*
X501500D02*
D03*
X500350Y458436D02*
D03*
Y468436D02*
D03*
Y478436D02*
D03*
X483500Y474500D02*
D03*
X473500Y484500D02*
D03*
Y474500D02*
D03*
X463500Y484500D02*
D03*
Y474500D02*
D03*
X453500Y484500D02*
D03*
Y474500D02*
D03*
X443500Y484500D02*
D03*
Y474500D02*
D03*
X433500Y484500D02*
D03*
Y474500D02*
D03*
X423500Y484500D02*
D03*
Y474500D02*
D03*
X413500Y484500D02*
D03*
Y474500D02*
D03*
X403500Y484500D02*
D03*
Y474500D02*
D03*
X393500Y484500D02*
D03*
Y474500D02*
D03*
X383500Y484500D02*
D03*
Y474500D02*
D03*
X373500Y484500D02*
D03*
Y474500D02*
D03*
X363500Y484500D02*
D03*
Y474500D02*
D03*
X353500Y484500D02*
D03*
Y474500D02*
D03*
X343500Y484500D02*
D03*
Y474500D02*
D03*
X333500Y484500D02*
D03*
Y474500D02*
D03*
X323500Y484500D02*
D03*
Y474500D02*
D03*
X313500Y484500D02*
D03*
Y474500D02*
D03*
D86*
X521500Y309500D02*
D03*
X483500Y484500D02*
D03*
D87*
X286000Y469000D02*
D03*
Y445378D02*
D03*
D88*
X508700Y483500D02*
D03*
X373982Y345825D02*
D03*
X320500Y350500D02*
D03*
X300500Y346325D02*
D03*
X296000Y354000D02*
D03*
X280500Y373500D02*
D03*
X305500Y325335D02*
D03*
X386500Y305500D02*
D03*
X529500Y371244D02*
D03*
X399500Y334500D02*
D03*
X513000Y365500D02*
D03*
X495752Y329000D02*
D03*
X508000Y355000D02*
D03*
X487878Y328378D02*
D03*
X464256Y329000D02*
D03*
X535799Y385240D02*
D03*
X536000Y371500D02*
D03*
X481177Y419500D02*
D03*
X425500Y418500D02*
D03*
X536000Y408389D02*
D03*
X398500Y406500D02*
D03*
X505000Y426500D02*
D03*
X439000Y392000D02*
D03*
X321769Y435449D02*
D03*
X409000Y420500D02*
D03*
X338437Y435449D02*
D03*
X418000Y424500D02*
D03*
X508500Y431500D02*
D03*
X330760Y457500D02*
D03*
X330563Y445949D02*
D03*
D89*
X540500Y481500D02*
D03*
X256500Y309500D02*
D03*
X540500D02*
D03*
X256500Y481500D02*
D03*
D90*
X392201Y371244D02*
D03*
Y376756D02*
D03*
X254500Y371244D02*
D03*
Y376756D02*
D03*
X529500Y371244D02*
D03*
Y376756D02*
D03*
D91*
X254701Y406500D02*
D03*
X261000D02*
D03*
X267299D02*
D03*
X254701Y385240D02*
D03*
X261000D02*
D03*
X392201Y406500D02*
D03*
X398500D02*
D03*
X404799D02*
D03*
X392201Y385240D02*
D03*
X398500D02*
D03*
X529500Y406500D02*
D03*
X535799D02*
D03*
X542098D02*
D03*
X529500Y385240D02*
D03*
X535799D02*
D03*
D92*
X267299D02*
D03*
X404799D02*
D03*
X542098D02*
D03*
M02*
