G04*
G04 #@! TF.GenerationSoftware,Altium Limited,Altium Designer,18.1.11 (251)*
G04*
G04 Layer_Color=65535*
%FSLAX25Y25*%
%MOIN*%
G70*
G01*
G75*
%ADD10C,0.00984*%
%ADD11C,0.01000*%
%ADD12C,0.00394*%
%ADD13C,0.00787*%
%ADD14C,0.00500*%
D10*
X287930Y336315D02*
G03*
X287930Y336315I-492J0D01*
G01*
X309941Y340154D02*
G03*
X309941Y340154I-492J0D01*
G01*
X452681Y330917D02*
G03*
X452681Y330917I-492J0D01*
G01*
X311238Y456323D02*
G03*
X311238Y456323I-492J0D01*
G01*
X327906Y456374D02*
G03*
X327906Y456374I-492J0D01*
G01*
X256661Y374031D02*
G03*
X256661Y374031I-492J0D01*
G01*
D11*
X301685Y341600D02*
G03*
X298000Y341600I-1843J0D01*
G01*
X436620Y367922D02*
G03*
X436620Y367922I-30208J0D01*
G01*
X518349Y414000D02*
G03*
X515849Y414000I-1250J0D01*
G01*
X340500Y345500D02*
X343500D01*
X325500D02*
X328500D01*
X343500Y339500D02*
Y366450D01*
X334000D02*
X343500D01*
X325500Y339500D02*
Y366450D01*
X334000D01*
X325500Y339500D02*
X343500D01*
X333000Y373303D02*
X346197D01*
X333000Y423803D02*
X346197D01*
Y373303D02*
Y423803D01*
X295803Y373197D02*
Y423697D01*
Y373197D02*
X309000D01*
X295803Y423697D02*
X309000D01*
X325921Y336752D02*
X328874D01*
Y318248D02*
Y336752D01*
X313126Y318248D02*
Y336752D01*
X316079D01*
X492476Y491270D02*
X525941D01*
X492476Y445601D02*
X525941D01*
Y491270D01*
X492476Y445601D02*
Y491270D01*
X268284Y442000D02*
Y499315D01*
X303716D02*
X303716Y442000D01*
X268284Y499315D02*
X303716D01*
X268284Y442000D02*
X276500D01*
X295500D02*
X303716D01*
X532874Y382492D02*
X549374D01*
Y367492D02*
Y382492D01*
X540874Y367492D02*
X549374D01*
X540874Y359492D02*
Y367492D01*
Y359492D02*
X549374D01*
Y352492D02*
Y359492D01*
X540874Y352492D02*
X549374D01*
X540874Y344992D02*
Y352492D01*
Y344992D02*
X549374D01*
Y337992D02*
Y344992D01*
X534374Y337992D02*
X549374D01*
X533374D02*
X534374D01*
X532874Y373992D02*
X549374D01*
X522399Y414000D02*
Y434000D01*
X511899D02*
X522399D01*
X511899Y414000D02*
Y434000D01*
Y414000D02*
X515849D01*
X518349D02*
X522399D01*
X273500Y310997D02*
Y303000D01*
Y306999D01*
X278832D01*
Y310997D01*
Y303000D01*
X281497Y310997D02*
X284163D01*
X282830D01*
Y303000D01*
X281497D01*
X284163D01*
X293494Y309665D02*
X292161Y310997D01*
X289495D01*
X288162Y309665D01*
Y304333D01*
X289495Y303000D01*
X292161D01*
X293494Y304333D01*
Y306999D01*
X290828D01*
X296159Y310997D02*
Y303000D01*
Y306999D01*
X301491D01*
Y310997D01*
Y303000D01*
X312154Y310997D02*
Y305666D01*
X314820Y303000D01*
X317486Y305666D01*
Y310997D01*
X324150D02*
X321484D01*
X320152Y309665D01*
Y304333D01*
X321484Y303000D01*
X324150D01*
X325483Y304333D01*
Y309665D01*
X324150Y310997D01*
X328149D02*
Y303000D01*
X333481D01*
X336146Y310997D02*
X341478D01*
X338812D01*
Y303000D01*
X344144D02*
Y308332D01*
X346810Y310997D01*
X349475Y308332D01*
Y303000D01*
Y306999D01*
X344144D01*
X357473Y309665D02*
X356140Y310997D01*
X353474D01*
X352141Y309665D01*
Y304333D01*
X353474Y303000D01*
X356140D01*
X357473Y304333D01*
Y306999D01*
X354807D01*
X365470Y310997D02*
X360139D01*
Y303000D01*
X365470D01*
X360139Y306999D02*
X362804D01*
X368136Y305666D02*
Y312330D01*
Y304333D02*
Y303000D01*
D12*
X461984Y419789D02*
G03*
X461984Y421068I0J640D01*
G01*
Y413677D02*
Y419789D01*
Y421068D02*
Y427181D01*
X482457D01*
Y413677D02*
Y427181D01*
X461984Y413677D02*
X482457D01*
D13*
X293540Y333756D02*
X296690D01*
Y330213D02*
Y333756D01*
X284879D02*
X288028D01*
X284879Y330213D02*
Y333756D01*
X275500Y355016D02*
Y359740D01*
X275500Y346638D02*
Y351362D01*
X275500Y338138D02*
Y342862D01*
X319803Y342457D02*
X320197D01*
X303543Y341158D02*
Y360842D01*
X296457Y341158D02*
Y360842D01*
Y341158D02*
X303543D01*
X296457Y360842D02*
X303543D01*
X333138Y328878D02*
X337862D01*
X347158Y326618D02*
X357000D01*
X347158D02*
Y366382D01*
X366843D01*
Y326618D02*
Y366382D01*
X357000Y326618D02*
X366843D01*
X303138Y328878D02*
X307862D01*
X425811Y325012D02*
X452189D01*
X425811Y313988D02*
X452189D01*
Y325012D01*
X425811Y313988D02*
Y325012D01*
X475075Y321803D02*
Y322197D01*
X513043Y400303D02*
Y400697D01*
X384457Y327681D02*
Y328075D01*
X456500Y304500D02*
X526500D01*
Y314500D01*
X456500D02*
X526500D01*
X456500Y304500D02*
Y314500D01*
X491303Y425500D02*
X496421D01*
X464874Y384768D02*
X552374D01*
X464874Y336224D02*
Y384768D01*
Y336224D02*
X552374D01*
Y348360D02*
Y372632D01*
Y384768D01*
Y336224D02*
Y348992D01*
X509402Y404441D02*
Y409559D01*
X484441Y446500D02*
X489559D01*
X320588Y463705D02*
X323738D01*
Y460555D02*
Y463705D01*
X311927D02*
X315076D01*
X311927Y460555D02*
Y463705D01*
X337256Y463756D02*
X340406D01*
Y460606D02*
Y463756D01*
X328594D02*
X331744D01*
X328594Y460606D02*
Y463756D01*
X317832Y443390D02*
Y448508D01*
X334500Y443390D02*
Y448508D01*
X317832Y432890D02*
Y438008D01*
X334500Y432890D02*
Y438008D01*
X258441Y460500D02*
X263559D01*
X247441D02*
X252559D01*
X308500Y469500D02*
Y489500D01*
X488500Y469500D02*
Y489500D01*
X308500Y469500D02*
X488500D01*
X308500Y489500D02*
X488500D01*
X399543Y456744D02*
X432988D01*
X399543Y417256D02*
Y456744D01*
Y417256D02*
X439032D01*
Y450701D01*
X432988Y456744D02*
X439032Y450701D01*
X249831Y390567D02*
Y395488D01*
Y390567D02*
X291169D01*
Y395488D01*
D14*
X295714Y338000D02*
X295476Y337880D01*
X295238Y337642D01*
X295119Y337404D01*
X295000Y337047D01*
Y336452D01*
X295119Y336095D01*
X295238Y335857D01*
X295476Y335619D01*
X295714Y335500D01*
X296190D01*
X296428Y335619D01*
X296666Y335857D01*
X296785Y336095D01*
X296904Y336452D01*
Y337047D01*
X296785Y337404D01*
X296666Y337642D01*
X296428Y337880D01*
X296190Y338000D01*
X295714D01*
X296071Y335976D02*
X296785Y335262D01*
X298678Y338000D02*
X297488Y336333D01*
X299273D01*
X298678Y338000D02*
Y335500D01*
X261000Y358500D02*
Y356000D01*
Y358500D02*
X262071D01*
X262428Y358380D01*
X262547Y358261D01*
X262666Y358023D01*
Y357785D01*
X262547Y357547D01*
X262428Y357428D01*
X262071Y357309D01*
X261000D01*
X261833D02*
X262666Y356000D01*
X263345Y357904D02*
Y358023D01*
X263464Y358261D01*
X263583Y358380D01*
X263821Y358500D01*
X264297D01*
X264535Y358380D01*
X264654Y358261D01*
X264773Y358023D01*
Y357785D01*
X264654Y357547D01*
X264416Y357190D01*
X263226Y356000D01*
X264892D01*
X266165Y358500D02*
X265809Y358380D01*
X265570Y358023D01*
X265451Y357428D01*
Y357071D01*
X265570Y356476D01*
X265809Y356119D01*
X266165Y356000D01*
X266404D01*
X266761Y356119D01*
X266999Y356476D01*
X267118Y357071D01*
Y357428D01*
X266999Y358023D01*
X266761Y358380D01*
X266404Y358500D01*
X266165D01*
X261500Y350500D02*
Y348000D01*
Y350500D02*
X262571D01*
X262928Y350380D01*
X263047Y350261D01*
X263166Y350023D01*
Y349785D01*
X263047Y349547D01*
X262928Y349428D01*
X262571Y349309D01*
X261500D01*
X262333D02*
X263166Y348000D01*
X263726Y350023D02*
X263964Y350142D01*
X264321Y350500D01*
Y348000D01*
X267106Y349666D02*
X266987Y349309D01*
X266749Y349071D01*
X266392Y348952D01*
X266273D01*
X265916Y349071D01*
X265678Y349309D01*
X265559Y349666D01*
Y349785D01*
X265678Y350142D01*
X265916Y350380D01*
X266273Y350500D01*
X266392D01*
X266749Y350380D01*
X266987Y350142D01*
X267106Y349666D01*
Y349071D01*
X266987Y348476D01*
X266749Y348119D01*
X266392Y348000D01*
X266154D01*
X265797Y348119D01*
X265678Y348357D01*
X261500Y342000D02*
Y339500D01*
Y342000D02*
X262571D01*
X262928Y341880D01*
X263047Y341761D01*
X263166Y341523D01*
Y341285D01*
X263047Y341047D01*
X262928Y340928D01*
X262571Y340809D01*
X261500D01*
X262333D02*
X263166Y339500D01*
X263726Y341523D02*
X263964Y341642D01*
X264321Y342000D01*
Y339500D01*
X266154Y342000D02*
X265797Y341880D01*
X265678Y341642D01*
Y341404D01*
X265797Y341166D01*
X266035Y341047D01*
X266511Y340928D01*
X266868Y340809D01*
X267106Y340571D01*
X267225Y340333D01*
Y339976D01*
X267106Y339738D01*
X266987Y339619D01*
X266630Y339500D01*
X266154D01*
X265797Y339619D01*
X265678Y339738D01*
X265559Y339976D01*
Y340333D01*
X265678Y340571D01*
X265916Y340809D01*
X266273Y340928D01*
X266749Y341047D01*
X266987Y341166D01*
X267106Y341404D01*
Y341642D01*
X266987Y341880D01*
X266630Y342000D01*
X266154D01*
X384600Y334077D02*
Y331578D01*
Y334077D02*
X385671D01*
X386028Y333958D01*
X386147Y333839D01*
X386266Y333601D01*
Y333363D01*
X386147Y333125D01*
X386028Y333006D01*
X385671Y332887D01*
X384600D01*
X385433D02*
X386266Y331578D01*
X386826Y333601D02*
X387064Y333720D01*
X387421Y334077D01*
Y331578D01*
X390325Y334077D02*
X389135Y331578D01*
X388659Y334077D02*
X390325D01*
X507000Y406651D02*
Y404152D01*
Y406651D02*
X508071D01*
X508428Y406532D01*
X508547Y406413D01*
X508666Y406175D01*
Y405937D01*
X508547Y405699D01*
X508428Y405580D01*
X508071Y405461D01*
X507000D01*
X507833D02*
X508666Y404152D01*
X509226Y406175D02*
X509464Y406294D01*
X509821Y406651D01*
Y404152D01*
X512487Y406294D02*
X512368Y406532D01*
X512011Y406651D01*
X511773D01*
X511416Y406532D01*
X511178Y406175D01*
X511059Y405580D01*
Y404985D01*
X511178Y404509D01*
X511416Y404271D01*
X511773Y404152D01*
X511892D01*
X512249Y404271D01*
X512487Y404509D01*
X512606Y404866D01*
Y404985D01*
X512487Y405342D01*
X512249Y405580D01*
X511892Y405699D01*
X511773D01*
X511416Y405580D01*
X511178Y405342D01*
X511059Y404985D01*
X475168Y328150D02*
Y325650D01*
Y328150D02*
X476239D01*
X476596Y328030D01*
X476715Y327911D01*
X476834Y327673D01*
Y327435D01*
X476715Y327197D01*
X476596Y327078D01*
X476239Y326959D01*
X475168D01*
X476001D02*
X476834Y325650D01*
X477394Y327673D02*
X477632Y327792D01*
X477989Y328150D01*
Y325650D01*
X480655Y328150D02*
X479465D01*
X479346Y327078D01*
X479465Y327197D01*
X479822Y327316D01*
X480179D01*
X480536Y327197D01*
X480774Y326959D01*
X480893Y326602D01*
Y326364D01*
X480774Y326007D01*
X480536Y325769D01*
X480179Y325650D01*
X479822D01*
X479465Y325769D01*
X479346Y325888D01*
X479227Y326126D01*
X527500Y491500D02*
X528452Y489000D01*
X529404Y491500D02*
X528452Y489000D01*
X529726Y491500D02*
Y489000D01*
Y491500D02*
X530797D01*
X531154Y491380D01*
X531273Y491261D01*
X531392Y491023D01*
Y490785D01*
X531273Y490547D01*
X531154Y490428D01*
X530797Y490309D01*
X529726D01*
X530559D02*
X531392Y489000D01*
X532070Y490904D02*
Y491023D01*
X532190Y491261D01*
X532308Y491380D01*
X532547Y491500D01*
X533023D01*
X533261Y491380D01*
X533380Y491261D01*
X533499Y491023D01*
Y490785D01*
X533380Y490547D01*
X533142Y490190D01*
X531951Y489000D01*
X533618D01*
X435000Y457232D02*
Y454732D01*
X437309Y456637D02*
X437190Y456875D01*
X436952Y457113D01*
X436714Y457232D01*
X436238D01*
X436000Y457113D01*
X435762Y456875D01*
X435643Y456637D01*
X435524Y456280D01*
Y455685D01*
X435643Y455327D01*
X435762Y455089D01*
X436000Y454851D01*
X436238Y454732D01*
X436714D01*
X436952Y454851D01*
X437190Y455089D01*
X437309Y455327D01*
X438249Y457232D02*
X439559D01*
X438844Y456280D01*
X439201D01*
X439439Y456161D01*
X439559Y456042D01*
X439678Y455685D01*
Y455446D01*
X439559Y455089D01*
X439321Y454851D01*
X438963Y454732D01*
X438606D01*
X438249Y454851D01*
X438130Y454970D01*
X438011Y455208D01*
X484500Y466190D02*
X485571D01*
X485928Y466309D01*
X486047Y466428D01*
X486166Y466666D01*
Y467023D01*
X486047Y467261D01*
X485928Y467380D01*
X485571Y467499D01*
X484500D01*
Y465000D01*
X486726Y467023D02*
X486964Y467142D01*
X487321Y467499D01*
Y465000D01*
X428000Y308000D02*
X430500Y308952D01*
X428000Y309904D02*
X430500Y308952D01*
X428000Y310226D02*
X430500D01*
X428000D02*
Y311297D01*
X428120Y311654D01*
X428239Y311773D01*
X428477Y311892D01*
X428715D01*
X428953Y311773D01*
X429072Y311654D01*
X429191Y311297D01*
Y310226D01*
Y311059D02*
X430500Y311892D01*
X428477Y312451D02*
X428358Y312689D01*
X428000Y313047D01*
X430500D01*
X491303Y437500D02*
Y435000D01*
Y437500D02*
X492374D01*
X492731Y437380D01*
X492850Y437261D01*
X492970Y437023D01*
Y436785D01*
X492850Y436547D01*
X492731Y436428D01*
X492374Y436309D01*
X491303D01*
X492136D02*
X492970Y435000D01*
X493529Y437023D02*
X493767Y437142D01*
X494124Y437500D01*
Y435000D01*
X495362Y437023D02*
X495600Y437142D01*
X495957Y437500D01*
Y435000D01*
X519500Y408999D02*
Y406500D01*
Y408999D02*
X520571D01*
X520928Y408880D01*
X521047Y408761D01*
X521166Y408523D01*
Y408285D01*
X521047Y408047D01*
X520928Y407928D01*
X520571Y407809D01*
X519500D01*
X520333D02*
X521166Y406500D01*
X521726Y408523D02*
X521964Y408642D01*
X522321Y408999D01*
Y406500D01*
X524273Y408999D02*
X523916Y408880D01*
X523678Y408523D01*
X523559Y407928D01*
Y407571D01*
X523678Y406976D01*
X523916Y406619D01*
X524273Y406500D01*
X524511D01*
X524868Y406619D01*
X525106Y406976D01*
X525225Y407571D01*
Y407928D01*
X525106Y408523D01*
X524868Y408880D01*
X524511Y408999D01*
X524273D01*
X343000Y447500D02*
Y445000D01*
Y447500D02*
X344071D01*
X344428Y447380D01*
X344547Y447261D01*
X344666Y447023D01*
Y446785D01*
X344547Y446547D01*
X344428Y446428D01*
X344071Y446309D01*
X343000D01*
X343833D02*
X344666Y445000D01*
X346892Y447500D02*
X345702Y445000D01*
X345226Y447500D02*
X346892D01*
X343500Y437000D02*
Y434500D01*
Y437000D02*
X344571D01*
X344928Y436880D01*
X345047Y436761D01*
X345166Y436523D01*
Y436285D01*
X345047Y436047D01*
X344928Y435928D01*
X344571Y435809D01*
X343500D01*
X344333D02*
X345166Y434500D01*
X347154Y436642D02*
X347035Y436880D01*
X346678Y437000D01*
X346440D01*
X346083Y436880D01*
X345845Y436523D01*
X345726Y435928D01*
Y435333D01*
X345845Y434857D01*
X346083Y434619D01*
X346440Y434500D01*
X346559D01*
X346916Y434619D01*
X347154Y434857D01*
X347273Y435214D01*
Y435333D01*
X347154Y435690D01*
X346916Y435928D01*
X346559Y436047D01*
X346440D01*
X346083Y435928D01*
X345845Y435690D01*
X345726Y435333D01*
X305500Y447500D02*
Y445000D01*
Y447500D02*
X306571D01*
X306928Y447380D01*
X307047Y447261D01*
X307166Y447023D01*
Y446785D01*
X307047Y446547D01*
X306928Y446428D01*
X306571Y446309D01*
X305500D01*
X306333D02*
X307166Y445000D01*
X309154Y447500D02*
X307964D01*
X307845Y446428D01*
X307964Y446547D01*
X308321Y446666D01*
X308678D01*
X309035Y446547D01*
X309273Y446309D01*
X309392Y445952D01*
Y445714D01*
X309273Y445357D01*
X309035Y445119D01*
X308678Y445000D01*
X308321D01*
X307964Y445119D01*
X307845Y445238D01*
X307726Y445476D01*
X305000Y437000D02*
Y434500D01*
Y437000D02*
X306071D01*
X306428Y436880D01*
X306547Y436761D01*
X306666Y436523D01*
Y436285D01*
X306547Y436047D01*
X306428Y435928D01*
X306071Y435809D01*
X305000D01*
X305833D02*
X306666Y434500D01*
X308416Y437000D02*
X307226Y435333D01*
X309011D01*
X308416Y437000D02*
Y434500D01*
X302000Y321000D02*
Y318500D01*
Y321000D02*
X303071D01*
X303428Y320880D01*
X303547Y320761D01*
X303666Y320523D01*
Y320285D01*
X303547Y320047D01*
X303428Y319928D01*
X303071Y319809D01*
X302000D01*
X302833D02*
X303666Y318500D01*
X304464Y321000D02*
X305773D01*
X305059Y320047D01*
X305416D01*
X305654Y319928D01*
X305773Y319809D01*
X305892Y319452D01*
Y319214D01*
X305773Y318857D01*
X305535Y318619D01*
X305178Y318500D01*
X304821D01*
X304464Y318619D01*
X304345Y318738D01*
X304226Y318976D01*
X313000Y317000D02*
Y314500D01*
Y317000D02*
X314071D01*
X314428Y316880D01*
X314547Y316761D01*
X314666Y316523D01*
Y316285D01*
X314547Y316047D01*
X314428Y315928D01*
X314071Y315809D01*
X313000D01*
X313833D02*
X314666Y314500D01*
X315345Y316404D02*
Y316523D01*
X315464Y316761D01*
X315583Y316880D01*
X315821Y317000D01*
X316297D01*
X316535Y316880D01*
X316654Y316761D01*
X316773Y316523D01*
Y316285D01*
X316654Y316047D01*
X316416Y315690D01*
X315226Y314500D01*
X316892D01*
X336000Y321000D02*
Y318500D01*
Y321000D02*
X337071D01*
X337428Y320880D01*
X337547Y320761D01*
X337666Y320523D01*
Y320285D01*
X337547Y320047D01*
X337428Y319928D01*
X337071Y319809D01*
X336000D01*
X336833D02*
X337666Y318500D01*
X338226Y320523D02*
X338464Y320642D01*
X338821Y321000D01*
Y318500D01*
X343214Y462500D02*
X342976Y462380D01*
X342738Y462142D01*
X342619Y461904D01*
X342500Y461547D01*
Y460952D01*
X342619Y460595D01*
X342738Y460357D01*
X342976Y460119D01*
X343214Y460000D01*
X343690D01*
X343928Y460119D01*
X344166Y460357D01*
X344285Y460595D01*
X344404Y460952D01*
Y461547D01*
X344285Y461904D01*
X344166Y462142D01*
X343928Y462380D01*
X343690Y462500D01*
X343214D01*
X343571Y460476D02*
X344285Y459762D01*
X345226Y462500D02*
X346535D01*
X345821Y461547D01*
X346178D01*
X346416Y461428D01*
X346535Y461309D01*
X346654Y460952D01*
Y460714D01*
X346535Y460357D01*
X346297Y460119D01*
X345940Y460000D01*
X345583D01*
X345226Y460119D01*
X345107Y460238D01*
X344988Y460476D01*
X306214Y462500D02*
X305976Y462380D01*
X305738Y462142D01*
X305619Y461904D01*
X305500Y461547D01*
Y460952D01*
X305619Y460595D01*
X305738Y460357D01*
X305976Y460119D01*
X306214Y460000D01*
X306690D01*
X306928Y460119D01*
X307166Y460357D01*
X307285Y460595D01*
X307404Y460952D01*
Y461547D01*
X307285Y461904D01*
X307166Y462142D01*
X306928Y462380D01*
X306690Y462500D01*
X306214D01*
X306571Y460476D02*
X307285Y459762D01*
X308107Y461904D02*
Y462023D01*
X308226Y462261D01*
X308345Y462380D01*
X308583Y462500D01*
X309059D01*
X309297Y462380D01*
X309416Y462261D01*
X309535Y462023D01*
Y461785D01*
X309416Y461547D01*
X309178Y461190D01*
X307988Y460000D01*
X309654D01*
X286214Y375999D02*
X285976Y375880D01*
X285738Y375642D01*
X285619Y375404D01*
X285500Y375047D01*
Y374452D01*
X285619Y374095D01*
X285738Y373857D01*
X285976Y373619D01*
X286214Y373500D01*
X286690D01*
X286928Y373619D01*
X287166Y373857D01*
X287285Y374095D01*
X287404Y374452D01*
Y375047D01*
X287285Y375404D01*
X287166Y375642D01*
X286928Y375880D01*
X286690Y375999D01*
X286214D01*
X286571Y373976D02*
X287285Y373262D01*
X287988Y375523D02*
X288226Y375642D01*
X288583Y375999D01*
Y373500D01*
X529310Y307500D02*
Y308571D01*
X529191Y308928D01*
X529072Y309047D01*
X528834Y309166D01*
X528477D01*
X528239Y309047D01*
X528120Y308928D01*
X528000Y308571D01*
Y307500D01*
X530500D01*
X528596Y309845D02*
X528477D01*
X528239Y309964D01*
X528120Y310083D01*
X528000Y310321D01*
Y310797D01*
X528120Y311035D01*
X528239Y311154D01*
X528477Y311273D01*
X528715D01*
X528953Y311154D01*
X529310Y310916D01*
X530500Y309726D01*
Y311392D01*
X297000Y429499D02*
Y427000D01*
X298428D01*
X298702Y429023D02*
X298940Y429142D01*
X299297Y429499D01*
Y427000D01*
X545000Y334492D02*
Y331992D01*
X547309Y333896D02*
X547190Y334135D01*
X546952Y334373D01*
X546714Y334492D01*
X546238D01*
X546000Y334373D01*
X545762Y334135D01*
X545643Y333896D01*
X545524Y333539D01*
Y332944D01*
X545643Y332587D01*
X545762Y332349D01*
X546000Y332111D01*
X546238Y331992D01*
X546714D01*
X546952Y332111D01*
X547190Y332349D01*
X547309Y332587D01*
X549678Y334492D02*
X548487Y331992D01*
X548011Y334492D02*
X549678D01*
X515000Y438499D02*
Y436000D01*
X517309Y437904D02*
X517190Y438142D01*
X516952Y438380D01*
X516714Y438499D01*
X516238D01*
X516000Y438380D01*
X515762Y438142D01*
X515643Y437904D01*
X515524Y437547D01*
Y436952D01*
X515643Y436595D01*
X515762Y436357D01*
X516000Y436119D01*
X516238Y436000D01*
X516714D01*
X516952Y436119D01*
X517190Y436357D01*
X517309Y436595D01*
X519440Y438142D02*
X519320Y438380D01*
X518963Y438499D01*
X518725D01*
X518368Y438380D01*
X518130Y438023D01*
X518011Y437428D01*
Y436833D01*
X518130Y436357D01*
X518368Y436119D01*
X518725Y436000D01*
X518844D01*
X519202Y436119D01*
X519440Y436357D01*
X519559Y436714D01*
Y436833D01*
X519440Y437190D01*
X519202Y437428D01*
X518844Y437547D01*
X518725D01*
X518368Y437428D01*
X518130Y437190D01*
X518011Y436833D01*
X269500Y504999D02*
Y502500D01*
X271809Y504404D02*
X271690Y504642D01*
X271452Y504880D01*
X271214Y504999D01*
X270738D01*
X270500Y504880D01*
X270262Y504642D01*
X270143Y504404D01*
X270024Y504047D01*
Y503452D01*
X270143Y503095D01*
X270262Y502857D01*
X270500Y502619D01*
X270738Y502500D01*
X271214D01*
X271452Y502619D01*
X271690Y502857D01*
X271809Y503095D01*
X273939Y504999D02*
X272749D01*
X272630Y503928D01*
X272749Y504047D01*
X273106Y504166D01*
X273463D01*
X273820Y504047D01*
X274059Y503809D01*
X274178Y503452D01*
Y503214D01*
X274059Y502857D01*
X273820Y502619D01*
X273463Y502500D01*
X273106D01*
X272749Y502619D01*
X272630Y502738D01*
X272511Y502976D01*
X455500Y422288D02*
Y419789D01*
X457809Y421693D02*
X457690Y421931D01*
X457452Y422169D01*
X457214Y422288D01*
X456738D01*
X456500Y422169D01*
X456262Y421931D01*
X456143Y421693D01*
X456024Y421336D01*
Y420741D01*
X456143Y420384D01*
X456262Y420146D01*
X456500Y419908D01*
X456738Y419789D01*
X457214D01*
X457452Y419908D01*
X457690Y420146D01*
X457809Y420384D01*
X458630Y421693D02*
Y421812D01*
X458749Y422050D01*
X458868Y422169D01*
X459106Y422288D01*
X459583D01*
X459821Y422169D01*
X459939Y422050D01*
X460059Y421812D01*
Y421574D01*
X459939Y421336D01*
X459701Y420979D01*
X458511Y419789D01*
X460178D01*
X298000Y365499D02*
Y363000D01*
X300309Y364904D02*
X300190Y365142D01*
X299952Y365380D01*
X299714Y365499D01*
X299238D01*
X299000Y365380D01*
X298762Y365142D01*
X298643Y364904D01*
X298524Y364547D01*
Y363952D01*
X298643Y363595D01*
X298762Y363357D01*
X299000Y363119D01*
X299238Y363000D01*
X299714D01*
X299952Y363119D01*
X300190Y363357D01*
X300309Y363595D01*
X301011Y365023D02*
X301249Y365142D01*
X301606Y365499D01*
Y363000D01*
X320500Y360999D02*
Y358500D01*
Y360999D02*
X321333D01*
X321690Y360880D01*
X321928Y360642D01*
X322047Y360404D01*
X322166Y360047D01*
Y359452D01*
X322047Y359095D01*
X321928Y358857D01*
X321690Y358619D01*
X321333Y358500D01*
X320500D01*
X322726Y360523D02*
X322964Y360642D01*
X323321Y360999D01*
Y358500D01*
X249096Y448285D02*
X248858Y448166D01*
X248620Y447928D01*
X248500Y447690D01*
Y447214D01*
X248620Y446976D01*
X248858Y446738D01*
X249096Y446619D01*
X249453Y446500D01*
X250048D01*
X250405Y446619D01*
X250643Y446738D01*
X250881Y446976D01*
X251000Y447214D01*
Y447690D01*
X250881Y447928D01*
X250643Y448166D01*
X250405Y448285D01*
X248858Y450416D02*
X248620Y450297D01*
X248500Y449940D01*
Y449702D01*
X248620Y449345D01*
X248977Y449107D01*
X249572Y448988D01*
X250167D01*
X250643Y449107D01*
X250881Y449345D01*
X251000Y449702D01*
Y449821D01*
X250881Y450178D01*
X250643Y450416D01*
X250286Y450535D01*
X250167D01*
X249810Y450416D01*
X249572Y450178D01*
X249453Y449821D01*
Y449702D01*
X249572Y449345D01*
X249810Y449107D01*
X250167Y448988D01*
X349285Y324404D02*
X349166Y324642D01*
X348928Y324880D01*
X348690Y324999D01*
X348214D01*
X347976Y324880D01*
X347738Y324642D01*
X347619Y324404D01*
X347500Y324047D01*
Y323452D01*
X347619Y323095D01*
X347738Y322857D01*
X347976Y322619D01*
X348214Y322500D01*
X348690D01*
X348928Y322619D01*
X349166Y322857D01*
X349285Y323095D01*
X351416Y324999D02*
X350226D01*
X350107Y323928D01*
X350226Y324047D01*
X350583Y324166D01*
X350940D01*
X351297Y324047D01*
X351535Y323809D01*
X351654Y323452D01*
Y323214D01*
X351535Y322857D01*
X351297Y322619D01*
X350940Y322500D01*
X350583D01*
X350226Y322619D01*
X350107Y322738D01*
X349988Y322976D01*
X260096Y448285D02*
X259858Y448166D01*
X259620Y447928D01*
X259501Y447690D01*
Y447214D01*
X259620Y446976D01*
X259858Y446738D01*
X260096Y446619D01*
X260453Y446500D01*
X261048D01*
X261405Y446619D01*
X261643Y446738D01*
X261881Y446976D01*
X262000Y447214D01*
Y447690D01*
X261881Y447928D01*
X261643Y448166D01*
X261405Y448285D01*
X259501Y450178D02*
X261167Y448988D01*
Y450773D01*
X259501Y450178D02*
X262000D01*
X319785Y340404D02*
X319666Y340642D01*
X319428Y340880D01*
X319190Y341000D01*
X318714D01*
X318476Y340880D01*
X318238Y340642D01*
X318119Y340404D01*
X318000Y340047D01*
Y339452D01*
X318119Y339095D01*
X318238Y338857D01*
X318476Y338619D01*
X318714Y338500D01*
X319190D01*
X319428Y338619D01*
X319666Y338857D01*
X319785Y339095D01*
X320726Y341000D02*
X322035D01*
X321321Y340047D01*
X321678D01*
X321916Y339928D01*
X322035Y339809D01*
X322154Y339452D01*
Y339214D01*
X322035Y338857D01*
X321797Y338619D01*
X321440Y338500D01*
X321083D01*
X320726Y338619D01*
X320607Y338738D01*
X320488Y338976D01*
X486685Y458026D02*
X486566Y458264D01*
X486328Y458502D01*
X486090Y458622D01*
X485614D01*
X485376Y458502D01*
X485138Y458264D01*
X485019Y458026D01*
X484900Y457669D01*
Y457074D01*
X485019Y456717D01*
X485138Y456479D01*
X485376Y456241D01*
X485614Y456122D01*
X486090D01*
X486328Y456241D01*
X486566Y456479D01*
X486685Y456717D01*
X487507Y458026D02*
Y458145D01*
X487626Y458384D01*
X487745Y458502D01*
X487983Y458622D01*
X488459D01*
X488697Y458502D01*
X488816Y458384D01*
X488935Y458145D01*
Y457907D01*
X488816Y457669D01*
X488578Y457312D01*
X487388Y456122D01*
X489054D01*
X405000Y369499D02*
Y367000D01*
Y369499D02*
X406071D01*
X406428Y369380D01*
X406547Y369261D01*
X406666Y369023D01*
Y368785D01*
X406547Y368547D01*
X406428Y368428D01*
X406071Y368309D01*
X405000D02*
X406071D01*
X406428Y368190D01*
X406547Y368071D01*
X406666Y367833D01*
Y367476D01*
X406547Y367238D01*
X406428Y367119D01*
X406071Y367000D01*
X405000D01*
X408059Y369499D02*
Y367000D01*
X407226Y369499D02*
X408892D01*
X409190Y369023D02*
X409428Y369142D01*
X409785Y369499D01*
Y367000D01*
X409358Y320000D02*
Y317500D01*
Y320000D02*
X410429D01*
X410786Y319880D01*
X410906Y319761D01*
X411025Y319523D01*
Y319285D01*
X410906Y319047D01*
X410786Y318928D01*
X410429Y318809D01*
X409358D02*
X410429D01*
X410786Y318690D01*
X410906Y318571D01*
X411025Y318333D01*
Y317976D01*
X410906Y317738D01*
X410786Y317619D01*
X410429Y317500D01*
X409358D01*
X411584Y319523D02*
X411822Y319642D01*
X412179Y320000D01*
Y317500D01*
M02*
