M48
;Layer_Color=9474304
;FILE_FORMAT=2:5
INCH,TZ
;TYPE=PLATED
T1F00S00C0.02800
T2F00S00C0.03150
T3F00S00C0.03543
T5F00S00C0.07874
%
T01
X386500Y305500
X305500Y325335
X300500Y346325
X296000Y354000
X280500Y373500
X320500Y350500
X373982Y345825
X399500Y334500
X464256Y329000
X439000Y392000
X425500Y418500
X418000Y424500
X409000Y420500
X398500Y406500
X338437Y435449
X321769
X330563Y445949
X330760Y457500
X481177Y419500
X505000Y426500
X508500Y431500
X536000Y408389
X535799Y385240
X536000Y371500
X529500Y371244
X513000Y365500
X508000Y355000
X495752Y329000
X487878Y328378
X508700Y483500
T02
X500350Y458436
Y468436
Y478436
T03
X471500Y309500
X481500
X491500
X501500
X511500
X521500
X461500
X473500Y474500
X483500
Y484500
X473500
X463500
Y474500
X453500
Y484500
X443500
Y474500
X433500
Y484500
X423500
Y474500
X413500
Y484500
X403500
Y474500
X393500
Y484500
X383500
Y474500
X373500
Y484500
X363500
Y474500
X353500
Y484500
X343500
Y474500
X333500
Y484500
X323500
Y474500
X313500
Y484500
T05
X540500Y309500
X256500
X540500Y481500
X256500
M30
