G04*
G04 #@! TF.GenerationSoftware,Altium Limited,Altium Designer,18.1.11 (251)*
G04*
G04 Layer_Physical_Order=1*
G04 Layer_Color=255*
%FSLAX25Y25*%
%MOIN*%
G70*
G01*
G75*
%ADD11C,0.01000*%
%ADD21O,0.03937X0.07874*%
%ADD22R,0.03937X0.07874*%
%ADD23C,0.04961*%
%ADD24C,0.05906*%
%ADD25R,0.05906X0.05906*%
%ADD26C,0.15748*%
%ADD27C,0.05000*%
G36*
X697971Y155529D02*
X118029D01*
Y349971D01*
X697971D01*
X697971Y155529D01*
D02*
G37*
%LPC*%
G36*
X484000Y345487D02*
X482968Y345351D01*
X482007Y344953D01*
X481181Y344319D01*
X480547Y343493D01*
X480149Y342532D01*
X480013Y341500D01*
X480149Y340468D01*
X480341Y340004D01*
X477371Y337034D01*
X477040Y336538D01*
X476923Y335953D01*
Y334869D01*
X476423Y334623D01*
X475993Y334953D01*
X475032Y335351D01*
X474000Y335487D01*
X472968Y335351D01*
X472007Y334953D01*
X471181Y334319D01*
X470547Y333493D01*
X470482Y333336D01*
X469982Y333436D01*
Y335319D01*
X472504Y337841D01*
X472968Y337649D01*
X474000Y337513D01*
X475032Y337649D01*
X475993Y338047D01*
X476819Y338681D01*
X477453Y339507D01*
X477851Y340468D01*
X477987Y341500D01*
X477851Y342532D01*
X477453Y343493D01*
X476819Y344319D01*
X475993Y344953D01*
X475032Y345351D01*
X474000Y345487D01*
X472968Y345351D01*
X472007Y344953D01*
X471181Y344319D01*
X470547Y343493D01*
X470149Y342532D01*
X470013Y341500D01*
X470149Y340468D01*
X470341Y340004D01*
X467371Y337034D01*
X467040Y336538D01*
X466923Y335953D01*
Y334869D01*
X466423Y334623D01*
X465993Y334953D01*
X465032Y335351D01*
X464495Y335422D01*
X464315Y335950D01*
X465081Y336716D01*
X465413Y337212D01*
X465529Y337797D01*
Y337855D01*
X465993Y338047D01*
X466819Y338681D01*
X467453Y339507D01*
X467851Y340468D01*
X467987Y341500D01*
X467851Y342532D01*
X467453Y343493D01*
X466819Y344319D01*
X465993Y344953D01*
X465032Y345351D01*
X464000Y345487D01*
X462968Y345351D01*
X462007Y344953D01*
X461181Y344319D01*
X460547Y343493D01*
X460149Y342532D01*
X460013Y341500D01*
X460149Y340468D01*
X460547Y339507D01*
X461181Y338681D01*
X461652Y338319D01*
X461696Y337656D01*
X458466Y334426D01*
X458134Y333930D01*
X458118Y333848D01*
X457546Y333474D01*
X457453Y333493D01*
X456819Y334319D01*
X455993Y334953D01*
X455032Y335351D01*
X454000Y335487D01*
X452968Y335351D01*
X452007Y334953D01*
X451181Y334319D01*
X450547Y333493D01*
X450482Y333336D01*
X449982Y333436D01*
Y335319D01*
X452504Y337841D01*
X452968Y337649D01*
X454000Y337513D01*
X455032Y337649D01*
X455993Y338047D01*
X456819Y338681D01*
X457453Y339507D01*
X457851Y340468D01*
X457987Y341500D01*
X457851Y342532D01*
X457453Y343493D01*
X456819Y344319D01*
X455993Y344953D01*
X455032Y345351D01*
X454000Y345487D01*
X452968Y345351D01*
X452007Y344953D01*
X451181Y344319D01*
X450547Y343493D01*
X450149Y342532D01*
X450013Y341500D01*
X450149Y340468D01*
X450341Y340004D01*
X447371Y337034D01*
X447040Y336538D01*
X446923Y335953D01*
Y334869D01*
X446423Y334623D01*
X445993Y334953D01*
X445032Y335351D01*
X444495Y335422D01*
X444315Y335950D01*
X445081Y336716D01*
X445413Y337212D01*
X445529Y337797D01*
Y337855D01*
X445993Y338047D01*
X446819Y338681D01*
X447453Y339507D01*
X447851Y340468D01*
X447987Y341500D01*
X447851Y342532D01*
X447453Y343493D01*
X446819Y344319D01*
X445993Y344953D01*
X445032Y345351D01*
X444000Y345487D01*
X442968Y345351D01*
X442007Y344953D01*
X441181Y344319D01*
X440547Y343493D01*
X440149Y342532D01*
X440013Y341500D01*
X440149Y340468D01*
X440547Y339507D01*
X441181Y338681D01*
X441652Y338319D01*
X441696Y337656D01*
X438466Y334426D01*
X438134Y333930D01*
X438118Y333848D01*
X437546Y333474D01*
X437453Y333493D01*
X436819Y334319D01*
X435993Y334953D01*
X435032Y335351D01*
X434000Y335487D01*
X432968Y335351D01*
X432007Y334953D01*
X431181Y334319D01*
X430547Y333493D01*
X430482Y333336D01*
X429982Y333436D01*
Y335319D01*
X432504Y337841D01*
X432968Y337649D01*
X434000Y337513D01*
X435032Y337649D01*
X435993Y338047D01*
X436819Y338681D01*
X437453Y339507D01*
X437851Y340468D01*
X437987Y341500D01*
X437851Y342532D01*
X437453Y343493D01*
X436819Y344319D01*
X435993Y344953D01*
X435032Y345351D01*
X434000Y345487D01*
X432968Y345351D01*
X432007Y344953D01*
X431181Y344319D01*
X430547Y343493D01*
X430149Y342532D01*
X430013Y341500D01*
X430149Y340468D01*
X430341Y340004D01*
X427371Y337034D01*
X427040Y336538D01*
X426923Y335953D01*
Y334869D01*
X426423Y334623D01*
X425993Y334953D01*
X425032Y335351D01*
X424000Y335487D01*
X422968Y335351D01*
X422007Y334953D01*
X421181Y334319D01*
X420547Y333493D01*
X420482Y333336D01*
X419982Y333436D01*
Y335319D01*
X422504Y337841D01*
X422968Y337649D01*
X424000Y337513D01*
X425032Y337649D01*
X425993Y338047D01*
X426819Y338681D01*
X427453Y339507D01*
X427851Y340468D01*
X427987Y341500D01*
X427851Y342532D01*
X427453Y343493D01*
X426819Y344319D01*
X425993Y344953D01*
X425032Y345351D01*
X424000Y345487D01*
X422968Y345351D01*
X422007Y344953D01*
X421181Y344319D01*
X420547Y343493D01*
X420149Y342532D01*
X420013Y341500D01*
X420149Y340468D01*
X420341Y340004D01*
X417371Y337034D01*
X417040Y336538D01*
X416923Y335953D01*
Y334869D01*
X416423Y334623D01*
X415993Y334953D01*
X415032Y335351D01*
X414000Y335487D01*
X412968Y335351D01*
X412007Y334953D01*
X411181Y334319D01*
X410547Y333493D01*
X410482Y333336D01*
X409982Y333436D01*
Y335319D01*
X412504Y337841D01*
X412968Y337649D01*
X414000Y337513D01*
X415032Y337649D01*
X415993Y338047D01*
X416819Y338681D01*
X417453Y339507D01*
X417851Y340468D01*
X417987Y341500D01*
X417851Y342532D01*
X417453Y343493D01*
X416819Y344319D01*
X415993Y344953D01*
X415032Y345351D01*
X414000Y345487D01*
X412968Y345351D01*
X412007Y344953D01*
X411181Y344319D01*
X410547Y343493D01*
X410149Y342532D01*
X410013Y341500D01*
X410149Y340468D01*
X410341Y340004D01*
X407371Y337034D01*
X407040Y336538D01*
X406923Y335953D01*
Y334869D01*
X406423Y334623D01*
X405993Y334953D01*
X405032Y335351D01*
X404495Y335422D01*
X404315Y335950D01*
X405081Y336716D01*
X405413Y337212D01*
X405529Y337797D01*
Y337855D01*
X405993Y338047D01*
X406819Y338681D01*
X407453Y339507D01*
X407851Y340468D01*
X407987Y341500D01*
X407851Y342532D01*
X407453Y343493D01*
X406819Y344319D01*
X405993Y344953D01*
X405032Y345351D01*
X404000Y345487D01*
X402968Y345351D01*
X402007Y344953D01*
X401181Y344319D01*
X400547Y343493D01*
X400149Y342532D01*
X400013Y341500D01*
X400149Y340468D01*
X400547Y339507D01*
X401181Y338681D01*
X401652Y338319D01*
X401696Y337656D01*
X398466Y334426D01*
X398134Y333930D01*
X398118Y333848D01*
X397546Y333474D01*
X397453Y333493D01*
X396819Y334319D01*
X395993Y334953D01*
X395032Y335351D01*
X394495Y335422D01*
X394315Y335950D01*
X395081Y336716D01*
X395413Y337212D01*
X395529Y337797D01*
Y337855D01*
X395993Y338047D01*
X396819Y338681D01*
X397453Y339507D01*
X397851Y340468D01*
X397987Y341500D01*
X397851Y342532D01*
X397453Y343493D01*
X396819Y344319D01*
X395993Y344953D01*
X395032Y345351D01*
X394000Y345487D01*
X392968Y345351D01*
X392007Y344953D01*
X391181Y344319D01*
X390547Y343493D01*
X390149Y342532D01*
X390013Y341500D01*
X390149Y340468D01*
X390547Y339507D01*
X391181Y338681D01*
X391652Y338319D01*
X391696Y337656D01*
X388466Y334426D01*
X388134Y333930D01*
X388118Y333848D01*
X387546Y333474D01*
X387453Y333493D01*
X386819Y334319D01*
X385993Y334953D01*
X385032Y335351D01*
X384495Y335422D01*
X384315Y335950D01*
X385081Y336716D01*
X385413Y337212D01*
X385529Y337797D01*
Y337855D01*
X385993Y338047D01*
X386819Y338681D01*
X387453Y339507D01*
X387851Y340468D01*
X387987Y341500D01*
X387851Y342532D01*
X387453Y343493D01*
X386819Y344319D01*
X385993Y344953D01*
X385032Y345351D01*
X384000Y345487D01*
X382968Y345351D01*
X382007Y344953D01*
X381181Y344319D01*
X380547Y343493D01*
X380149Y342532D01*
X380013Y341500D01*
X380149Y340468D01*
X380547Y339507D01*
X381181Y338681D01*
X381652Y338319D01*
X381696Y337656D01*
X378466Y334426D01*
X378134Y333930D01*
X378118Y333848D01*
X377546Y333474D01*
X377453Y333493D01*
X376819Y334319D01*
X375993Y334953D01*
X375032Y335351D01*
X374495Y335422D01*
X374315Y335950D01*
X375081Y336716D01*
X375413Y337212D01*
X375529Y337797D01*
Y337855D01*
X375993Y338047D01*
X376819Y338681D01*
X377453Y339507D01*
X377851Y340468D01*
X377987Y341500D01*
X377851Y342532D01*
X377453Y343493D01*
X376819Y344319D01*
X375993Y344953D01*
X375032Y345351D01*
X374000Y345487D01*
X372968Y345351D01*
X372007Y344953D01*
X371181Y344319D01*
X370547Y343493D01*
X370149Y342532D01*
X370013Y341500D01*
X370149Y340468D01*
X370547Y339507D01*
X371181Y338681D01*
X371652Y338319D01*
X371696Y337656D01*
X368466Y334426D01*
X368134Y333930D01*
X368118Y333848D01*
X367546Y333474D01*
X367453Y333493D01*
X366819Y334319D01*
X365993Y334953D01*
X365032Y335351D01*
X364495Y335422D01*
X364315Y335950D01*
X365081Y336716D01*
X365413Y337212D01*
X365529Y337797D01*
Y337855D01*
X365993Y338047D01*
X366819Y338681D01*
X367453Y339507D01*
X367851Y340468D01*
X367987Y341500D01*
X367851Y342532D01*
X367453Y343493D01*
X366819Y344319D01*
X365993Y344953D01*
X365032Y345351D01*
X364000Y345487D01*
X362968Y345351D01*
X362007Y344953D01*
X361181Y344319D01*
X360547Y343493D01*
X360149Y342532D01*
X360013Y341500D01*
X360149Y340468D01*
X360547Y339507D01*
X361181Y338681D01*
X361652Y338319D01*
X361696Y337656D01*
X358466Y334426D01*
X358134Y333930D01*
X358118Y333848D01*
X357546Y333474D01*
X357453Y333493D01*
X356819Y334319D01*
X355993Y334953D01*
X355032Y335351D01*
X354000Y335487D01*
X352968Y335351D01*
X352007Y334953D01*
X351181Y334319D01*
X350547Y333493D01*
X350149Y332532D01*
X350013Y331500D01*
X350149Y330468D01*
X350341Y330004D01*
X348509Y328172D01*
X346933D01*
X346773Y328645D01*
X346819Y328681D01*
X347453Y329507D01*
X347851Y330468D01*
X347987Y331500D01*
X347851Y332532D01*
X347453Y333493D01*
X347123Y333923D01*
X347369Y334423D01*
X348453D01*
X349038Y334540D01*
X349534Y334871D01*
X352504Y337841D01*
X352968Y337649D01*
X354000Y337513D01*
X355032Y337649D01*
X355993Y338047D01*
X356819Y338681D01*
X357453Y339507D01*
X357851Y340468D01*
X357987Y341500D01*
X357851Y342532D01*
X357453Y343493D01*
X356819Y344319D01*
X355993Y344953D01*
X355032Y345351D01*
X354000Y345487D01*
X352968Y345351D01*
X352007Y344953D01*
X351181Y344319D01*
X350547Y343493D01*
X350149Y342532D01*
X350013Y341500D01*
X350149Y340468D01*
X350341Y340004D01*
X347819Y337482D01*
X345936D01*
X345836Y337982D01*
X345993Y338047D01*
X346819Y338681D01*
X347453Y339507D01*
X347851Y340468D01*
X347987Y341500D01*
X347851Y342532D01*
X347453Y343493D01*
X346819Y344319D01*
X345993Y344953D01*
X345032Y345351D01*
X344000Y345487D01*
X342968Y345351D01*
X342007Y344953D01*
X341181Y344319D01*
X340547Y343493D01*
X340149Y342532D01*
X340013Y341500D01*
X340149Y340468D01*
X340547Y339507D01*
X341181Y338681D01*
X342007Y338047D01*
X342026Y337954D01*
X341652Y337382D01*
X341570Y337366D01*
X341074Y337034D01*
X338466Y334426D01*
X338134Y333930D01*
X338118Y333848D01*
X337546Y333474D01*
X337453Y333493D01*
X336819Y334319D01*
X335993Y334953D01*
X335032Y335351D01*
X334000Y335487D01*
X332968Y335351D01*
X332007Y334953D01*
X331181Y334319D01*
X330547Y333493D01*
X330149Y332532D01*
X330013Y331500D01*
X330149Y330468D01*
X330547Y329507D01*
X331181Y328681D01*
X332007Y328047D01*
X332968Y327649D01*
X334000Y327513D01*
X335032Y327649D01*
X335993Y328047D01*
X336819Y328681D01*
X337453Y329507D01*
X337518Y329664D01*
X338018Y329564D01*
Y328936D01*
X319611Y310529D01*
X235701D01*
X235116Y310413D01*
X234620Y310081D01*
X215068Y290529D01*
X160813D01*
X160228Y290413D01*
X159732Y290081D01*
X140419Y270768D01*
X140087Y270272D01*
X139971Y269687D01*
Y248100D01*
X140087Y247515D01*
X140419Y247019D01*
X147147Y240290D01*
X147053Y240065D01*
X146934Y239156D01*
X147053Y238247D01*
X147404Y237401D01*
X147962Y236674D01*
X148689Y236116D01*
X149536Y235765D01*
X150444Y235646D01*
X151353Y235765D01*
X152199Y236116D01*
X152926Y236674D01*
X153484Y237401D01*
X153835Y238247D01*
X153954Y239156D01*
X153835Y240065D01*
X153484Y240911D01*
X152926Y241638D01*
X152199Y242196D01*
X151353Y242547D01*
X150444Y242666D01*
X149536Y242547D01*
X149310Y242453D01*
X145624Y246138D01*
X145858Y246612D01*
X146308Y246553D01*
X147216Y246672D01*
X148063Y247023D01*
X148790Y247581D01*
X149348Y248308D01*
X149699Y249154D01*
X149818Y250063D01*
X149699Y250972D01*
X149348Y251818D01*
X148790Y252545D01*
X148063Y253103D01*
X147216Y253454D01*
X146308Y253573D01*
X145515Y253469D01*
X145192Y253672D01*
X145029Y253842D01*
Y258685D01*
X145529Y258932D01*
X145959Y258602D01*
X146806Y258251D01*
X147714Y258132D01*
X148623Y258251D01*
X149469Y258602D01*
X150196Y259160D01*
X150754Y259887D01*
X151105Y260734D01*
X151224Y261642D01*
X151105Y262550D01*
X150754Y263397D01*
X150196Y264124D01*
X149469Y264682D01*
X149243Y264775D01*
Y269610D01*
X150435Y270802D01*
X150909Y270641D01*
X150949Y270333D01*
X151300Y269486D01*
X151858Y268759D01*
X152585Y268201D01*
X153431Y267850D01*
X154340Y267731D01*
X155248Y267850D01*
X156095Y268201D01*
X156822Y268759D01*
X157380Y269486D01*
X157731Y270333D01*
X157850Y271241D01*
X157731Y272149D01*
X157426Y272886D01*
X160763Y276223D01*
X161237Y276062D01*
X161277Y275753D01*
X161628Y274907D01*
X162186Y274180D01*
X162913Y273622D01*
X163760Y273271D01*
X164668Y273152D01*
X165577Y273271D01*
X166423Y273622D01*
X167150Y274180D01*
X167708Y274907D01*
X168059Y275753D01*
X168178Y276662D01*
X168059Y277571D01*
X167965Y277796D01*
X169640Y279471D01*
X173491D01*
X173717Y278971D01*
X173292Y278417D01*
X172941Y277571D01*
X172822Y276662D01*
X172941Y275753D01*
X173292Y274907D01*
X173850Y274180D01*
X174577Y273622D01*
X175424Y273271D01*
X176332Y273152D01*
X177241Y273271D01*
X178087Y273622D01*
X178814Y274180D01*
X179372Y274907D01*
X179465Y275133D01*
X185726D01*
X185759Y274633D01*
X185751Y274632D01*
X184905Y274281D01*
X184178Y273723D01*
X183620Y272996D01*
X183269Y272149D01*
X183150Y271241D01*
X183269Y270333D01*
X183620Y269486D01*
X184178Y268759D01*
X184905Y268201D01*
X185751Y267850D01*
X186660Y267731D01*
X187568Y267850D01*
X188415Y268201D01*
X189142Y268759D01*
X189700Y269486D01*
X189794Y269712D01*
X213395D01*
X213587Y269250D01*
X207508Y263171D01*
X196420D01*
X196326Y263397D01*
X195768Y264124D01*
X195041Y264682D01*
X194194Y265033D01*
X193286Y265152D01*
X192377Y265033D01*
X191531Y264682D01*
X190804Y264124D01*
X190246Y263397D01*
X189895Y262550D01*
X189776Y261642D01*
X189895Y260734D01*
X190246Y259887D01*
X190804Y259160D01*
X191531Y258602D01*
X192377Y258251D01*
X193286Y258132D01*
X194194Y258251D01*
X195041Y258602D01*
X195768Y259160D01*
X196326Y259887D01*
X196420Y260113D01*
X208142D01*
X208727Y260229D01*
X209223Y260561D01*
X218509Y269846D01*
X218971Y269654D01*
Y265462D01*
X205101Y251592D01*
X197826D01*
X197732Y251818D01*
X197174Y252545D01*
X196447Y253103D01*
X195600Y253454D01*
X194692Y253573D01*
X193783Y253454D01*
X192937Y253103D01*
X192210Y252545D01*
X191652Y251818D01*
X191301Y250972D01*
X191182Y250063D01*
X191301Y249154D01*
X191652Y248308D01*
X192210Y247581D01*
X192937Y247023D01*
X193783Y246672D01*
X194692Y246553D01*
X195600Y246672D01*
X196447Y247023D01*
X197174Y247581D01*
X197732Y248308D01*
X197826Y248534D01*
X204217D01*
X204409Y248072D01*
X197022Y240685D01*
X193690D01*
X193596Y240911D01*
X193038Y241638D01*
X192311Y242196D01*
X191464Y242547D01*
X190556Y242666D01*
X189647Y242547D01*
X188801Y242196D01*
X188074Y241638D01*
X187516Y240911D01*
X187165Y240065D01*
X187046Y239156D01*
X187165Y238247D01*
X187516Y237401D01*
X188074Y236674D01*
X188801Y236116D01*
X189647Y235765D01*
X190556Y235646D01*
X191464Y235765D01*
X192311Y236116D01*
X193038Y236674D01*
X193596Y237401D01*
X193690Y237627D01*
X197656D01*
X198241Y237743D01*
X198737Y238075D01*
X222509Y261846D01*
X222971Y261654D01*
Y249000D01*
X223087Y248415D01*
X223419Y247919D01*
X230546Y240791D01*
X230245Y240065D01*
X230126Y239156D01*
X230245Y238247D01*
X230596Y237401D01*
X231154Y236674D01*
X231881Y236116D01*
X232728Y235765D01*
X233636Y235646D01*
X234544Y235765D01*
X235391Y236116D01*
X236118Y236674D01*
X236676Y237401D01*
X237027Y238247D01*
X237146Y239156D01*
X237027Y240065D01*
X236676Y240911D01*
X236118Y241638D01*
X235391Y242196D01*
X234544Y242547D01*
X233636Y242666D01*
X233071Y242592D01*
X229601Y246062D01*
X229780Y246590D01*
X230409Y246672D01*
X231255Y247023D01*
X231982Y247581D01*
X232540Y248308D01*
X232891Y249154D01*
X233010Y250063D01*
X232891Y250972D01*
X232540Y251818D01*
X231982Y252545D01*
X231255Y253103D01*
X230409Y253454D01*
X229500Y253573D01*
X228591Y253454D01*
X228366Y253360D01*
X228029Y253696D01*
Y258919D01*
X228529Y259079D01*
X229151Y258602D01*
X229997Y258251D01*
X230906Y258132D01*
X231815Y258251D01*
X232661Y258602D01*
X233388Y259160D01*
X233946Y259887D01*
X234297Y260734D01*
X234416Y261642D01*
X234297Y262550D01*
X233946Y263397D01*
X233388Y264124D01*
X232661Y264682D01*
X232435Y264775D01*
Y269610D01*
X233627Y270802D01*
X234101Y270641D01*
X234141Y270333D01*
X234492Y269486D01*
X235050Y268759D01*
X235777Y268201D01*
X236624Y267850D01*
X237532Y267731D01*
X238440Y267850D01*
X239287Y268201D01*
X240014Y268759D01*
X240572Y269486D01*
X240923Y270333D01*
X241042Y271241D01*
X240923Y272149D01*
X240598Y272935D01*
X243901Y276238D01*
X244429Y276059D01*
X244469Y275753D01*
X244820Y274907D01*
X245378Y274180D01*
X246105Y273622D01*
X246952Y273271D01*
X247860Y273152D01*
X248768Y273271D01*
X249615Y273622D01*
X250342Y274180D01*
X250900Y274907D01*
X251251Y275753D01*
X251370Y276662D01*
X251251Y277571D01*
X251099Y277936D01*
X252634Y279471D01*
X256683D01*
X256909Y278971D01*
X256484Y278417D01*
X256133Y277571D01*
X256014Y276662D01*
X256133Y275753D01*
X256484Y274907D01*
X257042Y274180D01*
X257769Y273622D01*
X258615Y273271D01*
X259524Y273152D01*
X260433Y273271D01*
X261279Y273622D01*
X262006Y274180D01*
X262564Y274907D01*
X262657Y275133D01*
X268918D01*
X268951Y274633D01*
X268944Y274632D01*
X268097Y274281D01*
X267370Y273723D01*
X266812Y272996D01*
X266461Y272149D01*
X266342Y271241D01*
X266461Y270333D01*
X266812Y269486D01*
X267370Y268759D01*
X268097Y268201D01*
X268944Y267850D01*
X269852Y267731D01*
X270760Y267850D01*
X271607Y268201D01*
X272334Y268759D01*
X272892Y269486D01*
X272986Y269712D01*
X326223D01*
X326415Y269250D01*
X320337Y263171D01*
X279611D01*
X279518Y263397D01*
X278960Y264124D01*
X278233Y264682D01*
X277386Y265033D01*
X276478Y265152D01*
X275570Y265033D01*
X274723Y264682D01*
X273996Y264124D01*
X273438Y263397D01*
X273087Y262550D01*
X272968Y261642D01*
X273087Y260734D01*
X273438Y259887D01*
X273996Y259160D01*
X274723Y258602D01*
X275570Y258251D01*
X276478Y258132D01*
X277386Y258251D01*
X278233Y258602D01*
X278960Y259160D01*
X279518Y259887D01*
X279611Y260113D01*
X319453D01*
X319644Y259651D01*
X311586Y251592D01*
X281017D01*
X280924Y251818D01*
X280366Y252545D01*
X279639Y253103D01*
X278793Y253454D01*
X277884Y253573D01*
X276975Y253454D01*
X276129Y253103D01*
X275402Y252545D01*
X274844Y251818D01*
X274493Y250972D01*
X274374Y250063D01*
X274493Y249154D01*
X274844Y248308D01*
X275402Y247581D01*
X276129Y247023D01*
X276975Y246672D01*
X277884Y246553D01*
X278793Y246672D01*
X279639Y247023D01*
X280366Y247581D01*
X280924Y248308D01*
X281017Y248534D01*
X310702D01*
X310894Y248072D01*
X303507Y240685D01*
X276882D01*
X276788Y240911D01*
X276230Y241638D01*
X275503Y242196D01*
X274657Y242547D01*
X273748Y242666D01*
X272839Y242547D01*
X271993Y242196D01*
X271266Y241638D01*
X270708Y240911D01*
X270357Y240065D01*
X270238Y239156D01*
X270357Y238247D01*
X270708Y237401D01*
X271266Y236674D01*
X271993Y236116D01*
X272839Y235765D01*
X273748Y235646D01*
X274657Y235765D01*
X275503Y236116D01*
X276230Y236674D01*
X276788Y237401D01*
X276882Y237627D01*
X304141D01*
X304726Y237743D01*
X305222Y238075D01*
X335742Y268595D01*
X336204Y268403D01*
Y247866D01*
X336321Y247281D01*
X336652Y246785D01*
X343147Y240290D01*
X343053Y240065D01*
X342934Y239156D01*
X343053Y238247D01*
X343404Y237401D01*
X343962Y236674D01*
X344689Y236116D01*
X345535Y235765D01*
X346444Y235646D01*
X347353Y235765D01*
X348199Y236116D01*
X348926Y236674D01*
X349484Y237401D01*
X349835Y238247D01*
X349954Y239156D01*
X349835Y240065D01*
X349484Y240911D01*
X348926Y241638D01*
X348199Y242196D01*
X347353Y242547D01*
X346444Y242666D01*
X345535Y242547D01*
X345310Y242453D01*
X341624Y246138D01*
X341858Y246612D01*
X342308Y246553D01*
X343216Y246672D01*
X344063Y247023D01*
X344790Y247581D01*
X345348Y248308D01*
X345699Y249154D01*
X345818Y250063D01*
X345699Y250972D01*
X345348Y251818D01*
X344790Y252545D01*
X344063Y253103D01*
X343837Y253197D01*
Y255087D01*
X343721Y255673D01*
X343389Y256169D01*
X341439Y258119D01*
X341468Y258349D01*
X341924Y258584D01*
X342001Y258584D01*
X342806Y258251D01*
X343714Y258132D01*
X344622Y258251D01*
X345469Y258602D01*
X346196Y259160D01*
X346754Y259887D01*
X347105Y260734D01*
X347224Y261642D01*
X347105Y262550D01*
X346754Y263397D01*
X346196Y264124D01*
X345469Y264682D01*
X345243Y264775D01*
Y269610D01*
X346435Y270802D01*
X346909Y270641D01*
X346949Y270333D01*
X347300Y269486D01*
X347858Y268759D01*
X348585Y268201D01*
X349431Y267850D01*
X350340Y267731D01*
X351249Y267850D01*
X352095Y268201D01*
X352822Y268759D01*
X353380Y269486D01*
X353731Y270333D01*
X353850Y271241D01*
X353731Y272149D01*
X353426Y272886D01*
X356763Y276223D01*
X357237Y276062D01*
X357277Y275753D01*
X357628Y274907D01*
X358186Y274180D01*
X358913Y273622D01*
X359759Y273271D01*
X360668Y273152D01*
X361577Y273271D01*
X362423Y273622D01*
X363150Y274180D01*
X363708Y274907D01*
X364059Y275753D01*
X364178Y276662D01*
X364059Y277571D01*
X363965Y277796D01*
X365282Y279113D01*
X369261D01*
X369482Y278664D01*
X369292Y278417D01*
X368941Y277571D01*
X368822Y276662D01*
X368941Y275753D01*
X369292Y274907D01*
X369850Y274180D01*
X370577Y273622D01*
X371424Y273271D01*
X372332Y273152D01*
X373240Y273271D01*
X374087Y273622D01*
X374814Y274180D01*
X375372Y274907D01*
X375465Y275133D01*
X381726D01*
X381759Y274633D01*
X381751Y274632D01*
X380905Y274281D01*
X380178Y273723D01*
X379620Y272996D01*
X379269Y272149D01*
X379150Y271241D01*
X379269Y270333D01*
X379620Y269486D01*
X380178Y268759D01*
X380905Y268201D01*
X381751Y267850D01*
X382660Y267731D01*
X383569Y267850D01*
X384415Y268201D01*
X385142Y268759D01*
X385700Y269486D01*
X385793Y269712D01*
X414739D01*
X414930Y269250D01*
X408852Y263171D01*
X392420D01*
X392326Y263397D01*
X391768Y264124D01*
X391041Y264682D01*
X390195Y265033D01*
X389286Y265152D01*
X388377Y265033D01*
X387531Y264682D01*
X386804Y264124D01*
X386246Y263397D01*
X385895Y262550D01*
X385776Y261642D01*
X385895Y260734D01*
X386246Y259887D01*
X386804Y259160D01*
X387531Y258602D01*
X388377Y258251D01*
X389286Y258132D01*
X390195Y258251D01*
X391041Y258602D01*
X391768Y259160D01*
X392326Y259887D01*
X392420Y260113D01*
X407968D01*
X408159Y259651D01*
X403963Y255454D01*
X403489Y255687D01*
X403530Y256000D01*
X403410Y256914D01*
X403057Y257765D01*
X402496Y258496D01*
X401765Y259057D01*
X400914Y259410D01*
X400000Y259530D01*
X399086Y259410D01*
X398235Y259057D01*
X397504Y258496D01*
X396943Y257765D01*
X396638Y257029D01*
X375155D01*
X375057Y257265D01*
X374496Y257996D01*
X373765Y258557D01*
X373576Y258635D01*
X373575Y259008D01*
X373620Y259158D01*
X374296Y259438D01*
X374916Y259914D01*
X375392Y260534D01*
X375691Y261257D01*
X375793Y262032D01*
Y265968D01*
X375691Y266743D01*
X375392Y267466D01*
X374916Y268086D01*
X374296Y268562D01*
X373574Y268861D01*
X372799Y268963D01*
X372024Y268861D01*
X371302Y268562D01*
X370682Y268086D01*
X370206Y267466D01*
X369907Y266743D01*
X369902Y266703D01*
X369397D01*
X369392Y266743D01*
X369093Y267466D01*
X368617Y268086D01*
X367997Y268562D01*
X367275Y268861D01*
X366500Y268963D01*
X365725Y268861D01*
X365003Y268562D01*
X364383Y268086D01*
X363907Y267466D01*
X363608Y266743D01*
X363603Y266703D01*
X363098D01*
X363093Y266743D01*
X362794Y267466D01*
X362318Y268086D01*
X361698Y268562D01*
X360976Y268861D01*
X360701Y268897D01*
Y264000D01*
Y259103D01*
X360976Y259139D01*
X361698Y259438D01*
X362318Y259914D01*
X362794Y260534D01*
X363093Y261257D01*
X363098Y261297D01*
X363603D01*
X363608Y261257D01*
X363907Y260534D01*
X364383Y259914D01*
X365003Y259438D01*
X365725Y259139D01*
X366500Y259037D01*
X367275Y259139D01*
X367997Y259438D01*
X368617Y259914D01*
X369093Y260534D01*
X369392Y261257D01*
X369397Y261297D01*
X369902D01*
X369907Y261257D01*
X370206Y260534D01*
X370682Y259914D01*
X371298Y259442D01*
X371300Y259423D01*
X371227Y258928D01*
X371086Y258910D01*
X370235Y258557D01*
X369504Y257996D01*
X368943Y257265D01*
X368590Y256414D01*
X368470Y255500D01*
X368590Y254586D01*
X368943Y253735D01*
X369504Y253004D01*
X370235Y252443D01*
X371086Y252090D01*
X372000Y251970D01*
X372914Y252090D01*
X373765Y252443D01*
X374496Y253004D01*
X375057Y253735D01*
X375155Y253971D01*
X389879D01*
X389912Y253471D01*
X389784Y253454D01*
X388937Y253103D01*
X388210Y252545D01*
X387652Y251818D01*
X387301Y250972D01*
X387182Y250063D01*
X387301Y249154D01*
X387652Y248308D01*
X388210Y247581D01*
X388937Y247023D01*
X389784Y246672D01*
X390692Y246553D01*
X391600Y246672D01*
X392447Y247023D01*
X393174Y247581D01*
X393732Y248308D01*
X393826Y248534D01*
X399217D01*
X399409Y248072D01*
X392022Y240685D01*
X389689D01*
X389596Y240911D01*
X389038Y241638D01*
X388311Y242196D01*
X387464Y242547D01*
X386556Y242666D01*
X385648Y242547D01*
X384801Y242196D01*
X384074Y241638D01*
X383516Y240911D01*
X383165Y240065D01*
X383046Y239156D01*
X383165Y238247D01*
X383516Y237401D01*
X383793Y237040D01*
X383593Y236616D01*
X383094Y236569D01*
X382488Y237175D01*
X382530Y237500D01*
X382410Y238414D01*
X382057Y239265D01*
X381496Y239996D01*
X380765Y240557D01*
X379914Y240910D01*
X379000Y241030D01*
X378086Y240910D01*
X377235Y240557D01*
X376801Y240225D01*
X376391Y240540D01*
X376410Y240586D01*
X376530Y241500D01*
X376410Y242414D01*
X376057Y243265D01*
X375793Y243609D01*
Y244709D01*
X375691Y245484D01*
X375392Y246206D01*
X374916Y246826D01*
X374296Y247302D01*
X373574Y247601D01*
X372799Y247703D01*
X372024Y247601D01*
X371302Y247302D01*
X370682Y246826D01*
X370206Y246206D01*
X369907Y245484D01*
X369902Y245443D01*
X369397D01*
X369392Y245484D01*
X369093Y246206D01*
X368617Y246826D01*
X367997Y247302D01*
X367275Y247601D01*
X366500Y247703D01*
X365725Y247601D01*
X365003Y247302D01*
X364383Y246826D01*
X363907Y246206D01*
X363669Y245632D01*
X363169Y245731D01*
Y247677D01*
X357232D01*
Y244621D01*
X357144Y244505D01*
X356791Y243654D01*
X356671Y242740D01*
X356791Y241827D01*
X357144Y240975D01*
X357232Y240859D01*
Y237803D01*
X360387D01*
X360584Y237349D01*
X360324Y237029D01*
X353529D01*
X352944Y236913D01*
X352448Y236581D01*
X349417Y233550D01*
X270852D01*
X267821Y236581D01*
X267325Y236913D01*
X266740Y237029D01*
X254692D01*
X254309Y237413D01*
X254329Y237473D01*
X254525Y237904D01*
X255189Y238179D01*
X255809Y238654D01*
X256285Y239275D01*
X256381Y239507D01*
X256922D01*
X256934Y239479D01*
X257495Y238748D01*
X258226Y238187D01*
X259078Y237834D01*
X259991Y237714D01*
X260905Y237834D01*
X261756Y238187D01*
X262487Y238748D01*
X263048Y239479D01*
X263401Y240330D01*
X263521Y241244D01*
X263401Y242158D01*
X263048Y243009D01*
X262985Y243091D01*
Y244709D01*
X262883Y245484D01*
X262584Y246206D01*
X262108Y246826D01*
X261488Y247302D01*
X260766Y247601D01*
X259991Y247703D01*
X259216Y247601D01*
X258494Y247302D01*
X257874Y246826D01*
X257398Y246206D01*
X257099Y245484D01*
X257094Y245443D01*
X256589D01*
X256584Y245484D01*
X256285Y246206D01*
X255809Y246826D01*
X255189Y247302D01*
X254467Y247601D01*
X253692Y247703D01*
X252917Y247601D01*
X252195Y247302D01*
X251575Y246826D01*
X251099Y246206D01*
X250861Y245632D01*
X250361Y245731D01*
Y247677D01*
X244424D01*
Y237803D01*
X249592D01*
X252977Y234419D01*
X253473Y234087D01*
X254059Y233971D01*
X261956D01*
X262202Y233471D01*
X261977Y233177D01*
X261626Y232330D01*
X261507Y231422D01*
X261626Y230514D01*
X261977Y229667D01*
X262535Y228940D01*
X263262Y228382D01*
X264108Y228031D01*
X265017Y227912D01*
X265926Y228031D01*
X266772Y228382D01*
X267499Y228940D01*
X268057Y229667D01*
X268408Y230514D01*
X268460Y230910D01*
X268988Y231089D01*
X269138Y230939D01*
X269634Y230608D01*
X270219Y230491D01*
X350050D01*
X350635Y230608D01*
X351132Y230939D01*
X351213Y231021D01*
X351741Y230842D01*
X351784Y230514D01*
X352135Y229667D01*
X352693Y228940D01*
X353420Y228382D01*
X354267Y228031D01*
X355175Y227912D01*
X356083Y228031D01*
X356930Y228382D01*
X357657Y228940D01*
X358215Y229667D01*
X358566Y230514D01*
X358685Y231422D01*
X358566Y232330D01*
X358215Y233177D01*
X357990Y233471D01*
X358236Y233971D01*
X360987D01*
X361573Y234087D01*
X362069Y234419D01*
X365587Y237937D01*
X365725Y237880D01*
X366500Y237777D01*
X367275Y237880D01*
X367997Y238179D01*
X368617Y238654D01*
X369093Y239275D01*
X369343Y239877D01*
X369731Y239932D01*
X369872Y239905D01*
X369943Y239735D01*
X370101Y239529D01*
X370206Y239275D01*
X370682Y238654D01*
X371302Y238179D01*
X372024Y237880D01*
X372799Y237777D01*
X373574Y237880D01*
X374296Y238179D01*
X374494Y238331D01*
X374765Y238443D01*
X375199Y238775D01*
X375609Y238460D01*
X375590Y238414D01*
X375470Y237500D01*
X375590Y236586D01*
X375943Y235735D01*
X376399Y235140D01*
X376331Y234570D01*
X376070Y234462D01*
X375343Y233904D01*
X374785Y233177D01*
X374434Y232330D01*
X374315Y231422D01*
X374434Y230514D01*
X374785Y229667D01*
X375343Y228940D01*
X376070Y228382D01*
X376917Y228031D01*
X377825Y227912D01*
X378733Y228031D01*
X379580Y228382D01*
X380307Y228940D01*
X380865Y229667D01*
X381216Y230514D01*
X381335Y231422D01*
X381216Y232330D01*
X380865Y233177D01*
X380455Y233712D01*
X380560Y234210D01*
X380959Y234379D01*
X381419Y233919D01*
X381915Y233587D01*
X382500Y233471D01*
X434775D01*
X435049Y232971D01*
X434784Y232330D01*
X434665Y231422D01*
X434784Y230514D01*
X435135Y229667D01*
X435693Y228940D01*
X436420Y228382D01*
X437266Y228031D01*
X438175Y227912D01*
X439083Y228031D01*
X439930Y228382D01*
X440657Y228940D01*
X441215Y229667D01*
X441566Y230514D01*
X441685Y231422D01*
X441566Y232330D01*
X441215Y233177D01*
X441025Y233424D01*
X441246Y233873D01*
X443890D01*
X444475Y233989D01*
X444971Y234321D01*
X448587Y237937D01*
X448725Y237880D01*
X449500Y237777D01*
X450275Y237880D01*
X450997Y238179D01*
X451617Y238654D01*
X452093Y239275D01*
X452189Y239507D01*
X452730D01*
X452742Y239479D01*
X453303Y238748D01*
X454034Y238187D01*
X454885Y237834D01*
X455799Y237714D01*
X456713Y237834D01*
X457564Y238187D01*
X458295Y238748D01*
X458856Y239479D01*
X459209Y240330D01*
X459329Y241244D01*
X459209Y242158D01*
X458856Y243009D01*
X458793Y243091D01*
Y244709D01*
X458691Y245484D01*
X458392Y246206D01*
X457916Y246826D01*
X457296Y247302D01*
X456574Y247601D01*
X455799Y247703D01*
X455024Y247601D01*
X454302Y247302D01*
X453682Y246826D01*
X453206Y246206D01*
X452907Y245484D01*
X452902Y245443D01*
X452397D01*
X452392Y245484D01*
X452093Y246206D01*
X451617Y246826D01*
X450997Y247302D01*
X450275Y247601D01*
X449500Y247703D01*
X448725Y247601D01*
X448003Y247302D01*
X447383Y246826D01*
X446907Y246206D01*
X446669Y245632D01*
X446169Y245731D01*
Y247677D01*
X440232D01*
Y244621D01*
X440143Y244505D01*
X439791Y243654D01*
X439671Y242740D01*
X439791Y241827D01*
X440143Y240975D01*
X440232Y240859D01*
Y237803D01*
X443474D01*
X443666Y237341D01*
X443256Y236932D01*
X436526D01*
X435941Y236815D01*
X435513Y236529D01*
X432445D01*
X432199Y237029D01*
X432484Y237401D01*
X432835Y238247D01*
X432954Y239156D01*
X432835Y240065D01*
X432484Y240911D01*
X431926Y241638D01*
X431199Y242196D01*
X430352Y242547D01*
X429444Y242666D01*
X428536Y242547D01*
X427689Y242196D01*
X426962Y241638D01*
X426404Y240911D01*
X426053Y240065D01*
X425934Y239156D01*
X426053Y238247D01*
X426404Y237401D01*
X426689Y237029D01*
X426442Y236529D01*
X389558D01*
X389311Y237029D01*
X389596Y237401D01*
X389689Y237627D01*
X392656D01*
X393241Y237743D01*
X393737Y238075D01*
X435134Y279471D01*
X440827D01*
X441053Y278971D01*
X440628Y278417D01*
X440277Y277571D01*
X440158Y276662D01*
X440277Y275753D01*
X440628Y274907D01*
X441186Y274180D01*
X441913Y273622D01*
X442760Y273271D01*
X443668Y273152D01*
X444577Y273271D01*
X445423Y273622D01*
X446150Y274180D01*
X446708Y274907D01*
X447059Y275753D01*
X447178Y276662D01*
X447059Y277571D01*
X446708Y278417D01*
X446150Y279144D01*
X445423Y279702D01*
X445091Y279840D01*
X444993Y280330D01*
X492504Y327841D01*
X492968Y327649D01*
X494000Y327513D01*
X495032Y327649D01*
X495993Y328047D01*
X496819Y328681D01*
X497453Y329507D01*
X497851Y330468D01*
X497987Y331500D01*
X497851Y332532D01*
X497453Y333493D01*
X496819Y334319D01*
X495993Y334953D01*
X495032Y335351D01*
X494000Y335487D01*
X492968Y335351D01*
X492007Y334953D01*
X491181Y334319D01*
X490547Y333493D01*
X490482Y333336D01*
X489982Y333436D01*
Y335319D01*
X492210Y337547D01*
X497953D01*
Y345453D01*
X490047D01*
Y339710D01*
X487371Y337034D01*
X487040Y336538D01*
X486923Y335953D01*
Y334869D01*
X486423Y334623D01*
X485993Y334953D01*
X485032Y335351D01*
X484000Y335487D01*
X482968Y335351D01*
X482007Y334953D01*
X481181Y334319D01*
X480547Y333493D01*
X480482Y333336D01*
X479982Y333436D01*
Y335319D01*
X482504Y337841D01*
X482968Y337649D01*
X484000Y337513D01*
X485032Y337649D01*
X485993Y338047D01*
X486819Y338681D01*
X487453Y339507D01*
X487851Y340468D01*
X487987Y341500D01*
X487851Y342532D01*
X487453Y343493D01*
X486819Y344319D01*
X485993Y344953D01*
X485032Y345351D01*
X484000Y345487D01*
D02*
G37*
G36*
X334000D02*
X332968Y345351D01*
X332007Y344953D01*
X331181Y344319D01*
X330547Y343493D01*
X330149Y342532D01*
X330013Y341500D01*
X330149Y340468D01*
X330547Y339507D01*
X331181Y338681D01*
X332007Y338047D01*
X332968Y337649D01*
X334000Y337513D01*
X335032Y337649D01*
X335993Y338047D01*
X336819Y338681D01*
X337453Y339507D01*
X337851Y340468D01*
X337987Y341500D01*
X337851Y342532D01*
X337453Y343493D01*
X336819Y344319D01*
X335993Y344953D01*
X335032Y345351D01*
X334000Y345487D01*
D02*
G37*
G36*
X324000D02*
X322968Y345351D01*
X322007Y344953D01*
X321181Y344319D01*
X320547Y343493D01*
X320149Y342532D01*
X320013Y341500D01*
X320149Y340468D01*
X320547Y339507D01*
X321181Y338681D01*
X322007Y338047D01*
X322968Y337649D01*
X324000Y337513D01*
X325032Y337649D01*
X325993Y338047D01*
X326819Y338681D01*
X327453Y339507D01*
X327851Y340468D01*
X327987Y341500D01*
X327851Y342532D01*
X327453Y343493D01*
X326819Y344319D01*
X325993Y344953D01*
X325032Y345351D01*
X324000Y345487D01*
D02*
G37*
G36*
X686500Y347417D02*
X684760Y347246D01*
X683088Y346738D01*
X681546Y345914D01*
X680195Y344805D01*
X679086Y343454D01*
X678262Y341912D01*
X677754Y340240D01*
X677583Y338500D01*
X677754Y336760D01*
X678262Y335088D01*
X679086Y333546D01*
X680195Y332195D01*
X681546Y331086D01*
X683088Y330262D01*
X684760Y329754D01*
X686500Y329583D01*
X688240Y329754D01*
X689912Y330262D01*
X691454Y331086D01*
X692805Y332195D01*
X693914Y333546D01*
X694738Y335088D01*
X695246Y336760D01*
X695417Y338500D01*
X695246Y340240D01*
X694738Y341912D01*
X693914Y343454D01*
X692805Y344805D01*
X691454Y345914D01*
X689912Y346738D01*
X688240Y347246D01*
X686500Y347417D01*
D02*
G37*
G36*
X551000D02*
X549260Y347246D01*
X547588Y346738D01*
X546046Y345914D01*
X544695Y344805D01*
X543586Y343454D01*
X542762Y341912D01*
X542254Y340240D01*
X542083Y338500D01*
X542254Y336760D01*
X542762Y335088D01*
X543586Y333546D01*
X544695Y332195D01*
X546046Y331086D01*
X547588Y330262D01*
X549260Y329754D01*
X551000Y329583D01*
X552740Y329754D01*
X554412Y330262D01*
X555954Y331086D01*
X557305Y332195D01*
X558414Y333546D01*
X559238Y335088D01*
X559746Y336760D01*
X559917Y338500D01*
X559746Y340240D01*
X559238Y341912D01*
X558414Y343454D01*
X557305Y344805D01*
X555954Y345914D01*
X554412Y346738D01*
X552740Y347246D01*
X551000Y347417D01*
D02*
G37*
G36*
X267000D02*
X265260Y347246D01*
X263588Y346738D01*
X262046Y345914D01*
X260695Y344805D01*
X259586Y343454D01*
X258762Y341912D01*
X258254Y340240D01*
X258083Y338500D01*
X258254Y336760D01*
X258762Y335088D01*
X259586Y333546D01*
X260695Y332195D01*
X262046Y331086D01*
X263588Y330262D01*
X265260Y329754D01*
X267000Y329583D01*
X268740Y329754D01*
X270412Y330262D01*
X271954Y331086D01*
X273305Y332195D01*
X274414Y333546D01*
X275238Y335088D01*
X275746Y336760D01*
X275917Y338500D01*
X275746Y340240D01*
X275238Y341912D01*
X274414Y343454D01*
X273305Y344805D01*
X271954Y345914D01*
X270412Y346738D01*
X268740Y347246D01*
X267000Y347417D01*
D02*
G37*
G36*
X129500D02*
X127760Y347246D01*
X126088Y346738D01*
X124546Y345914D01*
X123195Y344805D01*
X122086Y343454D01*
X121262Y341912D01*
X120754Y340240D01*
X120583Y338500D01*
X120754Y336760D01*
X121262Y335088D01*
X122086Y333546D01*
X123195Y332195D01*
X124546Y331086D01*
X126088Y330262D01*
X127760Y329754D01*
X129500Y329583D01*
X131240Y329754D01*
X132912Y330262D01*
X134454Y331086D01*
X135805Y332195D01*
X136914Y333546D01*
X137738Y335088D01*
X138246Y336760D01*
X138417Y338500D01*
X138246Y340240D01*
X137738Y341912D01*
X136914Y343454D01*
X135805Y344805D01*
X134454Y345914D01*
X132912Y346738D01*
X131240Y347246D01*
X129500Y347417D01*
D02*
G37*
G36*
X324000Y335487D02*
X322968Y335351D01*
X322007Y334953D01*
X321181Y334319D01*
X320547Y333493D01*
X320149Y332532D01*
X320013Y331500D01*
X320149Y330468D01*
X320547Y329507D01*
X321181Y328681D01*
X322007Y328047D01*
X322968Y327649D01*
X324000Y327513D01*
X325032Y327649D01*
X325993Y328047D01*
X326819Y328681D01*
X327453Y329507D01*
X327851Y330468D01*
X327987Y331500D01*
X327851Y332532D01*
X327453Y333493D01*
X326819Y334319D01*
X325993Y334953D01*
X325032Y335351D01*
X324000Y335487D01*
D02*
G37*
G36*
X651388Y280172D02*
X650480Y280053D01*
X649633Y279702D01*
X648906Y279144D01*
X648348Y278417D01*
X647997Y277571D01*
X647878Y276662D01*
X647997Y275753D01*
X648348Y274907D01*
X648906Y274180D01*
X649633Y273622D01*
X650480Y273271D01*
X651388Y273152D01*
X652296Y273271D01*
X653143Y273622D01*
X653870Y274180D01*
X654428Y274907D01*
X654779Y275753D01*
X654898Y276662D01*
X654779Y277571D01*
X654428Y278417D01*
X653870Y279144D01*
X653143Y279702D01*
X652296Y280053D01*
X651388Y280172D01*
D02*
G37*
G36*
X639724D02*
X638815Y280053D01*
X637969Y279702D01*
X637242Y279144D01*
X636684Y278417D01*
X636333Y277571D01*
X636214Y276662D01*
X636333Y275753D01*
X636684Y274907D01*
X637242Y274180D01*
X637969Y273622D01*
X638815Y273271D01*
X639724Y273152D01*
X640632Y273271D01*
X641479Y273622D01*
X642206Y274180D01*
X642764Y274907D01*
X643115Y275753D01*
X643234Y276662D01*
X643115Y277571D01*
X642764Y278417D01*
X642206Y279144D01*
X641479Y279702D01*
X640632Y280053D01*
X639724Y280172D01*
D02*
G37*
G36*
X568332D02*
X567423Y280053D01*
X566577Y279702D01*
X565850Y279144D01*
X565292Y278417D01*
X564941Y277571D01*
X564822Y276662D01*
X564941Y275753D01*
X565292Y274907D01*
X565850Y274180D01*
X566577Y273622D01*
X567423Y273271D01*
X568332Y273152D01*
X569241Y273271D01*
X570087Y273622D01*
X570814Y274180D01*
X571372Y274907D01*
X571723Y275753D01*
X571842Y276662D01*
X571723Y277571D01*
X571372Y278417D01*
X570814Y279144D01*
X570087Y279702D01*
X569241Y280053D01*
X568332Y280172D01*
D02*
G37*
G36*
X556668D02*
X555759Y280053D01*
X554913Y279702D01*
X554186Y279144D01*
X553628Y278417D01*
X553277Y277571D01*
X553158Y276662D01*
X553277Y275753D01*
X553628Y274907D01*
X554186Y274180D01*
X554913Y273622D01*
X555759Y273271D01*
X556668Y273152D01*
X557577Y273271D01*
X558423Y273622D01*
X559150Y274180D01*
X559708Y274907D01*
X560059Y275753D01*
X560178Y276662D01*
X560059Y277571D01*
X559708Y278417D01*
X559150Y279144D01*
X558423Y279702D01*
X557577Y280053D01*
X556668Y280172D01*
D02*
G37*
G36*
X455332D02*
X454424Y280053D01*
X453577Y279702D01*
X452850Y279144D01*
X452292Y278417D01*
X451941Y277571D01*
X451822Y276662D01*
X451941Y275753D01*
X452292Y274907D01*
X452850Y274180D01*
X453577Y273622D01*
X454424Y273271D01*
X455332Y273152D01*
X456241Y273271D01*
X457087Y273622D01*
X457814Y274180D01*
X458372Y274907D01*
X458723Y275753D01*
X458842Y276662D01*
X458723Y277571D01*
X458372Y278417D01*
X457814Y279144D01*
X457087Y279702D01*
X456241Y280053D01*
X455332Y280172D01*
D02*
G37*
G36*
X661716Y274751D02*
X660808Y274632D01*
X659961Y274281D01*
X659234Y273723D01*
X658676Y272996D01*
X658325Y272149D01*
X658206Y271241D01*
X658325Y270333D01*
X658676Y269486D01*
X659234Y268759D01*
X659961Y268201D01*
X660808Y267850D01*
X661716Y267731D01*
X662625Y267850D01*
X663471Y268201D01*
X664198Y268759D01*
X664756Y269486D01*
X665107Y270333D01*
X665226Y271241D01*
X665107Y272149D01*
X664756Y272996D01*
X664198Y273723D01*
X663471Y274281D01*
X662625Y274632D01*
X661716Y274751D01*
D02*
G37*
G36*
X629396D02*
X628487Y274632D01*
X627641Y274281D01*
X626914Y273723D01*
X626356Y272996D01*
X626005Y272149D01*
X625886Y271241D01*
X626005Y270333D01*
X626356Y269486D01*
X626914Y268759D01*
X627641Y268201D01*
X628487Y267850D01*
X629396Y267731D01*
X630304Y267850D01*
X631151Y268201D01*
X631878Y268759D01*
X632436Y269486D01*
X632787Y270333D01*
X632906Y271241D01*
X632787Y272149D01*
X632436Y272996D01*
X631878Y273723D01*
X631151Y274281D01*
X630304Y274632D01*
X629396Y274751D01*
D02*
G37*
G36*
X578660D02*
X577751Y274632D01*
X576905Y274281D01*
X576178Y273723D01*
X575620Y272996D01*
X575269Y272149D01*
X575150Y271241D01*
X575269Y270333D01*
X575620Y269486D01*
X576178Y268759D01*
X576905Y268201D01*
X577751Y267850D01*
X578660Y267731D01*
X579568Y267850D01*
X580415Y268201D01*
X581142Y268759D01*
X581700Y269486D01*
X582051Y270333D01*
X582170Y271241D01*
X582051Y272149D01*
X581700Y272996D01*
X581142Y273723D01*
X580415Y274281D01*
X579568Y274632D01*
X578660Y274751D01*
D02*
G37*
G36*
X546340D02*
X545432Y274632D01*
X544585Y274281D01*
X543858Y273723D01*
X543300Y272996D01*
X542949Y272149D01*
X542830Y271241D01*
X542949Y270333D01*
X543300Y269486D01*
X543858Y268759D01*
X544585Y268201D01*
X545432Y267850D01*
X546340Y267731D01*
X547249Y267850D01*
X548095Y268201D01*
X548822Y268759D01*
X549380Y269486D01*
X549731Y270333D01*
X549850Y271241D01*
X549731Y272149D01*
X549380Y272996D01*
X548822Y273723D01*
X548095Y274281D01*
X547249Y274632D01*
X546340Y274751D01*
D02*
G37*
G36*
X465660D02*
X464751Y274632D01*
X463905Y274281D01*
X463178Y273723D01*
X462620Y272996D01*
X462269Y272149D01*
X462150Y271241D01*
X462269Y270333D01*
X462620Y269486D01*
X463178Y268759D01*
X463905Y268201D01*
X464751Y267850D01*
X465660Y267731D01*
X466569Y267850D01*
X467415Y268201D01*
X468142Y268759D01*
X468700Y269486D01*
X469051Y270333D01*
X469170Y271241D01*
X469051Y272149D01*
X468700Y272996D01*
X468142Y273723D01*
X467415Y274281D01*
X466569Y274632D01*
X465660Y274751D01*
D02*
G37*
G36*
X433340D02*
X432432Y274632D01*
X431585Y274281D01*
X430858Y273723D01*
X430300Y272996D01*
X429949Y272149D01*
X429830Y271241D01*
X429949Y270333D01*
X430300Y269486D01*
X430858Y268759D01*
X431585Y268201D01*
X432432Y267850D01*
X433340Y267731D01*
X434248Y267850D01*
X435095Y268201D01*
X435822Y268759D01*
X436380Y269486D01*
X436731Y270333D01*
X436850Y271241D01*
X436731Y272149D01*
X436380Y272996D01*
X435822Y273723D01*
X435095Y274281D01*
X434248Y274632D01*
X433340Y274751D01*
D02*
G37*
G36*
X651855Y268963D02*
X651080Y268861D01*
X650358Y268562D01*
X649738Y268086D01*
X649262Y267466D01*
X648963Y266743D01*
X648958Y266703D01*
X648453D01*
X648448Y266743D01*
X648149Y267466D01*
X647673Y268086D01*
X647053Y268562D01*
X646331Y268861D01*
X645556Y268963D01*
X644781Y268861D01*
X644059Y268562D01*
X643439Y268086D01*
X642963Y267466D01*
X642664Y266743D01*
X642659Y266703D01*
X642154D01*
X642149Y266743D01*
X641850Y267466D01*
X641374Y268086D01*
X640754Y268562D01*
X640032Y268861D01*
X639757Y268897D01*
Y264000D01*
Y259103D01*
X640032Y259139D01*
X640754Y259438D01*
X641374Y259914D01*
X641850Y260534D01*
X642149Y261257D01*
X642154Y261297D01*
X642659D01*
X642664Y261257D01*
X642963Y260534D01*
X643439Y259914D01*
X644059Y259438D01*
X644781Y259139D01*
X645556Y259037D01*
X646331Y259139D01*
X647053Y259438D01*
X647673Y259914D01*
X648149Y260534D01*
X648448Y261257D01*
X648453Y261297D01*
X648958D01*
X648963Y261257D01*
X649262Y260534D01*
X649738Y259914D01*
X650358Y259438D01*
X651080Y259139D01*
X651855Y259037D01*
X652630Y259139D01*
X653352Y259438D01*
X653972Y259914D01*
X654448Y260534D01*
X654747Y261257D01*
X654849Y262032D01*
Y265968D01*
X654747Y266743D01*
X654448Y267466D01*
X653972Y268086D01*
X653352Y268562D01*
X652630Y268861D01*
X651855Y268963D01*
D02*
G37*
G36*
X568799D02*
X568024Y268861D01*
X567302Y268562D01*
X566682Y268086D01*
X566206Y267466D01*
X565907Y266743D01*
X565902Y266703D01*
X565398D01*
X565392Y266743D01*
X565093Y267466D01*
X564617Y268086D01*
X563997Y268562D01*
X563275Y268861D01*
X562500Y268963D01*
X561725Y268861D01*
X561003Y268562D01*
X560383Y268086D01*
X559907Y267466D01*
X559608Y266743D01*
X559602Y266703D01*
X559098D01*
X559093Y266743D01*
X558794Y267466D01*
X558318Y268086D01*
X557698Y268562D01*
X556976Y268861D01*
X556701Y268897D01*
Y264000D01*
Y259103D01*
X556976Y259139D01*
X557698Y259438D01*
X558318Y259914D01*
X558794Y260534D01*
X559093Y261257D01*
X559098Y261297D01*
X559602D01*
X559608Y261257D01*
X559907Y260534D01*
X560383Y259914D01*
X561003Y259438D01*
X561725Y259139D01*
X562500Y259037D01*
X563275Y259139D01*
X563997Y259438D01*
X564617Y259914D01*
X565093Y260534D01*
X565392Y261257D01*
X565398Y261297D01*
X565902D01*
X565907Y261257D01*
X566206Y260534D01*
X566682Y259914D01*
X567302Y259438D01*
X568024Y259139D01*
X568799Y259037D01*
X569574Y259139D01*
X570296Y259438D01*
X570916Y259914D01*
X571392Y260534D01*
X571691Y261257D01*
X571793Y262032D01*
Y265968D01*
X571691Y266743D01*
X571392Y267466D01*
X570916Y268086D01*
X570296Y268562D01*
X569574Y268861D01*
X568799Y268963D01*
D02*
G37*
G36*
X455799D02*
X455024Y268861D01*
X454302Y268562D01*
X453682Y268086D01*
X453206Y267466D01*
X452907Y266743D01*
X452902Y266703D01*
X452397D01*
X452392Y266743D01*
X452093Y267466D01*
X451617Y268086D01*
X450997Y268562D01*
X450275Y268861D01*
X449500Y268963D01*
X448725Y268861D01*
X448003Y268562D01*
X447383Y268086D01*
X446907Y267466D01*
X446608Y266743D01*
X446602Y266703D01*
X446098D01*
X446093Y266743D01*
X445794Y267466D01*
X445318Y268086D01*
X444698Y268562D01*
X443976Y268861D01*
X443701Y268897D01*
Y264000D01*
Y259103D01*
X443976Y259139D01*
X444698Y259438D01*
X445318Y259914D01*
X445794Y260534D01*
X446093Y261257D01*
X446098Y261297D01*
X446602D01*
X446608Y261257D01*
X446907Y260534D01*
X447383Y259914D01*
X448003Y259438D01*
X448725Y259139D01*
X449500Y259037D01*
X450275Y259139D01*
X450997Y259438D01*
X451617Y259914D01*
X452093Y260534D01*
X452392Y261257D01*
X452397Y261297D01*
X452902D01*
X452907Y261257D01*
X453206Y260534D01*
X453682Y259914D01*
X454302Y259438D01*
X455024Y259139D01*
X455799Y259037D01*
X456574Y259139D01*
X457296Y259438D01*
X457916Y259914D01*
X458392Y260534D01*
X458691Y261257D01*
X458793Y262032D01*
Y265968D01*
X458691Y266743D01*
X458392Y267466D01*
X457916Y268086D01*
X457296Y268562D01*
X456574Y268861D01*
X455799Y268963D01*
D02*
G37*
G36*
X259991D02*
X259216Y268861D01*
X258494Y268562D01*
X257874Y268086D01*
X257398Y267466D01*
X257099Y266743D01*
X257094Y266703D01*
X256589D01*
X256584Y266743D01*
X256285Y267466D01*
X255809Y268086D01*
X255189Y268562D01*
X254467Y268861D01*
X253692Y268963D01*
X252917Y268861D01*
X252195Y268562D01*
X251575Y268086D01*
X251099Y267466D01*
X250800Y266743D01*
X250795Y266703D01*
X250290D01*
X250285Y266743D01*
X249986Y267466D01*
X249510Y268086D01*
X248890Y268562D01*
X248168Y268861D01*
X247893Y268897D01*
Y264000D01*
Y259103D01*
X248168Y259139D01*
X248890Y259438D01*
X249510Y259914D01*
X249986Y260534D01*
X250285Y261257D01*
X250290Y261297D01*
X250795D01*
X250800Y261257D01*
X251099Y260534D01*
X251575Y259914D01*
X252195Y259438D01*
X252917Y259139D01*
X253692Y259037D01*
X254467Y259139D01*
X255189Y259438D01*
X255809Y259914D01*
X256285Y260534D01*
X256584Y261257D01*
X256589Y261297D01*
X257094D01*
X257099Y261257D01*
X257398Y260534D01*
X257874Y259914D01*
X258494Y259438D01*
X259216Y259139D01*
X259991Y259037D01*
X260766Y259139D01*
X261488Y259438D01*
X262108Y259914D01*
X262584Y260534D01*
X262883Y261257D01*
X262985Y262032D01*
Y265968D01*
X262883Y266743D01*
X262584Y267466D01*
X262108Y268086D01*
X261488Y268562D01*
X260766Y268861D01*
X259991Y268963D01*
D02*
G37*
G36*
X176799D02*
X176024Y268861D01*
X175302Y268562D01*
X174682Y268086D01*
X174206Y267466D01*
X173907Y266743D01*
X173902Y266703D01*
X173398D01*
X173392Y266743D01*
X173093Y267466D01*
X172617Y268086D01*
X171997Y268562D01*
X171275Y268861D01*
X170500Y268963D01*
X169725Y268861D01*
X169003Y268562D01*
X168383Y268086D01*
X167907Y267466D01*
X167608Y266743D01*
X167603Y266703D01*
X167098D01*
X167093Y266743D01*
X166794Y267466D01*
X166318Y268086D01*
X165698Y268562D01*
X164976Y268861D01*
X164701Y268897D01*
Y264000D01*
Y259103D01*
X164976Y259139D01*
X165698Y259438D01*
X166318Y259914D01*
X166794Y260534D01*
X167093Y261257D01*
X167098Y261297D01*
X167603D01*
X167608Y261257D01*
X167907Y260534D01*
X168383Y259914D01*
X169003Y259438D01*
X169725Y259139D01*
X170500Y259037D01*
X171275Y259139D01*
X171997Y259438D01*
X172617Y259914D01*
X173093Y260534D01*
X173392Y261257D01*
X173398Y261297D01*
X173902D01*
X173907Y261257D01*
X174206Y260534D01*
X174682Y259914D01*
X175302Y259438D01*
X176024Y259139D01*
X176799Y259037D01*
X177574Y259139D01*
X178296Y259438D01*
X178916Y259914D01*
X179392Y260534D01*
X179691Y261257D01*
X179793Y262032D01*
Y265968D01*
X179691Y266743D01*
X179392Y267466D01*
X178916Y268086D01*
X178296Y268562D01*
X177574Y268861D01*
X176799Y268963D01*
D02*
G37*
G36*
X163701Y268897D02*
X163426Y268861D01*
X162704Y268562D01*
X162084Y268086D01*
X161608Y267466D01*
X161309Y266743D01*
X161207Y265968D01*
Y264500D01*
X163701D01*
Y268897D01*
D02*
G37*
G36*
X638757D02*
X638482Y268861D01*
X637760Y268562D01*
X637140Y268086D01*
X636664Y267466D01*
X636365Y266743D01*
X636263Y265968D01*
Y264500D01*
X638757D01*
Y268897D01*
D02*
G37*
G36*
X555701D02*
X555426Y268861D01*
X554704Y268562D01*
X554084Y268086D01*
X553608Y267466D01*
X553309Y266743D01*
X553207Y265968D01*
Y264500D01*
X555701D01*
Y268897D01*
D02*
G37*
G36*
X442701D02*
X442426Y268861D01*
X441704Y268562D01*
X441084Y268086D01*
X440608Y267466D01*
X440309Y266743D01*
X440207Y265968D01*
Y264500D01*
X442701D01*
Y268897D01*
D02*
G37*
G36*
X359701D02*
X359426Y268861D01*
X358704Y268562D01*
X358084Y268086D01*
X357608Y267466D01*
X357309Y266743D01*
X357207Y265968D01*
Y264500D01*
X359701D01*
Y268897D01*
D02*
G37*
G36*
X246893D02*
X246618Y268861D01*
X245896Y268562D01*
X245276Y268086D01*
X244800Y267466D01*
X244501Y266743D01*
X244399Y265968D01*
Y264500D01*
X246893D01*
Y268897D01*
D02*
G37*
G36*
X163701Y263500D02*
X161207D01*
Y262032D01*
X161309Y261257D01*
X161608Y260534D01*
X162084Y259914D01*
X162704Y259438D01*
X163426Y259139D01*
X163701Y259103D01*
Y263500D01*
D02*
G37*
G36*
X638757Y263500D02*
X636263D01*
Y262032D01*
X636365Y261257D01*
X636664Y260534D01*
X637140Y259914D01*
X637760Y259438D01*
X638482Y259139D01*
X638757Y259103D01*
Y263500D01*
D02*
G37*
G36*
X442701D02*
X440207D01*
Y262032D01*
X440309Y261257D01*
X440608Y260534D01*
X441084Y259914D01*
X441704Y259438D01*
X442426Y259139D01*
X442701Y259103D01*
Y263500D01*
D02*
G37*
G36*
X246893D02*
X244399D01*
Y262032D01*
X244501Y261257D01*
X244800Y260534D01*
X245276Y259914D01*
X245896Y259438D01*
X246618Y259139D01*
X246893Y259103D01*
Y263500D01*
D02*
G37*
G36*
X555701D02*
X553207D01*
Y262032D01*
X553309Y261257D01*
X553608Y260534D01*
X554084Y259914D01*
X554704Y259438D01*
X555426Y259139D01*
X555701Y259103D01*
Y263500D01*
D02*
G37*
G36*
X359701D02*
X357207D01*
Y262032D01*
X357309Y261257D01*
X357608Y260534D01*
X358084Y259914D01*
X358704Y259438D01*
X359426Y259139D01*
X359701Y259103D01*
Y263500D01*
D02*
G37*
G36*
X668342Y265152D02*
X667434Y265033D01*
X666587Y264682D01*
X665860Y264124D01*
X665302Y263397D01*
X664951Y262550D01*
X664832Y261642D01*
X664951Y260734D01*
X665302Y259887D01*
X665860Y259160D01*
X666587Y258602D01*
X667434Y258251D01*
X668342Y258132D01*
X669250Y258251D01*
X670097Y258602D01*
X670824Y259160D01*
X671382Y259887D01*
X671733Y260734D01*
X671852Y261642D01*
X671733Y262550D01*
X671382Y263397D01*
X670824Y264124D01*
X670097Y264682D01*
X669250Y265033D01*
X668342Y265152D01*
D02*
G37*
G36*
X622770D02*
X621862Y265033D01*
X621015Y264682D01*
X620288Y264124D01*
X619730Y263397D01*
X619379Y262550D01*
X619260Y261642D01*
X619379Y260734D01*
X619730Y259887D01*
X620288Y259160D01*
X621015Y258602D01*
X621862Y258251D01*
X622770Y258132D01*
X623678Y258251D01*
X624525Y258602D01*
X625252Y259160D01*
X625810Y259887D01*
X626161Y260734D01*
X626280Y261642D01*
X626161Y262550D01*
X625810Y263397D01*
X625252Y264124D01*
X624525Y264682D01*
X623678Y265033D01*
X622770Y265152D01*
D02*
G37*
G36*
X585286D02*
X584377Y265033D01*
X583531Y264682D01*
X582804Y264124D01*
X582246Y263397D01*
X581895Y262550D01*
X581776Y261642D01*
X581895Y260734D01*
X582246Y259887D01*
X582804Y259160D01*
X583531Y258602D01*
X584377Y258251D01*
X585286Y258132D01*
X586195Y258251D01*
X587041Y258602D01*
X587768Y259160D01*
X588326Y259887D01*
X588677Y260734D01*
X588796Y261642D01*
X588677Y262550D01*
X588326Y263397D01*
X587768Y264124D01*
X587041Y264682D01*
X586195Y265033D01*
X585286Y265152D01*
D02*
G37*
G36*
X539714D02*
X538805Y265033D01*
X537959Y264682D01*
X537232Y264124D01*
X536674Y263397D01*
X536323Y262550D01*
X536204Y261642D01*
X536323Y260734D01*
X536674Y259887D01*
X537232Y259160D01*
X537959Y258602D01*
X538805Y258251D01*
X539714Y258132D01*
X540623Y258251D01*
X541469Y258602D01*
X542196Y259160D01*
X542754Y259887D01*
X543105Y260734D01*
X543224Y261642D01*
X543105Y262550D01*
X542754Y263397D01*
X542196Y264124D01*
X541469Y264682D01*
X540623Y265033D01*
X539714Y265152D01*
D02*
G37*
G36*
X472286D02*
X471378Y265033D01*
X470531Y264682D01*
X469804Y264124D01*
X469246Y263397D01*
X468895Y262550D01*
X468776Y261642D01*
X468895Y260734D01*
X469246Y259887D01*
X469804Y259160D01*
X470531Y258602D01*
X471378Y258251D01*
X472286Y258132D01*
X473195Y258251D01*
X474041Y258602D01*
X474768Y259160D01*
X475326Y259887D01*
X475677Y260734D01*
X475796Y261642D01*
X475677Y262550D01*
X475326Y263397D01*
X474768Y264124D01*
X474041Y264682D01*
X473195Y265033D01*
X472286Y265152D01*
D02*
G37*
G36*
X426714D02*
X425806Y265033D01*
X424959Y264682D01*
X424232Y264124D01*
X423674Y263397D01*
X423323Y262550D01*
X423204Y261642D01*
X423323Y260734D01*
X423674Y259887D01*
X424232Y259160D01*
X424959Y258602D01*
X425806Y258251D01*
X426714Y258132D01*
X427623Y258251D01*
X428469Y258602D01*
X429196Y259160D01*
X429754Y259887D01*
X430105Y260734D01*
X430224Y261642D01*
X430105Y262550D01*
X429754Y263397D01*
X429196Y264124D01*
X428469Y264682D01*
X427623Y265033D01*
X426714Y265152D01*
D02*
G37*
G36*
X651500Y257530D02*
X650586Y257410D01*
X649735Y257057D01*
X649004Y256496D01*
X648443Y255765D01*
X648363Y255573D01*
X571936D01*
X571856Y255765D01*
X571295Y256496D01*
X570564Y257057D01*
X569713Y257410D01*
X568799Y257530D01*
X567885Y257410D01*
X567034Y257057D01*
X566303Y256496D01*
X565742Y255765D01*
X565662Y255573D01*
X458936D01*
X458856Y255765D01*
X458295Y256496D01*
X457564Y257057D01*
X456713Y257410D01*
X455799Y257530D01*
X454885Y257410D01*
X454034Y257057D01*
X453303Y256496D01*
X452742Y255765D01*
X452662Y255573D01*
X417964D01*
X417638Y255996D01*
X416907Y256557D01*
X416056Y256910D01*
X415142Y257030D01*
X414229Y256910D01*
X413377Y256557D01*
X412646Y255996D01*
X412085Y255265D01*
X411732Y254414D01*
X411612Y253500D01*
X411732Y252586D01*
X412085Y251735D01*
X412646Y251004D01*
X413377Y250443D01*
X414229Y250090D01*
X415142Y249970D01*
X416056Y250090D01*
X416907Y250443D01*
X417638Y251004D01*
X418199Y251735D01*
X418522Y252514D01*
X422237D01*
X422458Y252065D01*
X422268Y251818D01*
X421917Y250972D01*
X421798Y250063D01*
X421917Y249154D01*
X422268Y248308D01*
X422826Y247581D01*
X423553Y247023D01*
X424400Y246672D01*
X425308Y246553D01*
X426217Y246672D01*
X427063Y247023D01*
X427790Y247581D01*
X428348Y248308D01*
X428699Y249154D01*
X428818Y250063D01*
X428699Y250972D01*
X428348Y251818D01*
X428158Y252065D01*
X428379Y252514D01*
X452626D01*
X452742Y252235D01*
X453303Y251504D01*
X454034Y250943D01*
X454885Y250590D01*
X455799Y250470D01*
X456713Y250590D01*
X457564Y250943D01*
X458295Y251504D01*
X458856Y252235D01*
X458972Y252514D01*
X470621D01*
X470842Y252065D01*
X470652Y251818D01*
X470301Y250972D01*
X470182Y250063D01*
X470301Y249154D01*
X470652Y248308D01*
X471210Y247581D01*
X471937Y247023D01*
X472784Y246672D01*
X473692Y246553D01*
X474601Y246672D01*
X475447Y247023D01*
X476174Y247581D01*
X476732Y248308D01*
X477083Y249154D01*
X477202Y250063D01*
X477083Y250972D01*
X476732Y251818D01*
X476542Y252065D01*
X476763Y252514D01*
X535237D01*
X535458Y252065D01*
X535268Y251818D01*
X534917Y250972D01*
X534798Y250063D01*
X534917Y249154D01*
X535268Y248308D01*
X535826Y247581D01*
X536553Y247023D01*
X537399Y246672D01*
X538308Y246553D01*
X539217Y246672D01*
X540063Y247023D01*
X540790Y247581D01*
X541348Y248308D01*
X541699Y249154D01*
X541818Y250063D01*
X541699Y250972D01*
X541348Y251818D01*
X541158Y252065D01*
X541379Y252514D01*
X565626D01*
X565742Y252235D01*
X566303Y251504D01*
X567034Y250943D01*
X567885Y250590D01*
X568799Y250470D01*
X569713Y250590D01*
X570564Y250943D01*
X571295Y251504D01*
X571856Y252235D01*
X571972Y252514D01*
X583621D01*
X583842Y252065D01*
X583652Y251818D01*
X583301Y250972D01*
X583182Y250063D01*
X583301Y249154D01*
X583652Y248308D01*
X584210Y247581D01*
X584937Y247023D01*
X585783Y246672D01*
X586692Y246553D01*
X587601Y246672D01*
X588447Y247023D01*
X589174Y247581D01*
X589732Y248308D01*
X590083Y249154D01*
X590202Y250063D01*
X590083Y250972D01*
X589732Y251818D01*
X589542Y252065D01*
X589763Y252514D01*
X618293D01*
X618514Y252065D01*
X618324Y251818D01*
X617973Y250972D01*
X617854Y250063D01*
X617973Y249154D01*
X618324Y248308D01*
X618882Y247581D01*
X619609Y247023D01*
X620456Y246672D01*
X621364Y246553D01*
X622272Y246672D01*
X623119Y247023D01*
X623846Y247581D01*
X624404Y248308D01*
X624755Y249154D01*
X624874Y250063D01*
X624755Y250972D01*
X624404Y251818D01*
X624214Y252065D01*
X624435Y252514D01*
X648327D01*
X648443Y252235D01*
X649004Y251504D01*
X649735Y250943D01*
X650586Y250590D01*
X651500Y250470D01*
X652414Y250590D01*
X653265Y250943D01*
X653996Y251504D01*
X654557Y252235D01*
X654910Y253086D01*
X655030Y254000D01*
X654910Y254914D01*
X654557Y255765D01*
X653996Y256496D01*
X653265Y257057D01*
X652414Y257410D01*
X651500Y257530D01*
D02*
G37*
G36*
X669748Y253573D02*
X668840Y253454D01*
X667993Y253103D01*
X667266Y252545D01*
X666708Y251818D01*
X666357Y250972D01*
X666238Y250063D01*
X666357Y249154D01*
X666708Y248308D01*
X667266Y247581D01*
X667993Y247023D01*
X668840Y246672D01*
X669748Y246553D01*
X670656Y246672D01*
X671503Y247023D01*
X672230Y247581D01*
X672788Y248308D01*
X673139Y249154D01*
X673258Y250063D01*
X673139Y250972D01*
X672788Y251818D01*
X672230Y252545D01*
X671503Y253103D01*
X670656Y253454D01*
X669748Y253573D01*
D02*
G37*
G36*
X176799Y247703D02*
X176024Y247601D01*
X175302Y247302D01*
X174682Y246826D01*
X174206Y246206D01*
X173907Y245484D01*
X173902Y245443D01*
X173398D01*
X173392Y245484D01*
X173093Y246206D01*
X172617Y246826D01*
X171997Y247302D01*
X171275Y247601D01*
X170500Y247703D01*
X169725Y247601D01*
X169003Y247302D01*
X168383Y246826D01*
X167907Y246206D01*
X167669Y245632D01*
X167169Y245731D01*
Y247677D01*
X161232D01*
Y244621D01*
X161144Y244505D01*
X160791Y243654D01*
X160671Y242740D01*
X160791Y241827D01*
X161144Y240975D01*
X161232Y240859D01*
Y237803D01*
X167169D01*
Y239749D01*
X167669Y239848D01*
X167907Y239275D01*
X168383Y238654D01*
X169003Y238179D01*
X169725Y237880D01*
X170500Y237777D01*
X171275Y237880D01*
X171997Y238179D01*
X172617Y238654D01*
X173093Y239275D01*
X173290Y239749D01*
X173831D01*
X173943Y239479D01*
X174504Y238748D01*
X175235Y238187D01*
X176086Y237834D01*
X177000Y237714D01*
X177914Y237834D01*
X178765Y238187D01*
X179496Y238748D01*
X180057Y239479D01*
X180410Y240330D01*
X180530Y241244D01*
X180410Y242158D01*
X180057Y243009D01*
X179793Y243353D01*
Y244709D01*
X179691Y245484D01*
X179392Y246206D01*
X178916Y246826D01*
X178296Y247302D01*
X177574Y247601D01*
X176799Y247703D01*
D02*
G37*
G36*
X651855D02*
X651080Y247601D01*
X650358Y247302D01*
X649738Y246826D01*
X649262Y246206D01*
X648963Y245484D01*
X648958Y245443D01*
X648453D01*
X648448Y245484D01*
X648149Y246206D01*
X647673Y246826D01*
X647053Y247302D01*
X646331Y247601D01*
X645556Y247703D01*
X644781Y247601D01*
X644059Y247302D01*
X643439Y246826D01*
X642963Y246206D01*
X642725Y245632D01*
X642225Y245731D01*
Y247677D01*
X636288D01*
Y237803D01*
X635902Y237529D01*
X633180D01*
X632595Y237413D01*
X632099Y237081D01*
X631722Y236705D01*
X628571D01*
X628350Y237154D01*
X628540Y237401D01*
X628891Y238247D01*
X629010Y239156D01*
X628891Y240065D01*
X628540Y240911D01*
X627982Y241638D01*
X627255Y242196D01*
X626408Y242547D01*
X625500Y242666D01*
X624591Y242547D01*
X623745Y242196D01*
X623018Y241638D01*
X622460Y240911D01*
X622109Y240065D01*
X621990Y239156D01*
X622109Y238247D01*
X622460Y237401D01*
X622650Y237154D01*
X622429Y236705D01*
X585627D01*
X585406Y237154D01*
X585596Y237401D01*
X585947Y238247D01*
X586066Y239156D01*
X585947Y240065D01*
X585596Y240911D01*
X585038Y241638D01*
X584311Y242196D01*
X583464Y242547D01*
X582556Y242666D01*
X581647Y242547D01*
X580801Y242196D01*
X580074Y241638D01*
X579516Y240911D01*
X579165Y240065D01*
X579046Y239156D01*
X579165Y238247D01*
X579516Y237401D01*
X579706Y237154D01*
X579485Y236705D01*
X576224D01*
X576059Y236815D01*
X575474Y236932D01*
X563598D01*
X563117Y237413D01*
X563137Y237473D01*
X563333Y237904D01*
X563997Y238179D01*
X564617Y238654D01*
X565093Y239275D01*
X565189Y239507D01*
X565730D01*
X565742Y239479D01*
X566303Y238748D01*
X567034Y238187D01*
X567885Y237834D01*
X568799Y237714D01*
X569713Y237834D01*
X570564Y238187D01*
X571295Y238748D01*
X571856Y239479D01*
X572209Y240330D01*
X572329Y241244D01*
X572209Y242158D01*
X571856Y243009D01*
X571793Y243091D01*
Y244709D01*
X571691Y245484D01*
X571392Y246206D01*
X570916Y246826D01*
X570296Y247302D01*
X569574Y247601D01*
X568799Y247703D01*
X568024Y247601D01*
X567302Y247302D01*
X566682Y246826D01*
X566206Y246206D01*
X565907Y245484D01*
X565902Y245443D01*
X565398D01*
X565392Y245484D01*
X565093Y246206D01*
X564617Y246826D01*
X563997Y247302D01*
X563275Y247601D01*
X562500Y247703D01*
X561725Y247601D01*
X561003Y247302D01*
X560383Y246826D01*
X559907Y246206D01*
X559669Y245632D01*
X559169Y245731D01*
Y247677D01*
X553232D01*
Y237803D01*
X558400D01*
X561883Y234321D01*
X562379Y233989D01*
X562964Y233873D01*
X570754D01*
X570975Y233424D01*
X570785Y233177D01*
X570434Y232330D01*
X570315Y231422D01*
X570434Y230514D01*
X570785Y229667D01*
X571343Y228940D01*
X572070Y228382D01*
X572917Y228031D01*
X573825Y227912D01*
X574733Y228031D01*
X575580Y228382D01*
X576307Y228940D01*
X576865Y229667D01*
X577216Y230514D01*
X577335Y231422D01*
X577216Y232330D01*
X576865Y233177D01*
X576849Y233198D01*
X577070Y233646D01*
X630986D01*
X631207Y233198D01*
X631191Y233177D01*
X630840Y232330D01*
X630721Y231422D01*
X630840Y230514D01*
X631191Y229667D01*
X631749Y228940D01*
X632476Y228382D01*
X633322Y228031D01*
X634231Y227912D01*
X635140Y228031D01*
X635986Y228382D01*
X636713Y228940D01*
X637271Y229667D01*
X637622Y230514D01*
X637741Y231422D01*
X637622Y232330D01*
X637271Y233177D01*
X636713Y233904D01*
X636626Y233971D01*
X636796Y234471D01*
X640544D01*
X641129Y234587D01*
X641625Y234919D01*
X644643Y237937D01*
X644781Y237880D01*
X645556Y237777D01*
X646331Y237880D01*
X647053Y238179D01*
X647673Y238654D01*
X648149Y239275D01*
X648245Y239507D01*
X648786D01*
X648798Y239479D01*
X649359Y238748D01*
X650090Y238187D01*
X650942Y237834D01*
X651855Y237714D01*
X652769Y237834D01*
X653620Y238187D01*
X654351Y238748D01*
X654912Y239479D01*
X655265Y240330D01*
X655385Y241244D01*
X655265Y242158D01*
X654912Y243009D01*
X654849Y243091D01*
Y244709D01*
X654747Y245484D01*
X654448Y246206D01*
X653972Y246826D01*
X653352Y247302D01*
X652630Y247601D01*
X651855Y247703D01*
D02*
G37*
G36*
X665612Y242666D02*
X664704Y242547D01*
X663857Y242196D01*
X663130Y241638D01*
X662572Y240911D01*
X662221Y240065D01*
X662102Y239156D01*
X662221Y238247D01*
X662572Y237401D01*
X663130Y236674D01*
X663857Y236116D01*
X664704Y235765D01*
X665612Y235646D01*
X666521Y235765D01*
X667367Y236116D01*
X668094Y236674D01*
X668652Y237401D01*
X669003Y238247D01*
X669122Y239156D01*
X669003Y240065D01*
X668652Y240911D01*
X668094Y241638D01*
X667367Y242196D01*
X666521Y242547D01*
X665612Y242666D01*
D02*
G37*
G36*
X542444D02*
X541536Y242547D01*
X540689Y242196D01*
X539962Y241638D01*
X539404Y240911D01*
X539053Y240065D01*
X538934Y239156D01*
X539053Y238247D01*
X539404Y237401D01*
X539962Y236674D01*
X540689Y236116D01*
X541536Y235765D01*
X542444Y235646D01*
X543353Y235765D01*
X544199Y236116D01*
X544926Y236674D01*
X545484Y237401D01*
X545835Y238247D01*
X545954Y239156D01*
X545835Y240065D01*
X545484Y240911D01*
X544926Y241638D01*
X544199Y242196D01*
X543353Y242547D01*
X542444Y242666D01*
D02*
G37*
G36*
X469556D02*
X468647Y242547D01*
X467801Y242196D01*
X467074Y241638D01*
X466516Y240911D01*
X466165Y240065D01*
X466046Y239156D01*
X466165Y238247D01*
X466516Y237401D01*
X467074Y236674D01*
X467801Y236116D01*
X468647Y235765D01*
X469556Y235646D01*
X470465Y235765D01*
X471311Y236116D01*
X472038Y236674D01*
X472596Y237401D01*
X472947Y238247D01*
X473066Y239156D01*
X472947Y240065D01*
X472596Y240911D01*
X472038Y241638D01*
X471311Y242196D01*
X470465Y242547D01*
X469556Y242666D01*
D02*
G37*
G36*
X656881Y234932D02*
X655972Y234813D01*
X655126Y234462D01*
X654399Y233904D01*
X653841Y233177D01*
X653490Y232330D01*
X653371Y231422D01*
X653490Y230514D01*
X653841Y229667D01*
X654399Y228940D01*
X655126Y228382D01*
X655972Y228031D01*
X656881Y227912D01*
X657790Y228031D01*
X658636Y228382D01*
X659363Y228940D01*
X659921Y229667D01*
X660272Y230514D01*
X660391Y231422D01*
X660272Y232330D01*
X659921Y233177D01*
X659363Y233904D01*
X658636Y234462D01*
X657790Y234813D01*
X656881Y234932D01*
D02*
G37*
G36*
X551175D02*
X550267Y234813D01*
X549420Y234462D01*
X548693Y233904D01*
X548135Y233177D01*
X547784Y232330D01*
X547665Y231422D01*
X547784Y230514D01*
X548135Y229667D01*
X548693Y228940D01*
X549420Y228382D01*
X550267Y228031D01*
X551175Y227912D01*
X552083Y228031D01*
X552930Y228382D01*
X553657Y228940D01*
X554215Y229667D01*
X554566Y230514D01*
X554685Y231422D01*
X554566Y232330D01*
X554215Y233177D01*
X553657Y233904D01*
X552930Y234462D01*
X552083Y234813D01*
X551175Y234932D01*
D02*
G37*
G36*
X460825D02*
X459916Y234813D01*
X459070Y234462D01*
X458343Y233904D01*
X457785Y233177D01*
X457434Y232330D01*
X457315Y231422D01*
X457434Y230514D01*
X457785Y229667D01*
X458343Y228940D01*
X459070Y228382D01*
X459916Y228031D01*
X460825Y227912D01*
X461733Y228031D01*
X462580Y228382D01*
X463307Y228940D01*
X463865Y229667D01*
X464216Y230514D01*
X464335Y231422D01*
X464216Y232330D01*
X463865Y233177D01*
X463307Y233904D01*
X462580Y234462D01*
X461733Y234813D01*
X460825Y234932D01*
D02*
G37*
G36*
X242367D02*
X241459Y234813D01*
X240612Y234462D01*
X239885Y233904D01*
X239327Y233177D01*
X238976Y232330D01*
X238857Y231422D01*
X238976Y230514D01*
X239327Y229667D01*
X239885Y228940D01*
X240612Y228382D01*
X241459Y228031D01*
X242367Y227912D01*
X243275Y228031D01*
X244122Y228382D01*
X244849Y228940D01*
X245407Y229667D01*
X245758Y230514D01*
X245877Y231422D01*
X245758Y232330D01*
X245407Y233177D01*
X244849Y233904D01*
X244122Y234462D01*
X243275Y234813D01*
X242367Y234932D01*
D02*
G37*
G36*
X181825D02*
X180917Y234813D01*
X180070Y234462D01*
X179343Y233904D01*
X178785Y233177D01*
X178434Y232330D01*
X178315Y231422D01*
X178434Y230514D01*
X178785Y229667D01*
X179343Y228940D01*
X180070Y228382D01*
X180917Y228031D01*
X181825Y227912D01*
X182734Y228031D01*
X183580Y228382D01*
X184307Y228940D01*
X184865Y229667D01*
X185216Y230514D01*
X185335Y231422D01*
X185216Y232330D01*
X184865Y233177D01*
X184307Y233904D01*
X183580Y234462D01*
X182734Y234813D01*
X181825Y234932D01*
D02*
G37*
G36*
X159175D02*
X158266Y234813D01*
X157420Y234462D01*
X156693Y233904D01*
X156135Y233177D01*
X155784Y232330D01*
X155665Y231422D01*
X155784Y230514D01*
X156135Y229667D01*
X156693Y228940D01*
X157420Y228382D01*
X158266Y228031D01*
X159175Y227912D01*
X160083Y228031D01*
X160930Y228382D01*
X161657Y228940D01*
X162215Y229667D01*
X162566Y230514D01*
X162685Y231422D01*
X162566Y232330D01*
X162215Y233177D01*
X161657Y233904D01*
X160930Y234462D01*
X160083Y234813D01*
X159175Y234932D01*
D02*
G37*
G36*
X645556Y232140D02*
X644648Y232021D01*
X643801Y231670D01*
X643074Y231112D01*
X642516Y230385D01*
X642165Y229538D01*
X642046Y228630D01*
X642165Y227722D01*
X642516Y226875D01*
X643074Y226148D01*
X643801Y225590D01*
X644648Y225239D01*
X645556Y225120D01*
X646464Y225239D01*
X647311Y225590D01*
X648038Y226148D01*
X648596Y226875D01*
X648947Y227722D01*
X649066Y228630D01*
X648947Y229538D01*
X648596Y230385D01*
X648038Y231112D01*
X647311Y231670D01*
X646464Y232021D01*
X645556Y232140D01*
D02*
G37*
G36*
X562500D02*
X561591Y232021D01*
X560745Y231670D01*
X560018Y231112D01*
X559460Y230385D01*
X559109Y229538D01*
X558990Y228630D01*
X559109Y227722D01*
X559460Y226875D01*
X560018Y226148D01*
X560745Y225590D01*
X561591Y225239D01*
X562500Y225120D01*
X563409Y225239D01*
X564255Y225590D01*
X564982Y226148D01*
X565540Y226875D01*
X565891Y227722D01*
X566010Y228630D01*
X565891Y229538D01*
X565540Y230385D01*
X564982Y231112D01*
X564255Y231670D01*
X563409Y232021D01*
X562500Y232140D01*
D02*
G37*
G36*
X449500D02*
X448592Y232021D01*
X447745Y231670D01*
X447018Y231112D01*
X446460Y230385D01*
X446109Y229538D01*
X445990Y228630D01*
X446109Y227722D01*
X446460Y226875D01*
X447018Y226148D01*
X447745Y225590D01*
X448592Y225239D01*
X449500Y225120D01*
X450409Y225239D01*
X451255Y225590D01*
X451982Y226148D01*
X452540Y226875D01*
X452891Y227722D01*
X453010Y228630D01*
X452891Y229538D01*
X452540Y230385D01*
X451982Y231112D01*
X451255Y231670D01*
X450409Y232021D01*
X449500Y232140D01*
D02*
G37*
G36*
X366500D02*
X365592Y232021D01*
X364745Y231670D01*
X364018Y231112D01*
X363460Y230385D01*
X363109Y229538D01*
X362990Y228630D01*
X363109Y227722D01*
X363460Y226875D01*
X364018Y226148D01*
X364745Y225590D01*
X365592Y225239D01*
X366500Y225120D01*
X367408Y225239D01*
X368255Y225590D01*
X368982Y226148D01*
X369540Y226875D01*
X369891Y227722D01*
X370010Y228630D01*
X369891Y229538D01*
X369540Y230385D01*
X368982Y231112D01*
X368255Y231670D01*
X367408Y232021D01*
X366500Y232140D01*
D02*
G37*
G36*
X253692D02*
X252783Y232021D01*
X251937Y231670D01*
X251210Y231112D01*
X250652Y230385D01*
X250301Y229538D01*
X250182Y228630D01*
X250301Y227722D01*
X250652Y226875D01*
X251210Y226148D01*
X251937Y225590D01*
X252783Y225239D01*
X253692Y225120D01*
X254601Y225239D01*
X255447Y225590D01*
X256174Y226148D01*
X256732Y226875D01*
X257083Y227722D01*
X257202Y228630D01*
X257083Y229538D01*
X256732Y230385D01*
X256174Y231112D01*
X255447Y231670D01*
X254601Y232021D01*
X253692Y232140D01*
D02*
G37*
G36*
X170500D02*
X169591Y232021D01*
X168745Y231670D01*
X168018Y231112D01*
X167460Y230385D01*
X167109Y229538D01*
X166990Y228630D01*
X167109Y227722D01*
X167460Y226875D01*
X168018Y226148D01*
X168745Y225590D01*
X169591Y225239D01*
X170500Y225120D01*
X171408Y225239D01*
X172255Y225590D01*
X172982Y226148D01*
X173540Y226875D01*
X173891Y227722D01*
X174010Y228630D01*
X173891Y229538D01*
X173540Y230385D01*
X172982Y231112D01*
X172255Y231670D01*
X171408Y232021D01*
X170500Y232140D01*
D02*
G37*
G36*
X686500Y175917D02*
X684760Y175746D01*
X683088Y175238D01*
X681546Y174414D01*
X680195Y173305D01*
X679086Y171954D01*
X678262Y170412D01*
X677754Y168740D01*
X677583Y167000D01*
X677754Y165260D01*
X678262Y163588D01*
X679086Y162046D01*
X680195Y160695D01*
X681546Y159586D01*
X683088Y158762D01*
X684760Y158254D01*
X686500Y158083D01*
X688240Y158254D01*
X689912Y158762D01*
X691454Y159586D01*
X692805Y160695D01*
X693914Y162046D01*
X694738Y163588D01*
X695246Y165260D01*
X695417Y167000D01*
X695246Y168740D01*
X694738Y170412D01*
X693914Y171954D01*
X692805Y173305D01*
X691454Y174414D01*
X689912Y175238D01*
X688240Y175746D01*
X686500Y175917D01*
D02*
G37*
G36*
X551000D02*
X549260Y175746D01*
X547588Y175238D01*
X546046Y174414D01*
X544695Y173305D01*
X543586Y171954D01*
X542762Y170412D01*
X542254Y168740D01*
X542083Y167000D01*
X542254Y165260D01*
X542762Y163588D01*
X543586Y162046D01*
X544695Y160695D01*
X546046Y159586D01*
X547588Y158762D01*
X549260Y158254D01*
X551000Y158083D01*
X552740Y158254D01*
X554412Y158762D01*
X555954Y159586D01*
X557305Y160695D01*
X558414Y162046D01*
X559238Y163588D01*
X559746Y165260D01*
X559917Y167000D01*
X559746Y168740D01*
X559238Y170412D01*
X558414Y171954D01*
X557305Y173305D01*
X555954Y174414D01*
X554412Y175238D01*
X552740Y175746D01*
X551000Y175917D01*
D02*
G37*
G36*
X267000D02*
X265260Y175746D01*
X263588Y175238D01*
X262046Y174414D01*
X260695Y173305D01*
X259586Y171954D01*
X258762Y170412D01*
X258254Y168740D01*
X258083Y167000D01*
X258254Y165260D01*
X258762Y163588D01*
X259586Y162046D01*
X260695Y160695D01*
X262046Y159586D01*
X263588Y158762D01*
X265260Y158254D01*
X267000Y158083D01*
X268740Y158254D01*
X270412Y158762D01*
X271954Y159586D01*
X273305Y160695D01*
X274414Y162046D01*
X275238Y163588D01*
X275746Y165260D01*
X275917Y167000D01*
X275746Y168740D01*
X275238Y170412D01*
X274414Y171954D01*
X273305Y173305D01*
X271954Y174414D01*
X270412Y175238D01*
X268740Y175746D01*
X267000Y175917D01*
D02*
G37*
G36*
X129500D02*
X127760Y175746D01*
X126088Y175238D01*
X124546Y174414D01*
X123195Y173305D01*
X122086Y171954D01*
X121262Y170412D01*
X120754Y168740D01*
X120583Y167000D01*
X120754Y165260D01*
X121262Y163588D01*
X122086Y162046D01*
X123195Y160695D01*
X124546Y159586D01*
X126088Y158762D01*
X127760Y158254D01*
X129500Y158083D01*
X131240Y158254D01*
X132912Y158762D01*
X134454Y159586D01*
X135805Y160695D01*
X136914Y162046D01*
X137738Y163588D01*
X138246Y165260D01*
X138417Y167000D01*
X138246Y168740D01*
X137738Y170412D01*
X136914Y171954D01*
X135805Y173305D01*
X134454Y174414D01*
X132912Y175238D01*
X131240Y175746D01*
X129500Y175917D01*
D02*
G37*
%LPD*%
G36*
X372968Y327649D02*
X374000Y327513D01*
X374362Y327561D01*
X374596Y327087D01*
X365680Y318172D01*
X363488D01*
X363297Y318634D01*
X372504Y327841D01*
X372968Y327649D01*
D02*
G37*
G36*
X382968D02*
X384000Y327513D01*
X384362Y327561D01*
X384596Y327087D01*
X371680Y314172D01*
X369488D01*
X369297Y314634D01*
X382504Y327841D01*
X382968Y327649D01*
D02*
G37*
G36*
X392968D02*
X393685Y327555D01*
X393864Y327027D01*
X377009Y310172D01*
X375488D01*
X375296Y310634D01*
X392504Y327841D01*
X392968Y327649D01*
D02*
G37*
G36*
X402968D02*
X404000Y327513D01*
X404362Y327561D01*
X404596Y327087D01*
X383680Y306172D01*
X381488D01*
X381296Y306634D01*
X402504Y327841D01*
X402968Y327649D01*
D02*
G37*
G36*
X412968D02*
X414000Y327513D01*
X414362Y327561D01*
X414596Y327087D01*
X389680Y302172D01*
X387488D01*
X387297Y302634D01*
X412504Y327841D01*
X412968Y327649D01*
D02*
G37*
G36*
X422968D02*
X424000Y327513D01*
X424362Y327561D01*
X424596Y327087D01*
X395680Y298172D01*
X393488D01*
X393297Y298634D01*
X422504Y327841D01*
X422968Y327649D01*
D02*
G37*
G36*
X432968D02*
X434000Y327513D01*
X434362Y327561D01*
X434596Y327087D01*
X401680Y294172D01*
X399488D01*
X399296Y294634D01*
X432504Y327841D01*
X432968Y327649D01*
D02*
G37*
G36*
X442968D02*
X444000Y327513D01*
X444362Y327561D01*
X444596Y327087D01*
X407680Y290172D01*
X405488D01*
X405297Y290634D01*
X442504Y327841D01*
X442968Y327649D01*
D02*
G37*
G36*
X472968D02*
X473505Y327578D01*
X473685Y327050D01*
X435164Y288529D01*
X433532D01*
X433341Y288991D01*
X472282Y327933D01*
X472968Y327649D01*
D02*
G37*
G36*
X452968D02*
X454000Y327513D01*
X454362Y327561D01*
X454596Y327087D01*
X413680Y286172D01*
X411488D01*
X411297Y286634D01*
X452504Y327841D01*
X452968Y327649D01*
D02*
G37*
G36*
X482968D02*
X484000Y327513D01*
X484362Y327561D01*
X484596Y327087D01*
X442038Y284529D01*
X439846D01*
X439654Y284991D01*
X482504Y327841D01*
X482968Y327649D01*
D02*
G37*
G36*
X462968D02*
X464000Y327513D01*
X464044Y327519D01*
X464266Y327071D01*
X419367Y282172D01*
X417488D01*
X417297Y282634D01*
X462504Y327841D01*
X462968Y327649D01*
D02*
G37*
G36*
X418674Y278651D02*
X418215Y278191D01*
X375465D01*
X375372Y278417D01*
X375182Y278664D01*
X375403Y279113D01*
X418483D01*
X418674Y278651D01*
D02*
G37*
G36*
X330517Y279009D02*
X329700Y278191D01*
X262657D01*
X262564Y278417D01*
X262139Y278971D01*
X262365Y279471D01*
X330326D01*
X330517Y279009D01*
D02*
G37*
G36*
X217689D02*
X216872Y278191D01*
X179465D01*
X179372Y278417D01*
X178947Y278971D01*
X179173Y279471D01*
X217498D01*
X217689Y279009D01*
D02*
G37*
G36*
X417522Y274671D02*
X415622Y272770D01*
X385793D01*
X385700Y272996D01*
X385142Y273723D01*
X384415Y274281D01*
X383569Y274632D01*
X383561Y274633D01*
X383594Y275133D01*
X417331D01*
X417522Y274671D01*
D02*
G37*
G36*
X329007D02*
X327107Y272770D01*
X272986D01*
X272892Y272996D01*
X272334Y273723D01*
X271607Y274281D01*
X270760Y274632D01*
X270753Y274633D01*
X270786Y275133D01*
X328816D01*
X329007Y274671D01*
D02*
G37*
G36*
X216179D02*
X214279Y272770D01*
X189794D01*
X189700Y272996D01*
X189142Y273723D01*
X188415Y274281D01*
X187568Y274632D01*
X187561Y274633D01*
X187594Y275133D01*
X215988D01*
X216179Y274671D01*
D02*
G37*
D11*
X270219Y232021D02*
X350050D01*
X266740Y235500D02*
X270219Y232021D01*
X254059Y235500D02*
X266740D01*
X353529D02*
X360987D01*
X350050Y232021D02*
X353529Y235500D01*
X214913Y271241D02*
X240672Y297000D01*
X186660Y271241D02*
X214913D01*
X217505Y276662D02*
X239843Y299000D01*
X176332Y276662D02*
X217505D01*
X219015Y281000D02*
X239015Y301000D01*
X169006Y281000D02*
X219015D01*
X218186Y283000D02*
X238186Y303000D01*
X165377Y283000D02*
X218186D01*
X217358Y285000D02*
X237358Y305000D01*
X162470Y285000D02*
X217358D01*
X216529Y287000D02*
X236529Y307000D01*
X161642Y287000D02*
X216529D01*
X215701Y289000D02*
X235701Y309000D01*
X160813Y289000D02*
X215701D01*
X164668Y276662D02*
X169006Y281000D01*
X154340Y271963D02*
X165377Y283000D01*
X147714Y270244D02*
X162470Y285000D01*
X143500Y268858D02*
X161642Y287000D01*
X141500Y269687D02*
X160813Y289000D01*
X651457Y254043D02*
X651500Y254000D01*
X568843Y254043D02*
X651457D01*
X568799Y254000D02*
X568843Y254043D01*
X568756D02*
X568799Y254000D01*
X455842Y254043D02*
X568756D01*
X455799Y254000D02*
X455842Y254043D01*
X455756D02*
X455799Y254000D01*
X415686Y254043D02*
X455756D01*
X415142Y253500D02*
X415686Y254043D01*
X399500Y255500D02*
X400000Y256000D01*
X372000Y255500D02*
X399500D01*
X379000Y237500D02*
X380000D01*
X558500Y239866D02*
Y242740D01*
X640544Y236000D02*
X644205Y239662D01*
Y241389D01*
X645556Y242740D01*
X633180Y236000D02*
X640544D01*
X632356Y235176D02*
X633180Y236000D01*
X575700Y235176D02*
X632356D01*
X575474Y235402D02*
X575700Y235176D01*
X562964Y235402D02*
X575474D01*
X558500Y239866D02*
X562964Y235402D01*
X556201Y242740D02*
X558500D01*
X382500Y235000D02*
X436124D01*
X380000Y237500D02*
X382500Y235000D01*
X443890Y235402D02*
X449500Y241013D01*
Y242740D01*
X436526Y235402D02*
X443890D01*
X436124Y235000D02*
X436526Y235402D01*
X400735Y250063D02*
X433672Y283000D01*
X390692Y250063D02*
X400735D01*
X409485Y261642D02*
X432843Y285000D01*
X389286Y261642D02*
X409485D01*
X416256Y271241D02*
X432015Y287000D01*
X382660Y271241D02*
X416256D01*
X418848Y276662D02*
X473686Y331500D01*
X372332Y276662D02*
X418848D01*
X420000Y280642D02*
X468453Y329095D01*
X364648Y280642D02*
X420000D01*
X176799Y241445D02*
X177000Y241244D01*
X176799Y241445D02*
Y242740D01*
X360987Y235500D02*
X364818Y239330D01*
Y241058D01*
X366500Y242740D01*
X247393Y242166D02*
X254059Y235500D01*
X247393Y242166D02*
Y242740D01*
X312219Y250063D02*
X354799Y292642D01*
X277884Y250063D02*
X312219D01*
X320970Y261642D02*
X353970Y294642D01*
X276478Y261642D02*
X320970D01*
X327741Y271241D02*
X353142Y296642D01*
X269852Y271241D02*
X327741D01*
X330333Y276662D02*
X352313Y298642D01*
X259524Y276662D02*
X330333D01*
X331843Y281000D02*
X351485Y300642D01*
X252000Y281000D02*
X331843D01*
X331014Y283000D02*
X350657Y302642D01*
X248500Y283000D02*
X331014D01*
X330186Y285000D02*
X349828Y304642D01*
X245662Y285000D02*
X330186D01*
X329358Y287000D02*
X349000Y306642D01*
X244834Y287000D02*
X329358D01*
X328529Y289000D02*
X348171Y308642D01*
X244005Y289000D02*
X328529D01*
X327701Y291000D02*
X347343Y310642D01*
X243177Y291000D02*
X327701D01*
X326872Y293000D02*
X346514Y312642D01*
X242348Y293000D02*
X326872D01*
X326044Y295000D02*
X345686Y314642D01*
X241520Y295000D02*
X326044D01*
X325215Y297000D02*
X344858Y316642D01*
X240672Y297000D02*
X325215D01*
X324387Y299000D02*
X344029Y318642D01*
X239843Y299000D02*
X324387D01*
X323558Y301000D02*
X343201Y320642D01*
X239015Y301000D02*
X323558D01*
X322730Y303000D02*
X342372Y322642D01*
X238186Y303000D02*
X322730D01*
X321902Y305000D02*
X341544Y324642D01*
X237358Y305000D02*
X321902D01*
X321073Y307000D02*
X340716Y326642D01*
X236529Y307000D02*
X321073D01*
X320245Y309000D02*
X339547Y328302D01*
X235701Y309000D02*
X320245D01*
X247860Y276860D02*
X252000Y281000D01*
X237532Y272032D02*
X248500Y283000D01*
X230906Y270244D02*
X245662Y285000D01*
X226500Y268666D02*
X244834Y287000D01*
X224500Y269495D02*
X244005Y289000D01*
X222500Y270323D02*
X243177Y291000D01*
X220500Y271152D02*
X242348Y293000D01*
X221020Y274500D02*
X241520Y295000D01*
X205735Y250063D02*
X220500Y264828D01*
X194692Y250063D02*
X205735D01*
X220500Y264828D02*
Y271152D01*
X222500Y264000D02*
Y270323D01*
X224500Y249000D02*
Y269495D01*
X226500Y253063D02*
Y268666D01*
X197656Y239156D02*
X222500Y264000D01*
X141500Y248100D02*
Y269687D01*
Y248100D02*
X150444Y239156D01*
X353142Y296642D02*
X396314D01*
X353970Y294642D02*
X397142D01*
X354799Y292642D02*
X402314D01*
X355627Y290642D02*
X403142D01*
X304141Y239156D02*
X355627Y290642D01*
X356455Y288642D02*
X408314D01*
X337734Y269920D02*
X356455Y288642D01*
X337734Y247866D02*
Y269920D01*
X357284Y286642D02*
X409142D01*
X339734Y269092D02*
X357284Y286642D01*
X339734Y257662D02*
Y269092D01*
X358112Y284642D02*
X414314D01*
X343714Y270244D02*
X358112Y284642D01*
X343714Y261642D02*
Y270244D01*
X339547Y333344D02*
X342156Y335953D01*
X339547Y328302D02*
Y333344D01*
X340716Y326642D02*
X349142D01*
X341544Y324642D02*
X354314D01*
X342372Y322642D02*
X355142D01*
X343201Y320642D02*
X360314D01*
X344029Y318642D02*
X361142D01*
X344858Y316642D02*
X366314D01*
X345686Y314642D02*
X367142D01*
X346514Y312642D02*
X372314D01*
X347343Y310642D02*
X373142D01*
X348171Y308642D02*
X377642D01*
X349000Y306642D02*
X379142D01*
X349828Y304642D02*
X384314D01*
X350657Y302642D02*
X385142D01*
X351485Y300642D02*
X390314D01*
X352313Y298642D02*
X391142D01*
X361019Y282642D02*
X415142D01*
X350340Y271963D02*
X361019Y282642D01*
X360668Y276662D02*
X364648Y280642D01*
X342156Y335953D02*
X348453D01*
X147714Y261642D02*
Y270244D01*
X348453Y335953D02*
X354000Y341500D01*
X403142Y290642D02*
X444000Y331500D01*
X408314Y288642D02*
X448453Y328781D01*
X409142Y286642D02*
X454000Y331500D01*
X414314Y284642D02*
X459547Y329876D01*
X415142Y282642D02*
X464000Y331500D01*
X143500Y252871D02*
X146308Y250063D01*
X143500Y252871D02*
Y268858D01*
X349142Y326642D02*
X354000Y331500D01*
X354314Y324642D02*
X359547Y329876D01*
Y333344D01*
X364000Y337797D01*
Y341500D01*
X154340Y271241D02*
Y271963D01*
X355142Y322642D02*
X364000Y331500D01*
X221000Y274500D02*
X221020D01*
X208142Y261642D02*
X221000Y274500D01*
X230906Y261642D02*
Y270244D01*
X360314Y320642D02*
X369547Y329876D01*
Y333344D01*
X374000Y337797D01*
Y341500D01*
X361142Y318642D02*
X374000Y331500D01*
X366314Y316642D02*
X379547Y329876D01*
Y333344D01*
X384000Y337797D01*
Y341500D01*
X193286Y261642D02*
X208142D01*
X367142Y314642D02*
X384000Y331500D01*
X372314Y312642D02*
X389547Y329876D01*
Y333344D01*
X394000Y337797D01*
Y341500D01*
X190556Y239156D02*
X197656D01*
X373142Y310642D02*
X394000Y331500D01*
X233636Y239156D02*
Y239864D01*
X224500Y249000D02*
X233636Y239864D01*
X377642Y308642D02*
X399547Y330547D01*
Y333344D01*
X404000Y337797D01*
Y341500D01*
X226500Y253063D02*
X229500Y250063D01*
X379142Y306642D02*
X404000Y331500D01*
X384314Y304642D02*
X408453Y328781D01*
Y335953D01*
X414000Y341500D01*
X237532Y271241D02*
Y272032D01*
X385142Y302642D02*
X414000Y331500D01*
X247860Y276662D02*
Y276860D01*
X390314Y300642D02*
X418453Y328781D01*
Y335953D01*
X424000Y341500D01*
X391142Y298642D02*
X424000Y331500D01*
X396314Y296642D02*
X428453Y328781D01*
Y335953D01*
X434000Y341500D01*
X397142Y294642D02*
X434000Y331500D01*
X402314Y292642D02*
X439547Y329876D01*
Y333344D01*
X444000Y337797D01*
Y341500D01*
X273748Y239156D02*
X304141D01*
X337734Y247866D02*
X346444Y239156D01*
X448453Y328781D02*
Y335953D01*
X454000Y341500D01*
X468453Y329095D02*
Y335953D01*
X478453D02*
X484000Y341500D01*
X478453Y329656D02*
Y335953D01*
X435797Y287000D02*
X478453Y329656D01*
X432015Y287000D02*
X435797D01*
X339734Y257662D02*
X342308Y255087D01*
Y250063D02*
Y255087D01*
X442672Y283000D02*
X488453Y328781D01*
X433672Y283000D02*
X442672D01*
X459547Y329876D02*
Y333344D01*
X464000Y337797D01*
Y341500D01*
X350340Y271241D02*
Y271963D01*
X468453Y335953D02*
X474000Y341500D01*
X473686Y331500D02*
X474000D01*
X432843Y285000D02*
X437500D01*
X484000Y331500D01*
X488453Y328781D02*
Y335953D01*
X494000Y341500D01*
X386556Y239156D02*
X392656D01*
X434500Y281000D01*
X443500D01*
X494000Y331500D01*
D21*
X176799Y264000D02*
D03*
X170500D02*
D03*
X164201D02*
D03*
X176799Y242740D02*
D03*
X170500D02*
D03*
X259991Y264000D02*
D03*
X253692D02*
D03*
X247393D02*
D03*
X259991Y242740D02*
D03*
X253692D02*
D03*
X372799Y264000D02*
D03*
X366500D02*
D03*
X360201D02*
D03*
X372799Y242740D02*
D03*
X366500D02*
D03*
X455799Y264000D02*
D03*
X449500D02*
D03*
X443201D02*
D03*
X455799Y242740D02*
D03*
X449500D02*
D03*
X568799Y264000D02*
D03*
X562500D02*
D03*
X556201D02*
D03*
X568799Y242740D02*
D03*
X562500D02*
D03*
X651855Y264000D02*
D03*
X645556D02*
D03*
X639257D02*
D03*
X651855Y242740D02*
D03*
X645556D02*
D03*
D22*
X164201D02*
D03*
X247393D02*
D03*
X360201D02*
D03*
X443201D02*
D03*
X556201D02*
D03*
X639257D02*
D03*
D23*
X181825Y231422D02*
D03*
X159175D02*
D03*
X170500Y228630D02*
D03*
X194692Y250063D02*
D03*
X193286Y261642D02*
D03*
X186660Y271241D02*
D03*
X176332Y276662D02*
D03*
X164668D02*
D03*
X154340Y271241D02*
D03*
X147714Y261642D02*
D03*
X146308Y250063D02*
D03*
X150444Y239156D02*
D03*
X190556D02*
D03*
X273748D02*
D03*
X233636D02*
D03*
X229500Y250063D02*
D03*
X230906Y261642D02*
D03*
X237532Y271241D02*
D03*
X247860Y276662D02*
D03*
X259524D02*
D03*
X269852Y271241D02*
D03*
X276478Y261642D02*
D03*
X277884Y250063D02*
D03*
X253692Y228630D02*
D03*
X242367Y231422D02*
D03*
X265017D02*
D03*
X377825D02*
D03*
X355175D02*
D03*
X366500Y228630D02*
D03*
X390692Y250063D02*
D03*
X389286Y261642D02*
D03*
X382660Y271241D02*
D03*
X372332Y276662D02*
D03*
X360668D02*
D03*
X350340Y271241D02*
D03*
X343714Y261642D02*
D03*
X342308Y250063D02*
D03*
X346444Y239156D02*
D03*
X386556D02*
D03*
X469556D02*
D03*
X429444D02*
D03*
X425308Y250063D02*
D03*
X426714Y261642D02*
D03*
X433340Y271241D02*
D03*
X443668Y276662D02*
D03*
X455332D02*
D03*
X465660Y271241D02*
D03*
X472286Y261642D02*
D03*
X473692Y250063D02*
D03*
X449500Y228630D02*
D03*
X438175Y231422D02*
D03*
X460825D02*
D03*
X573825D02*
D03*
X551175D02*
D03*
X562500Y228630D02*
D03*
X586692Y250063D02*
D03*
X585286Y261642D02*
D03*
X578660Y271241D02*
D03*
X568332Y276662D02*
D03*
X556668D02*
D03*
X546340Y271241D02*
D03*
X539714Y261642D02*
D03*
X538308Y250063D02*
D03*
X542444Y239156D02*
D03*
X582556D02*
D03*
X665612D02*
D03*
X625500D02*
D03*
X621364Y250063D02*
D03*
X622770Y261642D02*
D03*
X629396Y271241D02*
D03*
X639724Y276662D02*
D03*
X651388D02*
D03*
X661716Y271241D02*
D03*
X668342Y261642D02*
D03*
X669748Y250063D02*
D03*
X645556Y228630D02*
D03*
X634231Y231422D02*
D03*
X656881D02*
D03*
D24*
X324000Y331500D02*
D03*
Y341500D02*
D03*
X334000Y331500D02*
D03*
Y341500D02*
D03*
X344000Y331500D02*
D03*
Y341500D02*
D03*
X354000Y331500D02*
D03*
Y341500D02*
D03*
X364000Y331500D02*
D03*
Y341500D02*
D03*
X374000Y331500D02*
D03*
Y341500D02*
D03*
X384000Y331500D02*
D03*
Y341500D02*
D03*
X394000Y331500D02*
D03*
Y341500D02*
D03*
X404000Y331500D02*
D03*
Y341500D02*
D03*
X414000Y331500D02*
D03*
Y341500D02*
D03*
X424000Y331500D02*
D03*
Y341500D02*
D03*
X434000Y331500D02*
D03*
Y341500D02*
D03*
X444000Y331500D02*
D03*
Y341500D02*
D03*
X454000Y331500D02*
D03*
Y341500D02*
D03*
X464000Y331500D02*
D03*
Y341500D02*
D03*
X474000Y331500D02*
D03*
Y341500D02*
D03*
X484000Y331500D02*
D03*
Y341500D02*
D03*
X494000Y331500D02*
D03*
D25*
Y341500D02*
D03*
D26*
X129500Y167000D02*
D03*
X686500D02*
D03*
Y338500D02*
D03*
X129500D02*
D03*
X267000Y167000D02*
D03*
X551000D02*
D03*
Y338500D02*
D03*
X267000D02*
D03*
D27*
X170500Y264000D02*
D03*
X253692D02*
D03*
X366500D02*
D03*
X645556D02*
D03*
X562500D02*
D03*
X449500D02*
D03*
X651500Y254000D02*
D03*
X568799D02*
D03*
X455799D02*
D03*
X415142Y253500D02*
D03*
X400000Y256000D02*
D03*
X372000Y255500D02*
D03*
X379000Y237500D02*
D03*
X373000Y241500D02*
D03*
X562500Y242500D02*
D03*
X443201Y242740D02*
D03*
X360201D02*
D03*
X651855Y241244D02*
D03*
X568799Y241244D02*
D03*
X455799Y241244D02*
D03*
X259991D02*
D03*
X177000D02*
D03*
X253692Y242740D02*
D03*
X164201D02*
D03*
X170500Y243000D02*
D03*
M02*
