G04*
G04 #@! TF.GenerationSoftware,Altium Limited,Altium Designer,18.1.11 (251)*
G04*
G04 Layer_Physical_Order=2*
G04 Layer_Color=16711680*
%FSLAX25Y25*%
%MOIN*%
G70*
G01*
G75*
%ADD11C,0.01000*%
%ADD23C,0.04961*%
%ADD24C,0.05906*%
%ADD25R,0.05906X0.05906*%
%ADD26C,0.15748*%
%ADD27C,0.05000*%
%ADD28R,0.05906X0.05512*%
%ADD29R,0.03543X0.03150*%
G36*
X697971Y155529D02*
X118029D01*
Y349971D01*
X697971D01*
X697971Y155529D01*
D02*
G37*
%LPC*%
G36*
X334000Y345487D02*
X332968Y345351D01*
X332007Y344953D01*
X331181Y344319D01*
X330547Y343493D01*
X330149Y342532D01*
X330013Y341500D01*
X330149Y340468D01*
X330496Y339630D01*
X330471Y339500D01*
Y338577D01*
X327369D01*
X327123Y339077D01*
X327453Y339507D01*
X327851Y340468D01*
X327987Y341500D01*
X327851Y342532D01*
X327453Y343493D01*
X326819Y344319D01*
X325993Y344953D01*
X325032Y345351D01*
X324000Y345487D01*
X322968Y345351D01*
X322007Y344953D01*
X321181Y344319D01*
X320547Y343493D01*
X320149Y342532D01*
X320013Y341500D01*
X320149Y340468D01*
X320277Y340160D01*
X306646Y326529D01*
X249000D01*
X248415Y326413D01*
X247919Y326081D01*
X169419Y247581D01*
X169087Y247085D01*
X168971Y246500D01*
Y246155D01*
X168735Y246057D01*
X168004Y245496D01*
X167566Y244925D01*
X167073Y244866D01*
X166957Y244898D01*
X166697Y245236D01*
X165966Y245797D01*
X165114Y246150D01*
X164201Y246270D01*
X163287Y246150D01*
X162436Y245797D01*
X161705Y245236D01*
X161144Y244505D01*
X160791Y243654D01*
X160671Y242740D01*
X160791Y241827D01*
X161144Y240975D01*
X161705Y240244D01*
X162436Y239683D01*
X163287Y239330D01*
X164201Y239210D01*
X165114Y239330D01*
X165966Y239683D01*
X165984Y239697D01*
X171360Y234321D01*
X171856Y233989D01*
X172441Y233873D01*
X178754D01*
X178975Y233424D01*
X178785Y233177D01*
X178434Y232330D01*
X178315Y231422D01*
X178434Y230514D01*
X178785Y229667D01*
X179343Y228940D01*
X180070Y228382D01*
X180917Y228031D01*
X181825Y227912D01*
X182734Y228031D01*
X183580Y228382D01*
X184307Y228940D01*
X184865Y229667D01*
X185216Y230514D01*
X185335Y231422D01*
X185216Y232330D01*
X184950Y232971D01*
X185225Y233471D01*
X238967D01*
X239242Y232971D01*
X238976Y232330D01*
X238857Y231422D01*
X238976Y230514D01*
X239327Y229667D01*
X239885Y228940D01*
X240612Y228382D01*
X241459Y228031D01*
X242367Y227912D01*
X243275Y228031D01*
X244122Y228382D01*
X244849Y228940D01*
X245407Y229667D01*
X245758Y230514D01*
X245877Y231422D01*
X245758Y232330D01*
X245407Y233177D01*
X245217Y233424D01*
X245438Y233873D01*
X246354D01*
X246939Y233989D01*
X247435Y234321D01*
X252543Y239428D01*
X252778Y239330D01*
X253692Y239210D01*
X254606Y239330D01*
X255457Y239683D01*
X256119Y240191D01*
X256432Y240161D01*
X256688Y240073D01*
X256934Y239479D01*
X257220Y239107D01*
Y238669D01*
X257597D01*
X258226Y238187D01*
X259078Y237834D01*
X259991Y237714D01*
X260905Y237834D01*
X261756Y238187D01*
X262385Y238669D01*
X262763D01*
Y239107D01*
X263048Y239479D01*
X263401Y240330D01*
X263521Y241244D01*
X263401Y242158D01*
X263048Y243009D01*
X262799Y243334D01*
X262763Y243819D01*
Y244181D01*
X262763D01*
Y249331D01*
X259579D01*
X255401Y253509D01*
X255593Y253971D01*
X277071D01*
X277104Y253471D01*
X276975Y253454D01*
X276129Y253103D01*
X275402Y252545D01*
X274844Y251818D01*
X274493Y250972D01*
X274374Y250063D01*
X274493Y249154D01*
X274844Y248308D01*
X275402Y247581D01*
X276129Y247023D01*
X276975Y246672D01*
X277884Y246553D01*
X278793Y246672D01*
X279639Y247023D01*
X280366Y247581D01*
X280924Y248308D01*
X281275Y249154D01*
X281394Y250063D01*
X281275Y250972D01*
X280924Y251818D01*
X280366Y252545D01*
X279639Y253103D01*
X278793Y253454D01*
X278664Y253471D01*
X278697Y253971D01*
X341495D01*
X341528Y253471D01*
X341400Y253454D01*
X340553Y253103D01*
X339826Y252545D01*
X339268Y251818D01*
X338917Y250972D01*
X338798Y250063D01*
X338917Y249154D01*
X339268Y248308D01*
X339826Y247581D01*
X340553Y247023D01*
X341400Y246672D01*
X342308Y246553D01*
X343216Y246672D01*
X344063Y247023D01*
X344790Y247581D01*
X345348Y248308D01*
X345699Y249154D01*
X345818Y250063D01*
X345699Y250972D01*
X345348Y251818D01*
X344790Y252545D01*
X344063Y253103D01*
X343216Y253454D01*
X343088Y253471D01*
X343121Y253971D01*
X363422D01*
X370028Y247365D01*
Y244181D01*
X370027D01*
X370027Y243819D01*
X369994Y243333D01*
X369943Y243265D01*
X369590Y242414D01*
X369470Y241500D01*
X369590Y240586D01*
X369943Y239735D01*
X370028Y239624D01*
Y239029D01*
X366074D01*
X363513Y241591D01*
X363611Y241827D01*
X363731Y242740D01*
X363611Y243654D01*
X363258Y244505D01*
X362697Y245236D01*
X361966Y245797D01*
X361115Y246150D01*
X360201Y246270D01*
X359287Y246150D01*
X358436Y245797D01*
X357705Y245236D01*
X357144Y244505D01*
X356791Y243654D01*
X356671Y242740D01*
X356791Y241827D01*
X357144Y240975D01*
X357705Y240244D01*
X358436Y239683D01*
X359287Y239330D01*
X360201Y239210D01*
X361115Y239330D01*
X361350Y239428D01*
X364359Y236419D01*
X364856Y236087D01*
X365441Y235971D01*
X375845D01*
X375943Y235735D01*
X376399Y235140D01*
X376331Y234570D01*
X376070Y234462D01*
X375343Y233904D01*
X374785Y233177D01*
X374434Y232330D01*
X374315Y231422D01*
X374434Y230514D01*
X374785Y229667D01*
X375343Y228940D01*
X376070Y228382D01*
X376917Y228031D01*
X377825Y227912D01*
X378733Y228031D01*
X379580Y228382D01*
X380307Y228940D01*
X380865Y229667D01*
X381216Y230514D01*
X381335Y231422D01*
X381216Y232330D01*
X380865Y233177D01*
X380419Y233758D01*
X380493Y234330D01*
X380765Y234443D01*
X381496Y235004D01*
X382057Y235735D01*
X382410Y236586D01*
X382530Y237500D01*
X382410Y238414D01*
X382057Y239265D01*
X381496Y239996D01*
X380765Y240557D01*
X379914Y240910D01*
X379000Y241030D01*
X378086Y240910D01*
X377235Y240557D01*
X376801Y240225D01*
X376391Y240540D01*
X376410Y240586D01*
X376530Y241500D01*
X376410Y242414D01*
X376057Y243265D01*
X375698Y243734D01*
X375571Y244181D01*
X375571Y244181D01*
X375571D01*
X375571Y244181D01*
Y249331D01*
X372387D01*
X368224Y253495D01*
X368403Y253928D01*
X368863D01*
X368943Y253735D01*
X369504Y253004D01*
X370235Y252443D01*
X371086Y252090D01*
X372000Y251970D01*
X372914Y252090D01*
X373765Y252443D01*
X374496Y253004D01*
X375057Y253735D01*
X375410Y254586D01*
X375530Y255500D01*
X375410Y256414D01*
X375057Y257265D01*
X374496Y257996D01*
X373765Y258557D01*
X372914Y258910D01*
X372000Y259030D01*
X371086Y258910D01*
X370235Y258557D01*
X369504Y257996D01*
X368943Y257265D01*
X368845Y257029D01*
X198846D01*
X198654Y257491D01*
X262634Y321471D01*
X308108D01*
X308694Y321587D01*
X309190Y321919D01*
X319621Y332349D01*
X320094Y332116D01*
X320013Y331500D01*
X320149Y330468D01*
X320547Y329507D01*
X321181Y328681D01*
X322007Y328047D01*
X322968Y327649D01*
X324000Y327513D01*
X325032Y327649D01*
X325993Y328047D01*
X326819Y328681D01*
X327453Y329507D01*
X327851Y330468D01*
X327987Y331500D01*
X327851Y332532D01*
X327453Y333493D01*
X326819Y334319D01*
X325993Y334953D01*
X325836Y335018D01*
X325936Y335518D01*
X332000D01*
X332124Y335542D01*
X332270Y335062D01*
X332007Y334953D01*
X331181Y334319D01*
X330547Y333493D01*
X330149Y332532D01*
X330079Y332000D01*
X333500D01*
Y335421D01*
X333084Y335366D01*
X332903Y335847D01*
X333081Y335966D01*
X333413Y336462D01*
X333529Y337047D01*
Y337196D01*
X333905Y337526D01*
X334000Y337513D01*
X335032Y337649D01*
X335993Y338047D01*
X336819Y338681D01*
X337453Y339507D01*
X337851Y340468D01*
X337987Y341500D01*
X337851Y342532D01*
X337453Y343493D01*
X336819Y344319D01*
X335993Y344953D01*
X335032Y345351D01*
X334000Y345487D01*
D02*
G37*
G36*
X551000Y347417D02*
X549260Y347246D01*
X547588Y346738D01*
X546046Y345914D01*
X544695Y344805D01*
X543586Y343454D01*
X542762Y341912D01*
X542254Y340240D01*
X542083Y338500D01*
X542254Y336760D01*
X542762Y335088D01*
X543586Y333546D01*
X544695Y332195D01*
X546046Y331086D01*
X546180Y331014D01*
X546058Y330529D01*
X498238D01*
X497909Y330905D01*
X497987Y331500D01*
X497851Y332532D01*
X497453Y333493D01*
X496819Y334319D01*
X495993Y334953D01*
X495032Y335351D01*
X494495Y335422D01*
X494315Y335950D01*
X495081Y336716D01*
X495413Y337212D01*
X495480Y337547D01*
X497953D01*
Y345453D01*
X490047D01*
Y337547D01*
X490934D01*
X491125Y337085D01*
X488466Y334426D01*
X488134Y333930D01*
X488118Y333848D01*
X487546Y333474D01*
X487453Y333493D01*
X486819Y334319D01*
X485993Y334953D01*
X485032Y335351D01*
X484693Y335396D01*
X484532Y335869D01*
X485081Y336419D01*
X485413Y336915D01*
X485529Y337500D01*
Y337855D01*
X485993Y338047D01*
X486819Y338681D01*
X487453Y339507D01*
X487851Y340468D01*
X487987Y341500D01*
X487851Y342532D01*
X487453Y343493D01*
X486819Y344319D01*
X485993Y344953D01*
X485032Y345351D01*
X484000Y345487D01*
X482968Y345351D01*
X482007Y344953D01*
X481181Y344319D01*
X480547Y343493D01*
X480149Y342532D01*
X480013Y341500D01*
X480149Y340468D01*
X480547Y339507D01*
X481181Y338681D01*
X481820Y338190D01*
X481927Y337590D01*
X481736Y337399D01*
X481570Y337366D01*
X481074Y337034D01*
X478466Y334426D01*
X478134Y333930D01*
X478118Y333848D01*
X477546Y333474D01*
X477453Y333493D01*
X476819Y334319D01*
X475993Y334953D01*
X475032Y335351D01*
X474568Y335412D01*
X474389Y335940D01*
X475081Y336633D01*
X475413Y337129D01*
X475529Y337714D01*
Y337855D01*
X475993Y338047D01*
X476819Y338681D01*
X477453Y339507D01*
X477851Y340468D01*
X477987Y341500D01*
X477851Y342532D01*
X477453Y343493D01*
X476819Y344319D01*
X475993Y344953D01*
X475032Y345351D01*
X474000Y345487D01*
X472968Y345351D01*
X472007Y344953D01*
X471181Y344319D01*
X470547Y343493D01*
X470149Y342532D01*
X470013Y341500D01*
X470149Y340468D01*
X470547Y339507D01*
X471181Y338681D01*
X471699Y338283D01*
X471759Y337635D01*
X471325Y337202D01*
X471074Y337034D01*
X468466Y334426D01*
X468134Y333930D01*
X468118Y333848D01*
X467546Y333474D01*
X467453Y333493D01*
X466819Y334319D01*
X465993Y334953D01*
X465032Y335351D01*
X464495Y335422D01*
X464315Y335950D01*
X465081Y336716D01*
X465413Y337212D01*
X465529Y337797D01*
Y337855D01*
X465993Y338047D01*
X466819Y338681D01*
X467453Y339507D01*
X467851Y340468D01*
X467987Y341500D01*
X467851Y342532D01*
X467453Y343493D01*
X466819Y344319D01*
X465993Y344953D01*
X465032Y345351D01*
X464000Y345487D01*
X462968Y345351D01*
X462007Y344953D01*
X461181Y344319D01*
X460547Y343493D01*
X460149Y342532D01*
X460013Y341500D01*
X460149Y340468D01*
X460547Y339507D01*
X461181Y338681D01*
X461652Y338319D01*
X461696Y337656D01*
X458466Y334426D01*
X458134Y333930D01*
X458118Y333848D01*
X457546Y333474D01*
X457453Y333493D01*
X456819Y334319D01*
X455993Y334953D01*
X455032Y335351D01*
X454000Y335487D01*
X453846Y335467D01*
X453625Y335915D01*
X455081Y337371D01*
X455357Y337784D01*
X455993Y338047D01*
X456819Y338681D01*
X457453Y339507D01*
X457851Y340468D01*
X457987Y341500D01*
X457851Y342532D01*
X457453Y343493D01*
X456819Y344319D01*
X455993Y344953D01*
X455032Y345351D01*
X454000Y345487D01*
X452968Y345351D01*
X452007Y344953D01*
X451181Y344319D01*
X450547Y343493D01*
X450149Y342532D01*
X450013Y341500D01*
X450149Y340468D01*
X450547Y339507D01*
X451181Y338681D01*
X451380Y338528D01*
X451413Y338029D01*
X448466Y335081D01*
X448134Y334585D01*
X448018Y334000D01*
Y333436D01*
X447518Y333336D01*
X447453Y333493D01*
X446819Y334319D01*
X445993Y334953D01*
X445032Y335351D01*
X444495Y335422D01*
X444315Y335950D01*
X445081Y336716D01*
X445413Y337212D01*
X445529Y337797D01*
Y337855D01*
X445993Y338047D01*
X446819Y338681D01*
X447453Y339507D01*
X447851Y340468D01*
X447987Y341500D01*
X447851Y342532D01*
X447453Y343493D01*
X446819Y344319D01*
X445993Y344953D01*
X445032Y345351D01*
X444000Y345487D01*
X442968Y345351D01*
X442007Y344953D01*
X441181Y344319D01*
X440547Y343493D01*
X440149Y342532D01*
X440013Y341500D01*
X440149Y340468D01*
X440547Y339507D01*
X441181Y338681D01*
X441652Y338319D01*
X441696Y337656D01*
X438466Y334426D01*
X438134Y333930D01*
X438118Y333848D01*
X437546Y333474D01*
X437453Y333493D01*
X436819Y334319D01*
X435993Y334953D01*
X435032Y335351D01*
X434495Y335422D01*
X434315Y335950D01*
X435081Y336716D01*
X435413Y337212D01*
X435529Y337797D01*
Y337855D01*
X435993Y338047D01*
X436819Y338681D01*
X437453Y339507D01*
X437851Y340468D01*
X437987Y341500D01*
X437851Y342532D01*
X437453Y343493D01*
X436819Y344319D01*
X435993Y344953D01*
X435032Y345351D01*
X434000Y345487D01*
X432968Y345351D01*
X432007Y344953D01*
X431181Y344319D01*
X430547Y343493D01*
X430149Y342532D01*
X430013Y341500D01*
X430149Y340468D01*
X430547Y339507D01*
X431181Y338681D01*
X431652Y338319D01*
X431696Y337656D01*
X428466Y334426D01*
X428134Y333930D01*
X428118Y333848D01*
X427546Y333474D01*
X427453Y333493D01*
X426819Y334319D01*
X425993Y334953D01*
X425032Y335351D01*
X424357Y335440D01*
X424178Y335968D01*
X425081Y336871D01*
X425413Y337368D01*
X425508Y337846D01*
X425993Y338047D01*
X426819Y338681D01*
X427453Y339507D01*
X427851Y340468D01*
X427987Y341500D01*
X427851Y342532D01*
X427453Y343493D01*
X426819Y344319D01*
X425993Y344953D01*
X425032Y345351D01*
X424000Y345487D01*
X422968Y345351D01*
X422007Y344953D01*
X421181Y344319D01*
X420547Y343493D01*
X420149Y342532D01*
X420013Y341500D01*
X420149Y340468D01*
X420547Y339507D01*
X421181Y338681D01*
X421663Y338311D01*
X421696Y337812D01*
X418466Y334581D01*
X418134Y334085D01*
X418018Y333500D01*
Y333436D01*
X417518Y333336D01*
X417453Y333493D01*
X416819Y334319D01*
X415993Y334953D01*
X415032Y335351D01*
X414495Y335422D01*
X414315Y335950D01*
X415081Y336716D01*
X415413Y337212D01*
X415529Y337797D01*
Y337855D01*
X415993Y338047D01*
X416819Y338681D01*
X417453Y339507D01*
X417851Y340468D01*
X417987Y341500D01*
X417851Y342532D01*
X417453Y343493D01*
X416819Y344319D01*
X415993Y344953D01*
X415032Y345351D01*
X414000Y345487D01*
X412968Y345351D01*
X412007Y344953D01*
X411181Y344319D01*
X410547Y343493D01*
X410149Y342532D01*
X410013Y341500D01*
X410149Y340468D01*
X410547Y339507D01*
X411181Y338681D01*
X411652Y338319D01*
X411696Y337656D01*
X408466Y334426D01*
X408134Y333930D01*
X408118Y333848D01*
X407546Y333474D01*
X407453Y333493D01*
X406819Y334319D01*
X405993Y334953D01*
X405032Y335351D01*
X404495Y335422D01*
X404315Y335950D01*
X405081Y336716D01*
X405413Y337212D01*
X405529Y337797D01*
Y337855D01*
X405993Y338047D01*
X406819Y338681D01*
X407453Y339507D01*
X407851Y340468D01*
X407987Y341500D01*
X407851Y342532D01*
X407453Y343493D01*
X406819Y344319D01*
X405993Y344953D01*
X405032Y345351D01*
X404000Y345487D01*
X402968Y345351D01*
X402007Y344953D01*
X401181Y344319D01*
X400547Y343493D01*
X400149Y342532D01*
X400013Y341500D01*
X400149Y340468D01*
X400547Y339507D01*
X401181Y338681D01*
X401652Y338319D01*
X401696Y337656D01*
X398466Y334426D01*
X398134Y333930D01*
X398118Y333848D01*
X397546Y333474D01*
X397453Y333493D01*
X396819Y334319D01*
X395993Y334953D01*
X395032Y335351D01*
X394000Y335487D01*
X392968Y335351D01*
X392007Y334953D01*
X391529Y334587D01*
X391029Y334833D01*
Y336367D01*
X392504Y337841D01*
X392968Y337649D01*
X394000Y337513D01*
X395032Y337649D01*
X395993Y338047D01*
X396819Y338681D01*
X397453Y339507D01*
X397851Y340468D01*
X397987Y341500D01*
X397851Y342532D01*
X397453Y343493D01*
X396819Y344319D01*
X395993Y344953D01*
X395032Y345351D01*
X394000Y345487D01*
X392968Y345351D01*
X392007Y344953D01*
X391181Y344319D01*
X390547Y343493D01*
X390149Y342532D01*
X390013Y341500D01*
X390149Y340468D01*
X390341Y340004D01*
X388419Y338081D01*
X388087Y337585D01*
X387971Y337000D01*
Y333550D01*
X387471Y333450D01*
X387453Y333493D01*
X386819Y334319D01*
X385993Y334953D01*
X385032Y335351D01*
X384495Y335422D01*
X384315Y335950D01*
X385081Y336716D01*
X385413Y337212D01*
X385529Y337797D01*
Y337855D01*
X385993Y338047D01*
X386819Y338681D01*
X387453Y339507D01*
X387851Y340468D01*
X387987Y341500D01*
X387851Y342532D01*
X387453Y343493D01*
X386819Y344319D01*
X385993Y344953D01*
X385032Y345351D01*
X384000Y345487D01*
X382968Y345351D01*
X382007Y344953D01*
X381181Y344319D01*
X380547Y343493D01*
X380149Y342532D01*
X380013Y341500D01*
X380149Y340468D01*
X380547Y339507D01*
X381181Y338681D01*
X381652Y338319D01*
X381696Y337656D01*
X378466Y334426D01*
X378134Y333930D01*
X378118Y333848D01*
X377546Y333474D01*
X377453Y333493D01*
X376819Y334319D01*
X375993Y334953D01*
X375032Y335351D01*
X374495Y335422D01*
X374315Y335950D01*
X375081Y336716D01*
X375413Y337212D01*
X375529Y337797D01*
Y337855D01*
X375993Y338047D01*
X376819Y338681D01*
X377453Y339507D01*
X377851Y340468D01*
X377987Y341500D01*
X377851Y342532D01*
X377453Y343493D01*
X376819Y344319D01*
X375993Y344953D01*
X375032Y345351D01*
X374000Y345487D01*
X372968Y345351D01*
X372007Y344953D01*
X371181Y344319D01*
X370547Y343493D01*
X370149Y342532D01*
X370013Y341500D01*
X370149Y340468D01*
X370547Y339507D01*
X371181Y338681D01*
X371652Y338319D01*
X371696Y337656D01*
X368466Y334426D01*
X368134Y333930D01*
X368118Y333848D01*
X367546Y333474D01*
X367453Y333493D01*
X366819Y334319D01*
X365993Y334953D01*
X365032Y335351D01*
X364495Y335422D01*
X364315Y335950D01*
X365081Y336716D01*
X365413Y337212D01*
X365529Y337797D01*
Y337855D01*
X365993Y338047D01*
X366819Y338681D01*
X367453Y339507D01*
X367851Y340468D01*
X367987Y341500D01*
X367851Y342532D01*
X367453Y343493D01*
X366819Y344319D01*
X365993Y344953D01*
X365032Y345351D01*
X364000Y345487D01*
X362968Y345351D01*
X362007Y344953D01*
X361181Y344319D01*
X360547Y343493D01*
X360149Y342532D01*
X360013Y341500D01*
X360149Y340468D01*
X360547Y339507D01*
X361181Y338681D01*
X361652Y338319D01*
X361696Y337656D01*
X358466Y334426D01*
X358134Y333930D01*
X358118Y333848D01*
X357546Y333474D01*
X357453Y333493D01*
X356819Y334319D01*
X355993Y334953D01*
X355032Y335351D01*
X354495Y335422D01*
X354315Y335950D01*
X355081Y336716D01*
X355413Y337212D01*
X355529Y337797D01*
Y337855D01*
X355993Y338047D01*
X356819Y338681D01*
X357453Y339507D01*
X357851Y340468D01*
X357987Y341500D01*
X357851Y342532D01*
X357453Y343493D01*
X356819Y344319D01*
X355993Y344953D01*
X355032Y345351D01*
X354000Y345487D01*
X352968Y345351D01*
X352007Y344953D01*
X351181Y344319D01*
X350547Y343493D01*
X350149Y342532D01*
X350013Y341500D01*
X350149Y340468D01*
X350547Y339507D01*
X351181Y338681D01*
X351652Y338319D01*
X351696Y337656D01*
X348466Y334426D01*
X348134Y333930D01*
X348118Y333848D01*
X347546Y333474D01*
X347453Y333493D01*
X346819Y334319D01*
X345993Y334953D01*
X345032Y335351D01*
X344495Y335422D01*
X344315Y335950D01*
X345081Y336716D01*
X345413Y337212D01*
X345529Y337797D01*
Y337855D01*
X345993Y338047D01*
X346819Y338681D01*
X347453Y339507D01*
X347851Y340468D01*
X347987Y341500D01*
X347851Y342532D01*
X347453Y343493D01*
X346819Y344319D01*
X345993Y344953D01*
X345032Y345351D01*
X344000Y345487D01*
X342968Y345351D01*
X342007Y344953D01*
X341181Y344319D01*
X340547Y343493D01*
X340149Y342532D01*
X340013Y341500D01*
X340149Y340468D01*
X340547Y339507D01*
X341181Y338681D01*
X341652Y338319D01*
X341696Y337656D01*
X338466Y334426D01*
X338134Y333930D01*
X338118Y333848D01*
X337546Y333474D01*
X337453Y333493D01*
X336819Y334319D01*
X335993Y334953D01*
X335032Y335351D01*
X334500Y335421D01*
Y331500D01*
Y327579D01*
X335032Y327649D01*
X335993Y328047D01*
X336819Y328681D01*
X337453Y329507D01*
X337546Y329526D01*
X338118Y329152D01*
X338134Y329070D01*
X338466Y328574D01*
X393971Y273069D01*
Y252328D01*
X393471Y252159D01*
X393174Y252545D01*
X392447Y253103D01*
X391600Y253454D01*
X390692Y253573D01*
X389784Y253454D01*
X388937Y253103D01*
X388210Y252545D01*
X387652Y251818D01*
X387301Y250972D01*
X387182Y250063D01*
X387301Y249154D01*
X387652Y248308D01*
X388210Y247581D01*
X388937Y247023D01*
X389784Y246672D01*
X390692Y246553D01*
X391600Y246672D01*
X392447Y247023D01*
X393174Y247581D01*
X393471Y247967D01*
X393971Y247797D01*
Y240196D01*
X370915Y217141D01*
X370453Y217332D01*
Y222193D01*
X368029D01*
Y225497D01*
X368255Y225590D01*
X368982Y226148D01*
X369540Y226875D01*
X369891Y227722D01*
X370010Y228630D01*
X369891Y229538D01*
X369540Y230385D01*
X368982Y231112D01*
X368255Y231670D01*
X367408Y232021D01*
X366500Y232140D01*
X365592Y232021D01*
X364745Y231670D01*
X364018Y231112D01*
X363460Y230385D01*
X363109Y229538D01*
X362990Y228630D01*
X363109Y227722D01*
X363460Y226875D01*
X364018Y226148D01*
X364745Y225590D01*
X364971Y225497D01*
Y222193D01*
X362547D01*
Y214681D01*
X362547Y214681D01*
Y214319D01*
X362547D01*
X362547Y214181D01*
Y212092D01*
X257645D01*
Y214181D01*
X257645Y214319D01*
Y214681D01*
X257645Y214819D01*
Y222193D01*
X255221D01*
Y225497D01*
X255447Y225590D01*
X256174Y226148D01*
X256732Y226875D01*
X257083Y227722D01*
X257202Y228630D01*
X257083Y229538D01*
X256732Y230385D01*
X256174Y231112D01*
X255447Y231670D01*
X254601Y232021D01*
X253692Y232140D01*
X252783Y232021D01*
X251937Y231670D01*
X251210Y231112D01*
X250652Y230385D01*
X250301Y229538D01*
X250182Y228630D01*
X250301Y227722D01*
X250652Y226875D01*
X251210Y226148D01*
X251937Y225590D01*
X252163Y225497D01*
Y222193D01*
X249739D01*
Y214819D01*
X249739Y214681D01*
Y214319D01*
X249739Y214181D01*
Y212092D01*
X174453D01*
Y214181D01*
X174453Y214319D01*
Y214681D01*
X174453Y214819D01*
Y222193D01*
X172029D01*
Y225497D01*
X172255Y225590D01*
X172982Y226148D01*
X173540Y226875D01*
X173891Y227722D01*
X174010Y228630D01*
X173891Y229538D01*
X173540Y230385D01*
X172982Y231112D01*
X172255Y231670D01*
X171408Y232021D01*
X170500Y232140D01*
X169591Y232021D01*
X168745Y231670D01*
X168018Y231112D01*
X167460Y230385D01*
X167109Y229538D01*
X166990Y228630D01*
X167109Y227722D01*
X167460Y226875D01*
X168018Y226148D01*
X168745Y225590D01*
X168971Y225497D01*
Y222193D01*
X166547D01*
Y214819D01*
X166547Y214681D01*
Y214319D01*
X166547Y214181D01*
Y206807D01*
X174453D01*
Y209034D01*
X249739D01*
Y206807D01*
X257645D01*
Y209034D01*
X362547D01*
Y206807D01*
X370453D01*
Y212353D01*
X396581Y238482D01*
X396913Y238978D01*
X397029Y239563D01*
Y253344D01*
X397358Y253456D01*
X397529Y253484D01*
X398235Y252943D01*
X399086Y252590D01*
X400000Y252470D01*
X400914Y252590D01*
X401765Y252943D01*
X402496Y253504D01*
X403057Y254235D01*
X403155Y254471D01*
X411236D01*
X411674Y253971D01*
X411612Y253500D01*
X411732Y252586D01*
X412085Y251735D01*
X412646Y251004D01*
X413377Y250443D01*
X414229Y250090D01*
X415142Y249970D01*
X416056Y250090D01*
X416704Y250359D01*
X417204Y250086D01*
Y241373D01*
X417321Y240788D01*
X417652Y240292D01*
X444844Y213100D01*
X445341Y212768D01*
X445547Y212727D01*
Y206807D01*
X453453D01*
Y209034D01*
X558547D01*
Y206807D01*
X566453D01*
Y209034D01*
X641603D01*
Y206807D01*
X649509D01*
Y214181D01*
X649509Y214319D01*
Y214681D01*
X649509Y214819D01*
Y222193D01*
X647085D01*
Y225497D01*
X647311Y225590D01*
X648038Y226148D01*
X648596Y226875D01*
X648947Y227722D01*
X649066Y228630D01*
X648947Y229538D01*
X648596Y230385D01*
X648038Y231112D01*
X647311Y231670D01*
X646464Y232021D01*
X645556Y232140D01*
X644648Y232021D01*
X643801Y231670D01*
X643074Y231112D01*
X642516Y230385D01*
X642165Y229538D01*
X642046Y228630D01*
X642165Y227722D01*
X642516Y226875D01*
X643074Y226148D01*
X643801Y225590D01*
X644027Y225497D01*
Y222193D01*
X641603D01*
Y214819D01*
X641603Y214681D01*
Y214319D01*
X641603Y214181D01*
Y212092D01*
X566453D01*
Y214181D01*
X566453Y214319D01*
Y214681D01*
X566453Y214819D01*
Y222193D01*
X564029D01*
Y225497D01*
X564255Y225590D01*
X564982Y226148D01*
X565540Y226875D01*
X565891Y227722D01*
X566010Y228630D01*
X565891Y229538D01*
X565540Y230385D01*
X564982Y231112D01*
X564255Y231670D01*
X563409Y232021D01*
X562500Y232140D01*
X561591Y232021D01*
X560745Y231670D01*
X560018Y231112D01*
X559460Y230385D01*
X559109Y229538D01*
X558990Y228630D01*
X559109Y227722D01*
X559460Y226875D01*
X560018Y226148D01*
X560745Y225590D01*
X560971Y225497D01*
Y222193D01*
X558547D01*
Y214819D01*
X558547Y214681D01*
Y214319D01*
X558547Y214181D01*
Y212092D01*
X453453D01*
Y214181D01*
X453453Y214319D01*
X453453D01*
Y214681D01*
X453453D01*
Y222193D01*
X451029D01*
Y225497D01*
X451255Y225590D01*
X451982Y226148D01*
X452540Y226875D01*
X452891Y227722D01*
X453010Y228630D01*
X452891Y229538D01*
X452540Y230385D01*
X451982Y231112D01*
X451255Y231670D01*
X450409Y232021D01*
X449500Y232140D01*
X448592Y232021D01*
X447745Y231670D01*
X447018Y231112D01*
X446460Y230385D01*
X446109Y229538D01*
X445990Y228630D01*
X446109Y227722D01*
X446460Y226875D01*
X447018Y226148D01*
X447745Y225590D01*
X447971Y225497D01*
Y222193D01*
X445547D01*
Y217376D01*
X445085Y217185D01*
X420263Y242007D01*
Y245521D01*
X420725Y245712D01*
X426147Y240290D01*
X426053Y240065D01*
X425934Y239156D01*
X426053Y238247D01*
X426404Y237401D01*
X426962Y236674D01*
X427689Y236116D01*
X428536Y235765D01*
X429444Y235646D01*
X430352Y235765D01*
X431199Y236116D01*
X431926Y236674D01*
X432484Y237401D01*
X432835Y238247D01*
X432954Y239156D01*
X432835Y240065D01*
X432484Y240911D01*
X431926Y241638D01*
X431199Y242196D01*
X430352Y242547D01*
X429444Y242666D01*
X428536Y242547D01*
X428310Y242453D01*
X424624Y246138D01*
X424858Y246612D01*
X425308Y246553D01*
X426217Y246672D01*
X427063Y247023D01*
X427790Y247581D01*
X428348Y248308D01*
X428699Y249154D01*
X428818Y250063D01*
X428699Y250972D01*
X428348Y251818D01*
X427790Y252545D01*
X427063Y253103D01*
X426217Y253454D01*
X425308Y253573D01*
X425048Y253539D01*
X424672Y253869D01*
Y256814D01*
X424555Y257399D01*
X424263Y257836D01*
Y258571D01*
X424712Y258792D01*
X424959Y258602D01*
X425806Y258251D01*
X426714Y258132D01*
X427623Y258251D01*
X428469Y258602D01*
X429196Y259160D01*
X429754Y259887D01*
X430105Y260734D01*
X430224Y261642D01*
X430105Y262550D01*
X429754Y263397D01*
X429196Y264124D01*
X428469Y264682D01*
X427623Y265033D01*
X426714Y265152D01*
X425806Y265033D01*
X425800Y265031D01*
X363764Y327067D01*
X363914Y327370D01*
X364022Y327516D01*
X365032Y327649D01*
X365496Y327841D01*
X423178Y270160D01*
X423674Y269828D01*
X424259Y269712D01*
X430206D01*
X430300Y269486D01*
X430858Y268759D01*
X431585Y268201D01*
X432432Y267850D01*
X433340Y267731D01*
X434248Y267850D01*
X435095Y268201D01*
X435822Y268759D01*
X436380Y269486D01*
X436731Y270333D01*
X436850Y271241D01*
X436731Y272149D01*
X436380Y272996D01*
X435822Y273723D01*
X435095Y274281D01*
X434248Y274632D01*
X434241Y274633D01*
X434274Y275133D01*
X440534D01*
X440628Y274907D01*
X441186Y274180D01*
X441913Y273622D01*
X442760Y273271D01*
X443668Y273152D01*
X444577Y273271D01*
X445423Y273622D01*
X446150Y274180D01*
X446708Y274907D01*
X447059Y275753D01*
X447178Y276662D01*
X447059Y277571D01*
X446708Y278417D01*
X446283Y278971D01*
X446509Y279471D01*
X450360D01*
X452035Y277796D01*
X451941Y277571D01*
X451822Y276662D01*
X451941Y275753D01*
X452292Y274907D01*
X452850Y274180D01*
X453577Y273622D01*
X454424Y273271D01*
X455332Y273152D01*
X456241Y273271D01*
X457087Y273622D01*
X457814Y274180D01*
X458372Y274907D01*
X458723Y275753D01*
X458763Y276062D01*
X459237Y276223D01*
X462574Y272886D01*
X462269Y272149D01*
X462150Y271241D01*
X462269Y270333D01*
X462620Y269486D01*
X463178Y268759D01*
X463905Y268201D01*
X464751Y267850D01*
X465660Y267731D01*
X466569Y267850D01*
X467415Y268201D01*
X468142Y268759D01*
X468700Y269486D01*
X469051Y270333D01*
X469170Y271241D01*
X469061Y272069D01*
X469240Y272221D01*
X469513Y272324D01*
X470757Y271080D01*
Y264775D01*
X470531Y264682D01*
X469804Y264124D01*
X469246Y263397D01*
X468895Y262550D01*
X468776Y261642D01*
X468895Y260734D01*
X469246Y259887D01*
X469804Y259160D01*
X470531Y258602D01*
X471378Y258251D01*
X472286Y258132D01*
X473195Y258251D01*
X474041Y258602D01*
X474288Y258792D01*
X474737Y258571D01*
Y253908D01*
X474237Y253502D01*
X473692Y253573D01*
X472784Y253454D01*
X471937Y253103D01*
X471210Y252545D01*
X470652Y251818D01*
X470301Y250972D01*
X470182Y250063D01*
X470301Y249154D01*
X470652Y248308D01*
X471210Y247581D01*
X471937Y247023D01*
X472784Y246672D01*
X473692Y246553D01*
X474142Y246612D01*
X474375Y246138D01*
X470690Y242453D01*
X470465Y242547D01*
X469556Y242666D01*
X468647Y242547D01*
X467801Y242196D01*
X467074Y241638D01*
X466516Y240911D01*
X466165Y240065D01*
X466046Y239156D01*
X466165Y238247D01*
X466516Y237401D01*
X466706Y237154D01*
X466485Y236705D01*
X463224D01*
X463059Y236815D01*
X462474Y236932D01*
X451172D01*
X446513Y241591D01*
X446611Y241827D01*
X446731Y242740D01*
X446611Y243654D01*
X446258Y244505D01*
X445697Y245236D01*
X444966Y245797D01*
X444114Y246150D01*
X443201Y246270D01*
X442287Y246150D01*
X441436Y245797D01*
X440705Y245236D01*
X440143Y244505D01*
X439791Y243654D01*
X439671Y242740D01*
X439791Y241827D01*
X440143Y240975D01*
X440705Y240244D01*
X441436Y239683D01*
X442287Y239330D01*
X443201Y239210D01*
X444114Y239330D01*
X444350Y239428D01*
X449457Y234321D01*
X449953Y233989D01*
X450539Y233873D01*
X457754D01*
X457975Y233424D01*
X457785Y233177D01*
X457434Y232330D01*
X457315Y231422D01*
X457434Y230514D01*
X457785Y229667D01*
X458343Y228940D01*
X459070Y228382D01*
X459916Y228031D01*
X460825Y227912D01*
X461733Y228031D01*
X462580Y228382D01*
X463307Y228940D01*
X463865Y229667D01*
X464216Y230514D01*
X464335Y231422D01*
X464216Y232330D01*
X463865Y233177D01*
X463849Y233198D01*
X464070Y233646D01*
X544093D01*
X544678Y233763D01*
X545174Y234094D01*
X546050Y234971D01*
X549341D01*
X549441Y234471D01*
X549420Y234462D01*
X548693Y233904D01*
X548135Y233177D01*
X547784Y232330D01*
X547665Y231422D01*
X547784Y230514D01*
X548135Y229667D01*
X548693Y228940D01*
X549420Y228382D01*
X550267Y228031D01*
X551175Y227912D01*
X552083Y228031D01*
X552930Y228382D01*
X553657Y228940D01*
X554215Y229667D01*
X554566Y230514D01*
X554685Y231422D01*
X554566Y232330D01*
X554215Y233177D01*
X553657Y233904D01*
X552930Y234462D01*
X552909Y234471D01*
X553009Y234971D01*
X558000D01*
X558585Y235087D01*
X559081Y235419D01*
X562653Y238990D01*
X563414Y239090D01*
X564265Y239443D01*
X564996Y240004D01*
X565560Y239917D01*
X565742Y239479D01*
X566027Y239107D01*
Y238669D01*
X566405D01*
X567034Y238187D01*
X567885Y237834D01*
X568799Y237714D01*
X569713Y237834D01*
X570564Y238187D01*
X571193Y238669D01*
X571571D01*
Y239107D01*
X571856Y239479D01*
X572209Y240330D01*
X572329Y241244D01*
X572209Y242158D01*
X571856Y243009D01*
X571607Y243334D01*
X571571Y243819D01*
Y244181D01*
X571571D01*
Y249331D01*
X570329D01*
Y250845D01*
X570564Y250943D01*
X571295Y251504D01*
X571856Y252235D01*
X572209Y253086D01*
X572329Y254000D01*
X572209Y254914D01*
X571856Y255765D01*
X571295Y256496D01*
X570564Y257057D01*
X569713Y257410D01*
X568799Y257530D01*
X567885Y257410D01*
X567034Y257057D01*
X566303Y256496D01*
X565742Y255765D01*
X565389Y254914D01*
X565269Y254000D01*
X565389Y253086D01*
X565742Y252235D01*
X566303Y251504D01*
X567034Y250943D01*
X567270Y250845D01*
Y249331D01*
X566027D01*
Y244622D01*
X565583Y244303D01*
X565527Y244304D01*
X564996Y244996D01*
X564265Y245557D01*
X563414Y245910D01*
X562500Y246030D01*
X561586Y245910D01*
X560735Y245557D01*
X560004Y244996D01*
X559443Y244265D01*
X559090Y243414D01*
X558970Y242500D01*
X559090Y241586D01*
X559443Y240735D01*
X559716Y240379D01*
X557367Y238029D01*
X546242D01*
X545872Y238529D01*
X545954Y239156D01*
X545835Y240065D01*
X545484Y240911D01*
X544926Y241638D01*
X544199Y242196D01*
X543353Y242547D01*
X542444Y242666D01*
X541607Y242556D01*
X538054Y246109D01*
X538199Y246402D01*
X538316Y246554D01*
X539217Y246672D01*
X540063Y247023D01*
X540790Y247581D01*
X541348Y248308D01*
X541699Y249154D01*
X541818Y250063D01*
X541699Y250972D01*
X541348Y251818D01*
X540790Y252545D01*
X540063Y253103D01*
X539217Y253454D01*
X538308Y253573D01*
X537399Y253454D01*
X537174Y253360D01*
X497525Y293009D01*
X497717Y293471D01*
X500867D01*
X533777Y260561D01*
X534273Y260229D01*
X534858Y260113D01*
X536581D01*
X536674Y259887D01*
X537232Y259160D01*
X537959Y258602D01*
X538805Y258251D01*
X539714Y258132D01*
X540623Y258251D01*
X541469Y258602D01*
X542196Y259160D01*
X542754Y259887D01*
X543105Y260734D01*
X543224Y261642D01*
X543105Y262550D01*
X542754Y263397D01*
X542196Y264124D01*
X541469Y264682D01*
X540623Y265033D01*
X539714Y265152D01*
X538805Y265033D01*
X537959Y264682D01*
X537232Y264124D01*
X536674Y263397D01*
X536581Y263171D01*
X535492D01*
X503654Y295009D01*
X503846Y295471D01*
X507367D01*
X532678Y270160D01*
X533174Y269828D01*
X533759Y269712D01*
X543207D01*
X543300Y269486D01*
X543858Y268759D01*
X544585Y268201D01*
X545432Y267850D01*
X546340Y267731D01*
X547249Y267850D01*
X548095Y268201D01*
X548822Y268759D01*
X549380Y269486D01*
X549731Y270333D01*
X549850Y271241D01*
X549731Y272149D01*
X549380Y272996D01*
X548822Y273723D01*
X548095Y274281D01*
X547249Y274632D01*
X546340Y274751D01*
X545432Y274632D01*
X544585Y274281D01*
X543858Y273723D01*
X543300Y272996D01*
X543207Y272770D01*
X534392D01*
X510154Y297009D01*
X510346Y297471D01*
X533697D01*
X553371Y277796D01*
X553277Y277571D01*
X553158Y276662D01*
X553277Y275753D01*
X553628Y274907D01*
X554186Y274180D01*
X554913Y273622D01*
X555759Y273271D01*
X556668Y273152D01*
X557577Y273271D01*
X558423Y273622D01*
X559150Y274180D01*
X559708Y274907D01*
X560059Y275753D01*
X560178Y276662D01*
X560059Y277571D01*
X559708Y278417D01*
X559150Y279144D01*
X558423Y279702D01*
X557577Y280053D01*
X556668Y280172D01*
X555759Y280053D01*
X555534Y279959D01*
X536484Y299009D01*
X536676Y299471D01*
X543361D01*
X565035Y277796D01*
X564941Y277571D01*
X564822Y276662D01*
X564941Y275753D01*
X565292Y274907D01*
X565850Y274180D01*
X566577Y273622D01*
X567423Y273271D01*
X568332Y273152D01*
X569241Y273271D01*
X570087Y273622D01*
X570814Y274180D01*
X571372Y274907D01*
X571723Y275753D01*
X571763Y276062D01*
X572237Y276223D01*
X575541Y272919D01*
X575578Y272894D01*
X575269Y272149D01*
X575150Y271241D01*
X575269Y270333D01*
X575620Y269486D01*
X576178Y268759D01*
X576905Y268201D01*
X577751Y267850D01*
X578660Y267731D01*
X579568Y267850D01*
X580415Y268201D01*
X581142Y268759D01*
X581700Y269486D01*
X582051Y270333D01*
X582170Y271241D01*
X582137Y271493D01*
X582611Y271726D01*
X583757Y270581D01*
Y264775D01*
X583531Y264682D01*
X582804Y264124D01*
X582246Y263397D01*
X581895Y262550D01*
X581776Y261642D01*
X581895Y260734D01*
X582246Y259887D01*
X582804Y259160D01*
X583531Y258602D01*
X584377Y258251D01*
X585286Y258132D01*
X586195Y258251D01*
X587041Y258602D01*
X587288Y258792D01*
X587737Y258571D01*
Y253908D01*
X587237Y253502D01*
X586692Y253573D01*
X585783Y253454D01*
X584937Y253103D01*
X584210Y252545D01*
X583652Y251818D01*
X583301Y250972D01*
X583182Y250063D01*
X583301Y249154D01*
X583652Y248308D01*
X584210Y247581D01*
X584937Y247023D01*
X585783Y246672D01*
X586692Y246553D01*
X587142Y246612D01*
X587375Y246138D01*
X583690Y242453D01*
X583464Y242547D01*
X582556Y242666D01*
X581647Y242547D01*
X580801Y242196D01*
X580074Y241638D01*
X579516Y240911D01*
X579165Y240065D01*
X579046Y239156D01*
X579165Y238247D01*
X579516Y237401D01*
X580074Y236674D01*
X580801Y236116D01*
X581647Y235765D01*
X582556Y235646D01*
X583464Y235765D01*
X584311Y236116D01*
X585038Y236674D01*
X585596Y237401D01*
X585947Y238247D01*
X586066Y239156D01*
X585947Y240065D01*
X585853Y240290D01*
X592348Y246785D01*
X592679Y247281D01*
X592796Y247866D01*
Y269388D01*
X593258Y269580D01*
X622304Y240533D01*
X622109Y240065D01*
X621990Y239156D01*
X622109Y238247D01*
X622460Y237401D01*
X623018Y236674D01*
X623745Y236116D01*
X624591Y235765D01*
X625500Y235646D01*
X626408Y235765D01*
X627255Y236116D01*
X627982Y236674D01*
X628540Y237401D01*
X628891Y238247D01*
X629010Y239156D01*
X628891Y240065D01*
X628540Y240911D01*
X627982Y241638D01*
X627255Y242196D01*
X626408Y242547D01*
X625500Y242666D01*
X624613Y242549D01*
X621046Y246117D01*
X621267Y246566D01*
X621364Y246553D01*
X622272Y246672D01*
X623119Y247023D01*
X623846Y247581D01*
X624404Y248308D01*
X624755Y249154D01*
X624874Y250063D01*
X624755Y250972D01*
X624404Y251818D01*
X623846Y252545D01*
X623119Y253103D01*
X622272Y253454D01*
X621364Y253573D01*
X620456Y253454D01*
X620039Y253281D01*
X560311Y313009D01*
X560502Y313471D01*
X568779D01*
X619473Y262776D01*
X619379Y262550D01*
X619260Y261642D01*
X619379Y260734D01*
X619730Y259887D01*
X620288Y259160D01*
X621015Y258602D01*
X621862Y258251D01*
X622770Y258132D01*
X623678Y258251D01*
X624525Y258602D01*
X625252Y259160D01*
X625810Y259887D01*
X626161Y260734D01*
X626280Y261642D01*
X626161Y262550D01*
X625810Y263397D01*
X625252Y264124D01*
X624525Y264682D01*
X623678Y265033D01*
X622770Y265152D01*
X621862Y265033D01*
X621636Y264939D01*
X571566Y315009D01*
X571758Y315471D01*
X583004D01*
X626099Y272375D01*
X626005Y272149D01*
X625886Y271241D01*
X626005Y270333D01*
X626356Y269486D01*
X626914Y268759D01*
X627641Y268201D01*
X628487Y267850D01*
X629396Y267731D01*
X630304Y267850D01*
X631151Y268201D01*
X631878Y268759D01*
X632436Y269486D01*
X632787Y270333D01*
X632906Y271241D01*
X632787Y272149D01*
X632436Y272996D01*
X631878Y273723D01*
X631151Y274281D01*
X630304Y274632D01*
X629396Y274751D01*
X628487Y274632D01*
X628262Y274538D01*
X585791Y317009D01*
X585983Y317471D01*
X596753D01*
X636427Y277796D01*
X636333Y277571D01*
X636214Y276662D01*
X636333Y275753D01*
X636684Y274907D01*
X637242Y274180D01*
X637969Y273622D01*
X638815Y273271D01*
X639724Y273152D01*
X640632Y273271D01*
X641479Y273622D01*
X642206Y274180D01*
X642764Y274907D01*
X643115Y275753D01*
X643234Y276662D01*
X643115Y277571D01*
X642764Y278417D01*
X642206Y279144D01*
X641479Y279702D01*
X640632Y280053D01*
X639724Y280172D01*
X638815Y280053D01*
X638590Y279959D01*
X599540Y319009D01*
X599732Y319471D01*
X606417D01*
X648091Y277796D01*
X647997Y277571D01*
X647878Y276662D01*
X647997Y275753D01*
X648348Y274907D01*
X648906Y274180D01*
X649633Y273622D01*
X650480Y273271D01*
X651388Y273152D01*
X652296Y273271D01*
X653143Y273622D01*
X653870Y274180D01*
X654428Y274907D01*
X654779Y275753D01*
X654819Y276062D01*
X655293Y276223D01*
X658630Y272886D01*
X658325Y272149D01*
X658206Y271241D01*
X658325Y270333D01*
X658676Y269486D01*
X659234Y268759D01*
X659961Y268201D01*
X660808Y267850D01*
X661716Y267731D01*
X662625Y267850D01*
X663471Y268201D01*
X664198Y268759D01*
X664756Y269486D01*
X665107Y270333D01*
X665226Y271241D01*
X665107Y272149D01*
X664756Y272996D01*
X664198Y273723D01*
X663471Y274281D01*
X662625Y274632D01*
X661716Y274751D01*
X661163Y274678D01*
X612833Y323009D01*
X613025Y323471D01*
X625867D01*
X666813Y282524D01*
Y264775D01*
X666587Y264682D01*
X665860Y264124D01*
X665302Y263397D01*
X664951Y262550D01*
X664832Y261642D01*
X664951Y260734D01*
X665302Y259887D01*
X665860Y259160D01*
X666587Y258602D01*
X667434Y258251D01*
X668342Y258132D01*
X669250Y258251D01*
X670097Y258602D01*
X670344Y258792D01*
X670793Y258571D01*
Y253908D01*
X670293Y253502D01*
X669748Y253573D01*
X668840Y253454D01*
X667993Y253103D01*
X667266Y252545D01*
X666708Y251818D01*
X666357Y250972D01*
X666238Y250063D01*
X666357Y249154D01*
X666708Y248308D01*
X667266Y247581D01*
X667993Y247023D01*
X668840Y246672D01*
X669748Y246553D01*
X670198Y246612D01*
X670432Y246138D01*
X666746Y242453D01*
X666521Y242547D01*
X665612Y242666D01*
X664704Y242547D01*
X663857Y242196D01*
X663130Y241638D01*
X662572Y240911D01*
X662221Y240065D01*
X662102Y239156D01*
X662221Y238247D01*
X662572Y237401D01*
X663130Y236674D01*
X663857Y236116D01*
X664704Y235765D01*
X665612Y235646D01*
X666521Y235765D01*
X667367Y236116D01*
X668094Y236674D01*
X668652Y237401D01*
X669003Y238247D01*
X669122Y239156D01*
X669003Y240065D01*
X668909Y240290D01*
X675081Y246463D01*
X675413Y246959D01*
X675529Y247544D01*
Y250916D01*
X675735Y251224D01*
X675852Y251809D01*
Y264119D01*
X675735Y264704D01*
X675529Y265012D01*
Y283328D01*
X675413Y283914D01*
X675081Y284410D01*
X673910Y285581D01*
X673414Y285913D01*
X673405Y285915D01*
X629238Y330081D01*
X628742Y330413D01*
X628157Y330529D01*
X555942D01*
X555820Y331014D01*
X555954Y331086D01*
X557305Y332195D01*
X558414Y333546D01*
X559238Y335088D01*
X559746Y336760D01*
X559917Y338500D01*
X559746Y340240D01*
X559238Y341912D01*
X558414Y343454D01*
X557305Y344805D01*
X555954Y345914D01*
X554412Y346738D01*
X552740Y347246D01*
X551000Y347417D01*
D02*
G37*
G36*
X686500D02*
X684760Y347246D01*
X683088Y346738D01*
X681546Y345914D01*
X680195Y344805D01*
X679086Y343454D01*
X678262Y341912D01*
X677754Y340240D01*
X677583Y338500D01*
X677754Y336760D01*
X678262Y335088D01*
X679086Y333546D01*
X680195Y332195D01*
X681546Y331086D01*
X683088Y330262D01*
X684760Y329754D01*
X686500Y329583D01*
X688240Y329754D01*
X689912Y330262D01*
X691454Y331086D01*
X692805Y332195D01*
X693914Y333546D01*
X694738Y335088D01*
X695246Y336760D01*
X695417Y338500D01*
X695246Y340240D01*
X694738Y341912D01*
X693914Y343454D01*
X692805Y344805D01*
X691454Y345914D01*
X689912Y346738D01*
X688240Y347246D01*
X686500Y347417D01*
D02*
G37*
G36*
X267000D02*
X265260Y347246D01*
X263588Y346738D01*
X262046Y345914D01*
X260695Y344805D01*
X259586Y343454D01*
X258762Y341912D01*
X258254Y340240D01*
X258083Y338500D01*
X258254Y336760D01*
X258762Y335088D01*
X259586Y333546D01*
X260695Y332195D01*
X262046Y331086D01*
X263588Y330262D01*
X265260Y329754D01*
X267000Y329583D01*
X268740Y329754D01*
X270412Y330262D01*
X271954Y331086D01*
X273305Y332195D01*
X274414Y333546D01*
X275238Y335088D01*
X275746Y336760D01*
X275917Y338500D01*
X275746Y340240D01*
X275238Y341912D01*
X274414Y343454D01*
X273305Y344805D01*
X271954Y345914D01*
X270412Y346738D01*
X268740Y347246D01*
X267000Y347417D01*
D02*
G37*
G36*
X129500D02*
X127760Y347246D01*
X126088Y346738D01*
X124546Y345914D01*
X123195Y344805D01*
X122086Y343454D01*
X121262Y341912D01*
X120754Y340240D01*
X120583Y338500D01*
X120754Y336760D01*
X121262Y335088D01*
X122086Y333546D01*
X123195Y332195D01*
X124546Y331086D01*
X126088Y330262D01*
X127760Y329754D01*
X129500Y329583D01*
X131240Y329754D01*
X132912Y330262D01*
X134454Y331086D01*
X135805Y332195D01*
X136914Y333546D01*
X137738Y335088D01*
X138246Y336760D01*
X138417Y338500D01*
X138246Y340240D01*
X137738Y341912D01*
X136914Y343454D01*
X135805Y344805D01*
X134454Y345914D01*
X132912Y346738D01*
X131240Y347246D01*
X129500Y347417D01*
D02*
G37*
G36*
X333500Y331000D02*
X330079D01*
X330149Y330468D01*
X330547Y329507D01*
X331181Y328681D01*
X332007Y328047D01*
X332968Y327649D01*
X333500Y327579D01*
Y331000D01*
D02*
G37*
G36*
X372332Y280172D02*
X371424Y280053D01*
X370577Y279702D01*
X369850Y279144D01*
X369292Y278417D01*
X368941Y277571D01*
X368822Y276662D01*
X368941Y275753D01*
X369292Y274907D01*
X369850Y274180D01*
X370577Y273622D01*
X371424Y273271D01*
X372332Y273152D01*
X373240Y273271D01*
X374087Y273622D01*
X374814Y274180D01*
X375372Y274907D01*
X375723Y275753D01*
X375842Y276662D01*
X375723Y277571D01*
X375372Y278417D01*
X374814Y279144D01*
X374087Y279702D01*
X373240Y280053D01*
X372332Y280172D01*
D02*
G37*
G36*
X360668D02*
X359759Y280053D01*
X358913Y279702D01*
X358186Y279144D01*
X357628Y278417D01*
X357277Y277571D01*
X357158Y276662D01*
X357277Y275753D01*
X357628Y274907D01*
X358186Y274180D01*
X358913Y273622D01*
X359759Y273271D01*
X360668Y273152D01*
X361577Y273271D01*
X362423Y273622D01*
X363150Y274180D01*
X363708Y274907D01*
X364059Y275753D01*
X364178Y276662D01*
X364059Y277571D01*
X363708Y278417D01*
X363150Y279144D01*
X362423Y279702D01*
X361577Y280053D01*
X360668Y280172D01*
D02*
G37*
G36*
X259524D02*
X258615Y280053D01*
X257769Y279702D01*
X257042Y279144D01*
X256484Y278417D01*
X256133Y277571D01*
X256014Y276662D01*
X256133Y275753D01*
X256484Y274907D01*
X257042Y274180D01*
X257769Y273622D01*
X258615Y273271D01*
X259524Y273152D01*
X260433Y273271D01*
X261279Y273622D01*
X262006Y274180D01*
X262564Y274907D01*
X262915Y275753D01*
X263034Y276662D01*
X262915Y277571D01*
X262564Y278417D01*
X262006Y279144D01*
X261279Y279702D01*
X260433Y280053D01*
X259524Y280172D01*
D02*
G37*
G36*
X247860D02*
X246952Y280053D01*
X246105Y279702D01*
X245378Y279144D01*
X244820Y278417D01*
X244469Y277571D01*
X244350Y276662D01*
X244469Y275753D01*
X244820Y274907D01*
X245378Y274180D01*
X246105Y273622D01*
X246952Y273271D01*
X247860Y273152D01*
X248768Y273271D01*
X249615Y273622D01*
X250342Y274180D01*
X250900Y274907D01*
X251251Y275753D01*
X251370Y276662D01*
X251251Y277571D01*
X250900Y278417D01*
X250342Y279144D01*
X249615Y279702D01*
X248768Y280053D01*
X247860Y280172D01*
D02*
G37*
G36*
X176332D02*
X175424Y280053D01*
X174577Y279702D01*
X173850Y279144D01*
X173292Y278417D01*
X172941Y277571D01*
X172822Y276662D01*
X172941Y275753D01*
X173292Y274907D01*
X173850Y274180D01*
X174577Y273622D01*
X175424Y273271D01*
X176332Y273152D01*
X177241Y273271D01*
X178087Y273622D01*
X178814Y274180D01*
X179372Y274907D01*
X179723Y275753D01*
X179842Y276662D01*
X179723Y277571D01*
X179372Y278417D01*
X178814Y279144D01*
X178087Y279702D01*
X177241Y280053D01*
X176332Y280172D01*
D02*
G37*
G36*
X164668D02*
X163760Y280053D01*
X162913Y279702D01*
X162186Y279144D01*
X161628Y278417D01*
X161277Y277571D01*
X161158Y276662D01*
X161277Y275753D01*
X161628Y274907D01*
X162186Y274180D01*
X162913Y273622D01*
X163760Y273271D01*
X164668Y273152D01*
X165577Y273271D01*
X166423Y273622D01*
X167150Y274180D01*
X167708Y274907D01*
X168059Y275753D01*
X168178Y276662D01*
X168059Y277571D01*
X167708Y278417D01*
X167150Y279144D01*
X166423Y279702D01*
X165577Y280053D01*
X164668Y280172D01*
D02*
G37*
G36*
X382660Y274751D02*
X381751Y274632D01*
X380905Y274281D01*
X380178Y273723D01*
X379620Y272996D01*
X379269Y272149D01*
X379150Y271241D01*
X379269Y270333D01*
X379620Y269486D01*
X380178Y268759D01*
X380905Y268201D01*
X381751Y267850D01*
X382660Y267731D01*
X383569Y267850D01*
X384415Y268201D01*
X385142Y268759D01*
X385700Y269486D01*
X386051Y270333D01*
X386170Y271241D01*
X386051Y272149D01*
X385700Y272996D01*
X385142Y273723D01*
X384415Y274281D01*
X383569Y274632D01*
X382660Y274751D01*
D02*
G37*
G36*
X350340D02*
X349431Y274632D01*
X348585Y274281D01*
X347858Y273723D01*
X347300Y272996D01*
X346949Y272149D01*
X346830Y271241D01*
X346949Y270333D01*
X347300Y269486D01*
X347858Y268759D01*
X348585Y268201D01*
X349431Y267850D01*
X350340Y267731D01*
X351249Y267850D01*
X352095Y268201D01*
X352822Y268759D01*
X353380Y269486D01*
X353731Y270333D01*
X353850Y271241D01*
X353731Y272149D01*
X353380Y272996D01*
X352822Y273723D01*
X352095Y274281D01*
X351249Y274632D01*
X350340Y274751D01*
D02*
G37*
G36*
X269852D02*
X268944Y274632D01*
X268097Y274281D01*
X267370Y273723D01*
X266812Y272996D01*
X266461Y272149D01*
X266342Y271241D01*
X266461Y270333D01*
X266812Y269486D01*
X267370Y268759D01*
X268097Y268201D01*
X268944Y267850D01*
X269852Y267731D01*
X270760Y267850D01*
X271607Y268201D01*
X272334Y268759D01*
X272892Y269486D01*
X273243Y270333D01*
X273362Y271241D01*
X273243Y272149D01*
X272892Y272996D01*
X272334Y273723D01*
X271607Y274281D01*
X270760Y274632D01*
X269852Y274751D01*
D02*
G37*
G36*
X237532D02*
X236624Y274632D01*
X235777Y274281D01*
X235050Y273723D01*
X234492Y272996D01*
X234141Y272149D01*
X234022Y271241D01*
X234141Y270333D01*
X234492Y269486D01*
X235050Y268759D01*
X235777Y268201D01*
X236624Y267850D01*
X237532Y267731D01*
X238440Y267850D01*
X239287Y268201D01*
X240014Y268759D01*
X240572Y269486D01*
X240923Y270333D01*
X241042Y271241D01*
X240923Y272149D01*
X240572Y272996D01*
X240014Y273723D01*
X239287Y274281D01*
X238440Y274632D01*
X237532Y274751D01*
D02*
G37*
G36*
X186660D02*
X185751Y274632D01*
X184905Y274281D01*
X184178Y273723D01*
X183620Y272996D01*
X183269Y272149D01*
X183150Y271241D01*
X183269Y270333D01*
X183620Y269486D01*
X184178Y268759D01*
X184905Y268201D01*
X185751Y267850D01*
X186660Y267731D01*
X187568Y267850D01*
X188415Y268201D01*
X189142Y268759D01*
X189700Y269486D01*
X190051Y270333D01*
X190170Y271241D01*
X190051Y272149D01*
X189700Y272996D01*
X189142Y273723D01*
X188415Y274281D01*
X187568Y274632D01*
X186660Y274751D01*
D02*
G37*
G36*
X154340D02*
X153431Y274632D01*
X152585Y274281D01*
X151858Y273723D01*
X151300Y272996D01*
X150949Y272149D01*
X150830Y271241D01*
X150949Y270333D01*
X151300Y269486D01*
X151858Y268759D01*
X152585Y268201D01*
X153431Y267850D01*
X154340Y267731D01*
X155248Y267850D01*
X156095Y268201D01*
X156822Y268759D01*
X157380Y269486D01*
X157731Y270333D01*
X157850Y271241D01*
X157731Y272149D01*
X157380Y272996D01*
X156822Y273723D01*
X156095Y274281D01*
X155248Y274632D01*
X154340Y274751D01*
D02*
G37*
G36*
X646056Y267464D02*
Y264500D01*
X649020D01*
X648966Y264914D01*
X648613Y265765D01*
X648052Y266496D01*
X647321Y267057D01*
X646470Y267410D01*
X646056Y267464D01*
D02*
G37*
G36*
X645056D02*
X644642Y267410D01*
X643791Y267057D01*
X643060Y266496D01*
X642499Y265765D01*
X642146Y264914D01*
X642092Y264500D01*
X645056D01*
Y267464D01*
D02*
G37*
G36*
X563000D02*
Y264500D01*
X565964D01*
X565910Y264914D01*
X565557Y265765D01*
X564996Y266496D01*
X564265Y267057D01*
X563414Y267410D01*
X563000Y267464D01*
D02*
G37*
G36*
X562000D02*
X561586Y267410D01*
X560735Y267057D01*
X560004Y266496D01*
X559443Y265765D01*
X559090Y264914D01*
X559036Y264500D01*
X562000D01*
Y267464D01*
D02*
G37*
G36*
X450000D02*
Y264500D01*
X452964D01*
X452910Y264914D01*
X452557Y265765D01*
X451996Y266496D01*
X451265Y267057D01*
X450414Y267410D01*
X450000Y267464D01*
D02*
G37*
G36*
X449000D02*
X448586Y267410D01*
X447735Y267057D01*
X447004Y266496D01*
X446443Y265765D01*
X446090Y264914D01*
X446036Y264500D01*
X449000D01*
Y267464D01*
D02*
G37*
G36*
X367000D02*
Y264500D01*
X369964D01*
X369910Y264914D01*
X369557Y265765D01*
X368996Y266496D01*
X368265Y267057D01*
X367414Y267410D01*
X367000Y267464D01*
D02*
G37*
G36*
X366000D02*
X365586Y267410D01*
X364735Y267057D01*
X364004Y266496D01*
X363443Y265765D01*
X363090Y264914D01*
X363036Y264500D01*
X366000D01*
Y267464D01*
D02*
G37*
G36*
X254192D02*
Y264500D01*
X257156D01*
X257102Y264914D01*
X256749Y265765D01*
X256188Y266496D01*
X255457Y267057D01*
X254606Y267410D01*
X254192Y267464D01*
D02*
G37*
G36*
X253192D02*
X252778Y267410D01*
X251927Y267057D01*
X251196Y266496D01*
X250635Y265765D01*
X250282Y264914D01*
X250228Y264500D01*
X253192D01*
Y267464D01*
D02*
G37*
G36*
X171000D02*
Y264500D01*
X173964D01*
X173910Y264914D01*
X173557Y265765D01*
X172996Y266496D01*
X172265Y267057D01*
X171414Y267410D01*
X171000Y267464D01*
D02*
G37*
G36*
X170000D02*
X169586Y267410D01*
X168735Y267057D01*
X168004Y266496D01*
X167443Y265765D01*
X167090Y264914D01*
X167036Y264500D01*
X170000D01*
Y267464D01*
D02*
G37*
G36*
X649020Y263500D02*
X646056D01*
Y260536D01*
X646470Y260590D01*
X647321Y260943D01*
X648052Y261504D01*
X648613Y262235D01*
X648966Y263086D01*
X649020Y263500D01*
D02*
G37*
G36*
X645056D02*
X642092D01*
X642146Y263086D01*
X642499Y262235D01*
X643060Y261504D01*
X643791Y260943D01*
X644642Y260590D01*
X645056Y260536D01*
Y263500D01*
D02*
G37*
G36*
X565964D02*
X563000D01*
Y260536D01*
X563414Y260590D01*
X564265Y260943D01*
X564996Y261504D01*
X565557Y262235D01*
X565910Y263086D01*
X565964Y263500D01*
D02*
G37*
G36*
X562000D02*
X559036D01*
X559090Y263086D01*
X559443Y262235D01*
X560004Y261504D01*
X560735Y260943D01*
X561586Y260590D01*
X562000Y260536D01*
Y263500D01*
D02*
G37*
G36*
X452964D02*
X450000D01*
Y260536D01*
X450414Y260590D01*
X451265Y260943D01*
X451996Y261504D01*
X452557Y262235D01*
X452910Y263086D01*
X452964Y263500D01*
D02*
G37*
G36*
X449000D02*
X446036D01*
X446090Y263086D01*
X446443Y262235D01*
X447004Y261504D01*
X447735Y260943D01*
X448586Y260590D01*
X449000Y260536D01*
Y263500D01*
D02*
G37*
G36*
X369964D02*
X367000D01*
Y260536D01*
X367414Y260590D01*
X368265Y260943D01*
X368996Y261504D01*
X369557Y262235D01*
X369910Y263086D01*
X369964Y263500D01*
D02*
G37*
G36*
X366000D02*
X363036D01*
X363090Y263086D01*
X363443Y262235D01*
X364004Y261504D01*
X364735Y260943D01*
X365586Y260590D01*
X366000Y260536D01*
Y263500D01*
D02*
G37*
G36*
X257156D02*
X254192D01*
Y260536D01*
X254606Y260590D01*
X255457Y260943D01*
X256188Y261504D01*
X256749Y262235D01*
X257102Y263086D01*
X257156Y263500D01*
D02*
G37*
G36*
X253192D02*
X250228D01*
X250282Y263086D01*
X250635Y262235D01*
X251196Y261504D01*
X251927Y260943D01*
X252778Y260590D01*
X253192Y260536D01*
Y263500D01*
D02*
G37*
G36*
X173964D02*
X171000D01*
Y260536D01*
X171414Y260590D01*
X172265Y260943D01*
X172996Y261504D01*
X173557Y262235D01*
X173910Y263086D01*
X173964Y263500D01*
D02*
G37*
G36*
X170000D02*
X167036D01*
X167090Y263086D01*
X167443Y262235D01*
X168004Y261504D01*
X168735Y260943D01*
X169586Y260590D01*
X170000Y260536D01*
Y263500D01*
D02*
G37*
G36*
X389286Y265152D02*
X388377Y265033D01*
X387531Y264682D01*
X386804Y264124D01*
X386246Y263397D01*
X385895Y262550D01*
X385776Y261642D01*
X385895Y260734D01*
X386246Y259887D01*
X386804Y259160D01*
X387531Y258602D01*
X388377Y258251D01*
X389286Y258132D01*
X390195Y258251D01*
X391041Y258602D01*
X391768Y259160D01*
X392326Y259887D01*
X392677Y260734D01*
X392796Y261642D01*
X392677Y262550D01*
X392326Y263397D01*
X391768Y264124D01*
X391041Y264682D01*
X390195Y265033D01*
X389286Y265152D01*
D02*
G37*
G36*
X343714D02*
X342806Y265033D01*
X341959Y264682D01*
X341232Y264124D01*
X340674Y263397D01*
X340323Y262550D01*
X340204Y261642D01*
X340323Y260734D01*
X340674Y259887D01*
X341232Y259160D01*
X341959Y258602D01*
X342806Y258251D01*
X343714Y258132D01*
X344622Y258251D01*
X345469Y258602D01*
X346196Y259160D01*
X346754Y259887D01*
X347105Y260734D01*
X347224Y261642D01*
X347105Y262550D01*
X346754Y263397D01*
X346196Y264124D01*
X345469Y264682D01*
X344622Y265033D01*
X343714Y265152D01*
D02*
G37*
G36*
X276478D02*
X275570Y265033D01*
X274723Y264682D01*
X273996Y264124D01*
X273438Y263397D01*
X273087Y262550D01*
X272968Y261642D01*
X273087Y260734D01*
X273438Y259887D01*
X273996Y259160D01*
X274723Y258602D01*
X275570Y258251D01*
X276478Y258132D01*
X277386Y258251D01*
X278233Y258602D01*
X278960Y259160D01*
X279518Y259887D01*
X279869Y260734D01*
X279988Y261642D01*
X279869Y262550D01*
X279518Y263397D01*
X278960Y264124D01*
X278233Y264682D01*
X277386Y265033D01*
X276478Y265152D01*
D02*
G37*
G36*
X230906D02*
X229997Y265033D01*
X229151Y264682D01*
X228424Y264124D01*
X227866Y263397D01*
X227515Y262550D01*
X227396Y261642D01*
X227515Y260734D01*
X227866Y259887D01*
X228424Y259160D01*
X229151Y258602D01*
X229997Y258251D01*
X230906Y258132D01*
X231815Y258251D01*
X232661Y258602D01*
X233388Y259160D01*
X233946Y259887D01*
X234297Y260734D01*
X234416Y261642D01*
X234297Y262550D01*
X233946Y263397D01*
X233388Y264124D01*
X232661Y264682D01*
X231815Y265033D01*
X230906Y265152D01*
D02*
G37*
G36*
X147714D02*
X146806Y265033D01*
X145959Y264682D01*
X145232Y264124D01*
X144674Y263397D01*
X144323Y262550D01*
X144204Y261642D01*
X144323Y260734D01*
X144674Y259887D01*
X145232Y259160D01*
X145959Y258602D01*
X146806Y258251D01*
X147714Y258132D01*
X148623Y258251D01*
X149469Y258602D01*
X150196Y259160D01*
X150754Y259887D01*
X151105Y260734D01*
X151224Y261642D01*
X151105Y262550D01*
X150754Y263397D01*
X150196Y264124D01*
X149469Y264682D01*
X148623Y265033D01*
X147714Y265152D01*
D02*
G37*
G36*
X146308Y253573D02*
X145399Y253454D01*
X144553Y253103D01*
X143826Y252545D01*
X143268Y251818D01*
X142917Y250972D01*
X142798Y250063D01*
X142917Y249154D01*
X143268Y248308D01*
X143826Y247581D01*
X144553Y247023D01*
X145399Y246672D01*
X146308Y246553D01*
X147216Y246672D01*
X148063Y247023D01*
X148790Y247581D01*
X149348Y248308D01*
X149699Y249154D01*
X149818Y250063D01*
X149699Y250972D01*
X149348Y251818D01*
X148790Y252545D01*
X148063Y253103D01*
X147216Y253454D01*
X146308Y253573D01*
D02*
G37*
G36*
X651500Y257530D02*
X650586Y257410D01*
X649735Y257057D01*
X649004Y256496D01*
X648443Y255765D01*
X648090Y254914D01*
X647970Y254000D01*
X648090Y253086D01*
X648443Y252235D01*
X649004Y251504D01*
X649735Y250943D01*
X650326Y250698D01*
Y249331D01*
X649084D01*
Y244181D01*
X649084D01*
X649084Y243819D01*
X649047Y243334D01*
X648798Y243009D01*
X648445Y242158D01*
X648325Y241244D01*
X648445Y240330D01*
X648798Y239479D01*
X649084Y239107D01*
Y238669D01*
X649461D01*
X650090Y238187D01*
X650942Y237834D01*
X651855Y237714D01*
X652769Y237834D01*
X653620Y238187D01*
X654249Y238669D01*
X654627D01*
Y239107D01*
X654912Y239479D01*
X655265Y240330D01*
X655385Y241244D01*
X655265Y242158D01*
X654912Y243009D01*
X654663Y243334D01*
X654627Y243819D01*
Y244181D01*
X654627D01*
Y249331D01*
X653385D01*
Y251034D01*
X653996Y251504D01*
X654557Y252235D01*
X654910Y253086D01*
X655030Y254000D01*
X654910Y254914D01*
X654557Y255765D01*
X653996Y256496D01*
X653265Y257057D01*
X652414Y257410D01*
X651500Y257530D01*
D02*
G37*
G36*
X455799D02*
X454885Y257410D01*
X454034Y257057D01*
X453303Y256496D01*
X452742Y255765D01*
X452389Y254914D01*
X452269Y254000D01*
X452389Y253086D01*
X452742Y252235D01*
X453303Y251504D01*
X454034Y250943D01*
X454270Y250845D01*
Y249331D01*
X453027D01*
Y244181D01*
X453027D01*
X453027Y243819D01*
X452991Y243334D01*
X452742Y243009D01*
X452389Y242158D01*
X452269Y241244D01*
X452389Y240330D01*
X452742Y239479D01*
X453027Y239107D01*
Y238669D01*
X453405D01*
X454034Y238187D01*
X454885Y237834D01*
X455799Y237714D01*
X456713Y237834D01*
X457564Y238187D01*
X458193Y238669D01*
X458571D01*
Y239107D01*
X458856Y239479D01*
X459209Y240330D01*
X459329Y241244D01*
X459209Y242158D01*
X458856Y243009D01*
X458607Y243334D01*
X458571Y243819D01*
Y244181D01*
X458571D01*
Y249331D01*
X457329D01*
Y250845D01*
X457564Y250943D01*
X458295Y251504D01*
X458856Y252235D01*
X459209Y253086D01*
X459329Y254000D01*
X459209Y254914D01*
X458856Y255765D01*
X458295Y256496D01*
X457564Y257057D01*
X456713Y257410D01*
X455799Y257530D01*
D02*
G37*
G36*
X386556Y242666D02*
X385648Y242547D01*
X384801Y242196D01*
X384074Y241638D01*
X383516Y240911D01*
X383165Y240065D01*
X383046Y239156D01*
X383165Y238247D01*
X383516Y237401D01*
X384074Y236674D01*
X384801Y236116D01*
X385648Y235765D01*
X386556Y235646D01*
X387464Y235765D01*
X388311Y236116D01*
X389038Y236674D01*
X389596Y237401D01*
X389947Y238247D01*
X390066Y239156D01*
X389947Y240065D01*
X389596Y240911D01*
X389038Y241638D01*
X388311Y242196D01*
X387464Y242547D01*
X386556Y242666D01*
D02*
G37*
G36*
X346444D02*
X345535Y242547D01*
X344689Y242196D01*
X343962Y241638D01*
X343404Y240911D01*
X343053Y240065D01*
X342934Y239156D01*
X343053Y238247D01*
X343404Y237401D01*
X343962Y236674D01*
X344689Y236116D01*
X345535Y235765D01*
X346444Y235646D01*
X347353Y235765D01*
X348199Y236116D01*
X348926Y236674D01*
X349484Y237401D01*
X349835Y238247D01*
X349954Y239156D01*
X349835Y240065D01*
X349484Y240911D01*
X348926Y241638D01*
X348199Y242196D01*
X347353Y242547D01*
X346444Y242666D01*
D02*
G37*
G36*
X273748D02*
X272839Y242547D01*
X271993Y242196D01*
X271266Y241638D01*
X270708Y240911D01*
X270357Y240065D01*
X270238Y239156D01*
X270357Y238247D01*
X270708Y237401D01*
X271266Y236674D01*
X271993Y236116D01*
X272839Y235765D01*
X273748Y235646D01*
X274657Y235765D01*
X275503Y236116D01*
X276230Y236674D01*
X276788Y237401D01*
X277139Y238247D01*
X277258Y239156D01*
X277139Y240065D01*
X276788Y240911D01*
X276230Y241638D01*
X275503Y242196D01*
X274657Y242547D01*
X273748Y242666D01*
D02*
G37*
G36*
X150444D02*
X149536Y242547D01*
X148689Y242196D01*
X147962Y241638D01*
X147404Y240911D01*
X147053Y240065D01*
X146934Y239156D01*
X147053Y238247D01*
X147404Y237401D01*
X147962Y236674D01*
X148689Y236116D01*
X149536Y235765D01*
X150444Y235646D01*
X151353Y235765D01*
X152199Y236116D01*
X152926Y236674D01*
X153484Y237401D01*
X153835Y238247D01*
X153954Y239156D01*
X153835Y240065D01*
X153484Y240911D01*
X152926Y241638D01*
X152199Y242196D01*
X151353Y242547D01*
X150444Y242666D01*
D02*
G37*
G36*
X656881Y234932D02*
X655972Y234813D01*
X655126Y234462D01*
X654399Y233904D01*
X653841Y233177D01*
X653490Y232330D01*
X653371Y231422D01*
X653490Y230514D01*
X653841Y229667D01*
X654399Y228940D01*
X655126Y228382D01*
X655972Y228031D01*
X656881Y227912D01*
X657790Y228031D01*
X658636Y228382D01*
X659363Y228940D01*
X659921Y229667D01*
X660272Y230514D01*
X660391Y231422D01*
X660272Y232330D01*
X659921Y233177D01*
X659363Y233904D01*
X658636Y234462D01*
X657790Y234813D01*
X656881Y234932D01*
D02*
G37*
G36*
X634231D02*
X633322Y234813D01*
X632476Y234462D01*
X631749Y233904D01*
X631191Y233177D01*
X630840Y232330D01*
X630721Y231422D01*
X630840Y230514D01*
X631191Y229667D01*
X631749Y228940D01*
X632476Y228382D01*
X633322Y228031D01*
X634231Y227912D01*
X635140Y228031D01*
X635986Y228382D01*
X636713Y228940D01*
X637271Y229667D01*
X637622Y230514D01*
X637741Y231422D01*
X637622Y232330D01*
X637271Y233177D01*
X636713Y233904D01*
X635986Y234462D01*
X635140Y234813D01*
X634231Y234932D01*
D02*
G37*
G36*
X573825D02*
X572917Y234813D01*
X572070Y234462D01*
X571343Y233904D01*
X570785Y233177D01*
X570434Y232330D01*
X570315Y231422D01*
X570434Y230514D01*
X570785Y229667D01*
X571343Y228940D01*
X572070Y228382D01*
X572917Y228031D01*
X573825Y227912D01*
X574733Y228031D01*
X575580Y228382D01*
X576307Y228940D01*
X576865Y229667D01*
X577216Y230514D01*
X577335Y231422D01*
X577216Y232330D01*
X576865Y233177D01*
X576307Y233904D01*
X575580Y234462D01*
X574733Y234813D01*
X573825Y234932D01*
D02*
G37*
G36*
X438175D02*
X437266Y234813D01*
X436420Y234462D01*
X435693Y233904D01*
X435135Y233177D01*
X434784Y232330D01*
X434665Y231422D01*
X434784Y230514D01*
X435135Y229667D01*
X435693Y228940D01*
X436420Y228382D01*
X437266Y228031D01*
X438175Y227912D01*
X439083Y228031D01*
X439930Y228382D01*
X440657Y228940D01*
X441215Y229667D01*
X441566Y230514D01*
X441685Y231422D01*
X441566Y232330D01*
X441215Y233177D01*
X440657Y233904D01*
X439930Y234462D01*
X439083Y234813D01*
X438175Y234932D01*
D02*
G37*
G36*
X355175D02*
X354267Y234813D01*
X353420Y234462D01*
X352693Y233904D01*
X352135Y233177D01*
X351784Y232330D01*
X351665Y231422D01*
X351784Y230514D01*
X352135Y229667D01*
X352693Y228940D01*
X353420Y228382D01*
X354267Y228031D01*
X355175Y227912D01*
X356083Y228031D01*
X356930Y228382D01*
X357657Y228940D01*
X358215Y229667D01*
X358566Y230514D01*
X358685Y231422D01*
X358566Y232330D01*
X358215Y233177D01*
X357657Y233904D01*
X356930Y234462D01*
X356083Y234813D01*
X355175Y234932D01*
D02*
G37*
G36*
X265017D02*
X264108Y234813D01*
X263262Y234462D01*
X262535Y233904D01*
X261977Y233177D01*
X261626Y232330D01*
X261507Y231422D01*
X261626Y230514D01*
X261977Y229667D01*
X262535Y228940D01*
X263262Y228382D01*
X264108Y228031D01*
X265017Y227912D01*
X265926Y228031D01*
X266772Y228382D01*
X267499Y228940D01*
X268057Y229667D01*
X268408Y230514D01*
X268527Y231422D01*
X268408Y232330D01*
X268057Y233177D01*
X267499Y233904D01*
X266772Y234462D01*
X265926Y234813D01*
X265017Y234932D01*
D02*
G37*
G36*
X159175D02*
X158266Y234813D01*
X157420Y234462D01*
X156693Y233904D01*
X156135Y233177D01*
X155784Y232330D01*
X155665Y231422D01*
X155784Y230514D01*
X156135Y229667D01*
X156693Y228940D01*
X157420Y228382D01*
X158266Y228031D01*
X159175Y227912D01*
X160083Y228031D01*
X160930Y228382D01*
X161657Y228940D01*
X162215Y229667D01*
X162566Y230514D01*
X162685Y231422D01*
X162566Y232330D01*
X162215Y233177D01*
X161657Y233904D01*
X160930Y234462D01*
X160083Y234813D01*
X159175Y234932D01*
D02*
G37*
G36*
X686500Y175917D02*
X684760Y175746D01*
X683088Y175238D01*
X681546Y174414D01*
X680195Y173305D01*
X679086Y171954D01*
X678262Y170412D01*
X677754Y168740D01*
X677583Y167000D01*
X677754Y165260D01*
X678262Y163588D01*
X679086Y162046D01*
X680195Y160695D01*
X681546Y159586D01*
X683088Y158762D01*
X684760Y158254D01*
X686500Y158083D01*
X688240Y158254D01*
X689912Y158762D01*
X691454Y159586D01*
X692805Y160695D01*
X693914Y162046D01*
X694738Y163588D01*
X695246Y165260D01*
X695417Y167000D01*
X695246Y168740D01*
X694738Y170412D01*
X693914Y171954D01*
X692805Y173305D01*
X691454Y174414D01*
X689912Y175238D01*
X688240Y175746D01*
X686500Y175917D01*
D02*
G37*
G36*
X551000D02*
X549260Y175746D01*
X547588Y175238D01*
X546046Y174414D01*
X544695Y173305D01*
X543586Y171954D01*
X542762Y170412D01*
X542254Y168740D01*
X542083Y167000D01*
X542254Y165260D01*
X542762Y163588D01*
X543586Y162046D01*
X544695Y160695D01*
X546046Y159586D01*
X547588Y158762D01*
X549260Y158254D01*
X551000Y158083D01*
X552740Y158254D01*
X554412Y158762D01*
X555954Y159586D01*
X557305Y160695D01*
X558414Y162046D01*
X559238Y163588D01*
X559746Y165260D01*
X559917Y167000D01*
X559746Y168740D01*
X559238Y170412D01*
X558414Y171954D01*
X557305Y173305D01*
X555954Y174414D01*
X554412Y175238D01*
X552740Y175746D01*
X551000Y175917D01*
D02*
G37*
G36*
X267000D02*
X265260Y175746D01*
X263588Y175238D01*
X262046Y174414D01*
X260695Y173305D01*
X259586Y171954D01*
X258762Y170412D01*
X258254Y168740D01*
X258083Y167000D01*
X258254Y165260D01*
X258762Y163588D01*
X259586Y162046D01*
X260695Y160695D01*
X262046Y159586D01*
X263588Y158762D01*
X265260Y158254D01*
X267000Y158083D01*
X268740Y158254D01*
X270412Y158762D01*
X271954Y159586D01*
X273305Y160695D01*
X274414Y162046D01*
X275238Y163588D01*
X275746Y165260D01*
X275917Y167000D01*
X275746Y168740D01*
X275238Y170412D01*
X274414Y171954D01*
X273305Y173305D01*
X271954Y174414D01*
X270412Y175238D01*
X268740Y175746D01*
X267000Y175917D01*
D02*
G37*
G36*
X129500D02*
X127760Y175746D01*
X126088Y175238D01*
X124546Y174414D01*
X123195Y173305D01*
X122086Y171954D01*
X121262Y170412D01*
X120754Y168740D01*
X120583Y167000D01*
X120754Y165260D01*
X121262Y163588D01*
X122086Y162046D01*
X123195Y160695D01*
X124546Y159586D01*
X126088Y158762D01*
X127760Y158254D01*
X129500Y158083D01*
X131240Y158254D01*
X132912Y158762D01*
X134454Y159586D01*
X135805Y160695D01*
X136914Y162046D01*
X137738Y163588D01*
X138246Y165260D01*
X138417Y167000D01*
X138246Y168740D01*
X137738Y170412D01*
X136914Y171954D01*
X135805Y173305D01*
X134454Y174414D01*
X132912Y175238D01*
X131240Y175746D01*
X129500Y175917D01*
D02*
G37*
%LPD*%
G36*
X259846Y323009D02*
X196968Y260131D01*
X196545Y260414D01*
X196677Y260734D01*
X196796Y261642D01*
X196677Y262550D01*
X196326Y263397D01*
X195768Y264124D01*
X195041Y264682D01*
X194194Y265033D01*
X193286Y265152D01*
X192377Y265033D01*
X191531Y264682D01*
X191247Y265084D01*
X249634Y323471D01*
X259654D01*
X259846Y323009D01*
D02*
G37*
G36*
X190246Y263397D02*
X189895Y262550D01*
X189776Y261642D01*
X189895Y260734D01*
X190246Y259887D01*
X190804Y259160D01*
X191531Y258602D01*
X192377Y258251D01*
X193286Y258132D01*
X194194Y258251D01*
X194514Y258383D01*
X194797Y257960D01*
X193419Y256581D01*
X185123Y248285D01*
X179772D01*
Y249331D01*
X176147D01*
X175955Y249793D01*
X189844Y263681D01*
X190246Y263397D01*
D02*
G37*
G36*
X257220Y247365D02*
Y244862D01*
X256775Y244543D01*
X256719Y244544D01*
X256188Y245236D01*
X255457Y245797D01*
X254606Y246150D01*
X253692Y246270D01*
X252778Y246150D01*
X251927Y245797D01*
X251196Y245236D01*
X250635Y244505D01*
X250282Y243654D01*
X250162Y242740D01*
X250282Y241827D01*
X250380Y241591D01*
X245721Y236932D01*
X240718D01*
X240133Y236815D01*
X239705Y236529D01*
X236637D01*
X236391Y237029D01*
X236676Y237401D01*
X237027Y238247D01*
X237146Y239156D01*
X237027Y240065D01*
X236676Y240911D01*
X236118Y241638D01*
X235391Y242196D01*
X234544Y242547D01*
X233636Y242666D01*
X232728Y242547D01*
X231881Y242196D01*
X231154Y241638D01*
X230596Y240911D01*
X230245Y240065D01*
X230126Y239156D01*
X230245Y238247D01*
X230596Y237401D01*
X230881Y237029D01*
X230634Y236529D01*
X193558D01*
X193311Y237029D01*
X193596Y237401D01*
X193947Y238247D01*
X194066Y239156D01*
X193947Y240065D01*
X193596Y240911D01*
X193038Y241638D01*
X192311Y242196D01*
X191464Y242547D01*
X190556Y242666D01*
X189647Y242547D01*
X188801Y242196D01*
X188074Y241638D01*
X187516Y240911D01*
X187165Y240065D01*
X187046Y239156D01*
X187165Y238247D01*
X187516Y237401D01*
X187801Y237029D01*
X187555Y236529D01*
X184487D01*
X184059Y236815D01*
X183474Y236932D01*
X173074D01*
X170932Y239074D01*
X171092Y239548D01*
X171414Y239590D01*
X172265Y239943D01*
X172996Y240504D01*
X173086Y240621D01*
X173569Y240491D01*
X173590Y240330D01*
X173943Y239479D01*
X174228Y239107D01*
Y238669D01*
X174606D01*
X175235Y238187D01*
X176086Y237834D01*
X177000Y237714D01*
X177914Y237834D01*
X178765Y238187D01*
X179394Y238669D01*
X179772D01*
Y239107D01*
X180057Y239479D01*
X180410Y240330D01*
X180530Y241244D01*
X180410Y242158D01*
X180057Y243009D01*
X179808Y243334D01*
X179772Y243819D01*
Y244181D01*
X179772D01*
Y245227D01*
X185756D01*
X186341Y245343D01*
X186837Y245674D01*
X190787Y249624D01*
X191261Y249464D01*
X191301Y249154D01*
X191652Y248308D01*
X192210Y247581D01*
X192937Y247023D01*
X193783Y246672D01*
X194692Y246553D01*
X195600Y246672D01*
X196447Y247023D01*
X197174Y247581D01*
X197732Y248308D01*
X198083Y249154D01*
X198202Y250063D01*
X198083Y250972D01*
X197732Y251818D01*
X197174Y252545D01*
X196447Y253103D01*
X195600Y253454D01*
X195472Y253471D01*
X195505Y253971D01*
X228687D01*
X228720Y253471D01*
X228591Y253454D01*
X227745Y253103D01*
X227018Y252545D01*
X226460Y251818D01*
X226109Y250972D01*
X225990Y250063D01*
X226109Y249154D01*
X226460Y248308D01*
X227018Y247581D01*
X227745Y247023D01*
X228591Y246672D01*
X229500Y246553D01*
X230409Y246672D01*
X231255Y247023D01*
X231982Y247581D01*
X232540Y248308D01*
X232891Y249154D01*
X233010Y250063D01*
X232891Y250972D01*
X232540Y251818D01*
X231982Y252545D01*
X231255Y253103D01*
X230409Y253454D01*
X230280Y253471D01*
X230313Y253971D01*
X250614D01*
X257220Y247365D01*
D02*
G37*
G36*
X421204Y261133D02*
Y260112D01*
X420742Y259921D01*
X353571Y327092D01*
X353792Y327540D01*
X354000Y327513D01*
X354728Y327609D01*
X421204Y261133D01*
D02*
G37*
G36*
X458346Y304991D02*
X458154Y304529D01*
X456634D01*
X434136Y327027D01*
X434315Y327555D01*
X435032Y327649D01*
X435496Y327841D01*
X458346Y304991D01*
D02*
G37*
G36*
X452346Y300991D02*
X452154Y300529D01*
X450836D01*
X424315Y327050D01*
X424495Y327578D01*
X425032Y327649D01*
X425496Y327841D01*
X452346Y300991D01*
D02*
G37*
G36*
X446346Y296991D02*
X446154Y296529D01*
X445133D01*
X415081Y326581D01*
X414585Y326913D01*
X414535Y327089D01*
X414867Y327627D01*
X415032Y327649D01*
X415496Y327841D01*
X446346Y296991D01*
D02*
G37*
G36*
X440346Y292991D02*
X440154Y292529D01*
X438836D01*
X404315Y327050D01*
X404495Y327578D01*
X405032Y327649D01*
X405496Y327841D01*
X440346Y292991D01*
D02*
G37*
G36*
X434346Y288991D02*
X434154Y288529D01*
X432836D01*
X394315Y327050D01*
X394495Y327578D01*
X395032Y327649D01*
X395496Y327841D01*
X434346Y288991D01*
D02*
G37*
G36*
X428346Y284991D02*
X428154Y284529D01*
X426836D01*
X384315Y327050D01*
X384495Y327578D01*
X385032Y327649D01*
X385496Y327841D01*
X428346Y284991D01*
D02*
G37*
G36*
X650949Y280567D02*
X650788Y280093D01*
X650480Y280053D01*
X650254Y279959D01*
X609204Y321009D01*
X609396Y321471D01*
X610045D01*
X650949Y280567D01*
D02*
G37*
G36*
X546989Y301471D02*
X567893Y280567D01*
X567732Y280093D01*
X567423Y280053D01*
X567198Y279959D01*
X546148Y301009D01*
X546340Y301471D01*
X546989D01*
D02*
G37*
G36*
X423419Y279919D02*
X423915Y279587D01*
X424500Y279471D01*
X440827D01*
X441053Y278971D01*
X440628Y278417D01*
X440534Y278191D01*
X423174D01*
X374315Y327050D01*
X374495Y327578D01*
X375032Y327649D01*
X375496Y327841D01*
X423419Y279919D01*
D02*
G37*
G36*
X550867Y303471D02*
X578801Y275536D01*
X578482Y275148D01*
X578085Y275413D01*
X577500Y275529D01*
X577256D01*
X549777Y303009D01*
X549968Y303471D01*
X550867D01*
D02*
G37*
G36*
X415903Y257434D02*
X415669Y256961D01*
X415142Y257030D01*
X414229Y256910D01*
X413993Y256812D01*
X413724Y257081D01*
X413228Y257413D01*
X412642Y257529D01*
X403155D01*
X403057Y257765D01*
X402496Y258496D01*
X401765Y259057D01*
X400914Y259410D01*
X400000Y259530D01*
X399086Y259410D01*
X398235Y259057D01*
X397529Y258516D01*
X397358Y258544D01*
X397029Y258656D01*
Y273703D01*
X396913Y274288D01*
X396581Y274784D01*
X344315Y327050D01*
X344495Y327578D01*
X345032Y327649D01*
X345496Y327841D01*
X415903Y257434D01*
D02*
G37*
G36*
X535011Y251197D02*
X534917Y250972D01*
X534799Y250071D01*
X534647Y249954D01*
X534354Y249809D01*
X493154Y291009D01*
X493346Y291471D01*
X494737D01*
X535011Y251197D01*
D02*
G37*
G36*
X617988Y251006D02*
X617973Y250972D01*
X617854Y250063D01*
X617867Y249966D01*
X617418Y249745D01*
X594348Y272815D01*
X594303Y272845D01*
X556140Y311009D01*
X556331Y311471D01*
X557523D01*
X617988Y251006D01*
D02*
G37*
G36*
X539264Y240573D02*
X539053Y240065D01*
X538934Y239156D01*
X539053Y238247D01*
X539404Y237401D01*
X539594Y237154D01*
X539373Y236705D01*
X472627D01*
X472406Y237154D01*
X472596Y237401D01*
X472947Y238247D01*
X473066Y239156D01*
X472947Y240065D01*
X472853Y240290D01*
X479348Y246785D01*
X479679Y247281D01*
X479796Y247866D01*
Y271396D01*
X479679Y271981D01*
X479348Y272477D01*
X462816Y289009D01*
X463008Y289471D01*
X490367D01*
X539264Y240573D01*
D02*
G37*
D11*
X578660Y271241D02*
Y271947D01*
X576607Y274000D02*
X578660Y271947D01*
X462700Y235176D02*
X544093D01*
X462474Y235402D02*
X462700Y235176D01*
X544093D02*
X545417Y236500D01*
X443201Y242740D02*
X450539Y235402D01*
X462474D01*
X172441D02*
X183474D01*
X165103Y242740D02*
X172441Y235402D01*
X183474D02*
X183876Y235000D01*
X240718Y235402D02*
X246354D01*
X240316Y235000D02*
X240718Y235402D01*
X246354D02*
X253692Y242740D01*
X183876Y235000D02*
X240316D01*
X307280Y325000D02*
X323780Y341500D01*
X249000Y325000D02*
X307280D01*
X170500Y246500D02*
X249000Y325000D01*
X323780Y341500D02*
X324000D01*
X308108Y323000D02*
X322156Y337047D01*
X262000Y323000D02*
X308108D01*
X194500Y255500D02*
X262000Y323000D01*
X651855Y246756D02*
Y253645D01*
X651500Y254000D02*
X651855Y253645D01*
X568799Y246756D02*
Y254000D01*
X455799Y246756D02*
Y254000D01*
X412642Y256000D02*
X415142Y253500D01*
X400000Y256000D02*
X412642D01*
X422734Y257222D02*
Y261766D01*
X420734Y256394D02*
Y257766D01*
X423142Y252229D02*
X425308Y250063D01*
X423142Y252229D02*
Y256814D01*
X422734Y257222D02*
X423142Y256814D01*
X420734Y256394D02*
X421142Y255985D01*
Y251015D02*
Y255985D01*
X420734Y250606D02*
X421142Y251015D01*
X420734Y247866D02*
Y250606D01*
X418734Y255565D02*
Y256766D01*
Y255565D02*
X419142Y255157D01*
Y251843D02*
Y255157D01*
X418734Y251435D02*
X419142Y251843D01*
X418734Y241373D02*
Y251435D01*
X372000Y255500D02*
X372000Y255500D01*
X364055Y255500D02*
X372000D01*
X365441Y237500D02*
X379000D01*
X360201Y242740D02*
X365441Y237500D01*
X364055Y255500D02*
X372799Y246756D01*
X251247Y255500D02*
X364055D01*
X185756Y246756D02*
X194500Y255500D01*
X251247D02*
X259991Y246756D01*
X194500Y255500D02*
X251247D01*
X177000Y246756D02*
X185756D01*
X322156Y337047D02*
X332000D01*
Y339500D01*
X334000Y341500D01*
X339547Y333344D02*
X344000Y337797D01*
X339547Y329656D02*
Y333344D01*
Y329656D02*
X395500Y273703D01*
X508000Y297000D02*
X533759Y271241D01*
X546340D01*
X448500Y297000D02*
X508000D01*
X501500Y295000D02*
X534858Y261642D01*
X444500Y295000D02*
X501500D01*
X495371Y293000D02*
X538308Y250063D01*
X442500Y293000D02*
X495371D01*
X491000Y291000D02*
X542444Y239556D01*
X438203Y291000D02*
X491000D01*
X460662Y289000D02*
X478266Y271396D01*
X436500Y289000D02*
X460662D01*
X459828Y287000D02*
X476266Y270562D01*
X432203Y287000D02*
X459828D01*
X459000Y285000D02*
X472286Y271714D01*
X430500Y285000D02*
X459000D01*
X454623Y283000D02*
X465660Y271963D01*
X426203Y283000D02*
X454623D01*
X562500Y241000D02*
Y242500D01*
X558000Y236500D02*
X562500Y241000D01*
X545417Y236500D02*
X558000D01*
X395500Y239563D02*
Y273703D01*
X366500Y210563D02*
X395500Y239563D01*
X593266Y271734D02*
X625500Y239500D01*
X420734Y247866D02*
X429444Y239156D01*
X418734Y241373D02*
X445926Y214181D01*
X164201Y242740D02*
X165103D01*
X170500Y243000D02*
Y246500D01*
X344000Y337797D02*
Y341500D01*
Y331500D02*
X418734Y256766D01*
X349547Y333344D02*
X354000Y337797D01*
X349547Y328953D02*
Y333344D01*
Y328953D02*
X420734Y257766D01*
X449500Y210563D02*
Y214181D01*
X445926D02*
X449500D01*
X253692Y210563D02*
X366500D01*
X170500D02*
X253692D01*
X562500D02*
X645556D01*
X449500D02*
X562500D01*
X645556Y218437D02*
Y228630D01*
X562500Y218437D02*
Y228630D01*
X449500Y218437D02*
Y228630D01*
X366500Y218437D02*
Y228630D01*
X253692Y218437D02*
Y228630D01*
X170500Y218437D02*
Y228630D01*
X354000Y337797D02*
Y341500D01*
X359547Y333344D02*
X364000Y337797D01*
X359547Y329121D02*
Y333344D01*
Y329121D02*
X426714Y261954D01*
X354000Y330500D02*
X422734Y261766D01*
X354000Y330500D02*
Y331500D01*
X424259Y271241D02*
X433340D01*
X364000Y331500D02*
X424259Y271241D01*
X426714Y261642D02*
Y261954D01*
X364000Y337797D02*
Y341500D01*
X374000Y337797D02*
Y341500D01*
X369547Y333344D02*
X374000Y337797D01*
X369547Y329656D02*
Y333344D01*
Y329656D02*
X422541Y276662D01*
X443668D01*
X374000Y331500D02*
X424500Y281000D01*
X450994D01*
X384000Y331500D02*
X430500Y285000D01*
X389547Y329656D02*
X432203Y287000D01*
X394000Y331500D02*
X436500Y289000D01*
X399547Y329656D02*
X438203Y291000D01*
X404000Y331500D02*
X442500Y293000D01*
X414000Y325500D02*
X444500Y295000D01*
X414000Y331500D02*
X448500Y297000D01*
X384000Y337797D02*
Y341500D01*
X379547Y333344D02*
X384000Y337797D01*
X379547Y329656D02*
Y333344D01*
Y329656D02*
X426203Y283000D01*
X476266Y251871D02*
Y270562D01*
X478266Y247866D02*
Y271396D01*
X389500Y337000D02*
X394000Y341500D01*
X389500Y332500D02*
Y337000D01*
Y332500D02*
X389547Y332453D01*
Y329656D02*
Y332453D01*
X404000Y337797D02*
Y341500D01*
X399547Y333344D02*
X404000Y337797D01*
X399547Y329656D02*
Y333344D01*
X424000Y337953D02*
Y341500D01*
X419547Y333500D02*
X424000Y337953D01*
X419547Y329656D02*
Y333500D01*
X434000Y337797D02*
Y341500D01*
X429547Y333344D02*
X434000Y337797D01*
X413703Y325500D02*
X414000D01*
X409547Y329656D02*
X413703Y325500D01*
X409547Y329656D02*
Y333344D01*
X414000Y337797D01*
Y341500D01*
X413000Y332500D02*
X414000Y331500D01*
X419547Y329656D02*
X450203Y299000D01*
X459000D01*
X424000Y331500D02*
X454500Y301000D01*
X459828D01*
X429547Y329453D02*
X456000Y303000D01*
X429547Y329453D02*
Y333344D01*
X456000Y303000D02*
X463000D01*
X553157Y309000D02*
X591266Y270891D01*
X465500Y309000D02*
X553157D01*
X444000Y330500D02*
X465500Y309000D01*
X553985Y311000D02*
X593252Y271734D01*
X467799Y311000D02*
X553985D01*
X449547Y329252D02*
X467799Y311000D01*
X471500Y313000D02*
X558157D01*
X454000Y330500D02*
X471500Y313000D01*
X474203Y315000D02*
X569412D01*
X459547Y329656D02*
X474203Y315000D01*
X477500Y317000D02*
X583637D01*
X464000Y330500D02*
X477500Y317000D01*
X480203Y319000D02*
X597386D01*
X469547Y329656D02*
X480203Y319000D01*
X483500Y321000D02*
X607050D01*
X474000Y330500D02*
X483500Y321000D01*
X486203Y323000D02*
X610679D01*
X479547Y329656D02*
X486203Y323000D01*
X489500Y325000D02*
X626500D01*
X484000Y330500D02*
X489500Y325000D01*
X492203Y327000D02*
X627328D01*
X489547Y329656D02*
X492203Y327000D01*
X495500Y329000D02*
X628157D01*
X494000Y330500D02*
X495500Y329000D01*
X434000Y331500D02*
X460500Y305000D01*
X462203D01*
Y307000D02*
X463500D01*
X439547Y329656D02*
X462203Y307000D01*
X439547Y329656D02*
Y333344D01*
X444000Y337797D01*
Y341500D01*
X449547Y329252D02*
Y334000D01*
X454000Y338453D01*
X558157Y313000D02*
X621094Y250063D01*
X593252Y271734D02*
X593266D01*
X591266Y247866D02*
Y270891D01*
X621094Y250063D02*
X621364D01*
X674000Y264441D02*
X674322Y264119D01*
Y251809D02*
Y264119D01*
X674000Y251487D02*
X674322Y251809D01*
X674000Y247544D02*
Y251487D01*
X665612Y239156D02*
X674000Y247544D01*
Y264441D02*
Y283328D01*
X672828Y284500D02*
X674000Y283328D01*
X672657Y284500D02*
X672828D01*
X628157Y329000D02*
X672657Y284500D01*
X627328Y327000D02*
X671828Y282500D01*
X668342Y261642D02*
Y283158D01*
X626500Y325000D02*
X668342Y283158D01*
X479547Y329656D02*
Y333344D01*
X469547Y329656D02*
Y333344D01*
X459547Y329656D02*
Y333344D01*
X669748Y250063D02*
X672322Y252637D01*
Y263291D01*
X672000Y263613D02*
X672322Y263291D01*
X672000Y263613D02*
Y282500D01*
X671828D02*
X672000D01*
X489547Y329656D02*
Y333344D01*
X494000Y337797D01*
Y341500D01*
X482453Y335953D02*
X484000Y337500D01*
X482156Y335953D02*
X482453D01*
X479547Y333344D02*
X482156Y335953D01*
X484000Y337500D02*
Y340500D01*
X472239Y335953D02*
X474000Y337714D01*
X472156Y335953D02*
X472239D01*
X469547Y333344D02*
X472156Y335953D01*
X474000Y337714D02*
Y340500D01*
X464000Y337797D02*
Y340500D01*
X459547Y333344D02*
X464000Y337797D01*
X454000Y338453D02*
Y340500D01*
X463500Y307000D02*
X552328Y307000D01*
X462203Y305000D02*
X551500Y305000D01*
X463000Y303000D02*
X547623Y303000D01*
X459828Y301000D02*
X543994Y301000D01*
X459000Y299000D02*
X534330Y299000D01*
X661716Y271241D02*
Y271963D01*
X610679Y323000D02*
X661716Y271963D01*
X607050Y321000D02*
X651388Y276662D01*
X597386Y319000D02*
X639724Y276662D01*
X569412Y315000D02*
X622770Y261642D01*
X583637Y317000D02*
X629396Y271241D01*
X625500Y239156D02*
Y239500D01*
X469556Y239156D02*
X478266Y247866D01*
X582556Y239156D02*
X591266Y247866D01*
X589266Y251871D02*
Y270062D01*
X552328Y307000D02*
X589266Y270062D01*
X586692Y250063D02*
X588500Y251871D01*
X589266D01*
X551500Y305000D02*
X585286Y271214D01*
X576607Y274000D02*
X576623D01*
X547623Y303000D02*
X576623Y274000D01*
X585286Y261642D02*
Y271214D01*
X543994Y301000D02*
X568332Y276662D01*
X534330Y299000D02*
X556668Y276662D01*
X450994Y281000D02*
X455332Y276662D01*
X534858Y261642D02*
X539714D01*
X542444Y239156D02*
Y239556D01*
X473692Y250063D02*
X475500Y251871D01*
X476266D01*
X465660Y271241D02*
Y271963D01*
X472286Y261642D02*
Y271714D01*
D23*
X181825Y231422D02*
D03*
X159175D02*
D03*
X170500Y228630D02*
D03*
X194692Y250063D02*
D03*
X193286Y261642D02*
D03*
X186660Y271241D02*
D03*
X176332Y276662D02*
D03*
X164668D02*
D03*
X154340Y271241D02*
D03*
X147714Y261642D02*
D03*
X146308Y250063D02*
D03*
X150444Y239156D02*
D03*
X190556D02*
D03*
X273748D02*
D03*
X233636D02*
D03*
X229500Y250063D02*
D03*
X230906Y261642D02*
D03*
X237532Y271241D02*
D03*
X247860Y276662D02*
D03*
X259524D02*
D03*
X269852Y271241D02*
D03*
X276478Y261642D02*
D03*
X277884Y250063D02*
D03*
X253692Y228630D02*
D03*
X242367Y231422D02*
D03*
X265017D02*
D03*
X377825D02*
D03*
X355175D02*
D03*
X366500Y228630D02*
D03*
X390692Y250063D02*
D03*
X389286Y261642D02*
D03*
X382660Y271241D02*
D03*
X372332Y276662D02*
D03*
X360668D02*
D03*
X350340Y271241D02*
D03*
X343714Y261642D02*
D03*
X342308Y250063D02*
D03*
X346444Y239156D02*
D03*
X386556D02*
D03*
X469556D02*
D03*
X429444D02*
D03*
X425308Y250063D02*
D03*
X426714Y261642D02*
D03*
X433340Y271241D02*
D03*
X443668Y276662D02*
D03*
X455332D02*
D03*
X465660Y271241D02*
D03*
X472286Y261642D02*
D03*
X473692Y250063D02*
D03*
X449500Y228630D02*
D03*
X438175Y231422D02*
D03*
X460825D02*
D03*
X573825D02*
D03*
X551175D02*
D03*
X562500Y228630D02*
D03*
X586692Y250063D02*
D03*
X585286Y261642D02*
D03*
X578660Y271241D02*
D03*
X568332Y276662D02*
D03*
X556668D02*
D03*
X546340Y271241D02*
D03*
X539714Y261642D02*
D03*
X538308Y250063D02*
D03*
X542444Y239156D02*
D03*
X582556D02*
D03*
X665612D02*
D03*
X625500D02*
D03*
X621364Y250063D02*
D03*
X622770Y261642D02*
D03*
X629396Y271241D02*
D03*
X639724Y276662D02*
D03*
X651388D02*
D03*
X661716Y271241D02*
D03*
X668342Y261642D02*
D03*
X669748Y250063D02*
D03*
X645556Y228630D02*
D03*
X634231Y231422D02*
D03*
X656881D02*
D03*
D24*
X324000Y331500D02*
D03*
Y341500D02*
D03*
X334000Y331500D02*
D03*
Y341500D02*
D03*
X344000Y331500D02*
D03*
Y341500D02*
D03*
X354000Y331500D02*
D03*
Y341500D02*
D03*
X364000Y331500D02*
D03*
Y341500D02*
D03*
X374000Y331500D02*
D03*
Y341500D02*
D03*
X384000Y331500D02*
D03*
Y341500D02*
D03*
X394000Y331500D02*
D03*
Y341500D02*
D03*
X404000Y331500D02*
D03*
Y341500D02*
D03*
X414000Y331500D02*
D03*
Y341500D02*
D03*
X424000Y331500D02*
D03*
Y341500D02*
D03*
X434000Y331500D02*
D03*
Y341500D02*
D03*
X444000Y331500D02*
D03*
Y341500D02*
D03*
X454000Y331500D02*
D03*
Y341500D02*
D03*
X464000Y331500D02*
D03*
Y341500D02*
D03*
X474000Y331500D02*
D03*
Y341500D02*
D03*
X484000Y331500D02*
D03*
Y341500D02*
D03*
X494000Y331500D02*
D03*
D25*
Y341500D02*
D03*
D26*
X129500Y167000D02*
D03*
X686500D02*
D03*
Y338500D02*
D03*
X129500D02*
D03*
X267000Y167000D02*
D03*
X551000D02*
D03*
Y338500D02*
D03*
X267000D02*
D03*
D27*
X170500Y264000D02*
D03*
X253692D02*
D03*
X366500D02*
D03*
X645556D02*
D03*
X562500D02*
D03*
X449500D02*
D03*
X651500Y254000D02*
D03*
X568799D02*
D03*
X455799D02*
D03*
X415142Y253500D02*
D03*
X400000Y256000D02*
D03*
X372000Y255500D02*
D03*
X379000Y237500D02*
D03*
X373000Y241500D02*
D03*
X562500Y242500D02*
D03*
X443201Y242740D02*
D03*
X360201D02*
D03*
X651855Y241244D02*
D03*
X568799Y241244D02*
D03*
X455799Y241244D02*
D03*
X259991D02*
D03*
X177000D02*
D03*
X253692Y242740D02*
D03*
X164201D02*
D03*
X170500Y243000D02*
D03*
D28*
X645556Y218437D02*
D03*
Y210563D02*
D03*
X562500Y218437D02*
D03*
Y210563D02*
D03*
X449500Y218437D02*
D03*
Y210563D02*
D03*
X170500Y218437D02*
D03*
Y210563D02*
D03*
X366500Y218437D02*
D03*
Y210563D02*
D03*
X253692Y218437D02*
D03*
Y210563D02*
D03*
D29*
X568799Y246756D02*
D03*
Y241244D02*
D03*
X651855Y246756D02*
D03*
Y241244D02*
D03*
X372799Y246756D02*
D03*
Y241244D02*
D03*
X455799Y246756D02*
D03*
Y241244D02*
D03*
X177000Y246756D02*
D03*
Y241244D02*
D03*
X259991Y246756D02*
D03*
Y241244D02*
D03*
M02*
