M48
;Layer_Color=9474304
;FILE_FORMAT=2:5
INCH,TZ
;TYPE=PLATED
T1F00S00C0.02800
T2F00S00C0.03307
T3F00S00C0.03543
T4F00S00C0.07874
T5F00S00C0.11811
%
T01
X651855Y241244
X651500Y254000
X645556Y264000
X562500
X568799Y254000
Y241244
X562500Y242500
X455799Y241244
Y254000
X449500Y264000
X443201Y242740
X415142Y253500
X400000Y256000
X372000Y255500
X366500Y264000
X360201Y242740
X373000Y241500
X379000Y237500
X259991Y241244
X253692Y242740
Y264000
X170500
Y243000
X164201Y242740
X177000Y241244
T02
X625500Y239156
X634231Y231422
X645556Y228630
X656881Y231422
X665612Y239156
X669748Y250063
X668342Y261642
X661716Y271241
X651388Y276662
X639724
X629396Y271241
X622770Y261642
X621364Y250063
X586692
X585286Y261642
X578660Y271241
X568332Y276662
X556668
X546340Y271241
X539714Y261642
X538308Y250063
X542444Y239156
X551175Y231422
X562500Y228630
X573825Y231422
X582556Y239156
X469556
X473692Y250063
X472286Y261642
X465660Y271241
X455332Y276662
X443668
X433340Y271241
X426714Y261642
X425308Y250063
X429444Y239156
X438175Y231422
X449500Y228630
X460825Y231422
X386556Y239156
X390692Y250063
X389286Y261642
X382660Y271241
X372332Y276662
X360668
X350340Y271241
X343714Y261642
X342308Y250063
X346444Y239156
X355175Y231422
X366500Y228630
X377825Y231422
X273748Y239156
X277884Y250063
X276478Y261642
X269852Y271241
X259524Y276662
X247860
X237532Y271241
X230906Y261642
X229500Y250063
X233636Y239156
X242367Y231422
X253692Y228630
X265017Y231422
X190556Y239156
X194692Y250063
X193286Y261642
X186660Y271241
X176332Y276662
X164668
X159175Y231422
X170500Y228630
X181825Y231422
X150444Y239156
X146308Y250063
X147714Y261642
X154340Y271241
T03
X324000Y331500
Y341500
X334000
Y331500
X344000
Y341500
X354000
Y331500
X364000
Y341500
X374000
Y331500
X384000
Y341500
X394000
Y331500
X404000
Y341500
X414000
Y331500
X424000
Y341500
X434000
Y331500
X444000
Y341500
X454000
Y331500
X464000
Y341500
X474000
Y331500
X484000
Y341500
X494000
Y331500
T04
X551000Y167000
X267000
Y338500
X551000
T05
X686500Y167000
X129500
Y338500
X686500
M30
