G04*
G04 #@! TF.GenerationSoftware,Altium Limited,Altium Designer,18.1.11 (251)*
G04*
G04 Layer_Color=8388736*
%FSLAX25Y25*%
%MOIN*%
G70*
G01*
G75*
%ADD14O,0.04737X0.08674*%
%ADD15R,0.04737X0.08674*%
%ADD16C,0.05760*%
%ADD17C,0.06706*%
%ADD18R,0.06706X0.06706*%
%ADD19C,0.16548*%
%ADD20C,0.05800*%
D14*
X176799Y264000D02*
D03*
X170500D02*
D03*
X164201D02*
D03*
X176799Y242740D02*
D03*
X170500D02*
D03*
X259991Y264000D02*
D03*
X253692D02*
D03*
X247393D02*
D03*
X259991Y242740D02*
D03*
X253692D02*
D03*
X372799Y264000D02*
D03*
X366500D02*
D03*
X360201D02*
D03*
X372799Y242740D02*
D03*
X366500D02*
D03*
X455799Y264000D02*
D03*
X449500D02*
D03*
X443201D02*
D03*
X455799Y242740D02*
D03*
X449500D02*
D03*
X568799Y264000D02*
D03*
X562500D02*
D03*
X556201D02*
D03*
X568799Y242740D02*
D03*
X562500D02*
D03*
X651855Y264000D02*
D03*
X645556D02*
D03*
X639257D02*
D03*
X651855Y242740D02*
D03*
X645556D02*
D03*
D15*
X164201D02*
D03*
X247393D02*
D03*
X360201D02*
D03*
X443201D02*
D03*
X556201D02*
D03*
X639257D02*
D03*
D16*
X181825Y231422D02*
D03*
X159175D02*
D03*
X170500Y228630D02*
D03*
X194692Y250063D02*
D03*
X193286Y261642D02*
D03*
X186660Y271241D02*
D03*
X176332Y276662D02*
D03*
X164668D02*
D03*
X154340Y271241D02*
D03*
X147714Y261642D02*
D03*
X146308Y250063D02*
D03*
X150444Y239156D02*
D03*
X190556D02*
D03*
X273748D02*
D03*
X233636D02*
D03*
X229500Y250063D02*
D03*
X230906Y261642D02*
D03*
X237532Y271241D02*
D03*
X247860Y276662D02*
D03*
X259524D02*
D03*
X269852Y271241D02*
D03*
X276478Y261642D02*
D03*
X277884Y250063D02*
D03*
X253692Y228630D02*
D03*
X242367Y231422D02*
D03*
X265017D02*
D03*
X377825D02*
D03*
X355175D02*
D03*
X366500Y228630D02*
D03*
X390692Y250063D02*
D03*
X389286Y261642D02*
D03*
X382660Y271241D02*
D03*
X372332Y276662D02*
D03*
X360668D02*
D03*
X350340Y271241D02*
D03*
X343714Y261642D02*
D03*
X342308Y250063D02*
D03*
X346444Y239156D02*
D03*
X386556D02*
D03*
X469556D02*
D03*
X429444D02*
D03*
X425308Y250063D02*
D03*
X426714Y261642D02*
D03*
X433340Y271241D02*
D03*
X443668Y276662D02*
D03*
X455332D02*
D03*
X465660Y271241D02*
D03*
X472286Y261642D02*
D03*
X473692Y250063D02*
D03*
X449500Y228630D02*
D03*
X438175Y231422D02*
D03*
X460825D02*
D03*
X573825D02*
D03*
X551175D02*
D03*
X562500Y228630D02*
D03*
X586692Y250063D02*
D03*
X585286Y261642D02*
D03*
X578660Y271241D02*
D03*
X568332Y276662D02*
D03*
X556668D02*
D03*
X546340Y271241D02*
D03*
X539714Y261642D02*
D03*
X538308Y250063D02*
D03*
X542444Y239156D02*
D03*
X582556D02*
D03*
X665612D02*
D03*
X625500D02*
D03*
X621364Y250063D02*
D03*
X622770Y261642D02*
D03*
X629396Y271241D02*
D03*
X639724Y276662D02*
D03*
X651388D02*
D03*
X661716Y271241D02*
D03*
X668342Y261642D02*
D03*
X669748Y250063D02*
D03*
X645556Y228630D02*
D03*
X634231Y231422D02*
D03*
X656881D02*
D03*
D17*
X324000Y331500D02*
D03*
Y341500D02*
D03*
X334000Y331500D02*
D03*
Y341500D02*
D03*
X344000Y331500D02*
D03*
Y341500D02*
D03*
X354000Y331500D02*
D03*
Y341500D02*
D03*
X364000Y331500D02*
D03*
Y341500D02*
D03*
X374000Y331500D02*
D03*
Y341500D02*
D03*
X384000Y331500D02*
D03*
Y341500D02*
D03*
X394000Y331500D02*
D03*
Y341500D02*
D03*
X404000Y331500D02*
D03*
Y341500D02*
D03*
X414000Y331500D02*
D03*
Y341500D02*
D03*
X424000Y331500D02*
D03*
Y341500D02*
D03*
X434000Y331500D02*
D03*
Y341500D02*
D03*
X444000Y331500D02*
D03*
Y341500D02*
D03*
X454000Y331500D02*
D03*
Y341500D02*
D03*
X464000Y331500D02*
D03*
Y341500D02*
D03*
X474000Y331500D02*
D03*
Y341500D02*
D03*
X484000Y331500D02*
D03*
Y341500D02*
D03*
X494000Y331500D02*
D03*
D18*
Y341500D02*
D03*
D19*
X129500Y167000D02*
D03*
X686500D02*
D03*
Y338500D02*
D03*
X129500D02*
D03*
X267000Y167000D02*
D03*
X551000D02*
D03*
Y338500D02*
D03*
X267000D02*
D03*
D20*
X170500Y264000D02*
D03*
X253692D02*
D03*
X366500D02*
D03*
X645556D02*
D03*
X562500D02*
D03*
X449500D02*
D03*
X651500Y254000D02*
D03*
X568799D02*
D03*
X455799D02*
D03*
X415142Y253500D02*
D03*
X400000Y256000D02*
D03*
X372000Y255500D02*
D03*
X379000Y237500D02*
D03*
X373000Y241500D02*
D03*
X562500Y242500D02*
D03*
X443201Y242740D02*
D03*
X360201D02*
D03*
X651855Y241244D02*
D03*
X568799Y241244D02*
D03*
X455799Y241244D02*
D03*
X259991D02*
D03*
X177000D02*
D03*
X253692Y242740D02*
D03*
X164201D02*
D03*
X170500Y243000D02*
D03*
M02*
