G04*
G04 #@! TF.GenerationSoftware,Altium Limited,Altium Designer,18.1.11 (251)*
G04*
G04 Layer_Color=32896*
%FSLAX25Y25*%
%MOIN*%
G70*
G01*
G75*
%ADD10C,0.00787*%
%ADD13C,0.00500*%
D10*
X642997Y214500D02*
X648115D01*
X559941D02*
X565059D01*
X446941D02*
X452059D01*
X167941D02*
X173059D01*
X363941D02*
X369059D01*
X251133D02*
X256251D01*
D13*
X650156Y228399D02*
Y225900D01*
Y228399D02*
X649085D01*
X648728Y228280D01*
X648609Y228161D01*
X648490Y227923D01*
Y227685D01*
X648609Y227447D01*
X648728Y227328D01*
X649085Y227209D01*
X650156D01*
X649323D02*
X648490Y225900D01*
X647930Y227923D02*
X647692Y228042D01*
X647335Y228399D01*
Y225900D01*
X645502Y228399D02*
X645859Y228280D01*
X645978Y228042D01*
Y227804D01*
X645859Y227566D01*
X645621Y227447D01*
X645145Y227328D01*
X644788Y227209D01*
X644550Y226971D01*
X644431Y226733D01*
Y226376D01*
X644550Y226138D01*
X644669Y226019D01*
X645026Y225900D01*
X645502D01*
X645859Y226019D01*
X645978Y226138D01*
X646097Y226376D01*
Y226733D01*
X645978Y226971D01*
X645740Y227209D01*
X645383Y227328D01*
X644907Y227447D01*
X644669Y227566D01*
X644550Y227804D01*
Y228042D01*
X644669Y228280D01*
X645026Y228399D01*
X645502D01*
X371100D02*
Y225900D01*
Y228399D02*
X370029D01*
X369672Y228280D01*
X369553Y228161D01*
X369434Y227923D01*
Y227685D01*
X369553Y227447D01*
X369672Y227328D01*
X370029Y227209D01*
X371100D01*
X370267D02*
X369434Y225900D01*
X368874Y227923D02*
X368636Y228042D01*
X368279Y228399D01*
Y225900D01*
X365375Y228399D02*
X366565Y225900D01*
X367041Y228399D02*
X365375D01*
X567100D02*
Y225900D01*
Y228399D02*
X566029D01*
X565672Y228280D01*
X565553Y228161D01*
X565434Y227923D01*
Y227685D01*
X565553Y227447D01*
X565672Y227328D01*
X566029Y227209D01*
X567100D01*
X566267D02*
X565434Y225900D01*
X564874Y227923D02*
X564636Y228042D01*
X564279Y228399D01*
Y225900D01*
X561613Y228042D02*
X561732Y228280D01*
X562089Y228399D01*
X562327D01*
X562684Y228280D01*
X562922Y227923D01*
X563041Y227328D01*
Y226733D01*
X562922Y226257D01*
X562684Y226019D01*
X562327Y225900D01*
X562208D01*
X561851Y226019D01*
X561613Y226257D01*
X561494Y226614D01*
Y226733D01*
X561613Y227090D01*
X561851Y227328D01*
X562208Y227447D01*
X562327D01*
X562684Y227328D01*
X562922Y227090D01*
X563041Y226733D01*
X454100Y228399D02*
Y225900D01*
Y228399D02*
X453029D01*
X452672Y228280D01*
X452553Y228161D01*
X452434Y227923D01*
Y227685D01*
X452553Y227447D01*
X452672Y227328D01*
X453029Y227209D01*
X454100D01*
X453267D02*
X452434Y225900D01*
X451874Y227923D02*
X451636Y228042D01*
X451279Y228399D01*
Y225900D01*
X448613Y228399D02*
X449803D01*
X449922Y227328D01*
X449803Y227447D01*
X449446Y227566D01*
X449089D01*
X448732Y227447D01*
X448494Y227209D01*
X448375Y226852D01*
Y226614D01*
X448494Y226257D01*
X448732Y226019D01*
X449089Y225900D01*
X449446D01*
X449803Y226019D01*
X449922Y226138D01*
X450041Y226376D01*
X258292Y228399D02*
Y225900D01*
Y228399D02*
X257221D01*
X256864Y228280D01*
X256745Y228161D01*
X256626Y227923D01*
Y227685D01*
X256745Y227447D01*
X256864Y227328D01*
X257221Y227209D01*
X258292D01*
X257459D02*
X256626Y225900D01*
X256066Y227923D02*
X255828Y228042D01*
X255471Y228399D01*
Y225900D01*
X253043Y228399D02*
X254233Y226733D01*
X252448D01*
X253043Y228399D02*
Y225900D01*
X175100Y228399D02*
Y225900D01*
Y228399D02*
X174029D01*
X173672Y228280D01*
X173553Y228161D01*
X173434Y227923D01*
Y227685D01*
X173553Y227447D01*
X173672Y227328D01*
X174029Y227209D01*
X175100D01*
X174267D02*
X173434Y225900D01*
X172874Y227923D02*
X172636Y228042D01*
X172279Y228399D01*
Y225900D01*
X170803Y228399D02*
X169494D01*
X170208Y227447D01*
X169851D01*
X169613Y227328D01*
X169494Y227209D01*
X169375Y226852D01*
Y226614D01*
X169494Y226257D01*
X169732Y226019D01*
X170089Y225900D01*
X170446D01*
X170803Y226019D01*
X170922Y226138D01*
X171041Y226376D01*
X653755Y253900D02*
Y251400D01*
Y253900D02*
X652684D01*
X652327Y253780D01*
X652208Y253661D01*
X652089Y253423D01*
Y253185D01*
X652208Y252947D01*
X652327Y252828D01*
X652684Y252709D01*
X653755D01*
X652922D02*
X652089Y251400D01*
X651530Y253423D02*
X651292Y253542D01*
X650934Y253900D01*
Y251400D01*
X649578Y253304D02*
Y253423D01*
X649459Y253661D01*
X649339Y253780D01*
X649101Y253900D01*
X648625D01*
X648387Y253780D01*
X648268Y253661D01*
X648149Y253423D01*
Y253185D01*
X648268Y252947D01*
X648506Y252590D01*
X649697Y251400D01*
X648030D01*
X570700Y253900D02*
Y251400D01*
Y253900D02*
X569629D01*
X569272Y253780D01*
X569153Y253661D01*
X569034Y253423D01*
Y253185D01*
X569153Y252947D01*
X569272Y252828D01*
X569629Y252709D01*
X570700D01*
X569867D02*
X569034Y251400D01*
X568474Y253423D02*
X568236Y253542D01*
X567879Y253900D01*
Y251400D01*
X566641Y253423D02*
X566403Y253542D01*
X566046Y253900D01*
Y251400D01*
X457699Y253900D02*
Y251400D01*
Y253900D02*
X456628D01*
X456271Y253780D01*
X456152Y253661D01*
X456033Y253423D01*
Y253185D01*
X456152Y252947D01*
X456271Y252828D01*
X456628Y252709D01*
X457699D01*
X456866D02*
X456033Y251400D01*
X455474Y253423D02*
X455235Y253542D01*
X454878Y253900D01*
Y251400D01*
X452926Y253900D02*
X453284Y253780D01*
X453521Y253423D01*
X453641Y252828D01*
Y252471D01*
X453521Y251876D01*
X453284Y251519D01*
X452926Y251400D01*
X452688D01*
X452331Y251519D01*
X452093Y251876D01*
X451974Y252471D01*
Y252828D01*
X452093Y253423D01*
X452331Y253780D01*
X452688Y253900D01*
X452926D01*
X374699D02*
Y251400D01*
Y253900D02*
X373628D01*
X373271Y253780D01*
X373152Y253661D01*
X373033Y253423D01*
Y253185D01*
X373152Y252947D01*
X373271Y252828D01*
X373628Y252709D01*
X374699D01*
X373866D02*
X373033Y251400D01*
X370926Y253066D02*
X371045Y252709D01*
X371283Y252471D01*
X371640Y252352D01*
X371759D01*
X372116Y252471D01*
X372355Y252709D01*
X372474Y253066D01*
Y253185D01*
X372355Y253542D01*
X372116Y253780D01*
X371759Y253900D01*
X371640D01*
X371283Y253780D01*
X371045Y253542D01*
X370926Y253066D01*
Y252471D01*
X371045Y251876D01*
X371283Y251519D01*
X371640Y251400D01*
X371878D01*
X372235Y251519D01*
X372355Y251757D01*
X261891Y253900D02*
Y251400D01*
Y253900D02*
X260820D01*
X260463Y253780D01*
X260344Y253661D01*
X260225Y253423D01*
Y253185D01*
X260344Y252947D01*
X260463Y252828D01*
X260820Y252709D01*
X261891D01*
X261058D02*
X260225Y251400D01*
X259070Y253900D02*
X259427Y253780D01*
X259546Y253542D01*
Y253304D01*
X259427Y253066D01*
X259189Y252947D01*
X258713Y252828D01*
X258356Y252709D01*
X258118Y252471D01*
X257999Y252233D01*
Y251876D01*
X258118Y251638D01*
X258237Y251519D01*
X258594Y251400D01*
X259070D01*
X259427Y251519D01*
X259546Y251638D01*
X259665Y251876D01*
Y252233D01*
X259546Y252471D01*
X259308Y252709D01*
X258951Y252828D01*
X258475Y252947D01*
X258237Y253066D01*
X258118Y253304D01*
Y253542D01*
X258237Y253780D01*
X258594Y253900D01*
X259070D01*
X178900D02*
Y251400D01*
Y253900D02*
X177829D01*
X177472Y253780D01*
X177353Y253661D01*
X177234Y253423D01*
Y253185D01*
X177353Y252947D01*
X177472Y252828D01*
X177829Y252709D01*
X178900D01*
X178067D02*
X177234Y251400D01*
X175008Y253900D02*
X176198Y251400D01*
X176674Y253900D02*
X175008D01*
M02*
